<?xml version="1.0" encoding="UTF-8" standalone="no"?>
<svg
   width="136.02536"
   height="136.02455"
   viewBox="0 0 136.02536 136.02455"
   fill="none"
   version="1.1"
   id="svg28"
   sodipodi:docname="logo_birbs_thicc_outline.svg"
   inkscape:version="1.3 (0e150ed, 2023-07-21)"
   xmlns:inkscape="http://www.inkscape.org/namespaces/inkscape"
   xmlns:sodipodi="http://sodipodi.sourceforge.net/DTD/sodipodi-0.dtd"
   xmlns="http://www.w3.org/2000/svg"
   xmlns:svg="http://www.w3.org/2000/svg">
  <defs
     id="defs32" />
  <sodipodi:namedview
     id="namedview30"
     pagecolor="#ffffff"
     bordercolor="#000000"
     borderopacity="0.25"
     inkscape:showpageshadow="2"
     inkscape:pageopacity="0.0"
     inkscape:pagecheckerboard="0"
     inkscape:deskcolor="#d1d1d1"
     showgrid="false"
     inkscape:zoom="4.9160089"
     inkscape:cx="89.096665"
     inkscape:cy="59.702902"
     inkscape:window-width="1584"
     inkscape:window-height="966"
     inkscape:window-x="75"
     inkscape:window-y="38"
     inkscape:window-maximized="0"
     inkscape:current-layer="svg28" />
  <path
     d="m 107.62118,124.96281 c 18.6,-28.900502 23.3,-69.000504 18.6,-78.900504 -1.8,-3.8 -3.7,-6.5 -5.5,-8.4 -0.8,-0.9 -0.9,-2.1 -0.3,-3.1 6.2,-9.8 6.2,-16.3 4.4,-20.29999 -0.3,-0.7 -0.7,-1.3 -1.3,-1.8 -0.5,-0.5 -1.2,-1 -1.8,-1.3 -4,-1.6999999 -10.5,-1.7999999 -20.3,4.4 -1,0.6 -2.300001,0.5 -3.100001,-0.3 -1.9,-1.8 -4.6,-3.7 -8.4,-5.4999999 -9.9,-4.6 -50.1,-10e-6 -78.900002,18.5999899 -0.7,0.5 -1.1000001,1.4 -0.8,2.2 0.3,0.8 1.1,1.4 2,1.3 0.4,0 36.100002,-1.9 63.300002,4.2 2.1,0.5 3.1,3 1.8,4.8 -2.8,3.9 -5.3,7.8 -7.7,11.7 -0.1,0.1 0.1,0.2 0.2,0.2 5.8,-2.8 9.8,-2.6 12.4,-1.5 0.6,0.2 1,0.6 1.5,1 0.4,0.4 0.8,0.9 1,1.5 1.1,2.7 1.3,6.7 -1.5,12.4 0,0.1 0.1,0.2 0.2,0.2 3.9,-2.4 7.8,-4.9 11.7,-7.7 1.8,-1.3 4.3,-0.4 4.8,1.8 6.100001,27.200002 4.200001,63.000504 4.200001,63.300504 0,0.9 0.5,1.7 1.3,2 0.8,0.2 1.7,-0.1 2.2,-0.8 z"
     fill="#ed2207"
     id="path2"
     style="fill:none;fill-opacity:1;stroke:#000000;stroke-opacity:1" />
  <path
     d="m 66.721179,127.26281 c 11.2,-17.4 14,-41.500502 11.2,-47.500502 -1,-2.2 -2.2,-3.9 -3.3,-5 -0.5,-0.5 -0.6,-1.3 -0.2,-1.9 3.7,-5.900002 3.7,-9.700002 2.7,-12.100002 -0.2,-0.4 -0.5,-0.8 -0.8,-1.2 -0.3,-0.3 -0.7,-0.6 -1.2,-0.8 -2.4,-1 -6.3,-1 -12.1,2.7 -0.6,0.4 -1.4,0.3 -1.9,-0.2 -1.2,-1.1 -2.8,-2.2 -5,-3.3 -6,-2.8 -30.1,0 -47.5000021,11.200002 -0.4,0.3 -0.6,0.8 -0.5,1.3 0.2,0.5 0.6,0.8 1.2,0.8 0.2,0 21.7000021,-1.2 38.1000021,2.5 1.3,0.3 1.9,1.8 1.1,2.9 -3.3,4.5 -5.9,8.9 -8.4,13.7 -0.3,0.5 -0.7,1 -1.2,1.3 l -13,8 c -0.5,0.3 -0.7,0.900002 -0.5,1.500002 0.2,0.5 0.8,0.8 1.4,0.7 l 12.3,-5.600002 c 0.2,-0.1 0.4,0 0.5,0.1 0.1,0.1 0.2,0.3 0.1,0.5 l -5.6,12.300502 c -0.1,0.6 0.2,1.1 0.7,1.4 0.5,0.2 1.2,0 1.5,-0.5 l 8,-13.000502 c 0.3,-0.5 0.8,-0.9 1.3,-1.2 4.8,-2.5 9.2,-5.1 13.7,-8.4 1.1,-0.8 2.6,-0.2 2.9,1.1 3.7,16.400002 2.5,37.900502 2.5,38.100502 0,0.5 0.3,1 0.8,1.2 0.4,0.1 1,-0.1 1.2,-0.6 z"
     fill="#000000"
     id="path4"
     style="fill:none;stroke:#000000;stroke-opacity:1" />
  <path
     id="path5"
     style="fill:#000000;fill-opacity:1;stroke:#000000;stroke-width:16.2;stroke-dasharray:none;stroke-opacity:1"
     d="m 89.921249,9.7614591 c 3.8,1.7999979 6.50039,3.7000019 8.40039,5.4999999 0.8,0.799999 2.099611,0.900781 3.099611,0.300781 9.79999,-6.1999929 16.30079,-6.1003879 20.30078,-4.40039 0.6,0.3 1.29883,0.800782 1.79883,1.300781 0.6,0.5 1.00078,1.098829 1.30078,1.798828 1.8,3.999986 1.7996,10.500791 -4.40039,20.300781 -0.6,1 -0.49922,2.199611 0.30078,3.09961 1.8,1.899998 3.7,4.600394 5.5,8.40039 4.7,9.899991 -0.002,49.999918 -18.60156,78.90039 -0.5,0.7 -1.39922,1.00078 -2.19922,0.80078 -0.8,-0.3 -1.30078,-1.1 -1.30078,-2 0,-0.3 1.90077,-36.100802 -4.199221,-63.300779 -0.5,-2.199998 -3.00078,-3.10078 -4.80078,-1.800781 -3.9,2.799997 -10.03681,8.047304 -13.93681,10.447298 -0.1,0 2.03837,-2.847298 2.03837,-2.947298 2.8,-5.699994 2.6,-9.700393 1.5,-12.400391 -0.2,-0.599999 -0.6,-1.1 -1,-1.5 -0.5,-0.399999 -0.9,-0.8 -1.5,-1 -2.6,-1.099999 -6.60039,-1.299997 -12.40039,1.5 -0.1,0 -3.75926,2.341786 -3.65926,2.241786 2.4,-3.899996 8.35926,-10.240227 11.15926,-14.140223 1.3,-1.799998 0.29922,-4.300782 -1.80078,-4.800782 -27.19997,-6.099993 -62.898829,-4.199218 -63.298828,-4.199218 -0.899999,0.1 -1.7,-0.500782 -2,-1.300782 -0.3000001,-0.799999 0.09883,-1.699219 0.798828,-2.199218 21.59998,-13.949986 49.61252,-20.0250029 66.44531,-20.2499999 5.61093,-0.075 9.98008,0.498438 12.45508,1.648437 z M 56.120469,57.962631 c 2.2,1.099999 3.8,2.198829 5,3.298828 0.5,0.5 1.30039,0.601172 1.90039,0.201172 5.79999,-3.699996 9.69961,-3.701171 12.09961,-2.701172 0.5,0.2 0.90117,0.500782 1.20117,0.800781 0.3,0.4 0.59883,0.79922 0.79883,1.199219 1,2.399998 1.00078,6.201567 -2.69922,12.101559 -0.4,0.6 -0.30078,1.39844 0.19922,1.89844 1.1,1.1 2.30078,2.8 3.30078,5 2.8,6 7.7e-4,30.101972 -11.19922,47.501952 -0.2,0.50001 -0.80117,0.69961 -1.20117,0.59961 -0.5,-0.2 -0.79883,-0.70117 -0.79883,-1.20117 0,-0.2 1.2,-21.69962 -2.5,-38.099612 -0.3,-1.3 -1.80039,-1.89961 -2.90039,-1.09961 -4.49999,3.3 -8.90118,5.9004 -13.70117,8.40039 -0.5,0.3 -0.99883,0.69922 -1.29883,1.19922 l -8,13.000002 c -0.3,0.5 -1,0.7 -1.5,0.5 -0.5,-0.3 -0.80117,-0.80039 -0.70117,-1.40039 l 5.60156,-12.298832 c 0.1,-0.2 -0.002,-0.4 -0.10156,-0.5 -0.1,-0.0996 -0.3,-0.20156 -0.5,-0.10156 l -12.29883,5.601562 c -0.6,0.1 -1.20039,-0.20117 -1.40039,-0.70117 -0.2,-0.6 0,-1.200002 0.5,-1.500002 l 13,-8 c 0.5,-0.3 0.89922,-0.79883 1.19922,-1.29883 2.5,-4.79999 5.10039,-9.20117 8.40039,-13.70117 0.8,-1.1 0.20039,-2.60039 -1.09961,-2.90039 -16.39998,-3.7 -37.8996091,-2.5 -38.0996091,-2.5 -0.599999,0 -1.001172,-0.29883 -1.201172,-0.79883 -0.1,-0.5 0.100001,-1.00078 0.5,-1.30078 C 21.670459,60.761857 38.489619,57.088022 48.614609,56.956772 c 3.375,-0.04375 6.00586,0.30586 7.50586,1.005859 z"
     sodipodi:nodetypes="cccccccccccsccccccccccccscsccccccccscccsccccccccsccccccccsccsc" />
</svg>
