<?xml version="1.0" encoding="UTF-8" standalone="no"?>
<svg
   width="315"
   height="205"
   viewBox="0 0 315 205"
   fill="none"
   version="1.1"
   id="svg28"
   sodipodi:docname="birbs_filled.svg"
   inkscape:version="1.3 (0e150ed, 2023-07-21)"
   xmlns:inkscape="http://www.inkscape.org/namespaces/inkscape"
   xmlns:sodipodi="http://sodipodi.sourceforge.net/DTD/sodipodi-0.dtd"
   xmlns="http://www.w3.org/2000/svg"
   xmlns:svg="http://www.w3.org/2000/svg">
  <defs
     id="defs32" />
  <sodipodi:namedview
     id="namedview30"
     pagecolor="#ffffff"
     bordercolor="#000000"
     borderopacity="0.25"
     inkscape:showpageshadow="2"
     inkscape:pageopacity="0.0"
     inkscape:pagecheckerboard="0"
     inkscape:deskcolor="#d1d1d1"
     showgrid="false"
     inkscape:zoom="2.6262195"
     inkscape:cx="207.14186"
     inkscape:cy="47.596936"
     inkscape:window-width="1584"
     inkscape:window-height="971"
     inkscape:window-x="149"
     inkscape:window-y="38"
     inkscape:window-maximized="0"
     inkscape:current-layer="svg28" />
  <path
     d="m 193.69407,156.81463 c 18.6,-28.9005 23.3,-69.000502 18.6,-78.900502 -1.8,-3.8 -3.7,-6.5 -5.5,-8.4 -0.8,-0.9 -0.9,-2.1 -0.3,-3.1 6.2,-9.8 6.2,-16.3 4.4,-20.29999 -0.3,-0.7 -0.7,-1.3 -1.3,-1.8 -0.5,-0.5 -1.2,-1 -1.8,-1.3 -4,-1.7 -10.5,-1.8 -20.3,4.4 -1,0.6 -2.3,0.5 -3.1,-0.3 -1.9,-1.8 -4.6,-3.7 -8.4,-5.5 -9.9,-4.6 -50.1,-10e-6 -78.900002,18.59999 -0.7,0.5 -1.1,1.4 -0.8,2.2 0.3,0.8 1.1,1.4 2,1.3 0.4,0 36.100002,-1.9 63.300002,4.2 2.1,0.5 3.1,3 1.8,4.8 -2.8,3.9 -5.3,7.8 -7.7,11.7 -0.1,0.1 0.1,0.2 0.2,0.2 5.8,-2.8 9.8,-2.6 12.4,-1.5 0.6,0.2 1,0.6 1.5,1 0.4,0.4 0.8,0.9 1,1.5 1.1,2.7 1.3,6.7 -1.5,12.4 0,0.1 0.1,0.2 0.2,0.2 3.9,-2.4 7.8,-4.9 11.7,-7.7 1.8,-1.3 4.3,-0.4 4.8,1.8 6.1,27.200002 4.2,63.000502 4.2,63.300502 0,0.9 0.5,1.7 1.3,2 0.8,0.2 1.7,-0.1 2.2,-0.8 z"
     fill="#ed2207"
     id="path2"
     style="fill:#000000;fill-opacity:1;stroke:#000000;stroke-opacity:1" />
  <path
     d="m 152.79407,159.11463 c 11.2,-17.4 14,-41.5005 11.2,-47.5005 -1,-2.2 -2.2,-3.9 -3.3,-5 -0.5,-0.5 -0.6,-1.3 -0.2,-1.9 3.7,-5.900002 3.7,-9.700002 2.7,-12.100002 -0.2,-0.4 -0.5,-0.8 -0.8,-1.2 -0.3,-0.3 -0.7,-0.6 -1.2,-0.8 -2.4,-1 -6.3,-1 -12.1,2.7 -0.6,0.4 -1.4,0.3 -1.9,-0.2 -1.2,-1.1 -2.8,-2.2 -5,-3.3 -6,-2.8 -30.1,0 -47.500002,11.200002 -0.4,0.3 -0.6,0.8 -0.5,1.3 0.2,0.5 0.6,0.8 1.2,0.8 0.2,0 21.700002,-1.2 38.100002,2.5 1.3,0.3 1.9,1.8 1.1,2.9 -3.3,4.5 -5.9,8.9 -8.4,13.7 -0.3,0.5 -0.7,1 -1.2,1.3 l -13,8 c -0.5,0.3 -0.7,0.9 -0.5,1.5 0.2,0.5 0.8,0.8 1.4,0.7 l 12.3,-5.6 c 0.2,-0.1 0.4,0 0.5,0.1 0.1,0.1 0.2,0.3 0.1,0.5 l -5.6,12.3005 c -0.1,0.6 0.2,1.1 0.7,1.4 0.5,0.2 1.2,0 1.5,-0.5 l 8,-13.0005 c 0.3,-0.5 0.8,-0.9 1.3,-1.2 4.8,-2.5 9.2,-5.1 13.7,-8.4 1.1,-0.8 2.6,-0.2 2.9,1.1 3.7,16.4 2.5,37.9005 2.5,38.1005 0,0.5 0.3,1 0.8,1.2 0.4,0.1 1,-0.1 1.2,-0.6 z"
     fill="#000000"
     id="path4"
     style="fill:#000000;stroke:#000000;stroke-opacity:1;fill-opacity:1" />
</svg>
