%TF.GenerationSoftware,KiCad,Pcbnew,(6.0.10-0)*%
%TF.CreationDate,2023-05-24T21:28:30+02:00*%
%TF.ProjectId,SwiftLeeds,53776966-744c-4656-9564-732e6b696361,rev?*%
%TF.SameCoordinates,Original*%
%TF.FileFunction,Legend,Bot*%
%TF.FilePolarity,Positive*%
%FSLAX46Y46*%
G04 Gerber Fmt 4.6, Leading zero omitted, Abs format (unit mm)*
G04 Created by KiCad (PCBNEW (6.0.10-0)) date 2023-05-24 21:28:30*
%MOMM*%
%LPD*%
G01*
G04 APERTURE LIST*
G04 Aperture macros list*
%AMRoundRect*
0 Rectangle with rounded corners*
0 $1 Rounding radius*
0 $2 $3 $4 $5 $6 $7 $8 $9 X,Y pos of 4 corners*
0 Add a 4 corners polygon primitive as box body*
4,1,4,$2,$3,$4,$5,$6,$7,$8,$9,$2,$3,0*
0 Add four circle primitives for the rounded corners*
1,1,$1+$1,$2,$3*
1,1,$1+$1,$4,$5*
1,1,$1+$1,$6,$7*
1,1,$1+$1,$8,$9*
0 Add four rect primitives between the rounded corners*
20,1,$1+$1,$2,$3,$4,$5,0*
20,1,$1+$1,$4,$5,$6,$7,0*
20,1,$1+$1,$6,$7,$8,$9,0*
20,1,$1+$1,$8,$9,$2,$3,0*%
G04 Aperture macros list end*
%ADD10C,0.150000*%
%ADD11C,0.700000*%
%ADD12C,0.120000*%
%ADD13C,1.727200*%
%ADD14O,1.727200X1.727200*%
%ADD15R,1.727200X1.727200*%
%ADD16RoundRect,0.243750X-0.017031X0.516999X-0.439219X0.273249X0.017031X-0.516999X0.439219X-0.273249X0*%
%ADD17RoundRect,0.243750X0.028093X0.516516X-0.413732X0.310490X-0.028093X-0.516516X0.413732X-0.310490X0*%
%ADD18RoundRect,0.243750X0.310490X-0.413732X0.516516X0.028093X-0.310490X0.413732X-0.516516X-0.028093X0*%
%ADD19RoundRect,0.250000X0.132583X-0.503814X0.503814X-0.132583X-0.132583X0.503814X-0.503814X0.132583X0*%
%ADD20RoundRect,0.243750X0.494975X0.150260X0.150260X0.494975X-0.494975X-0.150260X-0.150260X-0.494975X0*%
%ADD21RoundRect,0.243750X-0.273249X0.439219X-0.516999X0.017031X0.273249X-0.439219X0.516999X-0.017031X0*%
G04 APERTURE END LIST*
D10*
%TO.C,BT2*%
X167785714Y-88428571D02*
X167642857Y-88476190D01*
X167595238Y-88523809D01*
X167547619Y-88619047D01*
X167547619Y-88761904D01*
X167595238Y-88857142D01*
X167642857Y-88904761D01*
X167738095Y-88952380D01*
X168119047Y-88952380D01*
X168119047Y-87952380D01*
X167785714Y-87952380D01*
X167690476Y-88000000D01*
X167642857Y-88047619D01*
X167595238Y-88142857D01*
X167595238Y-88238095D01*
X167642857Y-88333333D01*
X167690476Y-88380952D01*
X167785714Y-88428571D01*
X168119047Y-88428571D01*
X167261904Y-87952380D02*
X166690476Y-87952380D01*
X166976190Y-88952380D02*
X166976190Y-87952380D01*
X166404761Y-88047619D02*
X166357142Y-88000000D01*
X166261904Y-87952380D01*
X166023809Y-87952380D01*
X165928571Y-88000000D01*
X165880952Y-88047619D01*
X165833333Y-88142857D01*
X165833333Y-88238095D01*
X165880952Y-88380952D01*
X166452380Y-88952380D01*
X165833333Y-88952380D01*
X165460000Y-90795285D02*
X165210000Y-91545285D01*
X164960000Y-90795285D01*
X164281428Y-91473857D02*
X164317142Y-91509571D01*
X164424285Y-91545285D01*
X164495714Y-91545285D01*
X164602857Y-91509571D01*
X164674285Y-91438142D01*
X164710000Y-91366714D01*
X164745714Y-91223857D01*
X164745714Y-91116714D01*
X164710000Y-90973857D01*
X164674285Y-90902428D01*
X164602857Y-90831000D01*
X164495714Y-90795285D01*
X164424285Y-90795285D01*
X164317142Y-90831000D01*
X164281428Y-90866714D01*
X163531428Y-91473857D02*
X163567142Y-91509571D01*
X163674285Y-91545285D01*
X163745714Y-91545285D01*
X163852857Y-91509571D01*
X163924285Y-91438142D01*
X163960000Y-91366714D01*
X163995714Y-91223857D01*
X163995714Y-91116714D01*
X163960000Y-90973857D01*
X163924285Y-90902428D01*
X163852857Y-90831000D01*
X163745714Y-90795285D01*
X163674285Y-90795285D01*
X163567142Y-90831000D01*
X163531428Y-90866714D01*
X167910714Y-91509571D02*
X167803571Y-91545285D01*
X167625000Y-91545285D01*
X167553571Y-91509571D01*
X167517857Y-91473857D01*
X167482142Y-91402428D01*
X167482142Y-91331000D01*
X167517857Y-91259571D01*
X167553571Y-91223857D01*
X167625000Y-91188142D01*
X167767857Y-91152428D01*
X167839285Y-91116714D01*
X167875000Y-91081000D01*
X167910714Y-91009571D01*
X167910714Y-90938142D01*
X167875000Y-90866714D01*
X167839285Y-90831000D01*
X167767857Y-90795285D01*
X167589285Y-90795285D01*
X167482142Y-90831000D01*
X167160714Y-91545285D02*
X167160714Y-90795285D01*
X166982142Y-90795285D01*
X166875000Y-90831000D01*
X166803571Y-90902428D01*
X166767857Y-90973857D01*
X166732142Y-91116714D01*
X166732142Y-91223857D01*
X166767857Y-91366714D01*
X166803571Y-91438142D01*
X166875000Y-91509571D01*
X166982142Y-91545285D01*
X167160714Y-91545285D01*
X166446428Y-91331000D02*
X166089285Y-91331000D01*
X166517857Y-91545285D02*
X166267857Y-90795285D01*
X166017857Y-91545285D01*
X171307142Y-90831000D02*
X171378571Y-90795285D01*
X171485714Y-90795285D01*
X171592857Y-90831000D01*
X171664285Y-90902428D01*
X171700000Y-90973857D01*
X171735714Y-91116714D01*
X171735714Y-91223857D01*
X171700000Y-91366714D01*
X171664285Y-91438142D01*
X171592857Y-91509571D01*
X171485714Y-91545285D01*
X171414285Y-91545285D01*
X171307142Y-91509571D01*
X171271428Y-91473857D01*
X171271428Y-91223857D01*
X171414285Y-91223857D01*
X170950000Y-91545285D02*
X170950000Y-90795285D01*
X170664285Y-90795285D01*
X170592857Y-90831000D01*
X170557142Y-90866714D01*
X170521428Y-90938142D01*
X170521428Y-91045285D01*
X170557142Y-91116714D01*
X170592857Y-91152428D01*
X170664285Y-91188142D01*
X170950000Y-91188142D01*
X170200000Y-91545285D02*
X170200000Y-90795285D01*
X169700000Y-90795285D02*
X169557142Y-90795285D01*
X169485714Y-90831000D01*
X169414285Y-90902428D01*
X169378571Y-91045285D01*
X169378571Y-91295285D01*
X169414285Y-91438142D01*
X169485714Y-91509571D01*
X169557142Y-91545285D01*
X169700000Y-91545285D01*
X169771428Y-91509571D01*
X169842857Y-91438142D01*
X169878571Y-91295285D01*
X169878571Y-91045285D01*
X169842857Y-90902428D01*
X169771428Y-90831000D01*
X169700000Y-90795285D01*
X168664285Y-91545285D02*
X169092857Y-91545285D01*
X168878571Y-91545285D02*
X168878571Y-90795285D01*
X168950000Y-90902428D01*
X169021428Y-90973857D01*
X169092857Y-91009571D01*
X165031428Y-96673000D02*
X165102857Y-96637285D01*
X165210000Y-96637285D01*
X165317142Y-96673000D01*
X165388571Y-96744428D01*
X165424285Y-96815857D01*
X165460000Y-96958714D01*
X165460000Y-97065857D01*
X165424285Y-97208714D01*
X165388571Y-97280142D01*
X165317142Y-97351571D01*
X165210000Y-97387285D01*
X165138571Y-97387285D01*
X165031428Y-97351571D01*
X164995714Y-97315857D01*
X164995714Y-97065857D01*
X165138571Y-97065857D01*
X164674285Y-97387285D02*
X164674285Y-96637285D01*
X164245714Y-97387285D01*
X164245714Y-96637285D01*
X163888571Y-97387285D02*
X163888571Y-96637285D01*
X163710000Y-96637285D01*
X163602857Y-96673000D01*
X163531428Y-96744428D01*
X163495714Y-96815857D01*
X163460000Y-96958714D01*
X163460000Y-97065857D01*
X163495714Y-97208714D01*
X163531428Y-97280142D01*
X163602857Y-97351571D01*
X163710000Y-97387285D01*
X163888571Y-97387285D01*
X167892857Y-97351571D02*
X167785714Y-97387285D01*
X167607142Y-97387285D01*
X167535714Y-97351571D01*
X167500000Y-97315857D01*
X167464285Y-97244428D01*
X167464285Y-97173000D01*
X167500000Y-97101571D01*
X167535714Y-97065857D01*
X167607142Y-97030142D01*
X167750000Y-96994428D01*
X167821428Y-96958714D01*
X167857142Y-96923000D01*
X167892857Y-96851571D01*
X167892857Y-96780142D01*
X167857142Y-96708714D01*
X167821428Y-96673000D01*
X167750000Y-96637285D01*
X167571428Y-96637285D01*
X167464285Y-96673000D01*
X166714285Y-97315857D02*
X166750000Y-97351571D01*
X166857142Y-97387285D01*
X166928571Y-97387285D01*
X167035714Y-97351571D01*
X167107142Y-97280142D01*
X167142857Y-97208714D01*
X167178571Y-97065857D01*
X167178571Y-96958714D01*
X167142857Y-96815857D01*
X167107142Y-96744428D01*
X167035714Y-96673000D01*
X166928571Y-96637285D01*
X166857142Y-96637285D01*
X166750000Y-96673000D01*
X166714285Y-96708714D01*
X166035714Y-97387285D02*
X166392857Y-97387285D01*
X166392857Y-96637285D01*
X171307142Y-96673000D02*
X171378571Y-96637285D01*
X171485714Y-96637285D01*
X171592857Y-96673000D01*
X171664285Y-96744428D01*
X171700000Y-96815857D01*
X171735714Y-96958714D01*
X171735714Y-97065857D01*
X171700000Y-97208714D01*
X171664285Y-97280142D01*
X171592857Y-97351571D01*
X171485714Y-97387285D01*
X171414285Y-97387285D01*
X171307142Y-97351571D01*
X171271428Y-97315857D01*
X171271428Y-97065857D01*
X171414285Y-97065857D01*
X170950000Y-97387285D02*
X170950000Y-96637285D01*
X170664285Y-96637285D01*
X170592857Y-96673000D01*
X170557142Y-96708714D01*
X170521428Y-96780142D01*
X170521428Y-96887285D01*
X170557142Y-96958714D01*
X170592857Y-96994428D01*
X170664285Y-97030142D01*
X170950000Y-97030142D01*
X170200000Y-97387285D02*
X170200000Y-96637285D01*
X169700000Y-96637285D02*
X169557142Y-96637285D01*
X169485714Y-96673000D01*
X169414285Y-96744428D01*
X169378571Y-96887285D01*
X169378571Y-97137285D01*
X169414285Y-97280142D01*
X169485714Y-97351571D01*
X169557142Y-97387285D01*
X169700000Y-97387285D01*
X169771428Y-97351571D01*
X169842857Y-97280142D01*
X169878571Y-97137285D01*
X169878571Y-96887285D01*
X169842857Y-96744428D01*
X169771428Y-96673000D01*
X169700000Y-96637285D01*
X169092857Y-96708714D02*
X169057142Y-96673000D01*
X168985714Y-96637285D01*
X168807142Y-96637285D01*
X168735714Y-96673000D01*
X168700000Y-96708714D01*
X168664285Y-96780142D01*
X168664285Y-96851571D01*
X168700000Y-96958714D01*
X169128571Y-97387285D01*
X168664285Y-97387285D01*
%TO.C,D3*%
X153203649Y-58026446D02*
X152703649Y-57160421D01*
X152497453Y-57279468D01*
X152397544Y-57392136D01*
X152362685Y-57522234D01*
X152369064Y-57628522D01*
X152423063Y-57817289D01*
X152494492Y-57941007D01*
X152630969Y-58082155D01*
X152719828Y-58140824D01*
X152849925Y-58175683D01*
X152997453Y-58145494D01*
X153203649Y-58026446D01*
X151920102Y-57612802D02*
X151383991Y-57922326D01*
X151863143Y-58085573D01*
X151739425Y-58157002D01*
X151680756Y-58245860D01*
X151663326Y-58310909D01*
X151669706Y-58417197D01*
X151788753Y-58623394D01*
X151877612Y-58682063D01*
X151942661Y-58699493D01*
X152048949Y-58693113D01*
X152296384Y-58550256D01*
X152355054Y-58461397D01*
X152372483Y-58396349D01*
%TO.C,D4*%
X154162805Y-68602655D02*
X153740187Y-67696348D01*
X153524400Y-67796971D01*
X153415052Y-67900503D01*
X153368986Y-68027067D01*
X153366078Y-68133507D01*
X153403419Y-68326261D01*
X153463793Y-68455734D01*
X153587449Y-68608239D01*
X153670856Y-68674430D01*
X153797421Y-68720495D01*
X153947018Y-68703279D01*
X154162805Y-68602655D01*
X152586334Y-68602191D02*
X152868080Y-69206396D01*
X152641125Y-68156307D02*
X153158782Y-68703046D01*
X152597735Y-68964667D01*
%TO.C,D1*%
X176625669Y-81476185D02*
X175719362Y-81053567D01*
X175618738Y-81269355D01*
X175601522Y-81418952D01*
X175647587Y-81545516D01*
X175713778Y-81628923D01*
X175866283Y-81752580D01*
X175995756Y-81812954D01*
X176188510Y-81850295D01*
X176294950Y-81847387D01*
X176421514Y-81801321D01*
X176525046Y-81691973D01*
X176625669Y-81476185D01*
X175981680Y-82857226D02*
X176223176Y-82339336D01*
X176102428Y-82598281D02*
X175196120Y-82175663D01*
X175365842Y-82149722D01*
X175492406Y-82103656D01*
X175575813Y-82037466D01*
%TO.C,R1*%
X170604458Y-67368756D02*
X170503443Y-66796336D01*
X171008519Y-66964695D02*
X170301413Y-66257588D01*
X170032038Y-66526962D01*
X169998367Y-66627977D01*
X169998367Y-66695321D01*
X170032038Y-66796336D01*
X170133054Y-66897351D01*
X170234069Y-66931023D01*
X170301413Y-66931023D01*
X170402428Y-66897351D01*
X170671802Y-66627977D01*
X169931023Y-68042191D02*
X170335084Y-67638130D01*
X170133054Y-67840161D02*
X169425947Y-67133054D01*
X169594306Y-67166726D01*
X169728993Y-67166726D01*
X169830008Y-67133054D01*
%TO.C,D2*%
X175698387Y-57289018D02*
X174991280Y-57996124D01*
X175159639Y-58164483D01*
X175294326Y-58231827D01*
X175429013Y-58231827D01*
X175530028Y-58198155D01*
X175698387Y-58097140D01*
X175799402Y-57996124D01*
X175900418Y-57827766D01*
X175934089Y-57726750D01*
X175934089Y-57592063D01*
X175866746Y-57457376D01*
X175698387Y-57289018D01*
X175732059Y-58602216D02*
X175732059Y-58669560D01*
X175765730Y-58770575D01*
X175934089Y-58938934D01*
X176035105Y-58972605D01*
X176102448Y-58972605D01*
X176203463Y-58938934D01*
X176270807Y-58871590D01*
X176338150Y-58736903D01*
X176338150Y-57928781D01*
X176775883Y-58366514D01*
%TO.C,D5*%
X162754629Y-79921727D02*
X161888603Y-79421727D01*
X161769555Y-79627923D01*
X161739366Y-79775451D01*
X161774226Y-79905548D01*
X161832895Y-79994407D01*
X161974043Y-80130884D01*
X162097760Y-80202313D01*
X162286527Y-80256311D01*
X162392815Y-80262691D01*
X162522913Y-80227832D01*
X162635581Y-80127923D01*
X162754629Y-79921727D01*
X161150508Y-80700145D02*
X161388603Y-80287752D01*
X161824806Y-80484608D01*
X161759757Y-80502038D01*
X161670899Y-80560707D01*
X161551851Y-80766903D01*
X161545471Y-80873192D01*
X161562901Y-80938240D01*
X161621570Y-81027099D01*
X161827767Y-81146146D01*
X161934055Y-81152526D01*
X161999103Y-81135096D01*
X162087962Y-81076427D01*
X162207009Y-80870231D01*
X162213389Y-80763943D01*
X162195959Y-80698894D01*
D11*
%TO.C,BT2*%
X164460000Y-89936000D02*
X159634000Y-89936000D01*
X174279640Y-89885200D02*
X169540000Y-89885200D01*
X159634000Y-89936000D02*
X159634000Y-98318000D01*
X159634000Y-98318000D02*
X174366000Y-98318000D01*
X174366000Y-98318000D02*
X174366000Y-89936000D01*
D12*
%TO.C,D3*%
X151817225Y-59101279D02*
X154142503Y-57758779D01*
X154142503Y-57758779D02*
X155102503Y-59421547D01*
X155102503Y-59421547D02*
X152777225Y-60764047D01*
%TO.C,D4*%
X155121415Y-68417833D02*
X155932842Y-70157944D01*
X155932842Y-70157944D02*
X153499406Y-71292674D01*
X152687979Y-69552563D02*
X155121415Y-68417833D01*
%TO.C,D1*%
X175701007Y-80756029D02*
X174566277Y-83189465D01*
X174566277Y-83189465D02*
X172826166Y-82378038D01*
X172826166Y-82378038D02*
X173960896Y-79944602D01*
%TO.C,R1*%
X168319718Y-65640835D02*
X168640835Y-65319718D01*
X169359165Y-66680282D02*
X169680282Y-66359165D01*
%TO.C,D2*%
X174705408Y-57911609D02*
X176603989Y-59810190D01*
X175246344Y-61167835D02*
X173347763Y-59269254D01*
X176603989Y-59810190D02*
X175246344Y-61167835D01*
%TO.C,D5*%
X163433866Y-79220493D02*
X165096634Y-80180493D01*
X165096634Y-80180493D02*
X163754134Y-82505771D01*
X162091366Y-81545771D02*
X163433866Y-79220493D01*
%TD*%
%LPC*%
D13*
%TO.C,BT2*%
X169600000Y-92750000D03*
X169600000Y-95290000D03*
D14*
X167060000Y-92750000D03*
X167060000Y-95290000D03*
D15*
X164520000Y-92750000D03*
D13*
X164520000Y-95290000D03*
%TD*%
D16*
%TO.C,D3*%
X153975149Y-58963913D03*
X152351351Y-59901413D03*
%TD*%
D17*
%TO.C,D4*%
X153150336Y-70396205D03*
X154849664Y-69603795D03*
%TD*%
D18*
%TO.C,D1*%
X174012128Y-82106287D03*
X174804538Y-80406959D03*
%TD*%
D19*
%TO.C,R1*%
X169645235Y-65354765D03*
X168354765Y-66645235D03*
%TD*%
D20*
%TO.C,D2*%
X175396605Y-59960451D03*
X174070779Y-58634625D03*
%TD*%
D21*
%TO.C,D5*%
X163891500Y-80347847D03*
X162954000Y-81971645D03*
%TD*%
M02*
