%TF.GenerationSoftware,KiCad,Pcbnew,(6.0.10-0)*%
%TF.CreationDate,2023-05-24T21:28:30+02:00*%
%TF.ProjectId,SwiftLeeds,53776966-744c-4656-9564-732e6b696361,rev?*%
%TF.SameCoordinates,Original*%
%TF.FileFunction,Legend,Top*%
%TF.FilePolarity,Positive*%
%FSLAX46Y46*%
G04 Gerber Fmt 4.6, Leading zero omitted, Abs format (unit mm)*
G04 Created by KiCad (PCBNEW (6.0.10-0)) date 2023-05-24 21:28:30*
%MOMM*%
%LPD*%
G01*
G04 APERTURE LIST*
%ADD10C,0.000000*%
%ADD11C,1.727200*%
%ADD12O,1.727200X1.727200*%
%ADD13R,1.727200X1.727200*%
G04 APERTURE END LIST*
D10*
G36*
X166345335Y-55133083D02*
G01*
X167255028Y-55212769D01*
X168009149Y-55353225D01*
X168322820Y-55445661D01*
X168591536Y-55552593D01*
X168776660Y-55642187D01*
X168955079Y-55732324D01*
X169126909Y-55822925D01*
X169292267Y-55913915D01*
X169451269Y-56005214D01*
X169604031Y-56096746D01*
X169750670Y-56188433D01*
X169891301Y-56280197D01*
X170026041Y-56371962D01*
X170155006Y-56463648D01*
X170278312Y-56555180D01*
X170396077Y-56646480D01*
X170508415Y-56737469D01*
X170615444Y-56828071D01*
X170717279Y-56918207D01*
X170814036Y-57007801D01*
X170834261Y-57027102D01*
X170855222Y-57045318D01*
X170876881Y-57062449D01*
X170899199Y-57078495D01*
X170922137Y-57093455D01*
X170945656Y-57107330D01*
X170994284Y-57131825D01*
X171044772Y-57151978D01*
X171096810Y-57167791D01*
X171150088Y-57179264D01*
X171204297Y-57186395D01*
X171259126Y-57189185D01*
X171314265Y-57187635D01*
X171369404Y-57181744D01*
X171424232Y-57171512D01*
X171478441Y-57156939D01*
X171531720Y-57138026D01*
X171583758Y-57114771D01*
X171634246Y-57087176D01*
X172110237Y-56798828D01*
X172566075Y-56547726D01*
X173002068Y-56332048D01*
X173418528Y-56149972D01*
X173815765Y-55999678D01*
X174194088Y-55879343D01*
X174553807Y-55787146D01*
X174895233Y-55721265D01*
X175218676Y-55679878D01*
X175524445Y-55661165D01*
X175812851Y-55663303D01*
X176084203Y-55684471D01*
X176338813Y-55722847D01*
X176576989Y-55776610D01*
X176799042Y-55843938D01*
X177005282Y-55923010D01*
X177035339Y-55938500D01*
X177065900Y-55955152D01*
X177096848Y-55972890D01*
X177128067Y-55991636D01*
X177159441Y-56011312D01*
X177190854Y-56031840D01*
X177222189Y-56053144D01*
X177253331Y-56075145D01*
X177284163Y-56097766D01*
X177314568Y-56120930D01*
X177344431Y-56144559D01*
X177373634Y-56168576D01*
X177402063Y-56192903D01*
X177429600Y-56217462D01*
X177456130Y-56242176D01*
X177481536Y-56266968D01*
X177510688Y-56292083D01*
X177538638Y-56317817D01*
X177565426Y-56344172D01*
X177591089Y-56371148D01*
X177615668Y-56398743D01*
X177639200Y-56426958D01*
X177661724Y-56455794D01*
X177683280Y-56485249D01*
X177703905Y-56515325D01*
X177723639Y-56546021D01*
X177742520Y-56577336D01*
X177760588Y-56609273D01*
X177777880Y-56641829D01*
X177794435Y-56675005D01*
X177810293Y-56708801D01*
X177825492Y-56743218D01*
X177908924Y-56949458D01*
X177979489Y-57171511D01*
X178035481Y-57409687D01*
X178075194Y-57664297D01*
X178096925Y-57935650D01*
X178098966Y-58224056D01*
X178079614Y-58529825D01*
X178037162Y-58853267D01*
X177969905Y-59194694D01*
X177876138Y-59554413D01*
X177754156Y-59932736D01*
X177602254Y-60329973D01*
X177418725Y-60746433D01*
X177201865Y-61182427D01*
X176949969Y-61638265D01*
X176661330Y-62114256D01*
X176633735Y-62164454D01*
X176610480Y-62215697D01*
X176591566Y-62267794D01*
X176576993Y-62320549D01*
X176566761Y-62373769D01*
X176560869Y-62427261D01*
X176559319Y-62480830D01*
X176562109Y-62534282D01*
X176569240Y-62587425D01*
X176580712Y-62640064D01*
X176596524Y-62692005D01*
X176616678Y-62743055D01*
X176641172Y-62793020D01*
X176670007Y-62841705D01*
X176686052Y-62865508D01*
X176703182Y-62888918D01*
X176721398Y-62911912D01*
X176740699Y-62934465D01*
X176920431Y-63133057D01*
X177102022Y-63352424D01*
X177284854Y-63593494D01*
X177468306Y-63857199D01*
X177651758Y-64144469D01*
X177834589Y-64456233D01*
X178016180Y-64793421D01*
X178106316Y-64971841D01*
X178195910Y-65156965D01*
X178399638Y-65739061D01*
X178543331Y-66492387D01*
X178625245Y-67400898D01*
X178643635Y-68448548D01*
X178596758Y-69619293D01*
X178482870Y-70897086D01*
X178300226Y-72265882D01*
X178047082Y-73709637D01*
X177721695Y-75212304D01*
X177322320Y-76757838D01*
X176847214Y-78330195D01*
X176294631Y-79913328D01*
X175662829Y-81491193D01*
X174950062Y-83047743D01*
X174154588Y-84566935D01*
X173274661Y-86032721D01*
X173248649Y-86066201D01*
X173220349Y-86097161D01*
X173189957Y-86125564D01*
X173157666Y-86151370D01*
X173123669Y-86174540D01*
X173088161Y-86195036D01*
X173051335Y-86212820D01*
X173013385Y-86227851D01*
X172974505Y-86240092D01*
X172934889Y-86249504D01*
X172894730Y-86256047D01*
X172854222Y-86259684D01*
X172813559Y-86260375D01*
X172772936Y-86258082D01*
X172732545Y-86252765D01*
X172692580Y-86244387D01*
X172653835Y-86227980D01*
X172617028Y-86208627D01*
X172582237Y-86186484D01*
X172549538Y-86161705D01*
X172519010Y-86134446D01*
X172490730Y-86104861D01*
X172464776Y-86073106D01*
X172441224Y-86039335D01*
X172420153Y-86003704D01*
X172401640Y-85966368D01*
X172385762Y-85927481D01*
X172372598Y-85887199D01*
X172362224Y-85845677D01*
X172354718Y-85803070D01*
X172350158Y-85759533D01*
X172348620Y-85715220D01*
X172401950Y-84076850D01*
X172422568Y-82278645D01*
X172398229Y-80010077D01*
X172298235Y-77407886D01*
X172091891Y-74608811D01*
X171939246Y-73178173D01*
X171748502Y-71749591D01*
X171515823Y-70340157D01*
X171237372Y-68966964D01*
X171223441Y-68913409D01*
X171206541Y-68861913D01*
X171186801Y-68812519D01*
X171164353Y-68765271D01*
X171139328Y-68720214D01*
X171111856Y-68677389D01*
X171082068Y-68636842D01*
X171050096Y-68598615D01*
X171016069Y-68562753D01*
X170980119Y-68529298D01*
X170942377Y-68498294D01*
X170902973Y-68469786D01*
X170862038Y-68443816D01*
X170819703Y-68420428D01*
X170776098Y-68399667D01*
X170731355Y-68381574D01*
X170685604Y-68366195D01*
X170638977Y-68353572D01*
X170591603Y-68343750D01*
X170543614Y-68336771D01*
X170495141Y-68332679D01*
X170446314Y-68331519D01*
X170397264Y-68333334D01*
X170348122Y-68338166D01*
X170299019Y-68346060D01*
X170250085Y-68357060D01*
X170201452Y-68371209D01*
X170153249Y-68388550D01*
X170105609Y-68409128D01*
X170058662Y-68432986D01*
X170012538Y-68460167D01*
X169967368Y-68490715D01*
X169580415Y-68764910D01*
X169193462Y-69032284D01*
X168806509Y-69293456D01*
X168419557Y-69549048D01*
X167645651Y-70045968D01*
X166871745Y-70528006D01*
X166869265Y-70527929D01*
X166866790Y-70527703D01*
X166864325Y-70527330D01*
X166861875Y-70526818D01*
X166859443Y-70526169D01*
X166857036Y-70525390D01*
X166854658Y-70524485D01*
X166852314Y-70523459D01*
X166850009Y-70522316D01*
X166847747Y-70521062D01*
X166845534Y-70519702D01*
X166843374Y-70518240D01*
X166841272Y-70516680D01*
X166839234Y-70515029D01*
X166837263Y-70513291D01*
X166835364Y-70511470D01*
X166833543Y-70509572D01*
X166831805Y-70507601D01*
X166830154Y-70505562D01*
X166828595Y-70503460D01*
X166827132Y-70501300D01*
X166825772Y-70499087D01*
X166824518Y-70496825D01*
X166823375Y-70494520D01*
X166822349Y-70492176D01*
X166821444Y-70489798D01*
X166820665Y-70487391D01*
X166820016Y-70484960D01*
X166819503Y-70482509D01*
X166819131Y-70480044D01*
X166818904Y-70477569D01*
X166818828Y-70475090D01*
X166948568Y-70197561D01*
X167060518Y-69930420D01*
X167155493Y-69673511D01*
X167234306Y-69426678D01*
X167297771Y-69189767D01*
X167346702Y-68962624D01*
X167381913Y-68745092D01*
X167404218Y-68537017D01*
X167414430Y-68338243D01*
X167413364Y-68148616D01*
X167401834Y-67967982D01*
X167380653Y-67796183D01*
X167350635Y-67633067D01*
X167312595Y-67478477D01*
X167267345Y-67332258D01*
X167215701Y-67194256D01*
X167205172Y-67164801D01*
X167193480Y-67135965D01*
X167180703Y-67107750D01*
X167166918Y-67080155D01*
X167152204Y-67053179D01*
X167136636Y-67026824D01*
X167120293Y-67001090D01*
X167103253Y-66975975D01*
X167085593Y-66951480D01*
X167067390Y-66927606D01*
X167048722Y-66904351D01*
X167029666Y-66881717D01*
X167010300Y-66859703D01*
X166990702Y-66838309D01*
X166970949Y-66817536D01*
X166951117Y-66797382D01*
X166855620Y-66718833D01*
X166809267Y-66681109D01*
X166786032Y-66662906D01*
X166762603Y-66645246D01*
X166738864Y-66628205D01*
X166714699Y-66611863D01*
X166689991Y-66596295D01*
X166664624Y-66581580D01*
X166638483Y-66567796D01*
X166611449Y-66555019D01*
X166583409Y-66543327D01*
X166554244Y-66532798D01*
X166420893Y-66481154D01*
X166278705Y-66435905D01*
X166127526Y-66397864D01*
X165967200Y-66367847D01*
X165797572Y-66346666D01*
X165618487Y-66335136D01*
X165429791Y-66334070D01*
X165231327Y-66344282D01*
X165022942Y-66366587D01*
X164804480Y-66401798D01*
X164575786Y-66450730D01*
X164336705Y-66514195D01*
X164087081Y-66593008D01*
X163826761Y-66687983D01*
X163555589Y-66799933D01*
X163273410Y-66929674D01*
X163270855Y-66929597D01*
X163268165Y-66929370D01*
X163265358Y-66928998D01*
X163262454Y-66928485D01*
X163259473Y-66927837D01*
X163256434Y-66927058D01*
X163253356Y-66926152D01*
X163250258Y-66925126D01*
X163247161Y-66923983D01*
X163244083Y-66922729D01*
X163241044Y-66921369D01*
X163238063Y-66919907D01*
X163235159Y-66918347D01*
X163232353Y-66916696D01*
X163229662Y-66914958D01*
X163227107Y-66913137D01*
X163224708Y-66911238D01*
X163222483Y-66909267D01*
X163220451Y-66907229D01*
X163218633Y-66905127D01*
X163217047Y-66902967D01*
X163215713Y-66900753D01*
X163214651Y-66898492D01*
X163213879Y-66896187D01*
X163213418Y-66893843D01*
X163213285Y-66891465D01*
X163213502Y-66889058D01*
X163214087Y-66886626D01*
X163215059Y-66884176D01*
X163216439Y-66881711D01*
X163218245Y-66879236D01*
X163220496Y-66876756D01*
X163702533Y-66102850D01*
X164199452Y-65328944D01*
X164455044Y-64941991D01*
X164716216Y-64555038D01*
X164983590Y-64168085D01*
X165257785Y-63781131D01*
X165288258Y-63735962D01*
X165315223Y-63689839D01*
X165338740Y-63642891D01*
X165358864Y-63595251D01*
X165375656Y-63547049D01*
X165389173Y-63498416D01*
X165399473Y-63449483D01*
X165406614Y-63400380D01*
X165410654Y-63351238D01*
X165411652Y-63302188D01*
X165409666Y-63253361D01*
X165404754Y-63204888D01*
X165396973Y-63156899D01*
X165386383Y-63109525D01*
X165373040Y-63062898D01*
X165357005Y-63017147D01*
X165338333Y-62972404D01*
X165317085Y-62928800D01*
X165293317Y-62886465D01*
X165267088Y-62845530D01*
X165238456Y-62806126D01*
X165207479Y-62768383D01*
X165174215Y-62732433D01*
X165138723Y-62698407D01*
X165101061Y-62666435D01*
X165061286Y-62636647D01*
X165019457Y-62609175D01*
X164975632Y-62584150D01*
X164929869Y-62561702D01*
X164882227Y-62541963D01*
X164832763Y-62525062D01*
X164781535Y-62511131D01*
X163408634Y-62232679D01*
X162000000Y-62000000D01*
X160572606Y-61809256D01*
X159143430Y-61656610D01*
X157729447Y-61538226D01*
X156347632Y-61450266D01*
X155014962Y-61388894D01*
X153748412Y-61350272D01*
X151481574Y-61325933D01*
X149682924Y-61346551D01*
X148033412Y-61399881D01*
X148011168Y-61401823D01*
X147989099Y-61402704D01*
X147967224Y-61402549D01*
X147945562Y-61401380D01*
X147924132Y-61399224D01*
X147902955Y-61396103D01*
X147882048Y-61392042D01*
X147861433Y-61387066D01*
X147841127Y-61381198D01*
X147821151Y-61374463D01*
X147801523Y-61366886D01*
X147782264Y-61358489D01*
X147763393Y-61349298D01*
X147744928Y-61339336D01*
X147726890Y-61328629D01*
X147709297Y-61317199D01*
X147692170Y-61305072D01*
X147675527Y-61292272D01*
X147659387Y-61278822D01*
X147643771Y-61264748D01*
X147628698Y-61250073D01*
X147614187Y-61234821D01*
X147600257Y-61219017D01*
X147586928Y-61202684D01*
X147574219Y-61185848D01*
X147562149Y-61168533D01*
X147550738Y-61150762D01*
X147540006Y-61132559D01*
X147529971Y-61113950D01*
X147520653Y-61094958D01*
X147512072Y-61075608D01*
X147504247Y-61055923D01*
X147497345Y-61036006D01*
X147491508Y-61015958D01*
X147486718Y-60995803D01*
X147482956Y-60975566D01*
X147480200Y-60955271D01*
X147478434Y-60934942D01*
X147477636Y-60914603D01*
X147477788Y-60894279D01*
X147478869Y-60873994D01*
X147480862Y-60853771D01*
X147483746Y-60833636D01*
X147487502Y-60813612D01*
X147492111Y-60793724D01*
X147497553Y-60773996D01*
X147503809Y-60754452D01*
X147510860Y-60735116D01*
X147518686Y-60716013D01*
X147527267Y-60697166D01*
X147536585Y-60678601D01*
X147546620Y-60660340D01*
X147557352Y-60642409D01*
X147568763Y-60624832D01*
X147580833Y-60607633D01*
X147593542Y-60590835D01*
X147606871Y-60574464D01*
X147620801Y-60558544D01*
X147635312Y-60543098D01*
X147650385Y-60528152D01*
X147666001Y-60513728D01*
X147682140Y-60499853D01*
X147698783Y-60486548D01*
X147715911Y-60473840D01*
X149177314Y-59594204D01*
X150693248Y-58799524D01*
X152247552Y-58087939D01*
X153824064Y-57457591D01*
X155406623Y-56906617D01*
X156979066Y-56433157D01*
X158525231Y-56035353D01*
X160028957Y-55711342D01*
X161474082Y-55459264D01*
X162844444Y-55277260D01*
X164123881Y-55163469D01*
X165296233Y-55116030D01*
X166345335Y-55133083D01*
G37*
G36*
X158293819Y-68049941D02*
G01*
X158841641Y-68098594D01*
X159296445Y-68184144D01*
X159485962Y-68240417D01*
X159648620Y-68305506D01*
X159755913Y-68360077D01*
X159859563Y-68414647D01*
X159959648Y-68469217D01*
X160056244Y-68523787D01*
X160149429Y-68578358D01*
X160239282Y-68632928D01*
X160325879Y-68687498D01*
X160409297Y-68742069D01*
X160489616Y-68796639D01*
X160566911Y-68851209D01*
X160641260Y-68905780D01*
X160712741Y-68960350D01*
X160781432Y-69014920D01*
X160847410Y-69069491D01*
X160910753Y-69124061D01*
X160971538Y-69178631D01*
X160984168Y-69190723D01*
X160997240Y-69202189D01*
X161010728Y-69213026D01*
X161024609Y-69223228D01*
X161053451Y-69241709D01*
X161083571Y-69257593D01*
X161114778Y-69270842D01*
X161146875Y-69281416D01*
X161179670Y-69289277D01*
X161212969Y-69294387D01*
X161246578Y-69296705D01*
X161280303Y-69296195D01*
X161313951Y-69292817D01*
X161347327Y-69286532D01*
X161363853Y-69282287D01*
X161380238Y-69277301D01*
X161396459Y-69271569D01*
X161412490Y-69265086D01*
X161428309Y-69257847D01*
X161443890Y-69249848D01*
X161459209Y-69241083D01*
X161474242Y-69231548D01*
X161756111Y-69059291D01*
X162026353Y-68908932D01*
X162285123Y-68779424D01*
X162532576Y-68669722D01*
X162768867Y-68578778D01*
X162994150Y-68505546D01*
X163208582Y-68448980D01*
X163412316Y-68408033D01*
X163605509Y-68381658D01*
X163788314Y-68368810D01*
X163960888Y-68368442D01*
X164123385Y-68379507D01*
X164275960Y-68400959D01*
X164418768Y-68431752D01*
X164551964Y-68470839D01*
X164675704Y-68517173D01*
X164700198Y-68527399D01*
X164724073Y-68538205D01*
X164747327Y-68549555D01*
X164769961Y-68561408D01*
X164791975Y-68573726D01*
X164813369Y-68586471D01*
X164834143Y-68599603D01*
X164854297Y-68613084D01*
X164873830Y-68626876D01*
X164892744Y-68640938D01*
X164911037Y-68655233D01*
X164928710Y-68669722D01*
X164945763Y-68684366D01*
X164962196Y-68699126D01*
X164978009Y-68713963D01*
X164993201Y-68728840D01*
X165052320Y-68808214D01*
X165081104Y-68847902D01*
X165108958Y-68887590D01*
X165135572Y-68927277D01*
X165160635Y-68966965D01*
X165172489Y-68986808D01*
X165183838Y-69006652D01*
X165194645Y-69026496D01*
X165204871Y-69046340D01*
X165251206Y-69169788D01*
X165290292Y-69302190D01*
X165321085Y-69443815D01*
X165342537Y-69594937D01*
X165353603Y-69755825D01*
X165353234Y-69926751D01*
X165340386Y-70107987D01*
X165314012Y-70299803D01*
X165273065Y-70502471D01*
X165216499Y-70716263D01*
X165143267Y-70941450D01*
X165052323Y-71178302D01*
X164942620Y-71427092D01*
X164813112Y-71688090D01*
X164662753Y-71961568D01*
X164490497Y-72247798D01*
X164480961Y-72262831D01*
X164472196Y-72278151D01*
X164464197Y-72293732D01*
X164456958Y-72309551D01*
X164450475Y-72325583D01*
X164444743Y-72341804D01*
X164439757Y-72358189D01*
X164435512Y-72374715D01*
X164432004Y-72391357D01*
X164429227Y-72408092D01*
X164427176Y-72424894D01*
X164425848Y-72441739D01*
X164425237Y-72458605D01*
X164425338Y-72475465D01*
X164426146Y-72492296D01*
X164427657Y-72509074D01*
X164429865Y-72525774D01*
X164432766Y-72542373D01*
X164436355Y-72558845D01*
X164440627Y-72575168D01*
X164445577Y-72591316D01*
X164451201Y-72607265D01*
X164457494Y-72622992D01*
X164464450Y-72638472D01*
X164472065Y-72653680D01*
X164480333Y-72668592D01*
X164489252Y-72683185D01*
X164498814Y-72697434D01*
X164509016Y-72711315D01*
X164519853Y-72724803D01*
X164531319Y-72737875D01*
X164543410Y-72750506D01*
X164598271Y-72806930D01*
X164653636Y-72867037D01*
X164709389Y-72930786D01*
X164765413Y-72998140D01*
X164821592Y-73069059D01*
X164877809Y-73143506D01*
X164933949Y-73221440D01*
X164989896Y-73302824D01*
X165045532Y-73387619D01*
X165100742Y-73475785D01*
X165155409Y-73567285D01*
X165209418Y-73662079D01*
X165262651Y-73760129D01*
X165314993Y-73861395D01*
X165366327Y-73965840D01*
X165416537Y-74073424D01*
X165537899Y-74425600D01*
X165623449Y-74880409D01*
X165672102Y-75428237D01*
X165682772Y-76059473D01*
X165654376Y-76764505D01*
X165585827Y-77533719D01*
X165476041Y-78357505D01*
X165323931Y-79226250D01*
X165128413Y-80130341D01*
X164888402Y-81060167D01*
X164602812Y-82006115D01*
X164270559Y-82958574D01*
X163890556Y-83907930D01*
X163461719Y-84844571D01*
X162982962Y-85758886D01*
X162453200Y-86641263D01*
X162447934Y-86653432D01*
X162442077Y-86665137D01*
X162435659Y-86676377D01*
X162428707Y-86687151D01*
X162421251Y-86697461D01*
X162413320Y-86707305D01*
X162404944Y-86716685D01*
X162396151Y-86725599D01*
X162386971Y-86734048D01*
X162377432Y-86742032D01*
X162367564Y-86749551D01*
X162357395Y-86756605D01*
X162336272Y-86769317D01*
X162314297Y-86780169D01*
X162291702Y-86789161D01*
X162268719Y-86796293D01*
X162245581Y-86801564D01*
X162222520Y-86804974D01*
X162199769Y-86806525D01*
X162177561Y-86806214D01*
X162156128Y-86804044D01*
X162135703Y-86800013D01*
X162123456Y-86794822D01*
X162111525Y-86789180D01*
X162088625Y-86776603D01*
X162067043Y-86762399D01*
X162046818Y-86746683D01*
X162027988Y-86729571D01*
X162010592Y-86711181D01*
X161994669Y-86691628D01*
X161980258Y-86671028D01*
X161967397Y-86649498D01*
X161956125Y-86627155D01*
X161946480Y-86604113D01*
X161938503Y-86580491D01*
X161932230Y-86556403D01*
X161927702Y-86531967D01*
X161924957Y-86507297D01*
X161924033Y-86482512D01*
X161958347Y-85495265D01*
X161972869Y-84413760D01*
X161960415Y-83049478D01*
X161902073Y-81484278D01*
X161778928Y-79800018D01*
X161687144Y-78938822D01*
X161572067Y-78078558D01*
X161431332Y-77229458D01*
X161262576Y-76401755D01*
X161254218Y-76370057D01*
X161244076Y-76339478D01*
X161232230Y-76310053D01*
X161218755Y-76281814D01*
X161203731Y-76254796D01*
X161187233Y-76229033D01*
X161169340Y-76204559D01*
X161150130Y-76181407D01*
X161129679Y-76159612D01*
X161108066Y-76139207D01*
X161085367Y-76120226D01*
X161061660Y-76102704D01*
X161037024Y-76086674D01*
X161011535Y-76072170D01*
X160985270Y-76059226D01*
X160958308Y-76047876D01*
X160930726Y-76038153D01*
X160902601Y-76030093D01*
X160874011Y-76023728D01*
X160845034Y-76019092D01*
X160815746Y-76016220D01*
X160786226Y-76015145D01*
X160756551Y-76015902D01*
X160726798Y-76018524D01*
X160697046Y-76023045D01*
X160667370Y-76029499D01*
X160637850Y-76037920D01*
X160608563Y-76048341D01*
X160579585Y-76060798D01*
X160550995Y-76075323D01*
X160522870Y-76091950D01*
X160495288Y-76110715D01*
X160049785Y-76429765D01*
X159605212Y-76733312D01*
X159160020Y-77023217D01*
X158712657Y-77301339D01*
X158261574Y-77569540D01*
X157805219Y-77829679D01*
X157342042Y-78083617D01*
X156870494Y-78333214D01*
X156845702Y-78348407D01*
X156820988Y-78364221D01*
X156796430Y-78380654D01*
X156772103Y-78397707D01*
X156748087Y-78415380D01*
X156724458Y-78433674D01*
X156701294Y-78452587D01*
X156678673Y-78472121D01*
X156656672Y-78492274D01*
X156635369Y-78513048D01*
X156614840Y-78534442D01*
X156595165Y-78556456D01*
X156576419Y-78579090D01*
X156558681Y-78602344D01*
X156542028Y-78626219D01*
X156526538Y-78650714D01*
X154409869Y-82090430D01*
X154402122Y-82102599D01*
X154393785Y-82114298D01*
X154384885Y-82125522D01*
X154375452Y-82136267D01*
X154365516Y-82146527D01*
X154355105Y-82156298D01*
X154344248Y-82165575D01*
X154332974Y-82174352D01*
X154309293Y-82190391D01*
X154284295Y-82204376D01*
X154258211Y-82216268D01*
X154231275Y-82226029D01*
X154203719Y-82233618D01*
X154175775Y-82238999D01*
X154147676Y-82242132D01*
X154119655Y-82242978D01*
X154091943Y-82241499D01*
X154064775Y-82237656D01*
X154051467Y-82234836D01*
X154038381Y-82231410D01*
X154025548Y-82227373D01*
X154012996Y-82222722D01*
X153988824Y-82207225D01*
X153965969Y-82190527D01*
X153944510Y-82172666D01*
X153924524Y-82153681D01*
X153906089Y-82133611D01*
X153889281Y-82112495D01*
X153874178Y-82090371D01*
X153860858Y-82067278D01*
X153849399Y-82043255D01*
X153839878Y-82018340D01*
X153832372Y-81992573D01*
X153826959Y-81965992D01*
X153823717Y-81938636D01*
X153822723Y-81910544D01*
X153823093Y-81896234D01*
X153824054Y-81881754D01*
X153825616Y-81867109D01*
X153827788Y-81852305D01*
X155309451Y-78597798D01*
X155311778Y-78592838D01*
X155313805Y-78587883D01*
X155315541Y-78582937D01*
X155316996Y-78578006D01*
X155318180Y-78573094D01*
X155319102Y-78568207D01*
X155319772Y-78563349D01*
X155320200Y-78558524D01*
X155320395Y-78553738D01*
X155320368Y-78548996D01*
X155320127Y-78544303D01*
X155319683Y-78539662D01*
X155319046Y-78535080D01*
X155318224Y-78530560D01*
X155317227Y-78526109D01*
X155316066Y-78521730D01*
X155314750Y-78517429D01*
X155313289Y-78513210D01*
X155309969Y-78505038D01*
X155306184Y-78497254D01*
X155302011Y-78489897D01*
X155297529Y-78483005D01*
X155292814Y-78476616D01*
X155287944Y-78470770D01*
X155282996Y-78465506D01*
X155277731Y-78460558D01*
X155271886Y-78455688D01*
X155265497Y-78450972D01*
X155258604Y-78446489D01*
X155251247Y-78442316D01*
X155243463Y-78438531D01*
X155235292Y-78435211D01*
X155226771Y-78432433D01*
X155217941Y-78430276D01*
X155208839Y-78428816D01*
X155199505Y-78428131D01*
X155194763Y-78428104D01*
X155189977Y-78428299D01*
X155185153Y-78428727D01*
X155180294Y-78429397D01*
X155175407Y-78430319D01*
X155170495Y-78431503D01*
X155165564Y-78432958D01*
X155160618Y-78434694D01*
X155155663Y-78436721D01*
X155150702Y-78439047D01*
X151896329Y-79920714D01*
X151881449Y-79922886D01*
X151866589Y-79924448D01*
X151851768Y-79925409D01*
X151837004Y-79925778D01*
X151822318Y-79925567D01*
X151807729Y-79924784D01*
X151793257Y-79923439D01*
X151778920Y-79921541D01*
X151764738Y-79919101D01*
X151750730Y-79916128D01*
X151736917Y-79912632D01*
X151723316Y-79908622D01*
X151709948Y-79904109D01*
X151696832Y-79899101D01*
X151683987Y-79893609D01*
X151671433Y-79887642D01*
X151659189Y-79881210D01*
X151647274Y-79874322D01*
X151635709Y-79866989D01*
X151624511Y-79859220D01*
X151613701Y-79851024D01*
X151603298Y-79842412D01*
X151593321Y-79833393D01*
X151583790Y-79823977D01*
X151574724Y-79814173D01*
X151566143Y-79803991D01*
X151558065Y-79793441D01*
X151550510Y-79782532D01*
X151543499Y-79771275D01*
X151537049Y-79759678D01*
X151531180Y-79747752D01*
X151525912Y-79735507D01*
X151521260Y-79720626D01*
X151517224Y-79705760D01*
X151513798Y-79690923D01*
X151510977Y-79676130D01*
X151508758Y-79661394D01*
X151507134Y-79646732D01*
X151506101Y-79632157D01*
X151505655Y-79617683D01*
X151505790Y-79603326D01*
X151506501Y-79589100D01*
X151507784Y-79575018D01*
X151509634Y-79561097D01*
X151512045Y-79547351D01*
X151515014Y-79533793D01*
X151518536Y-79520438D01*
X151522604Y-79507302D01*
X151527216Y-79494398D01*
X151532365Y-79481742D01*
X151538047Y-79469347D01*
X151544257Y-79457228D01*
X151550990Y-79445400D01*
X151558242Y-79433877D01*
X151566007Y-79422673D01*
X151574281Y-79411805D01*
X151583058Y-79401284D01*
X151592335Y-79391128D01*
X151602106Y-79381349D01*
X151612366Y-79371962D01*
X151623110Y-79362983D01*
X151634334Y-79354425D01*
X151646033Y-79346303D01*
X151658202Y-79338631D01*
X155097785Y-77221964D01*
X155122280Y-77206474D01*
X155146155Y-77189821D01*
X155169409Y-77172083D01*
X155192044Y-77153338D01*
X155214058Y-77133662D01*
X155235452Y-77113134D01*
X155256226Y-77091830D01*
X155276380Y-77069829D01*
X155295913Y-77047208D01*
X155314827Y-77024044D01*
X155333120Y-77000415D01*
X155350793Y-76976398D01*
X155367847Y-76952072D01*
X155384280Y-76927513D01*
X155400093Y-76902798D01*
X155415286Y-76878007D01*
X155664884Y-76406458D01*
X155918822Y-75943282D01*
X156178961Y-75486928D01*
X156447161Y-75035844D01*
X156725283Y-74588482D01*
X157015188Y-74143290D01*
X157318735Y-73698717D01*
X157637786Y-73253214D01*
X157656550Y-73225632D01*
X157673178Y-73197507D01*
X157687703Y-73168917D01*
X157700159Y-73139940D01*
X157710581Y-73110652D01*
X157719002Y-73081132D01*
X157725456Y-73051456D01*
X157729977Y-73021704D01*
X157732598Y-72991951D01*
X157733355Y-72962276D01*
X157732280Y-72932755D01*
X157729408Y-72903468D01*
X157724773Y-72874490D01*
X157718408Y-72845900D01*
X157710347Y-72817775D01*
X157700625Y-72790193D01*
X157689275Y-72763231D01*
X157676331Y-72736966D01*
X157661827Y-72711477D01*
X157645797Y-72686840D01*
X157628274Y-72663134D01*
X157609294Y-72640435D01*
X157588889Y-72618821D01*
X157567094Y-72598370D01*
X157543942Y-72579159D01*
X157519468Y-72561266D01*
X157493705Y-72544769D01*
X157466687Y-72529744D01*
X157438449Y-72516269D01*
X157409023Y-72504423D01*
X157378445Y-72494281D01*
X157346747Y-72485922D01*
X156519045Y-72317167D01*
X155669949Y-72176432D01*
X154809691Y-72061356D01*
X153948503Y-71969572D01*
X153096617Y-71898717D01*
X152264264Y-71846427D01*
X151461677Y-71810338D01*
X150699088Y-71788085D01*
X149334830Y-71775631D01*
X148253346Y-71790152D01*
X147266120Y-71824465D01*
X147251392Y-71824234D01*
X147236975Y-71823542D01*
X147222867Y-71822394D01*
X147209070Y-71820796D01*
X147195582Y-71818753D01*
X147182405Y-71816268D01*
X147169537Y-71813348D01*
X147156980Y-71809996D01*
X147144733Y-71806218D01*
X147132795Y-71802018D01*
X147121168Y-71797402D01*
X147109851Y-71792374D01*
X147098844Y-71786939D01*
X147088147Y-71781102D01*
X147077760Y-71774868D01*
X147067683Y-71768241D01*
X147057916Y-71761226D01*
X147048459Y-71753829D01*
X147039312Y-71746054D01*
X147030476Y-71737906D01*
X147021949Y-71729390D01*
X147013733Y-71720511D01*
X147005826Y-71711273D01*
X146998230Y-71701681D01*
X146990943Y-71691741D01*
X146983967Y-71681456D01*
X146977301Y-71670833D01*
X146970945Y-71659875D01*
X146964899Y-71648587D01*
X146959163Y-71636976D01*
X146948621Y-71612797D01*
X146946372Y-71600397D01*
X146944583Y-71588006D01*
X146943250Y-71575634D01*
X146942368Y-71563291D01*
X146941931Y-71550987D01*
X146941935Y-71538732D01*
X146942375Y-71526535D01*
X146943246Y-71514405D01*
X146944544Y-71502353D01*
X146946263Y-71490389D01*
X146948399Y-71478521D01*
X146950946Y-71466760D01*
X146957257Y-71443596D01*
X146965157Y-71420974D01*
X146974608Y-71398973D01*
X146985569Y-71377670D01*
X146998004Y-71357141D01*
X147011873Y-71337465D01*
X147027137Y-71318720D01*
X147043757Y-71300982D01*
X147052564Y-71292515D01*
X147061695Y-71284329D01*
X147071147Y-71276434D01*
X147080913Y-71268839D01*
X147963287Y-70739079D01*
X148877598Y-70260322D01*
X149814233Y-69831485D01*
X150763581Y-69451483D01*
X151716030Y-69119229D01*
X152661967Y-68833639D01*
X153591781Y-68593628D01*
X154495860Y-68398111D01*
X155364593Y-68246001D01*
X156188367Y-68136214D01*
X156957570Y-68067666D01*
X157662592Y-68039269D01*
X158293819Y-68049941D01*
G37*
%LPC*%
D11*
%TO.C,BT2*%
X169600000Y-92750000D03*
X169600000Y-95290000D03*
D12*
X167060000Y-92750000D03*
X167060000Y-95290000D03*
D13*
X164520000Y-92750000D03*
D11*
X164520000Y-95290000D03*
%TD*%
M02*
