G04 #@! TF.GenerationSoftware,KiCad,Pcbnew,(6.0.10-0)*
G04 #@! TF.CreationDate,2023-08-25T18:06:36+02:00*
G04 #@! TF.ProjectId,SwiftLeeds,53776966-744c-4656-9564-732e6b696361,rev?*
G04 #@! TF.SameCoordinates,Original*
G04 #@! TF.FileFunction,Legend,Bot*
G04 #@! TF.FilePolarity,Positive*
%FSLAX46Y46*%
G04 Gerber Fmt 4.6, Leading zero omitted, Abs format (unit mm)*
G04 Created by KiCad (PCBNEW (6.0.10-0)) date 2023-08-25 18:06:36*
%MOMM*%
%LPD*%
G01*
G04 APERTURE LIST*
G04 Aperture macros list*
%AMRoundRect*
0 Rectangle with rounded corners*
0 $1 Rounding radius*
0 $2 $3 $4 $5 $6 $7 $8 $9 X,Y pos of 4 corners*
0 Add a 4 corners polygon primitive as box body*
4,1,4,$2,$3,$4,$5,$6,$7,$8,$9,$2,$3,0*
0 Add four circle primitives for the rounded corners*
1,1,$1+$1,$2,$3*
1,1,$1+$1,$4,$5*
1,1,$1+$1,$6,$7*
1,1,$1+$1,$8,$9*
0 Add four rect primitives between the rounded corners*
20,1,$1+$1,$2,$3,$4,$5,0*
20,1,$1+$1,$4,$5,$6,$7,0*
20,1,$1+$1,$6,$7,$8,$9,0*
20,1,$1+$1,$8,$9,$2,$3,0*%
G04 Aperture macros list end*
%ADD10C,0.120000*%
%ADD11C,0.000000*%
%ADD12RoundRect,0.250000X-0.450000X0.262500X-0.450000X-0.262500X0.450000X-0.262500X0.450000X0.262500X0*%
%ADD13RoundRect,0.243750X-0.423144X0.297536X-0.482555X-0.186330X0.423144X-0.297536X0.482555X0.186330X0*%
%ADD14RoundRect,0.243750X0.203058X0.475758X-0.282587X0.433270X-0.203058X-0.475758X0.282587X-0.433270X0*%
%ADD15RoundRect,0.243750X-0.389725X0.340137X-0.499388X-0.134869X0.389725X-0.340137X0.499388X0.134869X0*%
%ADD16RoundRect,0.243750X-0.439219X-0.273249X-0.017031X-0.516999X0.439219X0.273249X0.017031X0.516999X0*%
%ADD17RoundRect,0.243750X-0.099705X-0.507580X0.366494X-0.365048X0.099705X0.507580X-0.366494X0.365048X0*%
%ADD18R,1.270000X5.080000*%
%ADD19C,17.800000*%
G04 APERTURE END LIST*
D10*
X222000000Y-96860436D02*
X222000000Y-97314564D01*
X223470000Y-96860436D02*
X223470000Y-97314564D01*
X219265000Y-96860436D02*
X219265000Y-97314564D01*
X220735000Y-96860436D02*
X220735000Y-97314564D01*
X238265000Y-96772936D02*
X238265000Y-97227064D01*
X239735000Y-96772936D02*
X239735000Y-97227064D01*
X236265000Y-96772936D02*
X236265000Y-97227064D01*
X237735000Y-96772936D02*
X237735000Y-97227064D01*
X234265000Y-96772936D02*
X234265000Y-97227064D01*
X235735000Y-96772936D02*
X235735000Y-97227064D01*
X228158194Y-83529512D02*
X227830975Y-86194499D01*
X226252506Y-83295523D02*
X228158194Y-83529512D01*
X225925286Y-85960510D02*
X226252506Y-83295523D01*
X213762258Y-67409489D02*
X211087475Y-67643503D01*
X213594919Y-65496796D02*
X213762258Y-67409489D01*
X210920136Y-65730809D02*
X213594919Y-65496796D01*
X244279794Y-79365139D02*
X244883787Y-76748955D01*
X244883787Y-76748955D02*
X246754578Y-77180861D01*
X246754578Y-77180861D02*
X246150584Y-79797045D01*
X243020747Y-47326116D02*
X245346025Y-48668616D01*
X242060747Y-48988884D02*
X243020747Y-47326116D01*
X244386025Y-50331384D02*
X242060747Y-48988884D01*
X215778487Y-49051898D02*
X213210808Y-49836916D01*
X213210808Y-49836916D02*
X212649455Y-48000811D01*
X212649455Y-48000811D02*
X215217133Y-47215793D01*
X223800000Y-115540000D02*
X220300000Y-115540000D01*
X239780000Y-105000000D02*
X239780000Y-104370000D01*
X237700000Y-115540000D02*
X239780000Y-113460000D01*
X239780000Y-113460000D02*
X239780000Y-111000000D01*
X218220000Y-113460000D02*
X218220000Y-111000000D01*
X218220000Y-105000000D02*
X218220000Y-104370000D01*
X237700000Y-115540000D02*
X234200000Y-115540000D01*
X239780000Y-104370000D02*
X238340000Y-100420000D01*
X218220000Y-104370000D02*
X219660000Y-100420000D01*
X220300000Y-115540000D02*
X218220000Y-113460000D01*
X238325244Y-100411831D02*
G75*
G03*
X235000000Y-99450000I-2015244J-738169D01*
G01*
X222996646Y-99433470D02*
G75*
G03*
X219660000Y-100420000I-1306646J-1716531D01*
G01*
%LPC*%
D11*
G36*
X227328829Y-48257714D02*
G01*
X228693367Y-48377241D01*
X229824548Y-48587926D01*
X230295054Y-48726581D01*
X230698129Y-48886978D01*
X230975816Y-49021369D01*
X231243445Y-49156574D01*
X231501191Y-49292476D01*
X231749229Y-49428960D01*
X231987732Y-49565909D01*
X232216875Y-49703207D01*
X232436832Y-49840737D01*
X232647779Y-49978384D01*
X232849888Y-50116030D01*
X233043336Y-50253561D01*
X233228295Y-50390859D01*
X233404942Y-50527808D01*
X233573449Y-50664292D01*
X233733992Y-50800194D01*
X233886744Y-50935399D01*
X234031881Y-51069790D01*
X234062218Y-51098742D01*
X234093660Y-51126066D01*
X234126148Y-51151762D01*
X234159624Y-51175830D01*
X234194031Y-51198271D01*
X234229310Y-51219083D01*
X234302251Y-51255825D01*
X234377982Y-51286056D01*
X234456040Y-51309776D01*
X234535957Y-51326984D01*
X234617270Y-51337681D01*
X234699513Y-51341867D01*
X234782221Y-51339541D01*
X234864930Y-51330705D01*
X234947173Y-51315357D01*
X235028486Y-51293497D01*
X235108404Y-51265127D01*
X235186461Y-51230245D01*
X235262193Y-51188853D01*
X235976180Y-50756331D01*
X236659936Y-50379677D01*
X237313927Y-50056160D01*
X237938617Y-49783047D01*
X238534472Y-49557605D01*
X239101956Y-49377103D01*
X239641535Y-49238807D01*
X240153674Y-49139985D01*
X240638839Y-49077906D01*
X241097493Y-49049836D01*
X241530102Y-49053043D01*
X241937131Y-49084795D01*
X242319046Y-49142359D01*
X242676311Y-49223004D01*
X243009392Y-49323996D01*
X243318753Y-49442603D01*
X243363838Y-49465838D01*
X243409678Y-49490817D01*
X243456100Y-49517424D01*
X243502928Y-49545542D01*
X243549989Y-49575056D01*
X243597109Y-49605848D01*
X243644111Y-49637804D01*
X243690824Y-49670806D01*
X243737071Y-49704738D01*
X243782678Y-49739484D01*
X243827472Y-49774927D01*
X243871277Y-49810952D01*
X243913920Y-49847442D01*
X243955226Y-49884281D01*
X243995020Y-49921353D01*
X244033128Y-49958540D01*
X244076856Y-49996212D01*
X244118783Y-50034815D01*
X244158965Y-50074347D01*
X244197461Y-50114810D01*
X244234329Y-50156203D01*
X244269627Y-50198526D01*
X244303414Y-50241779D01*
X244335747Y-50285962D01*
X244366685Y-50331076D01*
X244396286Y-50377119D01*
X244424608Y-50424093D01*
X244451709Y-50471997D01*
X244477647Y-50520831D01*
X244502481Y-50570596D01*
X244526268Y-50621290D01*
X244549068Y-50672915D01*
X244674214Y-50982275D01*
X244780060Y-51315355D01*
X244864047Y-51672620D01*
X244923616Y-52054534D01*
X244956211Y-52461563D01*
X244959273Y-52894172D01*
X244930243Y-53352826D01*
X244866565Y-53837990D01*
X244765680Y-54350129D01*
X244625029Y-54889708D01*
X244442056Y-55457193D01*
X244214202Y-56053048D01*
X243938909Y-56677738D01*
X243613619Y-57331729D01*
X243235774Y-58015486D01*
X242802816Y-58729473D01*
X242761424Y-58804769D01*
X242726543Y-58881635D01*
X242698172Y-58959779D01*
X242676313Y-59038912D01*
X242660966Y-59118742D01*
X242652129Y-59198979D01*
X242649804Y-59279333D01*
X242653989Y-59359512D01*
X242664686Y-59439226D01*
X242681895Y-59518185D01*
X242705614Y-59596097D01*
X242735845Y-59672671D01*
X242772587Y-59747618D01*
X242815840Y-59820647D01*
X242839909Y-59856351D01*
X242865605Y-59891466D01*
X242892929Y-59925956D01*
X242921881Y-59959786D01*
X243191477Y-60257674D01*
X243463863Y-60586724D01*
X243738110Y-60948330D01*
X244013287Y-61343887D01*
X244288464Y-61774791D01*
X244562710Y-62242437D01*
X244835097Y-62748220D01*
X244970302Y-63015849D01*
X245104693Y-63293536D01*
X245410284Y-64166680D01*
X245625823Y-65296670D01*
X245748693Y-66659437D01*
X245776278Y-68230912D01*
X245705963Y-69987029D01*
X245535130Y-71903718D01*
X245261164Y-73956913D01*
X244881449Y-76122545D01*
X244393369Y-78376545D01*
X243794307Y-80694847D01*
X243081647Y-83053381D01*
X242252774Y-85428081D01*
X241305070Y-87794878D01*
X240235920Y-90129703D01*
X239042709Y-92408490D01*
X237722818Y-94607169D01*
X237722816Y-94607166D01*
X237683797Y-94657386D01*
X237641348Y-94703827D01*
X237595760Y-94746431D01*
X237547323Y-94785140D01*
X237496328Y-94819896D01*
X237443066Y-94850640D01*
X237387827Y-94877315D01*
X237330903Y-94899862D01*
X237272583Y-94918224D01*
X237213158Y-94932341D01*
X237152920Y-94942156D01*
X237092158Y-94947612D01*
X237031164Y-94948649D01*
X236970227Y-94945209D01*
X236909640Y-94937235D01*
X236849692Y-94924668D01*
X236791575Y-94900057D01*
X236736365Y-94871027D01*
X236684179Y-94837812D01*
X236635131Y-94800644D01*
X236589340Y-94759755D01*
X236546920Y-94715377D01*
X236507988Y-94667745D01*
X236472661Y-94617089D01*
X236441054Y-94563643D01*
X236413285Y-94507638D01*
X236389468Y-94449309D01*
X236369721Y-94388886D01*
X236354160Y-94326603D01*
X236342901Y-94262692D01*
X236336061Y-94197386D01*
X236333755Y-94130917D01*
X236413750Y-91673363D01*
X236444678Y-88976055D01*
X236408169Y-85573203D01*
X236258178Y-81669917D01*
X235948662Y-77471304D01*
X235719693Y-75325347D01*
X235433577Y-73182474D01*
X235084558Y-71068323D01*
X234666880Y-69008534D01*
X234645983Y-68928201D01*
X234620633Y-68850956D01*
X234591023Y-68776865D01*
X234557351Y-68705994D01*
X234519814Y-68638407D01*
X234478606Y-68574171D01*
X234433925Y-68513350D01*
X234385966Y-68456009D01*
X234334927Y-68402215D01*
X234281002Y-68352033D01*
X234224388Y-68305528D01*
X234165282Y-68262765D01*
X234103879Y-68223811D01*
X234040377Y-68188729D01*
X233974970Y-68157587D01*
X233907856Y-68130448D01*
X233839230Y-68107379D01*
X233769289Y-68088445D01*
X233698228Y-68073711D01*
X233626245Y-68063243D01*
X233553535Y-68057106D01*
X233480294Y-68055366D01*
X233406720Y-68058087D01*
X233333007Y-68065336D01*
X233259352Y-68077178D01*
X233185952Y-68093677D01*
X233113002Y-68114901D01*
X233040699Y-68140913D01*
X232969239Y-68171780D01*
X232898818Y-68207566D01*
X232829633Y-68248337D01*
X232761879Y-68294159D01*
X232181450Y-68705452D01*
X231601021Y-69106513D01*
X231020591Y-69498272D01*
X230440161Y-69881659D01*
X229279302Y-70627040D01*
X228118442Y-71350097D01*
X228114722Y-71349981D01*
X228111010Y-71349641D01*
X228107313Y-71349083D01*
X228103637Y-71348314D01*
X228099990Y-71347341D01*
X228096380Y-71346172D01*
X228092813Y-71344815D01*
X228089297Y-71343275D01*
X228085840Y-71341561D01*
X228082447Y-71339680D01*
X228079127Y-71337640D01*
X228075888Y-71335446D01*
X228072735Y-71333107D01*
X228069677Y-71330631D01*
X228066720Y-71328023D01*
X228063873Y-71325292D01*
X228061142Y-71322444D01*
X228058534Y-71319488D01*
X228056057Y-71316430D01*
X228053719Y-71313277D01*
X228051525Y-71310037D01*
X228049484Y-71306717D01*
X228047603Y-71303325D01*
X228045890Y-71299867D01*
X228044350Y-71296351D01*
X228042993Y-71292784D01*
X228041824Y-71289174D01*
X228040851Y-71285527D01*
X228040082Y-71281851D01*
X228039524Y-71278153D01*
X228039183Y-71274441D01*
X228039068Y-71270722D01*
X228233679Y-70854430D01*
X228401605Y-70453718D01*
X228544067Y-70068354D01*
X228662287Y-69698105D01*
X228757485Y-69342739D01*
X228830881Y-69002024D01*
X228883698Y-68675726D01*
X228917155Y-68363613D01*
X228932474Y-68065453D01*
X228930875Y-67781013D01*
X228913579Y-67510061D01*
X228881808Y-67252364D01*
X228836781Y-67007689D01*
X228779721Y-66775804D01*
X228711847Y-66556476D01*
X228634381Y-66349473D01*
X228618588Y-66305290D01*
X228601051Y-66262037D01*
X228581885Y-66219714D01*
X228561208Y-66178321D01*
X228539136Y-66137859D01*
X228515784Y-66098326D01*
X228491270Y-66059724D01*
X228465710Y-66022052D01*
X228439219Y-65985310D01*
X228411914Y-65949498D01*
X228383912Y-65914616D01*
X228355328Y-65880665D01*
X228326280Y-65847643D01*
X228296882Y-65815552D01*
X228267252Y-65784391D01*
X228237506Y-65754160D01*
X228094259Y-65636338D01*
X228024728Y-65579753D01*
X227989876Y-65552448D01*
X227954733Y-65525958D01*
X227919124Y-65500397D01*
X227882876Y-65475883D01*
X227845815Y-65452532D01*
X227807765Y-65430460D01*
X227768552Y-65409783D01*
X227728002Y-65390617D01*
X227685940Y-65373080D01*
X227642193Y-65357286D01*
X227442167Y-65279820D01*
X227228885Y-65211946D01*
X227002116Y-65154886D01*
X226761627Y-65109860D01*
X226507186Y-65078088D01*
X226238559Y-65060793D01*
X225955514Y-65059194D01*
X225657820Y-65074513D01*
X225345242Y-65107970D01*
X225017549Y-65160786D01*
X224674508Y-65234183D01*
X224315886Y-65329380D01*
X223941452Y-65447600D01*
X223550972Y-65590062D01*
X223144213Y-65757988D01*
X222720945Y-65952598D01*
X222717112Y-65952483D01*
X222713077Y-65952143D01*
X222708867Y-65951584D01*
X222704511Y-65950815D01*
X222700039Y-65949842D01*
X222695481Y-65948674D01*
X222690864Y-65947316D01*
X222686217Y-65945777D01*
X222681571Y-65944063D01*
X222676954Y-65942182D01*
X222672395Y-65940141D01*
X222667924Y-65937948D01*
X222663568Y-65935609D01*
X222659358Y-65933132D01*
X222655322Y-65930524D01*
X222651490Y-65927793D01*
X222647891Y-65924946D01*
X222644553Y-65921989D01*
X222641505Y-65918931D01*
X222638778Y-65915778D01*
X222636399Y-65912538D01*
X222634398Y-65909219D01*
X222632804Y-65905826D01*
X222631646Y-65902368D01*
X222630953Y-65898852D01*
X222630755Y-65895285D01*
X222631079Y-65891675D01*
X222631956Y-65888028D01*
X222633415Y-65884352D01*
X222635483Y-65880655D01*
X222638191Y-65876943D01*
X222641568Y-65873223D01*
X223364625Y-64712363D01*
X224110005Y-63551504D01*
X224493393Y-62971074D01*
X224885152Y-62390645D01*
X225286213Y-61810215D01*
X225697507Y-61229786D01*
X225743216Y-61162032D01*
X225783664Y-61092847D01*
X225818938Y-61022426D01*
X225849124Y-60950966D01*
X225874312Y-60878663D01*
X225894586Y-60805713D01*
X225910036Y-60732313D01*
X225920747Y-60658658D01*
X225926808Y-60584945D01*
X225928304Y-60511370D01*
X225925325Y-60438130D01*
X225917956Y-60365420D01*
X225906285Y-60293437D01*
X225890399Y-60222376D01*
X225870386Y-60152435D01*
X225846332Y-60083809D01*
X225818325Y-60016695D01*
X225786452Y-59951288D01*
X225750800Y-59887785D01*
X225711456Y-59826383D01*
X225668508Y-59767277D01*
X225622043Y-59710663D01*
X225572148Y-59656738D01*
X225518910Y-59605699D01*
X225462417Y-59557740D01*
X225402755Y-59513059D01*
X225340011Y-59471852D01*
X225274274Y-59434314D01*
X225205630Y-59400642D01*
X225134167Y-59371033D01*
X225059971Y-59345682D01*
X224983130Y-59324786D01*
X222923779Y-58907108D01*
X220810827Y-58558089D01*
X218669737Y-58271972D01*
X216525972Y-58043004D01*
X214404997Y-57865428D01*
X212332275Y-57733488D01*
X210333269Y-57641430D01*
X208433443Y-57583497D01*
X205033186Y-57546988D01*
X202335211Y-57577916D01*
X199860943Y-57657911D01*
X199827578Y-57660824D01*
X199794475Y-57662145D01*
X199761662Y-57661912D01*
X199729169Y-57660159D01*
X199697024Y-57656924D01*
X199665258Y-57652243D01*
X199633898Y-57646152D01*
X199602975Y-57638688D01*
X199572516Y-57629886D01*
X199542552Y-57619784D01*
X199513111Y-57608417D01*
X199484222Y-57595822D01*
X199455915Y-57582035D01*
X199428218Y-57567093D01*
X199401161Y-57551032D01*
X199374772Y-57533888D01*
X199349080Y-57515697D01*
X199324116Y-57496497D01*
X199299907Y-57476322D01*
X199276483Y-57455211D01*
X199253873Y-57433198D01*
X199232106Y-57410320D01*
X199211211Y-57386614D01*
X199191217Y-57362116D01*
X199172153Y-57336862D01*
X199154049Y-57310888D01*
X199136932Y-57284232D01*
X199120834Y-57256928D01*
X199105781Y-57229015D01*
X199091804Y-57200527D01*
X199078932Y-57171501D01*
X199067194Y-57141974D01*
X199056840Y-57112098D01*
X199048086Y-57082026D01*
X199040902Y-57051794D01*
X199035258Y-57021439D01*
X199031125Y-56990996D01*
X199028475Y-56960502D01*
X199027278Y-56929994D01*
X199027506Y-56899508D01*
X199029129Y-56869080D01*
X199032118Y-56838746D01*
X199036444Y-56808543D01*
X199042079Y-56778507D01*
X199048992Y-56748675D01*
X199057155Y-56719083D01*
X199066539Y-56689766D01*
X199077115Y-56660763D01*
X199088854Y-56632108D01*
X199101726Y-56603838D01*
X199115703Y-56575989D01*
X199130756Y-56548599D01*
X199146854Y-56521703D01*
X199163971Y-56495337D01*
X199182075Y-56469538D01*
X199201139Y-56444342D01*
X199221133Y-56419785D01*
X199242028Y-56395905D01*
X199263795Y-56372736D01*
X199286405Y-56350316D01*
X199309829Y-56328681D01*
X199334038Y-56307867D01*
X199359002Y-56287911D01*
X199384694Y-56268849D01*
X201576798Y-54949394D01*
X203850700Y-53757374D01*
X206182157Y-52689998D01*
X208546925Y-51744474D01*
X210920763Y-50918013D01*
X213279426Y-50207825D01*
X215598674Y-49611117D01*
X217854263Y-49125101D01*
X220021950Y-48746985D01*
X222077493Y-48473978D01*
X223996649Y-48303292D01*
X225755175Y-48232133D01*
X227328829Y-48257714D01*
G37*
G36*
X215251556Y-67632997D02*
G01*
X216073289Y-67705977D01*
X216755495Y-67834302D01*
X217039771Y-67918711D01*
X217283758Y-68016345D01*
X217444698Y-68098201D01*
X217600173Y-68180056D01*
X217750299Y-68261912D01*
X217895193Y-68343767D01*
X218034972Y-68425623D01*
X218169750Y-68507478D01*
X218299645Y-68589334D01*
X218424773Y-68671189D01*
X218545250Y-68753045D01*
X218661193Y-68834900D01*
X218772717Y-68916756D01*
X218879939Y-68998611D01*
X218982975Y-69080467D01*
X219081942Y-69162322D01*
X219176955Y-69244178D01*
X219268132Y-69326033D01*
X219287078Y-69344170D01*
X219306686Y-69361370D01*
X219326918Y-69377625D01*
X219347740Y-69392928D01*
X219391003Y-69420649D01*
X219436184Y-69444475D01*
X219482993Y-69464348D01*
X219531140Y-69480209D01*
X219580333Y-69492001D01*
X219630281Y-69499666D01*
X219680695Y-69503144D01*
X219731283Y-69502379D01*
X219781755Y-69497311D01*
X219831820Y-69487884D01*
X219856609Y-69481517D01*
X219881187Y-69474038D01*
X219905518Y-69465439D01*
X219929566Y-69455715D01*
X219953294Y-69444857D01*
X219976666Y-69432858D01*
X219999645Y-69419711D01*
X220022196Y-69405408D01*
X220444999Y-69147022D01*
X220850362Y-68921484D01*
X221238516Y-68727223D01*
X221609695Y-68562669D01*
X221964131Y-68426253D01*
X222302056Y-68316405D01*
X222623703Y-68231555D01*
X222929304Y-68170134D01*
X223219093Y-68130573D01*
X223493301Y-68111301D01*
X223752161Y-68110748D01*
X223995906Y-68127346D01*
X224224768Y-68159524D01*
X224438980Y-68205713D01*
X224638774Y-68264343D01*
X224824383Y-68333845D01*
X224861125Y-68349183D01*
X224896937Y-68365393D01*
X224931818Y-68382418D01*
X224965769Y-68400198D01*
X224998790Y-68418675D01*
X225030881Y-68437792D01*
X225062042Y-68457491D01*
X225092272Y-68477712D01*
X225121573Y-68498399D01*
X225149943Y-68519493D01*
X225177383Y-68540935D01*
X225203893Y-68562668D01*
X225229473Y-68584634D01*
X225254122Y-68606774D01*
X225277842Y-68629030D01*
X225300632Y-68651345D01*
X225389309Y-68770407D01*
X225432485Y-68829938D01*
X225474265Y-68889470D01*
X225514185Y-68949001D01*
X225551779Y-69008532D01*
X225569559Y-69038298D01*
X225586583Y-69068064D01*
X225602793Y-69097829D01*
X225618131Y-69127595D01*
X225687632Y-69312768D01*
X225746263Y-69511370D01*
X225792452Y-69723809D01*
X225824630Y-69950491D01*
X225841228Y-70191823D01*
X225840676Y-70448212D01*
X225821404Y-70720066D01*
X225781842Y-71007791D01*
X225720422Y-71311793D01*
X225635573Y-71632481D01*
X225525725Y-71970261D01*
X225389309Y-72325540D01*
X225224756Y-72698724D01*
X225030495Y-73090222D01*
X224804957Y-73500439D01*
X224546572Y-73929784D01*
X224532269Y-73952334D01*
X224519122Y-73975313D01*
X224507122Y-73998685D01*
X224496264Y-74022413D01*
X224486539Y-74046461D01*
X224477941Y-74070792D01*
X224470462Y-74095370D01*
X224464095Y-74120159D01*
X224458832Y-74145122D01*
X224454667Y-74170223D01*
X224451592Y-74195427D01*
X224449599Y-74220695D01*
X224448682Y-74245993D01*
X224448834Y-74271283D01*
X224450046Y-74296530D01*
X224452312Y-74321697D01*
X224455625Y-74346748D01*
X224459976Y-74371646D01*
X224465360Y-74396355D01*
X224471768Y-74420838D01*
X224479194Y-74445061D01*
X224487630Y-74468985D01*
X224497068Y-74492575D01*
X224507503Y-74515794D01*
X224518925Y-74538607D01*
X224531329Y-74560976D01*
X224544706Y-74582865D01*
X224559050Y-74604239D01*
X224574353Y-74625060D01*
X224590608Y-74645292D01*
X224607808Y-74664900D01*
X224625945Y-74683846D01*
X224708237Y-74768482D01*
X224791284Y-74858641D01*
X224874913Y-74954265D01*
X224958949Y-75055296D01*
X225043217Y-75161675D01*
X225127543Y-75273344D01*
X225211753Y-75390246D01*
X225295672Y-75512322D01*
X225379126Y-75639514D01*
X225461941Y-75771764D01*
X225543942Y-75909013D01*
X225624954Y-76051204D01*
X225704804Y-76198278D01*
X225783316Y-76350178D01*
X225860318Y-76506845D01*
X225935633Y-76668220D01*
X226117676Y-77196485D01*
X226246001Y-77878697D01*
X226318981Y-78700440D01*
X226334988Y-79647294D01*
X226292394Y-80704841D01*
X226189571Y-81858663D01*
X226024891Y-83094341D01*
X225796727Y-84397458D01*
X225503450Y-85753595D01*
X225143433Y-87148334D01*
X224715048Y-88567256D01*
X224216668Y-89995944D01*
X223646664Y-91419978D01*
X223003409Y-92824941D01*
X222285274Y-94196413D01*
X221490633Y-95519978D01*
X221490632Y-95519976D01*
X221482732Y-95538230D01*
X221473947Y-95555787D01*
X221464318Y-95572647D01*
X221453890Y-95588809D01*
X221442706Y-95604273D01*
X221430810Y-95619039D01*
X221418245Y-95633108D01*
X221405056Y-95646479D01*
X221391285Y-95659153D01*
X221376976Y-95671129D01*
X221362173Y-95682407D01*
X221346920Y-95692988D01*
X221315236Y-95712056D01*
X221282273Y-95728335D01*
X221248379Y-95741822D01*
X221213905Y-95752519D01*
X221179198Y-95760426D01*
X221144607Y-95765542D01*
X221110481Y-95767867D01*
X221077169Y-95767402D01*
X221045019Y-95764147D01*
X221014382Y-95758101D01*
X220996012Y-95750315D01*
X220978114Y-95741853D01*
X220943766Y-95722988D01*
X220911394Y-95701681D01*
X220881056Y-95678107D01*
X220852812Y-95652440D01*
X220826719Y-95624855D01*
X220802835Y-95595525D01*
X220781218Y-95564626D01*
X220761926Y-95532332D01*
X220745019Y-95498816D01*
X220730553Y-95464254D01*
X220718586Y-95428820D01*
X220709178Y-95392689D01*
X220702386Y-95356034D01*
X220698268Y-95319031D01*
X220696882Y-95281853D01*
X220748352Y-93800983D01*
X220770134Y-92178725D01*
X220751453Y-90132302D01*
X220663938Y-87784503D01*
X220479221Y-85258114D01*
X220341545Y-83966320D01*
X220168930Y-82675923D01*
X219957828Y-81402274D01*
X219704694Y-80160720D01*
X219692156Y-80113173D01*
X219676944Y-80067305D01*
X219659173Y-80023166D01*
X219638961Y-79980808D01*
X219616424Y-79940282D01*
X219591677Y-79901637D01*
X219564838Y-79864925D01*
X219536022Y-79830197D01*
X219505345Y-79797504D01*
X219472925Y-79766897D01*
X219438876Y-79738426D01*
X219403316Y-79712143D01*
X219366361Y-79688097D01*
X219328127Y-79666341D01*
X219288730Y-79646925D01*
X219248287Y-79629899D01*
X219206914Y-79615316D01*
X219164726Y-79603225D01*
X219121841Y-79593677D01*
X219078375Y-79586724D01*
X219034443Y-79582415D01*
X218990163Y-79580803D01*
X218945650Y-79581938D01*
X218901021Y-79585871D01*
X218856392Y-79592652D01*
X218811880Y-79602333D01*
X218767599Y-79614964D01*
X218723668Y-79630596D01*
X218680202Y-79649281D01*
X218637317Y-79671069D01*
X218595129Y-79696010D01*
X218553756Y-79724156D01*
X217885502Y-80202733D01*
X217218643Y-80658054D01*
X216550855Y-81092912D01*
X215879811Y-81510096D01*
X215203185Y-81912397D01*
X214518654Y-82302606D01*
X213823890Y-82683513D01*
X213116569Y-83057909D01*
X213079381Y-83080697D01*
X213042310Y-83104416D01*
X213005471Y-83129066D01*
X212968981Y-83154645D01*
X212932956Y-83181155D01*
X212897513Y-83208595D01*
X212862767Y-83236965D01*
X212828834Y-83266266D01*
X212795833Y-83296497D01*
X212763877Y-83327658D01*
X212733084Y-83359749D01*
X212703571Y-83392770D01*
X212675452Y-83426722D01*
X212648845Y-83461604D01*
X212623866Y-83497416D01*
X212600631Y-83534158D01*
X209425632Y-88693729D01*
X209414012Y-88711982D01*
X209401506Y-88729531D01*
X209388156Y-88746367D01*
X209374007Y-88762484D01*
X209359103Y-88777874D01*
X209343486Y-88792530D01*
X209327201Y-88806445D01*
X209310290Y-88819612D01*
X209274769Y-88843670D01*
X209237272Y-88864647D01*
X209198146Y-88882485D01*
X209157742Y-88897126D01*
X209116407Y-88908511D01*
X209074491Y-88916582D01*
X209032342Y-88921281D01*
X208990310Y-88922550D01*
X208948743Y-88920331D01*
X208907989Y-88914566D01*
X208888027Y-88910335D01*
X208868399Y-88905196D01*
X208849149Y-88899142D01*
X208830320Y-88892164D01*
X208794062Y-88868920D01*
X208759782Y-88843873D01*
X208727594Y-88817082D01*
X208697615Y-88788605D01*
X208669962Y-88758500D01*
X208644750Y-88726826D01*
X208622096Y-88693640D01*
X208602117Y-88659001D01*
X208584928Y-88622966D01*
X208570646Y-88585594D01*
X208559387Y-88546943D01*
X208551267Y-88507072D01*
X208546403Y-88466037D01*
X208544911Y-88423898D01*
X208545466Y-88402433D01*
X208546907Y-88380713D01*
X208549249Y-88358746D01*
X208552507Y-88336539D01*
X210775008Y-83454779D01*
X210778498Y-83447338D01*
X210781539Y-83439906D01*
X210784143Y-83432487D01*
X210786325Y-83425091D01*
X210788101Y-83417723D01*
X210789484Y-83410392D01*
X210790489Y-83403105D01*
X210791131Y-83395868D01*
X210791424Y-83388690D01*
X210791383Y-83381576D01*
X210791022Y-83374536D01*
X210790356Y-83367575D01*
X210789399Y-83360702D01*
X210788166Y-83353923D01*
X210786672Y-83347246D01*
X210784930Y-83340678D01*
X210782956Y-83334226D01*
X210780763Y-83327897D01*
X210775783Y-83315640D01*
X210770105Y-83303965D01*
X210763846Y-83292928D01*
X210757121Y-83282590D01*
X210750048Y-83273007D01*
X210742742Y-83264238D01*
X210735320Y-83256341D01*
X210727423Y-83248919D01*
X210718654Y-83241614D01*
X210709072Y-83234541D01*
X210698733Y-83227817D01*
X210687697Y-83221558D01*
X210676022Y-83215880D01*
X210663765Y-83210900D01*
X210650985Y-83206733D01*
X210637739Y-83203497D01*
X210624087Y-83201307D01*
X210610086Y-83200280D01*
X210602973Y-83200239D01*
X210595794Y-83200532D01*
X210588558Y-83201174D01*
X210581270Y-83202179D01*
X210573939Y-83203563D01*
X210566571Y-83205338D01*
X210559175Y-83207521D01*
X210551757Y-83210125D01*
X210544324Y-83213165D01*
X210536883Y-83216656D01*
X205655320Y-85439155D01*
X205633001Y-85442414D01*
X205610711Y-85444756D01*
X205588478Y-85446197D01*
X205566333Y-85446752D01*
X205544305Y-85446435D01*
X205522421Y-85445260D01*
X205500712Y-85443242D01*
X205479207Y-85440396D01*
X205457934Y-85436736D01*
X205436923Y-85432276D01*
X205416202Y-85427032D01*
X205395801Y-85421017D01*
X205375749Y-85414247D01*
X205356075Y-85406735D01*
X205336808Y-85398497D01*
X205317977Y-85389546D01*
X205299611Y-85379898D01*
X205281739Y-85369567D01*
X205264390Y-85358567D01*
X205247593Y-85346913D01*
X205231378Y-85334620D01*
X205215774Y-85321701D01*
X205200809Y-85308173D01*
X205186512Y-85294048D01*
X205172913Y-85279342D01*
X205160041Y-85264070D01*
X205147924Y-85248245D01*
X205136592Y-85231882D01*
X205126075Y-85214996D01*
X205116400Y-85197601D01*
X205107597Y-85179713D01*
X205099695Y-85161344D01*
X205092718Y-85139024D01*
X205086663Y-85116725D01*
X205081524Y-85094470D01*
X205077293Y-85072280D01*
X205073964Y-85050177D01*
X205071528Y-85028184D01*
X205069979Y-85006321D01*
X205069309Y-84984611D01*
X205069512Y-84963075D01*
X205070579Y-84941736D01*
X205072503Y-84920614D01*
X205075278Y-84899732D01*
X205078896Y-84879112D01*
X205083349Y-84858776D01*
X205088631Y-84838744D01*
X205094734Y-84819040D01*
X205101651Y-84799684D01*
X205109375Y-84780699D01*
X205117898Y-84762107D01*
X205127213Y-84743928D01*
X205137313Y-84726186D01*
X205148190Y-84708901D01*
X205159838Y-84692096D01*
X205172249Y-84675793D01*
X205185416Y-84660012D01*
X205199331Y-84644777D01*
X205213987Y-84630109D01*
X205229377Y-84616029D01*
X205245494Y-84602559D01*
X205262331Y-84589722D01*
X205279880Y-84577539D01*
X205298133Y-84566031D01*
X210457507Y-81391031D01*
X210494249Y-81367796D01*
X210530061Y-81342816D01*
X210564943Y-81316209D01*
X210598894Y-81288091D01*
X210631916Y-81258577D01*
X210664007Y-81227784D01*
X210695168Y-81195828D01*
X210725398Y-81162826D01*
X210754699Y-81128894D01*
X210783069Y-81094148D01*
X210810510Y-81058704D01*
X210837020Y-81022679D01*
X210862599Y-80986189D01*
X210887249Y-80949351D01*
X210910968Y-80912279D01*
X210933757Y-80875091D01*
X211308153Y-80167771D01*
X211689060Y-79473008D01*
X212079269Y-78788476D01*
X212481570Y-78111851D01*
X212898753Y-77440806D01*
X213333611Y-76773018D01*
X213788932Y-76106160D01*
X214267507Y-75437906D01*
X214295654Y-75396533D01*
X214320595Y-75354346D01*
X214342383Y-75311461D01*
X214361068Y-75267995D01*
X214376700Y-75224063D01*
X214389331Y-75179783D01*
X214399012Y-75135270D01*
X214405794Y-75090641D01*
X214409726Y-75046012D01*
X214410861Y-75001500D01*
X214409249Y-74957220D01*
X214404941Y-74913288D01*
X214397988Y-74869822D01*
X214388440Y-74826937D01*
X214376349Y-74784749D01*
X214361765Y-74743376D01*
X214344740Y-74702933D01*
X214325324Y-74663536D01*
X214303567Y-74625302D01*
X214279522Y-74588346D01*
X214253239Y-74552787D01*
X214224768Y-74518738D01*
X214194160Y-74486318D01*
X214161467Y-74455641D01*
X214126740Y-74426825D01*
X214090028Y-74399985D01*
X214051383Y-74375239D01*
X214010856Y-74352701D01*
X213968498Y-74332489D01*
X213924360Y-74314719D01*
X213878492Y-74299506D01*
X213830945Y-74286968D01*
X212589393Y-74033834D01*
X211315750Y-73822733D01*
X210025363Y-73650118D01*
X208733582Y-73512442D01*
X207455753Y-73406160D01*
X206207224Y-73327725D01*
X205003344Y-73273591D01*
X203859460Y-73240211D01*
X201813074Y-73221531D01*
X200190847Y-73243313D01*
X198710007Y-73294782D01*
X198687915Y-73294435D01*
X198666289Y-73293397D01*
X198645127Y-73291676D01*
X198624431Y-73289279D01*
X198604199Y-73286214D01*
X198584433Y-73282487D01*
X198565132Y-73278106D01*
X198546296Y-73273079D01*
X198527925Y-73267412D01*
X198510019Y-73261112D01*
X198492578Y-73254188D01*
X198475603Y-73246646D01*
X198459092Y-73238494D01*
X198443047Y-73229738D01*
X198427466Y-73220387D01*
X198412351Y-73210447D01*
X198397700Y-73199926D01*
X198383515Y-73188830D01*
X198369795Y-73177168D01*
X198356540Y-73164946D01*
X198343750Y-73152172D01*
X198331425Y-73138853D01*
X198319566Y-73124996D01*
X198308171Y-73110608D01*
X198297241Y-73095698D01*
X198286777Y-73080271D01*
X198276778Y-73064336D01*
X198267243Y-73047899D01*
X198258174Y-73030968D01*
X198249570Y-73013551D01*
X198233757Y-72977283D01*
X198230384Y-72958682D01*
X198227701Y-72940096D01*
X198225702Y-72921538D01*
X198224378Y-72903024D01*
X198223722Y-72884568D01*
X198223729Y-72866185D01*
X198224389Y-72847889D01*
X198225695Y-72829695D01*
X198227642Y-72811617D01*
X198230220Y-72793670D01*
X198233424Y-72775869D01*
X198237245Y-72758227D01*
X198246712Y-72723481D01*
X198258562Y-72689549D01*
X198272737Y-72656547D01*
X198289180Y-72624592D01*
X198307832Y-72593799D01*
X198328635Y-72564285D01*
X198351531Y-72536167D01*
X198376461Y-72509560D01*
X198389672Y-72496860D01*
X198403369Y-72484581D01*
X198417545Y-72472739D01*
X198432194Y-72461346D01*
X199755757Y-71666705D01*
X201127224Y-70948570D01*
X202532177Y-70305315D01*
X203956199Y-69735311D01*
X205384871Y-69236930D01*
X206803777Y-68808545D01*
X208198498Y-68448528D01*
X209554617Y-68155252D01*
X210857716Y-67927087D01*
X212093377Y-67762407D01*
X213247182Y-67659584D01*
X214304714Y-67616990D01*
X215251556Y-67632997D01*
G37*
D12*
X222735000Y-96175000D03*
X222735000Y-98000000D03*
X220000000Y-96175000D03*
X220000000Y-98000000D03*
X239000000Y-96087500D03*
X239000000Y-97912500D03*
X237000000Y-96087500D03*
X237000000Y-97912500D03*
X235000000Y-96087500D03*
X235000000Y-97912500D03*
D13*
X227114253Y-84154446D03*
X226885747Y-86015470D03*
D14*
X212933933Y-66518291D03*
X211066067Y-66681709D03*
D15*
X245229248Y-79520194D03*
X245651032Y-77693250D03*
D16*
X243188101Y-48531250D03*
X244811899Y-49468750D03*
D17*
X215438041Y-48152119D03*
X213644969Y-48700315D03*
D18*
X239985000Y-108000000D03*
X218015000Y-108000000D03*
D19*
X229000000Y-108000000D03*
M02*
