%TF.GenerationSoftware,KiCad,Pcbnew,(6.0.10-0)*%
%TF.CreationDate,2023-08-25T18:06:43+02:00*%
%TF.ProjectId,SwiftLeeds,53776966-744c-4656-9564-732e6b696361,rev?*%
%TF.SameCoordinates,Original*%
%TF.FileFunction,Drillmap*%
%TF.FilePolarity,Positive*%
%FSLAX45Y45*%
G04 Gerber Fmt 4.5, Leading zero omitted, Abs format (unit mm)*
G04 Created by KiCad (PCBNEW (6.0.10-0)) date 2023-08-25 18:06:43*
%MOMM*%
%LPD*%
G01*
G04 APERTURE LIST*
%ADD10C,0.396874*%
%ADD11C,0.200000*%
G04 APERTURE END LIST*
D10*
X22487027Y-9600230D02*
X23361869Y-9604351D01*
X22487027Y-9600230D02*
X22487027Y-9600230D01*
X22536042Y-9511529D02*
X22487027Y-9600230D01*
X22582421Y-9421265D02*
X22536042Y-9511529D01*
X22626152Y-9329532D02*
X22582421Y-9421265D01*
X22667224Y-9236425D02*
X22626152Y-9329532D01*
X22705624Y-9142036D02*
X22667224Y-9236425D01*
X22741341Y-9046460D02*
X22705624Y-9142036D01*
X22774361Y-8949790D02*
X22741341Y-9046460D01*
X22804674Y-8852121D02*
X22774361Y-8949790D01*
X22832266Y-8753546D02*
X22804674Y-8852121D01*
X22857127Y-8654159D02*
X22832266Y-8753546D01*
X22879243Y-8554053D02*
X22857127Y-8654159D01*
X22898603Y-8453324D02*
X22879243Y-8554053D01*
X22915195Y-8352064D02*
X22898603Y-8453324D01*
X22929007Y-8250367D02*
X22915195Y-8352064D01*
X22940026Y-8148327D02*
X22929007Y-8250367D01*
X22948241Y-8046039D02*
X22940026Y-8148327D01*
X22948241Y-8046039D02*
X22948241Y-8046039D01*
X22950469Y-7982949D02*
X22948241Y-8046039D01*
X22950809Y-7919564D02*
X22950469Y-7982949D01*
X22948795Y-7856134D02*
X22950809Y-7919564D01*
X22946758Y-7824482D02*
X22948795Y-7856134D01*
X22943957Y-7792913D02*
X22946758Y-7824482D01*
X22940333Y-7761459D02*
X22943957Y-7792913D01*
X22935827Y-7730152D02*
X22940333Y-7761459D01*
X22930382Y-7699023D02*
X22935827Y-7730152D01*
X22923938Y-7668104D02*
X22930382Y-7699023D01*
X22916436Y-7637426D02*
X22923938Y-7668104D01*
X22907820Y-7607020D02*
X22916436Y-7637426D01*
X22898028Y-7576919D02*
X22907820Y-7607020D01*
X22887005Y-7547154D02*
X22898028Y-7576919D01*
X22887005Y-7547154D02*
X22887005Y-7547154D01*
X22885032Y-7542126D02*
X22887005Y-7547154D01*
X22883641Y-7538278D02*
X22885032Y-7542126D01*
X22882744Y-7535442D02*
X22883641Y-7538278D01*
X22882252Y-7533453D02*
X22882744Y-7535442D01*
X22882078Y-7532145D02*
X22882252Y-7533453D01*
X22882133Y-7531351D02*
X22882078Y-7532145D01*
X22882330Y-7530906D02*
X22882133Y-7531351D01*
X22882581Y-7530643D02*
X22882330Y-7530906D01*
X22882797Y-7530397D02*
X22882581Y-7530643D01*
X22882890Y-7530000D02*
X22882797Y-7530397D01*
X22882773Y-7529288D02*
X22882890Y-7530000D01*
X22882356Y-7528093D02*
X22882773Y-7529288D01*
X22881553Y-7526250D02*
X22882356Y-7528093D01*
X22880275Y-7523593D02*
X22881553Y-7526250D01*
X22875943Y-7515170D02*
X22880275Y-7523593D01*
X22875943Y-7515170D02*
X22875943Y-7515170D01*
X22875407Y-7510146D02*
X22875943Y-7515170D01*
X22875089Y-7505405D02*
X22875407Y-7510146D01*
X22874980Y-7500935D02*
X22875089Y-7505405D01*
X22875071Y-7496724D02*
X22874980Y-7500935D01*
X22875355Y-7492761D02*
X22875071Y-7496724D01*
X22875823Y-7489034D02*
X22875355Y-7492761D01*
X22876465Y-7485532D02*
X22875823Y-7489034D01*
X22877274Y-7482243D02*
X22876465Y-7485532D01*
X22878241Y-7479155D02*
X22877274Y-7482243D01*
X22879357Y-7476257D02*
X22878241Y-7479155D01*
X22880613Y-7473538D02*
X22879357Y-7476257D01*
X22882002Y-7470985D02*
X22880613Y-7473538D01*
X22883514Y-7468587D02*
X22882002Y-7470985D01*
X22885141Y-7466333D02*
X22883514Y-7468587D01*
X22886875Y-7464210D02*
X22885141Y-7466333D01*
X22888706Y-7462208D02*
X22886875Y-7464210D01*
X22890626Y-7460315D02*
X22888706Y-7462208D01*
X22892627Y-7458519D02*
X22890626Y-7460315D01*
X22896835Y-7455172D02*
X22892627Y-7458519D01*
X22901264Y-7452074D02*
X22896835Y-7455172D01*
X22905842Y-7449133D02*
X22901264Y-7452074D01*
X22915177Y-7443351D02*
X22905842Y-7449133D01*
X22919795Y-7440324D02*
X22915177Y-7443351D01*
X22924289Y-7437084D02*
X22919795Y-7440324D01*
X22924289Y-7437084D02*
X22924289Y-7437084D01*
X22996652Y-7392487D02*
X22924289Y-7437084D01*
X23068767Y-7347482D02*
X22996652Y-7392487D01*
X23212411Y-7256552D02*
X23068767Y-7347482D01*
X23212411Y-7256552D02*
X23212411Y-7256552D01*
X23230192Y-7375755D02*
X23212411Y-7256552D01*
X23246436Y-7495640D02*
X23230192Y-7375755D01*
X23261115Y-7616081D02*
X23246436Y-7495640D01*
X23274199Y-7736950D02*
X23261115Y-7616081D01*
X23285658Y-7858119D02*
X23274199Y-7736950D01*
X23295465Y-7979461D02*
X23285658Y-7858119D01*
X23303589Y-8100848D02*
X23295465Y-7979461D01*
X23310002Y-8222152D02*
X23303589Y-8100848D01*
X23310002Y-8222152D02*
X23310002Y-8222152D01*
X23314334Y-8316920D02*
X23310002Y-8222152D01*
X23318107Y-8411734D02*
X23314334Y-8316920D01*
X23321160Y-8506034D02*
X23318107Y-8411734D01*
X23323335Y-8599261D02*
X23321160Y-8506034D01*
X23323335Y-8599261D02*
X23323335Y-8599261D01*
X23325810Y-8751029D02*
X23323335Y-8599261D01*
X23326242Y-8903550D02*
X23325810Y-8751029D01*
X23324910Y-9055390D02*
X23326242Y-8903550D01*
X23322096Y-9205115D02*
X23324910Y-9055390D01*
X23322096Y-9205115D02*
X23322096Y-9205115D01*
X23321535Y-9236766D02*
X23322096Y-9205115D01*
X23320337Y-9268428D02*
X23321535Y-9236766D01*
X23317342Y-9331761D02*
X23320337Y-9268428D01*
X23316202Y-9363419D02*
X23317342Y-9331761D01*
X23315737Y-9395062D02*
X23316202Y-9363419D01*
X23316275Y-9426684D02*
X23315737Y-9395062D01*
X23317022Y-9442485D02*
X23316275Y-9426684D01*
X23318144Y-9458278D02*
X23317022Y-9442485D01*
X23318144Y-9458278D02*
X23318144Y-9458278D01*
X23319419Y-9468068D02*
X23318144Y-9458278D01*
X23320947Y-9477810D02*
X23319419Y-9468068D01*
X23322716Y-9487496D02*
X23320947Y-9477810D01*
X23324712Y-9497118D02*
X23322716Y-9487496D01*
X23326924Y-9506665D02*
X23324712Y-9497118D01*
X23329339Y-9516131D02*
X23326924Y-9506665D01*
X23331943Y-9525506D02*
X23329339Y-9516131D01*
X23334726Y-9534781D02*
X23331943Y-9525506D01*
X23340773Y-9552998D02*
X23334726Y-9534781D01*
X23347380Y-9570711D02*
X23340773Y-9552998D01*
X23354445Y-9587852D02*
X23347380Y-9570711D01*
X23361869Y-9604351D02*
X23354445Y-9587852D01*
X21437680Y-9925894D02*
X21437680Y-9925894D01*
X21437680Y-9925894D02*
X21437680Y-9925894D01*
X21438021Y-9909363D02*
X21437680Y-9925894D01*
X21439185Y-9893045D02*
X21438021Y-9909363D01*
X21441151Y-9876960D02*
X21439185Y-9893045D01*
X21443901Y-9861129D02*
X21441151Y-9876960D01*
X21447413Y-9845572D02*
X21443901Y-9861129D01*
X21451667Y-9830309D02*
X21447413Y-9845572D01*
X21456645Y-9815360D02*
X21451667Y-9830309D01*
X21462325Y-9800746D02*
X21456645Y-9815360D01*
X21468687Y-9786487D02*
X21462325Y-9800746D01*
X21475712Y-9772603D02*
X21468687Y-9786487D01*
X21483380Y-9759115D02*
X21475712Y-9772603D01*
X21491669Y-9746042D02*
X21483380Y-9759115D01*
X21500561Y-9733406D02*
X21491669Y-9746042D01*
X21510036Y-9721226D02*
X21500561Y-9733406D01*
X21520072Y-9709523D02*
X21510036Y-9721226D01*
X21530651Y-9698317D02*
X21520072Y-9709523D01*
X21541752Y-9687628D02*
X21530651Y-9698317D01*
X21553355Y-9677476D02*
X21541752Y-9687628D01*
X21565440Y-9667882D02*
X21553355Y-9677476D01*
X21577987Y-9658866D02*
X21565440Y-9667882D01*
X21590976Y-9650449D02*
X21577987Y-9658866D01*
X21604387Y-9642650D02*
X21590976Y-9650449D01*
X21618200Y-9635490D02*
X21604387Y-9642650D01*
X21632394Y-9628989D02*
X21618200Y-9635490D01*
X21646951Y-9623168D02*
X21632394Y-9628989D01*
X21661848Y-9618046D02*
X21646951Y-9623168D01*
X21677068Y-9613645D02*
X21661848Y-9618046D01*
X21692589Y-9609983D02*
X21677068Y-9613645D01*
X21708392Y-9607083D02*
X21692589Y-9609983D01*
X21724456Y-9604963D02*
X21708392Y-9607083D01*
X21740762Y-9603644D02*
X21724456Y-9604963D01*
X21757289Y-9603146D02*
X21740762Y-9603644D01*
X21757289Y-9603146D02*
X21757289Y-9603146D01*
X21756315Y-9527946D02*
X21757289Y-9603146D01*
X21756321Y-9451111D02*
X21756315Y-9527946D01*
X21757806Y-9294803D02*
X21756321Y-9451111D01*
X21758825Y-9138764D02*
X21757806Y-9294803D01*
X21758247Y-9062263D02*
X21758825Y-9138764D01*
X21756458Y-8987532D02*
X21758247Y-9062263D01*
X21756458Y-8987532D02*
X21756458Y-8987532D01*
X21755781Y-8956791D02*
X21756458Y-8987532D01*
X21754788Y-8925144D02*
X21755781Y-8956791D01*
X21752660Y-8866066D02*
X21754788Y-8925144D01*
X21752660Y-8866066D02*
X21752660Y-8866066D01*
X21746871Y-8759106D02*
X21752660Y-8866066D01*
X21739404Y-8652114D02*
X21746871Y-8759106D01*
X21730349Y-8545806D02*
X21739404Y-8652114D01*
X21719794Y-8440898D02*
X21730349Y-8545806D01*
X21719794Y-8440898D02*
X21719794Y-8440898D01*
X21650998Y-8480659D02*
X21719794Y-8440898D01*
X21581895Y-8519886D02*
X21650998Y-8480659D01*
X21581895Y-8519886D02*
X21581895Y-8519886D01*
X21576836Y-8523107D02*
X21581895Y-8519886D01*
X21571637Y-8526177D02*
X21576836Y-8523107D01*
X21566324Y-8529125D02*
X21571637Y-8526177D01*
X21560927Y-8531981D02*
X21566324Y-8529125D01*
X21539049Y-8543087D02*
X21560927Y-8531981D01*
X21533647Y-8545933D02*
X21539049Y-8543087D01*
X21528328Y-8548865D02*
X21533647Y-8545933D01*
X21523121Y-8551915D02*
X21528328Y-8548865D01*
X21518053Y-8555111D02*
X21523121Y-8551915D01*
X21513151Y-8558484D02*
X21518053Y-8555111D01*
X21508445Y-8562063D02*
X21513151Y-8558484D01*
X21503962Y-8565879D02*
X21508445Y-8562063D01*
X21499729Y-8569960D02*
X21503962Y-8565879D01*
X21499729Y-8569960D02*
X21499729Y-8569960D01*
X21368670Y-8781465D02*
X21499729Y-8569960D01*
X21303929Y-8886878D02*
X21368670Y-8781465D01*
X21240211Y-8992492D02*
X21303929Y-8886878D01*
X21240211Y-8992492D02*
X21240211Y-8992492D01*
X21226445Y-9017493D02*
X21240211Y-8992492D01*
X21210860Y-9041419D02*
X21226445Y-9017493D01*
X21193573Y-9064172D02*
X21210860Y-9041419D01*
X21174702Y-9085653D02*
X21193573Y-9064172D01*
X21154362Y-9105766D02*
X21174702Y-9085653D01*
X21132670Y-9124410D02*
X21154362Y-9105766D01*
X21109744Y-9141487D02*
X21132670Y-9124410D01*
X21085701Y-9156900D02*
X21109744Y-9141487D01*
X21060656Y-9170549D02*
X21085701Y-9156900D01*
X21034728Y-9182336D02*
X21060656Y-9170549D01*
X21008032Y-9192163D02*
X21034728Y-9182336D01*
X20980686Y-9199931D02*
X21008032Y-9192163D01*
X20952806Y-9205542D02*
X20980686Y-9199931D01*
X20924509Y-9208898D02*
X20952806Y-9205542D01*
X20895912Y-9209899D02*
X20924509Y-9208898D01*
X20881538Y-9209486D02*
X20895912Y-9209899D01*
X20867133Y-9208448D02*
X20881538Y-9209486D01*
X20867133Y-9208448D02*
X20867133Y-9208448D01*
X20850691Y-9206750D02*
X20867133Y-9208448D01*
X20834461Y-9204217D02*
X20850691Y-9206750D01*
X20818459Y-9200873D02*
X20834461Y-9204217D01*
X20802705Y-9196744D02*
X20818459Y-9200873D01*
X20787215Y-9191853D02*
X20802705Y-9196744D01*
X20772009Y-9186224D02*
X20787215Y-9191853D01*
X20757104Y-9179883D02*
X20772009Y-9186224D01*
X20742518Y-9172853D02*
X20757104Y-9179883D01*
X20728270Y-9165159D02*
X20742518Y-9172853D01*
X20714377Y-9156826D02*
X20728270Y-9165159D01*
X20700858Y-9147877D02*
X20714377Y-9156826D01*
X20687731Y-9138337D02*
X20700858Y-9147877D01*
X20675014Y-9128231D02*
X20687731Y-9138337D01*
X20662725Y-9117582D02*
X20675014Y-9128231D01*
X20650883Y-9106416D02*
X20662725Y-9117582D01*
X20639504Y-9094757D02*
X20650883Y-9106416D01*
X20628608Y-9082629D02*
X20639504Y-9094757D01*
X20618212Y-9070056D02*
X20628608Y-9082629D01*
X20598995Y-9043675D02*
X20618212Y-9070056D01*
X20590210Y-9029915D02*
X20598995Y-9043675D01*
X20581997Y-9015808D02*
X20590210Y-9029915D01*
X20574376Y-9001379D02*
X20581997Y-9015808D01*
X20567364Y-8986652D02*
X20574376Y-9001379D01*
X20560979Y-8971651D02*
X20567364Y-8986652D01*
X20555240Y-8956400D02*
X20560979Y-8971651D01*
X20550164Y-8940925D02*
X20555240Y-8956400D01*
X20545769Y-8925249D02*
X20550164Y-8940925D01*
X20542074Y-8909397D02*
X20545769Y-8925249D01*
X20539098Y-8893393D02*
X20542074Y-8909397D01*
X20536857Y-8877262D02*
X20539098Y-8893393D01*
X20535370Y-8861027D02*
X20536857Y-8877262D01*
X20535370Y-8861027D02*
X20535370Y-8861027D01*
X20519689Y-8859453D02*
X20535370Y-8861027D01*
X20504044Y-8857316D02*
X20519689Y-8859453D01*
X20488464Y-8854609D02*
X20504044Y-8857316D01*
X20472982Y-8851328D02*
X20488464Y-8854609D01*
X20457627Y-8847468D02*
X20472982Y-8851328D01*
X20442432Y-8843024D02*
X20457627Y-8847468D01*
X20427427Y-8837992D02*
X20442432Y-8843024D01*
X20412644Y-8832365D02*
X20427427Y-8837992D01*
X20398113Y-8826140D02*
X20412644Y-8832365D01*
X20383866Y-8819311D02*
X20398113Y-8826140D01*
X20369933Y-8811873D02*
X20383866Y-8819311D01*
X20356347Y-8803821D02*
X20369933Y-8811873D01*
X20343137Y-8795150D02*
X20356347Y-8803821D01*
X20330336Y-8785855D02*
X20343137Y-8795150D01*
X20317974Y-8775932D02*
X20330336Y-8785855D01*
X20306081Y-8765375D02*
X20317974Y-8775932D01*
X20306081Y-8765375D02*
X20306081Y-8765375D01*
X20292070Y-8752286D02*
X20306081Y-8765375D01*
X20278961Y-8738450D02*
X20292070Y-8752286D01*
X20266755Y-8723918D02*
X20278961Y-8738450D01*
X20255454Y-8708741D02*
X20266755Y-8723918D01*
X20245059Y-8692967D02*
X20255454Y-8708741D01*
X20235569Y-8676649D02*
X20245059Y-8692967D01*
X20226986Y-8659835D02*
X20235569Y-8676649D01*
X20219311Y-8642577D02*
X20226986Y-8659835D01*
X20212545Y-8624925D02*
X20219311Y-8642577D01*
X20206688Y-8606928D02*
X20212545Y-8624925D01*
X20201741Y-8588639D02*
X20206688Y-8606928D01*
X20197706Y-8570105D02*
X20201741Y-8588639D01*
X20194583Y-8551379D02*
X20197706Y-8570105D01*
X20192372Y-8532511D02*
X20194583Y-8551379D01*
X20191075Y-8513550D02*
X20192372Y-8532511D01*
X20190693Y-8494547D02*
X20191075Y-8513550D01*
X20191226Y-8475553D02*
X20190693Y-8494547D01*
X20192675Y-8456617D02*
X20191226Y-8475553D01*
X20195042Y-8437790D02*
X20192675Y-8456617D01*
X20198326Y-8419123D02*
X20195042Y-8437790D01*
X20202529Y-8400666D02*
X20198326Y-8419123D01*
X20207652Y-8382468D02*
X20202529Y-8400666D01*
X20213695Y-8364581D02*
X20207652Y-8382468D01*
X20220660Y-8347055D02*
X20213695Y-8364581D01*
X20228546Y-8329940D02*
X20220660Y-8347055D01*
X20237356Y-8313286D02*
X20228546Y-8329940D01*
X20247090Y-8297144D02*
X20237356Y-8313286D01*
X20257748Y-8281565D02*
X20247090Y-8297144D01*
X20269332Y-8266597D02*
X20257748Y-8281565D01*
X20281842Y-8252293D02*
X20269332Y-8266597D01*
X20295280Y-8238701D02*
X20281842Y-8252293D01*
X20309645Y-8225873D02*
X20295280Y-8238701D01*
X20309645Y-8225873D02*
X20309645Y-8225873D01*
X20373783Y-8182142D02*
X20309645Y-8225873D01*
X20438784Y-8139704D02*
X20373783Y-8182142D01*
X20504438Y-8098246D02*
X20438784Y-8139704D01*
X20570538Y-8057457D02*
X20504438Y-8098246D01*
X20703233Y-7976633D02*
X20570538Y-8057457D01*
X20835194Y-7894730D02*
X20703233Y-7976633D01*
X20835194Y-7894730D02*
X20835194Y-7894730D01*
X20865104Y-7840345D02*
X20835194Y-7894730D01*
X20895488Y-7786224D02*
X20865104Y-7840345D01*
X20926304Y-7732347D02*
X20895488Y-7786224D01*
X20957513Y-7678697D02*
X20926304Y-7732347D01*
X20957513Y-7678697D02*
X20957513Y-7678697D01*
X20863179Y-7669032D02*
X20957513Y-7678697D01*
X20768710Y-7660775D02*
X20863179Y-7669032D01*
X20674126Y-7653899D02*
X20768710Y-7660775D01*
X20579451Y-7648374D02*
X20674126Y-7653899D01*
X20484706Y-7644174D02*
X20579451Y-7648374D01*
X20389913Y-7641271D02*
X20484706Y-7644174D01*
X20295094Y-7639636D02*
X20389913Y-7641271D01*
X20200272Y-7639242D02*
X20295094Y-7639636D01*
X20200272Y-7639242D02*
X20200272Y-7639242D01*
X20159333Y-7638825D02*
X20200272Y-7639242D01*
X20118415Y-7639251D02*
X20159333Y-7638825D01*
X20036617Y-7641588D02*
X20118415Y-7639251D01*
X19954829Y-7644167D02*
X20036617Y-7641588D01*
X19913925Y-7644894D02*
X19954829Y-7644167D01*
X19873005Y-7644900D02*
X19913925Y-7644894D01*
X19873005Y-7644900D02*
X19873005Y-7644900D01*
X19860061Y-7644930D02*
X19873005Y-7644900D01*
X19847130Y-7644482D02*
X19860061Y-7644930D01*
X19834226Y-7643563D02*
X19847130Y-7644482D01*
X19821365Y-7642178D02*
X19834226Y-7643563D01*
X19808561Y-7640334D02*
X19821365Y-7642178D01*
X19795830Y-7638038D02*
X19808561Y-7640334D01*
X19783187Y-7635295D02*
X19795830Y-7638038D01*
X19770647Y-7632113D02*
X19783187Y-7635295D01*
X19758225Y-7628497D02*
X19770647Y-7632113D01*
X19745937Y-7624454D02*
X19758225Y-7628497D01*
X19733797Y-7619990D02*
X19745937Y-7624454D01*
X19721820Y-7615111D02*
X19733797Y-7619990D01*
X19710021Y-7609824D02*
X19721820Y-7615111D01*
X19698416Y-7604136D02*
X19710021Y-7609824D01*
X19687020Y-7598052D02*
X19698416Y-7604136D01*
X19675848Y-7591579D02*
X19687020Y-7598052D01*
X19664915Y-7584723D02*
X19675848Y-7591579D01*
X19654235Y-7577491D02*
X19664915Y-7584723D01*
X19643825Y-7569888D02*
X19654235Y-7577491D01*
X19633699Y-7561922D02*
X19643825Y-7569888D01*
X19623872Y-7553598D02*
X19633699Y-7561922D01*
X19614359Y-7544923D02*
X19623872Y-7553598D01*
X19605176Y-7535904D02*
X19614359Y-7544923D01*
X19596338Y-7526546D02*
X19605176Y-7535904D01*
X19587859Y-7516856D02*
X19596338Y-7526546D01*
X19579755Y-7506840D02*
X19587859Y-7516856D01*
X19572041Y-7496505D02*
X19579755Y-7506840D01*
X19564732Y-7485857D02*
X19572041Y-7496505D01*
X19557843Y-7474903D02*
X19564732Y-7485857D01*
X19551389Y-7463647D02*
X19557843Y-7474903D01*
X19545386Y-7452098D02*
X19551389Y-7463647D01*
X19539847Y-7440262D02*
X19545386Y-7452098D01*
X19539847Y-7440262D02*
X19539847Y-7440262D01*
X19533449Y-7426141D02*
X19539847Y-7440262D01*
X19527727Y-7411769D02*
X19533449Y-7426141D01*
X19522675Y-7397173D02*
X19527727Y-7411769D01*
X19518291Y-7382378D02*
X19522675Y-7397173D01*
X19514568Y-7367413D02*
X19518291Y-7382378D01*
X19511502Y-7352302D02*
X19514568Y-7367413D01*
X19509090Y-7337075D02*
X19511502Y-7352302D01*
X19507325Y-7321756D02*
X19509090Y-7337075D01*
X19506204Y-7306373D02*
X19507325Y-7321756D01*
X19505722Y-7290953D02*
X19506204Y-7306373D01*
X19505874Y-7275523D02*
X19505722Y-7290953D01*
X19506655Y-7260108D02*
X19505874Y-7275523D01*
X19508061Y-7244736D02*
X19506655Y-7260108D01*
X19510088Y-7229434D02*
X19508061Y-7244736D01*
X19512730Y-7214229D02*
X19510088Y-7229434D01*
X19515984Y-7199146D02*
X19512730Y-7214229D01*
X19519843Y-7184214D02*
X19515984Y-7199146D01*
X19524305Y-7169458D02*
X19519843Y-7184214D01*
X19529364Y-7154905D02*
X19524305Y-7169458D01*
X19535015Y-7140583D02*
X19529364Y-7154905D01*
X19541254Y-7126518D02*
X19535015Y-7140583D01*
X19548076Y-7112737D02*
X19541254Y-7126518D01*
X19555477Y-7099266D02*
X19548076Y-7112737D01*
X19563452Y-7086132D02*
X19555477Y-7099266D01*
X19571996Y-7073362D02*
X19563452Y-7086132D01*
X19581106Y-7060983D02*
X19571996Y-7073362D01*
X19590775Y-7049021D02*
X19581106Y-7060983D01*
X19600999Y-7037504D02*
X19590775Y-7049021D01*
X19611775Y-7026458D02*
X19600999Y-7037504D01*
X19623097Y-7015909D02*
X19611775Y-7026458D01*
X19634960Y-7005885D02*
X19623097Y-7015909D01*
X19647360Y-6996413D02*
X19634960Y-7005885D01*
X19647360Y-6996413D02*
X19647360Y-6996413D01*
X19710189Y-6955929D02*
X19647360Y-6996413D01*
X19774019Y-6917146D02*
X19710189Y-6955929D01*
X19838800Y-6880035D02*
X19774019Y-6917146D01*
X19904479Y-6844567D02*
X19838800Y-6880035D01*
X19971005Y-6810713D02*
X19904479Y-6844567D01*
X20038324Y-6778444D02*
X19971005Y-6810713D01*
X20106384Y-6747732D02*
X20038324Y-6778444D01*
X20175135Y-6718547D02*
X20106384Y-6747732D01*
X20244524Y-6690860D02*
X20175135Y-6718547D01*
X20314498Y-6664644D02*
X20244524Y-6690860D01*
X20455995Y-6616505D02*
X20314498Y-6664644D01*
X20599211Y-6573899D02*
X20455995Y-6616505D01*
X20743727Y-6536596D02*
X20599211Y-6573899D01*
X20743727Y-6536596D02*
X20743727Y-6536596D01*
X20852162Y-6513063D02*
X20743727Y-6536596D01*
X20961324Y-6491925D02*
X20852162Y-6513063D01*
X21071093Y-6473844D02*
X20961324Y-6491925D01*
X21181349Y-6459480D02*
X21071093Y-6473844D01*
X21291971Y-6449495D02*
X21181349Y-6459480D01*
X21347382Y-6446350D02*
X21291971Y-6449495D01*
X21402840Y-6444548D02*
X21347382Y-6446350D01*
X21458329Y-6444171D02*
X21402840Y-6444548D01*
X21513835Y-6445301D02*
X21458329Y-6444171D01*
X21569342Y-6448022D02*
X21513835Y-6445301D01*
X21624836Y-6452415D02*
X21569342Y-6448022D01*
X21624836Y-6452415D02*
X21624836Y-6452415D01*
X21665424Y-6456370D02*
X21624836Y-6452415D01*
X21703147Y-6461102D02*
X21665424Y-6456370D01*
X21721161Y-6463903D02*
X21703147Y-6461102D01*
X21738730Y-6467070D02*
X21721161Y-6463903D01*
X21755947Y-6470661D02*
X21738730Y-6467070D01*
X21772901Y-6474732D02*
X21755947Y-6470661D01*
X21789684Y-6479341D02*
X21772901Y-6474732D01*
X21806385Y-6484545D02*
X21789684Y-6479341D01*
X21823097Y-6490402D02*
X21806385Y-6484545D01*
X21839909Y-6496969D02*
X21823097Y-6490402D01*
X21856912Y-6504303D02*
X21839909Y-6496969D01*
X21874198Y-6512461D02*
X21856912Y-6504303D01*
X21891856Y-6521501D02*
X21874198Y-6512461D01*
X21909979Y-6531479D02*
X21891856Y-6521501D01*
X21909979Y-6531479D02*
X21909979Y-6531479D01*
X21910678Y-6531794D02*
X21909979Y-6531479D01*
X21911441Y-6531946D02*
X21910678Y-6531794D01*
X21912265Y-6531940D02*
X21911441Y-6531946D01*
X21913147Y-6531782D02*
X21912265Y-6531940D01*
X21914085Y-6531480D02*
X21913147Y-6531782D01*
X21915074Y-6531038D02*
X21914085Y-6531480D01*
X21917197Y-6529761D02*
X21915074Y-6531038D01*
X21919493Y-6528000D02*
X21917197Y-6529761D01*
X21921938Y-6525805D02*
X21919493Y-6528000D01*
X21924508Y-6523224D02*
X21921938Y-6525805D01*
X21927180Y-6520307D02*
X21924508Y-6523224D01*
X21929931Y-6517101D02*
X21927180Y-6520307D01*
X21932736Y-6513657D02*
X21929931Y-6517101D01*
X21938416Y-6506246D02*
X21932736Y-6513657D01*
X21944030Y-6498466D02*
X21938416Y-6506246D01*
X21949390Y-6490707D02*
X21944030Y-6498466D01*
X21949390Y-6490707D02*
X21949390Y-6490707D01*
X22045126Y-6338118D02*
X21949390Y-6490707D01*
X22093405Y-6262087D02*
X22045126Y-6338118D01*
X22142092Y-6186307D02*
X22093405Y-6262087D01*
X22142092Y-6186307D02*
X22142092Y-6186307D01*
X22003950Y-6165171D02*
X22142092Y-6186307D01*
X21865453Y-6146705D02*
X22003950Y-6165171D01*
X21726651Y-6130721D02*
X21865453Y-6146705D01*
X21587595Y-6117033D02*
X21726651Y-6130721D01*
X21448335Y-6105455D02*
X21587595Y-6117033D01*
X21308921Y-6095799D02*
X21448335Y-6105455D01*
X21169404Y-6087879D02*
X21308921Y-6095799D01*
X21029834Y-6081507D02*
X21169404Y-6087879D01*
X21029834Y-6081507D02*
X21029834Y-6081507D01*
X20825573Y-6075190D02*
X21029834Y-6081507D01*
X20620556Y-6072196D02*
X20825573Y-6075190D01*
X20415151Y-6072424D02*
X20620556Y-6072196D01*
X20209729Y-6075771D02*
X20415151Y-6072424D01*
X20209729Y-6075771D02*
X20209729Y-6075771D01*
X20182345Y-6076070D02*
X20209729Y-6075771D01*
X20154979Y-6076787D02*
X20182345Y-6076070D01*
X20100285Y-6079056D02*
X20154979Y-6076787D01*
X20045627Y-6081736D02*
X20100285Y-6079056D01*
X19990982Y-6083988D02*
X20045627Y-6081736D01*
X19990982Y-6083988D02*
X19990982Y-6083988D01*
X19966927Y-6083158D02*
X19990982Y-6083988D01*
X19942948Y-6080980D02*
X19966927Y-6083158D01*
X19919123Y-6077472D02*
X19942948Y-6080980D01*
X19895529Y-6072649D02*
X19919123Y-6077472D01*
X19872245Y-6066531D02*
X19895529Y-6072649D01*
X19849347Y-6059135D02*
X19872245Y-6066531D01*
X19826913Y-6050478D02*
X19849347Y-6059135D01*
X19805021Y-6040578D02*
X19826913Y-6050478D01*
X19783748Y-6029452D02*
X19805021Y-6040578D01*
X19763171Y-6017118D02*
X19783748Y-6029452D01*
X19743369Y-6003593D02*
X19763171Y-6017118D01*
X19724417Y-5988896D02*
X19743369Y-6003593D01*
X19706395Y-5973043D02*
X19724417Y-5988896D01*
X19689379Y-5956052D02*
X19706395Y-5973043D01*
X19673448Y-5937941D02*
X19689379Y-5956052D01*
X19658677Y-5918727D02*
X19673448Y-5937941D01*
X19658677Y-5918727D02*
X19658677Y-5918727D01*
X19647389Y-5902760D02*
X19658677Y-5918727D01*
X19637087Y-5886239D02*
X19647389Y-5902760D01*
X19627762Y-5869211D02*
X19637087Y-5886239D01*
X19619410Y-5851723D02*
X19627762Y-5869211D01*
X19612024Y-5833823D02*
X19619410Y-5851723D01*
X19605599Y-5815560D02*
X19612024Y-5833823D01*
X19600127Y-5796980D02*
X19605599Y-5815560D01*
X19595603Y-5778132D02*
X19600127Y-5796980D01*
X19592020Y-5759064D02*
X19595603Y-5778132D01*
X19589373Y-5739822D02*
X19592020Y-5759064D01*
X19587655Y-5720456D02*
X19589373Y-5739822D01*
X19586861Y-5701012D02*
X19587655Y-5720456D01*
X19586983Y-5681539D02*
X19586861Y-5701012D01*
X19588016Y-5662084D02*
X19586983Y-5681539D01*
X19589954Y-5642694D02*
X19588016Y-5662084D01*
X19592790Y-5623419D02*
X19589954Y-5642694D01*
X19596519Y-5604305D02*
X19592790Y-5623419D01*
X19601133Y-5585401D02*
X19596519Y-5604305D01*
X19606628Y-5566753D02*
X19601133Y-5585401D01*
X19612997Y-5548410D02*
X19606628Y-5566753D01*
X19620233Y-5530420D02*
X19612997Y-5548410D01*
X19628331Y-5512830D02*
X19620233Y-5530420D01*
X19637284Y-5495688D02*
X19628331Y-5512830D01*
X19647086Y-5479043D02*
X19637284Y-5495688D01*
X19657732Y-5462940D02*
X19647086Y-5479043D01*
X19669214Y-5447429D02*
X19657732Y-5462940D01*
X19681527Y-5432558D02*
X19669214Y-5447429D01*
X19694665Y-5418373D02*
X19681527Y-5432558D01*
X19708621Y-5404923D02*
X19694665Y-5418373D01*
X19723389Y-5392255D02*
X19708621Y-5404923D01*
X19738963Y-5380417D02*
X19723389Y-5392255D01*
X19755338Y-5369458D02*
X19738963Y-5380417D01*
X19755338Y-5369458D02*
X19755338Y-5369458D01*
X19871553Y-5295063D02*
X19755338Y-5369458D01*
X19990217Y-5224758D02*
X19871553Y-5295063D01*
X20111102Y-5158348D02*
X19990217Y-5224758D01*
X20233980Y-5095633D02*
X20111102Y-5158348D01*
X20358622Y-5036417D02*
X20233980Y-5095633D01*
X20484802Y-4980502D02*
X20358622Y-5036417D01*
X20612290Y-4927689D02*
X20484802Y-4980502D01*
X20740859Y-4877783D02*
X20612290Y-4927689D01*
X20740859Y-4877783D02*
X20740859Y-4877783D01*
X20961437Y-4801079D02*
X20740859Y-4877783D01*
X21184667Y-4731772D02*
X20961437Y-4801079D01*
X21410280Y-4670477D02*
X21184667Y-4731772D01*
X21638006Y-4617809D02*
X21410280Y-4670477D01*
X21867573Y-4574383D02*
X21638006Y-4617809D01*
X21982963Y-4556328D02*
X21867573Y-4574383D01*
X22098712Y-4540815D02*
X21982963Y-4556328D01*
X22214787Y-4527919D02*
X22098712Y-4540815D01*
X22331153Y-4517719D02*
X22214787Y-4527919D01*
X22447776Y-4510291D02*
X22331153Y-4517719D01*
X22564624Y-4505712D02*
X22447776Y-4510291D01*
X22564624Y-4505712D02*
X22564624Y-4505712D01*
X22649005Y-4505608D02*
X22564624Y-4505712D01*
X22691200Y-4506223D02*
X22649005Y-4505608D01*
X22733375Y-4507457D02*
X22691200Y-4506223D01*
X22775510Y-4509442D02*
X22733375Y-4507457D01*
X22817589Y-4512309D02*
X22775510Y-4509442D01*
X22859592Y-4516190D02*
X22817589Y-4512309D01*
X22901502Y-4521215D02*
X22859592Y-4516190D01*
X22901502Y-4521215D02*
X22901502Y-4521215D01*
X22941990Y-4526095D02*
X22901502Y-4521215D01*
X22982064Y-4532779D02*
X22941990Y-4526095D01*
X23021713Y-4541186D02*
X22982064Y-4532779D01*
X23060924Y-4551233D02*
X23021713Y-4541186D01*
X23099685Y-4562839D02*
X23060924Y-4551233D01*
X23137985Y-4575921D02*
X23099685Y-4562839D01*
X23175812Y-4590397D02*
X23137985Y-4575921D01*
X23213152Y-4606185D02*
X23175812Y-4590397D01*
X23249995Y-4623203D02*
X23213152Y-4606185D01*
X23286327Y-4641369D02*
X23249995Y-4623203D01*
X23322138Y-4660602D02*
X23286327Y-4641369D01*
X23357415Y-4680818D02*
X23322138Y-4660602D01*
X23392145Y-4701936D02*
X23357415Y-4680818D01*
X23426317Y-4723875D02*
X23392145Y-4701936D01*
X23459920Y-4746551D02*
X23426317Y-4723875D01*
X23492939Y-4769882D02*
X23459920Y-4746551D01*
X23492939Y-4769882D02*
X23492939Y-4769882D01*
X23540925Y-4745019D02*
X23492939Y-4769882D01*
X23589536Y-4721295D02*
X23540925Y-4745019D01*
X23638783Y-4698900D02*
X23589536Y-4721295D01*
X23688673Y-4678025D02*
X23638783Y-4698900D01*
X23739216Y-4658861D02*
X23688673Y-4678025D01*
X23790421Y-4641598D02*
X23739216Y-4658861D01*
X23816275Y-4633738D02*
X23790421Y-4641598D01*
X23842297Y-4626425D02*
X23816275Y-4633738D01*
X23868489Y-4619683D02*
X23842297Y-4626425D01*
X23894853Y-4613535D02*
X23868489Y-4619683D01*
X23894853Y-4613535D02*
X23894853Y-4613535D01*
X23934990Y-4605370D02*
X23894853Y-4613535D01*
X23975595Y-4598616D02*
X23934990Y-4605370D01*
X24016559Y-4593350D02*
X23975595Y-4598616D01*
X24057777Y-4589646D02*
X24016559Y-4593350D01*
X24099141Y-4587580D02*
X24057777Y-4589646D01*
X24140545Y-4587228D02*
X24099141Y-4587580D01*
X24181881Y-4588666D02*
X24140545Y-4587228D01*
X24223043Y-4591968D02*
X24181881Y-4588666D01*
X24263925Y-4597209D02*
X24223043Y-4591968D01*
X24304419Y-4604467D02*
X24263925Y-4597209D01*
X24344419Y-4613815D02*
X24304419Y-4604467D01*
X24383817Y-4625330D02*
X24344419Y-4613815D01*
X24422507Y-4639086D02*
X24383817Y-4625330D01*
X24460383Y-4655160D02*
X24422507Y-4639086D01*
X24497337Y-4673627D02*
X24460383Y-4655160D01*
X24533262Y-4694562D02*
X24497337Y-4673627D01*
X24533262Y-4694562D02*
X24533262Y-4694562D01*
X24563533Y-4714704D02*
X24533262Y-4694562D01*
X24592053Y-4736821D02*
X24563533Y-4714704D01*
X24618824Y-4760778D02*
X24592053Y-4736821D01*
X24643849Y-4786439D02*
X24618824Y-4760778D01*
X24667130Y-4813669D02*
X24643849Y-4786439D01*
X24688670Y-4842332D02*
X24667130Y-4813669D01*
X24708469Y-4872292D02*
X24688670Y-4842332D01*
X24726531Y-4903414D02*
X24708469Y-4872292D01*
X24742858Y-4935562D02*
X24726531Y-4903414D01*
X24757452Y-4968600D02*
X24742858Y-4935562D01*
X24770316Y-5002394D02*
X24757452Y-4968600D01*
X24781451Y-5036807D02*
X24770316Y-5002394D01*
X24790859Y-5071704D02*
X24781451Y-5036807D01*
X24798544Y-5106950D02*
X24790859Y-5071704D01*
X24804506Y-5142408D02*
X24798544Y-5106950D01*
X24808749Y-5177943D02*
X24804506Y-5142408D01*
X24808749Y-5177943D02*
X24808749Y-5177943D01*
X24812088Y-5225698D02*
X24808749Y-5177943D01*
X24812965Y-5273329D02*
X24812088Y-5225698D01*
X24811490Y-5320800D02*
X24812965Y-5273329D01*
X24807776Y-5368071D02*
X24811490Y-5320800D01*
X24801932Y-5415106D02*
X24807776Y-5368071D01*
X24794070Y-5461867D02*
X24801932Y-5415106D01*
X24784302Y-5508316D02*
X24794070Y-5461867D01*
X24772737Y-5554416D02*
X24784302Y-5508316D01*
X24759489Y-5600128D02*
X24772737Y-5554416D01*
X24744667Y-5645416D02*
X24759489Y-5600128D01*
X24728382Y-5690241D02*
X24744667Y-5645416D01*
X24710747Y-5734567D02*
X24728382Y-5690241D01*
X24691871Y-5778355D02*
X24710747Y-5734567D01*
X24671867Y-5821567D02*
X24691871Y-5778355D01*
X24650844Y-5864167D02*
X24671867Y-5821567D01*
X24628916Y-5906116D02*
X24650844Y-5864167D01*
X24628916Y-5906116D02*
X24628916Y-5906116D01*
X24643957Y-5927572D02*
X24628916Y-5906116D01*
X24658844Y-5949141D02*
X24643957Y-5927572D01*
X24673475Y-5970882D02*
X24658844Y-5949141D01*
X24680663Y-5981836D02*
X24673475Y-5970882D01*
X24687749Y-5992855D02*
X24680663Y-5981836D01*
X24687749Y-5992855D02*
X24687749Y-5992855D01*
X24704725Y-6019194D02*
X24687749Y-5992855D01*
X24721110Y-6045927D02*
X24704725Y-6019194D01*
X24736876Y-6073043D02*
X24721110Y-6045927D01*
X24751997Y-6100529D02*
X24736876Y-6073043D01*
X24766444Y-6128374D02*
X24751997Y-6100529D01*
X24780189Y-6156564D02*
X24766444Y-6128374D01*
X24793206Y-6185089D02*
X24780189Y-6156564D01*
X24805466Y-6213935D02*
X24793206Y-6185089D01*
X24816942Y-6243091D02*
X24805466Y-6213935D01*
X24827607Y-6272545D02*
X24816942Y-6243091D01*
X24837432Y-6302285D02*
X24827607Y-6272545D01*
X24846391Y-6332298D02*
X24837432Y-6302285D01*
X24854456Y-6362572D02*
X24846391Y-6332298D01*
X24861599Y-6393096D02*
X24854456Y-6362572D01*
X24867792Y-6423856D02*
X24861599Y-6393096D01*
X24873009Y-6454842D02*
X24867792Y-6423856D01*
X24873009Y-6454842D02*
X24873009Y-6454842D01*
X24879959Y-6514004D02*
X24873009Y-6454842D01*
X24885465Y-6573258D02*
X24879959Y-6514004D01*
X24889588Y-6632590D02*
X24885465Y-6573258D01*
X24892391Y-6691982D02*
X24889588Y-6632590D01*
X24894278Y-6810883D02*
X24892391Y-6691982D01*
X24891619Y-6929829D02*
X24894278Y-6810883D01*
X24884903Y-7048691D02*
X24891619Y-6929829D01*
X24874623Y-7167338D02*
X24884903Y-7048691D01*
X24861270Y-7285640D02*
X24874623Y-7167338D01*
X24845336Y-7403466D02*
X24861270Y-7285640D01*
X24845336Y-7403466D02*
X24845336Y-7403466D01*
X24801221Y-7656993D02*
X24845336Y-7403466D01*
X24747303Y-7908790D02*
X24801221Y-7656993D01*
X24716595Y-8033856D02*
X24747303Y-7908790D01*
X24683350Y-8158270D02*
X24716595Y-8033856D01*
X24647537Y-8281958D02*
X24683350Y-8158270D01*
X24609128Y-8404847D02*
X24647537Y-8281958D01*
X24568094Y-8526864D02*
X24609128Y-8404847D01*
X24524406Y-8647935D02*
X24568094Y-8526864D01*
X24478034Y-8767987D02*
X24524406Y-8647935D01*
X24428951Y-8886948D02*
X24478034Y-8767987D01*
X24377125Y-9004742D02*
X24428951Y-8886948D01*
X24322530Y-9121298D02*
X24377125Y-9004742D01*
X24265134Y-9236543D02*
X24322530Y-9121298D01*
X24204911Y-9350401D02*
X24265134Y-9236543D01*
X24204911Y-9350401D02*
X24204911Y-9350401D01*
X24131323Y-9479824D02*
X24204911Y-9350401D01*
X24112715Y-9511847D02*
X24131323Y-9479824D01*
X24093685Y-9543462D02*
X24112715Y-9511847D01*
X24074064Y-9574530D02*
X24093685Y-9543462D01*
X24053684Y-9604915D02*
X24074064Y-9574530D01*
X24053684Y-9604915D02*
X24053684Y-9604915D01*
X24053684Y-9604915D02*
X24053684Y-9604915D01*
X24053684Y-9604915D02*
X24053684Y-9604915D01*
X24063286Y-9605271D02*
X24053684Y-9604915D01*
X24072759Y-9606099D02*
X24063286Y-9605271D01*
X24082090Y-9607388D02*
X24072759Y-9606099D01*
X24091270Y-9609126D02*
X24082090Y-9607388D01*
X24100285Y-9611302D02*
X24091270Y-9609126D01*
X24109126Y-9613903D02*
X24100285Y-9611302D01*
X24117779Y-9616919D02*
X24109126Y-9613903D01*
X24126234Y-9620338D02*
X24117779Y-9616919D01*
X24134480Y-9624148D02*
X24126234Y-9620338D01*
X24142504Y-9628337D02*
X24134480Y-9624148D01*
X24150295Y-9632895D02*
X24142504Y-9628337D01*
X24157843Y-9637809D02*
X24150295Y-9632895D01*
X24165135Y-9643067D02*
X24157843Y-9637809D01*
X24172159Y-9648659D02*
X24165135Y-9643067D01*
X24178905Y-9654572D02*
X24172159Y-9648659D01*
X24185361Y-9660796D02*
X24178905Y-9654572D01*
X24191516Y-9667317D02*
X24185361Y-9660796D01*
X24197357Y-9674126D02*
X24191516Y-9667317D01*
X24202874Y-9681209D02*
X24197357Y-9674126D01*
X24208055Y-9688556D02*
X24202874Y-9681209D01*
X24212888Y-9696156D02*
X24208055Y-9688556D01*
X24217362Y-9703995D02*
X24212888Y-9696156D01*
X24221467Y-9712063D02*
X24217362Y-9703995D01*
X24225189Y-9720349D02*
X24221467Y-9712063D01*
X24228517Y-9728840D02*
X24225189Y-9720349D01*
X24231441Y-9737525D02*
X24228517Y-9728840D01*
X24233949Y-9746392D02*
X24231441Y-9737525D01*
X24236029Y-9755430D02*
X24233949Y-9746392D01*
X24237669Y-9764628D02*
X24236029Y-9755430D01*
X24238859Y-9773973D02*
X24237669Y-9764628D01*
X24239586Y-9783454D02*
X24238859Y-9773973D01*
X24239840Y-9793059D02*
X24239586Y-9783454D01*
X24239840Y-9793059D02*
X24239840Y-9793059D01*
X24242234Y-11558934D02*
X24239840Y-9793059D01*
X24242234Y-11558934D02*
X24242234Y-11558934D01*
X24241844Y-11575562D02*
X24242234Y-11558934D01*
X24240636Y-11592079D02*
X24241844Y-11575562D01*
X24238622Y-11608456D02*
X24240636Y-11592079D01*
X24235814Y-11624666D02*
X24238622Y-11608456D01*
X24232222Y-11640681D02*
X24235814Y-11624666D01*
X24227858Y-11656475D02*
X24232222Y-11640681D01*
X24222733Y-11672018D02*
X24227858Y-11656475D01*
X24216859Y-11687285D02*
X24222733Y-11672018D01*
X24210247Y-11702246D02*
X24216859Y-11687285D01*
X24202909Y-11716875D02*
X24210247Y-11702246D01*
X24194855Y-11731145D02*
X24202909Y-11716875D01*
X24186097Y-11745027D02*
X24194855Y-11731145D01*
X24176647Y-11758493D02*
X24186097Y-11745027D01*
X24166517Y-11771518D02*
X24176647Y-11758493D01*
X24155716Y-11784072D02*
X24166517Y-11771518D01*
X24144257Y-11796128D02*
X24155716Y-11784072D01*
X24144257Y-11796128D02*
X24144257Y-11796128D01*
X24132215Y-11807602D02*
X24144257Y-11796128D01*
X24119674Y-11818418D02*
X24132215Y-11807602D01*
X24106662Y-11828564D02*
X24119674Y-11818418D01*
X24093206Y-11838030D02*
X24106662Y-11828564D01*
X24079335Y-11846805D02*
X24093206Y-11838030D01*
X24065076Y-11854876D02*
X24079335Y-11846805D01*
X24050455Y-11862232D02*
X24065076Y-11854876D01*
X24035502Y-11868862D02*
X24050455Y-11862232D01*
X24020243Y-11874754D02*
X24035502Y-11868862D01*
X24004705Y-11879898D02*
X24020243Y-11874754D01*
X23988917Y-11884281D02*
X24004705Y-11879898D01*
X23972906Y-11887893D02*
X23988917Y-11884281D01*
X23956700Y-11890721D02*
X23972906Y-11887893D01*
X23940325Y-11892754D02*
X23956700Y-11890721D01*
X23923810Y-11893982D02*
X23940325Y-11892754D01*
X23907182Y-11894392D02*
X23923810Y-11893982D01*
X23907182Y-11894392D02*
X23907182Y-11894392D01*
X21735642Y-11894074D02*
X23907182Y-11894392D01*
X21735642Y-11894074D02*
X21735642Y-11894074D01*
X21720753Y-11893696D02*
X21735642Y-11894074D01*
X21706055Y-11892577D02*
X21720753Y-11893696D01*
X21691566Y-11890735D02*
X21706055Y-11892577D01*
X21677306Y-11888189D02*
X21691566Y-11890735D01*
X21663292Y-11884956D02*
X21677306Y-11888189D01*
X21649543Y-11881056D02*
X21663292Y-11884956D01*
X21636077Y-11876506D02*
X21649543Y-11881056D01*
X21622912Y-11871324D02*
X21636077Y-11876506D01*
X21610066Y-11865529D02*
X21622912Y-11871324D01*
X21597559Y-11859138D02*
X21610066Y-11865529D01*
X21585407Y-11852171D02*
X21597559Y-11859138D01*
X21573630Y-11844644D02*
X21585407Y-11852171D01*
X21562246Y-11836577D02*
X21573630Y-11844644D01*
X21551272Y-11827987D02*
X21562246Y-11836577D01*
X21540728Y-11818892D02*
X21551272Y-11827987D01*
X21530632Y-11809312D02*
X21540728Y-11818892D01*
X21521001Y-11799263D02*
X21530632Y-11809312D01*
X21511855Y-11788765D02*
X21521001Y-11799263D01*
X21503211Y-11777835D02*
X21511855Y-11788765D01*
X21495088Y-11766491D02*
X21503211Y-11777835D01*
X21487504Y-11754752D02*
X21495088Y-11766491D01*
X21480477Y-11742636D02*
X21487504Y-11754752D01*
X21474026Y-11730162D02*
X21480477Y-11742636D01*
X21468169Y-11717346D02*
X21474026Y-11730162D01*
X21462925Y-11704208D02*
X21468169Y-11717346D01*
X21458311Y-11690765D02*
X21462925Y-11704208D01*
X21454345Y-11677036D02*
X21458311Y-11690765D01*
X21451047Y-11663039D02*
X21454345Y-11677036D01*
X21448435Y-11648792D02*
X21451047Y-11663039D01*
X21446526Y-11634313D02*
X21448435Y-11648792D01*
X21445339Y-11619621D02*
X21446526Y-11634313D01*
X21444892Y-11604734D02*
X21445339Y-11619621D01*
X21444892Y-11604734D02*
X21444892Y-11604734D01*
X21437680Y-9925894D02*
X21444892Y-11604734D01*
D11*
X19743497Y-12224712D02*
X19743497Y-12024712D01*
X19791116Y-12024712D01*
X19819688Y-12034236D01*
X19838735Y-12053283D01*
X19848259Y-12072331D01*
X19857783Y-12110426D01*
X19857783Y-12138998D01*
X19848259Y-12177093D01*
X19838735Y-12196140D01*
X19819688Y-12215188D01*
X19791116Y-12224712D01*
X19743497Y-12224712D01*
X19943497Y-12224712D02*
X19943497Y-12091378D01*
X19943497Y-12129474D02*
X19953021Y-12110426D01*
X19962545Y-12100902D01*
X19981592Y-12091378D01*
X20000640Y-12091378D01*
X20067307Y-12224712D02*
X20067307Y-12091378D01*
X20067307Y-12024712D02*
X20057783Y-12034236D01*
X20067307Y-12043759D01*
X20076830Y-12034236D01*
X20067307Y-12024712D01*
X20067307Y-12043759D01*
X20191116Y-12224712D02*
X20172068Y-12215188D01*
X20162545Y-12196140D01*
X20162545Y-12024712D01*
X20295878Y-12224712D02*
X20276830Y-12215188D01*
X20267307Y-12196140D01*
X20267307Y-12024712D01*
X20524449Y-12224712D02*
X20524449Y-12024712D01*
X20591116Y-12167569D01*
X20657783Y-12024712D01*
X20657783Y-12224712D01*
X20838735Y-12224712D02*
X20838735Y-12119950D01*
X20829211Y-12100902D01*
X20810164Y-12091378D01*
X20772068Y-12091378D01*
X20753021Y-12100902D01*
X20838735Y-12215188D02*
X20819688Y-12224712D01*
X20772068Y-12224712D01*
X20753021Y-12215188D01*
X20743497Y-12196140D01*
X20743497Y-12177093D01*
X20753021Y-12158045D01*
X20772068Y-12148521D01*
X20819688Y-12148521D01*
X20838735Y-12138998D01*
X20933973Y-12091378D02*
X20933973Y-12291378D01*
X20933973Y-12100902D02*
X20953021Y-12091378D01*
X20991116Y-12091378D01*
X21010164Y-12100902D01*
X21019688Y-12110426D01*
X21029211Y-12129474D01*
X21029211Y-12186617D01*
X21019688Y-12205664D01*
X21010164Y-12215188D01*
X20991116Y-12224712D01*
X20953021Y-12224712D01*
X20933973Y-12215188D01*
X21114926Y-12205664D02*
X21124449Y-12215188D01*
X21114926Y-12224712D01*
X21105402Y-12215188D01*
X21114926Y-12205664D01*
X21114926Y-12224712D01*
X21114926Y-12100902D02*
X21124449Y-12110426D01*
X21114926Y-12119950D01*
X21105402Y-12110426D01*
X21114926Y-12100902D01*
X21114926Y-12119950D01*
M02*
