%TF.GenerationSoftware,KiCad,Pcbnew,(6.0.10-0)*%
%TF.CreationDate,2023-06-21T21:43:06+02:00*%
%TF.ProjectId,SwiftLeeds,53776966-744c-4656-9564-732e6b696361,rev?*%
%TF.SameCoordinates,Original*%
%TF.FileFunction,Drillmap*%
%TF.FilePolarity,Positive*%
%FSLAX45Y45*%
G04 Gerber Fmt 4.5, Leading zero omitted, Abs format (unit mm)*
G04 Created by KiCad (PCBNEW (6.0.10-0)) date 2023-06-21 21:43:06*
%MOMM*%
%LPD*%
G01*
G04 APERTURE LIST*
%ADD10C,0.264583*%
%ADD11C,0.200000*%
%ADD12C,0.101600*%
G04 APERTURE END LIST*
D10*
X16724384Y-7317746D02*
X16720864Y-7317938D01*
X14492305Y-7267247D02*
X14495228Y-7277110D01*
X14698053Y-6379314D02*
X14713009Y-6385085D01*
X15309262Y-6703392D02*
X15212918Y-6728261D01*
X14612388Y-7415086D02*
X14620125Y-7418878D01*
X17010421Y-7665303D02*
X17003883Y-7584408D01*
X17978314Y-7618182D02*
X18014259Y-7450318D01*
X17855800Y-5488792D02*
X17835620Y-5475364D01*
X14728781Y-7442262D02*
X14756061Y-7442258D01*
X17272560Y-5464345D02*
X17239299Y-5478262D01*
X14685818Y-7439217D02*
X14694354Y-7440447D01*
X18038400Y-6547179D02*
X18031849Y-6527353D01*
X14650336Y-5925300D02*
X14650336Y-5925300D01*
X16827919Y-5373119D02*
X16801487Y-5367515D01*
X16033295Y-6679608D02*
X16020100Y-6674696D01*
X15871841Y-6423684D02*
X15964545Y-6432809D01*
X16770662Y-7499097D02*
X16773666Y-7519969D01*
X16059298Y-6690448D02*
X16046363Y-6684861D01*
X16110221Y-6714014D02*
X16109575Y-6715950D01*
X18054292Y-7202749D02*
X18063194Y-7123881D01*
X18054511Y-6607720D02*
X18049749Y-6587371D01*
X15212918Y-6728261D02*
X15117441Y-6756665D01*
X17036595Y-8702183D02*
X17034740Y-8696000D01*
X14702928Y-7441370D02*
X14711531Y-7441983D01*
X15553274Y-8439986D02*
X15568558Y-8428601D01*
X16747986Y-7312959D02*
X16744767Y-7314127D01*
X17914008Y-6255100D02*
X17928023Y-6226701D01*
X15391533Y-8484627D02*
X15391533Y-8484627D01*
X14965808Y-7898955D02*
X14960551Y-7910365D01*
X15369751Y-8481806D02*
X15380572Y-8483495D01*
X14578168Y-5998357D02*
X14571633Y-6009454D01*
X14794114Y-6886137D02*
X14749764Y-6908706D01*
X16691837Y-5353868D02*
X16663784Y-5351956D01*
X15309262Y-6703392D02*
X15309262Y-6703392D01*
X17024245Y-8587942D02*
X17025006Y-8566836D01*
X16773462Y-7777881D02*
X16766115Y-7845907D01*
X14806922Y-5828834D02*
X14727813Y-5875703D01*
X17436771Y-5415908D02*
X17410013Y-5421352D01*
X14486836Y-7165284D02*
X14485485Y-7175486D01*
X15201442Y-8356200D02*
X15206917Y-8365605D01*
X17239299Y-5478262D02*
X17206468Y-5493192D01*
X17616718Y-8579257D02*
X17616718Y-8579257D01*
X15019874Y-7829577D02*
X15019874Y-7829577D01*
X16762970Y-7303718D02*
X16762970Y-7303718D01*
X14609887Y-5957910D02*
X14601129Y-5967367D01*
X15180220Y-8306278D02*
X15183604Y-8316595D01*
X17953943Y-6168701D02*
X17965700Y-6139150D01*
X15429783Y-8484927D02*
X15448648Y-8482690D01*
X17641903Y-10017193D02*
X17641903Y-10017193D01*
X15073386Y-7439842D02*
X15136581Y-7441777D01*
X17463841Y-5411406D02*
X17436771Y-5415908D01*
X17573807Y-5403814D02*
X17546205Y-5404049D01*
X14620237Y-6982948D02*
X14578351Y-7009937D01*
X16471462Y-8745816D02*
X16471462Y-8745816D01*
X14597343Y-7406714D02*
X14604791Y-7411030D01*
X15984416Y-8337349D02*
X15985609Y-8387170D01*
X17960852Y-6376274D02*
X17949928Y-6358452D01*
X17026390Y-8657708D02*
X17025540Y-8651181D01*
X18002979Y-6017866D02*
X18009492Y-5986900D01*
X15896668Y-6647272D02*
X15859672Y-6644343D01*
X15010174Y-7438752D02*
X15073386Y-7439842D01*
X14538788Y-6120384D02*
X14538100Y-6133354D01*
X15959973Y-7972927D02*
X15959973Y-7972927D01*
X15500000Y-6400000D02*
X15593047Y-6404247D01*
X14919666Y-7438212D02*
X14946959Y-7438489D01*
X14523265Y-7336233D02*
X14528138Y-7343332D01*
X18073170Y-6767383D02*
X18070421Y-6727828D01*
X14727813Y-5875703D02*
X14650336Y-5925300D01*
X17529487Y-8728676D02*
X17542568Y-8707964D01*
X14892387Y-7438496D02*
X14919666Y-7438212D01*
X16111163Y-6709523D02*
X16110746Y-6711863D01*
X15983965Y-8316855D02*
X15984416Y-8337349D01*
X14639420Y-5932607D02*
X14629037Y-5940498D01*
X14985276Y-7866704D02*
X14978171Y-7877091D01*
X14571633Y-6009454D02*
X14565665Y-6020882D01*
X14713009Y-6385085D02*
X14728274Y-6390016D01*
X18049749Y-6587371D02*
X18044372Y-6567188D01*
X16718195Y-8115102D02*
X16701621Y-8181360D01*
X15298957Y-8455767D02*
X15308456Y-8460897D01*
X16731343Y-7317076D02*
X16727879Y-7317464D01*
X16732939Y-8048365D02*
X16718195Y-8115102D01*
X18016449Y-5773928D02*
X18012474Y-5750289D01*
X15139087Y-8248734D02*
X15149473Y-8250538D01*
X14930201Y-6824693D02*
X14884367Y-6844149D01*
X17886197Y-7948887D02*
X17911803Y-7866961D01*
X14620125Y-7418878D02*
X14627991Y-7422402D01*
X14541458Y-6185038D02*
X14543846Y-6197750D01*
X15825479Y-8049069D02*
X15828858Y-8046938D01*
X17025006Y-8566836D02*
X17027002Y-8524615D01*
X17074874Y-5480286D02*
X17051721Y-5466207D01*
X14976817Y-8140973D02*
X14983747Y-8151488D01*
X15985609Y-8387170D02*
X15985994Y-8438171D01*
X15263454Y-8431149D02*
X15271932Y-8437886D01*
X16607578Y-5349810D02*
X16579447Y-5349401D01*
X14507613Y-7096674D02*
X14503454Y-7106050D01*
X17142070Y-5525583D02*
X17120057Y-5510029D01*
X14629037Y-5940498D02*
X14619191Y-5948944D01*
X17874813Y-5503537D02*
X17855800Y-5488792D01*
X15325917Y-7452845D02*
X15388897Y-7458350D01*
X15318180Y-8465583D02*
X15328117Y-8469811D01*
X17735989Y-5429213D02*
X17709723Y-5421537D01*
X15289696Y-8450212D02*
X15298957Y-8455767D01*
X17020112Y-7827097D02*
X17015837Y-7746228D01*
X18014733Y-5955726D02*
X18018629Y-5924370D01*
X15117441Y-6756665D02*
X15023110Y-6788758D01*
X17985080Y-5658056D02*
X17975350Y-5636030D01*
X15779001Y-6415965D02*
X15871841Y-6423684D01*
X15854062Y-8033649D02*
X15857660Y-8031745D01*
X16859289Y-7243984D02*
X16811212Y-7273987D01*
X15500000Y-6400000D02*
X15500000Y-6400000D01*
X16745463Y-7396942D02*
X16751990Y-7417010D01*
X14617708Y-6327690D02*
X14629722Y-6338259D01*
X16717692Y-7332633D02*
X16721336Y-7339933D01*
X17031393Y-8683439D02*
X17029919Y-8677074D01*
X15108399Y-8241011D02*
X15118529Y-8243973D01*
X14503454Y-7106050D02*
X14499687Y-7115599D01*
X14559718Y-6246810D02*
X14565286Y-6258469D01*
X14571502Y-6269821D02*
X14578370Y-6280835D01*
X15206917Y-8365605D02*
X15212774Y-8374778D01*
X15910723Y-6648724D02*
X15896668Y-6647272D01*
X14728274Y-6390016D02*
X14743797Y-6394095D01*
X14955141Y-8095611D02*
X14959652Y-8107379D01*
X15896668Y-6647272D02*
X15896668Y-6647272D01*
X14493340Y-7135137D02*
X14490767Y-7145092D01*
X16905434Y-5396276D02*
X16879901Y-5387555D01*
X16854060Y-5379818D02*
X16827919Y-5373119D01*
X16111486Y-6707016D02*
X16111163Y-6709523D01*
X15984970Y-8747758D02*
X15770833Y-8748789D01*
X16135420Y-5383214D02*
X16058493Y-5395251D01*
X16801487Y-5367515D02*
X16774771Y-5363059D01*
X16663018Y-8312189D02*
X16641004Y-8376636D01*
X17004329Y-5439908D02*
X16980107Y-5427797D01*
X16780650Y-7625372D02*
X16780423Y-7667629D01*
X14538018Y-6146336D02*
X14538548Y-6159299D01*
X15819074Y-8053703D02*
X15822212Y-8051317D01*
X16747779Y-5359805D02*
X16747779Y-5359805D01*
X14791395Y-6401101D02*
X14807432Y-6401654D01*
X14683458Y-6372714D02*
X14698053Y-6379314D01*
X17027002Y-8524615D02*
X17027801Y-8503507D01*
X17025540Y-8651181D02*
X17025540Y-8651181D01*
X17515900Y-8748932D02*
X17515900Y-8748932D01*
X16683226Y-8247076D02*
X16663018Y-8312189D01*
X18070421Y-6727828D02*
X18066751Y-6688325D01*
X17023000Y-7890276D02*
X17020112Y-7827097D01*
X17986437Y-6079075D02*
X17995270Y-6048600D01*
X15905448Y-5424201D02*
X15753631Y-5459313D01*
X15430980Y-7500560D02*
X15410436Y-7536477D01*
X15282266Y-7663417D02*
X15193803Y-7717300D01*
X14547444Y-7037331D02*
X14540627Y-7045009D01*
X15370240Y-7608815D02*
X15282266Y-7663417D01*
X17049741Y-8737564D02*
X17045030Y-8726137D01*
X14538100Y-6133354D02*
X14538018Y-6146336D01*
X15271932Y-8437886D02*
X15280683Y-8444246D01*
X14694354Y-7440447D02*
X14702928Y-7441370D01*
X14565286Y-6258469D02*
X14571502Y-6269821D01*
X14728781Y-7442262D02*
X14728781Y-7442262D01*
X16006784Y-6670134D02*
X15993354Y-6665930D01*
X14627991Y-7422402D02*
X14635975Y-7425655D01*
X17374976Y-5429946D02*
X17357628Y-5434821D01*
X15069355Y-8225202D02*
X15078853Y-8229755D01*
X15348581Y-8476824D02*
X15359084Y-8479577D01*
X16731737Y-7362083D02*
X16734989Y-7369564D01*
X15448648Y-8482690D02*
X15467235Y-8478949D01*
X17024294Y-8630118D02*
X17023935Y-8609037D01*
X14555442Y-6044602D02*
X14551196Y-6056830D01*
X14490767Y-7145092D02*
X14488598Y-7155147D01*
X16720864Y-7317938D02*
X16717324Y-7318056D01*
X14887512Y-5784560D02*
X14806922Y-5828834D01*
X17995270Y-6048600D02*
X18002979Y-6017866D01*
X15527506Y-6661558D02*
X15454327Y-6673612D01*
X15984325Y-8646402D02*
X15984321Y-8697625D01*
X16241505Y-6469867D02*
X16241505Y-6469867D01*
X14953263Y-6396176D02*
X15090212Y-6393944D01*
X16754220Y-7309992D02*
X16751139Y-7311586D01*
X14916763Y-6396853D02*
X14935008Y-6396375D01*
X16523193Y-5349470D02*
X16523193Y-5349470D01*
X17616718Y-8579257D02*
X17656867Y-8503351D01*
X17028203Y-5452730D02*
X17004329Y-5439908D01*
X14499687Y-7115599D02*
X14496314Y-7125300D01*
X15363826Y-6395789D02*
X15500000Y-6400000D01*
X14533281Y-7350222D02*
X14538684Y-7356899D01*
X16955546Y-5416452D02*
X16930652Y-5405926D01*
X15191687Y-8336762D02*
X15196362Y-8346581D01*
X16738114Y-7377099D02*
X16745463Y-7396942D01*
X17033003Y-8689750D02*
X17031393Y-8683439D01*
X15785663Y-6641776D02*
X15748671Y-6642027D01*
X15816085Y-8056247D02*
X15819074Y-8053703D01*
X17938611Y-6340892D02*
X17938611Y-6340892D01*
X16738152Y-7315913D02*
X16734769Y-7316564D01*
X17025515Y-7953485D02*
X17023000Y-7890276D01*
X14992999Y-7856726D02*
X14985276Y-7866704D01*
X17040626Y-8714327D02*
X17036595Y-8702183D01*
X17555255Y-8686887D02*
X17567660Y-8665538D01*
X16367546Y-5357475D02*
X16289969Y-5364275D01*
X17051721Y-5466207D02*
X17028203Y-5452730D01*
X16728370Y-7354654D02*
X16731737Y-7362083D01*
X17928023Y-6226701D02*
X17941359Y-6197892D01*
X14756061Y-7442258D02*
X14783330Y-7441772D01*
X15857660Y-8031745D02*
X15861202Y-8029779D01*
X14512162Y-7087486D02*
X14507613Y-7096674D01*
X14585896Y-6291479D02*
X14585896Y-6291479D01*
X15239780Y-8408833D02*
X15247366Y-8416606D01*
X15159904Y-8251964D02*
X15170357Y-8253013D01*
X17028175Y-8482406D02*
X17028175Y-8482406D01*
X16176861Y-6571073D02*
X16113037Y-6672800D01*
X17028588Y-8670660D02*
X17027409Y-8664202D01*
X15010297Y-7838129D02*
X15001339Y-7847190D01*
X17120057Y-5510029D02*
X17097656Y-5494912D01*
X14506676Y-7305836D02*
X14510368Y-7313727D01*
X14644069Y-7428631D02*
X14652261Y-7431326D01*
X16721336Y-7339933D02*
X16724899Y-7347272D01*
X14951879Y-7933974D02*
X14948464Y-7946105D01*
X14569243Y-7386943D02*
X14575994Y-7392254D01*
X14955908Y-7922049D02*
X14951879Y-7933974D01*
X15813264Y-8058968D02*
X15816085Y-8056247D01*
X14978171Y-7877091D02*
X14971682Y-7887852D01*
X18058640Y-6628227D02*
X18054511Y-6607720D01*
X15828858Y-8046938D02*
X15832330Y-8044905D01*
X14884367Y-6844149D02*
X14838993Y-6864624D01*
X15098396Y-8237656D02*
X15108399Y-8241011D01*
X14971682Y-7887852D02*
X14965808Y-7898955D01*
X17761783Y-5438383D02*
X17735989Y-5429213D01*
X14538684Y-7356899D02*
X14544336Y-7363359D01*
X15255261Y-8424050D02*
X15263454Y-8431149D01*
X14498595Y-7286841D02*
X14502410Y-7296422D01*
X15060066Y-8220243D02*
X15069355Y-8225202D01*
X17975350Y-5636030D02*
X17964466Y-5614598D01*
X14517096Y-7078505D02*
X14512162Y-7087486D01*
X17020112Y-7827097D02*
X17020112Y-7827097D01*
X16727879Y-7317464D02*
X16724384Y-7317746D01*
X18019278Y-5797618D02*
X18019278Y-5797618D01*
X16879901Y-5387555D02*
X16854060Y-5379818D01*
X16747779Y-5359805D02*
X16719839Y-5356455D01*
X14578370Y-6280835D02*
X14585896Y-6291479D01*
X17952424Y-5593850D02*
X17939225Y-5573877D01*
X17027801Y-8503507D02*
X17028175Y-8482406D01*
X14544457Y-6081865D02*
X14541971Y-6094608D01*
X15631074Y-8357323D02*
X15640251Y-8340656D01*
X17546205Y-5404049D02*
X17518629Y-5405426D01*
X17911803Y-7866961D02*
X17935678Y-7784502D01*
X17829715Y-8110946D02*
X17858841Y-8030232D01*
X15640251Y-8340656D02*
X15640251Y-8340656D01*
X15187430Y-8326762D02*
X15191687Y-8336762D01*
X15308456Y-8460897D02*
X15318180Y-8465583D01*
X16955051Y-7183364D02*
X16955051Y-7183364D01*
X15839477Y-8041053D02*
X15854062Y-8033649D01*
X14540080Y-6107458D02*
X14538788Y-6120384D01*
X14969431Y-5742751D02*
X14887512Y-5784560D01*
X14783330Y-7441772D02*
X14837855Y-7440053D01*
X16109575Y-6715950D02*
X16109575Y-6715950D01*
X15451786Y-7464793D02*
X15451786Y-7464793D01*
X17027409Y-8664202D02*
X17026390Y-8657708D01*
X14484994Y-7226832D02*
X14486171Y-7237045D01*
X14991281Y-8161607D02*
X14999418Y-8171295D01*
X17340392Y-5440060D02*
X17306255Y-5451569D01*
X17909344Y-5536616D02*
X17892661Y-5519508D01*
X15401136Y-8485319D02*
X15410719Y-8485594D01*
X14534181Y-7052984D02*
X14528108Y-7061236D01*
X15388897Y-7458350D02*
X15451786Y-7464793D01*
X15832330Y-8044905D02*
X15835875Y-8042950D01*
X17030651Y-8179682D02*
X17029001Y-8078503D01*
X17174061Y-5509008D02*
X17142070Y-5525583D01*
X17027551Y-8016352D02*
X17025515Y-7953485D01*
X15601010Y-6651982D02*
X15527506Y-6661558D01*
X14487779Y-7247197D02*
X14489823Y-7257270D01*
X15370240Y-7608815D02*
X15370240Y-7608815D01*
X17971363Y-6394351D02*
X17960852Y-6376274D01*
X14590054Y-7402144D02*
X14597343Y-7406714D01*
X14562175Y-7022934D02*
X14554627Y-7029967D01*
X18044372Y-6567188D02*
X18038400Y-6547179D01*
X16717324Y-7318056D02*
X16710208Y-7318136D01*
X14562692Y-7381394D02*
X14569243Y-7386943D01*
X15019874Y-7829577D02*
X15010297Y-7838129D01*
X14945248Y-8059065D02*
X14947938Y-8071420D01*
X16072092Y-6696358D02*
X16059298Y-6690448D01*
X15485465Y-8473770D02*
X15503263Y-8467219D01*
X18043669Y-7281300D02*
X18054292Y-7202749D01*
X14941692Y-8034002D02*
X14943166Y-8046581D01*
X16445295Y-5352523D02*
X16367546Y-5357475D01*
X15503263Y-8467219D02*
X15520548Y-8459361D01*
X17766078Y-8270287D02*
X17798801Y-8190981D01*
X17683057Y-5415305D02*
X17656061Y-5410467D01*
X18017089Y-6488279D02*
X18008915Y-6469048D01*
X14935008Y-6396375D02*
X14953263Y-6396176D01*
X16996243Y-7503629D02*
X16987521Y-7423050D01*
X14976460Y-6806235D02*
X14930201Y-6824693D01*
X17029919Y-8677074D02*
X17028588Y-8670660D01*
X14560266Y-6032609D02*
X14555442Y-6044602D01*
X15088540Y-8233905D02*
X15098396Y-8237656D01*
X14642357Y-6348057D02*
X14655558Y-6357074D01*
X14711531Y-7441983D02*
X14720152Y-7442282D01*
X15822667Y-6642529D02*
X15785663Y-6641776D01*
X18031849Y-6527353D02*
X18024740Y-6507717D01*
X14662790Y-6957093D02*
X14620237Y-6982948D01*
X14837855Y-7440053D02*
X14892387Y-7438496D01*
X15023110Y-6788758D02*
X14976460Y-6806235D01*
X14585265Y-5987622D02*
X14578168Y-5998357D01*
X16241505Y-6469867D02*
X16209047Y-6520386D01*
X16057079Y-6443465D02*
X16149411Y-6455776D01*
X15822212Y-8051317D02*
X15825479Y-8049069D01*
X16719839Y-5356455D02*
X16691837Y-5353868D01*
X14484247Y-7216577D02*
X14484994Y-7226832D01*
X17709723Y-5421537D02*
X17683057Y-5415305D01*
X15952440Y-6655558D02*
X15938615Y-6652875D01*
X16209047Y-6520386D02*
X16176861Y-6571073D01*
X14601129Y-5967367D02*
X14592920Y-5977281D01*
X18018629Y-5924370D02*
X18021105Y-5892856D01*
X16112115Y-6695812D02*
X16111906Y-6701601D01*
X18024740Y-6507717D02*
X18017089Y-6488279D01*
X18066751Y-6688325D02*
X18062117Y-6648884D01*
X15467235Y-8478949D02*
X15485465Y-8473770D01*
X14518673Y-7328930D02*
X14523265Y-7336233D01*
X15973047Y-8113737D02*
X15978025Y-8185065D01*
X16762736Y-7457732D02*
X16767032Y-7478345D01*
X15149736Y-7744492D02*
X15105967Y-7772130D01*
X14496314Y-7125300D02*
X14493340Y-7135137D01*
X15964545Y-6432809D02*
X16057079Y-6443465D01*
X15770833Y-8748789D02*
X15777670Y-10016928D01*
X15172843Y-8274590D02*
X15174827Y-8285259D01*
X15520548Y-8459361D02*
X15537245Y-8450261D01*
X17899389Y-6283066D02*
X17914008Y-6255100D01*
X15835875Y-8042950D02*
X15839477Y-8041053D01*
X18022088Y-5861209D02*
X18021504Y-5829455D01*
X14964768Y-8118885D02*
X14970490Y-8130094D01*
X17938611Y-6340892D02*
X17933887Y-6333546D01*
X16955051Y-7183364D02*
X16859289Y-7243984D01*
X15864668Y-8027733D02*
X15868041Y-8025585D01*
X17935678Y-7784502D02*
X17957842Y-7701560D01*
X15686058Y-6409528D02*
X15779001Y-6415965D01*
X17034740Y-8696000D02*
X17033003Y-8689750D01*
X15813264Y-8058968D02*
X15813264Y-8058968D01*
X14546862Y-6210315D02*
X14550510Y-6222702D01*
X16987521Y-7423050D02*
X16977735Y-7342756D01*
X15170357Y-8253013D02*
X15171349Y-8263836D01*
X18001079Y-5703527D02*
X17993655Y-5680585D01*
X14629722Y-6338259D02*
X14642357Y-6348057D01*
X15051009Y-8214875D02*
X15060066Y-8220243D01*
X16617194Y-8440353D02*
X16591593Y-8503279D01*
X16663784Y-5351956D02*
X16635694Y-5350633D01*
X15280683Y-8444246D02*
X15289696Y-8450212D01*
X15359084Y-8479577D02*
X15369751Y-8481806D01*
X15777670Y-10016928D02*
X17641903Y-10017193D01*
X17567660Y-8665538D02*
X17616718Y-8579257D01*
X17695131Y-8426521D02*
X17731528Y-8348817D01*
X14554627Y-7029967D02*
X14547444Y-7037331D01*
X15328117Y-8469811D02*
X15338254Y-8473563D01*
X15753631Y-5459313D02*
X15603222Y-5500177D01*
X14720152Y-7442282D02*
X14728781Y-7442262D01*
X17957842Y-7701560D02*
X17978314Y-7618182D01*
X15985994Y-8438171D02*
X15985315Y-8542197D01*
X15221637Y-5630788D02*
X15136645Y-5665996D01*
X16641004Y-8376636D02*
X16617194Y-8440353D01*
X15025427Y-8196283D02*
X15033668Y-8202898D01*
X14604791Y-7411030D02*
X14612388Y-7415086D01*
X14999418Y-8171295D02*
X15008157Y-8180519D01*
X14759526Y-6397309D02*
X14775409Y-6399649D01*
X14652261Y-7431326D02*
X14660542Y-7433737D01*
X17030939Y-8281362D02*
X17030651Y-8179682D01*
X17892661Y-5519508D02*
X17874813Y-5503537D01*
X18000237Y-6450032D02*
X17991074Y-6431238D01*
X17024792Y-8640652D02*
X17024294Y-8630118D01*
X15583019Y-8416172D02*
X15596578Y-8402764D01*
X17811669Y-5461408D02*
X17787033Y-5449098D01*
X17991074Y-6431238D02*
X17981443Y-6412675D01*
X14743797Y-6394095D02*
X14759526Y-6397309D01*
X15748671Y-6642027D02*
X15711699Y-6643229D01*
X14947938Y-8071420D02*
X14951236Y-8083614D01*
X17919341Y-6311750D02*
X17909416Y-6297370D01*
X17993655Y-5680585D02*
X17985080Y-5658056D01*
X14940573Y-8008693D02*
X14940828Y-8021361D01*
X17045030Y-8726137D02*
X17040626Y-8714327D01*
X15451786Y-7464793D02*
X15430980Y-7500560D01*
X14705978Y-6932352D02*
X14662790Y-6957093D01*
X15609160Y-8388442D02*
X15620684Y-8373274D01*
X14943472Y-7970855D02*
X14941894Y-7983406D01*
X17981443Y-6412675D02*
X17971363Y-6394351D01*
X16113037Y-6672800D02*
X16112770Y-6675410D01*
X14506676Y-7305836D02*
X14506676Y-7305836D01*
X14941894Y-7983406D02*
X14940928Y-7996030D01*
X15390180Y-7572558D02*
X15370240Y-7608815D01*
X16113037Y-6672800D02*
X16113037Y-6672800D01*
X17964466Y-5614598D02*
X17952424Y-5593850D01*
X17097656Y-5494912D02*
X17074874Y-5480286D01*
X15537245Y-8450261D02*
X15553274Y-8439986D01*
X17835620Y-5475364D02*
X17835620Y-5475364D01*
X15128765Y-8246547D02*
X15139087Y-8248734D01*
X17656867Y-8503351D02*
X17695131Y-8426521D01*
X14489823Y-7257270D02*
X14492305Y-7267247D01*
X17030051Y-8382589D02*
X17030939Y-8281362D01*
X18021504Y-5829455D02*
X18019278Y-5797618D01*
X15174827Y-8285259D02*
X15177290Y-8295827D01*
X15620684Y-8373274D02*
X15631074Y-8357323D01*
X14502410Y-7296422D02*
X14506676Y-7305836D01*
X16535058Y-8626506D02*
X16504138Y-8686682D01*
X17949928Y-6358452D02*
X17938611Y-6340892D01*
X14880301Y-6398366D02*
X14916763Y-6396853D01*
X16756908Y-7913705D02*
X16745846Y-7981212D01*
X16774771Y-5363059D02*
X16747779Y-5359805D01*
X17206468Y-5493192D02*
X17174061Y-5509008D01*
X15978025Y-8185065D02*
X15981884Y-8256372D01*
X16767032Y-7478345D02*
X16770662Y-7499097D01*
X15171349Y-8263836D02*
X15172843Y-8274590D01*
X14953263Y-6396176D02*
X14953263Y-6396176D01*
X16212586Y-5372872D02*
X16135420Y-5383214D01*
X16591593Y-8503279D02*
X16564212Y-8565351D01*
X14749764Y-6908706D02*
X14705978Y-6932352D01*
X15199745Y-7444578D02*
X15262862Y-7448261D01*
X17491150Y-5407895D02*
X17463841Y-5411406D01*
X17929095Y-6326244D02*
X17919341Y-6311750D01*
X15682730Y-8270247D02*
X15725891Y-8199971D01*
X14943166Y-8046581D02*
X14945248Y-8059065D01*
X18063194Y-7123881D02*
X18070047Y-7044783D01*
X17641903Y-10017193D02*
X17639837Y-8750417D01*
X15410436Y-7536477D02*
X15390180Y-7572558D01*
X17835620Y-5475364D02*
X17811669Y-5461408D01*
X14585896Y-6291479D02*
X14595743Y-6304289D01*
X15078853Y-8229755D02*
X15088540Y-8233905D01*
X18075039Y-6806977D02*
X18073170Y-6767383D01*
X17142070Y-5525583D02*
X17142070Y-5525583D01*
X16046363Y-6684861D02*
X16033295Y-6679608D01*
X17029001Y-8078503D02*
X17029001Y-8078503D01*
X15247366Y-8416606D02*
X15255261Y-8424050D01*
X16111729Y-6704367D02*
X16111486Y-6707016D01*
X16084741Y-6702585D02*
X16072092Y-6696358D01*
X16579447Y-5349401D02*
X16523193Y-5349470D01*
X14650336Y-5925300D02*
X14639420Y-5932607D01*
X16766115Y-7845907D02*
X16756908Y-7913705D01*
X15725891Y-8199971D02*
X15813264Y-8058968D01*
X14951236Y-8083614D02*
X14955141Y-8095611D01*
X17029001Y-8078503D02*
X17027551Y-8016352D01*
X18062117Y-6648884D02*
X18062117Y-6648884D01*
X15380572Y-8483495D02*
X15391533Y-8484627D01*
X14528108Y-7061236D02*
X14522412Y-7069749D01*
X16504138Y-8686682D02*
X16471462Y-8745816D01*
X15001339Y-7847190D02*
X14992999Y-7856726D01*
X16289969Y-5364275D02*
X16212586Y-5372872D01*
X15136581Y-7441777D02*
X15199745Y-7444578D01*
X14550228Y-7369598D02*
X14556350Y-7375611D01*
X14488598Y-7155147D02*
X14486836Y-7165284D01*
X15149473Y-8250538D02*
X15159904Y-8251964D01*
X15568558Y-8428601D02*
X15583019Y-8416172D01*
X17601365Y-5404772D02*
X17573807Y-5403814D01*
X17518629Y-5405426D02*
X17491150Y-5407895D01*
X15966175Y-6658634D02*
X15952440Y-6655558D01*
X16751139Y-7311586D02*
X16747986Y-7312959D01*
X14669276Y-6365296D02*
X14683458Y-6372714D01*
X15090212Y-6393944D02*
X15227148Y-6393792D01*
X17003883Y-7584408D02*
X16996243Y-7503629D01*
X14486171Y-7237045D02*
X14487779Y-7247197D01*
X16724899Y-7347272D02*
X16728370Y-7354654D01*
X14635975Y-7425655D02*
X14644069Y-7428631D01*
X16635694Y-5350633D02*
X16607578Y-5349810D01*
X15391533Y-8484627D02*
X15401136Y-8485319D01*
X14528138Y-7343332D02*
X14533281Y-7350222D01*
X16744767Y-7314127D02*
X16741487Y-7315106D01*
X16778938Y-7709688D02*
X16778938Y-7709688D01*
X18062117Y-6648884D02*
X18058640Y-6628227D01*
X14946959Y-7438489D02*
X14946959Y-7438489D01*
X18070047Y-7044783D02*
X18074524Y-6965542D01*
X15984321Y-8697625D02*
X15984970Y-8747758D01*
X14838993Y-6864624D02*
X14794114Y-6886137D01*
X15983303Y-8295757D02*
X15983965Y-8316855D01*
X18019278Y-5797618D02*
X18016449Y-5773928D01*
X15861202Y-8029779D02*
X15864668Y-8027733D01*
X16564212Y-8565351D02*
X16535058Y-8626506D01*
X14959652Y-8107379D02*
X14964768Y-8118885D01*
X17639837Y-8750417D02*
X17639837Y-8750417D01*
X15859672Y-6644343D02*
X15822667Y-6642529D01*
X15914109Y-7999434D02*
X15959973Y-7972927D01*
X16966905Y-7262832D02*
X16955051Y-7183364D01*
X15017498Y-8189245D02*
X15025427Y-8196283D01*
X18008915Y-6469048D02*
X18000237Y-6450032D01*
X16149411Y-6455776D02*
X16241505Y-6469867D01*
X14946959Y-7438489D02*
X15010174Y-7438752D01*
X14547533Y-6069262D02*
X14544457Y-6081865D01*
X15118529Y-8243973D02*
X15128765Y-8246547D01*
X15033668Y-8202898D02*
X15042202Y-8209095D01*
X14655558Y-6357074D02*
X14669276Y-6365296D01*
X14940828Y-8021361D02*
X14941692Y-8034002D01*
X16761567Y-7304931D02*
X16760141Y-7306075D01*
X15454402Y-5546381D02*
X15307350Y-5597517D01*
X14541971Y-6094608D02*
X14540080Y-6107458D01*
X15193803Y-7717300D02*
X15149736Y-7744492D01*
X16762970Y-7303718D02*
X16761567Y-7304931D01*
X17542568Y-8707964D02*
X17555255Y-8686887D01*
X16020100Y-6674696D02*
X16006784Y-6670134D01*
X15593047Y-6404247D02*
X15686058Y-6409528D01*
X15640251Y-8340656D02*
X15682730Y-8270247D01*
X18012474Y-5750289D02*
X18007351Y-5726792D01*
X14948464Y-7946105D02*
X14945661Y-7958410D01*
X16741487Y-7315106D02*
X16738152Y-7315913D01*
X14543846Y-6197750D02*
X14546862Y-6210315D01*
X17410013Y-5421352D02*
X17392437Y-5425451D01*
X16751990Y-7417010D02*
X16757735Y-7437280D01*
X18009492Y-5986900D02*
X18014733Y-5955726D01*
X15993354Y-6665930D02*
X15979816Y-6662094D01*
X17933887Y-6333546D02*
X17929095Y-6326244D01*
X16930652Y-5405926D02*
X16905434Y-5396276D01*
X14945661Y-7958410D02*
X14943472Y-7970855D01*
X14550510Y-6222702D02*
X14554794Y-6234877D01*
X17410013Y-5421352D02*
X17410013Y-5421352D01*
X14660542Y-7433737D02*
X14668902Y-7435858D01*
X15105967Y-7772130D02*
X15062633Y-7800422D01*
X15984416Y-8337349D02*
X15984416Y-8337349D01*
X16111906Y-6701601D02*
X16111729Y-6704367D01*
X15052526Y-5703273D02*
X14969431Y-5742751D01*
X17025540Y-8651181D02*
X17024792Y-8640652D01*
X17028175Y-8482406D02*
X17030051Y-8382589D01*
X16757222Y-7308161D02*
X16754220Y-7309992D01*
X15868041Y-8025585D02*
X15868041Y-8025585D01*
X17858841Y-8030232D02*
X17886197Y-7948887D01*
X15136645Y-5665996D02*
X15052526Y-5703273D01*
X15596578Y-8402764D02*
X15609160Y-8388442D01*
X14578351Y-7009937D02*
X14578351Y-7009937D01*
X16980107Y-5427797D02*
X16955546Y-5416452D01*
X15410719Y-8485594D02*
X15429783Y-8484927D01*
X18043669Y-7281300D02*
X18043669Y-7281300D01*
X14983747Y-8151488D02*
X14991281Y-8161607D01*
X15262862Y-7448261D02*
X15325917Y-7452845D01*
X15711699Y-6643229D02*
X15674758Y-6645325D01*
X14578351Y-7009937D02*
X14570084Y-7016252D01*
X16811212Y-7273987D02*
X16762970Y-7303718D01*
X14592920Y-5977281D02*
X14585265Y-5987622D01*
X15177290Y-8295827D02*
X15180220Y-8306278D01*
X14668902Y-7435858D02*
X14677331Y-7437687D01*
X16471462Y-8745816D02*
X17054690Y-8748563D01*
X18014259Y-7450318D02*
X18043669Y-7281300D01*
X16112574Y-6678144D02*
X16112339Y-6683890D01*
X17941359Y-6197892D02*
X17953943Y-6168701D01*
X15603222Y-5500177D02*
X15454402Y-5546381D01*
X14551196Y-6056830D02*
X14547533Y-6069262D01*
X15225586Y-8392366D02*
X15232516Y-8400747D01*
X14540627Y-7045009D02*
X14534181Y-7052984D01*
X15967010Y-8042865D02*
X15973047Y-8113737D01*
X16112770Y-6675410D02*
X16112574Y-6678144D01*
X14570084Y-7016252D02*
X14562175Y-7022934D01*
X14940928Y-7996030D02*
X14940573Y-8008693D01*
X15981884Y-8256372D02*
X15983303Y-8295757D01*
X14606364Y-6316363D02*
X14617708Y-6327690D01*
X16738114Y-7377099D02*
X16738114Y-7377099D01*
X14582934Y-7397322D02*
X14590054Y-7402144D01*
X14510368Y-7313727D02*
X14514370Y-7321427D01*
X17515900Y-8748932D02*
X17529487Y-8728676D01*
X17054690Y-8748563D02*
X17049741Y-8737564D01*
X15183604Y-8316595D02*
X15187430Y-8326762D01*
X16058493Y-5395251D02*
X15905448Y-5424201D01*
X16977735Y-7342756D02*
X16966905Y-7262832D01*
X17939225Y-5573877D02*
X17924865Y-5554769D01*
X14970490Y-8130094D02*
X14976817Y-8140973D01*
X14522412Y-7069749D02*
X14517096Y-7078505D01*
X15062633Y-7800422D02*
X15019874Y-7829577D01*
X15777670Y-10016928D02*
X15777670Y-10016928D01*
X18021105Y-5892856D02*
X18022088Y-5861209D01*
X16110746Y-6711863D02*
X16110221Y-6714014D01*
X17015837Y-7746228D02*
X17010421Y-7665303D01*
X14775409Y-6399649D02*
X14791395Y-6401101D01*
X17731528Y-8348817D02*
X17766078Y-8270287D01*
X15868041Y-8025585D02*
X15914109Y-7999434D01*
X18007351Y-5726792D02*
X18001079Y-5703527D01*
X14514370Y-7321427D02*
X14518673Y-7328930D01*
X14960551Y-7910365D02*
X14955908Y-7922049D01*
X16773666Y-7519969D02*
X16776082Y-7540938D01*
X16710208Y-7318136D02*
X16710208Y-7318136D01*
X15981884Y-8256372D02*
X15981884Y-8256372D01*
X17392437Y-5425451D02*
X17374976Y-5429946D01*
X15212774Y-8374778D02*
X15225586Y-8392366D01*
X16778938Y-7709688D02*
X16773462Y-7777881D01*
X15227148Y-6393792D02*
X15363826Y-6395789D01*
X16777950Y-7561984D02*
X16779307Y-7583085D01*
X15307350Y-5597517D02*
X15221637Y-5630788D01*
X16523193Y-5349470D02*
X16445295Y-5352523D01*
X17787033Y-5449098D02*
X17761783Y-5438383D01*
X14538548Y-6159299D02*
X14539693Y-6172210D01*
X15307350Y-5597517D02*
X15307350Y-5597517D01*
X16710208Y-7318136D02*
X16717692Y-7332633D01*
X15042202Y-8209095D02*
X15051009Y-8214875D01*
X14677331Y-7437687D02*
X14685818Y-7439217D01*
X17798801Y-8190981D02*
X17829715Y-8110946D01*
X16780423Y-7667629D02*
X16778938Y-7709688D01*
X15984970Y-8747758D02*
X15984970Y-8747758D01*
X17639837Y-8750417D02*
X17515900Y-8748932D01*
X14556350Y-7375611D02*
X14562692Y-7381394D01*
X14539693Y-6172210D02*
X14541458Y-6185038D01*
X17976556Y-6109267D02*
X17986437Y-6079075D01*
X14807432Y-6401654D02*
X14807432Y-6401654D01*
X16760141Y-7306075D02*
X16757222Y-7308161D01*
X18076297Y-6886244D02*
X18075039Y-6806977D01*
X16757735Y-7437280D02*
X16762736Y-7457732D01*
X15674758Y-6645325D02*
X15601010Y-6651982D01*
X16701621Y-8181360D02*
X16683226Y-8247076D01*
X17023935Y-8609037D02*
X17024245Y-8587942D01*
X14565665Y-6020882D02*
X14560266Y-6032609D01*
X14495228Y-7277110D02*
X14498595Y-7286841D01*
X16734769Y-7316564D02*
X16731343Y-7317076D01*
X15196362Y-8346581D02*
X15201442Y-8356200D01*
X14484547Y-7185734D02*
X14484027Y-7196010D01*
X17899389Y-6283066D02*
X17899389Y-6283066D01*
X16779307Y-7583085D02*
X16780650Y-7625372D01*
X18074524Y-6965542D02*
X18076297Y-6886244D01*
X14575994Y-7392254D02*
X14582934Y-7397322D01*
X14843862Y-6400153D02*
X14880301Y-6398366D01*
X14554794Y-6234877D02*
X14559718Y-6246810D01*
X17924865Y-5554769D02*
X17909344Y-5536616D01*
X15008157Y-8180519D02*
X15017498Y-8189245D01*
X16776082Y-7540938D02*
X16777950Y-7561984D01*
X15454327Y-6673612D02*
X15381552Y-6687703D01*
X16734989Y-7369564D02*
X16738114Y-7377099D01*
X16745846Y-7981212D02*
X16732939Y-8048365D01*
X15924707Y-6650594D02*
X15910723Y-6648724D01*
X14485485Y-7175486D02*
X14484547Y-7185734D01*
X17357628Y-5434821D02*
X17340392Y-5440060D01*
X14484027Y-7196010D02*
X14483925Y-7206297D01*
X17909416Y-6297370D02*
X17899389Y-6283066D01*
X14807432Y-6401654D02*
X14843862Y-6400153D01*
X15979816Y-6662094D02*
X15966175Y-6658634D01*
X16097238Y-6709118D02*
X16084741Y-6702585D01*
X15338254Y-8473563D02*
X15348581Y-8476824D01*
X14595743Y-6304289D02*
X14606364Y-6316363D01*
X15170357Y-8253013D02*
X15170357Y-8253013D01*
X17965700Y-6139150D02*
X17976556Y-6109267D01*
X15959973Y-7972927D02*
X15967010Y-8042865D01*
X16112339Y-6683890D02*
X16112115Y-6695812D01*
X17306255Y-5451569D02*
X17272560Y-5464345D01*
X17628807Y-5406973D02*
X17601365Y-5404772D01*
X15232516Y-8400747D02*
X15239780Y-8408833D01*
X15017498Y-8189245D02*
X15017498Y-8189245D01*
X15381552Y-6687703D02*
X15309262Y-6703392D01*
X14619191Y-5948944D02*
X14609887Y-5957910D01*
X14483925Y-7206297D02*
X14484247Y-7216577D01*
X16109575Y-6715950D02*
X16097238Y-6709118D01*
X17656061Y-5410467D02*
X17628807Y-5406973D01*
X14544336Y-7363359D02*
X14550228Y-7369598D01*
X15985315Y-8542197D02*
X15984325Y-8646402D01*
X15938615Y-6652875D02*
X15924707Y-6650594D01*
D11*
D12*
X16401200Y-9224200D02*
X16502800Y-9325800D01*
X16502800Y-9224200D02*
X16401200Y-9325800D01*
X16401200Y-9478200D02*
X16502800Y-9579800D01*
X16502800Y-9478200D02*
X16401200Y-9579800D01*
X16655200Y-9224200D02*
X16756800Y-9325800D01*
X16756800Y-9224200D02*
X16655200Y-9325800D01*
X16655200Y-9478200D02*
X16756800Y-9579800D01*
X16756800Y-9478200D02*
X16655200Y-9579800D01*
X16909200Y-9224200D02*
X17010800Y-9325800D01*
X17010800Y-9224200D02*
X16909200Y-9325800D01*
X16909200Y-9478200D02*
X17010800Y-9579800D01*
X17010800Y-9478200D02*
X16909200Y-9579800D01*
D11*
X14728315Y-10340898D02*
X14728315Y-10140898D01*
X14775934Y-10140898D01*
X14804506Y-10150422D01*
X14823553Y-10169470D01*
X14833077Y-10188517D01*
X14842601Y-10226612D01*
X14842601Y-10255184D01*
X14833077Y-10293279D01*
X14823553Y-10312327D01*
X14804506Y-10331374D01*
X14775934Y-10340898D01*
X14728315Y-10340898D01*
X14928315Y-10340898D02*
X14928315Y-10207565D01*
X14928315Y-10245660D02*
X14937839Y-10226612D01*
X14947363Y-10217089D01*
X14966410Y-10207565D01*
X14985458Y-10207565D01*
X15052125Y-10340898D02*
X15052125Y-10207565D01*
X15052125Y-10140898D02*
X15042601Y-10150422D01*
X15052125Y-10159946D01*
X15061649Y-10150422D01*
X15052125Y-10140898D01*
X15052125Y-10159946D01*
X15175934Y-10340898D02*
X15156887Y-10331374D01*
X15147363Y-10312327D01*
X15147363Y-10140898D01*
X15280696Y-10340898D02*
X15261649Y-10331374D01*
X15252125Y-10312327D01*
X15252125Y-10140898D01*
X15509268Y-10340898D02*
X15509268Y-10140898D01*
X15575934Y-10283755D01*
X15642601Y-10140898D01*
X15642601Y-10340898D01*
X15823553Y-10340898D02*
X15823553Y-10236136D01*
X15814030Y-10217089D01*
X15794982Y-10207565D01*
X15756887Y-10207565D01*
X15737839Y-10217089D01*
X15823553Y-10331374D02*
X15804506Y-10340898D01*
X15756887Y-10340898D01*
X15737839Y-10331374D01*
X15728315Y-10312327D01*
X15728315Y-10293279D01*
X15737839Y-10274231D01*
X15756887Y-10264708D01*
X15804506Y-10264708D01*
X15823553Y-10255184D01*
X15918791Y-10207565D02*
X15918791Y-10407565D01*
X15918791Y-10217089D02*
X15937839Y-10207565D01*
X15975934Y-10207565D01*
X15994982Y-10217089D01*
X16004506Y-10226612D01*
X16014030Y-10245660D01*
X16014030Y-10302803D01*
X16004506Y-10321850D01*
X15994982Y-10331374D01*
X15975934Y-10340898D01*
X15937839Y-10340898D01*
X15918791Y-10331374D01*
X16099744Y-10321850D02*
X16109268Y-10331374D01*
X16099744Y-10340898D01*
X16090220Y-10331374D01*
X16099744Y-10321850D01*
X16099744Y-10340898D01*
X16099744Y-10217089D02*
X16109268Y-10226612D01*
X16099744Y-10236136D01*
X16090220Y-10226612D01*
X16099744Y-10217089D01*
X16099744Y-10236136D01*
D12*
X14369096Y-10619622D02*
X14470696Y-10721222D01*
X14470696Y-10619622D02*
X14369096Y-10721222D01*
D11*
X14833077Y-10760898D02*
X14718791Y-10760898D01*
X14775934Y-10760898D02*
X14775934Y-10560898D01*
X14756887Y-10589470D01*
X14737839Y-10608517D01*
X14718791Y-10618041D01*
X14918791Y-10741850D02*
X14928315Y-10751374D01*
X14918791Y-10760898D01*
X14909268Y-10751374D01*
X14918791Y-10741850D01*
X14918791Y-10760898D01*
X15052125Y-10560898D02*
X15071172Y-10560898D01*
X15090220Y-10570422D01*
X15099744Y-10579946D01*
X15109268Y-10598993D01*
X15118791Y-10637089D01*
X15118791Y-10684708D01*
X15109268Y-10722803D01*
X15099744Y-10741850D01*
X15090220Y-10751374D01*
X15071172Y-10760898D01*
X15052125Y-10760898D01*
X15033077Y-10751374D01*
X15023553Y-10741850D01*
X15014030Y-10722803D01*
X15004506Y-10684708D01*
X15004506Y-10637089D01*
X15014030Y-10598993D01*
X15023553Y-10579946D01*
X15033077Y-10570422D01*
X15052125Y-10560898D01*
X15309268Y-10760898D02*
X15194982Y-10760898D01*
X15252125Y-10760898D02*
X15252125Y-10560898D01*
X15233077Y-10589470D01*
X15214030Y-10608517D01*
X15194982Y-10618041D01*
X15480696Y-10560898D02*
X15442601Y-10560898D01*
X15423553Y-10570422D01*
X15414030Y-10579946D01*
X15394982Y-10608517D01*
X15385458Y-10646612D01*
X15385458Y-10722803D01*
X15394982Y-10741850D01*
X15404506Y-10751374D01*
X15423553Y-10760898D01*
X15461649Y-10760898D01*
X15480696Y-10751374D01*
X15490220Y-10741850D01*
X15499744Y-10722803D01*
X15499744Y-10675184D01*
X15490220Y-10656136D01*
X15480696Y-10646612D01*
X15461649Y-10637089D01*
X15423553Y-10637089D01*
X15404506Y-10646612D01*
X15394982Y-10656136D01*
X15385458Y-10675184D01*
X15585458Y-10760898D02*
X15585458Y-10627565D01*
X15585458Y-10646612D02*
X15594982Y-10637089D01*
X15614030Y-10627565D01*
X15642601Y-10627565D01*
X15661649Y-10637089D01*
X15671172Y-10656136D01*
X15671172Y-10760898D01*
X15671172Y-10656136D02*
X15680696Y-10637089D01*
X15699744Y-10627565D01*
X15728315Y-10627565D01*
X15747363Y-10637089D01*
X15756887Y-10656136D01*
X15756887Y-10760898D01*
X15852125Y-10760898D02*
X15852125Y-10627565D01*
X15852125Y-10646612D02*
X15861649Y-10637089D01*
X15880696Y-10627565D01*
X15909268Y-10627565D01*
X15928315Y-10637089D01*
X15937839Y-10656136D01*
X15937839Y-10760898D01*
X15937839Y-10656136D02*
X15947363Y-10637089D01*
X15966410Y-10627565D01*
X15994982Y-10627565D01*
X16014030Y-10637089D01*
X16023553Y-10656136D01*
X16023553Y-10760898D01*
X16414030Y-10551374D02*
X16242601Y-10808517D01*
X16671172Y-10560898D02*
X16690220Y-10560898D01*
X16709268Y-10570422D01*
X16718791Y-10579946D01*
X16728315Y-10598993D01*
X16737839Y-10637089D01*
X16737839Y-10684708D01*
X16728315Y-10722803D01*
X16718791Y-10741850D01*
X16709268Y-10751374D01*
X16690220Y-10760898D01*
X16671172Y-10760898D01*
X16652125Y-10751374D01*
X16642601Y-10741850D01*
X16633077Y-10722803D01*
X16623553Y-10684708D01*
X16623553Y-10637089D01*
X16633077Y-10598993D01*
X16642601Y-10579946D01*
X16652125Y-10570422D01*
X16671172Y-10560898D01*
X16823553Y-10741850D02*
X16833077Y-10751374D01*
X16823553Y-10760898D01*
X16814030Y-10751374D01*
X16823553Y-10741850D01*
X16823553Y-10760898D01*
X16956887Y-10560898D02*
X16975934Y-10560898D01*
X16994982Y-10570422D01*
X17004506Y-10579946D01*
X17014030Y-10598993D01*
X17023553Y-10637089D01*
X17023553Y-10684708D01*
X17014030Y-10722803D01*
X17004506Y-10741850D01*
X16994982Y-10751374D01*
X16975934Y-10760898D01*
X16956887Y-10760898D01*
X16937839Y-10751374D01*
X16928315Y-10741850D01*
X16918792Y-10722803D01*
X16909268Y-10684708D01*
X16909268Y-10637089D01*
X16918792Y-10598993D01*
X16928315Y-10579946D01*
X16937839Y-10570422D01*
X16956887Y-10560898D01*
X17194982Y-10627565D02*
X17194982Y-10760898D01*
X17147363Y-10551374D02*
X17099744Y-10694231D01*
X17223553Y-10694231D01*
X17337839Y-10560898D02*
X17356887Y-10560898D01*
X17375934Y-10570422D01*
X17385458Y-10579946D01*
X17394982Y-10598993D01*
X17404506Y-10637089D01*
X17404506Y-10684708D01*
X17394982Y-10722803D01*
X17385458Y-10741850D01*
X17375934Y-10751374D01*
X17356887Y-10760898D01*
X17337839Y-10760898D01*
X17318792Y-10751374D01*
X17309268Y-10741850D01*
X17299744Y-10722803D01*
X17290220Y-10684708D01*
X17290220Y-10637089D01*
X17299744Y-10598993D01*
X17309268Y-10579946D01*
X17318792Y-10570422D01*
X17337839Y-10560898D01*
X17528315Y-10560898D02*
X17547363Y-10560898D01*
X17566411Y-10570422D01*
X17575934Y-10579946D01*
X17585458Y-10598993D01*
X17594982Y-10637089D01*
X17594982Y-10684708D01*
X17585458Y-10722803D01*
X17575934Y-10741850D01*
X17566411Y-10751374D01*
X17547363Y-10760898D01*
X17528315Y-10760898D01*
X17509268Y-10751374D01*
X17499744Y-10741850D01*
X17490220Y-10722803D01*
X17480696Y-10684708D01*
X17480696Y-10637089D01*
X17490220Y-10598993D01*
X17499744Y-10579946D01*
X17509268Y-10570422D01*
X17528315Y-10560898D01*
X17671172Y-10560898D02*
X17671172Y-10598993D01*
X17747363Y-10560898D02*
X17747363Y-10598993D01*
X18042601Y-10837089D02*
X18033077Y-10827565D01*
X18014030Y-10798993D01*
X18004506Y-10779946D01*
X17994982Y-10751374D01*
X17985458Y-10703755D01*
X17985458Y-10665660D01*
X17994982Y-10618041D01*
X18004506Y-10589470D01*
X18014030Y-10570422D01*
X18033077Y-10541850D01*
X18042601Y-10532327D01*
X18204506Y-10560898D02*
X18166411Y-10560898D01*
X18147363Y-10570422D01*
X18137839Y-10579946D01*
X18118792Y-10608517D01*
X18109268Y-10646612D01*
X18109268Y-10722803D01*
X18118792Y-10741850D01*
X18128315Y-10751374D01*
X18147363Y-10760898D01*
X18185458Y-10760898D01*
X18204506Y-10751374D01*
X18214030Y-10741850D01*
X18223553Y-10722803D01*
X18223553Y-10675184D01*
X18214030Y-10656136D01*
X18204506Y-10646612D01*
X18185458Y-10637089D01*
X18147363Y-10637089D01*
X18128315Y-10646612D01*
X18118792Y-10656136D01*
X18109268Y-10675184D01*
X18461649Y-10760898D02*
X18461649Y-10560898D01*
X18547363Y-10760898D02*
X18547363Y-10656136D01*
X18537839Y-10637089D01*
X18518792Y-10627565D01*
X18490220Y-10627565D01*
X18471172Y-10637089D01*
X18461649Y-10646612D01*
X18671172Y-10760898D02*
X18652125Y-10751374D01*
X18642601Y-10741850D01*
X18633077Y-10722803D01*
X18633077Y-10665660D01*
X18642601Y-10646612D01*
X18652125Y-10637089D01*
X18671172Y-10627565D01*
X18699744Y-10627565D01*
X18718792Y-10637089D01*
X18728315Y-10646612D01*
X18737839Y-10665660D01*
X18737839Y-10722803D01*
X18728315Y-10741850D01*
X18718792Y-10751374D01*
X18699744Y-10760898D01*
X18671172Y-10760898D01*
X18852125Y-10760898D02*
X18833077Y-10751374D01*
X18823553Y-10732327D01*
X18823553Y-10560898D01*
X19004506Y-10751374D02*
X18985458Y-10760898D01*
X18947363Y-10760898D01*
X18928315Y-10751374D01*
X18918792Y-10732327D01*
X18918792Y-10656136D01*
X18928315Y-10637089D01*
X18947363Y-10627565D01*
X18985458Y-10627565D01*
X19004506Y-10637089D01*
X19014030Y-10656136D01*
X19014030Y-10675184D01*
X18918792Y-10694231D01*
X19090220Y-10751374D02*
X19109268Y-10760898D01*
X19147363Y-10760898D01*
X19166411Y-10751374D01*
X19175934Y-10732327D01*
X19175934Y-10722803D01*
X19166411Y-10703755D01*
X19147363Y-10694231D01*
X19118792Y-10694231D01*
X19099744Y-10684708D01*
X19090220Y-10665660D01*
X19090220Y-10656136D01*
X19099744Y-10637089D01*
X19118792Y-10627565D01*
X19147363Y-10627565D01*
X19166411Y-10637089D01*
X19242601Y-10837089D02*
X19252125Y-10827565D01*
X19271172Y-10798993D01*
X19280696Y-10779946D01*
X19290220Y-10751374D01*
X19299744Y-10703755D01*
X19299744Y-10665660D01*
X19290220Y-10618041D01*
X19280696Y-10589470D01*
X19271172Y-10570422D01*
X19252125Y-10541850D01*
X19242601Y-10532327D01*
M02*
