G04 #@! TF.GenerationSoftware,KiCad,Pcbnew,(6.0.10-0)*
G04 #@! TF.CreationDate,2023-06-21T21:42:54+02:00*
G04 #@! TF.ProjectId,SwiftLeeds,53776966-744c-4656-9564-732e6b696361,rev?*
G04 #@! TF.SameCoordinates,Original*
G04 #@! TF.FileFunction,Copper,L2,Bot*
G04 #@! TF.FilePolarity,Positive*
%FSLAX46Y46*%
G04 Gerber Fmt 4.6, Leading zero omitted, Abs format (unit mm)*
G04 Created by KiCad (PCBNEW (6.0.10-0)) date 2023-06-21 21:42:54*
%MOMM*%
%LPD*%
G01*
G04 APERTURE LIST*
G04 Aperture macros list*
%AMRoundRect*
0 Rectangle with rounded corners*
0 $1 Rounding radius*
0 $2 $3 $4 $5 $6 $7 $8 $9 X,Y pos of 4 corners*
0 Add a 4 corners polygon primitive as box body*
4,1,4,$2,$3,$4,$5,$6,$7,$8,$9,$2,$3,0*
0 Add four circle primitives for the rounded corners*
1,1,$1+$1,$2,$3*
1,1,$1+$1,$4,$5*
1,1,$1+$1,$6,$7*
1,1,$1+$1,$8,$9*
0 Add four rect primitives between the rounded corners*
20,1,$1+$1,$2,$3,$4,$5,0*
20,1,$1+$1,$4,$5,$6,$7,0*
20,1,$1+$1,$6,$7,$8,$9,0*
20,1,$1+$1,$8,$9,$2,$3,0*%
G04 Aperture macros list end*
G04 #@! TA.AperFunction,ComponentPad*
%ADD10R,1.727200X1.727200*%
G04 #@! TD*
G04 #@! TA.AperFunction,ComponentPad*
%ADD11C,1.727200*%
G04 #@! TD*
G04 #@! TA.AperFunction,ComponentPad*
%ADD12O,1.727200X1.727200*%
G04 #@! TD*
G04 #@! TA.AperFunction,SMDPad,CuDef*
%ADD13RoundRect,0.243750X0.117358X0.503791X-0.353531X0.377617X-0.117358X-0.503791X0.353531X-0.377617X0*%
G04 #@! TD*
G04 #@! TA.AperFunction,SMDPad,CuDef*
%ADD14RoundRect,0.250000X0.262500X0.450000X-0.262500X0.450000X-0.262500X-0.450000X0.262500X-0.450000X0*%
G04 #@! TD*
G04 #@! TA.AperFunction,SMDPad,CuDef*
%ADD15RoundRect,0.243750X0.324740X-0.402644X0.515221X0.046102X-0.324740X0.402644X-0.515221X-0.046102X0*%
G04 #@! TD*
G04 #@! TA.AperFunction,SMDPad,CuDef*
%ADD16RoundRect,0.243750X0.160820X0.491645X-0.319274X0.406992X-0.160820X-0.491645X0.319274X-0.406992X0*%
G04 #@! TD*
G04 #@! TA.AperFunction,SMDPad,CuDef*
%ADD17RoundRect,0.250000X-0.503814X-0.132583X-0.132583X-0.503814X0.503814X0.132583X0.132583X0.503814X0*%
G04 #@! TD*
G04 #@! TA.AperFunction,SMDPad,CuDef*
%ADD18RoundRect,0.243750X-0.345367X0.385097X-0.512102X-0.073003X0.345367X-0.385097X0.512102X0.073003X0*%
G04 #@! TD*
G04 #@! TA.AperFunction,SMDPad,CuDef*
%ADD19RoundRect,0.243750X0.494975X0.150260X0.150260X0.494975X-0.494975X-0.150260X-0.150260X-0.494975X0*%
G04 #@! TD*
G04 #@! TA.AperFunction,SMDPad,CuDef*
%ADD20RoundRect,0.250000X0.450000X-0.262500X0.450000X0.262500X-0.450000X0.262500X-0.450000X-0.262500X0*%
G04 #@! TD*
G04 #@! TA.AperFunction,SMDPad,CuDef*
%ADD21RoundRect,0.250000X-0.450000X0.262500X-0.450000X-0.262500X0.450000X-0.262500X0.450000X0.262500X0*%
G04 #@! TD*
G04 #@! TA.AperFunction,Conductor*
%ADD22C,0.250000*%
G04 #@! TD*
G04 APERTURE END LIST*
D10*
X164520000Y-92750000D03*
D11*
X164520000Y-95290000D03*
D12*
X167060000Y-92750000D03*
X167060000Y-95290000D03*
D11*
X169600000Y-92750000D03*
X169600000Y-95290000D03*
D13*
X153094445Y-59242643D03*
X154905555Y-58757357D03*
D14*
X158912500Y-70000000D03*
X157087500Y-70000000D03*
D15*
X174426350Y-81332985D03*
X175158970Y-79607039D03*
D16*
X152693084Y-70355906D03*
X150846570Y-70681496D03*
D17*
X171267265Y-61354765D03*
X172557735Y-62645235D03*
D18*
X163138610Y-82880962D03*
X163779898Y-81119038D03*
D19*
X176000000Y-59000000D03*
X174674174Y-57674174D03*
D20*
X176125000Y-75912500D03*
X176125000Y-74087500D03*
D14*
X159912500Y-58000000D03*
X158087500Y-58000000D03*
D21*
X164000000Y-74087500D03*
X164000000Y-75912500D03*
D22*
X175550000Y-67550000D02*
X175550000Y-72450000D01*
X171267265Y-61354765D02*
X171267265Y-63267265D01*
X171267265Y-63267265D02*
X175550000Y-67550000D01*
X176000000Y-59000000D02*
X172557735Y-62442265D01*
X172557735Y-62442265D02*
X172557735Y-62645235D01*
X174674174Y-57674174D02*
X176123743Y-57674174D01*
X176123743Y-57674174D02*
X177063725Y-58614156D01*
X177063725Y-58614156D02*
X177063725Y-59936275D01*
X175000000Y-78000000D02*
X174000000Y-79000000D01*
X174000000Y-79000000D02*
X174000000Y-80906635D01*
X175000000Y-73000000D02*
X175000000Y-78000000D01*
X174000000Y-80906635D02*
X174426350Y-81332985D01*
X175550000Y-72450000D02*
X175000000Y-73000000D01*
X175158970Y-79607039D02*
X176125000Y-78641009D01*
X176125000Y-78641009D02*
X176125000Y-75912500D01*
X164520000Y-95290000D02*
X165871400Y-93938600D01*
X165871400Y-92257665D02*
X166567665Y-91561400D01*
X166567665Y-91561400D02*
X168438600Y-91561400D01*
X168438600Y-91561400D02*
X174000000Y-86000000D01*
X165871400Y-93938600D02*
X165871400Y-92257665D01*
X174000000Y-86000000D02*
X174000000Y-81759335D01*
X174000000Y-81759335D02*
X174426350Y-81332985D01*
X175000000Y-79448069D02*
X175158970Y-79607039D01*
X169000000Y-63000000D02*
X170645235Y-61354765D01*
X170645235Y-61354765D02*
X171267265Y-61354765D01*
X159912500Y-58000000D02*
X164000000Y-58000000D01*
X164000000Y-58000000D02*
X169000000Y-63000000D01*
X154905555Y-58757357D02*
X155662912Y-58000000D01*
X155662912Y-58000000D02*
X158087500Y-58000000D01*
X169000000Y-65000000D02*
X169000000Y-63000000D01*
X160956250Y-71043750D02*
X164000000Y-74087500D01*
X160956250Y-71043750D02*
X161000000Y-71000000D01*
X161000000Y-71000000D02*
X163000000Y-71000000D01*
X159912500Y-70000000D02*
X160956250Y-71043750D01*
X163000000Y-71000000D02*
X169000000Y-65000000D01*
X158912500Y-70000000D02*
X159912500Y-70000000D01*
X152693084Y-70355906D02*
X156731594Y-70355906D01*
X156731594Y-70355906D02*
X157087500Y-70000000D01*
X163138610Y-82880962D02*
X162652771Y-82395123D01*
X162652771Y-82395123D02*
X162652771Y-75652771D01*
X162652771Y-75652771D02*
X159000000Y-72000000D01*
X156102862Y-72000000D02*
X155551431Y-71448569D01*
X159000000Y-72000000D02*
X156102862Y-72000000D01*
X155551431Y-71448569D02*
X151613643Y-71448569D01*
X151613643Y-71448569D02*
X150846570Y-70681496D01*
X163779898Y-81119038D02*
X163779898Y-76132602D01*
X163779898Y-76132602D02*
X164000000Y-75912500D01*
X161000000Y-70000000D02*
X163000000Y-70000000D01*
X164674174Y-57674174D02*
X174674174Y-57674174D01*
X163000000Y-88000000D02*
X163000000Y-83019572D01*
X168000000Y-65000000D02*
X168000000Y-63000000D01*
X153094445Y-59242643D02*
X153094445Y-58974162D01*
X153094445Y-58974162D02*
X155093607Y-56975000D01*
X165000000Y-60000000D02*
X153851802Y-60000000D01*
X152497755Y-68975000D02*
X159975000Y-68975000D01*
X150846570Y-70681496D02*
X150846570Y-70626185D01*
X150846570Y-70626185D02*
X152497755Y-68975000D01*
X153851802Y-60000000D02*
X153094445Y-59242643D01*
X159975000Y-68975000D02*
X161000000Y-70000000D01*
X163975000Y-56975000D02*
X164674174Y-57674174D01*
X163000000Y-83019572D02*
X163138610Y-82880962D01*
X155093607Y-56975000D02*
X163975000Y-56975000D01*
X164520000Y-89520000D02*
X163000000Y-88000000D01*
X163000000Y-70000000D02*
X168000000Y-65000000D01*
X168000000Y-63000000D02*
X165000000Y-60000000D01*
X176000000Y-73962500D02*
X176125000Y-74087500D01*
X177063725Y-59936275D02*
X176000000Y-61000000D01*
X176000000Y-61000000D02*
X176000000Y-73962500D01*
X164520000Y-92750000D02*
X164520000Y-89520000D01*
M02*
