G04 #@! TF.GenerationSoftware,KiCad,Pcbnew,(6.0.10-0)*
G04 #@! TF.CreationDate,2023-09-13T21:46:28+02:00*
G04 #@! TF.ProjectId,SwiftLeeds,53776966-744c-4656-9564-732e6b696361,rev?*
G04 #@! TF.SameCoordinates,Original*
G04 #@! TF.FileFunction,Soldermask,Top*
G04 #@! TF.FilePolarity,Negative*
%FSLAX46Y46*%
G04 Gerber Fmt 4.6, Leading zero omitted, Abs format (unit mm)*
G04 Created by KiCad (PCBNEW (6.0.10-0)) date 2023-09-13 21:46:28*
%MOMM*%
%LPD*%
G01*
G04 APERTURE LIST*
G04 APERTURE END LIST*
G36*
X145857352Y-43657152D02*
G01*
X147025418Y-43718365D01*
X147949193Y-43819926D01*
X148284703Y-43884006D01*
X149399807Y-44257781D01*
X150619208Y-44852459D01*
X151806039Y-45596437D01*
X152365048Y-46018671D01*
X152975535Y-46450771D01*
X153491864Y-46619042D01*
X154032993Y-46527095D01*
X154717879Y-46178538D01*
X154856756Y-46094275D01*
X156318151Y-45320874D01*
X157766074Y-44788904D01*
X159159215Y-44496082D01*
X160456265Y-44440125D01*
X161615916Y-44618749D01*
X162596859Y-45029670D01*
X163357783Y-45670604D01*
X163857381Y-46539270D01*
X163876199Y-46592855D01*
X164144176Y-47841426D01*
X164116969Y-49182114D01*
X163788696Y-50648997D01*
X163153474Y-52276155D01*
X162754300Y-53092262D01*
X162387954Y-53834786D01*
X162101078Y-54479440D01*
X161933046Y-54934355D01*
X161905535Y-55072600D01*
X162019791Y-55403879D01*
X162312323Y-55885009D01*
X162549337Y-56199680D01*
X163320179Y-57289093D01*
X163995720Y-58513054D01*
X164508380Y-59735712D01*
X164760210Y-60644068D01*
X164862272Y-61483801D01*
X164913592Y-62616515D01*
X164917240Y-63959924D01*
X164876289Y-65431741D01*
X164793810Y-66949681D01*
X164672874Y-68431460D01*
X164516553Y-69794790D01*
X164387199Y-70637552D01*
X163585588Y-74507418D01*
X162553099Y-78310366D01*
X161314632Y-81971534D01*
X159895088Y-85416061D01*
X158586782Y-88076358D01*
X157881447Y-89356764D01*
X157299442Y-90316752D01*
X156818543Y-90985950D01*
X156416527Y-91393990D01*
X156071170Y-91570502D01*
X155956660Y-91583074D01*
X155494781Y-91459960D01*
X155253092Y-91276920D01*
X155168675Y-91095180D01*
X155106799Y-90754011D01*
X155065676Y-90211442D01*
X155043521Y-89425504D01*
X155038545Y-88354228D01*
X155048961Y-86955643D01*
X155053319Y-86585502D01*
X155038042Y-82540852D01*
X154895744Y-78541041D01*
X154631861Y-74664811D01*
X154251827Y-70990903D01*
X153761080Y-67598057D01*
X153729954Y-67415164D01*
X153506179Y-66221666D01*
X153293278Y-65359785D01*
X153070918Y-64783317D01*
X152818768Y-64446061D01*
X152516495Y-64301815D01*
X152353553Y-64287552D01*
X152045381Y-64388946D01*
X151491654Y-64668313D01*
X150758922Y-65088424D01*
X149913735Y-65612053D01*
X149473255Y-65898746D01*
X148404806Y-66594411D01*
X147611744Y-67082359D01*
X147063110Y-67378189D01*
X146727944Y-67497504D01*
X146575285Y-67455902D01*
X146557992Y-67367775D01*
X146619946Y-67124305D01*
X146773781Y-66641747D01*
X146930908Y-66183074D01*
X147156886Y-65302737D01*
X147277611Y-64323071D01*
X147287962Y-63374597D01*
X147182820Y-62587837D01*
X147083557Y-62291957D01*
X146744855Y-61836059D01*
X146334761Y-61524829D01*
X145663883Y-61326874D01*
X144764298Y-61263384D01*
X143760420Y-61330886D01*
X142776663Y-61525907D01*
X142430876Y-61633820D01*
X141833290Y-61835766D01*
X141382326Y-61973284D01*
X141203522Y-62012925D01*
X141083439Y-61956555D01*
X141094686Y-61763521D01*
X141255514Y-61397933D01*
X141584174Y-60823901D01*
X142098917Y-60005536D01*
X142665983Y-59137114D01*
X143253762Y-58215904D01*
X143738318Y-57398385D01*
X144085728Y-56745763D01*
X144262073Y-56319246D01*
X144277177Y-56229880D01*
X144210243Y-55891955D01*
X143978146Y-55616439D01*
X143533941Y-55382391D01*
X142830681Y-55168872D01*
X141821421Y-54954941D01*
X141149565Y-54834774D01*
X137519983Y-54303913D01*
X133603545Y-53903417D01*
X129471151Y-53638228D01*
X125193700Y-53513288D01*
X122167316Y-53511741D01*
X120618177Y-53525665D01*
X119407762Y-53523405D01*
X118495790Y-53497450D01*
X117841982Y-53440285D01*
X117406056Y-53344397D01*
X117147730Y-53202274D01*
X117026725Y-53006400D01*
X117002760Y-52749264D01*
X117019459Y-52551538D01*
X117174323Y-52191719D01*
X117576264Y-51771834D01*
X118248115Y-51276366D01*
X119212708Y-50689801D01*
X120492877Y-49996622D01*
X121625684Y-49421381D01*
X125151872Y-47829420D01*
X128884060Y-46447269D01*
X132724208Y-45303941D01*
X136574279Y-44428445D01*
X140336233Y-43849793D01*
X140526049Y-43828536D01*
X141779342Y-43721980D01*
X143145119Y-43658322D01*
X144534187Y-43636926D01*
X145857352Y-43657152D01*
G37*
M02*
