G04 #@! TF.GenerationSoftware,KiCad,Pcbnew,(6.0.10-0)*
G04 #@! TF.CreationDate,2023-09-13T21:46:27+02:00*
G04 #@! TF.ProjectId,SwiftLeeds,53776966-744c-4656-9564-732e6b696361,rev?*
G04 #@! TF.SameCoordinates,Original*
G04 #@! TF.FileFunction,Copper,L2,Bot*
G04 #@! TF.FilePolarity,Positive*
%FSLAX46Y46*%
G04 Gerber Fmt 4.6, Leading zero omitted, Abs format (unit mm)*
G04 Created by KiCad (PCBNEW (6.0.10-0)) date 2023-09-13 21:46:27*
%MOMM*%
%LPD*%
G01*
G04 APERTURE LIST*
G04 Aperture macros list*
%AMRoundRect*
0 Rectangle with rounded corners*
0 $1 Rounding radius*
0 $2 $3 $4 $5 $6 $7 $8 $9 X,Y pos of 4 corners*
0 Add a 4 corners polygon primitive as box body*
4,1,4,$2,$3,$4,$5,$6,$7,$8,$9,$2,$3,0*
0 Add four circle primitives for the rounded corners*
1,1,$1+$1,$2,$3*
1,1,$1+$1,$4,$5*
1,1,$1+$1,$6,$7*
1,1,$1+$1,$8,$9*
0 Add four rect primitives between the rounded corners*
20,1,$1+$1,$2,$3,$4,$5,0*
20,1,$1+$1,$4,$5,$6,$7,0*
20,1,$1+$1,$6,$7,$8,$9,0*
20,1,$1+$1,$8,$9,$2,$3,0*%
G04 Aperture macros list end*
G04 #@! TA.AperFunction,SMDPad,CuDef*
%ADD10RoundRect,0.250000X-0.132583X0.503814X-0.503814X0.132583X0.132583X-0.503814X0.503814X-0.132583X0*%
G04 #@! TD*
G04 #@! TA.AperFunction,SMDPad,CuDef*
%ADD11RoundRect,0.243750X0.345367X-0.385097X0.512102X0.073003X-0.345367X0.385097X-0.512102X-0.073003X0*%
G04 #@! TD*
G04 #@! TA.AperFunction,SMDPad,CuDef*
%ADD12RoundRect,0.243750X0.456250X-0.243750X0.456250X0.243750X-0.456250X0.243750X-0.456250X-0.243750X0*%
G04 #@! TD*
G04 #@! TA.AperFunction,SMDPad,CuDef*
%ADD13RoundRect,0.243750X0.494975X0.150260X0.150260X0.494975X-0.494975X-0.150260X-0.150260X-0.494975X0*%
G04 #@! TD*
G04 #@! TA.AperFunction,SMDPad,CuDef*
%ADD14RoundRect,0.243750X0.243750X0.456250X-0.243750X0.456250X-0.243750X-0.456250X0.243750X-0.456250X0*%
G04 #@! TD*
G04 #@! TA.AperFunction,SMDPad,CuDef*
%ADD15RoundRect,0.243750X0.028093X0.516516X-0.413732X0.310490X-0.028093X-0.516516X0.413732X-0.310490X0*%
G04 #@! TD*
G04 #@! TA.AperFunction,SMDPad,CuDef*
%ADD16R,1.270000X5.080000*%
G04 #@! TD*
G04 #@! TA.AperFunction,SMDPad,CuDef*
%ADD17C,17.800000*%
G04 #@! TD*
G04 #@! TA.AperFunction,Conductor*
%ADD18C,0.250000*%
G04 #@! TD*
G04 APERTURE END LIST*
D10*
X139655235Y-72024765D03*
X138364765Y-73315235D03*
X137024765Y-71955235D03*
X138315235Y-70664765D03*
X135574765Y-70425235D03*
X136865235Y-69134765D03*
X134034765Y-68955235D03*
X135325235Y-67664765D03*
X133665235Y-66154765D03*
X132374765Y-67445235D03*
D11*
X161779356Y-84240962D03*
X162420644Y-82479038D03*
D12*
X165970000Y-64317500D03*
X165970000Y-62442500D03*
D13*
X164382913Y-45212913D03*
X163057087Y-43887087D03*
D14*
X140922500Y-42550000D03*
X142797500Y-42550000D03*
D15*
X124048457Y-47079293D03*
X125747785Y-46286883D03*
D16*
X136635000Y-103640000D03*
X158605000Y-103640000D03*
D17*
X147620000Y-103640000D03*
D18*
X128233117Y-46286883D02*
X131220000Y-43300000D01*
X141401834Y-41525000D02*
X142646834Y-42770000D01*
X140065000Y-41525000D02*
X141401834Y-41525000D01*
X138290000Y-43300000D02*
X140065000Y-41525000D01*
X131220000Y-43300000D02*
X138290000Y-43300000D01*
X125747785Y-46286883D02*
X128233117Y-46286883D01*
X142646834Y-42770000D02*
X150850000Y-42770000D01*
X150850000Y-42770000D02*
X151624284Y-43544284D01*
X151624284Y-43544284D02*
X161365716Y-43544284D01*
X161365716Y-43544284D02*
X162240000Y-42670000D01*
X162240000Y-42670000D02*
X163560000Y-42670000D01*
X163560000Y-42670000D02*
X166130000Y-45240000D01*
X166130000Y-45240000D02*
X166130000Y-51000000D01*
X166130000Y-51000000D02*
X163400000Y-53730000D01*
X163400000Y-53730000D02*
X163400000Y-56340000D01*
X163400000Y-56340000D02*
X167170000Y-60110000D01*
X167170000Y-60110000D02*
X167170000Y-63017500D01*
X167170000Y-63017500D02*
X165870000Y-64317500D01*
X165870000Y-64317500D02*
X165870000Y-74710000D01*
X165870000Y-74710000D02*
X163870000Y-76710000D01*
X163870000Y-76710000D02*
X163870000Y-82510000D01*
X163870000Y-82510000D02*
X163310000Y-83070000D01*
X163310000Y-83070000D02*
X163310000Y-83700000D01*
X163310000Y-83700000D02*
X162769038Y-84240962D01*
X162769038Y-84240962D02*
X161779356Y-84240962D01*
X161779356Y-84240962D02*
X160360000Y-85660318D01*
X157900000Y-91820000D02*
X157900000Y-93340000D01*
X157900000Y-93340000D02*
X159565000Y-95005000D01*
X160360000Y-85660318D02*
X160360000Y-89360000D01*
X160360000Y-89360000D02*
X157900000Y-91820000D01*
X150485000Y-106505000D02*
X147620000Y-103640000D01*
X159565000Y-95005000D02*
X159565000Y-106505000D01*
X159565000Y-106505000D02*
X150485000Y-106505000D01*
X139655235Y-72024765D02*
X139655235Y-69961161D01*
X146493198Y-63123198D02*
X153513198Y-63123198D01*
X139655235Y-69961161D02*
X146493198Y-63123198D01*
X153513198Y-63123198D02*
X162420644Y-72030644D01*
X162420644Y-72030644D02*
X162420644Y-82479038D01*
X138315235Y-70664765D02*
X146537500Y-62442500D01*
X146537500Y-62442500D02*
X165870000Y-62442500D01*
X142460000Y-58632792D02*
X142460000Y-56990000D01*
X136865235Y-69134765D02*
X136865235Y-65715235D01*
X136121396Y-64971396D02*
X142460000Y-58632792D01*
X136865235Y-65715235D02*
X136121396Y-64971396D01*
X155455716Y-43994284D02*
X162894284Y-43994284D01*
X142460000Y-56990000D02*
X155455716Y-43994284D01*
X135325235Y-67664765D02*
X135325235Y-65131161D01*
X142010000Y-58446396D02*
X142010000Y-56603604D01*
X135325235Y-65131161D02*
X142010000Y-58446396D01*
X142010000Y-56603604D02*
X140742500Y-55336104D01*
X140742500Y-55336104D02*
X140742500Y-42770000D01*
X141560000Y-56790000D02*
X137910000Y-53140000D01*
X137910000Y-53140000D02*
X127740000Y-53140000D01*
X133665235Y-66154765D02*
X141560000Y-58260000D01*
X141560000Y-58260000D02*
X141560000Y-56790000D01*
X127740000Y-53140000D02*
X124048457Y-49448457D01*
X124048457Y-49448457D02*
X124048457Y-47079293D01*
X135270000Y-73720000D02*
X136600000Y-75050000D01*
X136600000Y-75050000D02*
X139600000Y-78050000D01*
X138364765Y-73315235D02*
X138334765Y-73315235D01*
X138334765Y-73315235D02*
X136600000Y-75050000D01*
X133770000Y-72220000D02*
X135270000Y-73720000D01*
X137024765Y-71955235D02*
X137024765Y-71965235D01*
X137024765Y-71965235D02*
X135270000Y-73720000D01*
X132265000Y-70715000D02*
X133770000Y-72220000D01*
X135564765Y-70425235D02*
X133770000Y-72220000D01*
X135574765Y-70425235D02*
X135564765Y-70425235D01*
X130740000Y-69190000D02*
X132265000Y-70715000D01*
X134034765Y-68955235D02*
X132275000Y-70715000D01*
X132275000Y-70715000D02*
X132265000Y-70715000D01*
X130710000Y-69160000D02*
X130740000Y-69190000D01*
X132374765Y-67445235D02*
X130740000Y-69080000D01*
X130740000Y-69080000D02*
X130740000Y-69190000D01*
X139600000Y-78050000D02*
X139600000Y-93650000D01*
X158605000Y-96145000D02*
X156305000Y-93845000D01*
X139600000Y-93650000D02*
X156110000Y-93650000D01*
X156110000Y-93650000D02*
X156305000Y-93845000D01*
X158605000Y-103640000D02*
X158605000Y-96145000D01*
X136635000Y-103640000D02*
X136635000Y-96615000D01*
X136635000Y-96615000D02*
X139600000Y-93650000D01*
M02*
