G04 #@! TF.GenerationSoftware,KiCad,Pcbnew,(6.0.10-0)*
G04 #@! TF.CreationDate,2023-09-13T21:46:27+02:00*
G04 #@! TF.ProjectId,SwiftLeeds,53776966-744c-4656-9564-732e6b696361,rev?*
G04 #@! TF.SameCoordinates,Original*
G04 #@! TF.FileFunction,Legend,Top*
G04 #@! TF.FilePolarity,Positive*
%FSLAX46Y46*%
G04 Gerber Fmt 4.6, Leading zero omitted, Abs format (unit mm)*
G04 Created by KiCad (PCBNEW (6.0.10-0)) date 2023-09-13 21:46:27*
%MOMM*%
%LPD*%
G01*
G04 APERTURE LIST*
G04 APERTURE END LIST*
G36*
X136331892Y-88789405D02*
G01*
X136324678Y-87734802D01*
X136304319Y-86641949D01*
X136272733Y-85548684D01*
X136231842Y-84492845D01*
X136183567Y-83512267D01*
X136129828Y-82644788D01*
X136072546Y-81928246D01*
X136013641Y-81400477D01*
X135955035Y-81099318D01*
X135939636Y-81061989D01*
X135798642Y-81019939D01*
X135487564Y-81129136D01*
X134983070Y-81397841D01*
X134970111Y-81405324D01*
X134656712Y-81592141D01*
X134401922Y-81769991D01*
X134173747Y-81977921D01*
X133940194Y-82254981D01*
X133669270Y-82640220D01*
X133328980Y-83172688D01*
X132887332Y-83891432D01*
X132754276Y-84109822D01*
X132145546Y-85102365D01*
X131649876Y-85888071D01*
X131242428Y-86497556D01*
X130898361Y-86961438D01*
X130592837Y-87310337D01*
X130301016Y-87574871D01*
X129998057Y-87785657D01*
X129659123Y-87973314D01*
X129592813Y-88006780D01*
X128638113Y-88347147D01*
X127670511Y-88440400D01*
X126734406Y-88294122D01*
X125874198Y-87915895D01*
X125134284Y-87313299D01*
X125061570Y-87232988D01*
X124750223Y-86816197D01*
X124443442Y-86303943D01*
X124184491Y-85781068D01*
X124016634Y-85332409D01*
X123976476Y-85105135D01*
X123864240Y-84904820D01*
X123666216Y-84863523D01*
X123249349Y-84777858D01*
X122721521Y-84556066D01*
X122175031Y-84246647D01*
X121702179Y-83898102D01*
X121545141Y-83748975D01*
X120999890Y-82994302D01*
X120653542Y-82126322D01*
X120507615Y-81201575D01*
X120563629Y-80276603D01*
X120823103Y-79407945D01*
X121287556Y-78652140D01*
X121404652Y-78520055D01*
X121711531Y-78254003D01*
X122241648Y-77865749D01*
X122978223Y-77366478D01*
X123904475Y-76767378D01*
X125003624Y-76079637D01*
X125760000Y-75616403D01*
X126344956Y-75253094D01*
X126751547Y-74969010D01*
X127039709Y-74706945D01*
X127269380Y-74409693D01*
X127500500Y-74020049D01*
X127574952Y-73884180D01*
X128085579Y-72944922D01*
X127300357Y-72868955D01*
X126978793Y-72848742D01*
X126420491Y-72825693D01*
X125663279Y-72800873D01*
X124744986Y-72775351D01*
X123703441Y-72750194D01*
X122576472Y-72726468D01*
X121641081Y-72709276D01*
X120231346Y-72683534D01*
X119066586Y-72656087D01*
X118117198Y-72622142D01*
X117353580Y-72576910D01*
X116746131Y-72515600D01*
X116265247Y-72433420D01*
X115881326Y-72325581D01*
X115564766Y-72187291D01*
X115285965Y-72013760D01*
X115015320Y-71800197D01*
X114787994Y-71600191D01*
X114158503Y-70861720D01*
X113749012Y-70007310D01*
X113562960Y-69086959D01*
X113574758Y-68816398D01*
X116584730Y-68816398D01*
X116587793Y-68849970D01*
X116629730Y-69281621D01*
X121366486Y-69366649D01*
X122878532Y-69397237D01*
X124164278Y-69432322D01*
X125272019Y-69475276D01*
X126250046Y-69529467D01*
X127146655Y-69598268D01*
X128010137Y-69685047D01*
X128888786Y-69793177D01*
X129830896Y-69926026D01*
X130222162Y-69984690D01*
X131186806Y-70139347D01*
X131902267Y-70282371D01*
X132392306Y-70432185D01*
X132680685Y-70607213D01*
X132791166Y-70825879D01*
X132747509Y-71106607D01*
X132573477Y-71467820D01*
X132435083Y-71700504D01*
X132173260Y-72124224D01*
X131816906Y-72698422D01*
X131417157Y-73340802D01*
X131101314Y-73847147D01*
X130698169Y-74499131D01*
X130294159Y-75163530D01*
X129942638Y-75752047D01*
X129741622Y-76097383D01*
X129554273Y-76414939D01*
X129369260Y-76687026D01*
X129155815Y-76938309D01*
X128883171Y-77193457D01*
X128520560Y-77477135D01*
X128037217Y-77814011D01*
X127402374Y-78228751D01*
X126585264Y-78746023D01*
X125912850Y-79167027D01*
X125070395Y-79704179D01*
X124380532Y-80166007D01*
X123865516Y-80536607D01*
X123547604Y-80800075D01*
X123448997Y-80927783D01*
X123498553Y-81218344D01*
X123631809Y-81432340D01*
X123732356Y-81529638D01*
X123848866Y-81586196D01*
X124013947Y-81591903D01*
X124260208Y-81536643D01*
X124620260Y-81410304D01*
X125126710Y-81202770D01*
X125812167Y-80903930D01*
X126709242Y-80503667D01*
X126895984Y-80419944D01*
X127583627Y-80113525D01*
X128180832Y-79851132D01*
X128643939Y-79651649D01*
X128929287Y-79533963D01*
X128999020Y-79510270D01*
X129032261Y-79559184D01*
X129000123Y-79723672D01*
X128892351Y-80030351D01*
X128698687Y-80505840D01*
X128408876Y-81176758D01*
X128013859Y-82067040D01*
X127705229Y-82767450D01*
X127432620Y-83404960D01*
X127218388Y-83925855D01*
X127084888Y-84276420D01*
X127056014Y-84368553D01*
X127059074Y-84766407D01*
X127254225Y-85046995D01*
X127552327Y-85139459D01*
X127658507Y-85124443D01*
X127773153Y-85062665D01*
X127914546Y-84929033D01*
X128100964Y-84698454D01*
X128350686Y-84345833D01*
X128681991Y-83846079D01*
X129113157Y-83174098D01*
X129662465Y-82304797D01*
X129947568Y-81851305D01*
X131457838Y-79446935D01*
X132968108Y-78579524D01*
X133738235Y-78127844D01*
X134611336Y-77601130D01*
X135461456Y-77075979D01*
X135963970Y-76757678D01*
X136681658Y-76309263D01*
X137212199Y-76013258D01*
X137588973Y-75858461D01*
X137845362Y-75833670D01*
X138014748Y-75927682D01*
X138092144Y-76043513D01*
X138300571Y-76603113D01*
X138492631Y-77424663D01*
X138667040Y-78495933D01*
X138822513Y-79804691D01*
X138957764Y-81338707D01*
X139071507Y-83085751D01*
X139162459Y-85033592D01*
X139218978Y-86766442D01*
X139251749Y-87912547D01*
X139285797Y-88972656D01*
X139319825Y-89915278D01*
X139352537Y-90708926D01*
X139382636Y-91322109D01*
X139408826Y-91723339D01*
X139429573Y-91880767D01*
X139612574Y-91978376D01*
X139821561Y-92004324D01*
X140049431Y-91933731D01*
X140295907Y-91694325D01*
X140602967Y-91244671D01*
X140621314Y-91214865D01*
X141527078Y-89582738D01*
X142383734Y-87735772D01*
X143169545Y-85732354D01*
X143862777Y-83630870D01*
X144441695Y-81489708D01*
X144733756Y-80167509D01*
X144848792Y-79550679D01*
X144932541Y-78973134D01*
X144989662Y-78371140D01*
X145024814Y-77680962D01*
X145042657Y-76838867D01*
X145047793Y-75871892D01*
X145047654Y-74936782D01*
X145042063Y-74230692D01*
X145026138Y-73708050D01*
X144995000Y-73323282D01*
X144943766Y-73030814D01*
X144867557Y-72785074D01*
X144761492Y-72540487D01*
X144671045Y-72354059D01*
X144365008Y-71795902D01*
X143999716Y-71217877D01*
X143798178Y-70935670D01*
X143304536Y-70289166D01*
X143866875Y-69078846D01*
X144340839Y-67922243D01*
X144610408Y-66919444D01*
X144678582Y-66044286D01*
X144548362Y-65270605D01*
X144356981Y-64806304D01*
X144020930Y-64416092D01*
X143498344Y-64101776D01*
X142875221Y-63905660D01*
X142436143Y-63861393D01*
X141621686Y-63947122D01*
X140678511Y-64198163D01*
X139679569Y-64593462D01*
X139349521Y-64752277D01*
X138893728Y-64978723D01*
X138562573Y-65105348D01*
X138285013Y-65121607D01*
X137990005Y-65016956D01*
X137606506Y-64780850D01*
X137082017Y-64415731D01*
X136536349Y-64069290D01*
X135990092Y-63810802D01*
X135394009Y-63630920D01*
X134698862Y-63520300D01*
X133855415Y-63469596D01*
X132814430Y-63469463D01*
X132184142Y-63486100D01*
X131104742Y-63531915D01*
X130199961Y-63598672D01*
X129369990Y-63697705D01*
X128515020Y-63840347D01*
X127781550Y-63986053D01*
X125806570Y-64462089D01*
X123803698Y-65065868D01*
X121838465Y-65772630D01*
X119976405Y-66557613D01*
X118283051Y-67396056D01*
X117359967Y-67923773D01*
X116929119Y-68197203D01*
X116689297Y-68397534D01*
X116591001Y-68584141D01*
X116584730Y-68816398D01*
X113574758Y-68816398D01*
X113603786Y-68150666D01*
X113874929Y-67248430D01*
X114379829Y-66430249D01*
X114428374Y-66372314D01*
X114808349Y-66015727D01*
X115394092Y-65577512D01*
X116140157Y-65086924D01*
X117001099Y-64573216D01*
X117931475Y-64065643D01*
X118318806Y-63867923D01*
X120336127Y-62957076D01*
X122548620Y-62134796D01*
X124885221Y-61422420D01*
X127274865Y-60841291D01*
X129646487Y-60412746D01*
X129986612Y-60364272D01*
X131153293Y-60239197D01*
X132363929Y-60172565D01*
X133570289Y-60161952D01*
X134724140Y-60204930D01*
X135777251Y-60299074D01*
X136681389Y-60441957D01*
X137388322Y-60631154D01*
X137669110Y-60750699D01*
X138091357Y-60969052D01*
X139071884Y-59445687D01*
X139431425Y-58879770D01*
X139725373Y-58403025D01*
X139927435Y-58059177D01*
X140011322Y-57891954D01*
X140011341Y-57883241D01*
X139856736Y-57845577D01*
X139474389Y-57784947D01*
X138909675Y-57706797D01*
X138207972Y-57616575D01*
X137414659Y-57519727D01*
X136575112Y-57421699D01*
X135734708Y-57327937D01*
X134938826Y-57243889D01*
X134232842Y-57175001D01*
X133791892Y-57136740D01*
X132151293Y-57023027D01*
X130336236Y-56927865D01*
X128422922Y-56853353D01*
X126487549Y-56801587D01*
X124606317Y-56774667D01*
X122855424Y-56774689D01*
X121497049Y-56798268D01*
X120406872Y-56826090D01*
X119551126Y-56841009D01*
X118889897Y-56841767D01*
X118383268Y-56827105D01*
X117991324Y-56795763D01*
X117674149Y-56746483D01*
X117391826Y-56678005D01*
X117355632Y-56667635D01*
X116411577Y-56261959D01*
X115629814Y-55664741D01*
X115024672Y-54915761D01*
X114610483Y-54054799D01*
X114401576Y-53121634D01*
X114407090Y-52624290D01*
X117339182Y-52624290D01*
X117403904Y-52960055D01*
X117434559Y-53026366D01*
X117507338Y-53151495D01*
X117610526Y-53242240D01*
X117787576Y-53306455D01*
X118081944Y-53351994D01*
X118537084Y-53386713D01*
X119196452Y-53418467D01*
X119722521Y-53439936D01*
X120440447Y-53463348D01*
X121370832Y-53485709D01*
X122451539Y-53505977D01*
X123620432Y-53523112D01*
X124815376Y-53536070D01*
X125897297Y-53543468D01*
X127611975Y-53558250D01*
X129126532Y-53588289D01*
X130515213Y-53637641D01*
X131852262Y-53710362D01*
X133211925Y-53810509D01*
X134668447Y-53942140D01*
X136296073Y-54109309D01*
X136340272Y-54114051D01*
X137985403Y-54302913D01*
X139479574Y-54498995D01*
X140803936Y-54698821D01*
X141939642Y-54898913D01*
X142867845Y-55095796D01*
X143569698Y-55285993D01*
X144026353Y-55466026D01*
X144163719Y-55557214D01*
X144360767Y-55769345D01*
X144467304Y-55995934D01*
X144472062Y-56269924D01*
X144363771Y-56624259D01*
X144131163Y-57091880D01*
X143762968Y-57705731D01*
X143247919Y-58498755D01*
X143061846Y-58778378D01*
X142413355Y-59761012D01*
X141919895Y-60535576D01*
X141573769Y-61115183D01*
X141367284Y-61512948D01*
X141292743Y-61741985D01*
X141296896Y-61786133D01*
X141437723Y-61801835D01*
X141775958Y-61736439D01*
X142251152Y-61603246D01*
X142510270Y-61519096D01*
X143590380Y-61233498D01*
X144620689Y-61113770D01*
X145546403Y-61161920D01*
X146312215Y-61379723D01*
X146867835Y-61775646D01*
X147256919Y-62367505D01*
X147475031Y-63129594D01*
X147517735Y-64036205D01*
X147380598Y-65061632D01*
X147113604Y-66024337D01*
X146950178Y-66543341D01*
X146842865Y-66960178D01*
X146807251Y-67210354D01*
X146817315Y-67250107D01*
X146938713Y-67261658D01*
X147191157Y-67165701D01*
X147592584Y-66951887D01*
X148160932Y-66609865D01*
X148914139Y-66129286D01*
X149870142Y-65499799D01*
X149995837Y-65416099D01*
X150801604Y-64888981D01*
X151422998Y-64513029D01*
X151896600Y-64276373D01*
X152258990Y-64167139D01*
X152546748Y-64173456D01*
X152796455Y-64283451D01*
X152997601Y-64441892D01*
X153171009Y-64644816D01*
X153313668Y-64938800D01*
X153445676Y-65380383D01*
X153587128Y-66026101D01*
X153619817Y-66192432D01*
X154068503Y-68797718D01*
X154437181Y-71580306D01*
X154727107Y-74556608D01*
X154939539Y-77743035D01*
X155075736Y-81156001D01*
X155136955Y-84811915D01*
X155140916Y-86038756D01*
X155143825Y-87422907D01*
X155152523Y-88551292D01*
X155167636Y-89442692D01*
X155189786Y-90115885D01*
X155219598Y-90589653D01*
X155257697Y-90882776D01*
X155304707Y-91014033D01*
X155306378Y-91015783D01*
X155628786Y-91166924D01*
X156047908Y-91159221D01*
X156446293Y-91005692D01*
X156607104Y-90871621D01*
X156924554Y-90453991D01*
X157327670Y-89823367D01*
X157795559Y-89019828D01*
X158307325Y-88083457D01*
X158842074Y-87054334D01*
X159378914Y-85972539D01*
X159896949Y-84878154D01*
X160375287Y-83811259D01*
X160740423Y-82942702D01*
X161913748Y-79789083D01*
X162897849Y-76601563D01*
X163685090Y-73416240D01*
X164267834Y-70269212D01*
X164638443Y-67196575D01*
X164789281Y-64234428D01*
X164792496Y-63789729D01*
X164771252Y-62435598D01*
X164692442Y-61294888D01*
X164538464Y-60309347D01*
X164291715Y-59420725D01*
X163934596Y-58570773D01*
X163449503Y-57701238D01*
X162818835Y-56753872D01*
X162555294Y-56386026D01*
X162209500Y-55894970D01*
X161935237Y-55476733D01*
X161767410Y-55186243D01*
X161731892Y-55090238D01*
X161791890Y-54910747D01*
X161955240Y-54542253D01*
X162196974Y-54038523D01*
X162491280Y-53454960D01*
X163075768Y-52250368D01*
X163500021Y-51199117D01*
X163781148Y-50244898D01*
X163936259Y-49331405D01*
X163981743Y-48549729D01*
X163945847Y-47584537D01*
X163796944Y-46819485D01*
X163514173Y-46196040D01*
X163076674Y-45655669D01*
X162887387Y-45479073D01*
X162132866Y-44993779D01*
X161216572Y-44707809D01*
X160162793Y-44618538D01*
X158995818Y-44723340D01*
X157739937Y-45019591D01*
X156419437Y-45504667D01*
X155058609Y-46175942D01*
X154736512Y-46359886D01*
X154275820Y-46602921D01*
X153864775Y-46773371D01*
X153608249Y-46832358D01*
X153366404Y-46754138D01*
X152969110Y-46544074D01*
X152478751Y-46237508D01*
X152121081Y-45989864D01*
X151101525Y-45299377D01*
X150150712Y-44764118D01*
X149210255Y-44366894D01*
X148221766Y-44090509D01*
X147126857Y-43917772D01*
X145867140Y-43831487D01*
X144729274Y-43813139D01*
X142169239Y-43909650D01*
X139458016Y-44192977D01*
X136637191Y-44654388D01*
X133748352Y-45285150D01*
X130833085Y-46076530D01*
X127932978Y-47019794D01*
X125965946Y-47753276D01*
X125087301Y-48117392D01*
X124083267Y-48564279D01*
X123007168Y-49067433D01*
X121912327Y-49600348D01*
X120852066Y-50136519D01*
X119879708Y-50649441D01*
X119048577Y-51112608D01*
X118411996Y-51499514D01*
X118358399Y-51534778D01*
X117793507Y-51948660D01*
X117461409Y-52299495D01*
X117339182Y-52624290D01*
X114407090Y-52624290D01*
X114412282Y-52156048D01*
X114656933Y-51197820D01*
X115088722Y-50374974D01*
X115514213Y-49885475D01*
X116175805Y-49331648D01*
X117079390Y-48709565D01*
X118230861Y-48015298D01*
X119636111Y-47244916D01*
X120307106Y-46895817D01*
X123603454Y-45345343D01*
X127074578Y-43982890D01*
X130685843Y-42818856D01*
X134402615Y-41863639D01*
X138190260Y-41127640D01*
X140725405Y-40765390D01*
X141335630Y-40709763D01*
X142154982Y-40662870D01*
X143118067Y-40627117D01*
X144159491Y-40604909D01*
X145213860Y-40598650D01*
X145256216Y-40598768D01*
X146297112Y-40604735D01*
X147111120Y-40617603D01*
X147745926Y-40640892D01*
X148249214Y-40678122D01*
X148668671Y-40732810D01*
X149051983Y-40808477D01*
X149443784Y-40907809D01*
X150344852Y-41201419D01*
X151337656Y-41603467D01*
X152316248Y-42066029D01*
X153174682Y-42541180D01*
X153464388Y-42726531D01*
X154086346Y-43146285D01*
X155271453Y-42595661D01*
X156587354Y-42049193D01*
X157822371Y-41685969D01*
X159076961Y-41483036D01*
X160427568Y-41417531D01*
X161235370Y-41425006D01*
X161856156Y-41462306D01*
X162376787Y-41539440D01*
X162884128Y-41666418D01*
X163065095Y-41721487D01*
X164298409Y-42244568D01*
X165358960Y-42977758D01*
X166232967Y-43907277D01*
X166906650Y-45019344D01*
X167255810Y-45912202D01*
X167395889Y-46407739D01*
X167486114Y-46880200D01*
X167535410Y-47411354D01*
X167552701Y-48082968D01*
X167551147Y-48618378D01*
X167492221Y-49833043D01*
X167325392Y-50946543D01*
X167029634Y-52047829D01*
X166583925Y-53225854D01*
X166321638Y-53820453D01*
X165836535Y-54881688D01*
X166576784Y-56060769D01*
X167218199Y-57216670D01*
X167715786Y-58429077D01*
X168077450Y-59736251D01*
X168311096Y-61176448D01*
X168424631Y-62787928D01*
X168425960Y-64608949D01*
X168415078Y-64956756D01*
X168187048Y-68147532D01*
X167733956Y-71431249D01*
X167068468Y-74763411D01*
X166203246Y-78099521D01*
X165150955Y-81395085D01*
X163924259Y-84605606D01*
X162535821Y-87686589D01*
X161240061Y-90166546D01*
X160888208Y-90811264D01*
X160601487Y-91367014D01*
X160399772Y-91792704D01*
X160302938Y-92047237D01*
X160304457Y-92101129D01*
X160890032Y-92424045D01*
X161383510Y-92925634D01*
X161607538Y-93305933D01*
X161659572Y-93431764D01*
X161704302Y-93570271D01*
X161742187Y-93741665D01*
X161773686Y-93966156D01*
X161799255Y-94263955D01*
X161819354Y-94655272D01*
X161834440Y-95160318D01*
X161844970Y-95799303D01*
X161851404Y-96592438D01*
X161854199Y-97559934D01*
X161853812Y-98722000D01*
X161850703Y-100098847D01*
X161845329Y-101710686D01*
X161838469Y-103496595D01*
X161831011Y-105349744D01*
X161823927Y-106948373D01*
X161816553Y-108312555D01*
X161808226Y-109462364D01*
X161798281Y-110417872D01*
X161786056Y-111199152D01*
X161770888Y-111826277D01*
X161752113Y-112319321D01*
X161729068Y-112698356D01*
X161701090Y-112983455D01*
X161667514Y-113194691D01*
X161627679Y-113352137D01*
X161580920Y-113475866D01*
X161526575Y-113585952D01*
X161503653Y-113628648D01*
X160988910Y-114348425D01*
X160303790Y-114978563D01*
X159809730Y-115295169D01*
X159714917Y-115340134D01*
X159598571Y-115379569D01*
X159442917Y-115413877D01*
X159230182Y-115443458D01*
X158942591Y-115468713D01*
X158562370Y-115490045D01*
X158071746Y-115507854D01*
X157452944Y-115522541D01*
X156688190Y-115534509D01*
X155759710Y-115544159D01*
X154649731Y-115551891D01*
X153340477Y-115558107D01*
X151814175Y-115563209D01*
X150053052Y-115567598D01*
X148039332Y-115571675D01*
X147521622Y-115572642D01*
X145209597Y-115575632D01*
X143163136Y-115575483D01*
X141373225Y-115572100D01*
X139830850Y-115565386D01*
X138526998Y-115555243D01*
X137452654Y-115541575D01*
X136598804Y-115524286D01*
X135956436Y-115503277D01*
X135516534Y-115478453D01*
X135270085Y-115449717D01*
X135233513Y-115440638D01*
X134758257Y-115192915D01*
X134252644Y-114780349D01*
X133792311Y-114281202D01*
X133452892Y-113773732D01*
X133332094Y-113473216D01*
X133305249Y-113232822D01*
X133279253Y-112736127D01*
X133254450Y-112001425D01*
X133231182Y-111047011D01*
X133209792Y-109891177D01*
X133190625Y-108552218D01*
X133174023Y-107048427D01*
X133160329Y-105398097D01*
X133150821Y-103811892D01*
X133105405Y-94681621D01*
X133426394Y-94029826D01*
X133940728Y-93274832D01*
X134643103Y-92658417D01*
X135459883Y-92242514D01*
X135607395Y-92195456D01*
X136035877Y-92070893D01*
X144295135Y-92070893D01*
X144426801Y-92088723D01*
X144799278Y-92104904D01*
X145378785Y-92118848D01*
X146131540Y-92129966D01*
X147023761Y-92137672D01*
X148021668Y-92141377D01*
X148360095Y-92141621D01*
X149522838Y-92140788D01*
X150439060Y-92137151D01*
X151136830Y-92129004D01*
X151644221Y-92114641D01*
X151989302Y-92092356D01*
X152200144Y-92060443D01*
X152304818Y-92017196D01*
X152331395Y-91960909D01*
X152313462Y-91901351D01*
X152290303Y-91721213D01*
X152265216Y-91292999D01*
X152238935Y-90643217D01*
X152212190Y-89798374D01*
X152185714Y-88784975D01*
X152160239Y-87629527D01*
X152136497Y-86358537D01*
X152115219Y-84998512D01*
X152107790Y-84452973D01*
X152079443Y-82507269D01*
X152047243Y-80799566D01*
X152009134Y-79293277D01*
X151963057Y-77951812D01*
X151906954Y-76738585D01*
X151838766Y-75617008D01*
X151756436Y-74550492D01*
X151657906Y-73502450D01*
X151541118Y-72436294D01*
X151404012Y-71315437D01*
X151341668Y-70833255D01*
X151247292Y-70176781D01*
X151152946Y-69631779D01*
X151068631Y-69249108D01*
X151004346Y-69079627D01*
X150996077Y-69075675D01*
X150813193Y-69147123D01*
X150468783Y-69337924D01*
X150016578Y-69612765D01*
X149510310Y-69936335D01*
X149003713Y-70273321D01*
X148550516Y-70588410D01*
X148204453Y-70846290D01*
X148019255Y-71011648D01*
X148002231Y-71043224D01*
X148048345Y-71252871D01*
X148167088Y-71623538D01*
X148279167Y-71932227D01*
X148576803Y-73002897D01*
X148746330Y-74283199D01*
X148792263Y-75742323D01*
X148719120Y-77349459D01*
X148531416Y-79073797D01*
X148233670Y-80884527D01*
X147830397Y-82750839D01*
X147326114Y-84641924D01*
X146725339Y-86526971D01*
X146032586Y-88375170D01*
X145779424Y-88983783D01*
X145476678Y-89673619D01*
X145166927Y-90346964D01*
X144888830Y-90921507D01*
X144700193Y-91281433D01*
X144485092Y-91673976D01*
X144338205Y-91962828D01*
X144295135Y-92070893D01*
X136035877Y-92070893D01*
X136331892Y-91984839D01*
X136331892Y-88789405D01*
G37*
%LPC*%
G36*
X145857352Y-43657152D02*
G01*
X147025418Y-43718365D01*
X147949193Y-43819926D01*
X148284703Y-43884006D01*
X149399807Y-44257781D01*
X150619208Y-44852459D01*
X151806039Y-45596437D01*
X152365048Y-46018671D01*
X152975535Y-46450771D01*
X153491864Y-46619042D01*
X154032993Y-46527095D01*
X154717879Y-46178538D01*
X154856756Y-46094275D01*
X156318151Y-45320874D01*
X157766074Y-44788904D01*
X159159215Y-44496082D01*
X160456265Y-44440125D01*
X161615916Y-44618749D01*
X162596859Y-45029670D01*
X163357783Y-45670604D01*
X163857381Y-46539270D01*
X163876199Y-46592855D01*
X164144176Y-47841426D01*
X164116969Y-49182114D01*
X163788696Y-50648997D01*
X163153474Y-52276155D01*
X162754300Y-53092262D01*
X162387954Y-53834786D01*
X162101078Y-54479440D01*
X161933046Y-54934355D01*
X161905535Y-55072600D01*
X162019791Y-55403879D01*
X162312323Y-55885009D01*
X162549337Y-56199680D01*
X163320179Y-57289093D01*
X163995720Y-58513054D01*
X164508380Y-59735712D01*
X164760210Y-60644068D01*
X164862272Y-61483801D01*
X164913592Y-62616515D01*
X164917240Y-63959924D01*
X164876289Y-65431741D01*
X164793810Y-66949681D01*
X164672874Y-68431460D01*
X164516553Y-69794790D01*
X164387199Y-70637552D01*
X163585588Y-74507418D01*
X162553099Y-78310366D01*
X161314632Y-81971534D01*
X159895088Y-85416061D01*
X158586782Y-88076358D01*
X157881447Y-89356764D01*
X157299442Y-90316752D01*
X156818543Y-90985950D01*
X156416527Y-91393990D01*
X156071170Y-91570502D01*
X155956660Y-91583074D01*
X155494781Y-91459960D01*
X155253092Y-91276920D01*
X155168675Y-91095180D01*
X155106799Y-90754011D01*
X155065676Y-90211442D01*
X155043521Y-89425504D01*
X155038545Y-88354228D01*
X155048961Y-86955643D01*
X155053319Y-86585502D01*
X155038042Y-82540852D01*
X154895744Y-78541041D01*
X154631861Y-74664811D01*
X154251827Y-70990903D01*
X153761080Y-67598057D01*
X153729954Y-67415164D01*
X153506179Y-66221666D01*
X153293278Y-65359785D01*
X153070918Y-64783317D01*
X152818768Y-64446061D01*
X152516495Y-64301815D01*
X152353553Y-64287552D01*
X152045381Y-64388946D01*
X151491654Y-64668313D01*
X150758922Y-65088424D01*
X149913735Y-65612053D01*
X149473255Y-65898746D01*
X148404806Y-66594411D01*
X147611744Y-67082359D01*
X147063110Y-67378189D01*
X146727944Y-67497504D01*
X146575285Y-67455902D01*
X146557992Y-67367775D01*
X146619946Y-67124305D01*
X146773781Y-66641747D01*
X146930908Y-66183074D01*
X147156886Y-65302737D01*
X147277611Y-64323071D01*
X147287962Y-63374597D01*
X147182820Y-62587837D01*
X147083557Y-62291957D01*
X146744855Y-61836059D01*
X146334761Y-61524829D01*
X145663883Y-61326874D01*
X144764298Y-61263384D01*
X143760420Y-61330886D01*
X142776663Y-61525907D01*
X142430876Y-61633820D01*
X141833290Y-61835766D01*
X141382326Y-61973284D01*
X141203522Y-62012925D01*
X141083439Y-61956555D01*
X141094686Y-61763521D01*
X141255514Y-61397933D01*
X141584174Y-60823901D01*
X142098917Y-60005536D01*
X142665983Y-59137114D01*
X143253762Y-58215904D01*
X143738318Y-57398385D01*
X144085728Y-56745763D01*
X144262073Y-56319246D01*
X144277177Y-56229880D01*
X144210243Y-55891955D01*
X143978146Y-55616439D01*
X143533941Y-55382391D01*
X142830681Y-55168872D01*
X141821421Y-54954941D01*
X141149565Y-54834774D01*
X137519983Y-54303913D01*
X133603545Y-53903417D01*
X129471151Y-53638228D01*
X125193700Y-53513288D01*
X122167316Y-53511741D01*
X120618177Y-53525665D01*
X119407762Y-53523405D01*
X118495790Y-53497450D01*
X117841982Y-53440285D01*
X117406056Y-53344397D01*
X117147730Y-53202274D01*
X117026725Y-53006400D01*
X117002760Y-52749264D01*
X117019459Y-52551538D01*
X117174323Y-52191719D01*
X117576264Y-51771834D01*
X118248115Y-51276366D01*
X119212708Y-50689801D01*
X120492877Y-49996622D01*
X121625684Y-49421381D01*
X125151872Y-47829420D01*
X128884060Y-46447269D01*
X132724208Y-45303941D01*
X136574279Y-44428445D01*
X140336233Y-43849793D01*
X140526049Y-43828536D01*
X141779342Y-43721980D01*
X143145119Y-43658322D01*
X144534187Y-43636926D01*
X145857352Y-43657152D01*
G37*
M02*
