<svg xmlns:inkscape="http://www.inkscape.org/namespaces/inkscape" xmlns:sodipodi="http://sodipodi.sourceforge.net/DTD/sodipodi-0.dtd" xmlns="http://www.w3.org/2000/svg" xmlns:svg="http://www.w3.org/2000/svg" width="136.78218" height="187.17728" viewBox="0 0 136.78218 187.17728" fill="none" version="1.1" id="svg28" sodipodi:docname="total.tar" inkscape:version="1.3 (0e150ed, 2023-07-21)" inkscape:export-filename="../Version4/back_silkscreen.svg" inkscape:export-xdpi="135" inkscape:export-ydpi="135" xml:space="preserve"><defs id="defs32"><inkscape:path-effect effect="bend_path" id="path-effect22" is_visible="true" lpeversion="1" bendpath="M 118.56354,5.9141144 C 107.75664,12.70931 79.56887,23.372401 70.265834,12.667976" prop_scale="1" scale_y_rel="false" vertical="false" hide_knot="false" bendpath-nodetypes="cc"/><inkscape:path-effect effect="bend_path" id="path-effect21" is_visible="true" lpeversion="1" bendpath="M 55.753969,-53.865881 C 50.549463,-60.714488 55.22272,-105.54712 69.671337,-114.18574" prop_scale="1" scale_y_rel="false" vertical="false" hide_knot="false" bendpath-nodetypes="cc"/><inkscape:path-effect effect="bend_path" id="path-effect18" is_visible="true" lpeversion="1" bendpath="m 68.268827,62.421813 c 5.206667,6.934865 4.650772,8.781051 6.085071,12.570746" prop_scale="1" scale_y_rel="false" vertical="false" hide_knot="false" bendpath-nodetypes="cc"/><inkscape:path-effect effect="bend_path" id="path-effect17" is_visible="true" lpeversion="1" bendpath="m 76.871711,61.336315 c 1.751596,2.394328 3.687895,6.735818 4.838878,13.252485" prop_scale="1" scale_y_rel="false" vertical="false" hide_knot="false" bendpath-nodetypes="cc"/><inkscape:path-effect effect="bend_path" id="path-effect16" is_visible="true" lpeversion="1" bendpath="m 55.040844,57.935265 c 4.89156,29.796377 3.245235,18.202553 13.180413,64.958885" prop_scale="1" scale_y_rel="false" vertical="false" hide_knot="false" bendpath-nodetypes="cc"/><inkscape:path-effect effect="bend_path" id="path-effect15" is_visible="true" lpeversion="1" bendpath="M 2.1427873,63.944653 H 20.79339" prop_scale="1" scale_y_rel="false" vertical="false" hide_knot="false"/><inkscape:path-effect effect="bend_path" id="path-effect14" is_visible="true" lpeversion="1" bendpath="m 107.82095,144.82506 c 3.55681,18.88976 7.38134,28.87889 12.20925,70.49243" prop_scale="0.94411875" scale_y_rel="false" vertical="false" hide_knot="false" bendpath-nodetypes="cc"/><inkscape:path-effect effect="fillet_chamfer" id="path-effect13" is_visible="true" lpeversion="1" nodesatellites_param="F,0,0,1,0,8.0934265,0,1 @ F,0,0,1,0,7.2895428,0,1 @ F,0,0,1,0,8.4537078,0,1 @ F,0,0,1,0,4.6845359,0,1 @ F,0,0,1,0,0,0,1 @ F,0,0,1,0,0,0,1 @ F,0,0,1,0,0,0,1 @ F,0,0,1,0,0,0,1 @ F,0,0,1,0,0,0,1 @ F,0,0,1,0,0,0,1 @ F,0,0,1,0,0,0,1 @ F,0,0,1,0,0,0,1 @ F,0,0,1,0,0,0,1 @ F,0,0,1,0,0,0,1 @ F,0,0,1,0,0,0,1 @ F,0,0,1,0,0,0,1 @ F,0,0,1,0,0,0,1 @ F,0,0,1,0,0,0,1 @ F,0,0,1,0,0,0,1 @ F,0,0,1,0,0,0,1 @ F,0,0,1,0,0,0,1 @ F,0,0,1,0,0,0,1 @ F,0,0,1,0,0,0,1 @ F,0,0,1,0,0,0,1 @ F,0,0,1,0,0,0,1 @ F,0,0,1,0,0,0,1 @ F,0,0,1,0,0,0,1 @ F,0,0,1,0,0,0,1 @ F,0,0,1,0,0,0,1 @ F,0,0,1,0,0,0,1 @ F,0,0,1,0,0,0,1 @ F,0,0,1,0,0,0,1 @ F,0,0,1,0,0,0,1 @ F,0,0,1,0,0,0,1 @ F,0,0,1,0,0,0,1 @ F,0,0,1,0,0,0,1 @ F,0,0,1,0,0,0,1 @ F,0,0,1,0,0,0,1 @ F,0,0,1,0,0,0,1 @ F,0,0,1,0,0,0,1 @ F,0,0,1,0,0,0,1 @ F,0,0,1,0,0,0,1 @ F,0,0,1,0,0,0,1 @ F,0,0,1,0,0,0,1" radius="0" unit="px" method="auto" mode="F" chamfer_steps="1" flexible="false" use_knot_distance="true" apply_no_radius="true" apply_with_radius="true" only_selected="false" hide_knots="false"/><inkscape:path-effect effect="fillet_chamfer" id="path-effect2" is_visible="true" lpeversion="1" nodesatellites_param="F,0,0,1,0,8.0934265,0,1 @ F,0,0,1,0,7.2895428,0,1 @ F,0,0,1,0,8.4537078,0,1 @ F,0,0,1,0,4.6845359,0,1 @ F,0,0,1,0,0,0,1 @ F,0,0,1,0,0,0,1 @ F,0,0,1,0,0,0,1 @ F,0,0,1,0,0,0,1 @ F,0,0,1,0,0,0,1 @ F,0,0,1,0,0,0,1 @ F,0,0,1,0,0,0,1 @ F,0,0,1,0,0,0,1 @ F,0,0,1,0,0,0,1 @ F,0,0,1,0,0,0,1 @ F,0,0,1,0,0,0,1 @ F,0,0,1,0,0,0,1 @ F,0,0,1,0,0,0,1 @ F,0,0,1,0,0,0,1 @ F,0,0,1,0,0,0,1 @ F,0,0,1,0,0,0,1 @ F,0,0,1,0,0,0,1 @ F,0,0,1,0,0,0,1 @ F,0,0,1,0,0,0,1 @ F,0,0,1,0,0,0,1 @ F,0,0,1,0,0,0,1 @ F,0,0,1,0,0,0,1 @ F,0,0,1,0,0,0,1 @ F,0,0,1,0,0,0,1 @ F,0,0,1,0,0,0,1 @ F,0,0,1,0,0,0,1 @ F,0,0,1,0,0,0,1 @ F,0,0,1,0,0,0,1 @ F,0,0,1,0,0,0,1 @ F,0,0,1,0,0,0,1 @ F,0,0,1,0,0,0,1 @ F,0,0,1,0,0,0,1 @ F,0,0,1,0,0,0,1 @ F,0,0,1,0,0,0,1 @ F,0,0,1,0,0,0,1 @ F,0,0,1,0,0,0,1 @ F,0,0,1,0,0,0,1 @ F,0,0,1,0,0,0,1 @ F,0,0,1,0,0,0,1 @ F,0,0,1,0,0,0,1" radius="0" unit="px" method="auto" mode="F" chamfer_steps="1" flexible="false" use_knot_distance="true" apply_no_radius="true" apply_with_radius="true" only_selected="false" hide_knots="false"/><inkscape:path-effect effect="fillet_chamfer" id="path-effect2-1" is_visible="true" lpeversion="1" nodesatellites_param="F,0,0,1,0,8.0934265,0,1 @ F,0,0,1,0,7.2895428,0,1 @ F,0,0,1,0,8.4537078,0,1 @ F,0,0,1,0,4.6845359,0,1 @ F,0,0,1,0,0,0,1 @ F,0,0,1,0,0,0,1 @ F,0,0,1,0,0,0,1 @ F,0,0,1,0,0,0,1 @ F,0,0,1,0,0,0,1 @ F,0,0,1,0,0,0,1 @ F,0,0,1,0,0,0,1 @ F,0,0,1,0,0,0,1 @ F,0,0,1,0,0,0,1 @ F,0,0,1,0,0,0,1 @ F,0,0,1,0,0,0,1 @ F,0,0,1,0,0,0,1 @ F,0,0,1,0,0,0,1 @ F,0,0,1,0,0,0,1 @ F,0,0,1,0,0,0,1 @ F,0,0,1,0,0,0,1 @ F,0,0,1,0,0,0,1 @ F,0,0,1,0,0,0,1 @ F,0,0,1,0,0,0,1 @ F,0,0,1,0,0,0,1 @ F,0,0,1,0,0,0,1 @ F,0,0,1,0,0,0,1 @ F,0,0,1,0,0,0,1 @ F,0,0,1,0,0,0,1 @ F,0,0,1,0,0,0,1 @ F,0,0,1,0,0,0,1 @ F,0,0,1,0,0,0,1 @ F,0,0,1,0,0,0,1 @ F,0,0,1,0,0,0,1 @ F,0,0,1,0,0,0,1 @ F,0,0,1,0,0,0,1 @ F,0,0,1,0,0,0,1 @ F,0,0,1,0,0,0,1 @ F,0,0,1,0,0,0,1 @ F,0,0,1,0,0,0,1 @ F,0,0,1,0,0,0,1 @ F,0,0,1,0,0,0,1 @ F,0,0,1,0,0,0,1 @ F,0,0,1,0,0,0,1 @ F,0,0,1,0,0,0,1" radius="0" unit="px" method="auto" mode="F" chamfer_steps="1" flexible="false" use_knot_distance="true" apply_no_radius="true" apply_with_radius="true" only_selected="false" hide_knots="false"/><inkscape:path-effect effect="fillet_chamfer" id="path-effect2-1-8" is_visible="true" lpeversion="1" nodesatellites_param="F,0,0,1,0,8.0934265,0,1 @ F,0,0,1,0,7.2895428,0,1 @ F,0,0,1,0,8.4537078,0,1 @ F,0,0,1,0,4.6845359,0,1 @ F,0,0,1,0,0,0,1 @ F,0,0,1,0,0,0,1 @ F,0,0,1,0,0,0,1 @ F,0,0,1,0,0,0,1 @ F,0,0,1,0,0,0,1 @ F,0,0,1,0,0,0,1 @ F,0,0,1,0,0,0,1 @ F,0,0,1,0,0,0,1 @ F,0,0,1,0,0,0,1 @ F,0,0,1,0,0,0,1 @ F,0,0,1,0,0,0,1 @ F,0,0,1,0,0,0,1 @ F,0,0,1,0,0,0,1 @ F,0,0,1,0,0,0,1 @ F,0,0,1,0,0,0,1 @ F,0,0,1,0,0,0,1 @ F,0,0,1,0,0,0,1 @ F,0,0,1,0,0,0,1 @ F,0,0,1,0,0,0,1 @ F,0,0,1,0,0,0,1 @ F,0,0,1,0,0,0,1 @ F,0,0,1,0,0,0,1 @ F,0,0,1,0,0,0,1 @ F,0,0,1,0,0,0,1 @ F,0,0,1,0,0,0,1 @ F,0,0,1,0,0,0,1 @ F,0,0,1,0,0,0,1 @ F,0,0,1,0,0,0,1 @ F,0,0,1,0,0,0,1 @ F,0,0,1,0,0,0,1 @ F,0,0,1,0,0,0,1 @ F,0,0,1,0,0,0,1 @ F,0,0,1,0,0,0,1 @ F,0,0,1,0,0,0,1 @ F,0,0,1,0,0,0,1 @ F,0,0,1,0,0,0,1 @ F,0,0,1,0,0,0,1 @ F,0,0,1,0,0,0,1 @ F,0,0,1,0,0,0,1 @ F,0,0,1,0,0,0,1" radius="0" unit="px" method="auto" mode="F" chamfer_steps="1" flexible="false" use_knot_distance="true" apply_no_radius="true" apply_with_radius="true" only_selected="false" hide_knots="false"/></defs><sodipodi:namedview id="namedview30" pagecolor="#ffffff" bordercolor="#000000" borderopacity="0.25" inkscape:showpageshadow="2" inkscape:pageopacity="0.0" inkscape:pagecheckerboard="0" inkscape:deskcolor="#d1d1d1" showgrid="false" inkscape:zoom="4.1564755" inkscape:cx="80.597132" inkscape:cy="88.416256" inkscape:window-width="2320" inkscape:window-height="1290" inkscape:window-x="40" inkscape:window-y="36" inkscape:window-maximized="0" inkscape:current-layer="g12"/><g style="display:none;fill:none" id="g1" transform="matrix(-1,0,0,1,126.87074,2.4892857)" inkscape:label="Birbs"><path d="m 55.910534,125.0011 c 11.2,-17.4 14,-41.5005 11.2,-47.5005 -1,-2.2 -2.2,-3.9 -3.3,-5 -0.5,-0.5 -0.6,-1.3 -0.2,-1.9 3.7,-5.900002 3.7,-9.700002 2.7,-12.100002 -0.2,-0.4 -0.5,-0.8 -0.8,-1.2 -0.3,-0.3 -0.7,-0.6 -1.2,-0.8 -2.4,-1 -6.3,-1 -12.1,2.7 -0.6,0.4 -1.4,0.3 -1.9,-0.2 -1.2,-1.1 -2.8,-2.2 -5,-3.3 -6,-2.8 -30.1,0 -47.5000018,11.200002 -0.3999999,0.3 -0.5999999,0.8 -0.4999999,1.3 0.2,0.5 0.5999999,0.8 1.1999999,0.8 0.2,0 21.7000018,-1.2 38.1000018,2.5 1.3,0.3 1.9,1.8 1.1,2.9 -3.3,4.5 -5.9,8.9 -8.4,13.7 -0.3,0.5 -0.7,1 -1.2,1.3 l -13,8 c -0.5,0.3 -0.7,0.9 -0.5,1.5 0.2,0.5 0.8,0.8 1.4,0.7 l 12.3,-5.6 c 0.2,-0.1 0.4,0 0.5,0.1 0.1,0.1 0.2,0.3 0.1,0.5 l -5.6,12.3005 c -0.1,0.6 0.2,1.1 0.7,1.4 0.5,0.2 1.2,0 1.5,-0.5 l 8,-13.0005 c 0.3,-0.5 0.8,-0.9 1.3,-1.2 4.8,-2.5 9.2,-5.1 13.7,-8.4 1.1,-0.8 2.6,-0.2 2.9,1.1 3.7,16.4 2.5,37.9005 2.5,38.1005 0,0.5 0.3,1 0.8,1.2 0.4,0.1 1,-0.1 1.2,-0.6 z" fill="#000000" id="path4-4" style="display:none;fill:#ffffff;fill-opacity:1;stroke:#000000;stroke-opacity:1" inkscape:label="Smol"/><path d="M 99.062786,120.72547 C 117.66279,91.824971 122.36279,51.724969 117.66279,41.824969 c -1.8,-3.8 -3.7,-6.5 -5.5,-8.4 -0.8,-0.9 -0.9,-2.1 -0.3,-3.1 6.2,-9.8 6.2,-16.3 4.4,-20.29999 -0.3,-0.7000002 -0.7,-1.3000002 -1.3,-1.8000002 -0.5,-0.5 -1.2,-1 -1.8,-1.3 -4,-1.7 -10.5,-1.8 -20.300004,4.4000002 -1,0.6 -2.3,0.5 -3.1,-0.3 -1.9,-1.8000002 -4.6,-3.7000002 -8.4,-5.5000002 -9.9,-4.59999996 -50.1,-1e-5 -78.9000019,18.5999902 -0.7,0.5 -1.1,1.4 -0.8,2.2 0.3,0.8 1.1,1.4 2,1.3 0.4,0 36.1000019,-1.9 63.3000019,4.2 2.1,0.5 3.1,3 1.8,4.8 -2.8,3.9 -5.3,7.8 -7.7,11.7 -0.1,0.1 0.1,0.2 0.2,0.2 5.8,-2.8 9.8,-2.6 12.4,-1.5 0.6,0.2 1,0.6 1.5,1 0.4,0.4 0.8,0.9 1,1.5 1.1,2.7 1.3,6.7 -1.5,12.4 0,0.1 0.1,0.2 0.2,0.2 3.9,-2.4 7.8,-4.9 11.7,-7.7 1.8,-1.3 4.3,-0.4 4.8,1.8 6.1,27.200002 4.2,63.000501 4.2,63.300501 0,0.9 0.5,1.7 1.3,2 0.8,0.2 1.7,-0.1 2.2,-0.8 z" fill="#ed2207" id="path2" style="display:inline;fill:#ffffff;fill-opacity:1;stroke:#000000;stroke-opacity:1" inkscape:label="Big"/></g><g inkscape:groupmode="layer" id="layer3-8" inkscape:label="Edge" style="display:none;fill:none;fill-opacity:1;stroke:#000000;stroke-width:0.1;stroke-dasharray:none;stroke-opacity:1" transform="translate(0.0855725,-0.0807225)"><path style="display:inline;fill:none;fill-opacity:1;stroke:#000000;stroke-width:0.1;stroke-dasharray:none;stroke-opacity:1;paint-order:stroke markers fill" d="M 57.651819,-0.10555158 C 77.163728,0.04305486 96.413996,5.0428985 114.21434,12.84612 c 6.0918,2.844459 12.25644,5.798433 17.56149,9.973805 4.43223,4.02175 4.16051,11.904049 -0.62784,15.547802 -2.10786,1.818577 -4.891,2.552467 -7.63745,2.302993 -15.60465,0.31873 -31.281863,-0.295169 -46.785533,1.878083 -1.835403,0.244619 -3.687554,0.43797 -5.50516,0.790786 1.407687,2.466308 2.903472,4.903358 4.516842,7.232199 8.155255,-3.098178 17.167362,-1.960818 25.541341,-0.427512 11.25589,2.349037 22.42258,6.174945 31.98537,12.678059 5.11156,3.657747 4.91129,12.459747 -0.54636,15.707497 -1.50295,0.991919 -3.08498,1.901671 -4.96121,1.547775 -8.90376,0.250546 -17.88229,-0.02667 -26.73051,0.947181 0.99411,2.297161 2.47251,4.901764 4.98333,5.987353 3.84335,2.637948 8.25943,4.577647 11.61561,7.862328 3.53417,4.291855 2.55253,11.507911 -2.31557,14.386731 -1.2109,0.99622 -2.88847,1.06685 -4.16847,1.80696 -0.91636,3.54764 -3.3617,6.94417 -6.94562,8.14388 -4.08028,1.17764 -8.803464,-0.3772 -11.07907,-4.04173 -2.818328,-3.85257 -4.976337,-8.23057 -7.747878,-12.0495 -1.3549,-0.69684 -2.658898,-1.64989 -4.100167,-2.11396 -0.865555,4.54297 -0.529966,9.26421 -0.69759,13.883 -0.02152,4.46268 -0.02425,8.92543 -0.03799,13.38814 3.441897,0.42606 6.628669,3.07326 7.489788,6.44794 0.314524,14.26274 0.272898,28.5372 0.08641,42.80199 -0.08176,2.61919 -0.05626,5.66988 -2.386669,7.41869 -1.947983,2.12094 -4.935996,2.4982 -7.658692,2.29366 -18.17114,0.1772 -36.346137,0.0608 -54.516117,0.0389 -3.25523,-1.1629 -6.18853,-3.67292 -7.05774,-7.0911 0.009,-15.97673 -0.0175,-31.958 0.0131,-47.9319 0.75933,-1.77495 2.1902,-3.14703 3.95244,-3.9158 C 13.538695,116.40211 8.0289149,103.62108 4.6402749,90.228325 1.4908949,77.699037 -0.84604512,64.7052 0.29317488,51.746499 0.74187488,45.939583 3.0583349,40.436634 6.4669249,35.753579 2.9595149,28.684185 0.43889488,20.216881 3.2653749,12.479727 5.3086349,6.4701555 11.277575,2.4851343 17.484765,2.0213702 c 6.41019,-0.663843 12.74954,1.3966096 18.37801,4.3166771 5.879018,-4.3189118 13.134351,-6.67393789 20.440356,-6.44183872 0.449549,-0.006139 0.899095,-0.002841 1.348661,-0.00173 z M 43.521579,71.317869 c -2.584728,15.752252 -2.695157,31.760001 -2.613631,47.684161 -0.182389,3.048 0.279875,6.26428 -0.53651,9.20705 6.521197,0.35559 13.089327,0.23661 19.624939,0.0941 C 54.529251,117.85622 50.769123,106.48614 49.446573,94.747797 48.64634,88.872577 48.595064,82.77899 50.477047,77.09808 c 0.341266,-0.838557 0.367405,-1.684301 -0.682362,-1.987638 -2.03165,-1.318943 -4.140083,-2.803301 -6.273106,-3.792543 z" id="path1-2"/></g></svg>