G04 #@! TF.GenerationSoftware,KiCad,Pcbnew,(6.0.10-0)*
G04 #@! TF.CreationDate,2023-09-19T21:25:39+02:00*
G04 #@! TF.ProjectId,SwiftLeeds,53776966-744c-4656-9564-732e6b696361,rev?*
G04 #@! TF.SameCoordinates,Original*
G04 #@! TF.FileFunction,Legend,Top*
G04 #@! TF.FilePolarity,Positive*
%FSLAX46Y46*%
G04 Gerber Fmt 4.6, Leading zero omitted, Abs format (unit mm)*
G04 Created by KiCad (PCBNEW (6.0.10-0)) date 2023-09-19 21:25:39*
%MOMM*%
%LPD*%
G01*
G04 APERTURE LIST*
%ADD10C,0.000000*%
G04 APERTURE END LIST*
D10*
G36*
X153566781Y-108506106D02*
G01*
X153603552Y-108509068D01*
X153639451Y-108513935D01*
X153674459Y-108520652D01*
X153708559Y-108529162D01*
X153741733Y-108539409D01*
X153773963Y-108551337D01*
X153805231Y-108564890D01*
X153835519Y-108580011D01*
X153864809Y-108596644D01*
X153893084Y-108614734D01*
X153920325Y-108634223D01*
X153946515Y-108655056D01*
X153971635Y-108677176D01*
X153995669Y-108700528D01*
X154018597Y-108725054D01*
X154040403Y-108750699D01*
X154061068Y-108777407D01*
X154080574Y-108805121D01*
X154098903Y-108833785D01*
X154116038Y-108863343D01*
X154131961Y-108893738D01*
X154146654Y-108924916D01*
X154160098Y-108956818D01*
X154172277Y-108989390D01*
X154183171Y-109022574D01*
X154192764Y-109056315D01*
X154201037Y-109090556D01*
X154207973Y-109125242D01*
X154213553Y-109160315D01*
X154217760Y-109195721D01*
X154220576Y-109231402D01*
X152807673Y-109231402D01*
X152809870Y-109193745D01*
X152813627Y-109156614D01*
X152818920Y-109120054D01*
X152825724Y-109084107D01*
X152834015Y-109048819D01*
X152843767Y-109014233D01*
X152854956Y-108980393D01*
X152867557Y-108947342D01*
X152881545Y-108915125D01*
X152896895Y-108883786D01*
X152913583Y-108853367D01*
X152931584Y-108823914D01*
X152950874Y-108795470D01*
X152971426Y-108768079D01*
X152993217Y-108741785D01*
X153016222Y-108716631D01*
X153040416Y-108692662D01*
X153065774Y-108669921D01*
X153092271Y-108648453D01*
X153119883Y-108628301D01*
X153148585Y-108609509D01*
X153178353Y-108592120D01*
X153209160Y-108576180D01*
X153240983Y-108561731D01*
X153273797Y-108548818D01*
X153307577Y-108537484D01*
X153342298Y-108527774D01*
X153377935Y-108519730D01*
X153414465Y-108513398D01*
X153451861Y-108508821D01*
X153490099Y-108506042D01*
X153529155Y-108505106D01*
X153566781Y-108506106D01*
G37*
G36*
X150718440Y-108506106D02*
G01*
X150755211Y-108509068D01*
X150791109Y-108513935D01*
X150826117Y-108520652D01*
X150860216Y-108529162D01*
X150893390Y-108539409D01*
X150925619Y-108551337D01*
X150956887Y-108564890D01*
X150987175Y-108580011D01*
X151016465Y-108596644D01*
X151044739Y-108614734D01*
X151071981Y-108634223D01*
X151098171Y-108655056D01*
X151123291Y-108677176D01*
X151147325Y-108700528D01*
X151170254Y-108725054D01*
X151192059Y-108750699D01*
X151212724Y-108777407D01*
X151232231Y-108805121D01*
X151250560Y-108833785D01*
X151267696Y-108863343D01*
X151283619Y-108893738D01*
X151298311Y-108924916D01*
X151311756Y-108956818D01*
X151323934Y-108989390D01*
X151334829Y-109022574D01*
X151344422Y-109056315D01*
X151352695Y-109090556D01*
X151359631Y-109125242D01*
X151365211Y-109160315D01*
X151369418Y-109195721D01*
X151372233Y-109231402D01*
X149959330Y-109231402D01*
X149961527Y-109193745D01*
X149965285Y-109156614D01*
X149970578Y-109120054D01*
X149977383Y-109084107D01*
X149985673Y-109048819D01*
X149995426Y-109014233D01*
X150006615Y-108980393D01*
X150019216Y-108947342D01*
X150033204Y-108915125D01*
X150048555Y-108883786D01*
X150065243Y-108853367D01*
X150083244Y-108823914D01*
X150102534Y-108795470D01*
X150123086Y-108768079D01*
X150144877Y-108741785D01*
X150167882Y-108716631D01*
X150192076Y-108692662D01*
X150217434Y-108669921D01*
X150243932Y-108648453D01*
X150271544Y-108628301D01*
X150300246Y-108609509D01*
X150330013Y-108592120D01*
X150360821Y-108576180D01*
X150392644Y-108561731D01*
X150425458Y-108548818D01*
X150459238Y-108537484D01*
X150493959Y-108527774D01*
X150529596Y-108519730D01*
X150566126Y-108513398D01*
X150603522Y-108508821D01*
X150641760Y-108506042D01*
X150680815Y-108505106D01*
X150718440Y-108506106D01*
G37*
G36*
X157159114Y-108460177D02*
G01*
X157159110Y-108460177D01*
X157159110Y-108460171D01*
X157159114Y-108460177D01*
G37*
G36*
X156480802Y-108513648D02*
G01*
X156522941Y-108516783D01*
X156564022Y-108521982D01*
X156604025Y-108529226D01*
X156642927Y-108538493D01*
X156680706Y-108549764D01*
X156717340Y-108563017D01*
X156752807Y-108578232D01*
X156787085Y-108595388D01*
X156820152Y-108614465D01*
X156851986Y-108635442D01*
X156882565Y-108658299D01*
X156911867Y-108683015D01*
X156939870Y-108709570D01*
X156966552Y-108737942D01*
X156991891Y-108768112D01*
X157015864Y-108800059D01*
X157038451Y-108833762D01*
X157059628Y-108869201D01*
X157079374Y-108906355D01*
X157097668Y-108945203D01*
X157114485Y-108985725D01*
X157129806Y-109027901D01*
X157143607Y-109071710D01*
X157155868Y-109117131D01*
X157166565Y-109164144D01*
X157175676Y-109212728D01*
X157183180Y-109262862D01*
X157189056Y-109314527D01*
X157193279Y-109367701D01*
X157195830Y-109422364D01*
X157196685Y-109478495D01*
X157192698Y-109567079D01*
X157183460Y-109655433D01*
X157168828Y-109742799D01*
X157148658Y-109828422D01*
X157122807Y-109911544D01*
X157091133Y-109991408D01*
X157053491Y-110067258D01*
X157032388Y-110103442D01*
X157009740Y-110138337D01*
X156985528Y-110171851D01*
X156959735Y-110203888D01*
X156932343Y-110234354D01*
X156903334Y-110263154D01*
X156872690Y-110290194D01*
X156840394Y-110315379D01*
X156806427Y-110338614D01*
X156770771Y-110359805D01*
X156733409Y-110378858D01*
X156694323Y-110395677D01*
X156653495Y-110410167D01*
X156610907Y-110422236D01*
X156566540Y-110431787D01*
X156520378Y-110438726D01*
X156472402Y-110442959D01*
X156422595Y-110444391D01*
X156374132Y-110443045D01*
X156327375Y-110439063D01*
X156282314Y-110432527D01*
X156238937Y-110423523D01*
X156197234Y-110412133D01*
X156157193Y-110398441D01*
X156118803Y-110382531D01*
X156082053Y-110364486D01*
X156046933Y-110344390D01*
X156013431Y-110322326D01*
X155981537Y-110298379D01*
X155951238Y-110272632D01*
X155922525Y-110245168D01*
X155895387Y-110216072D01*
X155869811Y-110185426D01*
X155845788Y-110153315D01*
X155823306Y-110119821D01*
X155802354Y-110085030D01*
X155782921Y-110049023D01*
X155764997Y-110011886D01*
X155748570Y-109973701D01*
X155733629Y-109934552D01*
X155720163Y-109894524D01*
X155708162Y-109853698D01*
X155697613Y-109812160D01*
X155688507Y-109769992D01*
X155674577Y-109684104D01*
X155666284Y-109596702D01*
X155663539Y-109508455D01*
X155665957Y-109415831D01*
X155673374Y-109323777D01*
X155686030Y-109233040D01*
X155704169Y-109144365D01*
X155728033Y-109058498D01*
X155757864Y-108976185D01*
X155793904Y-108898172D01*
X155814328Y-108861011D01*
X155836395Y-108825204D01*
X155860135Y-108790845D01*
X155885579Y-108758028D01*
X155912757Y-108726844D01*
X155941699Y-108697389D01*
X155972435Y-108669754D01*
X156004997Y-108644032D01*
X156039413Y-108620318D01*
X156075714Y-108598705D01*
X156113931Y-108579285D01*
X156154094Y-108562152D01*
X156196233Y-108547399D01*
X156240378Y-108535119D01*
X156286560Y-108525406D01*
X156334809Y-108518353D01*
X156385155Y-108514052D01*
X156437629Y-108512598D01*
X156480802Y-108513648D01*
G37*
G36*
X151795859Y-112777676D02*
G01*
X151778342Y-112778552D01*
X151793279Y-112777665D01*
X151795859Y-112777676D01*
G37*
G36*
X146230727Y-111913082D02*
G01*
X146278816Y-111915858D01*
X146325500Y-111920484D01*
X146370779Y-111926960D01*
X146414651Y-111935287D01*
X146457119Y-111945464D01*
X146498180Y-111957492D01*
X146537836Y-111971370D01*
X146576087Y-111987098D01*
X146612932Y-112004677D01*
X146648372Y-112024107D01*
X146682406Y-112045387D01*
X146715035Y-112068517D01*
X146746258Y-112093498D01*
X146776076Y-112120330D01*
X146804488Y-112149012D01*
X146831331Y-112178967D01*
X146856442Y-112210424D01*
X146879822Y-112243380D01*
X146901470Y-112277838D01*
X146921385Y-112313796D01*
X146939569Y-112351254D01*
X146956022Y-112390213D01*
X146970742Y-112430673D01*
X146983731Y-112472633D01*
X146994987Y-112516094D01*
X147004512Y-112561055D01*
X147012306Y-112607516D01*
X147018367Y-112655478D01*
X147022696Y-112704941D01*
X147025294Y-112755904D01*
X147026160Y-112808367D01*
X147025294Y-112860841D01*
X147022696Y-112911841D01*
X147018367Y-112961364D01*
X147012306Y-113009413D01*
X147004512Y-113055986D01*
X146994987Y-113101083D01*
X146983731Y-113144706D01*
X146970742Y-113186853D01*
X146956022Y-113227524D01*
X146939569Y-113266721D01*
X146921385Y-113304442D01*
X146901470Y-113340688D01*
X146879822Y-113375458D01*
X146856442Y-113408754D01*
X146831331Y-113440574D01*
X146804488Y-113470919D01*
X146776076Y-113499212D01*
X146746258Y-113525679D01*
X146715035Y-113550321D01*
X146682406Y-113573139D01*
X146648372Y-113594131D01*
X146612932Y-113613297D01*
X146576087Y-113630639D01*
X146537836Y-113646155D01*
X146498180Y-113659845D01*
X146457119Y-113671711D01*
X146414651Y-113681751D01*
X146370779Y-113689965D01*
X146325500Y-113696354D01*
X146278816Y-113700918D01*
X146230727Y-113703656D01*
X146181231Y-113704569D01*
X146131724Y-113703656D01*
X146083596Y-113700919D01*
X146036849Y-113696356D01*
X145991483Y-113689967D01*
X145947497Y-113681754D01*
X145904892Y-113671715D01*
X145863667Y-113659850D01*
X145823823Y-113646160D01*
X145785359Y-113630645D01*
X145748276Y-113613304D01*
X145712573Y-113594137D01*
X145678250Y-113573145D01*
X145645308Y-113550327D01*
X145613747Y-113525684D01*
X145583565Y-113499214D01*
X145554765Y-113470919D01*
X145527921Y-113440574D01*
X145502809Y-113408754D01*
X145479429Y-113375458D01*
X145457781Y-113340688D01*
X145437865Y-113304442D01*
X145419681Y-113266721D01*
X145403229Y-113227524D01*
X145388508Y-113186853D01*
X145375520Y-113144706D01*
X145364263Y-113101083D01*
X145354738Y-113055986D01*
X145346945Y-113009413D01*
X145340884Y-112961364D01*
X145336554Y-112911841D01*
X145333956Y-112860841D01*
X145333091Y-112808367D01*
X145333957Y-112755905D01*
X145336554Y-112704943D01*
X145340884Y-112655482D01*
X145346945Y-112607521D01*
X145354738Y-112561061D01*
X145364263Y-112516101D01*
X145375520Y-112472641D01*
X145388509Y-112430681D01*
X145403229Y-112390222D01*
X145419682Y-112351263D01*
X145437866Y-112313804D01*
X145457782Y-112277845D01*
X145479430Y-112243387D01*
X145502810Y-112210428D01*
X145527921Y-112178970D01*
X145554765Y-112149012D01*
X145583565Y-112120330D01*
X145613747Y-112093498D01*
X145645308Y-112068517D01*
X145678250Y-112045387D01*
X145712573Y-112024107D01*
X145748276Y-112004677D01*
X145785359Y-111987098D01*
X145823823Y-111971370D01*
X145863667Y-111957492D01*
X145904892Y-111945464D01*
X145947497Y-111935287D01*
X145991483Y-111926960D01*
X146036849Y-111920484D01*
X146083596Y-111915858D01*
X146131724Y-111913082D01*
X146181231Y-111912157D01*
X146230727Y-111913082D01*
G37*
G36*
X133240714Y-111894973D02*
G01*
X133228490Y-111495264D01*
X133208868Y-109583315D01*
X134545201Y-109583315D01*
X134548621Y-109669528D01*
X134555994Y-109752691D01*
X134567223Y-109832824D01*
X134582210Y-109909947D01*
X134600858Y-109984082D01*
X134623068Y-110055248D01*
X134648743Y-110123466D01*
X134677785Y-110188757D01*
X134710096Y-110251142D01*
X134745580Y-110310641D01*
X134784138Y-110367274D01*
X134825672Y-110421062D01*
X134870084Y-110472026D01*
X134917278Y-110520187D01*
X134967155Y-110565564D01*
X135019618Y-110608178D01*
X135074569Y-110648051D01*
X135131910Y-110685202D01*
X135191544Y-110719652D01*
X135253372Y-110751422D01*
X135317298Y-110780531D01*
X135383223Y-110807002D01*
X135451050Y-110830854D01*
X135520681Y-110852108D01*
X135592019Y-110870785D01*
X135664965Y-110886904D01*
X135739422Y-110900488D01*
X135815293Y-110911555D01*
X135970883Y-110926225D01*
X136130954Y-110931078D01*
X136271769Y-110927088D01*
X136411637Y-110914948D01*
X136549436Y-110894407D01*
X136684042Y-110865212D01*
X136814333Y-110827111D01*
X136939185Y-110779851D01*
X137057476Y-110723182D01*
X137113810Y-110691239D01*
X137168083Y-110656849D01*
X137220154Y-110619980D01*
X137269882Y-110580601D01*
X137317128Y-110538681D01*
X137361752Y-110494187D01*
X137403612Y-110447087D01*
X137442568Y-110397352D01*
X137478481Y-110344949D01*
X137511209Y-110289846D01*
X137540612Y-110232012D01*
X137566551Y-110171415D01*
X137588884Y-110108025D01*
X137607471Y-110041808D01*
X137622172Y-109972735D01*
X137632847Y-109900773D01*
X137639354Y-109825891D01*
X137641555Y-109748057D01*
X137637411Y-109674690D01*
X137627773Y-109600906D01*
X137612609Y-109527167D01*
X137591885Y-109453932D01*
X137565568Y-109381662D01*
X137533626Y-109310818D01*
X137496025Y-109241861D01*
X137452732Y-109175250D01*
X137403714Y-109111448D01*
X137377048Y-109080743D01*
X137348939Y-109050914D01*
X137319382Y-109022016D01*
X137288373Y-108994109D01*
X137255908Y-108967249D01*
X137221983Y-108941494D01*
X137186594Y-108916901D01*
X137149737Y-108893529D01*
X137111407Y-108871435D01*
X137071600Y-108850676D01*
X137030313Y-108831310D01*
X136987541Y-108813394D01*
X136943280Y-108796987D01*
X136897527Y-108782145D01*
X136897528Y-108782145D01*
X136652104Y-108713354D01*
X136298175Y-108619292D01*
X135800278Y-108490137D01*
X135750629Y-108475210D01*
X135703224Y-108458474D01*
X135658198Y-108439873D01*
X135615682Y-108419353D01*
X135575807Y-108396858D01*
X135538707Y-108372335D01*
X135504513Y-108345728D01*
X135488548Y-108331625D01*
X135473358Y-108316981D01*
X135458961Y-108301789D01*
X135445373Y-108286042D01*
X135432611Y-108269732D01*
X135420691Y-108252854D01*
X135409630Y-108235399D01*
X135399444Y-108217362D01*
X135390149Y-108198736D01*
X135381763Y-108179513D01*
X135374302Y-108159687D01*
X135367782Y-108139250D01*
X135362219Y-108118197D01*
X135357631Y-108096520D01*
X135354034Y-108074212D01*
X135351444Y-108051266D01*
X135349878Y-108027676D01*
X135349353Y-108003435D01*
X135350483Y-107968420D01*
X135353817Y-107934956D01*
X135359267Y-107903013D01*
X135366747Y-107872564D01*
X135376170Y-107843578D01*
X135387449Y-107816028D01*
X135400498Y-107789885D01*
X135415230Y-107765120D01*
X135431558Y-107741704D01*
X135449396Y-107719608D01*
X135468657Y-107698803D01*
X135489254Y-107679262D01*
X135511101Y-107660954D01*
X135534110Y-107643851D01*
X135558195Y-107627925D01*
X135583270Y-107613146D01*
X135609248Y-107599486D01*
X135636042Y-107586916D01*
X135663565Y-107575407D01*
X135691730Y-107564930D01*
X135720452Y-107555457D01*
X135749643Y-107546959D01*
X135809085Y-107532772D01*
X135869365Y-107522138D01*
X135929787Y-107514828D01*
X135989659Y-107510611D01*
X136048287Y-107509257D01*
X136132705Y-107511394D01*
X136213876Y-107517929D01*
X136291546Y-107529049D01*
X136365462Y-107544940D01*
X136435370Y-107565789D01*
X136468743Y-107578130D01*
X136501018Y-107591782D01*
X136532165Y-107606765D01*
X136562153Y-107623105D01*
X136590948Y-107640824D01*
X136618520Y-107659946D01*
X136644837Y-107680493D01*
X136669868Y-107702490D01*
X136693580Y-107725959D01*
X136715942Y-107750924D01*
X136736922Y-107777408D01*
X136756489Y-107805435D01*
X136774612Y-107835027D01*
X136791258Y-107866208D01*
X136806395Y-107899002D01*
X136819993Y-107933431D01*
X136832019Y-107969519D01*
X136842442Y-108007290D01*
X136851230Y-108046766D01*
X136858351Y-108087971D01*
X136863775Y-108130928D01*
X136867469Y-108175661D01*
X137528827Y-108175661D01*
X137527043Y-108108256D01*
X137776847Y-108108256D01*
X138626088Y-110848711D01*
X139264897Y-110848711D01*
X139768431Y-108812098D01*
X139775941Y-108812098D01*
X140286990Y-110848711D01*
X140910769Y-110848711D01*
X142068141Y-110848711D01*
X142676890Y-110848711D01*
X142676890Y-108549997D01*
X142954966Y-108549997D01*
X143405892Y-108549997D01*
X143405892Y-110841196D01*
X144014640Y-110841196D01*
X144014640Y-108557520D01*
X144660962Y-108557520D01*
X145051764Y-108557520D01*
X145051764Y-110174837D01*
X145054591Y-110257926D01*
X145060643Y-110335893D01*
X145070504Y-110408704D01*
X145077046Y-110443166D01*
X145084758Y-110476327D01*
X145093715Y-110508183D01*
X145103989Y-110538730D01*
X145115652Y-110567963D01*
X145128779Y-110595878D01*
X145143441Y-110622472D01*
X145159712Y-110647740D01*
X145177664Y-110671678D01*
X145197372Y-110694283D01*
X145218906Y-110715549D01*
X145242341Y-110735473D01*
X145267750Y-110754050D01*
X145295204Y-110771277D01*
X145324778Y-110787150D01*
X145356545Y-110801664D01*
X145390576Y-110814815D01*
X145426945Y-110826599D01*
X145465725Y-110837012D01*
X145506989Y-110846050D01*
X145550810Y-110853709D01*
X145597261Y-110859985D01*
X145646415Y-110864873D01*
X145698344Y-110868370D01*
X145753121Y-110870471D01*
X145810820Y-110871172D01*
X145861212Y-110870191D01*
X145910986Y-110867543D01*
X145960233Y-110863666D01*
X146009039Y-110859000D01*
X146105682Y-110849063D01*
X146109531Y-110848711D01*
X146630000Y-110848711D01*
X149222819Y-110848711D01*
X149222819Y-110272173D01*
X147291358Y-110272173D01*
X147291358Y-109478487D01*
X149350581Y-109478487D01*
X149356194Y-109634065D01*
X149363183Y-109709462D01*
X149372937Y-109783183D01*
X149385437Y-109855165D01*
X149400667Y-109925347D01*
X149418607Y-109993666D01*
X149439240Y-110060063D01*
X149462549Y-110124474D01*
X149488515Y-110186838D01*
X149517120Y-110247093D01*
X149548347Y-110305179D01*
X149582177Y-110361032D01*
X149618593Y-110414591D01*
X149657577Y-110465795D01*
X149699111Y-110514582D01*
X149743177Y-110560890D01*
X149789757Y-110604657D01*
X149838833Y-110645823D01*
X149890388Y-110684324D01*
X149944403Y-110720100D01*
X150000861Y-110753089D01*
X150059743Y-110783228D01*
X150121033Y-110810457D01*
X150184711Y-110834714D01*
X150250760Y-110855936D01*
X150319163Y-110874063D01*
X150389900Y-110889032D01*
X150462955Y-110900783D01*
X150538310Y-110909252D01*
X150615946Y-110914379D01*
X150695845Y-110916102D01*
X150807450Y-110912171D01*
X150916523Y-110900454D01*
X151022646Y-110881058D01*
X151125400Y-110854095D01*
X151224366Y-110819673D01*
X151319128Y-110777902D01*
X151409265Y-110728892D01*
X151494361Y-110672754D01*
X151534887Y-110642045D01*
X151573996Y-110609595D01*
X151611635Y-110575418D01*
X151647752Y-110539527D01*
X151682295Y-110501935D01*
X151715211Y-110462658D01*
X151746449Y-110421708D01*
X151775955Y-110379099D01*
X151803678Y-110334844D01*
X151829565Y-110288959D01*
X151853564Y-110241455D01*
X151875622Y-110192348D01*
X151895688Y-110141649D01*
X151913710Y-110089375D01*
X151929633Y-110035537D01*
X151943408Y-109980150D01*
X151372233Y-109980150D01*
X151351263Y-110034637D01*
X151339836Y-110060623D01*
X151327772Y-110085767D01*
X151315063Y-110110067D01*
X151301704Y-110133519D01*
X151287687Y-110156121D01*
X151273006Y-110177871D01*
X151257653Y-110198765D01*
X151241621Y-110218800D01*
X151224904Y-110237975D01*
X151207495Y-110256286D01*
X151189387Y-110273730D01*
X151170573Y-110290305D01*
X151151046Y-110306008D01*
X151130800Y-110320836D01*
X151109826Y-110334787D01*
X151088120Y-110347858D01*
X151065673Y-110360045D01*
X151042478Y-110371348D01*
X151018530Y-110381761D01*
X150993821Y-110391284D01*
X150968343Y-110399912D01*
X150942091Y-110407644D01*
X150915057Y-110414477D01*
X150887235Y-110420407D01*
X150858617Y-110425433D01*
X150829197Y-110429551D01*
X150798968Y-110432758D01*
X150767923Y-110435053D01*
X150736055Y-110436432D01*
X150703357Y-110436892D01*
X150656942Y-110435783D01*
X150612106Y-110432499D01*
X150568842Y-110427101D01*
X150527142Y-110419650D01*
X150487000Y-110410208D01*
X150448409Y-110398838D01*
X150411361Y-110385600D01*
X150375851Y-110370557D01*
X150341871Y-110353769D01*
X150309415Y-110335300D01*
X150278474Y-110315210D01*
X150249044Y-110293561D01*
X150221116Y-110270415D01*
X150194684Y-110245833D01*
X150169741Y-110219878D01*
X150146280Y-110192611D01*
X150124294Y-110164093D01*
X150103776Y-110134387D01*
X150084720Y-110103554D01*
X150067118Y-110071656D01*
X150050964Y-110038754D01*
X150036251Y-110004910D01*
X150022972Y-109970186D01*
X150011120Y-109934644D01*
X150000688Y-109898345D01*
X149991669Y-109861351D01*
X149984056Y-109823723D01*
X149977843Y-109785524D01*
X149969589Y-109707657D01*
X149966849Y-109628245D01*
X151988494Y-109628245D01*
X151995152Y-109551863D01*
X151998140Y-109478487D01*
X152198928Y-109478487D01*
X152204540Y-109634065D01*
X152211529Y-109709462D01*
X152221283Y-109783183D01*
X152233783Y-109855165D01*
X152249012Y-109925347D01*
X152266952Y-109993666D01*
X152287585Y-110060063D01*
X152310893Y-110124474D01*
X152336859Y-110186838D01*
X152365464Y-110247093D01*
X152396690Y-110305179D01*
X152430520Y-110361032D01*
X152466936Y-110414591D01*
X152505919Y-110465795D01*
X152547453Y-110514582D01*
X152591518Y-110560890D01*
X152638098Y-110604657D01*
X152687174Y-110645823D01*
X152738729Y-110684324D01*
X152792744Y-110720100D01*
X152849201Y-110753089D01*
X152908084Y-110783228D01*
X152969373Y-110810457D01*
X153033051Y-110834714D01*
X153099101Y-110855936D01*
X153167503Y-110874063D01*
X153238241Y-110889032D01*
X153311296Y-110900783D01*
X153386651Y-110909252D01*
X153464288Y-110914379D01*
X153544188Y-110916102D01*
X153655792Y-110912171D01*
X153764864Y-110900454D01*
X153870985Y-110881058D01*
X153973738Y-110854095D01*
X154072704Y-110819673D01*
X154167465Y-110777902D01*
X154257602Y-110728892D01*
X154342697Y-110672754D01*
X154383223Y-110642045D01*
X154422332Y-110609595D01*
X154459971Y-110575418D01*
X154496088Y-110539527D01*
X154530630Y-110501935D01*
X154563547Y-110462658D01*
X154594784Y-110421708D01*
X154624290Y-110379099D01*
X154652013Y-110334844D01*
X154677900Y-110288959D01*
X154701899Y-110241455D01*
X154723958Y-110192348D01*
X154744024Y-110141649D01*
X154762045Y-110089375D01*
X154777969Y-110035537D01*
X154791743Y-109980150D01*
X154220572Y-109980150D01*
X154199603Y-110034637D01*
X154188176Y-110060623D01*
X154176112Y-110085767D01*
X154163403Y-110110067D01*
X154150044Y-110133519D01*
X154136028Y-110156121D01*
X154121346Y-110177871D01*
X154105993Y-110198765D01*
X154089961Y-110218800D01*
X154073244Y-110237975D01*
X154055835Y-110256286D01*
X154037727Y-110273730D01*
X154018913Y-110290305D01*
X153999386Y-110306008D01*
X153979140Y-110320836D01*
X153958166Y-110334787D01*
X153936460Y-110347858D01*
X153914013Y-110360045D01*
X153890819Y-110371348D01*
X153866870Y-110381761D01*
X153842161Y-110391284D01*
X153816684Y-110399912D01*
X153790432Y-110407644D01*
X153763399Y-110414477D01*
X153735577Y-110420407D01*
X153706960Y-110425433D01*
X153677541Y-110429551D01*
X153647312Y-110432758D01*
X153616268Y-110435053D01*
X153584400Y-110436432D01*
X153551703Y-110436892D01*
X153505289Y-110435783D01*
X153460452Y-110432499D01*
X153417187Y-110427101D01*
X153375487Y-110419650D01*
X153335345Y-110410208D01*
X153296753Y-110398838D01*
X153259706Y-110385600D01*
X153224195Y-110370557D01*
X153190215Y-110353769D01*
X153157758Y-110335300D01*
X153126817Y-110315210D01*
X153097386Y-110293561D01*
X153069458Y-110270415D01*
X153043026Y-110245833D01*
X153018082Y-110219878D01*
X152994621Y-110192611D01*
X152972635Y-110164093D01*
X152952117Y-110134387D01*
X152933061Y-110103554D01*
X152915459Y-110071656D01*
X152899305Y-110038754D01*
X152884591Y-110004910D01*
X152871312Y-109970186D01*
X152859459Y-109934644D01*
X152849027Y-109898345D01*
X152840008Y-109861351D01*
X152832396Y-109823723D01*
X152826183Y-109785524D01*
X152817928Y-109707657D01*
X152815188Y-109628245D01*
X154836837Y-109628245D01*
X154844156Y-109551863D01*
X154847829Y-109475837D01*
X154847851Y-109456026D01*
X155054793Y-109456026D01*
X155059731Y-109608154D01*
X155074565Y-109755236D01*
X155099330Y-109896615D01*
X155134057Y-110031632D01*
X155155168Y-110096550D01*
X155178781Y-110159630D01*
X155204902Y-110220791D01*
X155233534Y-110279951D01*
X155264682Y-110337026D01*
X155298349Y-110391935D01*
X155334540Y-110444596D01*
X155373259Y-110494926D01*
X155414510Y-110542843D01*
X155458297Y-110588264D01*
X155504625Y-110631109D01*
X155553496Y-110671293D01*
X155604917Y-110708735D01*
X155658890Y-110743354D01*
X155715420Y-110775065D01*
X155774511Y-110803788D01*
X155836167Y-110829440D01*
X155900392Y-110851938D01*
X155967190Y-110871201D01*
X156036566Y-110887146D01*
X156108524Y-110899691D01*
X156183067Y-110908753D01*
X156260200Y-110914251D01*
X156339927Y-110916102D01*
X156404702Y-110914513D01*
X156469202Y-110909711D01*
X156533152Y-110901640D01*
X156596276Y-110890247D01*
X156658298Y-110875475D01*
X156718945Y-110857270D01*
X156777940Y-110835577D01*
X156835008Y-110810341D01*
X156889875Y-110781508D01*
X156942265Y-110749022D01*
X156991902Y-110712830D01*
X157038512Y-110672875D01*
X157081819Y-110629103D01*
X157121549Y-110581459D01*
X157139986Y-110556168D01*
X157157425Y-110529889D01*
X157173833Y-110502614D01*
X157189173Y-110474337D01*
X157196685Y-110474337D01*
X157196685Y-110848711D01*
X157767855Y-110848711D01*
X157767855Y-109965182D01*
X158166179Y-109965182D01*
X158168370Y-110024564D01*
X158173493Y-110081977D01*
X158181488Y-110137427D01*
X158192290Y-110190920D01*
X158205840Y-110242460D01*
X158222075Y-110292053D01*
X158240932Y-110339705D01*
X158262351Y-110385421D01*
X158286268Y-110429207D01*
X158312623Y-110471068D01*
X158341353Y-110511010D01*
X158372396Y-110549037D01*
X158405691Y-110585157D01*
X158441175Y-110619373D01*
X158478786Y-110651692D01*
X158518463Y-110682119D01*
X158560144Y-110710659D01*
X158603766Y-110737318D01*
X158649268Y-110762102D01*
X158696588Y-110785016D01*
X158745664Y-110806065D01*
X158796434Y-110825255D01*
X158848835Y-110842591D01*
X158902808Y-110858079D01*
X158958288Y-110871725D01*
X159015214Y-110883533D01*
X159073525Y-110893510D01*
X159133158Y-110901660D01*
X159194052Y-110907990D01*
X159256145Y-110912504D01*
X159383677Y-110916109D01*
X159491561Y-110913259D01*
X159600304Y-110904541D01*
X159708827Y-110889703D01*
X159816050Y-110868492D01*
X159920895Y-110840656D01*
X160022284Y-110805944D01*
X160119137Y-110764102D01*
X160210375Y-110714878D01*
X160253551Y-110687420D01*
X160294919Y-110658021D01*
X160334344Y-110626651D01*
X160371692Y-110593278D01*
X160406826Y-110557870D01*
X160439613Y-110520396D01*
X160469917Y-110480825D01*
X160497604Y-110439125D01*
X160522539Y-110395263D01*
X160544586Y-110349210D01*
X160563612Y-110300933D01*
X160579481Y-110250400D01*
X160592058Y-110197581D01*
X160601209Y-110142444D01*
X160606798Y-110084956D01*
X160608691Y-110025088D01*
X160608770Y-109975655D01*
X160606247Y-109928401D01*
X160601206Y-109883267D01*
X160593730Y-109840193D01*
X160583904Y-109799122D01*
X160571812Y-109759992D01*
X160557538Y-109722747D01*
X160541165Y-109687327D01*
X160522778Y-109653672D01*
X160502459Y-109621725D01*
X160480295Y-109591425D01*
X160456367Y-109562714D01*
X160430761Y-109535534D01*
X160403560Y-109509824D01*
X160374848Y-109485527D01*
X160344709Y-109462583D01*
X160313227Y-109440933D01*
X160280485Y-109420518D01*
X160246569Y-109401280D01*
X160211561Y-109383159D01*
X160138608Y-109350033D01*
X160062297Y-109320670D01*
X159983299Y-109294596D01*
X159902287Y-109271342D01*
X159819931Y-109250434D01*
X159736903Y-109231402D01*
X159736895Y-109231402D01*
X159410093Y-109163429D01*
X159259065Y-109127820D01*
X159188996Y-109108035D01*
X159123451Y-109086331D01*
X159063102Y-109062257D01*
X159008621Y-109035365D01*
X158960679Y-109005205D01*
X158939370Y-108988758D01*
X158919948Y-108971326D01*
X158902496Y-108952852D01*
X158887099Y-108933280D01*
X158873840Y-108912553D01*
X158862804Y-108890616D01*
X158854074Y-108867412D01*
X158847735Y-108842885D01*
X158843870Y-108816978D01*
X158842562Y-108789637D01*
X158843495Y-108767740D01*
X158846234Y-108746956D01*
X158850693Y-108727259D01*
X158856786Y-108708619D01*
X158864425Y-108691011D01*
X158873525Y-108674406D01*
X158883997Y-108658777D01*
X158895757Y-108644097D01*
X158908716Y-108630338D01*
X158922789Y-108617474D01*
X158937888Y-108605475D01*
X158953927Y-108594316D01*
X158970820Y-108583968D01*
X158988479Y-108574405D01*
X159006817Y-108565598D01*
X159025749Y-108557521D01*
X159045187Y-108550146D01*
X159065045Y-108543445D01*
X159085236Y-108537391D01*
X159105673Y-108531957D01*
X159146940Y-108522839D01*
X159188152Y-108515870D01*
X159228616Y-108510832D01*
X159267637Y-108507505D01*
X159304523Y-108505669D01*
X159338580Y-108505106D01*
X159387595Y-108506101D01*
X159435840Y-108509201D01*
X159483072Y-108514583D01*
X159529049Y-108522422D01*
X159573529Y-108532893D01*
X159616269Y-108546172D01*
X159657028Y-108562435D01*
X159695563Y-108581856D01*
X159713921Y-108592806D01*
X159731632Y-108604612D01*
X159748666Y-108617295D01*
X159764993Y-108630877D01*
X159780582Y-108645381D01*
X159795403Y-108660828D01*
X159809426Y-108677240D01*
X159822621Y-108694640D01*
X159834957Y-108713048D01*
X159846404Y-108732488D01*
X159856932Y-108752980D01*
X159866510Y-108774547D01*
X159875108Y-108797211D01*
X159882696Y-108820994D01*
X159889244Y-108845918D01*
X159894721Y-108872004D01*
X160526019Y-108872004D01*
X160517708Y-108816238D01*
X160506912Y-108762639D01*
X160493704Y-108711182D01*
X160478151Y-108661841D01*
X160460326Y-108614588D01*
X160440297Y-108569400D01*
X160418135Y-108526248D01*
X160393910Y-108485108D01*
X160367693Y-108445953D01*
X160339554Y-108408757D01*
X160309562Y-108373494D01*
X160277788Y-108340139D01*
X160244302Y-108308664D01*
X160209175Y-108279044D01*
X160172476Y-108251254D01*
X160134275Y-108225266D01*
X160094644Y-108201055D01*
X160053651Y-108178594D01*
X160011368Y-108157859D01*
X159967864Y-108138822D01*
X159923210Y-108121458D01*
X159877475Y-108105740D01*
X159830730Y-108091643D01*
X159783046Y-108079141D01*
X159685138Y-108058815D01*
X159584312Y-108044554D01*
X159481131Y-108036151D01*
X159376155Y-108033396D01*
X159281501Y-108035644D01*
X159184337Y-108042609D01*
X159085851Y-108054619D01*
X158987234Y-108072004D01*
X158889673Y-108095091D01*
X158794358Y-108124212D01*
X158702478Y-108159694D01*
X158615221Y-108201866D01*
X158573698Y-108225564D01*
X158533777Y-108251059D01*
X158495607Y-108278390D01*
X158459335Y-108307600D01*
X158425111Y-108338729D01*
X158393083Y-108371819D01*
X158363401Y-108406910D01*
X158336211Y-108444044D01*
X158311664Y-108483263D01*
X158289908Y-108524606D01*
X158271091Y-108568116D01*
X158255362Y-108613833D01*
X158242869Y-108661798D01*
X158233762Y-108712053D01*
X158228189Y-108764639D01*
X158226298Y-108819597D01*
X158227562Y-108870411D01*
X158231302Y-108919001D01*
X158237439Y-108965424D01*
X158245894Y-109009739D01*
X158256590Y-109052003D01*
X158269448Y-109092274D01*
X158284389Y-109130608D01*
X158301335Y-109167064D01*
X158320208Y-109201700D01*
X158340929Y-109234572D01*
X158363420Y-109265739D01*
X158387602Y-109295258D01*
X158413396Y-109323187D01*
X158440725Y-109349582D01*
X158469510Y-109374503D01*
X158499673Y-109398006D01*
X158531134Y-109420149D01*
X158563816Y-109440989D01*
X158597640Y-109460584D01*
X158632528Y-109478993D01*
X158705182Y-109512478D01*
X158781148Y-109541904D01*
X158859801Y-109567734D01*
X158940513Y-109590427D01*
X159022655Y-109610443D01*
X159105601Y-109628245D01*
X159430408Y-109695398D01*
X159506711Y-109712461D01*
X159579865Y-109730643D01*
X159649276Y-109750449D01*
X159714350Y-109772382D01*
X159774492Y-109796948D01*
X159829108Y-109824650D01*
X159877602Y-109855994D01*
X159899369Y-109873189D01*
X159919382Y-109891484D01*
X159937567Y-109910941D01*
X159953851Y-109931625D01*
X159968159Y-109953596D01*
X159980417Y-109976920D01*
X159990549Y-110001658D01*
X159998483Y-110027875D01*
X160004144Y-110055632D01*
X160007457Y-110084994D01*
X160007672Y-110113693D01*
X160005572Y-110140854D01*
X160001265Y-110166517D01*
X159994859Y-110190725D01*
X159986460Y-110213518D01*
X159976176Y-110234937D01*
X159964114Y-110255023D01*
X159950381Y-110273818D01*
X159935086Y-110291362D01*
X159918334Y-110307697D01*
X159900234Y-110322864D01*
X159880893Y-110336904D01*
X159860418Y-110349858D01*
X159838916Y-110361768D01*
X159816495Y-110372674D01*
X159793263Y-110382617D01*
X159769326Y-110391639D01*
X159744791Y-110399781D01*
X159719767Y-110407084D01*
X159694360Y-110413589D01*
X159642828Y-110424370D01*
X159591054Y-110432452D01*
X159539896Y-110438166D01*
X159490213Y-110441840D01*
X159442864Y-110443803D01*
X159398707Y-110444384D01*
X159338776Y-110442868D01*
X159280353Y-110438227D01*
X159223714Y-110430318D01*
X159169134Y-110418997D01*
X159116887Y-110404123D01*
X159067250Y-110385553D01*
X159043496Y-110374837D01*
X159020497Y-110363144D01*
X158998288Y-110350455D01*
X158976904Y-110336753D01*
X158956378Y-110322020D01*
X158936745Y-110306238D01*
X158918040Y-110289390D01*
X158900296Y-110271457D01*
X158883549Y-110252422D01*
X158867833Y-110232266D01*
X158853182Y-110210973D01*
X158839630Y-110188524D01*
X158827212Y-110164901D01*
X158815962Y-110140086D01*
X158805915Y-110114063D01*
X158797105Y-110086812D01*
X158789567Y-110058316D01*
X158783334Y-110028558D01*
X158778442Y-109997519D01*
X158774924Y-109965182D01*
X158166179Y-109965182D01*
X157767855Y-109965182D01*
X157767855Y-107067492D01*
X157159110Y-107067492D01*
X157159110Y-108460171D01*
X157140934Y-108432603D01*
X157121652Y-108406030D01*
X157101311Y-108380450D01*
X157079952Y-108355854D01*
X157057619Y-108332234D01*
X157034355Y-108309581D01*
X157010202Y-108287889D01*
X156985202Y-108267147D01*
X156959399Y-108247349D01*
X156932834Y-108228486D01*
X156877593Y-108193531D01*
X156819820Y-108162218D01*
X156759856Y-108134480D01*
X156698043Y-108110251D01*
X156634721Y-108089466D01*
X156570233Y-108072060D01*
X156504919Y-108057965D01*
X156439120Y-108047118D01*
X156373179Y-108039451D01*
X156307436Y-108034899D01*
X156242232Y-108033396D01*
X156185928Y-108034672D01*
X156129816Y-108038514D01*
X156074002Y-108044945D01*
X156018589Y-108053986D01*
X155963683Y-108065660D01*
X155909388Y-108079987D01*
X155855808Y-108096991D01*
X155803049Y-108116693D01*
X155751214Y-108139115D01*
X155700409Y-108164279D01*
X155650738Y-108192207D01*
X155602305Y-108222921D01*
X155555215Y-108256443D01*
X155509573Y-108292794D01*
X155465483Y-108331997D01*
X155423050Y-108374074D01*
X155382378Y-108419047D01*
X155343573Y-108466937D01*
X155306738Y-108517766D01*
X155271978Y-108571557D01*
X155239398Y-108628331D01*
X155209102Y-108688111D01*
X155181195Y-108750918D01*
X155155782Y-108816774D01*
X155132967Y-108885701D01*
X155112854Y-108957721D01*
X155095549Y-109032856D01*
X155081156Y-109111129D01*
X155069779Y-109192560D01*
X155061523Y-109277172D01*
X155056493Y-109364987D01*
X155054793Y-109456026D01*
X154847851Y-109456026D01*
X154847911Y-109400301D01*
X154844455Y-109325392D01*
X154837515Y-109251245D01*
X154827144Y-109177997D01*
X154813396Y-109105782D01*
X154796325Y-109034736D01*
X154775983Y-108964996D01*
X154752426Y-108896697D01*
X154725707Y-108829974D01*
X154695879Y-108764964D01*
X154662996Y-108701802D01*
X154627112Y-108640623D01*
X154588280Y-108581565D01*
X154546554Y-108524761D01*
X154501988Y-108470349D01*
X154454635Y-108418464D01*
X154404549Y-108369241D01*
X154351784Y-108322816D01*
X154296393Y-108279325D01*
X154238430Y-108238904D01*
X154177949Y-108201688D01*
X154115003Y-108167814D01*
X154049647Y-108137416D01*
X153981933Y-108110632D01*
X153911915Y-108087595D01*
X153839647Y-108068442D01*
X153765183Y-108053310D01*
X153688577Y-108042333D01*
X153609882Y-108035647D01*
X153529151Y-108033388D01*
X153529155Y-108033396D01*
X153453265Y-108035331D01*
X153379219Y-108041070D01*
X153307052Y-108050510D01*
X153236802Y-108063550D01*
X153168507Y-108080090D01*
X153102202Y-108100026D01*
X153037926Y-108123259D01*
X152975715Y-108149685D01*
X152915607Y-108179205D01*
X152857639Y-108211717D01*
X152801848Y-108247118D01*
X152748271Y-108285308D01*
X152696946Y-108326185D01*
X152647909Y-108369648D01*
X152601197Y-108415595D01*
X152556849Y-108463926D01*
X152514900Y-108514537D01*
X152475389Y-108567328D01*
X152438351Y-108622198D01*
X152403825Y-108679045D01*
X152371848Y-108737767D01*
X152342456Y-108798264D01*
X152315687Y-108860433D01*
X152291579Y-108924174D01*
X152270167Y-108989384D01*
X152251490Y-109055962D01*
X152235584Y-109123808D01*
X152222487Y-109192819D01*
X152212235Y-109262893D01*
X152204867Y-109333931D01*
X152200419Y-109405829D01*
X152198928Y-109478487D01*
X151998140Y-109478487D01*
X151998248Y-109475837D01*
X151997833Y-109400301D01*
X151993955Y-109325392D01*
X151986664Y-109251245D01*
X151976010Y-109177997D01*
X151962043Y-109105782D01*
X151944811Y-109034736D01*
X151924365Y-108964996D01*
X151900754Y-108896697D01*
X151874027Y-108829974D01*
X151844234Y-108764964D01*
X151811425Y-108701802D01*
X151775648Y-108640623D01*
X151736955Y-108581565D01*
X151695393Y-108524761D01*
X151651014Y-108470349D01*
X151603865Y-108418464D01*
X151553998Y-108369241D01*
X151501460Y-108322816D01*
X151446303Y-108279325D01*
X151388575Y-108238904D01*
X151328326Y-108201688D01*
X151265605Y-108167814D01*
X151200463Y-108137416D01*
X151132948Y-108110632D01*
X151063110Y-108087595D01*
X150990999Y-108068442D01*
X150916664Y-108053310D01*
X150840155Y-108042333D01*
X150761521Y-108035647D01*
X150680812Y-108033388D01*
X150680815Y-108033396D01*
X150604926Y-108035331D01*
X150530879Y-108041070D01*
X150458712Y-108050510D01*
X150388462Y-108063550D01*
X150320166Y-108080090D01*
X150253861Y-108100026D01*
X150189584Y-108123259D01*
X150127373Y-108149685D01*
X150067265Y-108179205D01*
X150009297Y-108211717D01*
X149953505Y-108247118D01*
X149899928Y-108285308D01*
X149848602Y-108326185D01*
X149799565Y-108369648D01*
X149752853Y-108415595D01*
X149708504Y-108463926D01*
X149666556Y-108514537D01*
X149627044Y-108567328D01*
X149590006Y-108622198D01*
X149555480Y-108679045D01*
X149523502Y-108737767D01*
X149494110Y-108798264D01*
X149467341Y-108860433D01*
X149443232Y-108924174D01*
X149421821Y-108989384D01*
X149403143Y-109055962D01*
X149387237Y-109123808D01*
X149374140Y-109192819D01*
X149363889Y-109262893D01*
X149356520Y-109333931D01*
X149352072Y-109405829D01*
X149350581Y-109478487D01*
X147291358Y-109478487D01*
X147291358Y-107060000D01*
X146630000Y-107060000D01*
X146630000Y-110848711D01*
X146109531Y-110848711D01*
X146153695Y-110844671D01*
X146201621Y-110841250D01*
X146201621Y-110377024D01*
X146186037Y-110380980D01*
X146170298Y-110384443D01*
X146154428Y-110387444D01*
X146138447Y-110390018D01*
X146122378Y-110392196D01*
X146106243Y-110394013D01*
X146073862Y-110396691D01*
X146041481Y-110398315D01*
X146009275Y-110399149D01*
X145946097Y-110399500D01*
X145921452Y-110399127D01*
X145898220Y-110398010D01*
X145876357Y-110396150D01*
X145855825Y-110393548D01*
X145836580Y-110390206D01*
X145818582Y-110386124D01*
X145801789Y-110381306D01*
X145786161Y-110375750D01*
X145771655Y-110369460D01*
X145758231Y-110362437D01*
X145745848Y-110354681D01*
X145734463Y-110346195D01*
X145724037Y-110336979D01*
X145714526Y-110327035D01*
X145705891Y-110316365D01*
X145698090Y-110304969D01*
X145691082Y-110292849D01*
X145684825Y-110280007D01*
X145679278Y-110266444D01*
X145674400Y-110252161D01*
X145670149Y-110237159D01*
X145666484Y-110221441D01*
X145663365Y-110205006D01*
X145660749Y-110187858D01*
X145656863Y-110151423D01*
X145654496Y-110112148D01*
X145653318Y-110070042D01*
X145652999Y-110025118D01*
X145652999Y-108565050D01*
X146209140Y-108565050D01*
X146209136Y-108557520D01*
X146209136Y-108108256D01*
X145660514Y-108108256D01*
X145660514Y-107284632D01*
X145051764Y-107284632D01*
X145051764Y-108108256D01*
X144660962Y-108108256D01*
X144660962Y-108557520D01*
X144014640Y-108557520D01*
X144014640Y-108549997D01*
X144593323Y-108549997D01*
X144593323Y-108108256D01*
X144014640Y-108108256D01*
X144014640Y-107823733D01*
X144015033Y-107803153D01*
X144016199Y-107783519D01*
X144018120Y-107764812D01*
X144020775Y-107747013D01*
X144024146Y-107730102D01*
X144028214Y-107714061D01*
X144032958Y-107698870D01*
X144038360Y-107684509D01*
X144044401Y-107670960D01*
X144051061Y-107658204D01*
X144058321Y-107646221D01*
X144066161Y-107634992D01*
X144074563Y-107624498D01*
X144083508Y-107614720D01*
X144092975Y-107605638D01*
X144102946Y-107597234D01*
X144113401Y-107589488D01*
X144124322Y-107582380D01*
X144135688Y-107575892D01*
X144147481Y-107570005D01*
X144159681Y-107564699D01*
X144172269Y-107559955D01*
X144185227Y-107555755D01*
X144198533Y-107552077D01*
X144226118Y-107546217D01*
X144254870Y-107542222D01*
X144284635Y-107539937D01*
X144315259Y-107539210D01*
X144358648Y-107539575D01*
X144398867Y-107540730D01*
X144436267Y-107542761D01*
X144471201Y-107545756D01*
X144504022Y-107549804D01*
X144535082Y-107554991D01*
X144564732Y-107561404D01*
X144593325Y-107569132D01*
X144593325Y-107097414D01*
X144574561Y-107092055D01*
X144554883Y-107087201D01*
X144534258Y-107082830D01*
X144512653Y-107078921D01*
X144490036Y-107075450D01*
X144466372Y-107072397D01*
X144441629Y-107069739D01*
X144415775Y-107067454D01*
X144360598Y-107063915D01*
X144300577Y-107061606D01*
X144235448Y-107060349D01*
X144164946Y-107059969D01*
X144092020Y-107061485D01*
X144020128Y-107066477D01*
X143949778Y-107075615D01*
X143881475Y-107089569D01*
X143848250Y-107098560D01*
X143815727Y-107109006D01*
X143783968Y-107120991D01*
X143753038Y-107134597D01*
X143723000Y-107149909D01*
X143693917Y-107167009D01*
X143665852Y-107185983D01*
X143638869Y-107206913D01*
X143613031Y-107229883D01*
X143588401Y-107254977D01*
X143565042Y-107282278D01*
X143543019Y-107311870D01*
X143522393Y-107343837D01*
X143503229Y-107378262D01*
X143485589Y-107415228D01*
X143469538Y-107454820D01*
X143455138Y-107497121D01*
X143442453Y-107542215D01*
X143431545Y-107590185D01*
X143422479Y-107641116D01*
X143415317Y-107695089D01*
X143410123Y-107752190D01*
X143406960Y-107812502D01*
X143405892Y-107876108D01*
X143405892Y-108100741D01*
X142954966Y-108100741D01*
X142954966Y-108549997D01*
X142676890Y-108549997D01*
X142676890Y-108108256D01*
X142068141Y-108108256D01*
X142068141Y-110848711D01*
X140910769Y-110848711D01*
X141775042Y-108108256D01*
X141158784Y-108108256D01*
X140595118Y-110152376D01*
X140587609Y-110152376D01*
X140091592Y-108108256D01*
X139482840Y-108108256D01*
X138964276Y-110152376D01*
X138956767Y-110152376D01*
X138415656Y-108108256D01*
X137776847Y-108108256D01*
X137527043Y-108108256D01*
X137526905Y-108103031D01*
X137521205Y-108032561D01*
X137511822Y-107964259D01*
X137498853Y-107898136D01*
X137482394Y-107834202D01*
X137462542Y-107772465D01*
X137439392Y-107712935D01*
X137413042Y-107655622D01*
X137398839Y-107629061D01*
X142068141Y-107629061D01*
X142676890Y-107629061D01*
X142676890Y-107060000D01*
X142068141Y-107060000D01*
X142068141Y-107629061D01*
X137398839Y-107629061D01*
X137383587Y-107600536D01*
X137351124Y-107547686D01*
X137315749Y-107497082D01*
X137277559Y-107448733D01*
X137236649Y-107402649D01*
X137193116Y-107358840D01*
X137147057Y-107317315D01*
X137098568Y-107278083D01*
X137047745Y-107241155D01*
X136994684Y-107206540D01*
X136939482Y-107174247D01*
X136882235Y-107144286D01*
X136823040Y-107116667D01*
X136761992Y-107091399D01*
X136699188Y-107068493D01*
X136634725Y-107047956D01*
X136568698Y-107029800D01*
X136501205Y-107014034D01*
X136432341Y-107000667D01*
X136362202Y-106989708D01*
X136290886Y-106981169D01*
X136218488Y-106975057D01*
X136145104Y-106971383D01*
X136070832Y-106970156D01*
X135942514Y-106974295D01*
X135814735Y-106986769D01*
X135688564Y-107007667D01*
X135565068Y-107037076D01*
X135445314Y-107075084D01*
X135330372Y-107121778D01*
X135221309Y-107177248D01*
X135169315Y-107208300D01*
X135119191Y-107241579D01*
X135071072Y-107277096D01*
X135025089Y-107314861D01*
X134981377Y-107354885D01*
X134940069Y-107397180D01*
X134901298Y-107441756D01*
X134865199Y-107488625D01*
X134831904Y-107537797D01*
X134801547Y-107589283D01*
X134774261Y-107643094D01*
X134750181Y-107699242D01*
X134729439Y-107757736D01*
X134712169Y-107818589D01*
X134698504Y-107881812D01*
X134688579Y-107947414D01*
X134682525Y-108015407D01*
X134680478Y-108085802D01*
X134682748Y-108158838D01*
X134689828Y-108231709D01*
X134702127Y-108304076D01*
X134720051Y-108375598D01*
X134731250Y-108410936D01*
X134744009Y-108445935D01*
X134758377Y-108480553D01*
X134774406Y-108514748D01*
X134792147Y-108548476D01*
X134811651Y-108581696D01*
X134832969Y-108614364D01*
X134856151Y-108646439D01*
X134881249Y-108677877D01*
X134908313Y-108708637D01*
X134937395Y-108738676D01*
X134968545Y-108767951D01*
X135001814Y-108796420D01*
X135037253Y-108824040D01*
X135074914Y-108850769D01*
X135114846Y-108876565D01*
X135157101Y-108901384D01*
X135201730Y-108925184D01*
X135248784Y-108947924D01*
X135298314Y-108969559D01*
X135350370Y-108990049D01*
X135405003Y-109009349D01*
X135462265Y-109027419D01*
X135522206Y-109044214D01*
X135880245Y-109138625D01*
X136182624Y-109215489D01*
X136315802Y-109250631D01*
X136438500Y-109285334D01*
X136551863Y-109320916D01*
X136657035Y-109358690D01*
X136686588Y-109370567D01*
X136715911Y-109383858D01*
X136744771Y-109398751D01*
X136772937Y-109415432D01*
X136800178Y-109434087D01*
X136813380Y-109444213D01*
X136826264Y-109454903D01*
X136838801Y-109466179D01*
X136850962Y-109478066D01*
X136862719Y-109490586D01*
X136874042Y-109503762D01*
X136884903Y-109517619D01*
X136895272Y-109532179D01*
X136905122Y-109547466D01*
X136914422Y-109563502D01*
X136923144Y-109580312D01*
X136931260Y-109597918D01*
X136938739Y-109616344D01*
X136945555Y-109635614D01*
X136951676Y-109655749D01*
X136957075Y-109676775D01*
X136961723Y-109698713D01*
X136965590Y-109721588D01*
X136968649Y-109745422D01*
X136970869Y-109770239D01*
X136972222Y-109796063D01*
X136972680Y-109822916D01*
X136972037Y-109849582D01*
X136970089Y-109876196D01*
X136966809Y-109902706D01*
X136962170Y-109929060D01*
X136956144Y-109955205D01*
X136948703Y-109981089D01*
X136939819Y-110006661D01*
X136929467Y-110031868D01*
X136917616Y-110056659D01*
X136904242Y-110080980D01*
X136889315Y-110104781D01*
X136872808Y-110128009D01*
X136854694Y-110150611D01*
X136834945Y-110172536D01*
X136813533Y-110193732D01*
X136790432Y-110214146D01*
X136765613Y-110233726D01*
X136739050Y-110252421D01*
X136710714Y-110270178D01*
X136680578Y-110286946D01*
X136648615Y-110302671D01*
X136614796Y-110317302D01*
X136579095Y-110330787D01*
X136541484Y-110343074D01*
X136501936Y-110354110D01*
X136460422Y-110363844D01*
X136416916Y-110372223D01*
X136371390Y-110379196D01*
X136323816Y-110384710D01*
X136274166Y-110388713D01*
X136222414Y-110391153D01*
X136168532Y-110391977D01*
X136069795Y-110389312D01*
X135973996Y-110381185D01*
X135881611Y-110367397D01*
X135793112Y-110347753D01*
X135708973Y-110322055D01*
X135668686Y-110306873D01*
X135629667Y-110290104D01*
X135591974Y-110271723D01*
X135555667Y-110251704D01*
X135520804Y-110230024D01*
X135487446Y-110206658D01*
X135455652Y-110181580D01*
X135425479Y-110154767D01*
X135396989Y-110126193D01*
X135370239Y-110095835D01*
X135345289Y-110063666D01*
X135322198Y-110029664D01*
X135301025Y-109993802D01*
X135281830Y-109956056D01*
X135264672Y-109916402D01*
X135249609Y-109874815D01*
X135236701Y-109831270D01*
X135226008Y-109785743D01*
X135217588Y-109738208D01*
X135211500Y-109688642D01*
X135207804Y-109637019D01*
X135206559Y-109583315D01*
X134545201Y-109583315D01*
X133208868Y-109583315D01*
X133184554Y-107214239D01*
X133170389Y-102932565D01*
X133193949Y-98651046D01*
X133263188Y-94370482D01*
X133298319Y-94244772D01*
X133338769Y-94120878D01*
X133384387Y-93998908D01*
X133435021Y-93878972D01*
X133550727Y-93645638D01*
X133684667Y-93421752D01*
X133835625Y-93208189D01*
X134002382Y-93005826D01*
X134183720Y-92815536D01*
X134378422Y-92638196D01*
X134585269Y-92474681D01*
X134803043Y-92325866D01*
X135030526Y-92192627D01*
X135266500Y-92075839D01*
X135509748Y-91976377D01*
X135759051Y-91895118D01*
X136013191Y-91832935D01*
X136209435Y-91800783D01*
X144517640Y-91800783D01*
X146488029Y-91838962D01*
X148460323Y-91856692D01*
X149446250Y-91852603D01*
X150431531Y-91837056D01*
X151415793Y-91807939D01*
X152398661Y-91763136D01*
X152343019Y-91541138D01*
X152298280Y-91316834D01*
X152263313Y-91090484D01*
X152236986Y-90862345D01*
X152218169Y-90632677D01*
X152205729Y-90401739D01*
X152195457Y-89937087D01*
X152201666Y-89003935D01*
X152200044Y-88539576D01*
X152183204Y-88079458D01*
X152178986Y-83296949D01*
X152139185Y-80904966D01*
X152059933Y-78514617D01*
X151930492Y-76127492D01*
X151740120Y-73745181D01*
X151478076Y-71369274D01*
X151133620Y-69001360D01*
X151133620Y-69001374D01*
X150973131Y-69077841D01*
X150812904Y-69158564D01*
X150493360Y-69331229D01*
X150175232Y-69516271D01*
X149858768Y-69710593D01*
X149544213Y-69911099D01*
X149231812Y-70114691D01*
X148614455Y-70518746D01*
X148576190Y-70530752D01*
X148540400Y-70543990D01*
X148507030Y-70558419D01*
X148476024Y-70573999D01*
X148447326Y-70590689D01*
X148420879Y-70608450D01*
X148396629Y-70627240D01*
X148374518Y-70647021D01*
X148354492Y-70667750D01*
X148336494Y-70689389D01*
X148320468Y-70711897D01*
X148306358Y-70735234D01*
X148294109Y-70759359D01*
X148283663Y-70784232D01*
X148274967Y-70809813D01*
X148267963Y-70836062D01*
X148262595Y-70862938D01*
X148258808Y-70890401D01*
X148256546Y-70918411D01*
X148255753Y-70946928D01*
X148258348Y-71005320D01*
X148266147Y-71065255D01*
X148278702Y-71126411D01*
X148295566Y-71188467D01*
X148316291Y-71251099D01*
X148340430Y-71313986D01*
X148473155Y-71742026D01*
X148588381Y-72173567D01*
X148686805Y-72608237D01*
X148769122Y-73045667D01*
X148836030Y-73485488D01*
X148888225Y-73927329D01*
X148926405Y-74370821D01*
X148951265Y-74815594D01*
X148963502Y-75261278D01*
X148963814Y-75707503D01*
X148952896Y-76153899D01*
X148931446Y-76600097D01*
X148859734Y-77490419D01*
X148754252Y-78375509D01*
X148643268Y-79254310D01*
X148509771Y-80129332D01*
X148354192Y-81000250D01*
X148176959Y-81866739D01*
X147978502Y-82728474D01*
X147759252Y-83585129D01*
X147519638Y-84436381D01*
X147260089Y-85281902D01*
X146981036Y-86121369D01*
X146682908Y-86954455D01*
X146366136Y-87780836D01*
X146031148Y-88600187D01*
X145678375Y-89412183D01*
X145308246Y-90216497D01*
X144921191Y-91012806D01*
X144517640Y-91800783D01*
X136209435Y-91800783D01*
X136270951Y-91790705D01*
X136255694Y-86434199D01*
X136238587Y-85739518D01*
X136232404Y-85042311D01*
X136220728Y-83645580D01*
X136199194Y-82948689D01*
X136156501Y-82254536D01*
X136124714Y-81908898D01*
X136084629Y-81564438D01*
X136035244Y-81221320D01*
X135975556Y-80879709D01*
X135867661Y-80916743D01*
X135760947Y-80957925D01*
X135655303Y-81002818D01*
X135550620Y-81050987D01*
X135446786Y-81101994D01*
X135343690Y-81155402D01*
X135139272Y-81267677D01*
X134734428Y-81501828D01*
X134532231Y-81616718D01*
X134329003Y-81725493D01*
X131217597Y-86546412D01*
X131129082Y-86681383D01*
X131035036Y-86811363D01*
X130935685Y-86936306D01*
X130831257Y-87056166D01*
X130608077Y-87280456D01*
X130367314Y-87483869D01*
X130110786Y-87666038D01*
X129840312Y-87826599D01*
X129557708Y-87965188D01*
X129264794Y-88081438D01*
X128963387Y-88174986D01*
X128655305Y-88245465D01*
X128342366Y-88292512D01*
X128026388Y-88315761D01*
X127709189Y-88314847D01*
X127392587Y-88289405D01*
X127078401Y-88239070D01*
X126768447Y-88163477D01*
X126634863Y-88115927D01*
X126503987Y-88063378D01*
X126250473Y-87943877D01*
X126008134Y-87806175D01*
X125777201Y-87651469D01*
X125557903Y-87480959D01*
X125350469Y-87295844D01*
X125155130Y-87097323D01*
X124972114Y-86886594D01*
X124801653Y-86664857D01*
X124643974Y-86433310D01*
X124499308Y-86193153D01*
X124367885Y-85945584D01*
X124249935Y-85691803D01*
X124145686Y-85433008D01*
X124055369Y-85170398D01*
X123979213Y-84905173D01*
X123881047Y-84852634D01*
X123779647Y-84805438D01*
X123675522Y-84762651D01*
X123569181Y-84723337D01*
X123351881Y-84651390D01*
X123131815Y-84582119D01*
X122913050Y-84508045D01*
X122805427Y-84466870D01*
X122699653Y-84421689D01*
X122596239Y-84371569D01*
X122495691Y-84315573D01*
X122398520Y-84252768D01*
X122305232Y-84182219D01*
X122126536Y-84069242D01*
X121957032Y-83946630D01*
X121796766Y-83814914D01*
X121645783Y-83674627D01*
X121504130Y-83526299D01*
X121371853Y-83370463D01*
X121248999Y-83207652D01*
X121135613Y-83038396D01*
X121031743Y-82863229D01*
X120937435Y-82682681D01*
X120852734Y-82497286D01*
X120777686Y-82307574D01*
X120712339Y-82114078D01*
X120656739Y-81917330D01*
X120610932Y-81717862D01*
X120574963Y-81516205D01*
X120548880Y-81312892D01*
X120532728Y-81108455D01*
X120526555Y-80903426D01*
X120530405Y-80698336D01*
X120544326Y-80493718D01*
X120568364Y-80290103D01*
X120602565Y-80088024D01*
X120646975Y-79888013D01*
X120701640Y-79690601D01*
X120766607Y-79496320D01*
X120841923Y-79305703D01*
X120927633Y-79119281D01*
X121023783Y-78937587D01*
X121130421Y-78761152D01*
X121247592Y-78590508D01*
X121375342Y-78426188D01*
X121632878Y-78185886D01*
X121899431Y-77956998D01*
X122174038Y-77738328D01*
X122455740Y-77528678D01*
X122743576Y-77326850D01*
X123036586Y-77131647D01*
X123634285Y-76756324D01*
X124849513Y-76032486D01*
X125451674Y-75664810D01*
X125748029Y-75475342D01*
X126039955Y-75280523D01*
X126133275Y-75238046D01*
X126224207Y-75192142D01*
X126399063Y-75090587D01*
X126564848Y-74976929D01*
X126721882Y-74852238D01*
X126870490Y-74717585D01*
X127010992Y-74574040D01*
X127143711Y-74422673D01*
X127268971Y-74264555D01*
X127387093Y-74100757D01*
X127498399Y-73932349D01*
X127603213Y-73760400D01*
X127701856Y-73585983D01*
X127794651Y-73410167D01*
X127881921Y-73234023D01*
X128041173Y-72885031D01*
X126706399Y-72760995D01*
X125367685Y-72675543D01*
X124025995Y-72620335D01*
X122682295Y-72587032D01*
X117306688Y-72506071D01*
X117236395Y-72517879D01*
X117166778Y-72526810D01*
X117097821Y-72532952D01*
X117029510Y-72536392D01*
X116961827Y-72537215D01*
X116894758Y-72535509D01*
X116762395Y-72524854D01*
X116632296Y-72505119D01*
X116504332Y-72476997D01*
X116378379Y-72441180D01*
X116254308Y-72398361D01*
X116131995Y-72349232D01*
X116011311Y-72294485D01*
X115892131Y-72234813D01*
X115774328Y-72170909D01*
X115657776Y-72103464D01*
X115542347Y-72033172D01*
X115314356Y-71886814D01*
X115115071Y-71758616D01*
X114928161Y-71618180D01*
X114753629Y-71466291D01*
X114591480Y-71303732D01*
X114441718Y-71131288D01*
X114304347Y-70949742D01*
X114179370Y-70759877D01*
X114066792Y-70562479D01*
X113966617Y-70358329D01*
X113878849Y-70148213D01*
X113803491Y-69932913D01*
X113740548Y-69713214D01*
X113690024Y-69489899D01*
X113651922Y-69263753D01*
X113626248Y-69035558D01*
X113613004Y-68806099D01*
X113612444Y-68647186D01*
X116694658Y-68647186D01*
X116695321Y-68665791D01*
X116696661Y-68684455D01*
X116698684Y-68703163D01*
X116701399Y-68721900D01*
X116704812Y-68740652D01*
X116720812Y-68777213D01*
X116729519Y-68794773D01*
X116738695Y-68811841D01*
X116748343Y-68828411D01*
X116758461Y-68844475D01*
X116769049Y-68860027D01*
X116780109Y-68875059D01*
X116791638Y-68889563D01*
X116803639Y-68903532D01*
X116816110Y-68916960D01*
X116829051Y-68929837D01*
X116842463Y-68942158D01*
X116856346Y-68953915D01*
X116870700Y-68965101D01*
X116885524Y-68975708D01*
X116900818Y-68985728D01*
X116916584Y-68995156D01*
X116932819Y-69003982D01*
X116949526Y-69012201D01*
X116966703Y-69019804D01*
X116984350Y-69026784D01*
X117002469Y-69033135D01*
X117021057Y-69038848D01*
X117040117Y-69043916D01*
X117059647Y-69048333D01*
X117079648Y-69052090D01*
X117100119Y-69055180D01*
X117121061Y-69057596D01*
X117142473Y-69059331D01*
X117164356Y-69060378D01*
X117186710Y-69060728D01*
X118685112Y-69008841D01*
X120326577Y-68986883D01*
X122397232Y-69005716D01*
X123554681Y-69039366D01*
X124772838Y-69093940D01*
X126036173Y-69173011D01*
X127329156Y-69280155D01*
X128636257Y-69418947D01*
X129941947Y-69592962D01*
X131230694Y-69805775D01*
X132486970Y-70060961D01*
X132535081Y-70073601D01*
X132581493Y-70088936D01*
X132626155Y-70106851D01*
X132669016Y-70127227D01*
X132710023Y-70149947D01*
X132749126Y-70174894D01*
X132786273Y-70201951D01*
X132821413Y-70231001D01*
X132854494Y-70261926D01*
X132885464Y-70294610D01*
X132914273Y-70328934D01*
X132940868Y-70364782D01*
X132965198Y-70402037D01*
X132987212Y-70440581D01*
X133006859Y-70480297D01*
X133024086Y-70521068D01*
X133038843Y-70562777D01*
X133051077Y-70605306D01*
X133060738Y-70648539D01*
X133067774Y-70692358D01*
X133072133Y-70736645D01*
X133073764Y-70781285D01*
X133072616Y-70826158D01*
X133068637Y-70871149D01*
X133061775Y-70916140D01*
X133051979Y-70961013D01*
X133039198Y-71005653D01*
X133023381Y-71049940D01*
X133004475Y-71093759D01*
X132982429Y-71136992D01*
X132957192Y-71179521D01*
X132928712Y-71221230D01*
X132444460Y-71894903D01*
X131983739Y-72567168D01*
X131543725Y-73240372D01*
X131121593Y-73916857D01*
X130714521Y-74598968D01*
X130319685Y-75289049D01*
X129934261Y-75989446D01*
X129555425Y-76702501D01*
X129532366Y-76739991D01*
X129508365Y-76777363D01*
X129483423Y-76814500D01*
X129457540Y-76851286D01*
X129430715Y-76887603D01*
X129402950Y-76923334D01*
X129374243Y-76958362D01*
X129344595Y-76992569D01*
X129314006Y-77025838D01*
X129282475Y-77058052D01*
X129250004Y-77089095D01*
X129216591Y-77118847D01*
X129182237Y-77147194D01*
X129146941Y-77174016D01*
X129110705Y-77199197D01*
X129073527Y-77222620D01*
X123852965Y-80423369D01*
X123834495Y-80434969D01*
X123816738Y-80447251D01*
X123799702Y-80460192D01*
X123783394Y-80473770D01*
X123767821Y-80487964D01*
X123752991Y-80502751D01*
X123738911Y-80518110D01*
X123725588Y-80534018D01*
X123713030Y-80550454D01*
X123701245Y-80567395D01*
X123690238Y-80584819D01*
X123680018Y-80602705D01*
X123670593Y-80621031D01*
X123661969Y-80639774D01*
X123654154Y-80658913D01*
X123647155Y-80678426D01*
X123640979Y-80698290D01*
X123635635Y-80718484D01*
X123631129Y-80738986D01*
X123627468Y-80759773D01*
X123624660Y-80780824D01*
X123622713Y-80802117D01*
X123621633Y-80823630D01*
X123621428Y-80845340D01*
X123622106Y-80867227D01*
X123623674Y-80889267D01*
X123626138Y-80911439D01*
X123629507Y-80933721D01*
X123633788Y-80956091D01*
X123638987Y-80978527D01*
X123645114Y-81001006D01*
X123652174Y-81023508D01*
X123660169Y-81042025D01*
X123669076Y-81060059D01*
X123678866Y-81077595D01*
X123689508Y-81094618D01*
X123700974Y-81111113D01*
X123713235Y-81127066D01*
X123726260Y-81142463D01*
X123740020Y-81157288D01*
X123754486Y-81171527D01*
X123769629Y-81185166D01*
X123785418Y-81198189D01*
X123801826Y-81210582D01*
X123818821Y-81222330D01*
X123836376Y-81233419D01*
X123854460Y-81243835D01*
X123873044Y-81253561D01*
X123892098Y-81262584D01*
X123911594Y-81270890D01*
X123931502Y-81278463D01*
X123951792Y-81285288D01*
X123972434Y-81291352D01*
X123993401Y-81296639D01*
X124014661Y-81301135D01*
X124036187Y-81304825D01*
X124057947Y-81307694D01*
X124079913Y-81309729D01*
X124102056Y-81310913D01*
X124124346Y-81311233D01*
X124146754Y-81310674D01*
X124169250Y-81309221D01*
X124191805Y-81306860D01*
X124214389Y-81303576D01*
X129153843Y-79063055D01*
X129161371Y-79059536D01*
X129168892Y-79056472D01*
X129176399Y-79053847D01*
X129183883Y-79051647D01*
X129191338Y-79049857D01*
X129198756Y-79048462D01*
X129206130Y-79047449D01*
X129213453Y-79046802D01*
X129220716Y-79046506D01*
X129227914Y-79046548D01*
X129242081Y-79047583D01*
X129255895Y-79049791D01*
X129269298Y-79053053D01*
X129282230Y-79057253D01*
X129294632Y-79062274D01*
X129306446Y-79067998D01*
X129317613Y-79074308D01*
X129328074Y-79081086D01*
X129337771Y-79088217D01*
X129346644Y-79095582D01*
X129354634Y-79103064D01*
X129362144Y-79111024D01*
X129369537Y-79119864D01*
X129376694Y-79129525D01*
X129383498Y-79139947D01*
X129389831Y-79151072D01*
X129395577Y-79162842D01*
X129400616Y-79175198D01*
X129402834Y-79181578D01*
X129404832Y-79188082D01*
X129406594Y-79194703D01*
X129408107Y-79201434D01*
X129409354Y-79208268D01*
X129410322Y-79215197D01*
X129410996Y-79222214D01*
X129411362Y-79229311D01*
X129411403Y-79236482D01*
X129411107Y-79243719D01*
X129410457Y-79251014D01*
X129409440Y-79258361D01*
X129408040Y-79265751D01*
X129406244Y-79273178D01*
X129404035Y-79280635D01*
X129401400Y-79288113D01*
X129398324Y-79295606D01*
X129394792Y-79303106D01*
X127145935Y-84224447D01*
X127142638Y-84246834D01*
X127140268Y-84268979D01*
X127138810Y-84290875D01*
X127138248Y-84312515D01*
X127139758Y-84354995D01*
X127144680Y-84396362D01*
X127152896Y-84436557D01*
X127164288Y-84475521D01*
X127178740Y-84513196D01*
X127196133Y-84549523D01*
X127216349Y-84584443D01*
X127239271Y-84617898D01*
X127264782Y-84649829D01*
X127292764Y-84680178D01*
X127323098Y-84708886D01*
X127355668Y-84735895D01*
X127390355Y-84761145D01*
X127427043Y-84784578D01*
X127446095Y-84791612D01*
X127465573Y-84797716D01*
X127485434Y-84802897D01*
X127505634Y-84807161D01*
X127546870Y-84812973D01*
X127588931Y-84815210D01*
X127631461Y-84813930D01*
X127674110Y-84809193D01*
X127716523Y-84801057D01*
X127758348Y-84789580D01*
X127799231Y-84774821D01*
X127838821Y-84756838D01*
X127876763Y-84735691D01*
X127912705Y-84711438D01*
X127929816Y-84698165D01*
X127946295Y-84684137D01*
X127962097Y-84669362D01*
X127977178Y-84653847D01*
X127991495Y-84637600D01*
X128005002Y-84620627D01*
X128017657Y-84602937D01*
X128029415Y-84584536D01*
X131242068Y-79383124D01*
X131265579Y-79346084D01*
X131290854Y-79309983D01*
X131317777Y-79274818D01*
X131346229Y-79240592D01*
X131376093Y-79207303D01*
X131407251Y-79174952D01*
X131439585Y-79143538D01*
X131472979Y-79113062D01*
X131507313Y-79083524D01*
X131542471Y-79054923D01*
X131578335Y-79027260D01*
X131614788Y-79000535D01*
X131651711Y-78974748D01*
X131688986Y-78949899D01*
X131726498Y-78925987D01*
X131764127Y-78903013D01*
X132479836Y-78525582D01*
X133182839Y-78141586D01*
X133875489Y-77748214D01*
X134560139Y-77342651D01*
X135239141Y-76922085D01*
X135914850Y-76483702D01*
X136589617Y-76024690D01*
X137265796Y-75542235D01*
X137307660Y-75513860D01*
X137350347Y-75488716D01*
X137393741Y-75466752D01*
X137437723Y-75447915D01*
X137482175Y-75432156D01*
X137526980Y-75419422D01*
X137572021Y-75409663D01*
X137617179Y-75402827D01*
X137662338Y-75398862D01*
X137707378Y-75397718D01*
X137752184Y-75399343D01*
X137796636Y-75403686D01*
X137840618Y-75410696D01*
X137884011Y-75420321D01*
X137926699Y-75432510D01*
X137968563Y-75447212D01*
X138009486Y-75464376D01*
X138049350Y-75483950D01*
X138088037Y-75505882D01*
X138125430Y-75530123D01*
X138161412Y-75556619D01*
X138195864Y-75585321D01*
X138228669Y-75616176D01*
X138259709Y-75649135D01*
X138288867Y-75684144D01*
X138316024Y-75721153D01*
X138341064Y-75760111D01*
X138363869Y-75800966D01*
X138384320Y-75843668D01*
X138402301Y-75888164D01*
X138417694Y-75934404D01*
X138430381Y-75982336D01*
X138686517Y-77233957D01*
X138900122Y-78517934D01*
X139074784Y-79818793D01*
X139214093Y-81121061D01*
X139401001Y-83667935D01*
X139489553Y-86034772D01*
X139508455Y-88097788D01*
X139486415Y-89733201D01*
X139434335Y-91226080D01*
X139435737Y-91263559D01*
X139439903Y-91300862D01*
X139446776Y-91337813D01*
X139456296Y-91374237D01*
X139468405Y-91409958D01*
X139483042Y-91444800D01*
X139500151Y-91478587D01*
X139519671Y-91511143D01*
X139541545Y-91542293D01*
X139565712Y-91571861D01*
X139592115Y-91599670D01*
X139620694Y-91625545D01*
X139651392Y-91649311D01*
X139684148Y-91670791D01*
X139718904Y-91689809D01*
X139737013Y-91698340D01*
X139755601Y-91706190D01*
X139786602Y-91712285D01*
X139819132Y-91715567D01*
X139852839Y-91716036D01*
X139887370Y-91713692D01*
X139922371Y-91708534D01*
X139957490Y-91700564D01*
X139992373Y-91689780D01*
X140026668Y-91676183D01*
X140060022Y-91659773D01*
X140092082Y-91640550D01*
X140107516Y-91629884D01*
X140122494Y-91618514D01*
X140136973Y-91606441D01*
X140150907Y-91593665D01*
X140164253Y-91580185D01*
X140176967Y-91566002D01*
X140189004Y-91551116D01*
X140200320Y-91535526D01*
X140210872Y-91519233D01*
X140220615Y-91502237D01*
X140229505Y-91484538D01*
X140237498Y-91466135D01*
X140237496Y-91466135D01*
X141041562Y-90131839D01*
X141768213Y-88749246D01*
X142419097Y-87332891D01*
X142995861Y-85897310D01*
X143500152Y-84457038D01*
X143933618Y-83026611D01*
X144297904Y-81620563D01*
X144594659Y-80253429D01*
X144825529Y-78939746D01*
X144992162Y-77694047D01*
X145096205Y-76530870D01*
X145139304Y-75464747D01*
X145123108Y-74510216D01*
X145049262Y-73681811D01*
X144919415Y-72994067D01*
X144735213Y-72461519D01*
X144659005Y-72298835D01*
X144581090Y-72140898D01*
X144501646Y-71987766D01*
X144420849Y-71839499D01*
X144338876Y-71696155D01*
X144255902Y-71557793D01*
X144172105Y-71424471D01*
X144087661Y-71296248D01*
X144002746Y-71173182D01*
X143917538Y-71055332D01*
X143832211Y-70942757D01*
X143746944Y-70835515D01*
X143661911Y-70733665D01*
X143577291Y-70637265D01*
X143493259Y-70546375D01*
X143409991Y-70461052D01*
X143391639Y-70441952D01*
X143374235Y-70422186D01*
X143357788Y-70401789D01*
X143342303Y-70380799D01*
X143327790Y-70359252D01*
X143314254Y-70337185D01*
X143301703Y-70314635D01*
X143290145Y-70291637D01*
X143279587Y-70268230D01*
X143270037Y-70244449D01*
X143261501Y-70220330D01*
X143253987Y-70195912D01*
X143247503Y-70171230D01*
X143242056Y-70146320D01*
X143237652Y-70121220D01*
X143234301Y-70095967D01*
X143232008Y-70070596D01*
X143230781Y-70045144D01*
X143230628Y-70019649D01*
X143231555Y-69994146D01*
X143233572Y-69968672D01*
X143236683Y-69943265D01*
X143240898Y-69917960D01*
X143246223Y-69892794D01*
X143252665Y-69867804D01*
X143260233Y-69843027D01*
X143268933Y-69818498D01*
X143278773Y-69794255D01*
X143289760Y-69770335D01*
X143301901Y-69746774D01*
X143315204Y-69723608D01*
X143329676Y-69700875D01*
X143591126Y-69268049D01*
X143819340Y-68854506D01*
X144015905Y-68459834D01*
X144182411Y-68083624D01*
X144320445Y-67725465D01*
X144431595Y-67384946D01*
X144517451Y-67061658D01*
X144579600Y-66755190D01*
X144619631Y-66465133D01*
X144639131Y-66191075D01*
X144639690Y-65932606D01*
X144622895Y-65689317D01*
X144590335Y-65460797D01*
X144543599Y-65246636D01*
X144484273Y-65046423D01*
X144413947Y-64859749D01*
X144398427Y-64829742D01*
X144382024Y-64799735D01*
X144364798Y-64769728D01*
X144346807Y-64739721D01*
X144308766Y-64679706D01*
X144268372Y-64619692D01*
X144226096Y-64559678D01*
X144182408Y-64499664D01*
X144092681Y-64379637D01*
X144069621Y-64357141D01*
X144045621Y-64334704D01*
X144020679Y-64312384D01*
X143994795Y-64290241D01*
X143967971Y-64268331D01*
X143940205Y-64246715D01*
X143911498Y-64225450D01*
X143881850Y-64204596D01*
X143851260Y-64184210D01*
X143819730Y-64164352D01*
X143787258Y-64145080D01*
X143753845Y-64126453D01*
X143719491Y-64108528D01*
X143684196Y-64091366D01*
X143647959Y-64075024D01*
X143610781Y-64059561D01*
X143422971Y-63989496D01*
X143220808Y-63930390D01*
X143004056Y-63883827D01*
X142772480Y-63851388D01*
X142525844Y-63834655D01*
X142263914Y-63835212D01*
X141986454Y-63854640D01*
X141693229Y-63894523D01*
X141384003Y-63956441D01*
X141058542Y-64041979D01*
X140716609Y-64152718D01*
X140357970Y-64290240D01*
X139982389Y-64456128D01*
X139589631Y-64651965D01*
X139179461Y-64879332D01*
X138751643Y-65139813D01*
X138728825Y-65154231D01*
X138705573Y-65167485D01*
X138681924Y-65179582D01*
X138657914Y-65190528D01*
X138633582Y-65200331D01*
X138608962Y-65208999D01*
X138584092Y-65216539D01*
X138559009Y-65222958D01*
X138508351Y-65232462D01*
X138457281Y-65237571D01*
X138406093Y-65238342D01*
X138355082Y-65234836D01*
X138304541Y-65227109D01*
X138254765Y-65215222D01*
X138206048Y-65199232D01*
X138158684Y-65179198D01*
X138112967Y-65155179D01*
X138069191Y-65127233D01*
X138027650Y-65095419D01*
X138007810Y-65078080D01*
X137988639Y-65059796D01*
X137896381Y-64977276D01*
X137800241Y-64894757D01*
X137700100Y-64812238D01*
X137595842Y-64729719D01*
X137487348Y-64647200D01*
X137374502Y-64564681D01*
X137257184Y-64482161D01*
X137135278Y-64399642D01*
X137008666Y-64317123D01*
X136877231Y-64234604D01*
X136740854Y-64152084D01*
X136599418Y-64069565D01*
X136452805Y-63987046D01*
X136300898Y-63904527D01*
X136143579Y-63822008D01*
X135980731Y-63739489D01*
X135733850Y-63641063D01*
X135446204Y-63555970D01*
X134755907Y-63426604D01*
X133924429Y-63353032D01*
X132966358Y-63336895D01*
X131896284Y-63379835D01*
X130728796Y-63483492D01*
X129478481Y-63649507D01*
X128159928Y-63879522D01*
X126787727Y-64175176D01*
X125376465Y-64538112D01*
X123940733Y-64969971D01*
X122495117Y-65472392D01*
X121054208Y-66047018D01*
X119632593Y-66695489D01*
X118244862Y-67419447D01*
X116905603Y-68220532D01*
X116890780Y-68232016D01*
X116876435Y-68243955D01*
X116862575Y-68256333D01*
X116849209Y-68269137D01*
X116836342Y-68282350D01*
X116823982Y-68295959D01*
X116800815Y-68324306D01*
X116779765Y-68354059D01*
X116760892Y-68385101D01*
X116744254Y-68417315D01*
X116729911Y-68450585D01*
X116717920Y-68484792D01*
X116708341Y-68519820D01*
X116704475Y-68537605D01*
X116701233Y-68555551D01*
X116698624Y-68573643D01*
X116696655Y-68591868D01*
X116695332Y-68610209D01*
X116694664Y-68628654D01*
X116694658Y-68647186D01*
X113612444Y-68647186D01*
X113612194Y-68576160D01*
X113623824Y-68346523D01*
X113647896Y-68117974D01*
X113684415Y-67891295D01*
X113733385Y-67667271D01*
X113794810Y-67446685D01*
X113868693Y-67230321D01*
X113955040Y-67018962D01*
X114053853Y-66813393D01*
X114165137Y-66614398D01*
X114288895Y-66422759D01*
X114425133Y-66239262D01*
X114573853Y-66064689D01*
X114735060Y-65899824D01*
X114908758Y-65745451D01*
X115094951Y-65602354D01*
X115822395Y-65126943D01*
X116564045Y-64675932D01*
X117319008Y-64248619D01*
X118086394Y-63844301D01*
X118865313Y-63462273D01*
X119654872Y-63101832D01*
X120454181Y-62762275D01*
X121262348Y-62442898D01*
X122078484Y-62142998D01*
X122901697Y-61861871D01*
X123731095Y-61598814D01*
X124565788Y-61353123D01*
X126247494Y-60911026D01*
X127939688Y-60529953D01*
X129211590Y-60310330D01*
X130500482Y-60123560D01*
X131149100Y-60048121D01*
X131799328Y-59987647D01*
X132450285Y-59944387D01*
X133101092Y-59920591D01*
X133750870Y-59918511D01*
X134398739Y-59940396D01*
X135043820Y-59988497D01*
X135685233Y-60065064D01*
X136322099Y-60172348D01*
X136953539Y-60312598D01*
X137578673Y-60488064D01*
X138196622Y-60700998D01*
X138437394Y-60349623D01*
X138673878Y-59994560D01*
X138906212Y-59636178D01*
X139134536Y-59274847D01*
X139358989Y-58910939D01*
X139579708Y-58544822D01*
X140010503Y-57807446D01*
X139736174Y-57757337D01*
X139460785Y-57712222D01*
X139184579Y-57671111D01*
X138907797Y-57633018D01*
X137799731Y-57491057D01*
X135461911Y-57214358D01*
X133118716Y-57024760D01*
X130771303Y-56904825D01*
X128420832Y-56837110D01*
X119011519Y-56739649D01*
X118804618Y-56753743D01*
X118597791Y-56758557D01*
X118391456Y-56754031D01*
X118186032Y-56740105D01*
X117981938Y-56716721D01*
X117779592Y-56683819D01*
X117579415Y-56641339D01*
X117381823Y-56589223D01*
X117187237Y-56527410D01*
X116996075Y-56455841D01*
X116808755Y-56374458D01*
X116625698Y-56283200D01*
X116447320Y-56182008D01*
X116274042Y-56070823D01*
X116106282Y-55949586D01*
X115944459Y-55818237D01*
X115769502Y-55676695D01*
X115605187Y-55525810D01*
X115451526Y-55366175D01*
X115308535Y-55198384D01*
X115176226Y-55023030D01*
X115054615Y-54840706D01*
X114943713Y-54652006D01*
X114843536Y-54457523D01*
X114754096Y-54257850D01*
X114675409Y-54053580D01*
X114607486Y-53845308D01*
X114550343Y-53633625D01*
X114503993Y-53419127D01*
X114468450Y-53202405D01*
X114443727Y-52984054D01*
X114429839Y-52764666D01*
X114427710Y-52610770D01*
X117970883Y-52610770D01*
X117972093Y-52641526D01*
X117974775Y-52672266D01*
X117978956Y-52702956D01*
X117984667Y-52733558D01*
X117991937Y-52764035D01*
X118000795Y-52794351D01*
X118011271Y-52824469D01*
X118023149Y-52854235D01*
X118036174Y-52883496D01*
X118050316Y-52912215D01*
X118065547Y-52940355D01*
X118081837Y-52967880D01*
X118099156Y-52994752D01*
X118117475Y-53020936D01*
X118136765Y-53046395D01*
X118156996Y-53071092D01*
X118178139Y-53094991D01*
X118200164Y-53118054D01*
X118223043Y-53140245D01*
X118246744Y-53161528D01*
X118271240Y-53181866D01*
X118296501Y-53201223D01*
X118322497Y-53219561D01*
X118349199Y-53236844D01*
X118376577Y-53253035D01*
X118404602Y-53268099D01*
X118433246Y-53281997D01*
X118462477Y-53294694D01*
X118492267Y-53306153D01*
X118522587Y-53316337D01*
X118553406Y-53325210D01*
X118584697Y-53332735D01*
X118616428Y-53338876D01*
X118648571Y-53343595D01*
X118681097Y-53346856D01*
X118713975Y-53348623D01*
X118747177Y-53348859D01*
X118780673Y-53347527D01*
X118814434Y-53344590D01*
X121318045Y-53263947D01*
X124048016Y-53232767D01*
X127488598Y-53269573D01*
X129410955Y-53327975D01*
X131433667Y-53420780D01*
X133530971Y-53553789D01*
X135677099Y-53732805D01*
X137846287Y-53963631D01*
X140012769Y-54252067D01*
X142150780Y-54603916D01*
X144234553Y-55024981D01*
X144312306Y-55046046D01*
X144387382Y-55071603D01*
X144459693Y-55101452D01*
X144529151Y-55135397D01*
X144595668Y-55173239D01*
X144659156Y-55214780D01*
X144719525Y-55259824D01*
X144776689Y-55308171D01*
X144830558Y-55359625D01*
X144881045Y-55413987D01*
X144928062Y-55471059D01*
X144971519Y-55530645D01*
X145011329Y-55592545D01*
X145047404Y-55656562D01*
X145079655Y-55722499D01*
X145107994Y-55790158D01*
X145132333Y-55859340D01*
X145152583Y-55929849D01*
X145168658Y-56001485D01*
X145180467Y-56074052D01*
X145187923Y-56147352D01*
X145190938Y-56221186D01*
X145189423Y-56295357D01*
X145183290Y-56369668D01*
X145172452Y-56443920D01*
X145156819Y-56517915D01*
X145136303Y-56591457D01*
X145110817Y-56664346D01*
X145080272Y-56736385D01*
X145044580Y-56807377D01*
X145003652Y-56877124D01*
X144957400Y-56945427D01*
X144541229Y-57530564D01*
X144135412Y-58115700D01*
X143739007Y-58700836D01*
X143351073Y-59285973D01*
X142596853Y-60456245D01*
X141865222Y-61626517D01*
X141861805Y-61630266D01*
X141859065Y-61634008D01*
X141856971Y-61637736D01*
X141855496Y-61641442D01*
X141854608Y-61645118D01*
X141854280Y-61648758D01*
X141854480Y-61652353D01*
X141855181Y-61655898D01*
X141856353Y-61659384D01*
X141857966Y-61662804D01*
X141859990Y-61666150D01*
X141862397Y-61669416D01*
X141865157Y-61672595D01*
X141868240Y-61675677D01*
X141871617Y-61678658D01*
X141875259Y-61681528D01*
X141879137Y-61684282D01*
X141883220Y-61686910D01*
X141887480Y-61689407D01*
X141891887Y-61691765D01*
X141896411Y-61693976D01*
X141901024Y-61696033D01*
X141905696Y-61697929D01*
X141910397Y-61699657D01*
X141915098Y-61701209D01*
X141919770Y-61702578D01*
X141924382Y-61703756D01*
X141928907Y-61704736D01*
X141933314Y-61705512D01*
X141937574Y-61706075D01*
X141941657Y-61706418D01*
X141945535Y-61706534D01*
X142373823Y-61510345D01*
X142785405Y-61341058D01*
X143180516Y-61197441D01*
X143559391Y-61078262D01*
X143922266Y-60982293D01*
X144269376Y-60908301D01*
X144600955Y-60855056D01*
X144917240Y-60821327D01*
X145218466Y-60805884D01*
X145504868Y-60807496D01*
X145776681Y-60824932D01*
X146034140Y-60856961D01*
X146277482Y-60902352D01*
X146506941Y-60959875D01*
X146722752Y-61028299D01*
X146925151Y-61106394D01*
X146969416Y-61122316D01*
X147011976Y-61139996D01*
X147053006Y-61159317D01*
X147092683Y-61180162D01*
X147131184Y-61202413D01*
X147168685Y-61225954D01*
X147205363Y-61250667D01*
X147241394Y-61276434D01*
X147276954Y-61303139D01*
X147312220Y-61330665D01*
X147382576Y-61387709D01*
X147527522Y-61506487D01*
X147557621Y-61536963D01*
X147587602Y-61568377D01*
X147617349Y-61600728D01*
X147646742Y-61634017D01*
X147675664Y-61668244D01*
X147703999Y-61703408D01*
X147731627Y-61739511D01*
X147758432Y-61776550D01*
X147784296Y-61814528D01*
X147809101Y-61853443D01*
X147832729Y-61893296D01*
X147855064Y-61934087D01*
X147875986Y-61975815D01*
X147895379Y-62018481D01*
X147913125Y-62062085D01*
X147929107Y-62106627D01*
X148007491Y-62315308D01*
X148076170Y-62536414D01*
X148133907Y-62770180D01*
X148179467Y-63016839D01*
X148211615Y-63276626D01*
X148229116Y-63549775D01*
X148230733Y-63836522D01*
X148215233Y-64137099D01*
X148181379Y-64451743D01*
X148127936Y-64780686D01*
X148053668Y-65124164D01*
X147957342Y-65482412D01*
X147837720Y-65855663D01*
X147693568Y-66244151D01*
X147523650Y-66648112D01*
X147326731Y-67067780D01*
X147326848Y-67071529D01*
X147327192Y-67075272D01*
X147327757Y-67079000D01*
X147328535Y-67082705D01*
X147329520Y-67086382D01*
X147330702Y-67090022D01*
X147332076Y-67093617D01*
X147333634Y-67097162D01*
X147335368Y-67100648D01*
X147337271Y-67104068D01*
X147339336Y-67107414D01*
X147341555Y-67110680D01*
X147343922Y-67113859D01*
X147346428Y-67116941D01*
X147349066Y-67119922D01*
X147351830Y-67122792D01*
X147354711Y-67125545D01*
X147357702Y-67128174D01*
X147360797Y-67130671D01*
X147363987Y-67133029D01*
X147367265Y-67135240D01*
X147370624Y-67137297D01*
X147374057Y-67139193D01*
X147377556Y-67140921D01*
X147381113Y-67142472D01*
X147384722Y-67143841D01*
X147388376Y-67145019D01*
X147392066Y-67146000D01*
X147395785Y-67146775D01*
X147399526Y-67147338D01*
X147403283Y-67147681D01*
X147407046Y-67147797D01*
X148581675Y-66418878D01*
X149756302Y-65667454D01*
X150343614Y-65280958D01*
X150930927Y-64886023D01*
X151518239Y-64481710D01*
X152105552Y-64067082D01*
X152174109Y-64020888D01*
X152244116Y-63979786D01*
X152315372Y-63943709D01*
X152387680Y-63912592D01*
X152460840Y-63886369D01*
X152534655Y-63864973D01*
X152608926Y-63848340D01*
X152683454Y-63836402D01*
X152758042Y-63829095D01*
X152832489Y-63826351D01*
X152906598Y-63828105D01*
X152980170Y-63834292D01*
X153053007Y-63844845D01*
X153124910Y-63859698D01*
X153195681Y-63878786D01*
X153265121Y-63902042D01*
X153333031Y-63929401D01*
X153399213Y-63960796D01*
X153463469Y-63996162D01*
X153525600Y-64035433D01*
X153585407Y-64078542D01*
X153642692Y-64125425D01*
X153697256Y-64176014D01*
X153748901Y-64230244D01*
X153797428Y-64288049D01*
X153842639Y-64349363D01*
X153884335Y-64414121D01*
X153922318Y-64482256D01*
X153956389Y-64553702D01*
X153986349Y-64628393D01*
X154012001Y-64706264D01*
X154033145Y-64787249D01*
X154455776Y-66863740D01*
X154808935Y-68995032D01*
X155098445Y-71155281D01*
X155330129Y-73318638D01*
X155643315Y-77551294D01*
X155795084Y-81486229D01*
X155832026Y-84916671D01*
X155800731Y-87635851D01*
X155719786Y-90113333D01*
X155722120Y-90180341D01*
X155729042Y-90246177D01*
X155740434Y-90310606D01*
X155756180Y-90373393D01*
X155776161Y-90434306D01*
X155800260Y-90493108D01*
X155828358Y-90549567D01*
X155860340Y-90603446D01*
X155896086Y-90654512D01*
X155935480Y-90702531D01*
X155978403Y-90747268D01*
X156024738Y-90788488D01*
X156074367Y-90825957D01*
X156127172Y-90859441D01*
X156183037Y-90888705D01*
X156241843Y-90913515D01*
X156302502Y-90926185D01*
X156363808Y-90934224D01*
X156425467Y-90937692D01*
X156487185Y-90936647D01*
X156548667Y-90931148D01*
X156609621Y-90921253D01*
X156669750Y-90907021D01*
X156728762Y-90888511D01*
X156786362Y-90865781D01*
X156842256Y-90838890D01*
X156896150Y-90807897D01*
X156947751Y-90772859D01*
X156996762Y-90733836D01*
X157042892Y-90690887D01*
X157085845Y-90644070D01*
X157125327Y-90593443D01*
X157125327Y-90593447D01*
X158460869Y-88376940D01*
X159668231Y-86079676D01*
X160750060Y-83725919D01*
X161709002Y-81339932D01*
X162547706Y-78945978D01*
X163268817Y-76568319D01*
X163874984Y-74231220D01*
X164368852Y-71958943D01*
X164753071Y-69775752D01*
X165030285Y-67705909D01*
X165203144Y-65773678D01*
X165274293Y-64003322D01*
X165246380Y-62419104D01*
X165122053Y-61045288D01*
X164903957Y-59906136D01*
X164594741Y-59025912D01*
X164458756Y-58745973D01*
X164321948Y-58476174D01*
X164046331Y-57966290D01*
X163768832Y-57494852D01*
X163490392Y-57060454D01*
X163211951Y-56661690D01*
X162934452Y-56297151D01*
X162658836Y-55965433D01*
X162386042Y-55665129D01*
X162356747Y-55631026D01*
X162329099Y-55596255D01*
X162303098Y-55560855D01*
X162278745Y-55524862D01*
X162256038Y-55488312D01*
X162234978Y-55451241D01*
X162197801Y-55375687D01*
X162167211Y-55298491D01*
X162143211Y-55219948D01*
X162125798Y-55140349D01*
X162114974Y-55059989D01*
X162110739Y-54979159D01*
X162113092Y-54898154D01*
X162122033Y-54817266D01*
X162137563Y-54736789D01*
X162159681Y-54657014D01*
X162188388Y-54578236D01*
X162223683Y-54500747D01*
X162265567Y-54424841D01*
X162703659Y-53705064D01*
X163085986Y-53015763D01*
X163415134Y-52356470D01*
X163693692Y-51726714D01*
X163924249Y-51126027D01*
X164109392Y-50553941D01*
X164251711Y-50009987D01*
X164353792Y-49493695D01*
X164418226Y-49004597D01*
X164447600Y-48542224D01*
X164444502Y-48106108D01*
X164411521Y-47695778D01*
X164351245Y-47310767D01*
X164266262Y-46950606D01*
X164159162Y-46614825D01*
X164032531Y-46302957D01*
X164009461Y-46250913D01*
X163985391Y-46199808D01*
X163960263Y-46149640D01*
X163934017Y-46100410D01*
X163906594Y-46052117D01*
X163877936Y-46004763D01*
X163847984Y-45958345D01*
X163816679Y-45912866D01*
X163783963Y-45868325D01*
X163749775Y-45824721D01*
X163714058Y-45782054D01*
X163676753Y-45740326D01*
X163637801Y-45699535D01*
X163597143Y-45659682D01*
X163554720Y-45620767D01*
X163510474Y-45582789D01*
X163471913Y-45545300D01*
X163431647Y-45507928D01*
X163389851Y-45470791D01*
X163346702Y-45434005D01*
X163302377Y-45397688D01*
X163257052Y-45361957D01*
X163210903Y-45326929D01*
X163164108Y-45292722D01*
X163116841Y-45259453D01*
X163069281Y-45227238D01*
X163021603Y-45196196D01*
X162973983Y-45166443D01*
X162926599Y-45138096D01*
X162879627Y-45111274D01*
X162833243Y-45086092D01*
X162787623Y-45062669D01*
X162474593Y-44943100D01*
X162137563Y-44841289D01*
X161776061Y-44759991D01*
X161389617Y-44701959D01*
X160977761Y-44669950D01*
X160540021Y-44666717D01*
X160075928Y-44695014D01*
X159585010Y-44757597D01*
X159066798Y-44857220D01*
X158520820Y-44996637D01*
X157946605Y-45178603D01*
X157343684Y-45405873D01*
X156711586Y-45681201D01*
X156049839Y-46007341D01*
X155357974Y-46387049D01*
X154635520Y-46823078D01*
X154558889Y-46864806D01*
X154479906Y-46899971D01*
X154399040Y-46928571D01*
X154316763Y-46950608D01*
X154233545Y-46966080D01*
X154149856Y-46974988D01*
X154066167Y-46977333D01*
X153982949Y-46973113D01*
X153900672Y-46962329D01*
X153819806Y-46944981D01*
X153740824Y-46921069D01*
X153664194Y-46890594D01*
X153590388Y-46853554D01*
X153554690Y-46832572D01*
X153519875Y-46809950D01*
X153486002Y-46785686D01*
X153453128Y-46759782D01*
X153421313Y-46732236D01*
X153390616Y-46703050D01*
X153243759Y-46567569D01*
X153089195Y-46431268D01*
X152926749Y-46294263D01*
X152756243Y-46156673D01*
X152577502Y-46018613D01*
X152390349Y-45880202D01*
X152194607Y-45741557D01*
X151990101Y-45602794D01*
X151776652Y-45464031D01*
X151554086Y-45325386D01*
X151322226Y-45186975D01*
X151080894Y-45048915D01*
X150829915Y-44911324D01*
X150569112Y-44774320D01*
X150298309Y-44638019D01*
X150017329Y-44502538D01*
X149609474Y-44340840D01*
X149133389Y-44201062D01*
X147988793Y-43988668D01*
X146608071Y-43868171D01*
X145015755Y-43842384D01*
X143236374Y-43914119D01*
X141294458Y-44086190D01*
X139214537Y-44361410D01*
X137021142Y-44742592D01*
X134738804Y-45232549D01*
X132392051Y-45834095D01*
X130005415Y-46550042D01*
X127603425Y-47383204D01*
X125210612Y-48336394D01*
X122851506Y-49412425D01*
X120550638Y-50614111D01*
X118332536Y-51944264D01*
X118306541Y-51963481D01*
X118281280Y-51983599D01*
X118256784Y-52004582D01*
X118233082Y-52026392D01*
X118210204Y-52048994D01*
X118188179Y-52072350D01*
X118167036Y-52096424D01*
X118146805Y-52121180D01*
X118127515Y-52146580D01*
X118109196Y-52172588D01*
X118091877Y-52199168D01*
X118075587Y-52226282D01*
X118060356Y-52253895D01*
X118046213Y-52281969D01*
X118033189Y-52310468D01*
X118021311Y-52339356D01*
X118010609Y-52368595D01*
X118001114Y-52398149D01*
X117992854Y-52427981D01*
X117985859Y-52458055D01*
X117980157Y-52488334D01*
X117975780Y-52518782D01*
X117972755Y-52549362D01*
X117971113Y-52580037D01*
X117970883Y-52610770D01*
X114427710Y-52610770D01*
X114426798Y-52544835D01*
X114434620Y-52325154D01*
X114453317Y-52106217D01*
X114482904Y-51888617D01*
X114523393Y-51672947D01*
X114574800Y-51459801D01*
X114637138Y-51249772D01*
X114710420Y-51043453D01*
X114794660Y-50841437D01*
X114889872Y-50644319D01*
X114996070Y-50452690D01*
X115113268Y-50267146D01*
X115241479Y-50088278D01*
X115380717Y-49916681D01*
X115530996Y-49752947D01*
X115692330Y-49597670D01*
X116095736Y-49290062D01*
X116506684Y-48993256D01*
X116924626Y-48706600D01*
X117349012Y-48429442D01*
X118214926Y-47901014D01*
X119100037Y-47402761D01*
X119999958Y-46929467D01*
X120910302Y-46475922D01*
X122744701Y-45607219D01*
X125451673Y-44490639D01*
X126823881Y-43974782D01*
X128207639Y-43488812D01*
X129602248Y-43033932D01*
X131007008Y-42611340D01*
X132421221Y-42222237D01*
X133844188Y-41867823D01*
X135275210Y-41549299D01*
X136713587Y-41267864D01*
X138158620Y-41024718D01*
X139609611Y-40821063D01*
X141065861Y-40658098D01*
X142526671Y-40537023D01*
X143991341Y-40459039D01*
X145459172Y-40425346D01*
X145459184Y-40425358D01*
X145729984Y-40424616D01*
X145865383Y-40424843D01*
X146000781Y-40426050D01*
X146550530Y-40420707D01*
X147099022Y-40439260D01*
X147645478Y-40481341D01*
X148189117Y-40546587D01*
X148729160Y-40634632D01*
X149264827Y-40745110D01*
X149795338Y-40877657D01*
X150319914Y-41031907D01*
X150837774Y-41207494D01*
X151348139Y-41404054D01*
X151850228Y-41621222D01*
X152343263Y-41858631D01*
X152826463Y-42115918D01*
X153299049Y-42392715D01*
X153760241Y-42688660D01*
X154209258Y-43003385D01*
X154636345Y-42788541D01*
X155069746Y-42582851D01*
X155509085Y-42387408D01*
X155953985Y-42203304D01*
X156404070Y-42031632D01*
X156858964Y-41873485D01*
X157318289Y-41729955D01*
X157781669Y-41602137D01*
X158248729Y-41491122D01*
X158719091Y-41398003D01*
X159192378Y-41323873D01*
X159668215Y-41269826D01*
X160146225Y-41236953D01*
X160626031Y-41226348D01*
X161107257Y-41239103D01*
X161589526Y-41276312D01*
X161822891Y-41297817D01*
X162055423Y-41327466D01*
X162286853Y-41365151D01*
X162516909Y-41410762D01*
X162971814Y-41525324D01*
X163417970Y-41670273D01*
X163853206Y-41844733D01*
X164275354Y-42047826D01*
X164682244Y-42278676D01*
X164879290Y-42404235D01*
X165071708Y-42536405D01*
X165259228Y-42675075D01*
X165441577Y-42820136D01*
X165618485Y-42971478D01*
X165789681Y-43128991D01*
X165954893Y-43292567D01*
X166113851Y-43462095D01*
X166266283Y-43637465D01*
X166411918Y-43818568D01*
X166550485Y-44005295D01*
X166681713Y-44197535D01*
X166805330Y-44395179D01*
X166921066Y-44598118D01*
X167028650Y-44806241D01*
X167127809Y-45019439D01*
X167218274Y-45237603D01*
X167299773Y-45460623D01*
X167487861Y-46044260D01*
X167628187Y-46633496D01*
X167723316Y-47227085D01*
X167775812Y-47823779D01*
X167788241Y-48422331D01*
X167763167Y-49021494D01*
X167703156Y-49620020D01*
X167610772Y-50216663D01*
X167488581Y-50810175D01*
X167339147Y-51399308D01*
X167165035Y-51982817D01*
X166968811Y-52559453D01*
X166753039Y-53127969D01*
X166520284Y-53687118D01*
X166273112Y-54235654D01*
X166014087Y-54772328D01*
X166265526Y-55127432D01*
X166506230Y-55489923D01*
X166735743Y-55859497D01*
X166953607Y-56235853D01*
X167159367Y-56618687D01*
X167352566Y-57007698D01*
X167532749Y-57402582D01*
X167699458Y-57803039D01*
X167852239Y-58208764D01*
X167990633Y-58619457D01*
X168114186Y-59034814D01*
X168222440Y-59454533D01*
X168314940Y-59878312D01*
X168391229Y-60305849D01*
X168450851Y-60736840D01*
X168493350Y-61170984D01*
X168563032Y-62143229D01*
X168601563Y-63115510D01*
X168610510Y-64087535D01*
X168591440Y-65059011D01*
X168545920Y-66029645D01*
X168475516Y-66999145D01*
X168381797Y-67967216D01*
X168266328Y-68933567D01*
X167976409Y-70859936D01*
X167618297Y-72775909D01*
X167204527Y-74679142D01*
X166747634Y-76567293D01*
X166482569Y-77569093D01*
X166197961Y-78565021D01*
X165571796Y-80538721D01*
X164872506Y-82487309D01*
X164103455Y-84409702D01*
X163268010Y-86304817D01*
X162369535Y-88171570D01*
X161411398Y-90008878D01*
X160396964Y-91815657D01*
X160528061Y-91876137D01*
X160655840Y-91942157D01*
X160780099Y-92013600D01*
X160900639Y-92090347D01*
X161017261Y-92172282D01*
X161129763Y-92259287D01*
X161237945Y-92351245D01*
X161341608Y-92448037D01*
X161440551Y-92549547D01*
X161534574Y-92655658D01*
X161623478Y-92766250D01*
X161707061Y-92881208D01*
X161785124Y-93000414D01*
X161857467Y-93123750D01*
X161923889Y-93251098D01*
X161984191Y-93382342D01*
X161989455Y-112559565D01*
X161954324Y-112686707D01*
X161914463Y-112811687D01*
X161870003Y-112934475D01*
X161821069Y-113055037D01*
X161710298Y-113289355D01*
X161583173Y-113514386D01*
X161440720Y-113729872D01*
X161283965Y-113935556D01*
X161113930Y-114131180D01*
X160931643Y-114316487D01*
X160738127Y-114491221D01*
X160534406Y-114655123D01*
X160321507Y-114807936D01*
X160100454Y-114949403D01*
X159872271Y-115079268D01*
X159637984Y-115197272D01*
X159398618Y-115303158D01*
X159155196Y-115396670D01*
X148209034Y-115418757D01*
X142735655Y-115414679D01*
X137262523Y-115381106D01*
X137056392Y-115393608D01*
X136848532Y-115399974D01*
X136639711Y-115399523D01*
X136430696Y-115391573D01*
X136222256Y-115375444D01*
X136015158Y-115350455D01*
X135810170Y-115315924D01*
X135608060Y-115271172D01*
X135409595Y-115215516D01*
X135215545Y-115148276D01*
X135026676Y-115068771D01*
X134843756Y-114976319D01*
X134667554Y-114870241D01*
X134582212Y-114811879D01*
X134498837Y-114749855D01*
X134417526Y-114684083D01*
X134338373Y-114614480D01*
X134261476Y-114540958D01*
X134186930Y-114463434D01*
X134101936Y-114396334D01*
X134022304Y-114326309D01*
X133947853Y-114253485D01*
X133878403Y-114177991D01*
X133813771Y-114099953D01*
X133753777Y-114019497D01*
X133698240Y-113936751D01*
X133646979Y-113851842D01*
X133556559Y-113676043D01*
X133481068Y-113493116D01*
X133419057Y-113304075D01*
X133369078Y-113109938D01*
X133329681Y-112911720D01*
X133299417Y-112710437D01*
X133276837Y-112507104D01*
X133270981Y-112433878D01*
X142345324Y-112433878D01*
X142772607Y-112433863D01*
X142774841Y-112415959D01*
X142777526Y-112398254D01*
X142780664Y-112380750D01*
X142784253Y-112363446D01*
X142788294Y-112346342D01*
X142792787Y-112329438D01*
X142797732Y-112312734D01*
X142803128Y-112296231D01*
X142808976Y-112279927D01*
X142815276Y-112263823D01*
X142822027Y-112247920D01*
X142829231Y-112232217D01*
X142836886Y-112216713D01*
X142844992Y-112201410D01*
X142853551Y-112186307D01*
X142862561Y-112171404D01*
X142872500Y-112156401D01*
X142883042Y-112141797D01*
X142894186Y-112127594D01*
X142905932Y-112113792D01*
X142918281Y-112100389D01*
X142931232Y-112087386D01*
X142944785Y-112074784D01*
X142958941Y-112062581D01*
X142973699Y-112050779D01*
X142989059Y-112039377D01*
X143005022Y-112028375D01*
X143021587Y-112017772D01*
X143038754Y-112007570D01*
X143056524Y-111997768D01*
X143074896Y-111988367D01*
X143093871Y-111979365D01*
X143113486Y-111970841D01*
X143133778Y-111962867D01*
X143154749Y-111955442D01*
X143176397Y-111948567D01*
X143198722Y-111942241D01*
X143221725Y-111936464D01*
X143245406Y-111931237D01*
X143269764Y-111926560D01*
X143294800Y-111922432D01*
X143320514Y-111918855D01*
X143346905Y-111915827D01*
X143373975Y-111913350D01*
X143401721Y-111911423D01*
X143430146Y-111910047D01*
X143489028Y-111908945D01*
X143515231Y-111909170D01*
X143540832Y-111909845D01*
X143565830Y-111910970D01*
X143590227Y-111912545D01*
X143614020Y-111914570D01*
X143637211Y-111917045D01*
X143659800Y-111919970D01*
X143681787Y-111923345D01*
X143703171Y-111927170D01*
X143723953Y-111931446D01*
X143744132Y-111936171D01*
X143763709Y-111941347D01*
X143782684Y-111946974D01*
X143801056Y-111953050D01*
X143818826Y-111959577D01*
X143835994Y-111966555D01*
X143852986Y-111973919D01*
X143869425Y-111981608D01*
X143885313Y-111989622D01*
X143900648Y-111997961D01*
X143915431Y-112006626D01*
X143929662Y-112015616D01*
X143943341Y-112024931D01*
X143956468Y-112034571D01*
X143969042Y-112044536D01*
X143981064Y-112054826D01*
X143992535Y-112065441D01*
X144003453Y-112076382D01*
X144013819Y-112087647D01*
X144023633Y-112099237D01*
X144032894Y-112111152D01*
X144041604Y-112123392D01*
X144049774Y-112135895D01*
X144057416Y-112148597D01*
X144064532Y-112161500D01*
X144071120Y-112174602D01*
X144077182Y-112187905D01*
X144082716Y-112201407D01*
X144087723Y-112215110D01*
X144092204Y-112229013D01*
X144096157Y-112243116D01*
X144099583Y-112257419D01*
X144102482Y-112271922D01*
X144104854Y-112286626D01*
X144106699Y-112301530D01*
X144108016Y-112316635D01*
X144108807Y-112331939D01*
X144109071Y-112347445D01*
X144108807Y-112362198D01*
X144108016Y-112376851D01*
X144106699Y-112391404D01*
X144104854Y-112405857D01*
X144102482Y-112420210D01*
X144099583Y-112434463D01*
X144096157Y-112448616D01*
X144092204Y-112462669D01*
X144087723Y-112476622D01*
X144082716Y-112490474D01*
X144077182Y-112504227D01*
X144071120Y-112517880D01*
X144064532Y-112531432D01*
X144057416Y-112544885D01*
X144049774Y-112558237D01*
X144041604Y-112571490D01*
X144032819Y-112584756D01*
X144023331Y-112598147D01*
X144013141Y-112611663D01*
X144002248Y-112625304D01*
X143990652Y-112639070D01*
X143978354Y-112652961D01*
X143965352Y-112666977D01*
X143951648Y-112681118D01*
X143937242Y-112695384D01*
X143922132Y-112709775D01*
X143906320Y-112724291D01*
X143889805Y-112738932D01*
X143854666Y-112768589D01*
X143816716Y-112798746D01*
X143776358Y-112829053D01*
X143732385Y-112860761D01*
X143684798Y-112893870D01*
X143633597Y-112928380D01*
X143578781Y-112964290D01*
X143520351Y-113001600D01*
X143458306Y-113040308D01*
X143392648Y-113080416D01*
X142367810Y-113701365D01*
X142367810Y-114008639D01*
X144610246Y-114008639D01*
X144610246Y-113656557D01*
X143047547Y-113656557D01*
X143122386Y-113613273D01*
X143196715Y-113569064D01*
X143344874Y-113479763D01*
X143419223Y-113435617D01*
X143494095Y-113392439D01*
X143569750Y-113350701D01*
X143646447Y-113310877D01*
X143727014Y-113262717D01*
X143803265Y-113215857D01*
X143875199Y-113170296D01*
X143942815Y-113126035D01*
X144006115Y-113083074D01*
X144065098Y-113041413D01*
X144119763Y-113001052D01*
X144170111Y-112961992D01*
X144194169Y-112942414D01*
X144217347Y-112922885D01*
X144239648Y-112903406D01*
X144261069Y-112883977D01*
X144281612Y-112864598D01*
X144301277Y-112845268D01*
X144320064Y-112825989D01*
X144336475Y-112808367D01*
X144905806Y-112808367D01*
X144906409Y-112854815D01*
X144908216Y-112900538D01*
X144911228Y-112945536D01*
X144915444Y-112989809D01*
X144920866Y-113033356D01*
X144927492Y-113076179D01*
X144935323Y-113118276D01*
X144944359Y-113159648D01*
X144954599Y-113200295D01*
X144966044Y-113240217D01*
X144978694Y-113279413D01*
X144992549Y-113317885D01*
X145007609Y-113355631D01*
X145023873Y-113392652D01*
X145041342Y-113428947D01*
X145060016Y-113464518D01*
X145079806Y-113498850D01*
X145100625Y-113532232D01*
X145122474Y-113564664D01*
X145145351Y-113596146D01*
X145169257Y-113626678D01*
X145194193Y-113656260D01*
X145220158Y-113684892D01*
X145247151Y-113712573D01*
X145275174Y-113739305D01*
X145304226Y-113765086D01*
X145334307Y-113789917D01*
X145365417Y-113813798D01*
X145397556Y-113836729D01*
X145430724Y-113858710D01*
X145464921Y-113879740D01*
X145500148Y-113899820D01*
X145536316Y-113918425D01*
X145573337Y-113935829D01*
X145611211Y-113952033D01*
X145649939Y-113967036D01*
X145689520Y-113980839D01*
X145729954Y-113993442D01*
X145771242Y-114004844D01*
X145813382Y-114015046D01*
X145856377Y-114024048D01*
X145900224Y-114031850D01*
X145944925Y-114038451D01*
X145990480Y-114043852D01*
X146036887Y-114048053D01*
X146084149Y-114051053D01*
X146132263Y-114052853D01*
X146181231Y-114053454D01*
X146230186Y-114052853D01*
X146278263Y-114051053D01*
X146325461Y-114048053D01*
X146371780Y-114043852D01*
X146417222Y-114038451D01*
X146461784Y-114031850D01*
X146505469Y-114024048D01*
X146548275Y-114015046D01*
X146590202Y-114004844D01*
X146631251Y-113993442D01*
X146671422Y-113980839D01*
X146710714Y-113967036D01*
X146749128Y-113952033D01*
X146786664Y-113935829D01*
X146823321Y-113918425D01*
X146859099Y-113899820D01*
X146894325Y-113879740D01*
X146928522Y-113858710D01*
X146961691Y-113836729D01*
X146993830Y-113813798D01*
X147024940Y-113789917D01*
X147055021Y-113765086D01*
X147084073Y-113739305D01*
X147112096Y-113712573D01*
X147139090Y-113684892D01*
X147165055Y-113656260D01*
X147189991Y-113626678D01*
X147213898Y-113596146D01*
X147236776Y-113564664D01*
X147258625Y-113532232D01*
X147279444Y-113498850D01*
X147299235Y-113464518D01*
X147317908Y-113428947D01*
X147335377Y-113392652D01*
X147351640Y-113355631D01*
X147366699Y-113317885D01*
X147380554Y-113279413D01*
X147393203Y-113240217D01*
X147404648Y-113200295D01*
X147414889Y-113159648D01*
X147423924Y-113118276D01*
X147431755Y-113076179D01*
X147438381Y-113033356D01*
X147443802Y-112989809D01*
X147448019Y-112945536D01*
X147451031Y-112900538D01*
X147452838Y-112854815D01*
X147453440Y-112808367D01*
X147452838Y-112761930D01*
X147451031Y-112716244D01*
X147448019Y-112671308D01*
X147443802Y-112627122D01*
X147438381Y-112583687D01*
X147431755Y-112541002D01*
X147423924Y-112499067D01*
X147414889Y-112457882D01*
X147408808Y-112433871D01*
X147749007Y-112433871D01*
X148176291Y-112433855D01*
X148178526Y-112415951D01*
X148181212Y-112398247D01*
X148184350Y-112380742D01*
X148187939Y-112363438D01*
X148191981Y-112346334D01*
X148196474Y-112329430D01*
X148201418Y-112312727D01*
X148206815Y-112296223D01*
X148212663Y-112279919D01*
X148218963Y-112263816D01*
X148225715Y-112247912D01*
X148232919Y-112232209D01*
X148240574Y-112216706D01*
X148248681Y-112201402D01*
X148257239Y-112186299D01*
X148266249Y-112171396D01*
X148276188Y-112156393D01*
X148286729Y-112141790D01*
X148297873Y-112127587D01*
X148309619Y-112113784D01*
X148321967Y-112100381D01*
X148334918Y-112087378D01*
X148348472Y-112074775D01*
X148362627Y-112062573D01*
X148377385Y-112050770D01*
X148392746Y-112039367D01*
X148408709Y-112028364D01*
X148425274Y-112017762D01*
X148442441Y-112007559D01*
X148460211Y-111997756D01*
X148478583Y-111988353D01*
X148497557Y-111979349D01*
X148517172Y-111970826D01*
X148537465Y-111962852D01*
X148558436Y-111955428D01*
X148580084Y-111948553D01*
X148602409Y-111942227D01*
X148625413Y-111936451D01*
X148649094Y-111931225D01*
X148673453Y-111926548D01*
X148698489Y-111922421D01*
X148724203Y-111918845D01*
X148750595Y-111915818D01*
X148777664Y-111913341D01*
X148805411Y-111911415D01*
X148833836Y-111910039D01*
X148892718Y-111908938D01*
X148918921Y-111909163D01*
X148944521Y-111909837D01*
X148969519Y-111910962D01*
X148993915Y-111912537D01*
X149017708Y-111914562D01*
X149040899Y-111917037D01*
X149063488Y-111919962D01*
X149085474Y-111923337D01*
X149106858Y-111927162D01*
X149127640Y-111931438D01*
X149147820Y-111936164D01*
X149167397Y-111941340D01*
X149186372Y-111946966D01*
X149204745Y-111953043D01*
X149222516Y-111959570D01*
X149239684Y-111966547D01*
X149256676Y-111973911D01*
X149273116Y-111981600D01*
X149289004Y-111989614D01*
X149304340Y-111997954D01*
X149319123Y-112006618D01*
X149333354Y-112015608D01*
X149347033Y-112024923D01*
X149360160Y-112034563D01*
X149372734Y-112044528D01*
X149384757Y-112054819D01*
X149396227Y-112065434D01*
X149407145Y-112076374D01*
X149417511Y-112087639D01*
X149427325Y-112099229D01*
X149436587Y-112111145D01*
X149445296Y-112123385D01*
X149453466Y-112135887D01*
X149461108Y-112148590D01*
X149468223Y-112161492D01*
X149474812Y-112174594D01*
X149480873Y-112187897D01*
X149486407Y-112201400D01*
X149491415Y-112215102D01*
X149495895Y-112229005D01*
X149499848Y-112243108D01*
X149503275Y-112257411D01*
X149506174Y-112271915D01*
X149508546Y-112286619D01*
X149510391Y-112301523D01*
X149511709Y-112316627D01*
X149512499Y-112331932D01*
X149512763Y-112347437D01*
X149512499Y-112362190D01*
X149511709Y-112376843D01*
X149510391Y-112391396D01*
X149508546Y-112405849D01*
X149506174Y-112420202D01*
X149503275Y-112434455D01*
X149499848Y-112448608D01*
X149495895Y-112462661D01*
X149491415Y-112476614D01*
X149486407Y-112490467D01*
X149480873Y-112504219D01*
X149474812Y-112517872D01*
X149468223Y-112531425D01*
X149461108Y-112544877D01*
X149453466Y-112558230D01*
X149445296Y-112571482D01*
X149436511Y-112584748D01*
X149427023Y-112598139D01*
X149416833Y-112611655D01*
X149405940Y-112625296D01*
X149394344Y-112639062D01*
X149382045Y-112652953D01*
X149369044Y-112666969D01*
X149355339Y-112681111D01*
X149340932Y-112695377D01*
X149325822Y-112709768D01*
X149310010Y-112724284D01*
X149293494Y-112738925D01*
X149258355Y-112768582D01*
X149220404Y-112798739D01*
X149180046Y-112829045D01*
X149136074Y-112860754D01*
X149088488Y-112893863D01*
X149037287Y-112928373D01*
X148982471Y-112964282D01*
X148924041Y-113001592D01*
X148861996Y-113040301D01*
X148796336Y-113080408D01*
X147771499Y-113701357D01*
X147771499Y-114008631D01*
X150013934Y-114008631D01*
X150013934Y-113656550D01*
X148459494Y-113656550D01*
X148533079Y-113612879D01*
X148606184Y-113568331D01*
X148752055Y-113478623D01*
X148825371Y-113434470D01*
X148899306Y-113391457D01*
X148974136Y-113350089D01*
X149050135Y-113310869D01*
X149130703Y-113262710D01*
X149161698Y-113243662D01*
X150264502Y-113243662D01*
X150267012Y-113273832D01*
X150270526Y-113303526D01*
X150275044Y-113332746D01*
X150280565Y-113361490D01*
X150287091Y-113389760D01*
X150294621Y-113417554D01*
X150303155Y-113444874D01*
X150312692Y-113471718D01*
X150323234Y-113498087D01*
X150334780Y-113523981D01*
X150347329Y-113549400D01*
X150360883Y-113574344D01*
X150375440Y-113598813D01*
X150391001Y-113622806D01*
X150407566Y-113646324D01*
X150425135Y-113669367D01*
X150444048Y-113691860D01*
X150463838Y-113713727D01*
X150484507Y-113734970D01*
X150506054Y-113755587D01*
X150528480Y-113775579D01*
X150551785Y-113794946D01*
X150575968Y-113813688D01*
X150601029Y-113831804D01*
X150626968Y-113849296D01*
X150653787Y-113866162D01*
X150681483Y-113882404D01*
X150710058Y-113898020D01*
X150739512Y-113913011D01*
X150769844Y-113927377D01*
X150801055Y-113941118D01*
X150833144Y-113954233D01*
X150866022Y-113966246D01*
X150899604Y-113977484D01*
X150933888Y-113987947D01*
X150968876Y-113997636D01*
X151004566Y-114006550D01*
X151040959Y-114014689D01*
X151078055Y-114022053D01*
X151115854Y-114028643D01*
X151193560Y-114039497D01*
X151274078Y-114047250D01*
X151357406Y-114051903D01*
X151443545Y-114053454D01*
X151488083Y-114053091D01*
X151531743Y-114052003D01*
X151574524Y-114050190D01*
X151616427Y-114047652D01*
X151657452Y-114044388D01*
X151697598Y-114040399D01*
X151736865Y-114035685D01*
X151775255Y-114030246D01*
X151812765Y-114024082D01*
X151849397Y-114017192D01*
X151885151Y-114009577D01*
X151920026Y-114001237D01*
X151954023Y-113992172D01*
X151987141Y-113982382D01*
X152019381Y-113971867D01*
X152050742Y-113960627D01*
X152081600Y-113948350D01*
X152111530Y-113935522D01*
X152140531Y-113922145D01*
X152168604Y-113908217D01*
X152195748Y-113893739D01*
X152221963Y-113878711D01*
X152247250Y-113863133D01*
X152271609Y-113847004D01*
X152295038Y-113830325D01*
X152317539Y-113813096D01*
X152339112Y-113795317D01*
X152359755Y-113776988D01*
X152379471Y-113758108D01*
X152398257Y-113738678D01*
X152416114Y-113718698D01*
X152433043Y-113698168D01*
X152448994Y-113677175D01*
X152463916Y-113655807D01*
X152477808Y-113634064D01*
X152490671Y-113611947D01*
X152502506Y-113589454D01*
X152513311Y-113566586D01*
X152523087Y-113543343D01*
X152531834Y-113519725D01*
X152539553Y-113495732D01*
X152546241Y-113471364D01*
X152551901Y-113446621D01*
X152556532Y-113421502D01*
X152560134Y-113396009D01*
X152562707Y-113370140D01*
X152564250Y-113343897D01*
X152564765Y-113317278D01*
X152564313Y-113293509D01*
X152562958Y-113270215D01*
X152560699Y-113247397D01*
X152557537Y-113225054D01*
X152553471Y-113203186D01*
X152548502Y-113181794D01*
X152542629Y-113160877D01*
X152535852Y-113140435D01*
X152528172Y-113120469D01*
X152519588Y-113100977D01*
X152510101Y-113081961D01*
X152499709Y-113063420D01*
X152488414Y-113045354D01*
X152476216Y-113027763D01*
X152463113Y-113010647D01*
X152449107Y-112994005D01*
X152434663Y-112977475D01*
X152419441Y-112961495D01*
X152403441Y-112946065D01*
X152386663Y-112931186D01*
X152369107Y-112916857D01*
X152350772Y-112903078D01*
X152331660Y-112889850D01*
X152311769Y-112877172D01*
X152291101Y-112865044D01*
X152269654Y-112853466D01*
X152247429Y-112842439D01*
X152224426Y-112831962D01*
X152200645Y-112822036D01*
X152176085Y-112812659D01*
X152150748Y-112803833D01*
X152124633Y-112795557D01*
X152037340Y-112787940D01*
X151963381Y-112782747D01*
X151902376Y-112779550D01*
X151853944Y-112777923D01*
X151795859Y-112777676D01*
X151806089Y-112777164D01*
X151873477Y-112770079D01*
X151921085Y-112763332D01*
X151977462Y-112753878D01*
X152042227Y-112741289D01*
X152115001Y-112725138D01*
X152139498Y-112715324D01*
X152163191Y-112705084D01*
X152186082Y-112694420D01*
X152208169Y-112683330D01*
X152229453Y-112671815D01*
X152249934Y-112659875D01*
X152269612Y-112647510D01*
X152288486Y-112634719D01*
X152306557Y-112621503D01*
X152323825Y-112607863D01*
X152340290Y-112593797D01*
X152355951Y-112579306D01*
X152370810Y-112564390D01*
X152384865Y-112549049D01*
X152398118Y-112533283D01*
X152410567Y-112517092D01*
X152422627Y-112500164D01*
X152433909Y-112482986D01*
X152444413Y-112465557D01*
X152454139Y-112447878D01*
X152463087Y-112429949D01*
X152471257Y-112411770D01*
X152478648Y-112393341D01*
X152485262Y-112374662D01*
X152491098Y-112355732D01*
X152496155Y-112336553D01*
X152500435Y-112317123D01*
X152503936Y-112297444D01*
X152506660Y-112277514D01*
X152508605Y-112257335D01*
X152509772Y-112236906D01*
X152510161Y-112216227D01*
X152509672Y-112191634D01*
X152508203Y-112167466D01*
X152505756Y-112143724D01*
X152502330Y-112120406D01*
X152497925Y-112097513D01*
X152492541Y-112075045D01*
X152486178Y-112053002D01*
X152478836Y-112031385D01*
X152470516Y-112010192D01*
X152461216Y-111989425D01*
X152450938Y-111969083D01*
X152439681Y-111949166D01*
X152427445Y-111929674D01*
X152414230Y-111910608D01*
X152400036Y-111891967D01*
X152384864Y-111873751D01*
X152368788Y-111855607D01*
X152351885Y-111837989D01*
X152334152Y-111820896D01*
X152315592Y-111804329D01*
X152296203Y-111788287D01*
X152275986Y-111772771D01*
X152254941Y-111757780D01*
X152233067Y-111743314D01*
X152210365Y-111729373D01*
X152186835Y-111715958D01*
X152162477Y-111703068D01*
X152137290Y-111690703D01*
X152111276Y-111678863D01*
X152084433Y-111667548D01*
X152056761Y-111656759D01*
X152028262Y-111646494D01*
X151999422Y-111636414D01*
X151969930Y-111626984D01*
X151939785Y-111618205D01*
X151908989Y-111610077D01*
X151877539Y-111602599D01*
X151845437Y-111595772D01*
X151779277Y-111584068D01*
X151710506Y-111574966D01*
X151639125Y-111568465D01*
X151565134Y-111564565D01*
X151488532Y-111563265D01*
X151445136Y-111563678D01*
X151402493Y-111564915D01*
X151360604Y-111566979D01*
X151319467Y-111569867D01*
X151279083Y-111573580D01*
X151239452Y-111578119D01*
X151200574Y-111583483D01*
X151162449Y-111589672D01*
X151125077Y-111596687D01*
X151088458Y-111604526D01*
X151052592Y-111613191D01*
X151017479Y-111622681D01*
X150983118Y-111632997D01*
X150949511Y-111644137D01*
X150916656Y-111656103D01*
X150884555Y-111668894D01*
X150853659Y-111681997D01*
X150823616Y-111695700D01*
X150794427Y-111710004D01*
X150766091Y-111724907D01*
X150738608Y-111740411D01*
X150711978Y-111756514D01*
X150686201Y-111773218D01*
X150661278Y-111790522D01*
X150637208Y-111808426D01*
X150613991Y-111826930D01*
X150591628Y-111846034D01*
X150570118Y-111865738D01*
X150549461Y-111886042D01*
X150529657Y-111906947D01*
X150510707Y-111928451D01*
X150492610Y-111950556D01*
X150475794Y-111972737D01*
X150459882Y-111995267D01*
X150444873Y-112018148D01*
X150430768Y-112041379D01*
X150417567Y-112064960D01*
X150405269Y-112088891D01*
X150393875Y-112113172D01*
X150383384Y-112137803D01*
X150373797Y-112162784D01*
X150365113Y-112188116D01*
X150357332Y-112213797D01*
X150350454Y-112239828D01*
X150344480Y-112266209D01*
X150339409Y-112292940D01*
X150335241Y-112320021D01*
X150331977Y-112347452D01*
X150759246Y-112347468D01*
X150764228Y-112321448D01*
X150770339Y-112296204D01*
X150777581Y-112271735D01*
X150785951Y-112248041D01*
X150795451Y-112225123D01*
X150806081Y-112202980D01*
X150817840Y-112181612D01*
X150830728Y-112161020D01*
X150844746Y-112141202D01*
X150859893Y-112122160D01*
X150876169Y-112103893D01*
X150893576Y-112086402D01*
X150912111Y-112069685D01*
X150931776Y-112053744D01*
X150952570Y-112038578D01*
X150974494Y-112024187D01*
X150997874Y-112010234D01*
X151022232Y-111997180D01*
X151047570Y-111985027D01*
X151073886Y-111973775D01*
X151101181Y-111963422D01*
X151129455Y-111953970D01*
X151158707Y-111945418D01*
X151188939Y-111937766D01*
X151220149Y-111931015D01*
X151252338Y-111925164D01*
X151285506Y-111920213D01*
X151319653Y-111916162D01*
X151354779Y-111913011D01*
X151390884Y-111910761D01*
X151427967Y-111909411D01*
X151466029Y-111908961D01*
X151504732Y-111909336D01*
X151542130Y-111910461D01*
X151578222Y-111912336D01*
X151613009Y-111914962D01*
X151646491Y-111918337D01*
X151678668Y-111922463D01*
X151709540Y-111927339D01*
X151739107Y-111932965D01*
X151767368Y-111939342D01*
X151794324Y-111946469D01*
X151819976Y-111954346D01*
X151844322Y-111962973D01*
X151867363Y-111972350D01*
X151889099Y-111982478D01*
X151909530Y-111993356D01*
X151928656Y-112004984D01*
X151946941Y-112017275D01*
X151964045Y-112030141D01*
X151979971Y-112043582D01*
X151994716Y-112057597D01*
X152008282Y-112072188D01*
X152020668Y-112087354D01*
X152031875Y-112103095D01*
X152041901Y-112119411D01*
X152050749Y-112136302D01*
X152058416Y-112153768D01*
X152064904Y-112171810D01*
X152070213Y-112190427D01*
X152074341Y-112209619D01*
X152077290Y-112229386D01*
X152079060Y-112249729D01*
X152079650Y-112270647D01*
X152079123Y-112289639D01*
X152077541Y-112308206D01*
X152074906Y-112326348D01*
X152071216Y-112344065D01*
X152066473Y-112361357D01*
X152060675Y-112378224D01*
X152053823Y-112394665D01*
X152045916Y-112410682D01*
X152036956Y-112426273D01*
X152026942Y-112441439D01*
X152015873Y-112456181D01*
X152003751Y-112470496D01*
X151990574Y-112484387D01*
X151976343Y-112497853D01*
X151961059Y-112510893D01*
X151944720Y-112523508D01*
X151927214Y-112535135D01*
X151908427Y-112546012D01*
X151888361Y-112556139D01*
X151867014Y-112565515D01*
X151844387Y-112574142D01*
X151820481Y-112582018D01*
X151795294Y-112589144D01*
X151768827Y-112595520D01*
X151741080Y-112601146D01*
X151712054Y-112606022D01*
X151681747Y-112610148D01*
X151650160Y-112613523D01*
X151617293Y-112616149D01*
X151583146Y-112618024D01*
X151547719Y-112619149D01*
X151511012Y-112619524D01*
X151074088Y-112619524D01*
X151074088Y-112933199D01*
X151511012Y-112933199D01*
X151567333Y-112933850D01*
X151620643Y-112935802D01*
X151670941Y-112939055D01*
X151718227Y-112943608D01*
X151762501Y-112949460D01*
X151783509Y-112952873D01*
X151803764Y-112956612D01*
X151823266Y-112960674D01*
X151842014Y-112965062D01*
X151860010Y-112969774D01*
X151877253Y-112974810D01*
X151894208Y-112980160D01*
X151910535Y-112985810D01*
X151926234Y-112991761D01*
X151941306Y-112998011D01*
X151955750Y-113004562D01*
X151969567Y-113011413D01*
X151982756Y-113018565D01*
X151995318Y-113026016D01*
X152007252Y-113033768D01*
X152018558Y-113041820D01*
X152029238Y-113050173D01*
X152039289Y-113058825D01*
X152048714Y-113067778D01*
X152057510Y-113077031D01*
X152065680Y-113086584D01*
X152073222Y-113096438D01*
X152080614Y-113106189D01*
X152087529Y-113116241D01*
X152093967Y-113126593D01*
X152099928Y-113137245D01*
X152105412Y-113148196D01*
X152110420Y-113159448D01*
X152114950Y-113171001D01*
X152119004Y-113182853D01*
X152122581Y-113195005D01*
X152125681Y-113207458D01*
X152128304Y-113220211D01*
X152130450Y-113233264D01*
X152132119Y-113246617D01*
X152133311Y-113260270D01*
X152134026Y-113274223D01*
X152134265Y-113288477D01*
X152133587Y-113312557D01*
X152131554Y-113335987D01*
X152130029Y-113347458D01*
X152128166Y-113358766D01*
X152125963Y-113369913D01*
X152123422Y-113380896D01*
X152120542Y-113391718D01*
X152117323Y-113402376D01*
X152113766Y-113412873D01*
X152109869Y-113423206D01*
X152105634Y-113433378D01*
X152101059Y-113443387D01*
X152096146Y-113453233D01*
X152090895Y-113462917D01*
X152085304Y-113472438D01*
X152079374Y-113481796D01*
X152073106Y-113490993D01*
X152066499Y-113500026D01*
X152059553Y-113508897D01*
X152052268Y-113517606D01*
X152044644Y-113526152D01*
X152036682Y-113534535D01*
X152019740Y-113550815D01*
X152001443Y-113566444D01*
X151981791Y-113581423D01*
X151960784Y-113595751D01*
X151938433Y-113609319D01*
X151914753Y-113622011D01*
X151889742Y-113633828D01*
X151863400Y-113644768D01*
X151835729Y-113654833D01*
X151806727Y-113664022D01*
X151776395Y-113672336D01*
X151744732Y-113679774D01*
X151711739Y-113686337D01*
X151677417Y-113692025D01*
X151641763Y-113696837D01*
X151604780Y-113700774D01*
X151566467Y-113703837D01*
X151526823Y-113706024D01*
X151485849Y-113707336D01*
X151443545Y-113707773D01*
X151401178Y-113707311D01*
X151360017Y-113705923D01*
X151320059Y-113703610D01*
X151281307Y-113700372D01*
X151243759Y-113696209D01*
X151207416Y-113691120D01*
X151172277Y-113685106D01*
X151138344Y-113678168D01*
X151105615Y-113670303D01*
X151074091Y-113661514D01*
X151043771Y-113651800D01*
X151014657Y-113641160D01*
X150986747Y-113629595D01*
X150960042Y-113617105D01*
X150934542Y-113603690D01*
X150910247Y-113589350D01*
X150887181Y-113573745D01*
X150865371Y-113557340D01*
X150844816Y-113540135D01*
X150825516Y-113522130D01*
X150807471Y-113503325D01*
X150790681Y-113483720D01*
X150775146Y-113463315D01*
X150760865Y-113442109D01*
X150747839Y-113420104D01*
X150736068Y-113397298D01*
X150725552Y-113373693D01*
X150716290Y-113349287D01*
X150708282Y-113324081D01*
X150701529Y-113298075D01*
X150696031Y-113271269D01*
X150691787Y-113243662D01*
X150264502Y-113243662D01*
X149161698Y-113243662D01*
X149206954Y-113215849D01*
X149278888Y-113170289D01*
X149346505Y-113126027D01*
X149409805Y-113083066D01*
X149468788Y-113041405D01*
X149523454Y-113001045D01*
X149573802Y-112961985D01*
X149597859Y-112942406D01*
X149621037Y-112922877D01*
X149643337Y-112903398D01*
X149664759Y-112883969D01*
X149685302Y-112864590D01*
X149704967Y-112845261D01*
X149723753Y-112825982D01*
X149741661Y-112806752D01*
X149758690Y-112787573D01*
X149774841Y-112768444D01*
X149790114Y-112749365D01*
X149804508Y-112730335D01*
X149818024Y-112711356D01*
X149830661Y-112692427D01*
X149842420Y-112673548D01*
X149853301Y-112654719D01*
X149863804Y-112635813D01*
X149873629Y-112616708D01*
X149882778Y-112597403D01*
X149891248Y-112577898D01*
X149899041Y-112558194D01*
X149906156Y-112538289D01*
X149912594Y-112518185D01*
X149918354Y-112497880D01*
X149923436Y-112477376D01*
X149927841Y-112456671D01*
X149931568Y-112435767D01*
X149934618Y-112414662D01*
X149936990Y-112393357D01*
X149938684Y-112371852D01*
X149939701Y-112350147D01*
X149940039Y-112328242D01*
X149939525Y-112300047D01*
X149937981Y-112272278D01*
X149935409Y-112244934D01*
X149931807Y-112218015D01*
X149927177Y-112191521D01*
X149921517Y-112165453D01*
X149914829Y-112139810D01*
X149907111Y-112114592D01*
X149898364Y-112089799D01*
X149888588Y-112065432D01*
X149877783Y-112041489D01*
X149865949Y-112017972D01*
X149853086Y-111994880D01*
X149839194Y-111972214D01*
X149824272Y-111949972D01*
X149808322Y-111928156D01*
X149791844Y-111906850D01*
X149774538Y-111886144D01*
X149756404Y-111866039D01*
X149737441Y-111846534D01*
X149717651Y-111827629D01*
X149697032Y-111809324D01*
X149675585Y-111791620D01*
X149653310Y-111774516D01*
X149630207Y-111758012D01*
X149606275Y-111742109D01*
X149581516Y-111726805D01*
X149555928Y-111712102D01*
X149529511Y-111697999D01*
X149502267Y-111684495D01*
X149474194Y-111671592D01*
X149445292Y-111659289D01*
X149416077Y-111647662D01*
X149386259Y-111636785D01*
X149355839Y-111626657D01*
X149324817Y-111617280D01*
X149293192Y-111608653D01*
X149260965Y-111600776D01*
X149228135Y-111593650D01*
X149194703Y-111587273D01*
X149160669Y-111581646D01*
X149126032Y-111576770D01*
X149090793Y-111572643D01*
X149054952Y-111569267D01*
X149018508Y-111566641D01*
X148981462Y-111564766D01*
X148905562Y-111563265D01*
X148865279Y-111563690D01*
X148825548Y-111564966D01*
X148786369Y-111567092D01*
X148747742Y-111570068D01*
X148709667Y-111573895D01*
X148672144Y-111578572D01*
X148635174Y-111584099D01*
X148598755Y-111590476D01*
X148562889Y-111597704D01*
X148527575Y-111605781D01*
X148492813Y-111614709D01*
X148458603Y-111624487D01*
X148424945Y-111635115D01*
X148391839Y-111646593D01*
X148359286Y-111658921D01*
X148327285Y-111672098D01*
X148295949Y-111685651D01*
X148265391Y-111699903D01*
X148235611Y-111714857D01*
X148206609Y-111730510D01*
X148178385Y-111746864D01*
X148150940Y-111763918D01*
X148124272Y-111781672D01*
X148098383Y-111800126D01*
X148073272Y-111819281D01*
X148048938Y-111839135D01*
X148025383Y-111859690D01*
X148002606Y-111880945D01*
X147980608Y-111902900D01*
X147959387Y-111925554D01*
X147938944Y-111948909D01*
X147919280Y-111972963D01*
X147900920Y-111997644D01*
X147883589Y-112022876D01*
X147867287Y-112048657D01*
X147852015Y-112074988D01*
X147837771Y-112101869D01*
X147824557Y-112129300D01*
X147812372Y-112157282D01*
X147801216Y-112185813D01*
X147791089Y-112214895D01*
X147781991Y-112244527D01*
X147773921Y-112274708D01*
X147766881Y-112305440D01*
X147760869Y-112336723D01*
X147755887Y-112368555D01*
X147751932Y-112400938D01*
X147749007Y-112433871D01*
X147408808Y-112433871D01*
X147404648Y-112417448D01*
X147393203Y-112377763D01*
X147380554Y-112338829D01*
X147366699Y-112300644D01*
X147351640Y-112263210D01*
X147335377Y-112226525D01*
X147317908Y-112190590D01*
X147299235Y-112155405D01*
X147279444Y-112120697D01*
X147258625Y-112086990D01*
X147236776Y-112054283D01*
X147213898Y-112022575D01*
X147189991Y-111991868D01*
X147165055Y-111962161D01*
X147139090Y-111933455D01*
X147112096Y-111905749D01*
X147084073Y-111879043D01*
X147055021Y-111853337D01*
X147024940Y-111828631D01*
X146993830Y-111804926D01*
X146961691Y-111782222D01*
X146928522Y-111760517D01*
X146894325Y-111739814D01*
X146859099Y-111720110D01*
X146823321Y-111701118D01*
X146786664Y-111683350D01*
X146749128Y-111666808D01*
X146710714Y-111651491D01*
X146671422Y-111637400D01*
X146631251Y-111624534D01*
X146590202Y-111612893D01*
X146548275Y-111602477D01*
X146505469Y-111593287D01*
X146461784Y-111585322D01*
X146417222Y-111578582D01*
X146371780Y-111573068D01*
X146325461Y-111568779D01*
X146278263Y-111565716D01*
X146230186Y-111563878D01*
X146181231Y-111563265D01*
X146132263Y-111563878D01*
X146084149Y-111565716D01*
X146036887Y-111568779D01*
X145990480Y-111573068D01*
X145944925Y-111578582D01*
X145900224Y-111585322D01*
X145856377Y-111593287D01*
X145813382Y-111602477D01*
X145771242Y-111612893D01*
X145729954Y-111624534D01*
X145689520Y-111637400D01*
X145649939Y-111651491D01*
X145611211Y-111666808D01*
X145573337Y-111683350D01*
X145536316Y-111701118D01*
X145500148Y-111720110D01*
X145464921Y-111739814D01*
X145430724Y-111760518D01*
X145397556Y-111782222D01*
X145365417Y-111804927D01*
X145334307Y-111828633D01*
X145304226Y-111853339D01*
X145275174Y-111879045D01*
X145247151Y-111905751D01*
X145220158Y-111933458D01*
X145194193Y-111962165D01*
X145169257Y-111991872D01*
X145145351Y-112022579D01*
X145122474Y-112054285D01*
X145100625Y-112086992D01*
X145079806Y-112120699D01*
X145060016Y-112155405D01*
X145041342Y-112190590D01*
X145023873Y-112226525D01*
X145007609Y-112263210D01*
X144992549Y-112300644D01*
X144978694Y-112338829D01*
X144966044Y-112377763D01*
X144954599Y-112417448D01*
X144944359Y-112457882D01*
X144935323Y-112499067D01*
X144927492Y-112541002D01*
X144920866Y-112583687D01*
X144915444Y-112627122D01*
X144911228Y-112671308D01*
X144908216Y-112716244D01*
X144906409Y-112761930D01*
X144905806Y-112808367D01*
X144336475Y-112808367D01*
X144337971Y-112806760D01*
X144355001Y-112787581D01*
X144371152Y-112768451D01*
X144386425Y-112749372D01*
X144400819Y-112730343D01*
X144414335Y-112711364D01*
X144426972Y-112692434D01*
X144438732Y-112673555D01*
X144449612Y-112654726D01*
X144460116Y-112635821D01*
X144469942Y-112616716D01*
X144479091Y-112597411D01*
X144487561Y-112577906D01*
X144495355Y-112558201D01*
X144502470Y-112538297D01*
X144508908Y-112518192D01*
X144514668Y-112497888D01*
X144519750Y-112477383D01*
X144524155Y-112456679D01*
X144527882Y-112435774D01*
X144530932Y-112414670D01*
X144533303Y-112393365D01*
X144534998Y-112371860D01*
X144536014Y-112350155D01*
X144536353Y-112328249D01*
X144535838Y-112300056D01*
X144534295Y-112272288D01*
X144531722Y-112244944D01*
X144528120Y-112218026D01*
X144523490Y-112191532D01*
X144517830Y-112165464D01*
X144511141Y-112139820D01*
X144503423Y-112114602D01*
X144494676Y-112089809D01*
X144484900Y-112065441D01*
X144474095Y-112041498D01*
X144462261Y-112017981D01*
X144449398Y-111994889D01*
X144435506Y-111972222D01*
X144420585Y-111949980D01*
X144404635Y-111928164D01*
X144388158Y-111906858D01*
X144370852Y-111886152D01*
X144352718Y-111866046D01*
X144333755Y-111846541D01*
X144313965Y-111827636D01*
X144293346Y-111809332D01*
X144271899Y-111791628D01*
X144249624Y-111774524D01*
X144226520Y-111758020D01*
X144202588Y-111742116D01*
X144177829Y-111726813D01*
X144152240Y-111712110D01*
X144125824Y-111698006D01*
X144098580Y-111684503D01*
X144070507Y-111671600D01*
X144041606Y-111659296D01*
X144012391Y-111647669D01*
X143982573Y-111636792D01*
X143952153Y-111626666D01*
X143921131Y-111617289D01*
X143889507Y-111608663D01*
X143857280Y-111600786D01*
X143824450Y-111593660D01*
X143791019Y-111587284D01*
X143756985Y-111581658D01*
X143722348Y-111576783D01*
X143687109Y-111572657D01*
X143651268Y-111569281D01*
X143614825Y-111566656D01*
X143577779Y-111564781D01*
X143501880Y-111563280D01*
X143461596Y-111563705D01*
X143421865Y-111564981D01*
X143382685Y-111567106D01*
X143344058Y-111570082D01*
X143305983Y-111573908D01*
X143268461Y-111578585D01*
X143231490Y-111584111D01*
X143195071Y-111590488D01*
X143159205Y-111597714D01*
X143123891Y-111605791D01*
X143089129Y-111614719D01*
X143054919Y-111624496D01*
X143021261Y-111635123D01*
X142988155Y-111646601D01*
X142955602Y-111658928D01*
X142923600Y-111672106D01*
X142892265Y-111685658D01*
X142861707Y-111699911D01*
X142831928Y-111714864D01*
X142802926Y-111730518D01*
X142774703Y-111746871D01*
X142747257Y-111763925D01*
X142720590Y-111781680D01*
X142694700Y-111800134D01*
X142669589Y-111819288D01*
X142645256Y-111839143D01*
X142621700Y-111859698D01*
X142598923Y-111880952D01*
X142576924Y-111902907D01*
X142555703Y-111925562D01*
X142535260Y-111948917D01*
X142515595Y-111972971D01*
X142497235Y-111997652D01*
X142479905Y-112022883D01*
X142463603Y-112048664D01*
X142448331Y-112074995D01*
X142434088Y-112101877D01*
X142420874Y-112129308D01*
X142408689Y-112157289D01*
X142397533Y-112185821D01*
X142387406Y-112214902D01*
X142378308Y-112244534D01*
X142370239Y-112274716D01*
X142363198Y-112305448D01*
X142357187Y-112336730D01*
X142352204Y-112368563D01*
X142348250Y-112400945D01*
X142345324Y-112433878D01*
X133270981Y-112433878D01*
X133260493Y-112302739D01*
X133240714Y-111894973D01*
G37*
%LPC*%
G36*
X146137352Y-43597152D02*
G01*
X147305418Y-43658365D01*
X148229193Y-43759926D01*
X148564703Y-43824006D01*
X149679807Y-44197781D01*
X150899208Y-44792459D01*
X152086039Y-45536437D01*
X152645048Y-45958671D01*
X153255535Y-46390771D01*
X153771864Y-46559042D01*
X154312993Y-46467095D01*
X154997879Y-46118538D01*
X155136756Y-46034275D01*
X156598151Y-45260874D01*
X158046074Y-44728904D01*
X159439215Y-44436082D01*
X160736265Y-44380125D01*
X161895916Y-44558749D01*
X162876859Y-44969670D01*
X163637783Y-45610604D01*
X164137381Y-46479270D01*
X164156199Y-46532855D01*
X164424176Y-47781426D01*
X164396969Y-49122114D01*
X164068696Y-50588997D01*
X163433474Y-52216155D01*
X163034300Y-53032262D01*
X162667954Y-53774786D01*
X162381078Y-54419440D01*
X162213046Y-54874355D01*
X162185535Y-55012600D01*
X162299791Y-55343879D01*
X162592323Y-55825009D01*
X162829337Y-56139680D01*
X163600179Y-57229093D01*
X164275720Y-58453054D01*
X164788380Y-59675712D01*
X165040210Y-60584068D01*
X165142272Y-61423801D01*
X165193592Y-62556515D01*
X165197240Y-63899924D01*
X165156289Y-65371741D01*
X165073810Y-66889681D01*
X164952874Y-68371460D01*
X164796553Y-69734790D01*
X164667199Y-70577552D01*
X163865588Y-74447418D01*
X162833099Y-78250366D01*
X161594632Y-81911534D01*
X160175088Y-85356061D01*
X158866782Y-88016358D01*
X158161447Y-89296764D01*
X157579442Y-90256752D01*
X157098543Y-90925950D01*
X156696527Y-91333990D01*
X156351170Y-91510502D01*
X156236660Y-91523074D01*
X155774781Y-91399960D01*
X155533092Y-91216920D01*
X155448675Y-91035180D01*
X155386799Y-90694011D01*
X155345676Y-90151442D01*
X155323521Y-89365504D01*
X155318545Y-88294228D01*
X155328961Y-86895643D01*
X155333319Y-86525502D01*
X155318042Y-82480852D01*
X155175744Y-78481041D01*
X154911861Y-74604811D01*
X154531827Y-70930903D01*
X154041080Y-67538057D01*
X154009954Y-67355164D01*
X153786179Y-66161666D01*
X153573278Y-65299785D01*
X153350918Y-64723317D01*
X153098768Y-64386061D01*
X152796495Y-64241815D01*
X152633553Y-64227552D01*
X152325381Y-64328946D01*
X151771654Y-64608313D01*
X151038922Y-65028424D01*
X150193735Y-65552053D01*
X149753255Y-65838746D01*
X148684806Y-66534411D01*
X147891744Y-67022359D01*
X147343110Y-67318189D01*
X147007944Y-67437504D01*
X146855285Y-67395902D01*
X146837992Y-67307775D01*
X146899946Y-67064305D01*
X147053781Y-66581747D01*
X147210908Y-66123074D01*
X147436886Y-65242737D01*
X147557611Y-64263071D01*
X147567962Y-63314597D01*
X147462820Y-62527837D01*
X147363557Y-62231957D01*
X147024855Y-61776059D01*
X146614761Y-61464829D01*
X145943883Y-61266874D01*
X145044298Y-61203384D01*
X144040420Y-61270886D01*
X143056663Y-61465907D01*
X142710876Y-61573820D01*
X142113290Y-61775766D01*
X141662326Y-61913284D01*
X141483522Y-61952925D01*
X141363439Y-61896555D01*
X141374686Y-61703521D01*
X141535514Y-61337933D01*
X141864174Y-60763901D01*
X142378917Y-59945536D01*
X142945983Y-59077114D01*
X143533762Y-58155904D01*
X144018318Y-57338385D01*
X144365728Y-56685763D01*
X144542073Y-56259246D01*
X144557177Y-56169880D01*
X144490243Y-55831955D01*
X144258146Y-55556439D01*
X143813941Y-55322391D01*
X143110681Y-55108872D01*
X142101421Y-54894941D01*
X141429565Y-54774774D01*
X137799983Y-54243913D01*
X133883545Y-53843417D01*
X129751151Y-53578228D01*
X125473700Y-53453288D01*
X122447316Y-53451741D01*
X120898177Y-53465665D01*
X119687762Y-53463405D01*
X118775790Y-53437450D01*
X118121982Y-53380285D01*
X117686056Y-53284397D01*
X117427730Y-53142274D01*
X117306725Y-52946400D01*
X117282760Y-52689264D01*
X117299459Y-52491538D01*
X117454323Y-52131719D01*
X117856264Y-51711834D01*
X118528115Y-51216366D01*
X119492708Y-50629801D01*
X120772877Y-49936622D01*
X121905684Y-49361381D01*
X125431872Y-47769420D01*
X129164060Y-46387269D01*
X133004208Y-45243941D01*
X136854279Y-44368445D01*
X140616233Y-43789793D01*
X140806049Y-43768536D01*
X142059342Y-43661980D01*
X143425119Y-43598322D01*
X144814187Y-43576926D01*
X146137352Y-43597152D01*
G37*
M02*
