G04 #@! TF.GenerationSoftware,KiCad,Pcbnew,(6.0.10-0)*
G04 #@! TF.CreationDate,2023-09-19T21:25:39+02:00*
G04 #@! TF.ProjectId,SwiftLeeds,53776966-744c-4656-9564-732e6b696361,rev?*
G04 #@! TF.SameCoordinates,Original*
G04 #@! TF.FileFunction,Legend,Bot*
G04 #@! TF.FilePolarity,Positive*
%FSLAX46Y46*%
G04 Gerber Fmt 4.6, Leading zero omitted, Abs format (unit mm)*
G04 Created by KiCad (PCBNEW (6.0.10-0)) date 2023-09-19 21:25:39*
%MOMM*%
%LPD*%
G01*
G04 APERTURE LIST*
G04 Aperture macros list*
%AMRoundRect*
0 Rectangle with rounded corners*
0 $1 Rounding radius*
0 $2 $3 $4 $5 $6 $7 $8 $9 X,Y pos of 4 corners*
0 Add a 4 corners polygon primitive as box body*
4,1,4,$2,$3,$4,$5,$6,$7,$8,$9,$2,$3,0*
0 Add four circle primitives for the rounded corners*
1,1,$1+$1,$2,$3*
1,1,$1+$1,$4,$5*
1,1,$1+$1,$6,$7*
1,1,$1+$1,$8,$9*
0 Add four rect primitives between the rounded corners*
20,1,$1+$1,$2,$3,$4,$5,0*
20,1,$1+$1,$4,$5,$6,$7,0*
20,1,$1+$1,$6,$7,$8,$9,0*
20,1,$1+$1,$8,$9,$2,$3,0*%
G04 Aperture macros list end*
%ADD10C,0.078000*%
%ADD11C,0.150000*%
%ADD12C,0.120000*%
%ADD13RoundRect,0.250000X-0.132583X0.503814X-0.503814X0.132583X0.132583X-0.503814X0.503814X-0.132583X0*%
%ADD14RoundRect,0.243750X-0.345367X0.385097X-0.512102X-0.073003X0.345367X-0.385097X0.512102X0.073003X0*%
%ADD15RoundRect,0.243750X-0.028093X-0.516516X0.413732X-0.310490X0.028093X0.516516X-0.413732X0.310490X0*%
%ADD16RoundRect,0.243750X-0.243750X-0.456250X0.243750X-0.456250X0.243750X0.456250X-0.243750X0.456250X0*%
%ADD17R,1.270000X5.080000*%
%ADD18C,17.800000*%
%ADD19RoundRect,0.243750X-0.494975X-0.150260X-0.150260X-0.494975X0.494975X0.150260X0.150260X0.494975X0*%
%ADD20RoundRect,0.243750X-0.456250X0.243750X-0.456250X-0.243750X0.456250X-0.243750X0.456250X0.243750X0*%
G04 APERTURE END LIST*
D10*
X146567714Y-82256600D02*
X146645289Y-82268300D01*
X142050036Y-78114800D02*
X142022034Y-78294200D01*
X129960075Y-64453100D02*
X129722058Y-64511600D01*
X126167520Y-64125500D02*
X126323520Y-63922700D01*
X147548091Y-74671100D02*
X147530453Y-74963600D01*
X125010507Y-67545800D02*
X124897875Y-67202600D01*
X126114870Y-64792400D02*
X126059256Y-64640300D01*
X123812700Y-63310400D02*
X123937812Y-63419600D01*
X131262792Y-66446000D02*
X131159637Y-66789200D01*
X115858767Y-69480200D02*
X115727805Y-69332000D01*
X142236027Y-76964300D02*
X142134432Y-76714700D01*
X122522736Y-64862600D02*
X122522736Y-64862600D01*
X146161599Y-84573200D02*
X146190112Y-84690200D01*
X147166758Y-80053100D02*
X147034372Y-80103800D01*
X132662580Y-62327600D02*
X132616053Y-62304200D01*
X116438658Y-66430400D02*
X116624376Y-66270500D01*
X118200171Y-67339100D02*
X118165734Y-67190900D01*
X126309324Y-68212700D02*
X126309324Y-68212700D01*
X145285804Y-71594000D02*
X145374088Y-71480900D01*
X141360711Y-83898500D02*
X141606918Y-84027200D01*
X146298294Y-76270100D02*
X146253382Y-76402700D01*
X120421572Y-67027100D02*
X120277974Y-67140200D01*
X143824477Y-87806300D02*
X143856918Y-87825800D01*
X146343429Y-73126700D02*
X146250835Y-73142300D01*
X130218138Y-65400800D02*
X130752867Y-65517800D01*
X143887232Y-74710100D02*
X144088426Y-74792000D01*
X137295078Y-64098200D02*
X137189856Y-64254200D01*
X143306226Y-77713100D02*
X143502240Y-77767700D01*
X126593400Y-62963300D02*
X126698817Y-63080300D01*
X146182983Y-81188000D02*
X146252419Y-81172400D01*
X145298950Y-77588300D02*
X145375796Y-77229500D01*
X141504621Y-81449300D02*
X141696618Y-81640400D01*
X146705860Y-75057200D02*
X146705860Y-75057200D01*
X142857180Y-90579200D02*
X142746810Y-90563600D01*
X119304885Y-65338400D02*
X119245995Y-65225300D01*
X146038390Y-80915000D02*
X146020166Y-80969600D01*
X138205416Y-62471900D02*
X138374481Y-62374400D01*
X144834531Y-72346700D02*
X144972583Y-72214100D01*
X125121033Y-69140900D02*
X125052549Y-69160400D01*
X122893899Y-64008500D02*
X122795346Y-64063100D01*
X131297034Y-62924300D02*
X131356509Y-62889200D01*
X132421092Y-62054600D02*
X132484428Y-61801100D01*
X146015256Y-81032000D02*
X146026823Y-81094400D01*
X142306071Y-85181600D02*
X142057017Y-85193300D01*
X129419067Y-62666900D02*
X129325389Y-62483600D01*
X144609044Y-82478900D02*
X144592103Y-82338500D01*
X131039322Y-62721500D02*
X131028831Y-62803400D01*
X138374481Y-62374400D02*
X138600174Y-62444600D01*
X142266915Y-79089800D02*
X141975858Y-79035200D01*
X141592566Y-84604400D02*
X141532545Y-84405500D01*
X145596064Y-80805800D02*
X145484228Y-80716100D01*
X145799531Y-71274200D02*
X145793174Y-71356100D01*
X129486225Y-67409300D02*
X129356082Y-67003700D01*
X141556491Y-83255000D02*
X142080846Y-83348600D01*
X143933065Y-85696400D02*
X143809599Y-85563800D01*
X146288217Y-83812700D02*
X146341241Y-83910200D01*
X116793246Y-68302400D02*
X117001701Y-68470100D01*
X142472367Y-77194400D02*
X142236027Y-76964300D01*
X116790048Y-69374900D02*
X116790048Y-69374900D01*
X141927576Y-77841800D02*
X142055184Y-77639000D01*
X118524612Y-66106700D02*
X118546452Y-66063800D01*
X126963276Y-64730000D02*
X126903177Y-64577900D01*
X145109465Y-87135500D02*
X144943411Y-87030200D01*
X142379430Y-76788800D02*
X142571427Y-76979900D01*
X118227549Y-66329000D02*
X118329183Y-66231500D01*
X127404483Y-63173900D02*
X127383462Y-63372800D01*
X145336398Y-80614700D02*
X145193455Y-80486000D01*
X146752102Y-78313700D02*
X146596976Y-78142100D01*
X147010403Y-77354300D02*
X146975303Y-77256800D01*
X122516496Y-63872000D02*
X122510763Y-63704300D01*
X130905552Y-64148900D02*
X130689141Y-64230800D01*
X145020003Y-82966400D02*
X145110604Y-82989800D01*
X145852575Y-72471500D02*
X145582324Y-72686000D01*
X124333896Y-63205100D02*
X124353903Y-63017900D01*
X116922960Y-67569200D02*
X116839617Y-67522400D01*
X121892808Y-64983500D02*
X121896357Y-64878200D01*
X120061680Y-64745600D02*
X120019989Y-64597400D01*
X144524956Y-86254100D02*
X144492076Y-86148800D01*
X144520592Y-83711300D02*
X144387922Y-83563100D01*
X142257906Y-82787000D02*
X142116453Y-82572500D01*
X146059408Y-81149000D02*
X146116203Y-81184100D01*
X146224315Y-79838600D02*
X146028523Y-79811300D01*
X147001312Y-74312300D02*
X147043498Y-74203100D01*
X142244490Y-77756000D02*
X142142817Y-77849600D01*
X126776895Y-64102100D02*
X126802011Y-64242500D01*
X146253382Y-76402700D02*
X146134397Y-76508000D01*
X119684199Y-66785300D02*
X119625387Y-66598100D01*
X143411955Y-78188900D02*
X143312544Y-78372200D01*
X146075526Y-79308200D02*
X146305420Y-79417400D01*
X146697717Y-77210000D02*
X146780315Y-77436200D01*
X117289326Y-67752500D02*
X117381405Y-67690100D01*
X116705964Y-66204200D02*
X116896089Y-66095000D01*
X147043498Y-74203100D02*
X147136127Y-74148500D01*
X145545602Y-81683300D02*
X145381724Y-81745700D01*
X143666196Y-89495000D02*
X143717598Y-89424800D01*
X117074631Y-66929600D02*
X117064569Y-66925700D01*
X147530413Y-77432300D02*
X147539303Y-77603900D01*
X132722679Y-61695800D02*
X132913779Y-61707500D01*
X119759079Y-64866500D02*
X119799054Y-64991300D01*
X122797179Y-69191600D02*
X122954661Y-69663500D01*
X120019989Y-64597400D02*
X120045768Y-64445300D01*
X141698295Y-78988400D02*
X141742677Y-78750500D01*
X132245163Y-63400100D02*
X132346056Y-63575600D01*
X145515818Y-84889100D02*
X145515814Y-84889100D01*
X129621321Y-65716700D02*
X129596712Y-65724500D01*
X141696618Y-81640400D02*
X141969384Y-81737900D01*
X142508676Y-85060700D02*
X142306071Y-85181600D01*
X144380828Y-89799200D02*
X144380828Y-89799200D01*
X143928740Y-85887500D02*
X144069121Y-85977200D01*
X126780639Y-62877500D02*
X126739455Y-62780000D01*
X125656893Y-63400100D02*
X125650146Y-63610700D01*
X142196559Y-80513300D02*
X142196559Y-80513300D01*
X123010860Y-69823400D02*
X122782164Y-69897500D01*
X142431495Y-89315600D02*
X142348932Y-89007500D01*
X146417135Y-80509400D02*
X146545519Y-80603000D01*
X132767724Y-64008500D02*
X132558918Y-63306500D01*
X145460309Y-71878700D02*
X145330638Y-71929400D01*
X145334749Y-86273600D02*
X145231582Y-86195600D01*
X121639035Y-65155100D02*
X121762587Y-65127800D01*
X145047767Y-81773000D02*
X144763609Y-81554600D01*
X124769955Y-64351700D02*
X124879818Y-64347800D01*
X118529604Y-67748600D02*
X118278483Y-67491200D01*
X118506711Y-66863300D02*
X118611426Y-66824300D01*
X124640943Y-65205800D02*
X124473282Y-64878200D01*
X142576380Y-80189600D02*
X142208337Y-80119400D01*
X125321025Y-68474000D02*
X125252112Y-68263400D01*
X145162466Y-83902400D02*
X145008857Y-83879000D01*
X125937849Y-65088800D02*
X125747802Y-65229200D01*
X141390078Y-83453900D02*
X140610936Y-83309600D01*
X132390906Y-63758900D02*
X132390906Y-63758900D01*
X135086742Y-62967200D02*
X135069738Y-62928200D01*
X125228049Y-62655200D02*
X125415093Y-62694200D01*
X141532545Y-84405500D02*
X141427011Y-84226100D01*
X144315133Y-87580100D02*
X144239863Y-87576200D01*
X142502241Y-91246100D02*
X142348620Y-91117400D01*
X130206360Y-63977300D02*
X130196337Y-64195700D01*
X142116453Y-82572500D02*
X141871845Y-82455500D01*
X127117404Y-68407700D02*
X126930867Y-68536400D01*
X115683111Y-67877300D02*
X115601991Y-67935800D01*
X122073924Y-64020200D02*
X122263425Y-64265900D01*
X115024479Y-67931900D02*
X115161096Y-67752500D01*
X142430130Y-77510300D02*
X142611363Y-77600000D01*
X145145977Y-71828000D02*
X145199087Y-71718800D01*
X146341241Y-83910200D02*
X146355152Y-84023300D01*
X142022034Y-78294200D02*
X142011621Y-78399500D01*
X119839848Y-65201900D02*
X119862780Y-65283800D01*
X141102102Y-84163700D02*
X140971998Y-84276800D01*
X129459276Y-61937600D02*
X129615354Y-61886900D01*
X146212295Y-77744300D02*
X146268373Y-77873000D01*
X147539303Y-77603900D02*
X147534560Y-77748200D01*
X125027745Y-62678600D02*
X125228049Y-62655200D01*
X129615354Y-61886900D02*
X129777867Y-61894700D01*
X134141265Y-63996800D02*
X134081322Y-63918800D01*
X118194984Y-67417100D02*
X118329261Y-67577000D01*
X129387789Y-63513200D02*
X129540864Y-63384500D01*
X144322827Y-83196500D02*
X144389314Y-83052200D01*
X142323855Y-76636700D02*
X142379430Y-76788800D01*
X143638701Y-88286000D02*
X143373150Y-88200200D01*
X146475023Y-71278100D02*
X146599023Y-71399000D01*
X114809979Y-68563700D02*
X114814347Y-68364800D01*
X144892309Y-81944600D02*
X145112215Y-81929000D01*
X123498165Y-68236100D02*
X123391110Y-68364800D01*
X141810576Y-79811300D02*
X142229241Y-79893200D01*
X143267343Y-77986100D02*
X143294760Y-77806700D01*
X137711559Y-64574000D02*
X137611251Y-64620800D01*
X127257531Y-68201000D02*
X127117404Y-68407700D01*
X123153834Y-63224600D02*
X123153834Y-63224600D01*
X126802011Y-64242500D02*
X126831378Y-64410200D01*
X146338663Y-84136400D02*
X146288236Y-84253400D01*
X143734083Y-89339000D02*
X143716654Y-89249300D01*
X145881396Y-72654800D02*
X146144626Y-72549500D01*
X128671242Y-64250300D02*
X128594295Y-64601300D01*
X144089167Y-84557600D02*
X144076874Y-84401600D01*
X134157060Y-62686400D02*
X134157060Y-62686400D01*
X115994058Y-68817200D02*
X116086020Y-68743100D01*
X143549508Y-91577600D02*
X143549508Y-91577600D01*
X131419845Y-63536600D02*
X131323671Y-63396200D01*
X146144626Y-72549500D02*
X146353456Y-72506600D01*
X135093840Y-63017900D02*
X135086742Y-62967200D01*
X142797822Y-84245600D02*
X142783275Y-84354800D01*
X141191880Y-82892300D02*
X141113568Y-83169200D01*
X146515727Y-79429100D02*
X146705985Y-79397900D01*
X142635387Y-89612000D02*
X142431495Y-89315600D01*
X145018478Y-85579400D02*
X145325459Y-85696400D01*
X120581862Y-66605900D02*
X120500703Y-66442100D01*
X144775578Y-86125400D02*
X144859171Y-86246300D01*
X134081322Y-63918800D02*
X134018688Y-63743300D01*
X119594382Y-66235400D02*
X119580693Y-66067700D01*
X130361541Y-64113800D02*
X130266576Y-63950000D01*
X142047267Y-90949700D02*
X141891852Y-90867800D01*
X143411643Y-86187800D02*
X143428647Y-86039600D01*
X146533191Y-73274900D02*
X146492249Y-73196900D01*
X147441563Y-77108600D02*
X147501250Y-77264600D01*
X145329745Y-77845700D02*
X145298950Y-77588300D01*
X126450855Y-67050500D02*
X126628851Y-66999800D01*
X135259005Y-64180100D02*
X135111390Y-64129400D01*
X130539732Y-62830700D02*
X130630719Y-62643500D01*
X143816600Y-87564500D02*
X143671855Y-87424100D01*
X126268452Y-68087900D02*
X126309324Y-68212700D01*
X145479692Y-83383700D02*
X145488253Y-83473400D01*
X145731226Y-71824100D02*
X145730833Y-71777300D01*
X145422424Y-79803500D02*
X145612815Y-79823000D01*
X126756771Y-64866500D02*
X126662859Y-64967900D01*
X125441652Y-68095700D02*
X125556273Y-68438900D01*
X147234214Y-73013600D02*
X147234214Y-73013600D01*
X145790312Y-75969800D02*
X145970503Y-75989300D01*
X132494061Y-62257400D02*
X132445623Y-62187200D01*
X129019200Y-64390700D02*
X128698503Y-63778400D01*
X142400997Y-84850100D02*
X142487109Y-84701900D01*
X114912588Y-68711900D02*
X114809979Y-68563700D01*
X117510690Y-66418700D02*
X117563574Y-66609800D01*
X116250717Y-69683000D02*
X115982280Y-69581600D01*
X120154617Y-65794700D02*
X120154617Y-65794700D01*
X128384514Y-67187000D02*
X127337988Y-67530200D01*
X146820816Y-81593600D02*
X146704183Y-81659900D01*
X143430675Y-89510600D02*
X143430675Y-89510600D01*
X144748458Y-72853700D02*
X144702469Y-72666500D01*
X130062840Y-63283100D02*
X130117167Y-63513200D01*
X146312038Y-81129500D02*
X146344720Y-81063200D01*
X147451710Y-78048500D02*
X147367159Y-78196700D01*
X141871845Y-82455500D02*
X141871845Y-82455500D01*
X127784226Y-63727700D02*
X127837383Y-63497600D01*
X141924417Y-81979700D02*
X141597558Y-81854900D01*
X143933432Y-87833600D02*
X143957448Y-87814100D01*
X137684688Y-62019500D02*
X137722557Y-62280800D01*
X134629077Y-62448500D02*
X134631963Y-62518700D01*
X146300798Y-80911100D02*
X146300798Y-80911100D01*
X125974236Y-64398500D02*
X126048648Y-64597400D01*
X144603670Y-84826700D02*
X144439656Y-84834500D01*
X146780315Y-77436200D02*
X146854454Y-77615600D01*
X145724916Y-83625500D02*
X145954459Y-83687900D01*
X143954215Y-86667500D02*
X143688188Y-86562200D01*
X144824863Y-80993000D02*
X144962622Y-80915000D01*
X136143096Y-61781600D02*
X136438092Y-61734800D01*
X135610902Y-62772200D02*
X135642258Y-63095900D01*
X122672808Y-65061500D02*
X122663916Y-64780700D01*
X144747030Y-82712900D02*
X144659249Y-82611500D01*
X121102668Y-65506100D02*
X121091124Y-65377400D01*
X126930867Y-68536400D02*
X126699168Y-68637800D01*
X115267527Y-67623800D02*
X115408434Y-67471700D01*
X127766676Y-66785300D02*
X127539891Y-66976400D01*
X126246300Y-63361100D02*
X126049350Y-63298700D01*
X143079714Y-78294200D02*
X143176512Y-78216200D01*
X141826254Y-78263000D02*
X141847431Y-78110900D01*
X146009523Y-74253800D02*
X146143687Y-74230400D01*
X125009025Y-63661400D02*
X125052627Y-63645800D01*
X126840348Y-63041300D02*
X126817572Y-62963300D01*
X118794258Y-65174600D02*
X118924011Y-65342300D01*
X145660574Y-76574300D02*
X145562006Y-76519700D01*
X145008857Y-83879000D02*
X144857560Y-83859500D01*
X119742972Y-67062200D02*
X119689893Y-67288400D01*
X119349189Y-67612100D02*
X119086797Y-67740800D01*
X133920564Y-63575600D02*
X133765734Y-64059200D01*
X145500093Y-72931700D02*
X145543071Y-72892700D01*
X130219464Y-63735500D02*
X130221882Y-63501500D01*
X142011621Y-78399500D02*
X141817167Y-78352700D01*
X134721312Y-62729300D02*
X134806566Y-62678600D01*
X123420984Y-64679300D02*
X123543678Y-64718300D01*
X147203301Y-76952600D02*
X147343765Y-76999400D01*
X115864539Y-68672900D02*
X115668369Y-68696300D01*
X124362522Y-68867900D02*
X124318023Y-68579300D01*
X137061234Y-64355600D02*
X136907886Y-64371200D01*
X120570903Y-64410200D02*
X120638568Y-64550600D01*
X120102396Y-67171400D02*
X119940897Y-67112900D01*
X147156977Y-79409600D02*
X147251654Y-79507100D01*
X134141265Y-63996800D02*
X134141265Y-63996800D01*
X143364843Y-75279500D02*
X143516358Y-75306800D01*
X145861155Y-71141600D02*
X145799531Y-71274200D01*
X146182363Y-76738100D02*
X146414662Y-76812200D01*
X119625387Y-66598100D02*
X119602962Y-66414800D01*
X115777764Y-67846100D02*
X115683111Y-67877300D01*
X131570853Y-61867400D02*
X131679624Y-61976600D01*
X142266057Y-83344700D02*
X142272219Y-83313500D01*
X144100375Y-84261200D02*
X144160400Y-84128600D01*
X144156247Y-90052700D02*
X143806011Y-90138500D01*
X142584648Y-84183200D02*
X142797822Y-84245600D01*
X145157244Y-85072400D02*
X145046402Y-84935900D01*
X118546452Y-66063800D02*
X118537326Y-66013100D01*
X132661371Y-62510900D02*
X132681300Y-62386100D01*
X129540864Y-63384500D02*
X129572298Y-63099800D01*
X134759922Y-63532700D02*
X134727669Y-63735500D01*
X117111252Y-67054400D02*
X117127710Y-67007600D01*
X129912066Y-61961000D02*
X130010658Y-62089700D01*
X145827291Y-74246000D02*
X145511130Y-74183600D01*
X138128313Y-62557700D02*
X138205416Y-62471900D01*
X134157060Y-62686400D02*
X134157060Y-62686400D01*
X142728324Y-77787200D02*
X142778712Y-77954900D01*
X142628172Y-78263000D02*
X142572441Y-78071900D01*
X143752273Y-85240100D02*
X143836486Y-85107500D01*
X146599012Y-71399000D02*
X146599012Y-71399000D01*
X144496096Y-82943000D02*
X144639109Y-82880600D01*
X146340063Y-78134300D02*
X146292538Y-78251300D01*
X118493646Y-65974100D02*
X118436628Y-65962400D01*
X145429846Y-80681000D02*
X145336398Y-80614700D01*
X130502682Y-64211300D02*
X130361541Y-64113800D01*
X146318254Y-71254700D02*
X146475023Y-71278100D01*
X147507100Y-77892500D02*
X147451710Y-78048500D01*
X118039530Y-67304000D02*
X118194984Y-67417100D01*
X120181215Y-65049800D02*
X120121935Y-64901600D01*
X115871169Y-68879600D02*
X115994058Y-68817200D01*
X127424958Y-64913300D02*
X127424958Y-64913300D01*
X144658707Y-88219700D02*
X144739016Y-88293800D01*
X147034392Y-79358900D02*
X147156977Y-79409600D01*
X124035312Y-69324200D02*
X124183083Y-69246200D01*
X147014018Y-81234800D02*
X146974585Y-81367400D01*
X141742716Y-78750500D02*
X141956007Y-78797300D01*
X128566059Y-67756400D02*
X128339937Y-68013800D01*
X115668369Y-68696300D02*
X115462488Y-68735300D01*
X122700927Y-69636200D02*
X122570784Y-69230600D01*
X144226977Y-85879700D02*
X144090734Y-85793900D01*
X128344617Y-63353300D02*
X128415948Y-63622400D01*
X119676906Y-66785300D02*
X119742972Y-67062200D01*
X146857234Y-80092100D02*
X146857234Y-80092100D01*
X138255570Y-63801800D02*
X138116847Y-64082600D01*
X146126776Y-72249200D02*
X145852575Y-72471500D01*
X116905449Y-68185400D02*
X116914731Y-68052800D01*
X145615116Y-80915000D02*
X145627369Y-80903300D01*
X145541121Y-83313500D02*
X145479692Y-83383700D01*
X134191809Y-64035800D02*
X134141265Y-63996800D01*
X137462193Y-64542800D02*
X137426274Y-64421900D01*
X122490405Y-68988800D02*
X122440914Y-68844500D01*
X131395158Y-62690300D02*
X131352102Y-62620100D01*
X145469419Y-74530700D02*
X146009523Y-74253800D01*
X146300798Y-80911100D02*
X146300798Y-80911100D01*
X129722058Y-64511600D02*
X129019200Y-64390700D01*
X131323671Y-63396200D02*
X131306589Y-63388400D01*
X144678702Y-84089600D02*
X144796705Y-84214400D01*
X144408713Y-87966200D02*
X144540092Y-88102700D01*
X143123433Y-91008200D02*
X143123433Y-91008200D01*
X135408414Y-64152800D02*
X135259005Y-64180100D01*
X127699089Y-66617600D02*
X127980084Y-66586400D01*
X133213767Y-62670800D02*
X133241067Y-62889200D01*
X119555928Y-65888300D02*
X119501640Y-65705000D01*
X140610195Y-84635600D02*
X140703561Y-84319700D01*
X128313807Y-67031000D02*
X128071539Y-66800900D01*
X119559789Y-66613700D02*
X119676906Y-66785300D01*
X146440122Y-72034700D02*
X146126776Y-72249200D01*
X131210766Y-62553800D02*
X131136159Y-62581100D01*
X140578839Y-84838400D02*
X140610195Y-84635600D01*
X144817804Y-88601900D02*
X144817804Y-88601900D01*
X116790048Y-69374900D02*
X116642316Y-69534800D01*
X132569331Y-62943800D02*
X132614844Y-62686400D01*
X124675185Y-63930500D02*
X124695855Y-63829100D01*
X147251654Y-79507100D02*
X147301957Y-79639700D01*
X137463519Y-64078700D02*
X137538672Y-63914900D01*
X118611426Y-66824300D02*
X118711344Y-66777500D01*
X124183083Y-69246200D02*
X124287681Y-69125300D01*
X135621822Y-63914900D02*
X135532395Y-64059200D01*
X118033485Y-66075500D02*
X117899793Y-66098900D01*
X145635158Y-83590400D02*
X145724916Y-83625500D01*
X121204458Y-66660500D02*
X121041204Y-66789200D01*
X118425552Y-67842200D02*
X118401372Y-68068400D01*
X147255428Y-78317600D02*
X147123799Y-78395600D01*
X145689493Y-85634000D02*
X145562142Y-85614500D01*
X145649209Y-76004900D02*
X145790312Y-75969800D01*
X146129054Y-73247600D02*
X146117315Y-73407500D01*
X146568790Y-71925500D02*
X146440122Y-72034700D01*
X143757390Y-74944100D02*
X143887232Y-74710100D01*
X126817767Y-64733900D02*
X126756771Y-64866500D01*
X142286064Y-84932000D02*
X142400997Y-84850100D01*
X142495728Y-79132700D02*
X142266915Y-79089800D01*
X146854454Y-77615600D02*
X146934778Y-77689700D01*
X143123433Y-91008200D02*
X143123433Y-91008200D01*
X124695855Y-63829100D02*
X124756383Y-63747200D01*
X144492532Y-85216700D02*
X144663391Y-85345400D01*
X146300798Y-80911100D02*
X146300798Y-80911100D01*
X146016558Y-82732400D02*
X145928422Y-82709000D01*
X124914528Y-69000500D02*
X124961328Y-68984900D01*
X116015079Y-68165900D02*
X116277159Y-68181500D01*
X145831355Y-84374300D02*
X145974286Y-84401600D01*
X126976302Y-63794000D02*
X126901695Y-63762800D01*
X126709113Y-62663000D02*
X126753963Y-62409500D01*
X146879839Y-79362800D02*
X147034392Y-79358900D01*
X143202681Y-86932700D02*
X143218593Y-86765000D01*
X126610170Y-63618500D02*
X126651666Y-63513200D01*
X134168682Y-61719200D02*
X134231901Y-61637300D01*
X146009047Y-83067800D02*
X146089231Y-83149700D01*
X116839617Y-67522400D02*
X116817075Y-67417100D01*
X146284562Y-80372900D02*
X146417135Y-80509400D01*
X118165734Y-67190900D02*
X118195920Y-67062200D01*
X118793946Y-66691700D02*
X118785054Y-66559100D01*
X144465166Y-86281400D02*
X144501697Y-86277500D01*
X117666885Y-65946800D02*
X117636543Y-65759600D01*
X144125858Y-86913200D02*
X144292739Y-87045800D01*
X125252112Y-68263400D02*
X125203167Y-68115200D01*
X144198269Y-87603500D02*
X144212227Y-87697100D01*
X142297257Y-83032700D02*
X142257906Y-82787000D01*
X145375796Y-77229500D02*
X145543153Y-76960400D01*
X146263717Y-78559400D02*
X146359368Y-78762200D01*
X141604539Y-90618200D02*
X141549939Y-90438800D01*
X116170533Y-66851600D02*
X116252316Y-66648800D01*
X124353903Y-63017900D02*
X124494615Y-62877500D01*
X126651666Y-63513200D02*
X126583767Y-63443000D01*
X138600174Y-62444600D02*
X138600174Y-62444600D01*
X117043860Y-67120700D02*
X117079779Y-67089500D01*
X142517997Y-77892500D02*
X142459419Y-77791100D01*
X144428942Y-89561300D02*
X144380828Y-89799200D01*
X146116192Y-81184100D02*
X146182983Y-81188000D01*
X128795184Y-66578600D02*
X128524446Y-66578600D01*
X147256454Y-79947800D02*
X147166758Y-80053100D01*
X145322542Y-83945300D02*
X145162466Y-83902400D01*
X144758582Y-86031800D02*
X144775578Y-86125400D01*
X130023645Y-62858000D02*
X130025517Y-63060800D01*
X140777466Y-85010000D02*
X140564097Y-84955400D01*
X120474846Y-64320500D02*
X120570903Y-64410200D01*
X144817800Y-88601900D02*
X144817804Y-88601900D01*
X126386115Y-68727500D02*
X126248172Y-68762600D01*
X125080746Y-64051400D02*
X124956375Y-64047500D01*
X145588744Y-82073300D02*
X145708665Y-82127900D01*
X130124538Y-67292300D02*
X130496247Y-67124600D01*
X145130701Y-80915000D02*
X145307039Y-80946200D01*
X144124844Y-85052900D02*
X144310577Y-85111400D01*
X147530453Y-74963600D02*
X147521763Y-74994800D01*
X134131359Y-61851800D02*
X134159595Y-61734800D01*
X135091812Y-63056900D02*
X135093840Y-63017900D01*
X133436028Y-62304200D02*
X133363956Y-62312000D01*
X116066988Y-68692400D02*
X116039883Y-68684600D01*
X147016074Y-73770200D02*
X146660799Y-74043200D01*
X141563316Y-90255500D02*
X141624468Y-90087800D01*
X145291447Y-73177400D02*
X145500093Y-72931700D01*
X146029140Y-70580000D02*
X146013072Y-70778900D01*
X135781176Y-63474200D02*
X135884565Y-63263600D01*
X124004775Y-64359500D02*
X124139988Y-64363400D01*
X142891851Y-79729400D02*
X142988181Y-79514900D01*
X121896357Y-64878200D02*
X121868784Y-64761200D01*
X117426723Y-66239300D02*
X117510690Y-66418700D01*
X142541904Y-81866600D02*
X142250184Y-81983600D01*
X123937812Y-63419600D02*
X124009650Y-63571700D01*
X142856127Y-81102200D02*
X142855698Y-81394700D01*
X130440087Y-62990600D02*
X130539732Y-62830700D01*
X118404219Y-66902300D02*
X118506711Y-66863300D01*
X146435137Y-81652100D02*
X146272351Y-81613100D01*
X127399023Y-62670800D02*
X127419693Y-62951600D01*
X144450349Y-87626900D02*
X144394459Y-87603500D01*
X141956007Y-78797300D02*
X142296789Y-78863600D01*
X120454800Y-66169100D02*
X120442944Y-66032600D01*
X145632537Y-85809500D02*
X145720158Y-85875800D01*
X145096104Y-80318300D02*
X145082399Y-80099900D01*
X116086020Y-68743100D02*
X116097330Y-68727500D01*
X131352102Y-62620100D02*
X131288571Y-62569400D01*
X117074631Y-66929600D02*
X117074631Y-66929600D01*
X124639773Y-63446900D02*
X124509045Y-63427400D01*
X137438442Y-63739400D02*
X137370426Y-63903200D01*
X124956375Y-64047500D02*
X124833603Y-64039700D01*
X131040375Y-63992900D02*
X130905552Y-64148900D01*
X127269309Y-62393900D02*
X127356786Y-62526500D01*
X116875380Y-69254000D02*
X116790165Y-69374900D01*
X144168126Y-88488800D02*
X143907544Y-88375700D01*
X125669607Y-63205100D02*
X125656893Y-63400100D01*
X146740012Y-82338500D02*
X146783739Y-82443800D01*
X146288236Y-84253400D02*
X146210029Y-84335300D01*
X145380663Y-84460100D02*
X145535950Y-84428900D01*
X123748389Y-64273700D02*
X123581625Y-64437500D01*
X136396206Y-64343900D02*
X136085376Y-64421900D01*
X121762587Y-65127800D02*
X121850493Y-65069300D01*
X145289723Y-72869300D02*
X145141663Y-72931700D01*
X143281188Y-76188200D02*
X143015910Y-76086800D01*
X124403433Y-63357200D02*
X124333896Y-63205100D01*
X145110604Y-82989800D02*
X145158508Y-82958600D01*
X127356786Y-62526500D02*
X127398984Y-62670800D01*
X121041204Y-66789200D02*
X120847140Y-66816500D01*
X126901695Y-63762800D02*
X126841050Y-63797900D01*
X145515814Y-84889100D02*
X145546842Y-84935900D01*
X134946849Y-62982800D02*
X134857578Y-63150500D01*
X145321804Y-71356100D02*
X145206634Y-71496500D01*
X146705985Y-79397900D02*
X146879839Y-79362800D01*
X144291811Y-87821900D02*
X144408713Y-87966200D01*
X121136364Y-65884400D02*
X121226103Y-66052100D01*
X143502240Y-77767700D02*
X143492607Y-77834000D01*
X123493680Y-69140900D02*
X123686145Y-69300800D01*
X128397618Y-62690300D02*
X128364585Y-62885300D01*
X126345438Y-62659100D02*
X126478038Y-62811200D01*
X146210029Y-84335300D02*
X146102904Y-84370400D01*
X121637397Y-64476500D02*
X121485375Y-64449200D01*
X142665534Y-81359600D02*
X142665261Y-81188000D01*
X145656725Y-84148100D02*
X145496435Y-84035000D01*
X141362856Y-80833100D02*
X141547872Y-80638100D01*
X122775729Y-64535000D02*
X122954856Y-64328300D01*
X146509651Y-73458200D02*
X146537536Y-73372400D01*
X146698524Y-80692700D02*
X146842469Y-80782400D01*
X143730920Y-76441700D02*
X143730495Y-76734200D01*
X143809599Y-85563800D02*
X143742067Y-85407800D01*
X119823039Y-65104400D02*
X119839848Y-65201900D01*
X143419443Y-86234600D02*
X143411643Y-86187800D01*
X147026857Y-76991600D02*
X147203301Y-76952600D01*
X146246678Y-80856500D02*
X146182655Y-80825300D01*
X141844974Y-83539700D02*
X141390078Y-83453900D01*
X131767179Y-62273000D02*
X131787654Y-62464100D01*
X131558412Y-64113800D02*
X131497767Y-63930500D01*
X124004736Y-68181500D02*
X123832980Y-68126900D01*
X143507388Y-85914800D02*
X143625168Y-85848500D01*
X117942771Y-65393000D02*
X118224702Y-65209700D01*
X119602962Y-66414800D02*
X119594382Y-66235400D01*
X131171961Y-62932100D02*
X131233893Y-62936000D01*
X121534593Y-66204200D02*
X121146387Y-65654300D01*
X146963654Y-77151500D02*
X147026857Y-76991600D01*
X135716553Y-63731600D02*
X135717801Y-63716000D01*
X135666399Y-63735500D02*
X135621822Y-63914900D01*
X120842421Y-64199600D02*
X120945264Y-64028000D01*
X126803727Y-67658900D02*
X127093341Y-67744700D01*
X143430675Y-89510600D02*
X143430675Y-89510600D01*
X145546811Y-76086800D02*
X145649209Y-76004900D01*
X126248172Y-68762600D02*
X126166818Y-68520800D01*
X141817167Y-78352700D02*
X141826254Y-78263000D01*
X142754142Y-84545900D02*
X142660347Y-84846200D01*
X146694425Y-80041400D02*
X146546603Y-79967300D01*
X131136159Y-62581100D02*
X131076216Y-62643500D01*
X145496435Y-84035000D02*
X145322542Y-83945300D01*
X125820264Y-62698100D02*
X125896665Y-62592800D01*
X134157060Y-62686400D02*
X134161389Y-62596700D01*
X144390457Y-89307800D02*
X144428942Y-89561300D01*
X121248489Y-65186300D02*
X121377462Y-65159000D01*
X145708665Y-82127900D02*
X145837439Y-82174700D01*
X123153834Y-63224600D02*
X123305037Y-63201200D01*
X145057837Y-84432800D02*
X145219917Y-84471800D01*
X145811395Y-85602800D02*
X145689493Y-85634000D01*
X144766394Y-87868700D02*
X144665844Y-87782900D01*
X117003651Y-67924100D02*
X117095769Y-67857800D01*
X136508214Y-63353300D02*
X136540311Y-63583400D01*
X128240877Y-62159900D02*
X128394810Y-62475800D01*
X142846962Y-87697100D02*
X142868802Y-87548900D01*
X147394151Y-75240500D02*
X147191417Y-75423800D01*
X120442944Y-66032600D02*
X120409989Y-65903900D01*
X134936163Y-63868100D02*
X134917014Y-63680900D01*
X145397425Y-71309300D02*
X145321804Y-71356100D01*
X125973378Y-67935800D02*
X125910276Y-67604300D01*
X115872300Y-67814900D02*
X115777764Y-67846100D01*
X127227111Y-64917200D02*
X127075557Y-64850900D01*
X142746810Y-90563600D02*
X142649505Y-90590900D01*
X141847431Y-78110900D02*
X141927576Y-77841800D01*
X147115036Y-72771800D02*
X147234214Y-73013600D01*
X143061735Y-91058900D02*
X143123433Y-91008200D01*
X143668243Y-89171300D02*
X143592369Y-89105000D01*
X120479916Y-66886700D02*
X120421572Y-67027100D01*
X120195333Y-65307200D02*
X120214872Y-65190200D01*
X121091124Y-65377400D02*
X121135506Y-65268200D01*
X124410687Y-65034200D02*
X124310652Y-65326700D01*
X131818347Y-62666900D02*
X131885037Y-62881400D01*
X144439656Y-84834500D02*
X144309704Y-84815000D01*
X123299889Y-69273500D02*
X123133593Y-68973200D01*
X130009488Y-65630900D02*
X129621321Y-65716700D01*
X145666077Y-86355500D02*
X145447318Y-86339900D01*
X123588450Y-67970900D02*
X123878649Y-67935800D01*
X146339552Y-74296700D02*
X146385927Y-74413700D01*
X115577694Y-67339100D02*
X115750308Y-67288400D01*
X144836352Y-88438100D02*
X144817800Y-88601900D01*
X146026823Y-81094400D02*
X146059408Y-81149000D01*
X143428725Y-75525200D02*
X143039700Y-75451100D01*
X130965027Y-66134000D02*
X130751541Y-65818100D01*
X143068599Y-80045300D02*
X143024763Y-80279300D01*
X133308966Y-62331500D02*
X133236543Y-62460200D01*
X127656618Y-62222300D02*
X127909767Y-62093600D01*
X143549508Y-91577600D02*
X143290353Y-91799900D01*
X142272219Y-83313500D02*
X142297257Y-83032700D01*
X124991904Y-64340000D02*
X125101650Y-64324400D01*
X143268162Y-88321100D02*
X143643732Y-88461500D01*
X142586559Y-90743000D02*
X142647087Y-90828800D01*
X130088970Y-67382000D02*
X130056054Y-67311800D01*
X142977612Y-87977900D02*
X142887171Y-87845300D01*
X145546842Y-84935900D02*
X145639417Y-85002200D01*
X117034929Y-68969300D02*
X116960127Y-69117500D01*
X135609147Y-62452400D02*
X135610902Y-62772200D01*
X126155859Y-67740800D02*
X126530493Y-67670600D01*
X126362676Y-65018600D02*
X126216699Y-64928900D01*
X144282657Y-86180000D02*
X144391966Y-86254100D01*
X136018140Y-61996100D02*
X136143096Y-61781600D01*
X120154617Y-65794700D02*
X120106062Y-66028700D01*
X124139988Y-64363400D02*
X124255506Y-64441400D01*
X130115334Y-64351700D02*
X129960075Y-64453100D01*
X122413458Y-64554500D02*
X122522736Y-64862600D01*
X133080348Y-61719200D02*
X133080348Y-61719200D01*
X123084453Y-68641700D02*
X123163389Y-68329700D01*
X143048865Y-90707900D02*
X142972581Y-90633800D01*
X121274502Y-66477200D02*
X121204458Y-66660500D01*
X146250835Y-73142300D02*
X146129054Y-73247600D01*
X134683482Y-62159900D02*
X134647680Y-62304200D01*
X145357626Y-75209300D02*
X145357626Y-75209300D01*
X147234214Y-73013600D02*
X147234214Y-73013600D01*
X118195920Y-67062200D02*
X118303248Y-66953000D01*
X146596976Y-78142100D02*
X146491758Y-77935400D01*
X124155276Y-68013800D02*
X124398675Y-68216600D01*
X141024570Y-82790900D02*
X141201318Y-82478900D01*
X135119229Y-62011700D02*
X135157098Y-61898600D01*
X141852345Y-80513300D02*
X142196559Y-80513300D01*
X124012107Y-63848600D02*
X123908874Y-64082600D01*
X128412087Y-67491200D02*
X128384514Y-67187000D01*
X133866900Y-62175500D02*
X133779930Y-62265200D01*
X123368490Y-68906900D02*
X123493680Y-69140900D01*
X124914528Y-69000500D02*
X124914528Y-69000500D01*
X131412201Y-62764400D02*
X131412201Y-62764400D01*
X117191436Y-67807100D02*
X117289326Y-67752500D01*
X126193299Y-62553800D02*
X126345438Y-62659100D01*
X127909728Y-62093600D02*
X127909728Y-62093600D01*
X145439081Y-79745000D02*
X145415771Y-79741100D01*
X146704183Y-81659900D02*
X146578696Y-81675500D01*
X134646081Y-62612300D02*
X134674707Y-62694200D01*
X130345512Y-63146600D02*
X130440087Y-62990600D01*
X133549050Y-62308100D02*
X133436028Y-62304200D01*
X144834698Y-85474100D02*
X145018478Y-85579400D01*
X143957448Y-87814100D02*
X143928034Y-87708800D01*
X119270565Y-66348500D02*
X119416815Y-66481100D01*
X123133593Y-68973200D02*
X123133593Y-68973200D01*
X142988181Y-79514900D02*
X142953198Y-79288700D01*
X127383462Y-63372800D02*
X127392432Y-63575600D01*
X144877216Y-82783100D02*
X144747030Y-82712900D01*
X128334672Y-63099800D02*
X128344617Y-63353300D01*
X143312544Y-78372200D02*
X143139657Y-78508700D01*
X145443652Y-85524800D02*
X145345138Y-85388300D01*
X145957883Y-85310300D02*
X145964770Y-85435100D01*
X118287492Y-68263400D02*
X118115034Y-68427200D01*
X115646061Y-69168200D02*
X115663299Y-69016100D01*
X145535950Y-84428900D02*
X145686778Y-84389900D01*
X126485526Y-63758900D02*
X126610170Y-63618500D01*
X120277974Y-67140200D02*
X120102396Y-67171400D01*
X144492076Y-86148800D02*
X144376070Y-86012300D01*
X141692718Y-80025800D02*
X141509457Y-79994600D01*
X118115034Y-68427200D02*
X118102788Y-68435000D01*
X137792367Y-63536600D02*
X137806680Y-63497600D01*
X134168682Y-61719200D02*
X134168682Y-61719200D01*
X118380117Y-66582500D02*
X118274310Y-66586400D01*
X143492607Y-77834000D02*
X143467491Y-77986100D01*
X146028523Y-79811300D02*
X145823251Y-79791800D01*
X146082636Y-80852600D02*
X146073136Y-80864300D01*
X145193455Y-80486000D02*
X145096104Y-80318300D01*
X123558186Y-69480200D02*
X123299889Y-69273500D01*
X117882906Y-68587100D02*
X117625974Y-68692400D01*
X122001072Y-68598800D02*
X122376603Y-68653400D01*
X140610936Y-83309600D02*
X140195586Y-83235500D01*
X143071368Y-75852800D02*
X143071368Y-75852800D01*
X145360929Y-78571100D02*
X145948999Y-78442400D01*
X137784333Y-63380600D02*
X137678760Y-63419600D01*
X136974459Y-62858000D02*
X137020050Y-62487500D01*
X130802280Y-66878900D02*
X130993653Y-66520100D01*
X117355275Y-67424900D02*
X117257034Y-67448300D01*
X123670896Y-64648100D02*
X123776469Y-64538900D01*
X143907544Y-88375700D02*
X143638701Y-88286000D01*
X133241067Y-62889200D02*
X133307484Y-63072500D01*
X127338066Y-67530200D02*
X127338066Y-67530200D01*
X143770712Y-85840700D02*
X143928740Y-85887500D01*
X146359368Y-78762200D02*
X146296040Y-78883100D01*
X147225008Y-73415300D02*
X147016074Y-73770200D01*
X123332493Y-63891500D02*
X123267129Y-63813500D01*
X146546603Y-79967300D02*
X146393985Y-79897100D01*
X145219917Y-84471800D02*
X145380663Y-84460100D01*
X144309704Y-84815000D02*
X144161761Y-84705800D01*
X130025517Y-63060800D02*
X130062840Y-63283100D01*
X132445623Y-62187200D02*
X132421092Y-62054600D01*
X130678494Y-62471900D02*
X130714881Y-62276900D01*
X144540092Y-88102700D02*
X144658707Y-88219700D01*
X146321316Y-78005600D02*
X146340063Y-78134300D01*
X143551263Y-86464700D02*
X143456493Y-86336000D01*
X143113137Y-77081300D02*
X143343393Y-76995500D01*
X128470236Y-66867200D02*
X128617383Y-67148000D01*
X124756383Y-63747200D02*
X124877673Y-63688700D01*
X131685786Y-64238600D02*
X131558412Y-64113800D01*
X124833603Y-64039700D02*
X124731852Y-64012400D01*
X131740737Y-62109200D02*
X131767179Y-62273000D01*
X117257034Y-67448300D02*
X117142218Y-67499000D01*
X143218593Y-86765000D02*
X143307396Y-86632400D01*
X128415948Y-63622400D02*
X128514033Y-63829100D01*
X142366521Y-77740400D02*
X142244490Y-77756000D01*
X145078710Y-87420200D02*
X145164120Y-87490400D01*
X126806457Y-63860300D02*
X126787698Y-63930500D01*
X145345138Y-85388300D02*
X145253671Y-85232300D01*
X135429396Y-61711400D02*
X135429396Y-61711400D01*
X126309324Y-68212700D02*
X126386388Y-68442800D01*
X128608452Y-64016300D02*
X128668239Y-64230800D01*
X125973456Y-67374200D02*
X126158784Y-67187000D01*
X146661595Y-71597900D02*
X146646740Y-71777300D01*
X145230525Y-87802400D02*
X145094883Y-87966200D01*
X146905208Y-74909000D02*
X146960857Y-74768600D01*
X117880566Y-67190900D02*
X118039530Y-67304000D01*
X144817804Y-88601900D02*
X144698116Y-88738400D01*
X136760856Y-62460200D02*
X136670571Y-62635700D01*
X120102630Y-65385200D02*
X120195333Y-65307200D01*
X145993018Y-71348300D02*
X146149794Y-71289800D01*
X126212877Y-67912400D02*
X126268452Y-68087900D01*
X123163389Y-68329700D02*
X123333000Y-68107400D01*
X147136127Y-74148500D02*
X147300023Y-74179700D01*
X127338066Y-67530200D02*
X127277928Y-67190900D01*
X135069738Y-62928200D02*
X135037446Y-62912600D01*
X116624376Y-66270500D02*
X116705925Y-66204200D01*
X115965588Y-67456100D02*
X116000688Y-67561400D01*
X145220291Y-87591800D02*
X145244526Y-87701000D01*
X135056946Y-62183300D02*
X135119229Y-62011700D01*
X144639109Y-82880600D02*
X144811443Y-82884500D01*
X135429357Y-61711400D02*
X135429396Y-61711400D01*
X127909728Y-62093600D02*
X127909728Y-62093600D01*
X126049350Y-63298700D02*
X125886252Y-63185600D01*
X145678058Y-84893000D02*
X145564533Y-84877400D01*
X126323520Y-63922700D02*
X126485526Y-63758900D01*
X138600174Y-62444600D02*
X138814245Y-62651300D01*
X130496247Y-67124600D02*
X130802280Y-66878900D01*
X131679624Y-61976600D02*
X131740737Y-62109200D01*
X118198533Y-66527900D02*
X118190382Y-66422600D01*
X142893411Y-80010200D02*
X142896102Y-80014100D01*
X145761179Y-85091900D02*
X145877488Y-85197200D01*
X132616053Y-62304200D02*
X132555330Y-62284700D01*
X146374102Y-73571300D02*
X146374102Y-73571300D01*
X146943222Y-80864300D02*
X147022727Y-81039800D01*
X145244526Y-87701000D02*
X145230525Y-87802400D01*
X142844193Y-77077400D02*
X143113137Y-77081300D01*
X142702935Y-79979000D02*
X142891851Y-79729400D01*
X145652739Y-83301800D02*
X145541121Y-83313500D01*
X129796197Y-67596500D02*
X129567423Y-67670600D01*
X121570941Y-63762800D02*
X121841991Y-63840800D01*
X124395945Y-64702700D02*
X124410687Y-65034200D01*
X136061703Y-62592800D02*
X136043178Y-62370500D01*
X146102483Y-84893000D02*
X145975710Y-84924200D01*
X117096822Y-68641700D02*
X117087774Y-68821100D01*
X122675070Y-68817200D02*
X122797179Y-69191600D01*
X144700492Y-83812700D02*
X144520592Y-83711300D01*
X136540311Y-63583400D02*
X136573227Y-63794000D01*
X117095769Y-67857800D02*
X117191436Y-67807100D01*
X137518431Y-63111500D02*
X137616009Y-63084200D01*
X126838788Y-63088100D02*
X126840348Y-63041300D01*
X143297568Y-90267200D02*
X143556099Y-90672800D01*
X143510898Y-87513800D02*
X143619396Y-87623000D01*
X123267129Y-63813500D02*
X123160581Y-63809600D01*
X145681786Y-71777300D02*
X145583662Y-71820200D01*
X121278753Y-66270500D02*
X121274502Y-66477200D01*
X143071368Y-75852800D02*
X143384382Y-75965900D01*
X126065340Y-64363400D02*
X126167520Y-64125500D01*
X125027745Y-62678600D02*
X125027745Y-62678600D01*
X126733020Y-67842200D02*
X126444342Y-67865600D01*
X142134471Y-84947600D02*
X142286064Y-84932000D01*
X130059798Y-62288600D02*
X130059798Y-62288600D01*
X138378225Y-63505400D02*
X138255570Y-63801800D01*
X134159985Y-62440700D02*
X134159985Y-62440700D01*
X133718700Y-63131000D02*
X133866042Y-63255800D01*
X117278913Y-66087200D02*
X117426723Y-66239300D01*
X115263198Y-68766500D02*
X115076271Y-68770400D01*
X134157060Y-62686400D02*
X134157060Y-62686400D01*
X146425707Y-73142300D02*
X146343429Y-73126700D01*
X126583767Y-63443000D02*
X126435801Y-63404000D01*
X142845675Y-78961100D02*
X143153151Y-79140500D01*
X140240280Y-82997600D02*
X140926407Y-83134100D01*
X125886252Y-63185600D02*
X125793900Y-62998400D01*
X144380828Y-89799200D02*
X144156247Y-90052700D01*
X146412962Y-77736500D02*
X146343530Y-77580500D01*
X130750293Y-62093600D02*
X130797444Y-61957100D01*
X129315015Y-66130100D02*
X129460407Y-66586400D01*
X142084317Y-77978300D02*
X142050036Y-78114800D01*
X135157098Y-61898600D02*
X135257991Y-61746500D01*
X143781242Y-86663600D02*
X143959531Y-86772800D01*
X118329261Y-67577000D02*
X118425552Y-67842200D01*
X145948999Y-78442400D02*
X146263717Y-78559400D01*
X123305037Y-63201200D02*
X123475428Y-63201200D01*
X143124993Y-77323100D02*
X142799226Y-77319200D01*
X145687921Y-70299200D02*
X145823278Y-70299200D01*
X141606918Y-84027200D02*
X141768378Y-84288500D01*
X145410721Y-86999000D02*
X145410721Y-86999000D01*
X123648822Y-68154200D02*
X123498165Y-68236100D01*
X142459419Y-77791100D02*
X142366521Y-77740400D01*
X146353456Y-72506600D02*
X146353456Y-72506600D01*
X123368490Y-68906900D02*
X123368490Y-68906900D01*
X118224741Y-65209700D02*
X118224741Y-65209700D01*
X146773934Y-82673900D02*
X146647434Y-82892300D01*
X142238328Y-81741800D02*
X142468584Y-81656000D01*
X145730833Y-71777300D02*
X145681786Y-71777300D01*
X133080348Y-61719200D02*
X133080348Y-61719200D01*
X146645289Y-82268300D02*
X146740012Y-82338500D01*
X119245995Y-65225300D02*
X119181723Y-64862600D01*
X127711140Y-62815100D02*
X127640589Y-62627900D01*
X134168682Y-61719200D02*
X134168682Y-61719200D01*
X131076216Y-62643500D02*
X131039322Y-62721500D01*
X126796941Y-63115400D02*
X126838788Y-63088100D01*
X120409989Y-65903900D02*
X120312021Y-65779100D01*
X145720158Y-85875800D02*
X145779508Y-85973300D01*
X146298294Y-76274000D02*
X146298294Y-76274000D01*
X122579052Y-63556100D02*
X122703735Y-63439100D01*
X125052627Y-63645800D02*
X125094591Y-63626300D01*
X133779930Y-62265200D02*
X133669287Y-62304200D01*
X142788150Y-91542500D02*
X142644357Y-91394300D01*
X144424925Y-86269700D02*
X144465166Y-86281400D01*
X145779333Y-82931300D02*
X145893646Y-82993700D01*
X146182655Y-80825300D02*
X146121437Y-80829200D01*
X143742067Y-85407800D02*
X143752273Y-85240100D01*
X137944467Y-64351700D02*
X137825868Y-64480400D01*
X119062890Y-65935100D02*
X119146038Y-66169100D01*
X133765734Y-64059200D02*
X133314855Y-64230800D01*
X135642258Y-63095900D02*
X135669246Y-63411800D01*
X115614198Y-68056700D02*
X115787670Y-68142500D01*
X144874611Y-86008400D02*
X144799212Y-86004500D01*
X146524007Y-75076700D02*
X146524007Y-75076700D01*
X115462488Y-68735300D02*
X115263198Y-68766500D01*
X146070421Y-80103800D02*
X146175842Y-80236400D01*
X144738481Y-72498800D02*
X144834531Y-72346700D01*
X120164757Y-64340000D02*
X120344235Y-64289300D01*
X146509811Y-75076700D02*
X146524007Y-75076700D01*
X142495767Y-82989800D02*
X142437111Y-83485100D01*
X117625974Y-68692400D02*
X117350439Y-68672900D01*
X144982766Y-72959000D02*
X144842058Y-72939500D01*
X123153834Y-63224600D02*
X123153834Y-63224600D01*
X136438092Y-61734800D02*
X136438092Y-61734800D01*
X137442420Y-61871300D02*
X137684688Y-62019500D01*
X124191897Y-68341400D02*
X124004736Y-68181500D01*
X145437904Y-71383400D02*
X145445364Y-71321000D01*
X144954608Y-86027900D02*
X144874611Y-86008400D01*
X143479386Y-76367600D02*
X143281188Y-76188200D01*
X146344720Y-81063200D02*
X146340328Y-80989100D01*
X141853359Y-89834300D02*
X142174329Y-89732900D01*
X145893646Y-82993700D02*
X146009047Y-83067800D01*
X142393080Y-76301300D02*
X142327248Y-76472900D01*
X119799171Y-66976400D02*
X119684199Y-66785300D01*
X145562142Y-85614500D02*
X145443652Y-85524800D01*
X145112215Y-81929000D02*
X145344514Y-81971900D01*
X129596712Y-65724500D02*
X129572103Y-65732300D01*
X143540343Y-76695200D02*
X143540070Y-76523600D01*
X128668239Y-64230800D02*
X128671242Y-64250300D01*
X130193958Y-67491200D02*
X130169349Y-67502900D01*
X145970363Y-76574300D02*
X145783210Y-76593800D01*
X146272351Y-81613100D02*
X146096208Y-81581900D01*
X145357626Y-75209300D02*
X145357626Y-75209300D01*
X146537536Y-73372400D02*
X146533191Y-73274900D01*
X128652561Y-67475600D02*
X128566059Y-67756400D01*
X127255269Y-67951400D02*
X127257531Y-68201000D01*
X122445009Y-66017000D02*
X122111247Y-66235400D01*
X144256044Y-84027200D02*
X144383726Y-83976500D01*
X116896089Y-66095000D02*
X117093507Y-66048200D01*
X131356509Y-62889200D02*
X131400423Y-62838500D01*
X144239863Y-87576200D02*
X144198269Y-87603500D01*
X130169349Y-67502900D02*
X130143336Y-67510700D01*
X135884565Y-63263600D02*
X135992478Y-63060800D01*
X145238785Y-86628500D02*
X145321496Y-86698700D01*
X142832610Y-78138200D02*
X142888809Y-78243500D01*
X132390906Y-63758900D02*
X132390906Y-63758900D01*
X127277928Y-67190900D02*
X127333074Y-66921800D01*
X133314855Y-64230800D02*
X132767724Y-64008500D01*
X141553878Y-79756700D02*
X141810576Y-79811300D01*
X146117315Y-73407500D02*
X146215275Y-73555700D01*
X136566246Y-64012400D02*
X136562697Y-64035800D01*
X133307484Y-63072500D02*
X133402917Y-63201200D01*
X115906503Y-67370300D02*
X115965588Y-67456100D01*
X117093507Y-66048200D02*
X117278913Y-66087200D01*
X144397446Y-71570600D02*
X144595995Y-71270300D01*
X144181109Y-86082500D02*
X144282657Y-86180000D01*
X146338663Y-84136400D02*
X146338663Y-84136400D01*
X122954856Y-64328300D02*
X123145761Y-64152800D01*
X142552512Y-75361400D02*
X142384266Y-75334100D01*
X140881830Y-84460100D02*
X140822355Y-84662900D01*
X126905439Y-64386800D02*
X126953487Y-64215200D01*
X143230605Y-78114800D02*
X143267343Y-77986100D01*
X125129964Y-63540500D02*
X125097672Y-63489800D01*
X122859774Y-65447600D02*
X122672808Y-65061500D01*
X146524007Y-75076700D02*
X146614335Y-75072800D01*
X143384382Y-75965900D02*
X143619123Y-76188200D01*
X143015910Y-76086800D02*
X142749930Y-76086800D01*
X143441400Y-89081600D02*
X143337855Y-89186900D01*
X120045768Y-64445300D02*
X120164757Y-64340000D01*
X127687818Y-64199600D02*
X127753728Y-64394600D01*
X127731693Y-64207400D02*
X127734540Y-63957800D01*
X142000350Y-84877400D02*
X142134471Y-84947600D01*
X146300798Y-80911100D02*
X146300798Y-80911100D01*
X142141101Y-80751200D02*
X141875121Y-80747300D01*
X146298294Y-76270100D02*
X146298294Y-76270100D01*
X123391110Y-68364800D02*
X123326370Y-68626100D01*
X124318023Y-68579300D02*
X124191897Y-68341400D01*
X144212227Y-87697100D02*
X144291811Y-87821900D01*
X145807206Y-86082500D02*
X145796415Y-86187800D01*
X143373150Y-88200200D02*
X143111070Y-88083200D01*
X144391966Y-86254100D02*
X144424925Y-86269700D01*
X142080846Y-83348600D02*
X142259583Y-83379800D01*
X120254730Y-66270500D02*
X120339516Y-66399200D01*
X145415771Y-79741100D02*
X145234207Y-79670900D01*
X117736890Y-67027100D02*
X117880566Y-67190900D01*
X145979789Y-75650000D02*
X145654810Y-75552500D01*
X137809839Y-63407900D02*
X137784333Y-63380600D01*
X120945264Y-64028000D02*
X121101888Y-63895400D01*
X136085376Y-64421900D02*
X135781956Y-64219100D01*
X146454583Y-73528400D02*
X146509651Y-73458200D01*
X145564533Y-84877400D02*
X145515818Y-84889100D01*
X142250184Y-81983600D02*
X141924417Y-81979700D01*
X127392432Y-63575600D02*
X127466064Y-63809600D01*
X127838475Y-63255800D02*
X127784265Y-63025700D01*
X142799226Y-77319200D02*
X142472367Y-77194400D01*
X137482512Y-62811200D02*
X137471475Y-62877500D01*
X127596168Y-62468000D02*
X127656618Y-62222300D01*
X120500703Y-66442100D02*
X120467085Y-66305600D01*
X125650146Y-63610700D02*
X125675535Y-63860300D01*
X115578630Y-68002100D02*
X115614198Y-68056700D01*
X143384109Y-87229100D02*
X143265042Y-87088700D01*
X130752867Y-65517800D02*
X131027505Y-65728400D01*
X146475627Y-82248800D02*
X146567714Y-82256600D01*
X116352858Y-67132400D02*
X116225445Y-67031000D01*
X125066082Y-67713500D02*
X124547967Y-67885100D01*
X141075933Y-83921900D02*
X141360711Y-83898500D01*
X130097043Y-67300100D02*
X130124538Y-67292300D01*
X119375709Y-65463200D02*
X119304885Y-65338400D01*
X122978529Y-63934400D02*
X122893899Y-64008500D01*
X146338651Y-84136400D02*
X146338663Y-84136400D01*
X123131331Y-65673800D02*
X122859774Y-65447600D01*
X129226173Y-66617600D02*
X128795184Y-66578600D01*
X129034839Y-63267500D02*
X129147705Y-63372800D01*
X147301957Y-79639700D02*
X147304159Y-79799600D01*
X146067734Y-79027400D02*
X146006687Y-79136600D01*
X137616009Y-63084200D02*
X137736558Y-62986700D01*
X123776469Y-64538900D02*
X123883407Y-64429700D01*
X129271374Y-62315900D02*
X129282762Y-62163800D01*
X124900644Y-65346200D02*
X124640943Y-65205800D01*
X124509045Y-63427400D02*
X124403433Y-63357200D01*
X130947165Y-61816700D02*
X131141541Y-61766000D01*
X125415093Y-62694200D02*
X125566257Y-62803400D01*
X144161761Y-84705800D02*
X144089167Y-84557600D01*
X123326370Y-68626100D02*
X123368490Y-68906900D01*
X130056054Y-67311800D02*
X130097043Y-67300100D01*
X141597558Y-81854900D02*
X141361218Y-81624800D01*
X129090570Y-66204200D02*
X129315015Y-66130100D01*
X144799212Y-86004500D02*
X144758582Y-86031800D01*
X117079779Y-67089500D02*
X117111252Y-67054400D01*
X128241345Y-66668300D02*
X128470236Y-66867200D01*
X136579389Y-62830700D02*
X136516287Y-63076400D01*
X128892021Y-63236300D02*
X129034839Y-63267500D01*
X118401372Y-68068400D02*
X118287492Y-68263400D01*
X124879818Y-64347800D02*
X124991904Y-64340000D01*
X145543153Y-76960400D02*
X145809464Y-76788800D01*
X145583662Y-71820200D02*
X145460309Y-71878700D01*
X125230077Y-64137200D02*
X125179689Y-64070900D01*
X145455103Y-78079700D02*
X145329745Y-77845700D01*
X145627369Y-80903300D02*
X145633570Y-80883800D01*
X126698817Y-63080300D02*
X126796941Y-63115400D01*
X141547872Y-80638100D02*
X141852345Y-80513300D01*
X121770036Y-64574000D02*
X121637397Y-64476500D01*
X141337896Y-83212100D02*
X141556491Y-83255000D01*
X142855698Y-81394700D02*
X142745952Y-81663800D01*
X121169319Y-64496000D02*
X121027281Y-64511600D01*
X119591145Y-64640300D02*
X119759079Y-64866500D01*
X120914727Y-64488200D02*
X120842499Y-64394600D01*
X145011205Y-86047400D02*
X144954608Y-86027900D01*
X126255738Y-67382000D02*
X126151452Y-67538000D01*
X131306589Y-63388400D02*
X131285412Y-63388400D01*
X129514305Y-62865800D02*
X129419067Y-62666900D01*
X146422069Y-75053300D02*
X146509811Y-75076700D01*
X144387922Y-83563100D02*
X144315386Y-83383700D01*
X130117167Y-63513200D02*
X130167984Y-63735500D01*
X145307039Y-80946200D02*
X145476814Y-80961800D01*
X125179689Y-64070900D02*
X125080746Y-64051400D01*
X127784265Y-63025700D02*
X127711140Y-62815100D01*
X119501640Y-65705000D02*
X119446338Y-65588000D01*
X127640589Y-62627900D02*
X127596168Y-62468000D01*
X146783739Y-82443800D02*
X146789889Y-82564700D01*
X145381724Y-81745700D02*
X145211197Y-81784700D01*
X116746758Y-67023200D02*
X116613690Y-67097300D01*
X138669516Y-63045200D02*
X138518937Y-63224600D01*
X126774555Y-63992900D02*
X126776895Y-64102100D01*
X124657986Y-64371200D02*
X124769955Y-64351700D01*
X134647680Y-62304200D02*
X134629077Y-62448500D01*
X122529678Y-68357000D02*
X122675070Y-68817200D01*
X145296228Y-87143300D02*
X145109465Y-87135500D01*
X145374088Y-71480900D02*
X145437904Y-71383400D01*
X120170802Y-65786900D02*
X120154617Y-65794700D01*
X146082636Y-80852600D02*
X146082636Y-80852600D01*
X115076271Y-68770400D02*
X114912588Y-68711900D01*
X134159985Y-62440700D02*
X134146608Y-62226200D01*
X142647087Y-90828800D02*
X142734681Y-90902900D01*
X142598883Y-81531200D02*
X142665534Y-81359600D01*
X131170323Y-63602900D02*
X131119935Y-63794000D01*
X125101650Y-64324400D02*
X125204610Y-64265900D01*
X143290353Y-91799900D02*
X142943097Y-91675100D01*
X141307281Y-82673900D02*
X141191880Y-82892300D01*
X115161096Y-67752500D02*
X115267527Y-67623800D01*
X116790048Y-69374900D02*
X116790048Y-69374900D01*
X147026678Y-81102200D02*
X147014018Y-81234800D01*
X119086797Y-67740800D02*
X118806777Y-67807100D01*
X133515588Y-63244100D02*
X133580913Y-63228500D01*
X127539891Y-66976400D02*
X127509081Y-67296200D01*
X145152595Y-73797500D02*
X145152591Y-73481600D01*
X135532395Y-64059200D02*
X135408414Y-64152800D01*
X146300798Y-80911100D02*
X146300798Y-80911100D01*
X117451566Y-67592600D02*
X117426021Y-67463900D01*
X120847140Y-66816500D02*
X120697029Y-66746300D01*
X134631963Y-62518700D02*
X134646081Y-62612300D01*
X144659249Y-82611500D02*
X144609044Y-82478900D01*
X124009650Y-63571700D02*
X124012107Y-63848600D01*
X141924300Y-82217600D02*
X142246401Y-82369700D01*
X125651823Y-63002300D02*
X125669607Y-63205100D01*
X116039883Y-68684600D02*
X115864539Y-68672900D01*
X122570784Y-69230600D02*
X122490405Y-68988800D01*
X147191417Y-75423800D02*
X146939396Y-75548600D01*
X146013072Y-70778900D02*
X145944755Y-70970000D01*
X146378225Y-75657800D02*
X146378225Y-75657800D01*
X142950000Y-89865500D02*
X142635387Y-89612000D01*
X137204715Y-61918100D02*
X137320428Y-61871300D01*
X131497767Y-63930500D02*
X131465514Y-63723800D01*
X140195586Y-83235500D02*
X140240280Y-82997600D01*
X122618208Y-65311100D02*
X122601789Y-65705000D01*
X127075557Y-64850900D02*
X126963276Y-64730000D01*
X145253671Y-85232300D02*
X145157244Y-85072400D01*
X136681491Y-64152800D02*
X136649004Y-63965600D01*
X145471069Y-82022600D02*
X145588744Y-82073300D01*
X146974585Y-81367400D02*
X146910278Y-81492200D01*
X129567423Y-67670600D02*
X129486225Y-67409300D01*
X128786409Y-66371900D02*
X129161940Y-66426500D01*
X146268373Y-77873000D02*
X146321316Y-78005600D01*
X119580693Y-66067700D02*
X119555928Y-65888300D01*
X145806867Y-79893200D02*
X145952903Y-79986800D01*
X116225445Y-67031000D02*
X116170533Y-66851600D01*
X146419600Y-72498800D02*
X146685256Y-72510500D01*
X142404429Y-88699400D02*
X142612299Y-88430300D01*
X126739455Y-62780000D02*
X126709113Y-62663000D01*
X143619396Y-87623000D02*
X143717692Y-87728300D01*
X125753379Y-64067000D02*
X125865270Y-64234700D01*
X127093341Y-67744700D02*
X127255269Y-67951400D01*
X144739016Y-88293800D02*
X144836352Y-88438100D01*
X142984827Y-78302000D02*
X143079714Y-78294200D01*
X136907886Y-64371200D02*
X136766433Y-64293200D01*
X117563574Y-66609800D02*
X117628314Y-66808700D01*
X127746747Y-64574000D02*
X127678458Y-64730000D01*
X129282762Y-62163800D02*
X129345357Y-62031200D01*
X145325459Y-85696400D02*
X145632537Y-85809500D01*
X120106218Y-66028700D02*
X120171621Y-66149600D01*
X144274842Y-89058200D02*
X144390457Y-89307800D01*
X118224780Y-65209700D02*
X118420911Y-65127800D01*
X143717598Y-89424800D02*
X143734083Y-89339000D01*
X146383759Y-74538500D02*
X146360569Y-74663300D01*
X119996082Y-65404700D02*
X119996082Y-65404700D01*
X120344235Y-64289300D02*
X120474846Y-64320500D01*
X132120597Y-63240200D02*
X132245163Y-63400100D01*
X142524471Y-79947800D02*
X142702935Y-79979000D01*
X141969384Y-81737900D02*
X142238328Y-81741800D01*
X144734531Y-81188000D02*
X144824863Y-80993000D01*
X130203630Y-63950000D02*
X130206360Y-63977300D01*
X141509457Y-79994600D02*
X141553878Y-79756700D01*
X119548089Y-67467800D02*
X119349189Y-67612100D01*
X147343765Y-76999400D02*
X147441563Y-77108600D01*
X127753728Y-64394600D02*
X127746747Y-64574000D01*
X142697319Y-75150800D02*
X143116023Y-75232700D01*
X142348620Y-91117400D02*
X142205919Y-91027700D01*
X145263390Y-79842500D02*
X145422424Y-79803500D01*
X130059798Y-62288600D02*
X130059798Y-62288600D01*
X141662454Y-84826700D02*
X141592566Y-84604400D01*
X127010427Y-63895400D02*
X126976302Y-63794000D01*
X122510763Y-63704300D02*
X122579052Y-63556100D01*
X145423610Y-86839100D02*
X145410697Y-87002900D01*
X146614335Y-75072800D02*
X146705860Y-75057200D01*
X144472880Y-87158900D02*
X144775754Y-87291500D01*
X129460407Y-66586400D02*
X129582516Y-66964700D01*
X142404117Y-83652800D02*
X141844974Y-83539700D01*
X120312021Y-65779100D02*
X120170802Y-65786900D01*
X145964770Y-85435100D02*
X145907491Y-85528700D01*
X132346056Y-63575600D02*
X132390906Y-63758900D01*
X123061950Y-63864200D02*
X122978529Y-63934400D01*
X137721738Y-63661400D02*
X137792367Y-63536600D01*
X146121437Y-80829200D02*
X146082636Y-80852600D01*
X143620761Y-77003300D02*
X143416713Y-77206100D01*
X126385686Y-67296200D02*
X126255738Y-67382000D01*
X119799054Y-64991300D02*
X119823039Y-65104400D01*
X142229241Y-79893200D02*
X142524471Y-79947800D01*
X135061275Y-63201200D02*
X135091812Y-63056900D01*
X134357013Y-64082600D02*
X134191809Y-64035800D01*
X141549939Y-90438800D02*
X141563316Y-90255500D01*
X125204805Y-65361800D02*
X124900644Y-65346200D01*
X137112792Y-62003900D02*
X137204715Y-61918100D01*
X125529324Y-68867900D02*
X125121033Y-69140900D01*
X133836324Y-61762100D02*
X133918458Y-61984400D01*
X135037446Y-62912600D02*
X134946849Y-62982800D01*
X125000952Y-69176000D02*
X124914528Y-69000500D01*
X137370426Y-63903200D02*
X137295078Y-64098200D01*
X142518699Y-78902600D02*
X142845675Y-78961100D01*
X134980077Y-62370500D02*
X135056946Y-62183300D01*
X122616219Y-64051400D02*
X122516496Y-63872000D01*
X134141265Y-63996800D02*
X134141265Y-63996800D01*
X123543678Y-64718300D02*
X123670896Y-64648100D01*
X117127905Y-67007600D02*
X117127905Y-67007600D01*
X145463850Y-76320800D02*
X145484470Y-76196000D01*
X144775754Y-87291500D02*
X145078710Y-87420200D01*
X146355152Y-84023300D02*
X146338651Y-84136400D01*
X147534560Y-77748200D02*
X147534560Y-77748200D01*
X134661915Y-61633400D02*
X134738823Y-61879100D01*
X117127905Y-67007600D02*
X117112695Y-66956900D01*
X140971998Y-84276800D02*
X140881830Y-84460100D01*
X144349063Y-88609700D02*
X144168126Y-88488800D01*
X118329183Y-66231500D02*
X118450083Y-66165200D01*
X125973378Y-67935800D02*
X125973378Y-67935800D01*
X115748163Y-68942000D02*
X115871169Y-68879600D01*
X146292538Y-78251300D02*
X146193774Y-78329300D01*
X123145761Y-64152800D02*
X123290568Y-64008500D01*
X145547228Y-83539700D02*
X145635158Y-83590400D01*
X116252316Y-66648800D02*
X116438658Y-66430400D01*
X129585168Y-65498300D02*
X130218138Y-65400800D01*
X134024655Y-63290900D02*
X134080542Y-63060800D01*
X137806680Y-63497600D02*
X137814207Y-63450800D01*
X129275664Y-66761900D02*
X129226173Y-66617600D01*
X144811443Y-82884500D02*
X144910612Y-82919600D01*
X131285412Y-63388400D02*
X131217591Y-63450800D01*
X120687630Y-64757300D02*
X120706467Y-64964000D01*
X145974286Y-84401600D02*
X146090873Y-84471800D01*
X120339516Y-66399200D02*
X120411432Y-66539600D01*
X127136241Y-62300300D02*
X127269309Y-62393900D01*
X145047767Y-81773000D02*
X145047767Y-81773000D01*
X142539174Y-84534200D02*
X142574625Y-84296300D01*
X145410717Y-86999000D02*
X145410721Y-86999000D01*
X145388596Y-70560500D02*
X145544900Y-70392800D01*
X137320428Y-61871300D02*
X137442420Y-61871300D01*
X135111390Y-64129400D02*
X135000942Y-64024100D01*
X145151347Y-71913800D02*
X145145977Y-71828000D01*
X143125071Y-79694300D02*
X142893411Y-80010200D01*
X137466795Y-62975000D02*
X137478573Y-63064700D01*
X145199087Y-71718800D02*
X145285804Y-71594000D01*
X118617549Y-65112200D02*
X118794258Y-65174600D01*
X146705860Y-75057200D02*
X146705860Y-75057200D01*
X127466064Y-63809600D02*
X127579281Y-64008500D01*
X142744470Y-78442400D02*
X142628172Y-78263000D01*
X144389314Y-83052200D02*
X144496096Y-82943000D01*
X142142817Y-77849600D02*
X142084317Y-77978300D01*
X144665844Y-87782900D02*
X144560860Y-87697100D01*
X137020050Y-62487500D02*
X137064666Y-62117000D01*
X141875121Y-80747300D02*
X141641082Y-80837000D01*
X144876748Y-87938900D02*
X144766394Y-87868700D01*
X126478038Y-62811200D02*
X126593400Y-62963300D01*
X143015910Y-76086800D02*
X143015910Y-76086800D01*
X146132634Y-76051700D02*
X146252344Y-76145300D01*
X122522736Y-64862600D02*
X122618208Y-65311100D01*
X142809873Y-90957500D02*
X142886079Y-91008200D01*
X118719846Y-66508400D02*
X118619538Y-66520100D01*
X122782164Y-69897500D02*
X122700927Y-69636200D01*
X145515814Y-84889100D02*
X145515814Y-84889100D01*
X118450083Y-66165200D02*
X118489161Y-66137900D01*
X124494615Y-62877500D02*
X124725885Y-62764400D01*
X121841991Y-63840800D02*
X122073924Y-64020200D01*
X123455265Y-64570100D02*
X123420984Y-64679300D01*
X145231582Y-86195600D02*
X145123915Y-86113700D01*
X146333979Y-74784200D02*
X146329685Y-74905100D01*
X117027870Y-67549700D02*
X116922960Y-67569200D01*
X140852229Y-84081800D02*
X141075933Y-83921900D01*
X135717801Y-63716000D02*
X135781176Y-63474200D01*
X116914731Y-68052800D02*
X117003651Y-67924100D01*
X134917014Y-63680900D02*
X134947785Y-63497600D01*
X142930695Y-89947400D02*
X143297568Y-90267200D01*
X138518937Y-63224600D02*
X138378225Y-63505400D01*
X131053050Y-62869700D02*
X131106207Y-62912600D01*
X145697761Y-71878700D02*
X145731226Y-71824100D01*
X135000942Y-64024100D02*
X134936163Y-63868100D01*
X146300798Y-80911100D02*
X146300798Y-80911100D01*
X131141541Y-61766000D02*
X131290872Y-61766000D01*
X145562006Y-76519700D02*
X145491876Y-76433900D01*
X147521763Y-74994800D02*
X147394151Y-75240500D01*
X145222128Y-71948900D02*
X145151347Y-71913800D01*
X146300798Y-80911100D02*
X146246678Y-80856500D01*
X146329685Y-74905100D02*
X146359957Y-74998700D01*
X127424958Y-64913300D02*
X127405068Y-64917200D01*
X144380828Y-89799200D02*
X144380828Y-89799200D01*
X125865270Y-64234700D02*
X125974236Y-64398500D01*
X132005196Y-63095900D02*
X132120597Y-63240200D01*
X140822355Y-84662900D02*
X140787411Y-84889100D01*
X141452439Y-81133400D02*
X141449046Y-81297200D01*
X127398984Y-62670800D02*
X127399023Y-62670800D01*
X145543071Y-72892700D02*
X145881396Y-72654800D01*
X146578696Y-81675500D02*
X146435137Y-81652100D01*
X145639417Y-85002200D02*
X145761179Y-85091900D01*
X130221882Y-63501500D02*
X130266849Y-63314300D01*
X142487109Y-84701900D02*
X142539174Y-84534200D01*
X143592369Y-89105000D02*
X143441400Y-89081600D01*
X133402917Y-63201200D02*
X133515588Y-63244100D01*
X145017959Y-82841600D02*
X144877216Y-82783100D01*
X143516358Y-75306800D02*
X143757390Y-74944100D01*
X123581625Y-64437500D02*
X123455265Y-64570100D01*
X126016785Y-62534300D02*
X126193299Y-62553800D01*
X146073136Y-80864300D02*
X146038390Y-80915000D01*
X147534560Y-77748200D02*
X147534560Y-77748200D01*
X146090873Y-84471800D02*
X146161599Y-84573200D01*
X143071290Y-87369500D02*
X143216994Y-87365600D01*
X136649004Y-63965600D02*
X136665696Y-63743300D01*
X146910278Y-81492200D02*
X146820816Y-81593600D01*
X125107656Y-67132400D02*
X125220405Y-67475600D01*
X144696443Y-72089300D02*
X144550108Y-72140000D01*
X145211197Y-81784700D02*
X145047779Y-81773000D01*
X117776670Y-66067700D02*
X117666885Y-65946800D01*
X145079295Y-79386200D02*
X145090000Y-79160000D01*
X145823251Y-79791800D02*
X145625400Y-79776200D01*
X122377617Y-68653400D02*
X122305389Y-68431100D01*
X143473692Y-76870700D02*
X143540343Y-76695200D01*
X118420911Y-65127800D02*
X118617549Y-65112200D01*
X143896838Y-87837500D02*
X143933432Y-87833600D01*
X145823278Y-70299200D02*
X145954841Y-70400600D01*
X144328556Y-72065900D02*
X144281144Y-71956700D01*
X144281144Y-71956700D02*
X144300160Y-71792900D01*
X135429396Y-61711400D02*
X135624123Y-61793300D01*
X130056054Y-67311800D02*
X130056054Y-67311800D01*
X123333000Y-68107400D02*
X123588450Y-67970900D01*
X136665696Y-63743300D02*
X136727316Y-63517100D01*
X145824885Y-84916400D02*
X145678058Y-84893000D01*
X142586247Y-90657200D02*
X142586559Y-90743000D01*
X116841567Y-67319600D02*
X116930994Y-67206500D01*
X134168682Y-61719200D02*
X134168682Y-61719200D01*
X144383726Y-83976500D02*
X144542093Y-83999900D01*
X127722606Y-68271200D02*
X127633335Y-68087900D01*
X143715488Y-75341900D02*
X143715488Y-75341900D01*
X145954841Y-70400600D02*
X146029140Y-70580000D01*
X141266799Y-84144200D02*
X141102102Y-84163700D01*
X126216699Y-64928900D02*
X126114870Y-64792400D01*
X136055775Y-62826800D02*
X136061703Y-62592800D01*
X126831378Y-64410200D02*
X126841674Y-64589600D01*
X119446338Y-65588000D02*
X119375709Y-65463200D01*
X125675535Y-63860300D02*
X125753379Y-64067000D01*
X130196337Y-64195700D02*
X130115334Y-64351700D01*
X145693740Y-81620900D02*
X145545602Y-81683300D01*
X141509613Y-82248800D02*
X141924300Y-82217600D01*
X142055184Y-77639000D02*
X142222338Y-77525900D01*
X145673756Y-82779200D02*
X145693233Y-82861100D01*
X143437305Y-86581700D02*
X143597673Y-86593400D01*
X120418569Y-66555200D02*
X120471648Y-66722900D01*
X124095684Y-69507500D02*
X123816600Y-69546500D01*
X137550840Y-63560000D02*
X137438442Y-63739400D01*
X147034372Y-80103800D02*
X146857254Y-80092100D01*
X144222660Y-86741600D02*
X143954215Y-86667500D01*
X143643732Y-88461500D02*
X143884526Y-88625300D01*
X142468584Y-81656000D02*
X142598883Y-81531200D01*
X147234214Y-73013600D02*
X147225008Y-73415300D01*
X145928422Y-82709000D02*
X145820053Y-82697300D01*
X142718535Y-79175600D02*
X142495728Y-79132700D01*
X134168682Y-61719200D02*
X134168682Y-61719200D01*
X125507718Y-65311100D02*
X125204805Y-65361800D01*
X121232577Y-66067700D02*
X121278753Y-66270500D01*
X128286117Y-67768100D02*
X128412087Y-67491200D01*
X144542093Y-83999900D02*
X144678702Y-84089600D01*
X146646740Y-71777300D02*
X146568790Y-71925500D01*
X144076874Y-84401600D02*
X144100375Y-84261200D01*
X127678458Y-64730000D02*
X127560210Y-64850900D01*
X144972583Y-72214100D02*
X145122955Y-72128300D01*
X130793154Y-67198700D02*
X130193958Y-67491200D01*
X146981843Y-74608700D02*
X146986816Y-74452700D01*
X144702469Y-72666500D02*
X144738481Y-72498800D01*
X126757434Y-68419400D02*
X126901851Y-68333600D01*
X142174329Y-89732900D02*
X142545804Y-89771900D01*
X137736558Y-62986700D02*
X137873994Y-62846300D01*
X146102904Y-84370400D02*
X145972391Y-84347000D01*
X116097330Y-68727500D02*
X116091051Y-68704100D01*
X142515891Y-76176500D02*
X142393080Y-76301300D01*
X145476814Y-80961800D02*
X145615116Y-80915000D01*
X142196559Y-80513300D02*
X142509573Y-80626400D01*
X128594295Y-64601300D02*
X128291577Y-64776800D01*
X119020380Y-65728400D02*
X119062890Y-65935100D01*
X146492249Y-73196900D02*
X146425707Y-73142300D01*
X137814207Y-63450800D02*
X137809839Y-63407900D01*
X143595567Y-89534000D02*
X143666196Y-89495000D01*
X145970503Y-75989300D02*
X146132634Y-76051700D01*
X116091051Y-68704100D02*
X116066988Y-68692400D01*
X118307811Y-65978000D02*
X118171662Y-66024800D01*
X118278483Y-67491200D02*
X118200171Y-67339100D01*
X143928034Y-87708800D02*
X143816600Y-87564500D01*
X123016008Y-63271400D02*
X123153834Y-63224600D01*
X126048648Y-64597400D02*
X126047595Y-64882100D01*
X125566257Y-62803400D02*
X125651823Y-63002300D01*
X127405068Y-64917200D02*
X127227111Y-64917200D01*
X126417744Y-68536400D02*
X126506976Y-68513000D01*
X118190382Y-66422600D02*
X118227549Y-66329000D01*
X146842469Y-80782400D02*
X146943222Y-80864300D01*
X132614844Y-62686400D02*
X132661371Y-62510900D01*
X146789889Y-82564700D02*
X146773934Y-82673900D01*
X146340328Y-80989100D02*
X146303579Y-80915000D01*
X145344514Y-81971900D02*
X145471069Y-82022600D01*
X145654810Y-75552500D02*
X145428021Y-75353600D01*
X142887171Y-87845300D02*
X142846962Y-87697100D01*
X129548976Y-65510000D02*
X129585168Y-65498300D01*
X121146387Y-65654300D02*
X121102668Y-65506100D01*
X142545804Y-89771900D02*
X142930695Y-89947400D01*
X125220405Y-67475600D02*
X125476596Y-67389800D01*
X130042638Y-62666900D02*
X130023645Y-62858000D01*
X118224780Y-65209700D02*
X118224780Y-65209700D01*
X136043178Y-62370500D02*
X136021494Y-62167700D01*
X146581809Y-76987700D02*
X146697717Y-77210000D01*
X145488253Y-83473400D02*
X145547228Y-83539700D01*
X131119935Y-63794000D02*
X131040375Y-63992900D01*
X143671855Y-87424100D02*
X143538510Y-87334400D01*
X124597692Y-68848400D02*
X124512477Y-69168200D01*
X143139657Y-78508700D02*
X142929291Y-78532100D01*
X145686778Y-84389900D02*
X145831355Y-84374300D01*
X145123915Y-86113700D02*
X145011205Y-86047400D01*
X141924300Y-82217600D02*
X141924300Y-82217600D01*
X145234207Y-79670900D02*
X145125131Y-79553900D01*
X130689141Y-64230800D02*
X130502682Y-64211300D01*
X143806011Y-90138500D02*
X143387424Y-90072200D01*
X123686145Y-69300800D02*
X123855522Y-69347600D01*
X124961328Y-68984900D02*
X125023572Y-68965400D01*
X146116203Y-81184100D02*
X146116192Y-81184100D01*
X125203167Y-68115200D02*
X125128443Y-67892900D01*
X142611363Y-77600000D02*
X142728324Y-77787200D01*
X138814245Y-62651300D02*
X138808746Y-62885300D01*
X127399023Y-62670800D02*
X127399023Y-62670800D01*
X147017973Y-77654600D02*
X147055195Y-77561000D01*
X126676665Y-67190900D02*
X126564267Y-67226000D01*
X136759257Y-61906400D02*
X136821501Y-62257400D01*
X120471648Y-66722900D02*
X120479916Y-66886700D01*
X116277159Y-68181500D02*
X116542749Y-68216600D01*
X146264840Y-77514200D02*
X146194004Y-77611700D01*
X130382835Y-65642600D02*
X130009488Y-65630900D01*
X124921665Y-63439100D02*
X124781928Y-63443000D01*
X142437111Y-83485100D02*
X142423344Y-83555300D01*
X134674707Y-62694200D02*
X134721312Y-62729300D01*
X146020166Y-80969600D02*
X146015256Y-81032000D01*
X126715665Y-66972500D02*
X126802050Y-67159700D01*
X124512477Y-69168200D02*
X124340994Y-69378800D01*
X118436628Y-65962400D02*
X118307811Y-65978000D01*
X116000298Y-67666700D02*
X115950378Y-67764200D01*
X137678760Y-63419600D02*
X137550840Y-63560000D01*
X114897963Y-68146400D02*
X115024479Y-67931900D01*
X124310652Y-65326700D02*
X124123920Y-65556800D01*
X123160581Y-63809600D02*
X123061950Y-63864200D01*
X141259623Y-81375200D02*
X141262275Y-81098300D01*
X142348932Y-89007500D02*
X142404429Y-88699400D01*
X146255815Y-74238200D02*
X146339552Y-74296700D01*
X146925028Y-72600200D02*
X147115036Y-72771800D01*
X145809464Y-76788800D02*
X146182363Y-76738100D01*
X119962347Y-65393000D02*
X119996082Y-65404700D01*
X127720656Y-68068400D02*
X127872600Y-68021600D01*
X147304159Y-79799600D02*
X147256454Y-79947800D01*
X130714881Y-62276900D02*
X130750293Y-62093600D01*
X126987807Y-62280800D02*
X127136241Y-62300300D01*
X134525610Y-64039700D02*
X134357013Y-64082600D01*
X143116023Y-75232700D02*
X143364843Y-75279500D01*
X125052549Y-69160400D02*
X125000952Y-69176000D01*
X134806566Y-62678600D02*
X134893029Y-62549900D01*
X114814347Y-68364800D02*
X114897963Y-68146400D01*
X126444342Y-67865600D02*
X126212877Y-67912400D01*
X119940897Y-67112900D02*
X119799171Y-66976400D01*
X128698503Y-63778400D02*
X128718159Y-63400100D01*
X136670571Y-62635700D02*
X136579389Y-62830700D01*
X145028485Y-70849100D02*
X145235556Y-70697000D01*
X130059798Y-62288600D02*
X130062528Y-62483600D01*
X126841050Y-63797900D02*
X126806457Y-63860300D01*
X141641082Y-80837000D02*
X141518271Y-80961800D01*
X117350439Y-68672900D02*
X117064491Y-68458400D01*
X142644357Y-91394300D02*
X142502241Y-91246100D01*
X124522305Y-64441400D02*
X124657986Y-64371200D01*
X130630719Y-62643500D02*
X130678494Y-62471900D01*
X123651045Y-63236300D02*
X123812700Y-63310400D01*
X145594555Y-71964500D02*
X145645707Y-71925500D01*
X145877488Y-85197200D02*
X145957883Y-85310300D01*
X127733799Y-64223000D02*
X127731693Y-64207400D01*
X124492392Y-67713500D02*
X125010507Y-67545800D01*
X141871845Y-82455500D02*
X141549978Y-82478900D01*
X121257888Y-63813500D02*
X121570941Y-63762800D01*
X134231901Y-61637300D02*
X134328894Y-61571000D01*
X118711344Y-66777500D02*
X118793946Y-66691700D01*
X145952903Y-79986800D02*
X146070421Y-80103800D01*
X147123799Y-78395600D02*
X146976789Y-78407300D01*
X146210154Y-74210900D02*
X145827291Y-74246000D01*
X137873994Y-62846300D02*
X138009792Y-62694200D01*
X141835809Y-84506900D02*
X141892320Y-84686300D01*
X142205919Y-91027700D02*
X142047267Y-90949700D01*
X147367159Y-78196700D02*
X147255428Y-78317600D01*
X132681300Y-62386100D02*
X132662580Y-62327600D01*
X145122955Y-72128300D02*
X145278163Y-72085400D01*
X115408434Y-67471700D02*
X115577694Y-67339100D01*
X142438281Y-82650500D02*
X142495767Y-82989800D01*
X141361218Y-81624800D02*
X141259623Y-81375200D01*
X143538510Y-87334400D02*
X143384109Y-87229100D01*
X145090000Y-79160000D02*
X145360929Y-78571100D01*
X126903177Y-64577900D02*
X126905439Y-64386800D01*
X144917257Y-84343100D02*
X145057837Y-84432800D01*
X142953198Y-79288700D02*
X142718535Y-79175600D01*
X124343061Y-64562300D02*
X124395945Y-64702700D01*
X128514033Y-63829100D02*
X128608452Y-64016300D01*
X129325389Y-62483600D02*
X129271374Y-62315900D01*
X129541839Y-65603600D02*
X129520038Y-65517800D01*
X145660477Y-78263000D02*
X145455103Y-78079700D01*
X125288967Y-67639400D02*
X125441652Y-68095700D01*
X137426274Y-64421900D02*
X137426157Y-64262000D01*
X124398675Y-68216600D02*
X124549605Y-68505200D01*
X128394810Y-62475800D02*
X128397618Y-62690300D01*
X143964320Y-85049000D02*
X144124844Y-85052900D01*
X146685256Y-72510500D02*
X146925028Y-72600200D01*
X123878649Y-67935800D02*
X124155276Y-68013800D01*
X146414662Y-76812200D02*
X146581809Y-76987700D01*
X143111070Y-88083200D02*
X142977612Y-87977900D01*
X130167984Y-63735500D02*
X130203630Y-63950000D01*
X144292739Y-87045800D02*
X144472880Y-87158900D01*
X119146038Y-66169100D02*
X119270565Y-66348500D01*
X145866611Y-71383400D02*
X145993018Y-71348300D01*
X133580913Y-63228500D02*
X133622838Y-63189500D01*
X117112695Y-66956900D02*
X117074631Y-66929600D01*
X130143336Y-67510700D02*
X130088970Y-67382000D01*
X126964290Y-62284700D02*
X126987807Y-62280800D01*
X142327248Y-76472900D02*
X142323855Y-76636700D01*
X124549605Y-68505200D02*
X124597692Y-68848400D01*
X146304218Y-82248800D02*
X146382538Y-82248800D01*
X134080542Y-63060800D02*
X134134869Y-62830700D01*
X146939396Y-75548600D02*
X146660975Y-75626600D01*
X145094883Y-87966200D02*
X144876748Y-87938900D01*
X145125280Y-82896200D02*
X145017959Y-82841600D01*
X128291577Y-64776800D02*
X127923495Y-64675400D01*
X145954459Y-83687900D02*
X146184672Y-83746400D01*
X143467491Y-77986100D02*
X143411955Y-78188900D01*
X145447318Y-86339900D02*
X145334749Y-86273600D01*
X145357626Y-75209300D02*
X145319921Y-75026000D01*
X134018688Y-63743300D02*
X133999617Y-63521000D01*
X117628314Y-66808700D02*
X117736890Y-67027100D01*
X118619538Y-66520100D02*
X118499418Y-66551300D01*
X116542749Y-68216600D02*
X116793246Y-68302400D01*
X131290872Y-61766000D02*
X131437278Y-61801100D01*
X126166818Y-68520800D02*
X125973300Y-67935800D01*
X125476596Y-67389800D02*
X125532171Y-67561400D01*
X134159985Y-62440700D02*
X134159985Y-62440700D01*
X146385927Y-74413700D02*
X146383759Y-74538500D01*
X145278163Y-72085400D02*
X145434093Y-72046400D01*
X142951404Y-87428000D02*
X143071290Y-87369500D01*
X146089231Y-83149700D02*
X146104597Y-83251100D01*
X127018110Y-68193200D02*
X127019358Y-68017700D01*
X121739148Y-68809400D02*
X121715904Y-68591000D01*
X138600174Y-62444600D02*
X138600174Y-62444600D01*
X145820053Y-82697300D02*
X145726273Y-82716800D01*
X142423344Y-83555300D02*
X142404117Y-83652800D01*
X122305389Y-68431100D02*
X122529678Y-68357000D01*
X116962623Y-68321900D02*
X116905449Y-68185400D01*
X138116847Y-64082600D02*
X137944467Y-64351700D01*
X120411432Y-66539600D02*
X120418569Y-66555200D01*
X119416815Y-66481100D02*
X119559789Y-66613700D01*
X143323503Y-89374100D02*
X143430675Y-89510600D01*
X144910612Y-82919600D02*
X145020003Y-82966400D01*
X117064491Y-68458400D02*
X116962623Y-68321900D01*
X136438092Y-61734800D02*
X136438092Y-61734800D01*
X135624123Y-61793300D02*
X135691476Y-62003900D01*
X137189856Y-64254200D02*
X137061234Y-64355600D01*
X145972391Y-84347000D02*
X145811703Y-84261200D01*
X127837383Y-63497600D02*
X127838475Y-63255800D01*
X142612299Y-88430300D02*
X142911234Y-88309400D01*
X137669751Y-62417300D02*
X137600604Y-62542100D01*
X120697029Y-66746300D02*
X120581862Y-66605900D01*
X122440914Y-68844500D02*
X122009886Y-68805500D01*
X142430091Y-77510300D02*
X142430130Y-77510300D01*
X146975303Y-77256800D02*
X146963654Y-77151500D01*
X126059256Y-64640300D02*
X126065340Y-64363400D01*
X134157060Y-62686400D02*
X134157060Y-62686400D01*
X144763609Y-81554600D02*
X144734531Y-81188000D01*
X143430675Y-89510600D02*
X143515734Y-89541800D01*
X146986816Y-74452700D02*
X147001312Y-74312300D01*
X136909719Y-63084200D02*
X136974459Y-62858000D01*
X143024763Y-80279300D02*
X142576380Y-80189600D01*
X145022226Y-71792900D02*
X144854140Y-71972300D01*
X118102788Y-68435000D02*
X117882906Y-68587100D01*
X134435637Y-61551500D02*
X134661915Y-61633400D01*
X120467085Y-66305600D02*
X120454800Y-66169100D01*
X124123920Y-65556800D02*
X123875529Y-65689400D01*
X146934778Y-77689700D02*
X147017973Y-77654600D01*
X134893029Y-62549900D02*
X134980077Y-62370500D01*
X146175842Y-80236400D02*
X146284562Y-80372900D01*
X134159595Y-61734800D02*
X134168682Y-61719200D01*
X122263425Y-64265900D02*
X122413458Y-64554500D01*
X124287681Y-69125300D02*
X124362522Y-68867900D01*
X142665261Y-81188000D02*
X142604577Y-81032000D01*
X137471475Y-62877500D02*
X137466795Y-62975000D01*
X128121654Y-67912400D02*
X128286117Y-67768100D01*
X145796415Y-86187800D02*
X145666077Y-86355500D01*
X146104597Y-83251100D02*
X146039810Y-83329100D01*
X145152591Y-73481600D02*
X145291447Y-73177400D01*
X143619123Y-76188200D02*
X143730920Y-76441700D01*
X145164120Y-87490400D02*
X145220291Y-87591800D01*
X145693233Y-82861100D02*
X145779333Y-82931300D01*
X145484228Y-80716100D02*
X145429846Y-80681000D01*
X126841674Y-64589600D02*
X126817767Y-64733900D01*
X123816600Y-69546500D02*
X123558186Y-69480200D01*
X121323681Y-64464800D02*
X121169319Y-64496000D01*
X124781928Y-63443000D02*
X124639773Y-63446900D01*
X121868784Y-64761200D02*
X121770036Y-64574000D01*
X124897875Y-67202600D02*
X125107656Y-67132400D01*
X115663299Y-69016100D02*
X115748163Y-68942000D01*
X146205743Y-82814300D02*
X146016558Y-82732400D01*
X133363956Y-62312000D02*
X133308966Y-62331500D01*
X118274310Y-66586400D02*
X118198533Y-66527900D01*
X115787670Y-68142500D02*
X116015079Y-68165900D01*
X146193774Y-78329300D02*
X146065648Y-78364400D01*
X145944755Y-70970000D02*
X145861155Y-71141600D01*
X128071539Y-66800900D02*
X127766676Y-66785300D01*
X143373501Y-87420200D02*
X143510898Y-87513800D01*
X143428647Y-86039600D02*
X143507388Y-85914800D01*
X126435801Y-63404000D02*
X126246300Y-63361100D01*
X135781956Y-64219100D02*
X135716553Y-63731600D01*
X129356082Y-67003700D02*
X129275664Y-66761900D01*
X145837439Y-82174700D02*
X146070632Y-82229300D01*
X130751541Y-65818100D02*
X130382835Y-65642600D01*
X143456493Y-86336000D02*
X143419443Y-86234600D01*
X116817075Y-67417100D02*
X116841567Y-67319600D01*
X143549508Y-91577600D02*
X143549508Y-91577600D01*
X140787411Y-84889100D02*
X140777466Y-85010000D01*
X145434093Y-72046400D02*
X145594555Y-71964500D01*
X142972581Y-90633800D02*
X142857180Y-90579200D01*
X118806777Y-67807100D02*
X118529604Y-67748600D01*
X125126181Y-63591200D02*
X125129964Y-63540500D01*
X143625168Y-85848500D02*
X143770712Y-85840700D01*
X145321496Y-86698700D02*
X145423610Y-86839100D01*
X144698116Y-88738400D02*
X144511365Y-88722800D01*
X146252419Y-81172400D02*
X146312038Y-81129500D01*
X143039700Y-75451100D02*
X142552512Y-75361400D01*
X145927502Y-83340800D02*
X145791517Y-83321300D01*
X129572298Y-63099800D02*
X129514305Y-62865800D01*
X121506786Y-65155100D02*
X121639035Y-65155100D01*
X143836486Y-85107500D02*
X143964320Y-85049000D01*
X120106062Y-66028700D02*
X120106062Y-66028700D01*
X142428648Y-75096200D02*
X142697319Y-75150800D01*
X118303248Y-66953000D02*
X118404219Y-66902300D01*
X134328894Y-61571000D02*
X134435637Y-61551500D01*
X136819005Y-63302600D02*
X136909719Y-63084200D01*
X146353456Y-72506600D02*
X146419600Y-72498800D01*
X141892320Y-84686300D02*
X142000350Y-84877400D01*
X141549978Y-82478900D02*
X141307281Y-82673900D01*
X145125131Y-79553900D02*
X145079295Y-79386200D01*
X135257991Y-61746500D02*
X135429357Y-61711400D01*
X144604996Y-82217600D02*
X144710554Y-82034300D01*
X146082636Y-80852600D02*
X146082636Y-80852600D01*
X121485375Y-64449200D02*
X121323681Y-64464800D01*
X123908874Y-64082600D02*
X123748389Y-64273700D01*
X141427011Y-84226100D02*
X141266799Y-84144200D01*
X145445364Y-71321000D02*
X145397425Y-71309300D01*
X126817572Y-62963300D02*
X126780639Y-62877500D01*
X142868802Y-87548900D02*
X142951404Y-87428000D01*
X145783210Y-76593800D02*
X145771385Y-76593800D01*
X127955592Y-68204900D02*
X127800762Y-68251700D01*
X129739998Y-67432700D02*
X129796197Y-67596500D01*
X120773898Y-65365700D02*
X120879705Y-65560700D01*
X137538672Y-63914900D02*
X137631609Y-63778400D01*
X117739308Y-65576300D02*
X117942771Y-65393000D01*
X145907491Y-85528700D02*
X145811395Y-85602800D01*
X145811703Y-84261200D02*
X145656725Y-84148100D01*
X129162954Y-66422600D02*
X129090570Y-66204200D01*
X120726123Y-65170700D02*
X120773898Y-65365700D01*
X128524446Y-66578600D02*
X128501241Y-66364100D01*
X145726273Y-82716800D02*
X145673756Y-82779200D01*
X134947785Y-63497600D02*
X135005661Y-63341600D01*
X146184672Y-83746400D02*
X146288217Y-83812700D01*
X136021494Y-62167700D02*
X136018140Y-61996100D01*
X124877673Y-63688700D02*
X125009025Y-63661400D01*
X123875529Y-65689400D02*
X123473478Y-65751800D01*
X129255774Y-63478100D02*
X129387789Y-63513200D01*
X129147705Y-63372800D02*
X129255774Y-63478100D01*
X134727669Y-63735500D02*
X134649162Y-63914900D01*
X127509081Y-67296200D02*
X128313807Y-67031000D01*
X126753963Y-62409500D02*
X126964290Y-62284700D01*
X119181723Y-64862600D02*
X119366466Y-64640300D01*
X143717692Y-87728300D02*
X143824477Y-87806300D01*
X126787698Y-63930500D02*
X126774555Y-63992900D01*
X147510066Y-74499500D02*
X147548091Y-74671100D01*
X146343530Y-77580500D02*
X146264840Y-77514200D01*
X120706467Y-64964000D02*
X120726123Y-65170700D01*
X120214872Y-65190200D02*
X120181215Y-65049800D01*
X146857234Y-80092100D02*
X146694425Y-80041400D01*
X127980084Y-66586400D02*
X128241345Y-66668300D01*
X125747802Y-65229200D02*
X125507718Y-65311100D01*
X142137084Y-76433900D02*
X142237665Y-76172600D01*
X142977495Y-91051100D02*
X143061735Y-91058900D01*
X118537326Y-66013100D02*
X118493646Y-65974100D01*
X126802050Y-67159700D02*
X126676665Y-67190900D01*
X142778712Y-77954900D02*
X142832610Y-78138200D01*
X146252344Y-76145300D02*
X146298290Y-76274000D01*
X147300023Y-74179700D02*
X147427165Y-74316200D01*
X145047779Y-81773000D02*
X145047767Y-81773000D01*
X122522736Y-64862600D02*
X122522736Y-64862600D01*
X125047089Y-63462500D02*
X124921665Y-63439100D01*
X135652164Y-62214500D02*
X135609147Y-62452400D01*
X118924011Y-65342300D02*
X118987854Y-65533400D01*
X145319921Y-75026000D02*
X145469419Y-74530700D01*
X127579281Y-64008500D02*
X127687818Y-64199600D01*
X117636543Y-65759600D02*
X117739308Y-65576300D01*
X127473591Y-66738500D02*
X127699089Y-66617600D01*
X136766433Y-64293200D02*
X136681491Y-64152800D01*
X134649162Y-63914900D02*
X134525610Y-64039700D01*
X144090734Y-85793900D02*
X143933065Y-85696400D01*
X144069121Y-85977200D02*
X144181109Y-86082500D01*
X134789328Y-63357200D02*
X134759922Y-63532700D01*
X125023572Y-68965400D02*
X125309091Y-68778200D01*
X146857254Y-80092100D02*
X146857234Y-80092100D01*
X144310577Y-85111400D02*
X144492532Y-85216700D01*
X122795346Y-64063100D02*
X122616219Y-64051400D01*
X142246401Y-82369700D02*
X142438281Y-82650500D01*
X144854140Y-71972300D02*
X144696443Y-72089300D01*
X146194004Y-77611700D02*
X146212295Y-77744300D01*
X123133593Y-68973200D02*
X123084453Y-68641700D01*
X146176330Y-84807200D02*
X146102483Y-84893000D01*
X144758352Y-86917100D02*
X144494182Y-86815700D01*
X146393985Y-79897100D02*
X146224315Y-79838600D01*
X142422681Y-75977600D02*
X142727154Y-75852800D01*
X146491758Y-77935400D02*
X146412962Y-77736500D01*
X136573227Y-63794000D02*
X136566246Y-64012400D01*
X143153151Y-79140500D02*
X143216838Y-79468100D01*
X145544900Y-70392800D02*
X145687921Y-70299200D01*
X141518271Y-80961800D02*
X141452439Y-81133400D01*
X145645707Y-71925500D02*
X145697761Y-71878700D01*
X125094591Y-63626300D02*
X125126181Y-63591200D01*
X129345357Y-62031200D02*
X129459276Y-61937600D01*
X144550108Y-72140000D02*
X144424711Y-72132200D01*
X123290568Y-64008500D02*
X123332493Y-63891500D01*
X136821501Y-62257400D02*
X136760856Y-62460200D01*
X142745952Y-81663800D02*
X142541904Y-81866600D01*
X117899793Y-66098900D02*
X117776670Y-66067700D01*
X146374099Y-73571300D02*
X146374102Y-73571300D01*
X146303579Y-80915000D02*
X146300798Y-80911100D01*
X144710554Y-82034300D02*
X144892309Y-81944600D01*
X127333074Y-66921800D02*
X127473591Y-66738500D01*
X142222338Y-77525900D02*
X142430091Y-77510300D01*
X144160400Y-84128600D02*
X144256044Y-84027200D01*
X145511130Y-74183600D02*
X145279930Y-74035400D01*
X145771385Y-76593800D02*
X145660574Y-76574300D01*
X131106207Y-62912600D02*
X131171961Y-62932100D01*
X145116419Y-86515400D02*
X145238785Y-86628500D01*
X143109198Y-90805400D02*
X143048865Y-90707900D01*
X146660799Y-74043200D02*
X146210154Y-74210900D01*
X128718159Y-63400100D02*
X128892021Y-63236300D01*
X121715904Y-68591000D02*
X122001072Y-68598800D01*
X146660975Y-75626600D02*
X146378209Y-75657800D01*
X145296228Y-87143300D02*
X145296228Y-87143300D01*
X142237665Y-76172600D02*
X142422681Y-75977600D01*
X142744314Y-80848700D02*
X142856127Y-81102200D01*
X137825868Y-64480400D02*
X137711559Y-64574000D01*
X141262275Y-81098300D02*
X141362856Y-80833100D01*
X119366466Y-64640300D02*
X119591145Y-64640300D01*
X133363800Y-61695800D02*
X133618353Y-61676300D01*
X117426021Y-67463900D02*
X117355275Y-67424900D01*
X126907701Y-67885100D02*
X126733020Y-67842200D01*
X144595995Y-71270300D02*
X144805296Y-71036300D01*
X130266849Y-63314300D02*
X130345512Y-63146600D01*
X144592103Y-82338500D02*
X144604996Y-82217600D01*
X146382538Y-82248800D02*
X146475627Y-82248800D01*
X128617383Y-67148000D02*
X128652561Y-67475600D01*
X125532171Y-67561400D02*
X125288967Y-67639400D01*
X137600604Y-62542100D02*
X137531925Y-62674700D01*
X124731852Y-64012400D02*
X124675185Y-63930500D01*
X142134432Y-76714700D02*
X142137084Y-76433900D01*
X144560860Y-87697100D02*
X144450349Y-87626900D01*
X143216838Y-79468100D02*
X143125071Y-79694300D01*
X122954661Y-69663500D02*
X123010860Y-69823400D01*
X134157060Y-62686400D02*
X134157060Y-62686400D01*
X127872600Y-68021600D02*
X128121654Y-67912400D01*
X131437278Y-61801100D02*
X131570853Y-61867400D01*
X143123433Y-91008200D02*
X143138877Y-90910700D01*
X131400423Y-62838500D02*
X131412201Y-62764400D01*
X121027281Y-64511600D02*
X120914727Y-64488200D01*
X123832980Y-68126900D02*
X123648822Y-68154200D01*
X124340994Y-69378800D02*
X124095684Y-69507500D01*
X118171662Y-66024800D02*
X118033485Y-66075500D01*
X145901536Y-81578000D02*
X145693740Y-81620900D01*
X144511365Y-88722800D02*
X144349063Y-88609700D01*
X131288571Y-62569400D02*
X131210766Y-62553800D01*
X116642316Y-69534800D02*
X116464515Y-69651800D01*
X127923495Y-64675400D02*
X127733799Y-64223000D01*
X125204610Y-64265900D02*
X125230077Y-64137200D01*
X115982280Y-69581600D02*
X115858767Y-69480200D01*
X142734681Y-90902900D02*
X142809873Y-90957500D01*
X143343393Y-76995500D02*
X143473692Y-76870700D01*
X145975710Y-84924200D02*
X145824885Y-84916400D01*
X147501250Y-77264600D02*
X147530413Y-77432300D01*
X146599058Y-71402900D02*
X146661595Y-71597900D01*
X133866042Y-63255800D02*
X133920564Y-63575600D01*
X136562697Y-64035800D02*
X136396206Y-64343900D01*
X145279930Y-74035400D02*
X145152595Y-73797500D01*
X145633570Y-80883800D02*
X145596064Y-80805800D01*
X142727154Y-75852800D02*
X143071368Y-75852800D01*
X146976789Y-78407300D02*
X146752102Y-78313700D01*
X121377462Y-65159000D02*
X121506786Y-65155100D01*
X145793174Y-71356100D02*
X145866611Y-71383400D01*
X137531925Y-62674700D02*
X137482512Y-62811200D01*
X145082399Y-80099900D02*
X145147135Y-79940000D01*
X117005679Y-66921800D02*
X116878110Y-66956900D01*
X124255506Y-64441400D02*
X124343061Y-64562300D01*
X121850493Y-65069300D02*
X121892808Y-64983500D01*
X134168682Y-61719200D02*
X134168682Y-61719200D01*
X142406379Y-80848700D02*
X142141101Y-80751200D01*
X128339937Y-68013800D02*
X127955592Y-68204900D01*
X121101888Y-63895400D02*
X121257888Y-63813500D01*
X141360711Y-83898500D02*
X141360711Y-83898500D01*
X146006687Y-79136600D02*
X146075526Y-79308200D01*
X142660347Y-84846200D02*
X142508676Y-85060700D01*
X143943139Y-75037700D02*
X143714271Y-75341900D01*
X131028831Y-62803400D02*
X131053050Y-62869700D01*
X141751569Y-90782000D02*
X141604539Y-90618200D01*
X141201318Y-82478900D02*
X141509613Y-82248800D01*
X137611251Y-64620800D02*
X137527050Y-64613000D01*
X133236543Y-62460200D02*
X133213767Y-62670800D01*
X146190112Y-84690200D02*
X146176330Y-84807200D01*
X145141663Y-72931700D02*
X144982766Y-72959000D01*
X134157060Y-62686400D02*
X134157060Y-62686400D01*
X142057017Y-85193300D02*
X141823563Y-85084100D01*
X133080348Y-61719200D02*
X133363800Y-61695800D01*
X146134397Y-76508000D02*
X145970363Y-76574300D01*
X115727805Y-69332000D02*
X115646061Y-69168200D01*
X135992478Y-63060800D02*
X136055775Y-62826800D01*
X116878110Y-66956900D02*
X116746758Y-67023200D01*
X134857578Y-63150500D02*
X134789328Y-63357200D01*
X145612815Y-79823000D02*
X145806867Y-79893200D01*
X144376070Y-86012300D02*
X144226977Y-85879700D01*
X146795447Y-75018200D02*
X146905208Y-74909000D01*
X133662501Y-63150500D02*
X133718700Y-63131000D01*
X125128443Y-67892900D02*
X125066082Y-67713500D01*
X120171621Y-66149600D02*
X120254730Y-66270500D01*
X140564097Y-84955400D02*
X140578839Y-84838400D01*
X133669287Y-62304200D02*
X133549050Y-62308100D01*
X130797444Y-61957100D02*
X130947165Y-61816700D01*
X147022727Y-81039800D02*
X147026678Y-81102200D01*
X124473282Y-64878200D02*
X124444305Y-64706600D01*
X128364585Y-62885300D02*
X128334672Y-63099800D01*
X116464515Y-69651800D02*
X116250717Y-69683000D01*
X143416713Y-77206100D02*
X143124993Y-77323100D01*
X115601991Y-67935800D02*
X115578630Y-68002100D01*
X120106218Y-66028700D02*
X120106218Y-66028700D01*
X144501697Y-86277500D02*
X144524956Y-86254100D01*
X144394459Y-87603500D02*
X144315133Y-87580100D01*
X142259583Y-83379800D02*
X142266057Y-83344700D01*
X136516287Y-63076400D02*
X136508214Y-63353300D01*
X134719518Y-62023400D02*
X134683482Y-62159900D01*
X142141101Y-80751200D02*
X142141101Y-80751200D01*
X126699168Y-68637800D02*
X126386115Y-68727500D01*
X126151452Y-67538000D02*
X126155859Y-67740800D01*
X129162954Y-66422600D02*
X129162954Y-66422600D01*
X133918458Y-61984400D02*
X133866900Y-62175500D01*
X146039810Y-83329100D02*
X145927502Y-83340800D01*
X144494182Y-86815700D02*
X144222660Y-86741600D01*
X117381405Y-67690100D02*
X117451566Y-67592600D01*
X142929291Y-78532100D02*
X142744470Y-78442400D01*
X144424711Y-72132200D02*
X144328556Y-72065900D01*
X144769997Y-84818900D02*
X144603670Y-84826700D01*
X130062528Y-62483600D02*
X130042638Y-62666900D01*
X119862780Y-65283800D02*
X119962347Y-65393000D01*
X120638568Y-64550600D02*
X120687630Y-64757300D01*
X116960127Y-69117500D02*
X116875380Y-69254000D01*
X146182874Y-78957200D02*
X146067734Y-79027400D01*
X125793900Y-62998400D02*
X125785203Y-62838500D01*
X145582324Y-72686000D02*
X145289723Y-72869300D01*
X143138877Y-90910700D02*
X143109198Y-90805400D01*
X145779508Y-85973300D02*
X145807206Y-86082500D01*
X122601789Y-65705000D02*
X122445009Y-66017000D01*
X147055195Y-77561000D02*
X147042777Y-77455700D01*
X142574625Y-84296300D02*
X142584648Y-84183200D01*
X142208337Y-80119400D02*
X141692718Y-80025800D01*
X132276558Y-64137200D02*
X131916432Y-64277600D01*
X143884526Y-88625300D02*
X144100987Y-88828100D01*
X116705964Y-66204200D02*
X116705964Y-66204200D01*
X144859171Y-86246300D02*
X144980625Y-86386700D01*
X120879705Y-65560700D02*
X121009731Y-65732300D01*
X142509573Y-80626400D02*
X142744314Y-80848700D01*
X143387424Y-90072200D02*
X142950000Y-89865500D01*
X127909728Y-62093600D02*
X128240877Y-62159900D01*
X133618353Y-61676300D02*
X133836324Y-61762100D01*
X125556273Y-68438900D02*
X125529324Y-68867900D01*
X144796705Y-84214400D02*
X144917257Y-84343100D01*
X123473478Y-65751800D02*
X123131331Y-65673800D01*
X146599058Y-71402900D02*
X146599058Y-71402900D01*
X127734540Y-63957800D02*
X127784226Y-63727700D01*
X127019358Y-68017700D02*
X126907701Y-67885100D01*
X131787654Y-62464100D02*
X131818347Y-62666900D01*
X127001574Y-64051400D02*
X127010427Y-63895400D01*
X143265042Y-87088700D02*
X143202681Y-86932700D01*
X142384266Y-75334100D02*
X142428648Y-75096200D01*
X122703735Y-63439100D02*
X122856732Y-63345500D01*
X145046402Y-84935900D02*
X144911302Y-84842300D01*
X132390906Y-63758900D02*
X132276558Y-64137200D01*
X123475428Y-63201200D02*
X123651045Y-63236300D01*
X144805296Y-71036300D02*
X145028485Y-70849100D01*
X129582516Y-66964700D02*
X129739998Y-67432700D01*
X131412201Y-62764400D02*
X131412201Y-62764400D01*
X117064569Y-66925700D02*
X117005679Y-66921800D01*
X131211078Y-66048200D02*
X131262792Y-66446000D01*
X123855522Y-69347600D02*
X124035312Y-69324200D01*
X128501241Y-66364100D02*
X128786409Y-66371900D01*
X123883407Y-64429700D02*
X124004775Y-64359500D01*
X131027505Y-65728400D02*
X131211078Y-66048200D01*
X127633335Y-68087900D02*
X127720656Y-68068400D01*
X135669246Y-63411800D02*
X135666399Y-63735500D01*
X131412201Y-62764400D02*
X131395158Y-62690300D01*
X144088426Y-74792000D02*
X143943139Y-75037700D01*
X145158508Y-82958600D02*
X145125280Y-82896200D01*
X125027745Y-62678600D02*
X125027745Y-62678600D01*
X118499418Y-66551300D02*
X118380117Y-66582500D01*
X121226103Y-66052100D02*
X121232577Y-66067700D01*
X115750308Y-67288400D02*
X115906503Y-67370300D01*
X144857560Y-83859500D02*
X144700492Y-83812700D01*
X117001701Y-68470100D02*
X117096822Y-68641700D01*
X143216994Y-87365600D02*
X143373501Y-87420200D01*
X126901851Y-68333600D02*
X127018110Y-68193200D01*
X143556099Y-90672800D02*
X143653794Y-91125200D01*
X126662859Y-64967900D02*
X126546951Y-65026400D01*
X129572103Y-65732300D02*
X129541839Y-65603600D01*
X146360569Y-74663300D02*
X146333979Y-74784200D01*
X126628851Y-66999800D02*
X126715665Y-66972500D01*
X126506976Y-68513000D02*
X126578385Y-68489600D01*
X140703561Y-84319700D02*
X140852229Y-84081800D01*
X144943411Y-87030200D02*
X144758352Y-86917100D01*
X124454757Y-64554500D02*
X124522305Y-64441400D01*
X115950378Y-67764200D02*
X115872300Y-67814900D01*
X143337855Y-89186900D02*
X143323503Y-89374100D01*
X138009792Y-62694200D02*
X138128313Y-62557700D01*
X145934260Y-78360500D02*
X145660477Y-78263000D01*
X146705860Y-75057200D02*
X146795447Y-75018200D01*
X134146608Y-62226200D02*
X134131359Y-61851800D01*
X142572441Y-78071900D02*
X142517997Y-77892500D01*
X137064666Y-62117000D02*
X137112792Y-62003900D01*
X143307396Y-86632400D02*
X143437305Y-86581700D01*
X118785054Y-66559100D02*
X118719846Y-66508400D01*
X125785203Y-62838500D02*
X125820264Y-62698100D01*
X124547967Y-67885100D02*
X124492392Y-67713500D01*
X118489161Y-66137900D02*
X118524612Y-66106700D01*
X117087774Y-68821100D02*
X117034929Y-68969300D01*
X146215275Y-73555700D02*
X146374099Y-73571300D01*
X126564267Y-67226000D02*
X126385686Y-67296200D01*
X125309091Y-68778200D02*
X125321025Y-68474000D01*
X120121935Y-64901600D02*
X120061680Y-64745600D01*
X142749930Y-76086800D02*
X142515891Y-76176500D01*
X146143687Y-74230400D02*
X146255815Y-74238200D01*
X144980625Y-86386700D02*
X145116419Y-86515400D01*
X146378209Y-75657800D02*
X146378225Y-75657800D01*
X126578385Y-68489600D02*
X126757434Y-68419400D01*
X144842058Y-72939500D02*
X144748458Y-72853700D01*
X143716654Y-89249300D02*
X143668243Y-89171300D01*
X121009731Y-65732300D02*
X121136364Y-65884400D01*
X143176512Y-78216200D02*
X143230605Y-78114800D01*
X146359957Y-74998700D02*
X146422069Y-75053300D01*
X142911234Y-88309400D02*
X143268162Y-88321100D01*
X145491876Y-76433900D02*
X145463850Y-76320800D01*
X143597673Y-86593400D02*
X143781242Y-86663600D01*
X142604577Y-81032000D02*
X142406379Y-80848700D01*
X143540070Y-76523600D02*
X143479386Y-76367600D01*
X141113568Y-83169200D02*
X141337896Y-83212100D01*
X126530493Y-67670600D02*
X126803727Y-67658900D01*
X145410721Y-86999000D02*
X145298108Y-87143300D01*
X141891852Y-90867800D02*
X141751569Y-90782000D01*
X145235556Y-70697000D02*
X145388596Y-70560500D01*
X134161389Y-62596700D02*
X134159985Y-62440700D01*
X117142218Y-67499000D02*
X117027870Y-67549700D01*
X116930994Y-67206500D02*
X117043860Y-67120700D01*
X144300160Y-71792900D02*
X144397446Y-71570600D01*
X135005661Y-63341600D02*
X135061275Y-63201200D01*
X122009886Y-68805500D02*
X121739148Y-68809400D01*
X145484470Y-76196000D02*
X145546811Y-76086800D01*
X146395412Y-82896200D02*
X146205743Y-82814300D01*
X146305420Y-79417400D02*
X146515727Y-79429100D01*
X141449046Y-81297200D02*
X141504621Y-81449300D01*
X132555330Y-62284700D02*
X132494061Y-62257400D01*
X126953487Y-64215200D02*
X127001574Y-64051400D01*
X120842499Y-64394600D02*
X120842421Y-64199600D01*
X131916432Y-64277600D02*
X131685786Y-64238600D01*
X145625400Y-79776200D02*
X145439081Y-79745000D01*
X145206634Y-71496500D02*
X145123536Y-71640800D01*
X116481753Y-67144100D02*
X116352858Y-67132400D01*
X126158784Y-67187000D02*
X126450855Y-67050500D01*
X134168682Y-61719200D02*
X134168682Y-61719200D01*
X141768378Y-84288500D02*
X141835809Y-84506900D01*
X146300798Y-80911100D02*
X146300798Y-80911100D01*
X136727316Y-63517100D02*
X136819005Y-63302600D01*
X142296789Y-78863600D02*
X142518699Y-78902600D01*
X130010658Y-62089700D02*
X130059798Y-62288600D01*
X119689893Y-67288400D02*
X119548089Y-67467800D01*
X143653794Y-91125200D02*
X143549508Y-91577600D01*
X124725885Y-62764400D02*
X125027745Y-62678600D01*
X122856732Y-63345500D02*
X123016008Y-63271400D01*
X146296040Y-78883100D02*
X146182874Y-78957200D01*
X143715488Y-75341900D02*
X143943076Y-75384800D01*
X141823563Y-85084100D02*
X141662454Y-84826700D01*
X126386388Y-68442800D02*
X126417744Y-68536400D01*
X142649505Y-90590900D02*
X142586247Y-90657200D01*
X141742677Y-78750500D02*
X141742716Y-78750500D01*
X146647434Y-82892300D02*
X146395412Y-82896200D01*
X133999617Y-63521000D02*
X134024655Y-63290900D01*
X145147135Y-79940000D02*
X145263390Y-79842500D01*
X137631609Y-63778400D02*
X137721738Y-63661400D01*
X146065648Y-78364400D02*
X145934260Y-78360500D01*
X144962622Y-80915000D02*
X145130701Y-80915000D01*
X143856918Y-87825800D02*
X143896838Y-87837500D01*
X134738823Y-61879100D02*
X134719518Y-62023400D01*
X137426157Y-64262000D02*
X137463519Y-64078700D01*
X146096208Y-81581900D02*
X145901536Y-81578000D01*
X127419693Y-62951600D02*
X127404483Y-63173900D01*
X146378225Y-75657800D02*
X145979789Y-75650000D01*
X144100987Y-88828100D02*
X144274842Y-89058200D01*
X146149794Y-71289800D02*
X146318254Y-71254700D01*
X134134869Y-62830700D02*
X134157060Y-62686400D01*
X131217591Y-63450800D02*
X131170323Y-63602900D01*
X137527050Y-64613000D02*
X137462193Y-64542800D01*
X143294760Y-77806700D02*
X143306226Y-77713100D01*
X122663916Y-64780700D02*
X122775729Y-64535000D01*
X137478573Y-63064700D02*
X137518431Y-63111500D01*
X127800762Y-68251700D02*
X127722606Y-68271200D01*
X129777867Y-61894700D02*
X129912066Y-61961000D01*
X125910276Y-67604300D02*
X125973456Y-67374200D01*
X143688188Y-86562200D02*
X143551263Y-86464700D01*
X138808746Y-62885300D02*
X138669516Y-63045200D01*
X116000688Y-67561400D02*
X116000298Y-67666700D01*
X136438092Y-61734800D02*
X136759257Y-61906400D01*
X137722557Y-62280800D02*
X137669751Y-62417300D01*
X126546951Y-65026400D02*
X126362676Y-65018600D01*
X116613690Y-67097300D02*
X116481753Y-67144100D01*
X145428021Y-75353600D02*
X145357626Y-75209300D01*
X122377617Y-68653400D02*
X122377617Y-68653400D01*
X141975858Y-79035200D02*
X141698295Y-78988400D01*
X143959531Y-86772800D02*
X144125858Y-86913200D01*
X132558918Y-63306500D02*
X132569331Y-62943800D01*
X125896665Y-62592800D02*
X126016785Y-62534300D01*
X145330638Y-71929400D02*
X145222128Y-71948900D01*
X142886079Y-91008200D02*
X142977495Y-91051100D01*
X116705964Y-66204200D02*
X116705964Y-66204200D01*
X121135506Y-65268200D02*
X121248489Y-65186300D01*
X126047595Y-64882100D02*
X125937849Y-65088800D01*
X131465514Y-63723800D02*
X131419845Y-63536600D01*
X133622838Y-63189500D02*
X133662501Y-63150500D01*
X142943097Y-91675100D02*
X142788150Y-91542500D01*
X144315386Y-83383700D02*
X144322827Y-83196500D01*
X146545519Y-80603000D02*
X146698524Y-80692700D01*
X118987854Y-65533400D02*
X119020380Y-65728400D01*
X122111247Y-66235400D02*
X121534593Y-66204200D01*
X132484428Y-61801100D02*
X132722679Y-61695800D01*
X140926407Y-83134100D02*
X141024570Y-82790900D01*
X124444305Y-64706600D02*
X124454757Y-64554500D01*
X131233893Y-62936000D02*
X131297034Y-62924300D01*
X142783275Y-84354800D02*
X142754142Y-84545900D01*
X146070632Y-82229300D02*
X146304218Y-82248800D01*
X130993653Y-66520100D02*
X130965027Y-66134000D01*
X131159637Y-66789200D02*
X130793154Y-67198700D01*
X144911302Y-84842300D02*
X144769997Y-84818900D01*
X119996082Y-65404700D02*
X120102630Y-65385200D01*
X130266576Y-63950000D02*
X130219464Y-63735500D01*
X147427165Y-74316200D02*
X147510066Y-74499500D01*
X144663391Y-85345400D02*
X144834698Y-85474100D01*
X145123536Y-71640800D02*
X145022226Y-71792900D01*
X127560210Y-64850900D02*
X127424958Y-64913300D01*
X143730495Y-76734200D02*
X143620761Y-77003300D01*
X125097672Y-63489800D02*
X125047089Y-63462500D01*
X147534560Y-77748200D02*
X147507100Y-77892500D01*
X143515734Y-89541800D02*
X143595567Y-89534000D01*
X131885037Y-62881400D02*
X132005196Y-63095900D01*
X135691476Y-62003900D02*
X135652164Y-62214500D01*
X132913779Y-61707500D02*
X133080348Y-61719200D01*
X142888809Y-78243500D02*
X142984827Y-78302000D01*
X147042777Y-77455700D02*
X147010403Y-77354300D01*
X141624468Y-90087800D02*
X141853359Y-89834300D01*
X143943076Y-75384800D02*
X143899517Y-75618800D01*
X145791517Y-83321300D02*
X145652739Y-83301800D01*
X142571427Y-76979900D02*
X142844193Y-77077400D01*
X143899517Y-75618800D02*
X143428725Y-75525200D01*
X142896102Y-80014100D02*
X143068599Y-80045300D01*
X146960857Y-74768600D02*
X146981843Y-74608700D01*
X146374102Y-73571300D02*
X146454583Y-73528400D01*
X129520038Y-65517800D02*
X129548976Y-65510000D01*
D11*
X136767265Y-71797031D02*
X136194845Y-71898046D01*
X136363204Y-71392970D02*
X135656097Y-72100076D01*
X135925471Y-72369451D01*
X136026486Y-72403122D01*
X136093830Y-72403122D01*
X136194845Y-72369451D01*
X136295860Y-72268435D01*
X136329532Y-72167420D01*
X136329532Y-72100076D01*
X136295860Y-71999061D01*
X136026486Y-71729687D01*
X136295860Y-72739840D02*
X136733593Y-73177573D01*
X136767265Y-72672496D01*
X136868280Y-72773512D01*
X136969296Y-72807183D01*
X137036639Y-72807183D01*
X137137654Y-72773512D01*
X137306013Y-72605153D01*
X137339685Y-72504138D01*
X137339685Y-72436794D01*
X137306013Y-72335779D01*
X137103983Y-72133748D01*
X137002967Y-72100076D01*
X136935624Y-72100076D01*
X139567265Y-74607032D02*
X138994845Y-74708047D01*
X139163204Y-74202971D02*
X138456097Y-74910077D01*
X138725471Y-75179452D01*
X138826486Y-75213123D01*
X138893830Y-75213123D01*
X138994845Y-75179452D01*
X139095860Y-75078436D01*
X139129532Y-74977421D01*
X139129532Y-74910077D01*
X139095860Y-74809062D01*
X138826486Y-74539688D01*
X139499922Y-75953902D02*
X139163204Y-75617184D01*
X139466250Y-75246795D01*
X139466250Y-75314139D01*
X139499922Y-75415154D01*
X139668280Y-75583513D01*
X139769296Y-75617184D01*
X139836639Y-75617184D01*
X139937654Y-75583513D01*
X140106013Y-75415154D01*
X140139685Y-75314139D01*
X140139685Y-75246795D01*
X140106013Y-75145780D01*
X139937654Y-74977421D01*
X139836639Y-74943749D01*
X139769296Y-74943749D01*
X161867542Y-85321140D02*
X160927849Y-84979120D01*
X160846416Y-85202856D01*
X160842303Y-85353385D01*
X160899224Y-85475453D01*
X160972432Y-85552773D01*
X161135135Y-85662667D01*
X161269376Y-85711527D01*
X161464652Y-85731927D01*
X161570433Y-85719753D01*
X161692501Y-85662832D01*
X161786109Y-85544877D01*
X161867542Y-85321140D01*
X160422962Y-86366285D02*
X160585829Y-85918813D01*
X161049589Y-86036932D01*
X160988555Y-86065393D01*
X160911234Y-86138601D01*
X160829801Y-86362337D01*
X160841975Y-86468118D01*
X160870435Y-86529152D01*
X160943643Y-86606473D01*
X161167379Y-86687906D01*
X161273161Y-86675732D01*
X161334195Y-86647272D01*
X161411515Y-86574064D01*
X161492948Y-86350327D01*
X161480775Y-86244546D01*
X161452314Y-86183512D01*
X138267265Y-73197032D02*
X137694845Y-73298047D01*
X137863204Y-72792971D02*
X137156097Y-73500077D01*
X137425471Y-73769452D01*
X137526486Y-73803123D01*
X137593830Y-73803123D01*
X137694845Y-73769452D01*
X137795860Y-73668436D01*
X137829532Y-73567421D01*
X137829532Y-73500077D01*
X137795860Y-73399062D01*
X137526486Y-73129688D01*
X138401952Y-74274528D02*
X138873357Y-73803123D01*
X137964219Y-74375543D02*
X138300937Y-73702108D01*
X138738670Y-74139841D01*
X123230125Y-48058063D02*
X122807507Y-47151756D01*
X122591720Y-47252379D01*
X122482372Y-47355911D01*
X122436306Y-47482475D01*
X122433398Y-47588915D01*
X122470739Y-47781669D01*
X122531113Y-47911142D01*
X122654769Y-48063647D01*
X122738176Y-48129838D01*
X122864741Y-48175903D01*
X123014338Y-48158687D01*
X123230125Y-48058063D01*
X121849085Y-48702053D02*
X122366975Y-48460557D01*
X122108030Y-48581305D02*
X121685412Y-47674997D01*
X121832101Y-47764220D01*
X121958665Y-47810286D01*
X122065105Y-47813194D01*
X139728095Y-43282380D02*
X139728095Y-42282380D01*
X139490000Y-42282380D01*
X139347142Y-42330000D01*
X139251904Y-42425238D01*
X139204285Y-42520476D01*
X139156666Y-42710952D01*
X139156666Y-42853809D01*
X139204285Y-43044285D01*
X139251904Y-43139523D01*
X139347142Y-43234761D01*
X139490000Y-43282380D01*
X139728095Y-43282380D01*
X138775714Y-42377619D02*
X138728095Y-42330000D01*
X138632857Y-42282380D01*
X138394761Y-42282380D01*
X138299523Y-42330000D01*
X138251904Y-42377619D01*
X138204285Y-42472857D01*
X138204285Y-42568095D01*
X138251904Y-42710952D01*
X138823333Y-43282380D01*
X138204285Y-43282380D01*
X133617265Y-68787032D02*
X133044845Y-68888047D01*
X133213204Y-68382971D02*
X132506097Y-69090077D01*
X132775471Y-69359452D01*
X132876486Y-69393123D01*
X132943830Y-69393123D01*
X133044845Y-69359452D01*
X133145860Y-69258436D01*
X133179532Y-69157421D01*
X133179532Y-69090077D01*
X133145860Y-68989062D01*
X132876486Y-68719688D01*
X134290700Y-69460467D02*
X133886639Y-69056406D01*
X134088670Y-69258436D02*
X133381563Y-69965543D01*
X133415235Y-69797184D01*
X133415235Y-69662497D01*
X133381563Y-69561482D01*
X148715714Y-93258571D02*
X148572857Y-93306190D01*
X148525238Y-93353809D01*
X148477619Y-93449047D01*
X148477619Y-93591904D01*
X148525238Y-93687142D01*
X148572857Y-93734761D01*
X148668095Y-93782380D01*
X149049047Y-93782380D01*
X149049047Y-92782380D01*
X148715714Y-92782380D01*
X148620476Y-92830000D01*
X148572857Y-92877619D01*
X148525238Y-92972857D01*
X148525238Y-93068095D01*
X148572857Y-93163333D01*
X148620476Y-93210952D01*
X148715714Y-93258571D01*
X149049047Y-93258571D01*
X148191904Y-92782380D02*
X147620476Y-92782380D01*
X147906190Y-93782380D02*
X147906190Y-92782380D01*
X147334761Y-92877619D02*
X147287142Y-92830000D01*
X147191904Y-92782380D01*
X146953809Y-92782380D01*
X146858571Y-92830000D01*
X146810952Y-92877619D01*
X146763333Y-92972857D01*
X146763333Y-93068095D01*
X146810952Y-93210952D01*
X147382380Y-93782380D01*
X146763333Y-93782380D01*
X165437969Y-45778206D02*
X164730862Y-46485312D01*
X164899221Y-46653671D01*
X165033908Y-46721015D01*
X165168595Y-46721015D01*
X165269610Y-46687343D01*
X165437969Y-46586328D01*
X165538984Y-46485312D01*
X165640000Y-46316954D01*
X165673671Y-46215938D01*
X165673671Y-46081251D01*
X165606328Y-45946564D01*
X165437969Y-45778206D01*
X165370625Y-47125076D02*
X165808358Y-47562809D01*
X165842030Y-47057732D01*
X165943045Y-47158748D01*
X166044061Y-47192419D01*
X166111404Y-47192419D01*
X166212419Y-47158748D01*
X166380778Y-46990389D01*
X166414450Y-46889374D01*
X166414450Y-46822030D01*
X166380778Y-46721015D01*
X166178748Y-46518984D01*
X166077732Y-46485312D01*
X166010389Y-46485312D01*
X166502380Y-59861904D02*
X165502380Y-59861904D01*
X165502380Y-60100000D01*
X165550000Y-60242857D01*
X165645238Y-60338095D01*
X165740476Y-60385714D01*
X165930952Y-60433333D01*
X166073809Y-60433333D01*
X166264285Y-60385714D01*
X166359523Y-60338095D01*
X166454761Y-60242857D01*
X166502380Y-60100000D01*
X166502380Y-59861904D01*
X165835714Y-61290476D02*
X166502380Y-61290476D01*
X165454761Y-61052380D02*
X166169047Y-60814285D01*
X166169047Y-61433333D01*
X135257265Y-70317032D02*
X134684845Y-70418047D01*
X134853204Y-69912971D02*
X134146097Y-70620077D01*
X134415471Y-70889452D01*
X134516486Y-70923123D01*
X134583830Y-70923123D01*
X134684845Y-70889452D01*
X134785860Y-70788436D01*
X134819532Y-70687421D01*
X134819532Y-70620077D01*
X134785860Y-70519062D01*
X134516486Y-70249688D01*
X134886876Y-71226169D02*
X134886876Y-71293513D01*
X134920547Y-71394528D01*
X135088906Y-71562887D01*
X135189922Y-71596558D01*
X135257265Y-71596558D01*
X135358280Y-71562887D01*
X135425624Y-71495543D01*
X135492967Y-71360856D01*
X135492967Y-70552734D01*
X135930700Y-70990467D01*
D12*
X138865517Y-70913930D02*
X138544400Y-71235047D01*
X137826070Y-69874483D02*
X137504953Y-70195600D01*
X141655517Y-73803930D02*
X141334400Y-74125047D01*
X140616070Y-72764483D02*
X140294953Y-73085600D01*
X161123335Y-83815426D02*
X160884653Y-83728553D01*
X160884653Y-83728553D02*
X161492765Y-82057780D01*
X161492765Y-82057780D02*
X161731447Y-82144653D01*
X140315517Y-72443930D02*
X139994400Y-72765047D01*
X139276070Y-71404483D02*
X138954953Y-71725600D01*
X126018108Y-47281862D02*
X124406692Y-48033277D01*
X124406692Y-48033277D02*
X124299347Y-47803075D01*
X125910763Y-47051659D02*
X126018108Y-47281862D01*
X140844000Y-43566000D02*
X140844000Y-43312000D01*
X142622000Y-43566000D02*
X140844000Y-43566000D01*
X142622000Y-43312000D02*
X142622000Y-43566000D01*
X135665517Y-67933930D02*
X135344400Y-68255047D01*
X134626070Y-66894483D02*
X134304953Y-67215600D01*
X142420000Y-111180000D02*
X138920000Y-111180000D01*
X158400000Y-100640000D02*
X158400000Y-100010000D01*
X138920000Y-111180000D02*
X136840000Y-109100000D01*
X156320000Y-111180000D02*
X158400000Y-109100000D01*
X136840000Y-109100000D02*
X136840000Y-106640000D01*
X158400000Y-100010000D02*
X156960000Y-96060000D01*
X158400000Y-109100000D02*
X158400000Y-106640000D01*
X136840000Y-100010000D02*
X138280000Y-96060000D01*
X156320000Y-111180000D02*
X152820000Y-111180000D01*
X136840000Y-100640000D02*
X136840000Y-100010000D01*
X141616646Y-95073470D02*
G75*
G03*
X138280000Y-96060000I-1306646J-1716531D01*
G01*
X156945244Y-96051831D02*
G75*
G03*
X153620000Y-95090000I-2015244J-738169D01*
G01*
X163720000Y-45627631D02*
X163540395Y-45807236D01*
X163540395Y-45807236D02*
X162283159Y-44550000D01*
X162283159Y-44550000D02*
X162462764Y-44370395D01*
X164954000Y-64142000D02*
X164954000Y-62364000D01*
X164954000Y-62364000D02*
X165208000Y-62364000D01*
X165208000Y-64142000D02*
X164954000Y-64142000D01*
X137325517Y-69443930D02*
X137004400Y-69765047D01*
X136286070Y-68404483D02*
X135964953Y-68725600D01*
%LPC*%
G36*
X146137352Y-43597152D02*
G01*
X147305418Y-43658365D01*
X148229193Y-43759926D01*
X148564703Y-43824006D01*
X149679807Y-44197781D01*
X150899208Y-44792459D01*
X152086039Y-45536437D01*
X152645048Y-45958671D01*
X153255535Y-46390771D01*
X153771864Y-46559042D01*
X154312993Y-46467095D01*
X154997879Y-46118538D01*
X155136756Y-46034275D01*
X156598151Y-45260874D01*
X158046074Y-44728904D01*
X159439215Y-44436082D01*
X160736265Y-44380125D01*
X161895916Y-44558749D01*
X162876859Y-44969670D01*
X163637783Y-45610604D01*
X164137381Y-46479270D01*
X164156199Y-46532855D01*
X164424176Y-47781426D01*
X164396969Y-49122114D01*
X164068696Y-50588997D01*
X163433474Y-52216155D01*
X163034300Y-53032262D01*
X162667954Y-53774786D01*
X162381078Y-54419440D01*
X162213046Y-54874355D01*
X162185535Y-55012600D01*
X162299791Y-55343879D01*
X162592323Y-55825009D01*
X162829337Y-56139680D01*
X163600179Y-57229093D01*
X164275720Y-58453054D01*
X164788380Y-59675712D01*
X165040210Y-60584068D01*
X165142272Y-61423801D01*
X165193592Y-62556515D01*
X165197240Y-63899924D01*
X165156289Y-65371741D01*
X165073810Y-66889681D01*
X164952874Y-68371460D01*
X164796553Y-69734790D01*
X164667199Y-70577552D01*
X163865588Y-74447418D01*
X162833099Y-78250366D01*
X161594632Y-81911534D01*
X160175088Y-85356061D01*
X158866782Y-88016358D01*
X158161447Y-89296764D01*
X157579442Y-90256752D01*
X157098543Y-90925950D01*
X156696527Y-91333990D01*
X156351170Y-91510502D01*
X156236660Y-91523074D01*
X155774781Y-91399960D01*
X155533092Y-91216920D01*
X155448675Y-91035180D01*
X155386799Y-90694011D01*
X155345676Y-90151442D01*
X155323521Y-89365504D01*
X155318545Y-88294228D01*
X155328961Y-86895643D01*
X155333319Y-86525502D01*
X155318042Y-82480852D01*
X155175744Y-78481041D01*
X154911861Y-74604811D01*
X154531827Y-70930903D01*
X154041080Y-67538057D01*
X154009954Y-67355164D01*
X153786179Y-66161666D01*
X153573278Y-65299785D01*
X153350918Y-64723317D01*
X153098768Y-64386061D01*
X152796495Y-64241815D01*
X152633553Y-64227552D01*
X152325381Y-64328946D01*
X151771654Y-64608313D01*
X151038922Y-65028424D01*
X150193735Y-65552053D01*
X149753255Y-65838746D01*
X148684806Y-66534411D01*
X147891744Y-67022359D01*
X147343110Y-67318189D01*
X147007944Y-67437504D01*
X146855285Y-67395902D01*
X146837992Y-67307775D01*
X146899946Y-67064305D01*
X147053781Y-66581747D01*
X147210908Y-66123074D01*
X147436886Y-65242737D01*
X147557611Y-64263071D01*
X147567962Y-63314597D01*
X147462820Y-62527837D01*
X147363557Y-62231957D01*
X147024855Y-61776059D01*
X146614761Y-61464829D01*
X145943883Y-61266874D01*
X145044298Y-61203384D01*
X144040420Y-61270886D01*
X143056663Y-61465907D01*
X142710876Y-61573820D01*
X142113290Y-61775766D01*
X141662326Y-61913284D01*
X141483522Y-61952925D01*
X141363439Y-61896555D01*
X141374686Y-61703521D01*
X141535514Y-61337933D01*
X141864174Y-60763901D01*
X142378917Y-59945536D01*
X142945983Y-59077114D01*
X143533762Y-58155904D01*
X144018318Y-57338385D01*
X144365728Y-56685763D01*
X144542073Y-56259246D01*
X144557177Y-56169880D01*
X144490243Y-55831955D01*
X144258146Y-55556439D01*
X143813941Y-55322391D01*
X143110681Y-55108872D01*
X142101421Y-54894941D01*
X141429565Y-54774774D01*
X137799983Y-54243913D01*
X133883545Y-53843417D01*
X129751151Y-53578228D01*
X125473700Y-53453288D01*
X122447316Y-53451741D01*
X120898177Y-53465665D01*
X119687762Y-53463405D01*
X118775790Y-53437450D01*
X118121982Y-53380285D01*
X117686056Y-53284397D01*
X117427730Y-53142274D01*
X117306725Y-52946400D01*
X117282760Y-52689264D01*
X117299459Y-52491538D01*
X117454323Y-52131719D01*
X117856264Y-51711834D01*
X118528115Y-51216366D01*
X119492708Y-50629801D01*
X120772877Y-49936622D01*
X121905684Y-49361381D01*
X125431872Y-47769420D01*
X129164060Y-46387269D01*
X133004208Y-45243941D01*
X136854279Y-44368445D01*
X140616233Y-43789793D01*
X140806049Y-43768536D01*
X142059342Y-43661980D01*
X143425119Y-43598322D01*
X144814187Y-43576926D01*
X146137352Y-43597152D01*
G37*
D13*
X138830470Y-69909530D03*
X137540000Y-71200000D03*
X141620470Y-72799530D03*
X140330000Y-74090000D03*
D14*
X161779356Y-84240962D03*
X162420644Y-82479038D03*
D13*
X140280470Y-71439530D03*
X138990000Y-72730000D03*
D15*
X125747785Y-46286883D03*
X124048457Y-47079293D03*
D16*
X142797500Y-42550000D03*
X140922500Y-42550000D03*
D13*
X135630470Y-66929530D03*
X134340000Y-68220000D03*
D17*
X136635000Y-103640000D03*
X158605000Y-103640000D03*
D18*
X147620000Y-103640000D03*
D19*
X164382913Y-45212913D03*
X163057087Y-43887087D03*
D20*
X165970000Y-64317500D03*
X165970000Y-62442500D03*
D13*
X137290470Y-68439530D03*
X136000000Y-69730000D03*
M02*
