  0
SECTION
  2
HEADER
  9
$ACADVER
  1
AC1014
  9
$HANDSEED
  5
FFFF
  9
$INSUNITS
 70
     0
  9
$MEASUREMENT
 70
     1
  0
ENDSEC
  0
SECTION
  2
TABLES
  0
TABLE
  2
VPORT
  5
8
330
0
100
AcDbSymbolTable
 70
     4
  0
VPORT
  5
2E
330
8
100
AcDbSymbolTableRecord
100
AcDbViewportTableRecord
  2
*ACTIVE
 70
     0
 10
0.0
 20
0.0
 11
1.0
 21
1.0
 12
210.0
 22
148.5
 13
0.0
 23
0.0
 14
10.0
 24
10.0
 15
10.0
 25
10.0
 16
0.0
 26
0.0
 36
1.0
 17
0.0
 27
0.0
 37
0.0
 40
341.0
 41
1.24
 42
50.0
 43
0.0
 44
0.0
 50
0.0
 51
0.0
 71
     0
 72
   100
 73
     1
 74
     3
 75
     0
 76
     0
 77
     0
 78
     0
  0
ENDTAB
  0
TABLE
  2
LTYPE
  5
5
330
0
100
AcDbSymbolTable
 70
     1
  0
LTYPE
  5
14
330
5
100
AcDbSymbolTableRecord
100
AcDbLinetypeTableRecord
  2
BYBLOCK
 70
     0
  3

 72
    65
 73
     0
 40
0.0
  0
LTYPE
  5
15
330
5
100
AcDbSymbolTableRecord
100
AcDbLinetypeTableRecord
  2
BYLAYER
 70
     0
  3

 72
    65
 73
     0
 40
0.0
  0
LTYPE
  5
16
330
5
100
AcDbSymbolTableRecord
100
AcDbLinetypeTableRecord
  2
CONTINUOUS
 70
     0
  3
Solid line
 72
    65
 73
     0
 40
0.0
  0
ENDTAB
  0
TABLE
  2
LAYER
  5
2
100
AcDbSymbolTable
 70
2
  0
LAYER
  5
50
100
AcDbSymbolTableRecord
100
AcDbLayerTableRecord
  2
0
 70
0
  6
CONTINUOUS
  0
LAYER
  5
51
100
AcDbSymbolTableRecord
100
AcDbLayerTableRecord
  2
Back_Silk
 70
0
  6
CONTINUOUS
  0
ENDTAB
  0
TABLE
  2
STYLE
  5
3
330
0
100
AcDbSymbolTable
 70
     1
  0
STYLE
  5
11
330
3
100
AcDbSymbolTableRecord
100
AcDbTextStyleTableRecord
  2
STANDARD
 70
     0
 40
0.0
 41
1.0
 50
0.0
 71
     0
 42
2.5
  3
txt
  4

  0
ENDTAB
  0
TABLE
  2
VIEW
  5
6
330
0
100
AcDbSymbolTable
 70
     0
  0
ENDTAB
  0
TABLE
  2
UCS
  5
7
330
0
100
AcDbSymbolTable
 70
     0
  0
ENDTAB
  0
TABLE
  2
APPID
  5
9
330
0
100
AcDbSymbolTable
 70
     2
  0
APPID
  5
12
330
9
100
AcDbSymbolTableRecord
100
AcDbRegAppTableRecord
  2
ACAD
 70
     0
  0
ENDTAB
  0
TABLE
  2
DIMSTYLE
  5
A
330
0
100
AcDbSymbolTable
 70
     1
  0
DIMSTYLE
105
27
330
A
100
AcDbSymbolTableRecord
100
AcDbDimStyleTableRecord
  2
ISO-25
 70
     0
  3

  4

  5

  6

  7

 40
1.0
 41
2.5
 42
0.625
 43
3.75
 44
1.25
 45
0.0
 46
0.0
 47
0.0
 48
0.0
140
2.5
141
2.5
142
0.0
143
0.03937007874016
144
1.0
145
0.0
146
1.0
147
0.625
 71
     0
 72
     0
 73
     0
 74
     0
 75
     0
 76
     0
 77
     1
 78
     8
170
     0
171
     3
172
     1
173
     0
174
     0
175
     0
176
     0
177
     0
178
     0
270
     2
271
     2
272
     2
273
     2
274
     3
340
11
275
     0
280
     0
281
     0
282
     0
283
     0
284
     8
285
     0
286
     0
287
     3
288
     0
  0
ENDTAB
  0
TABLE
  2
BLOCK_RECORD
  5
1
330
0
100
AcDbSymbolTable
 70
     1
  0
BLOCK_RECORD
  5
1F
330
1
100
AcDbSymbolTableRecord
100
AcDbBlockTableRecord
  2
*MODEL_SPACE
  0
BLOCK_RECORD
  5
1B
330
1
100
AcDbSymbolTableRecord
100
AcDbBlockTableRecord
  2
*PAPER_SPACE
  0
ENDTAB
  0
ENDSEC
  0
SECTION
  2
BLOCKS
  0
BLOCK
  5
20
330
1F
100
AcDbEntity
  8
0
100
AcDbBlockBegin
  2
*MODEL_SPACE
 70
     0
 10
0.0
 20
0.0
 30
0.0
  3
*MODEL_SPACE
  1

  0
ENDBLK
  5
21
330
1F
100
AcDbEntity
  8
0
100
AcDbBlockEnd
  0
BLOCK
  5
1C
330
1B
100
AcDbEntity
 67
     1
  8
0
100
AcDbBlockBegin
  2
*PAPER_SPACE
  1

  0
ENDBLK
  5
1D
330
1B
100
AcDbEntity
 67
     1
  8
0
100
AcDbBlockEnd
  0
ENDSEC
  0
SECTION
  2
ENTITIES
  0
LWPOLYLINE
  5
100
100
AcDbEntity
  8
Back_Silk
 62
7
100
AcDbPolyline
 90
66
 70
1
 10
73.952500
 20
134.431685
 30
0.0
 10
74.531200
 20
134.605685
 30
0.0
 10
74.964700
 20
134.361685
 30
0.0
 10
75.162400
 20
134.132685
 30
0.0
 10
75.466300
 20
133.788685
 30
0.0
 10
75.814400
 20
133.398685
 30
0.0
 10
76.166900
 20
133.039685
 30
0.0
 10
76.476000
 20
132.782685
 30
0.0
 10
76.726200
 20
132.721685
 30
0.0
 10
76.828400
 20
132.839685
 30
0.0
 10
76.858600
 20
133.067685
 30
0.0
 10
76.846500
 20
133.312685
 30
0.0
 10
76.818300
 20
133.487685
 30
0.0
 10
76.691600
 20
133.839685
 30
0.0
 10
76.515500
 20
134.176685
 30
0.0
 10
76.338100
 20
134.497685
 30
0.0
 10
76.202800
 20
134.844685
 30
0.0
 10
76.299900
 20
135.520685
 30
0.0
 10
76.921100
 20
135.893685
 30
0.0
 10
77.233900
 20
135.895685
 30
0.0
 10
77.530600
 20
135.772685
 30
0.0
 10
77.766300
 20
135.554685
 30
0.0
 10
77.889600
 20
135.268685
 30
0.0
 10
78.004100
 20
134.318685
 30
0.0
 10
78.121000
 20
133.367685
 30
0.0
 10
78.286900
 20
132.783685
 30
0.0
 10
78.519600
 20
132.227685
 30
0.0
 10
78.754700
 20
131.675685
 30
0.0
 10
78.912700
 20
131.101685
 30
0.0
 10
78.955500
 20
130.531685
 30
0.0
 10
78.872200
 20
130.050685
 30
0.0
 10
78.654400
 20
129.688685
 30
0.0
 10
78.291700
 20
129.486685
 30
0.0
 10
77.898400
 20
129.524685
 30
0.0
 10
77.568700
 20
129.783685
 30
0.0
 10
77.298900
 20
130.191685
 30
0.0
 10
77.105700
 20
130.682685
 30
0.0
 10
76.931300
 20
131.105685
 30
0.0
 10
76.643100
 20
131.571685
 30
0.0
 10
76.315100
 20
131.929685
 30
0.0
 10
76.044300
 20
132.026685
 30
0.0
 10
75.978900
 20
131.954685
 30
0.0
 10
75.967800
 20
131.844685
 30
0.0
 10
75.987100
 20
131.725685
 30
0.0
 10
76.023800
 20
131.628685
 30
0.0
 10
76.204900
 20
131.306685
 30
0.0
 10
76.436000
 20
131.002685
 30
0.0
 10
76.674200
 20
130.661685
 30
0.0
 10
76.867000
 20
130.234685
 30
0.0
 10
76.962700
 20
129.767685
 30
0.0
 10
76.962500
 20
129.356685
 30
0.0
 10
76.870400
 20
129.048685
 30
0.0
 10
76.704100
 20
128.866685
 30
0.0
 10
76.488200
 20
128.847685
 30
0.0
 10
76.231000
 20
128.970685
 30
0.0
 10
75.937800
 20
129.204685
 30
0.0
 10
75.633700
 20
129.541685
 30
0.0
 10
75.191700
 20
130.227685
 30
0.0
 10
74.836100
 20
130.951685
 30
0.0
 10
74.521600
 20
131.704685
 30
0.0
 10
74.160800
 20
132.426685
 30
0.0
 10
73.774700
 20
132.890685
 30
0.0
 10
73.417700
 20
133.299685
 30
0.0
 10
73.403600
 20
133.899685
 30
0.0
 10
73.952500
 20
134.431685
 30
0.0
 10
73.952500
 20
134.431685
 30
0.0
  0
LWPOLYLINE
  5
101
100
AcDbEntity
  8
Back_Silk
 62
7
100
AcDbPolyline
 90
28
 70
1
 10
79.496300
 20
136.244685
 30
0.0
 10
80.252700
 20
136.125685
 30
0.0
 10
80.573100
 20
135.572685
 30
0.0
 10
80.564500
 20
135.141685
 30
0.0
 10
80.508900
 20
134.621685
 30
0.0
 10
80.461400
 20
134.051685
 30
0.0
 10
80.476600
 20
133.447685
 30
0.0
 10
80.638900
 20
132.847685
 30
0.0
 10
80.915600
 20
132.323685
 30
0.0
 10
81.180700
 20
131.789685
 30
0.0
 10
81.343200
 20
131.165685
 30
0.0
 10
81.346400
 20
131.131685
 30
0.0
 10
81.178700
 20
129.873685
 30
0.0
 10
80.400700
 20
129.361685
 30
0.0
 10
79.603700
 20
129.553685
 30
0.0
 10
79.176800
 20
130.349685
 30
0.0
 10
79.167700
 20
130.404685
 30
0.0
 10
79.149800
 20
130.969685
 30
0.0
 10
79.234200
 20
131.503685
 30
0.0
 10
79.316500
 20
132.092685
 30
0.0
 10
79.295800
 20
132.804685
 30
0.0
 10
79.134000
 20
133.436685
 30
0.0
 10
78.900100
 20
133.935685
 30
0.0
 10
78.668700
 20
134.383685
 30
0.0
 10
78.513200
 20
134.902685
 30
0.0
 10
78.672800
 20
135.803685
 30
0.0
 10
79.496300
 20
136.244685
 30
0.0
 10
79.496300
 20
136.244685
 30
0.0
  0
LWPOLYLINE
  5
102
100
AcDbEntity
  8
Back_Silk
 62
7
100
AcDbPolyline
 90
87
 70
0
 10
82.082800
 20
136.310685
 30
0.0
 10
82.522200
 20
136.221685
 30
0.0
 10
82.780900
 20
135.822685
 30
0.0
 10
82.878000
 20
135.533685
 30
0.0
 10
83.037700
 20
135.100685
 30
0.0
 10
83.234800
 20
134.612685
 30
0.0
 10
83.458000
 20
134.159685
 30
0.0
 10
83.679700
 20
133.825685
 30
0.0
 10
83.898200
 20
133.700685
 30
0.0
 10
84.017800
 20
133.788685
 30
0.0
 10
84.091200
 20
134.001685
 30
0.0
 10
84.127400
 20
134.241685
 30
0.0
 10
84.134800
 20
134.416685
 30
0.0
 10
84.087100
 20
134.786685
 30
0.0
 10
83.995300
 20
135.155685
 30
0.0
 10
83.902900
 20
135.509685
 30
0.0
 10
83.853400
 20
135.879685
 30
0.0
 10
84.050600
 20
136.503685
 30
0.0
 10
84.630800
 20
136.722685
 30
0.0
 10
84.904500
 20
136.664685
 30
0.0
 10
85.153200
 20
136.492685
 30
0.0
 10
85.315300
 20
136.285685
 30
0.0
 10
85.315300
 20
136.285685
 30
0.0
 10
85.315300
 20
136.285685
 30
0.0
 10
85.315300
 20
136.285685
 30
0.0
 10
85.315300
 20
136.285685
 30
0.0
 10
85.315300
 20
136.285685
 30
0.0
 10
85.315300
 20
136.285685
 30
0.0
 10
85.338600
 20
136.242685
 30
0.0
 10
85.411000
 20
135.942685
 30
0.0
 10
85.371900
 20
134.989685
 30
0.0
 10
85.337600
 20
134.433685
 30
0.0
 10
85.337600
 20
134.433685
 30
0.0
 10
85.337600
 20
134.433685
 30
0.0
 10
85.334000
 20
134.036685
 30
0.0
 10
85.345100
 20
133.810685
 30
0.0
 10
85.345100
 20
133.810685
 30
0.0
 10
85.345100
 20
133.810685
 30
0.0
 10
85.345100
 20
133.810685
 30
0.0
 10
85.345100
 20
133.810685
 30
0.0
 10
85.345100
 20
133.810685
 30
0.0
 10
85.345100
 20
133.810685
 30
0.0
 10
85.402000
 20
133.435685
 30
0.0
 10
85.541300
 20
132.848685
 30
0.0
 10
85.684600
 20
132.261685
 30
0.0
 10
85.748800
 20
131.667685
 30
0.0
 10
85.699900
 20
131.099685
 30
0.0
 10
85.539300
 20
130.649685
 30
0.0
 10
85.385600
 20
130.445685
 30
0.0
 10
85.385600
 20
130.445685
 30
0.0
 10
85.385600
 20
130.445685
 30
0.0
 10
85.256000
 20
130.343685
 30
0.0
 10
84.832300
 20
130.223685
 30
0.0
 10
84.400100
 20
130.337685
 30
0.0
 10
84.083300
 20
130.656685
 30
0.0
 10
83.882000
 20
131.112685
 30
0.0
 10
83.799300
 20
131.635685
 30
0.0
 10
83.723900
 20
132.087685
 30
0.0
 10
83.548800
 20
132.613685
 30
0.0
 10
83.320000
 20
133.051685
 30
0.0
 10
83.087700
 20
133.229685
 30
0.0
 10
83.004900
 20
133.182685
 30
0.0
 10
82.961300
 20
133.082685
 30
0.0
 10
82.943100
 20
132.962685
 30
0.0
 10
82.948300
 20
132.857685
 30
0.0
 10
83.026600
 20
132.489685
 30
0.0
 10
83.169200
 20
132.125685
 30
0.0
 10
83.317600
 20
131.725685
 30
0.0
 10
83.396500
 20
131.259685
 30
0.0
 10
83.347400
 20
130.780685
 30
0.0
 10
83.181300
 20
130.378685
 30
0.0
 10
82.898100
 20
130.103685
 30
0.0
 10
82.519600
 20
129.980685
 30
0.0
 10
82.136500
 20
130.050685
 30
0.0
 10
81.818600
 20
130.290685
 30
0.0
 10
81.589300
 20
130.655685
 30
0.0
 10
81.474900
 20
131.115685
 30
0.0
 10
81.467700
 20
131.944685
 30
0.0
 10
81.536900
 20
132.759685
 30
0.0
 10
81.617300
 20
133.582685
 30
0.0
 10
81.621800
 20
134.404685
 30
0.0
 10
81.511500
 20
135.013685
 30
0.0
 10
81.410700
 20
135.559685
 30
0.0
 10
81.583400
 20
136.095685
 30
0.0
 10
82.082600
 20
136.310685
 30
0.0
 10
82.082600
 20
136.310685
 30
0.0
 10
82.082600
 20
136.310685
 30
0.0
  0
LWPOLYLINE
  5
103
100
AcDbEntity
  8
Back_Silk
 62
7
100
AcDbPolyline
 90
43
 70
1
 10
88.105900
 20
136.291685
 30
0.0
 10
88.533000
 20
136.322685
 30
0.0
 10
89.023000
 20
136.348685
 30
0.0
 10
89.633800
 20
136.073685
 30
0.0
 10
89.796300
 20
135.428685
 30
0.0
 10
89.733400
 20
135.088685
 30
0.0
 10
89.609200
 20
134.911685
 30
0.0
 10
89.452100
 20
134.833685
 30
0.0
 10
89.296400
 20
134.790685
 30
0.0
 10
89.177100
 20
134.725685
 30
0.0
 10
89.129000
 20
134.572685
 30
0.0
 10
89.180100
 20
134.255685
 30
0.0
 10
89.299500
 20
133.802685
 30
0.0
 10
89.416200
 20
133.146685
 30
0.0
 10
89.442900
 20
132.220685
 30
0.0
 10
88.907500
 20
130.419685
 30
0.0
 10
87.504600
 20
129.846685
 30
0.0
 10
86.348500
 20
130.283685
 30
0.0
 10
85.951500
 20
131.528685
 30
0.0
 10
86.091300
 20
132.348685
 30
0.0
 10
86.469100
 20
132.663685
 30
0.0
 10
86.613200
 20
132.614685
 30
0.0
 10
86.714900
 20
132.515685
 30
0.0
 10
86.822400
 20
132.417685
 30
0.0
 10
86.989900
 20
132.373685
 30
0.0
 10
87.278800
 20
132.489685
 30
0.0
 10
87.523500
 20
132.815685
 30
0.0
 10
87.693800
 20
133.288685
 30
0.0
 10
87.763800
 20
133.847685
 30
0.0
 10
87.705400
 20
134.387685
 30
0.0
 10
87.519600
 20
134.712685
 30
0.0
 10
87.378700
 20
134.771685
 30
0.0
 10
87.193900
 20
134.787685
 30
0.0
 10
86.904100
 20
134.776685
 30
0.0
 10
86.595800
 20
134.792685
 30
0.0
 10
86.312100
 20
134.883685
 30
0.0
 10
86.089100
 20
135.121685
 30
0.0
 10
85.956900
 20
135.603685
 30
0.0
 10
86.167500
 20
136.178685
 30
0.0
 10
86.726400
 20
136.394685
 30
0.0
 10
87.379100
 20
136.346685
 30
0.0
 10
88.105900
 20
136.291685
 30
0.0
 10
88.105900
 20
136.291685
 30
0.0
  0
LWPOLYLINE
  5
104
100
AcDbEntity
  8
Back_Silk
 62
7
100
AcDbPolyline
 90
48
 70
1
 10
89.873700
 20
131.059685
 30
0.0
 10
89.988700
 20
131.530685
 30
0.0
 10
90.247400
 20
131.980685
 30
0.0
 10
90.566800
 20
132.390685
 30
0.0
 10
90.862600
 20
132.759685
 30
0.0
 10
91.170800
 20
133.308685
 30
0.0
 10
91.341800
 20
133.858685
 30
0.0
 10
91.420400
 20
134.379685
 30
0.0
 10
91.473000
 20
134.867685
 30
0.0
 10
91.540800
 20
135.290685
 30
0.0
 10
91.697500
 20
135.631685
 30
0.0
 10
91.976300
 20
135.907685
 30
0.0
 10
92.318900
 20
136.078685
 30
0.0
 10
92.694300
 20
136.162685
 30
0.0
 10
93.077200
 20
136.167685
 30
0.0
 10
93.575600
 20
136.040685
 30
0.0
 10
93.959500
 20
135.675685
 30
0.0
 10
94.080400
 20
135.326685
 30
0.0
 10
94.171200
 20
134.854685
 30
0.0
 10
94.264500
 20
134.352685
 30
0.0
 10
94.387000
 20
133.918685
 30
0.0
 10
94.620300
 20
133.438685
 30
0.0
 10
94.875800
 20
133.024685
 30
0.0
 10
95.118200
 20
132.625685
 30
0.0
 10
95.320000
 20
132.201685
 30
0.0
 10
95.435300
 20
131.716685
 30
0.0
 10
95.441500
 20
131.117685
 30
0.0
 10
95.320700
 20
130.567685
 30
0.0
 10
95.077200
 20
130.150685
 30
0.0
 10
94.715300
 20
129.901685
 30
0.0
 10
94.237100
 20
129.846685
 30
0.0
 10
93.682200
 20
130.055685
 30
0.0
 10
93.336600
 20
130.460685
 30
0.0
 10
93.132600
 20
130.963685
 30
0.0
 10
93.003400
 20
131.459685
 30
0.0
 10
92.882200
 20
131.842685
 30
0.0
 10
92.708300
 20
132.011685
 30
0.0
 10
92.654000
 20
132.008685
 30
0.0
 10
92.610100
 20
131.984685
 30
0.0
 10
92.363600
 20
131.631685
 30
0.0
 10
92.246500
 20
131.142685
 30
0.0
 10
92.163800
 20
130.622685
 30
0.0
 10
92.008300
 20
130.149685
 30
0.0
 10
91.681700
 20
129.822685
 30
0.0
 10
91.090200
 20
129.722685
 30
0.0
 10
90.166900
 20
130.091685
 30
0.0
 10
89.873700
 20
131.059685
 30
0.0
 10
89.873700
 20
131.059685
 30
0.0
  0
LWPOLYLINE
  5
105
100
AcDbEntity
  8
Back_Silk
 62
7
100
AcDbPolyline
 90
18
 70
1
 10
92.383200
 20
133.603685
 30
0.0
 10
92.413400
 20
133.418685
 30
0.0
 10
92.526000
 20
133.283685
 30
0.0
 10
92.678500
 20
133.200685
 30
0.0
 10
92.840300
 20
133.166685
 30
0.0
 10
92.999200
 20
133.174685
 30
0.0
 10
93.167800
 20
133.230685
 30
0.0
 10
93.304100
 20
133.337685
 30
0.0
 10
93.366100
 20
133.508685
 30
0.0
 10
93.339300
 20
133.714685
 30
0.0
 10
93.244700
 20
133.919685
 30
0.0
 10
93.091000
 20
134.079685
 30
0.0
 10
92.899700
 20
134.152685
 30
0.0
 10
92.700200
 20
134.111685
 30
0.0
 10
92.537300
 20
133.977685
 30
0.0
 10
92.426900
 20
133.796685
 30
0.0
 10
92.383200
 20
133.603685
 30
0.0
 10
92.383200
 20
133.603685
 30
0.0
  0
LWPOLYLINE
  5
106
100
AcDbEntity
  8
Back_Silk
 62
7
100
AcDbPolyline
 90
37
 70
1
 10
95.850900
 20
134.825685
 30
0.0
 10
95.976900
 20
135.332685
 30
0.0
 10
96.229700
 20
135.663685
 30
0.0
 10
96.573700
 20
135.833685
 30
0.0
 10
96.990400
 20
135.853685
 30
0.0
 10
97.390700
 20
135.724685
 30
0.0
 10
97.682800
 20
135.482685
 30
0.0
 10
97.843300
 20
135.143685
 30
0.0
 10
97.872500
 20
134.757685
 30
0.0
 10
97.734000
 20
134.324685
 30
0.0
 10
97.493800
 20
133.862685
 30
0.0
 10
97.249600
 20
133.350685
 30
0.0
 10
97.100900
 20
132.748685
 30
0.0
 10
97.181500
 20
132.018685
 30
0.0
 10
97.574000
 20
131.690685
 30
0.0
 10
97.912500
 20
131.778685
 30
0.0
 10
98.189600
 20
132.050685
 30
0.0
 10
98.479000
 20
132.313685
 30
0.0
 10
98.845200
 20
132.401685
 30
0.0
 10
99.291000
 20
131.980685
 30
0.0
 10
99.341400
 20
131.003685
 30
0.0
 10
98.519100
 20
129.435685
 30
0.0
 10
96.716800
 20
129.128685
 30
0.0
 10
96.106600
 20
129.276685
 30
0.0
 10
95.708500
 20
129.535685
 30
0.0
 10
95.500700
 20
129.933685
 30
0.0
 10
95.475000
 20
130.500685
 30
0.0
 10
95.482100
 20
130.570685
 30
0.0
 10
95.573400
 20
131.116685
 30
0.0
 10
95.703800
 20
131.686685
 30
0.0
 10
95.843000
 20
132.276685
 30
0.0
 10
95.938800
 20
132.849685
 30
0.0
 10
95.943500
 20
133.370685
 30
0.0
 10
95.894900
 20
133.855685
 30
0.0
 10
95.843900
 20
134.326685
 30
0.0
 10
95.850900
 20
134.825685
 30
0.0
 10
95.850900
 20
134.825685
 30
0.0
  0
LWPOLYLINE
  5
107
100
AcDbEntity
  8
Back_Silk
 62
7
100
AcDbPolyline
 90
28
 70
1
 10
101.364000
 20
135.326685
 30
0.0
 10
102.013000
 20
134.995685
 30
0.0
 10
102.168000
 20
134.372685
 30
0.0
 10
102.054000
 20
133.958685
 30
0.0
 10
101.873000
 20
133.472685
 30
0.0
 10
101.686000
 20
132.937685
 30
0.0
 10
101.547000
 20
132.350685
 30
0.0
 10
101.549000
 20
131.725685
 30
0.0
 10
101.686000
 20
131.140685
 30
0.0
 10
101.813000
 20
130.550685
 30
0.0
 10
101.820000
 20
129.902685
 30
0.0
 10
101.815000
 20
129.868685
 30
0.0
 10
101.329000
 20
128.702685
 30
0.0
 10
100.385000
 20
128.447685
 30
0.0
 10
99.608600
 20
128.893685
 30
0.0
 10
99.411300
 20
129.795685
 30
0.0
 10
99.419000
 20
129.850685
 30
0.0
 10
99.572300
 20
130.393685
 30
0.0
 10
99.814400
 20
130.872685
 30
0.0
 10
100.066000
 20
131.406685
 30
0.0
 10
100.249000
 20
132.092685
 30
0.0
 10
100.274000
 20
132.747685
 30
0.0
 10
100.198000
 20
133.298685
 30
0.0
 10
100.113000
 20
133.800685
 30
0.0
 10
100.120000
 20
134.344685
 30
0.0
 10
100.515000
 20
135.153685
 30
0.0
 10
101.364000
 20
135.326685
 30
0.0
 10
101.364000
 20
135.326685
 30
0.0
  0
LWPOLYLINE
  5
108
100
AcDbEntity
  8
Back_Silk
 62
7
100
AcDbPolyline
 90
77
 70
1
 10
102.673000
 20
133.848685
 30
0.0
 10
102.782000
 20
134.212685
 30
0.0
 10
103.006000
 20
134.555685
 30
0.0
 10
103.347000
 20
134.798685
 30
0.0
 10
103.728000
 20
134.845685
 30
0.0
 10
103.788000
 20
134.836685
 30
0.0
 10
104.327000
 20
134.520685
 30
0.0
 10
104.442000
 20
133.871685
 30
0.0
 10
104.365000
 20
133.566685
 30
0.0
 10
104.259000
 20
133.316685
 30
0.0
 10
104.164000
 20
133.092685
 30
0.0
 10
104.106000
 20
132.897685
 30
0.0
 10
104.110000
 20
132.775685
 30
0.0
 10
104.217000
 20
132.711685
 30
0.0
 10
104.469000
 20
132.798685
 30
0.0
 10
104.739000
 20
133.093685
 30
0.0
 10
105.035000
 20
133.490685
 30
0.0
 10
105.375000
 20
133.878685
 30
0.0
 10
105.765000
 20
134.148685
 30
0.0
 10
106.218000
 20
134.197685
 30
0.0
 10
106.526000
 20
134.045685
 30
0.0
 10
106.721000
 20
133.774685
 30
0.0
 10
106.811000
 20
133.418685
 30
0.0
 10
106.789000
 20
133.008685
 30
0.0
 10
106.552000
 20
132.530685
 30
0.0
 10
106.134000
 20
132.241685
 30
0.0
 10
105.629000
 20
132.077685
 30
0.0
 10
105.143000
 20
131.970685
 30
0.0
 10
104.764000
 20
131.862685
 30
0.0
 10
104.590000
 20
131.683685
 30
0.0
 10
104.696000
 20
131.412685
 30
0.0
 10
105.016000
 20
131.061685
 30
0.0
 10
105.431000
 20
130.639685
 30
0.0
 10
105.831000
 20
130.118685
 30
0.0
 10
106.093000
 20
129.503685
 30
0.0
 10
106.109000
 20
128.798685
 30
0.0
 10
105.966000
 20
128.408685
 30
0.0
 10
105.705000
 20
128.057685
 30
0.0
 10
105.331000
 20
127.830685
 30
0.0
 10
104.858000
 20
127.809685
 30
0.0
 10
104.561000
 20
127.957685
 30
0.0
 10
104.320000
 20
128.221685
 30
0.0
 10
104.164000
 20
128.559685
 30
0.0
 10
104.102000
 20
128.928685
 30
0.0
 10
104.129000
 20
129.387685
 30
0.0
 10
104.204000
 20
129.814685
 30
0.0
 10
104.269000
 20
130.179685
 30
0.0
 10
104.275000
 20
130.455685
 30
0.0
 10
104.241000
 20
130.612685
 30
0.0
 10
104.193000
 20
130.793685
 30
0.0
 10
104.104000
 20
130.953685
 30
0.0
 10
103.949000
 20
131.047685
 30
0.0
 10
103.757000
 20
130.971685
 30
0.0
 10
103.670000
 20
130.710685
 30
0.0
 10
103.692000
 20
130.307685
 30
0.0
 10
103.816000
 20
129.891685
 30
0.0
 10
103.939000
 20
129.446685
 30
0.0
 10
103.945000
 20
128.960685
 30
0.0
 10
103.791000
 20
128.563685
 30
0.0
 10
103.503000
 20
128.257685
 30
0.0
 10
103.114000
 20
128.091685
 30
0.0
 10
102.658000
 20
128.086685
 30
0.0
 10
102.607000
 20
128.097685
 30
0.0
 10
102.607000
 20
128.097685
 30
0.0
 10
102.260000
 20
128.252685
 30
0.0
 10
101.957000
 20
128.564685
 30
0.0
 10
101.782000
 20
128.972685
 30
0.0
 10
101.764000
 20
129.429685
 30
0.0
 10
101.933000
 20
129.925685
 30
0.0
 10
102.211000
 20
130.415685
 30
0.0
 10
102.501000
 20
130.930685
 30
0.0
 10
102.690000
 20
131.528685
 30
0.0
 10
102.713000
 20
132.050685
 30
0.0
 10
102.659000
 20
132.557685
 30
0.0
 10
102.620000
 20
133.126685
 30
0.0
 10
102.673000
 20
133.848685
 30
0.0
 10
102.673000
 20
133.848685
 30
0.0
  0
LWPOLYLINE
  5
109
100
AcDbEntity
  8
Back_Silk
 62
7
100
AcDbPolyline
 90
58
 70
1
 10
108.754000
 20
133.829685
 30
0.0
 10
109.528000
 20
133.605685
 30
0.0
 10
110.121000
 20
133.320685
 30
0.0
 10
110.481000
 20
132.953685
 30
0.0
 10
110.533000
 20
132.478685
 30
0.0
 10
110.354000
 20
132.091685
 30
0.0
 10
110.084000
 20
131.909685
 30
0.0
 10
109.748000
 20
131.858685
 30
0.0
 10
109.384000
 20
131.870685
 30
0.0
 10
109.026000
 20
131.880685
 30
0.0
 10
108.704000
 20
131.822685
 30
0.0
 10
108.574000
 20
131.745685
 30
0.0
 10
108.491000
 20
131.621685
 30
0.0
 10
108.501000
 20
131.489685
 30
0.0
 10
108.582000
 20
131.398685
 30
0.0
 10
108.690000
 20
131.343685
 30
0.0
 10
108.802000
 20
131.309685
 30
0.0
 10
109.138000
 20
131.240685
 30
0.0
 10
109.449000
 20
131.083685
 30
0.0
 10
109.605000
 20
130.878685
 30
0.0
 10
109.658000
 20
130.612685
 30
0.0
 10
109.512000
 20
130.412685
 30
0.0
 10
109.251000
 20
130.334685
 30
0.0
 10
108.937000
 20
130.319685
 30
0.0
 10
108.618000
 20
130.311685
 30
0.0
 10
108.364000
 20
130.257685
 30
0.0
 10
108.235000
 20
130.087685
 30
0.0
 10
108.300000
 20
129.755685
 30
0.0
 10
108.564000
 20
129.605685
 30
0.0
 10
108.845000
 20
129.564685
 30
0.0
 10
109.133000
 20
129.549685
 30
0.0
 10
109.415000
 20
129.535685
 30
0.0
 10
109.702000
 20
129.490685
 30
0.0
 10
110.050000
 20
129.306685
 30
0.0
 10
110.223000
 20
129.014685
 30
0.0
 10
110.250000
 20
128.631685
 30
0.0
 10
110.175000
 20
128.188685
 30
0.0
 10
109.745000
 20
127.349685
 30
0.0
 10
109.079000
 20
126.982685
 30
0.0
 10
108.300000
 20
126.942685
 30
0.0
 10
107.523000
 20
127.075685
 30
0.0
 10
106.907000
 20
127.292685
 30
0.0
 10
106.420000
 20
127.647685
 30
0.0
 10
106.139000
 20
128.176685
 30
0.0
 10
106.136000
 20
128.907685
 30
0.0
 10
106.327000
 20
129.416685
 30
0.0
 10
106.606000
 20
129.841685
 30
0.0
 10
106.893000
 20
130.264685
 30
0.0
 10
107.093000
 20
130.799685
 30
0.0
 10
107.158000
 20
131.437685
 30
0.0
 10
107.140000
 20
131.978685
 30
0.0
 10
107.108000
 20
132.480685
 30
0.0
 10
107.153000
 20
132.999685
 30
0.0
 10
107.373000
 20
133.502685
 30
0.0
 10
107.760000
 20
133.787685
 30
0.0
 10
108.240000
 20
133.885685
 30
0.0
 10
108.754000
 20
133.829685
 30
0.0
 10
108.754000
 20
133.829685
 30
0.0
  0
LWPOLYLINE
  5
10a
100
AcDbEntity
  8
Back_Silk
 62
7
100
AcDbPolyline
 90
52
 70
0
 10
113.559000
 20
132.426685
 30
0.0
 10
113.912000
 20
132.305685
 30
0.0
 10
114.320000
 20
132.121685
 30
0.0
 10
114.713000
 20
131.880685
 30
0.0
 10
115.032000
 20
131.573685
 30
0.0
 10
115.207000
 20
131.201685
 30
0.0
 10
115.193000
 20
130.767685
 30
0.0
 10
114.937000
 20
130.308685
 30
0.0
 10
114.478000
 20
130.281685
 30
0.0
 10
114.225000
 20
130.413685
 30
0.0
 10
114.008000
 20
130.605685
 30
0.0
 10
113.794000
 20
130.788685
 30
0.0
 10
113.541000
 20
130.924685
 30
0.0
 10
113.268000
 20
130.912685
 30
0.0
 10
113.100000
 20
130.715685
 30
0.0
 10
113.208000
 20
130.421685
 30
0.0
 10
113.579000
 20
130.045685
 30
0.0
 10
114.069000
 20
129.600685
 30
0.0
 10
114.528000
 20
129.065685
 30
0.0
 10
114.815000
 20
128.436685
 30
0.0
 10
114.792000
 20
127.717685
 30
0.0
 10
114.312000
 20
126.725685
 30
0.0
 10
113.616000
 20
126.148685
 30
0.0
 10
112.739000
 20
125.952685
 30
0.0
 10
111.708000
 20
126.104685
 30
0.0
 10
111.071000
 20
126.449685
 30
0.0
 10
110.592000
 20
127.033685
 30
0.0
 10
110.336000
 20
127.784685
 30
0.0
 10
110.374000
 20
128.634685
 30
0.0
 10
110.509000
 20
128.995685
 30
0.0
 10
110.734000
 20
129.310685
 30
0.0
 10
111.030000
 20
129.504685
 30
0.0
 10
111.377000
 20
129.516685
 30
0.0
 10
111.688000
 20
129.334685
 30
0.0
 10
111.962000
 20
129.059685
 30
0.0
 10
112.233000
 20
128.777685
 30
0.0
 10
112.559000
 20
128.593685
 30
0.0
 10
112.873000
 20
128.695685
 30
0.0
 10
112.786000
 20
128.976685
 30
0.0
 10
112.462000
 20
129.320685
 30
0.0
 10
112.034000
 20
129.735685
 30
0.0
 10
111.622000
 20
130.230685
 30
0.0
 10
111.358000
 20
130.825685
 30
0.0
 10
111.364000
 20
131.532685
 30
0.0
 10
111.548000
 20
131.923685
 30
0.0
 10
111.869000
 20
132.211685
 30
0.0
 10
112.284000
 20
132.399685
 30
0.0
 10
112.734000
 20
132.487685
 30
0.0
 10
113.171000
 20
132.491685
 30
0.0
 10
113.558000
 20
132.426685
 30
0.0
 10
113.558000
 20
132.426685
 30
0.0
 10
113.558000
 20
132.426685
 30
0.0
  0
LWPOLYLINE
  5
10b
100
AcDbEntity
  8
Back_Silk
 62
7
100
AcDbPolyline
 90
38
 70
1
 10
115.177000
 20
128.226685
 30
0.0
 10
115.457000
 20
129.013685
 30
0.0
 10
115.842000
 20
129.756685
 30
0.0
 10
116.328000
 20
130.390685
 30
0.0
 10
116.922000
 20
130.845685
 30
0.0
 10
117.617000
 20
131.046685
 30
0.0
 10
118.420000
 20
130.919685
 30
0.0
 10
118.820000
 20
130.707685
 30
0.0
 10
119.222000
 20
130.365685
 30
0.0
 10
119.485000
 20
129.925685
 30
0.0
 10
119.485000
 20
129.431685
 30
0.0
 10
119.300000
 20
129.191685
 30
0.0
 10
119.011000
 20
129.127685
 30
0.0
 10
118.647000
 20
129.166685
 30
0.0
 10
118.251000
 20
129.245685
 30
0.0
 10
117.837000
 20
129.283685
 30
0.0
 10
117.447000
 20
129.214685
 30
0.0
 10
117.107000
 20
128.969685
 30
0.0
 10
116.853000
 20
128.484685
 30
0.0
 10
116.783000
 20
128.184685
 30
0.0
 10
116.792000
 20
127.915685
 30
0.0
 10
116.900000
 20
127.697685
 30
0.0
 10
117.126000
 20
127.547685
 30
0.0
 10
117.443000
 20
127.479685
 30
0.0
 10
117.782000
 20
127.476685
 30
0.0
 10
118.113000
 20
127.466685
 30
0.0
 10
118.444000
 20
127.396685
 30
0.0
 10
118.734000
 20
127.190685
 30
0.0
 10
118.848000
 20
126.912685
 30
0.0
 10
118.818000
 20
126.579685
 30
0.0
 10
118.706000
 20
126.197685
 30
0.0
 10
117.710000
 20
124.789685
 30
0.0
 10
116.232000
 20
124.707685
 30
0.0
 10
115.376000
 20
125.263685
 30
0.0
 10
114.974000
 20
126.068685
 30
0.0
 10
114.932000
 20
127.075685
 30
0.0
 10
115.177000
 20
128.226685
 30
0.0
 10
115.177000
 20
128.226685
 30
0.0
  0
LWPOLYLINE
  5
10c
100
AcDbEntity
  8
Back_Silk
 62
7
100
AcDbPolyline
 90
75
 70
0
 10
121.373000
 20
125.240685
 30
0.0
 10
121.249000
 20
125.839685
 30
0.0
 10
121.249000
 20
125.839685
 30
0.0
 10
121.207000
 20
125.860685
 30
0.0
 10
120.845000
 20
125.873685
 30
0.0
 10
120.594000
 20
125.553685
 30
0.0
 10
120.509000
 20
125.226685
 30
0.0
 10
120.479000
 20
124.874685
 30
0.0
 10
120.448000
 20
124.523685
 30
0.0
 10
120.361000
 20
124.182685
 30
0.0
 10
120.153000
 20
123.758685
 30
0.0
 10
119.858000
 20
123.398685
 30
0.0
 10
119.473000
 20
123.214685
 30
0.0
 10
118.975000
 20
123.290685
 30
0.0
 10
118.557000
 20
123.621685
 30
0.0
 10
118.377000
 20
124.089685
 30
0.0
 10
118.366000
 20
124.619685
 30
0.0
 10
118.485000
 20
125.133685
 30
0.0
 10
118.501000
 20
125.179685
 30
0.0
 10
118.731000
 20
125.602685
 30
0.0
 10
119.056000
 20
126.000685
 30
0.0
 10
119.390000
 20
126.432685
 30
0.0
 10
119.661000
 20
126.935685
 30
0.0
 10
119.783000
 20
127.440685
 30
0.0
 10
119.834000
 20
127.968685
 30
0.0
 10
119.882000
 20
128.497685
 30
0.0
 10
120.008000
 20
129.023685
 30
0.0
 10
120.181000
 20
129.386685
 30
0.0
 10
120.428000
 20
129.615685
 30
0.0
 10
120.763000
 20
129.692685
 30
0.0
 10
121.223000
 20
129.571685
 30
0.0
 10
121.528000
 20
129.295685
 30
0.0
 10
121.594000
 20
128.902685
 30
0.0
 10
121.487000
 20
128.525685
 30
0.0
 10
121.333000
 20
128.131685
 30
0.0
 10
121.181000
 20
127.743685
 30
0.0
 10
121.094000
 20
127.387685
 30
0.0
 10
121.144000
 20
127.091685
 30
0.0
 10
121.382000
 20
126.885685
 30
0.0
 10
121.655000
 20
126.840685
 30
0.0
 10
121.655000
 20
126.840685
 30
0.0
 10
121.742000
 20
126.865685
 30
0.0
 10
121.997000
 20
127.144685
 30
0.0
 10
122.056000
 20
127.354685
 30
0.0
 10
122.099000
 20
127.609685
 30
0.0
 10
122.161000
 20
127.893685
 30
0.0
 10
122.263000
 20
128.212685
 30
0.0
 10
122.694000
 20
128.793685
 30
0.0
 10
123.270000
 20
128.798685
 30
0.0
 10
123.743000
 20
128.223685
 30
0.0
 10
123.579000
 20
127.300685
 30
0.0
 10
123.428000
 20
127.004685
 30
0.0
 10
123.246000
 20
126.684685
 30
0.0
 10
123.065000
 20
126.364685
 30
0.0
 10
122.923000
 20
126.071685
 30
0.0
 10
122.784000
 20
125.599685
 30
0.0
 10
122.720000
 20
125.135685
 30
0.0
 10
122.685000
 20
124.711685
 30
0.0
 10
122.663000
 20
124.248685
 30
0.0
 10
122.606000
 20
123.773685
 30
0.0
 10
122.455000
 20
123.297685
 30
0.0
 10
122.160000
 20
122.803685
 30
0.0
 10
121.797000
 20
122.459685
 30
0.0
 10
121.383000
 20
122.299685
 30
0.0
 10
120.932000
 20
122.389685
 30
0.0
 10
120.564000
 20
122.679685
 30
0.0
 10
120.415000
 20
123.041685
 30
0.0
 10
120.436000
 20
123.460685
 30
0.0
 10
120.572000
 20
123.886685
 30
0.0
 10
120.590000
 20
123.931685
 30
0.0
 10
120.775000
 20
124.288685
 30
0.0
 10
120.992000
 20
124.615685
 30
0.0
 10
121.205000
 20
124.929685
 30
0.0
 10
121.373000
 20
125.241685
 30
0.0
 10
121.373000
 20
125.241685
 30
0.0
  0
LWPOLYLINE
  5
10d
100
AcDbEntity
  8
Back_Silk
 62
7
100
AcDbPolyline
 90
1
 70
1
 10
121.373000
 20
125.240685
 30
0.0
  0
LWPOLYLINE
  5
10e
100
AcDbEntity
  8
Back_Silk
 62
7
100
AcDbPolyline
 90
58
 70
1
 10
126.197000
 20
127.333685
 30
0.0
 10
126.920000
 20
126.871685
 30
0.0
 10
127.442000
 20
126.399685
 30
0.0
 10
127.705000
 20
125.924685
 30
0.0
 10
127.628000
 20
125.450685
 30
0.0
 10
127.346000
 20
125.141685
 30
0.0
 10
127.030000
 20
125.057685
 30
0.0
 10
126.688000
 20
125.117685
 30
0.0
 10
126.333000
 20
125.246685
 30
0.0
 10
125.984000
 20
125.366685
 30
0.0
 10
125.654000
 20
125.408685
 30
0.0
 10
125.508000
 20
125.373685
 30
0.0
 10
125.396000
 20
125.279685
 30
0.0
 10
125.372000
 20
125.149685
 30
0.0
 10
125.428000
 20
125.037685
 30
0.0
 10
125.519000
 20
124.952685
 30
0.0
 10
125.619000
 20
124.885685
 30
0.0
 10
125.929000
 20
124.717685
 30
0.0
 10
126.190000
 20
124.470685
 30
0.0
 10
126.285000
 20
124.224685
 30
0.0
 10
126.264000
 20
123.953685
 30
0.0
 10
126.070000
 20
123.807685
 30
0.0
 10
125.799000
 20
123.813685
 30
0.0
 10
125.493000
 20
123.893685
 30
0.0
 10
125.185000
 20
123.980685
 30
0.0
 10
124.928000
 20
124.003685
 30
0.0
 10
124.760000
 20
123.876685
 30
0.0
 10
124.738000
 20
123.539685
 30
0.0
 10
124.950000
 20
123.319685
 30
0.0
 10
125.206000
 20
123.198685
 30
0.0
 10
125.474000
 20
123.099685
 30
0.0
 10
125.737000
 20
123.000685
 30
0.0
 10
125.996000
 20
122.869685
 30
0.0
 10
126.271000
 20
122.584685
 30
0.0
 10
126.349000
 20
122.249685
 30
0.0
 10
126.260000
 20
121.879685
 30
0.0
 10
126.059000
 20
121.489685
 30
0.0
 10
125.416000
 20
120.829685
 30
0.0
 10
124.705000
 20
120.669685
 30
0.0
 10
123.987000
 20
120.849685
 30
0.0
 10
123.314000
 20
121.179685
 30
0.0
 10
122.804000
 20
121.549685
 30
0.0
 10
122.440000
 20
122.009685
 30
0.0
 10
122.304000
 20
122.588685
 30
0.0
 10
122.474000
 20
123.295685
 30
0.0
 10
122.774000
 20
123.740685
 30
0.0
 10
123.141000
 20
124.080685
 30
0.0
 10
123.516000
 20
124.414685
 30
0.0
 10
123.835000
 20
124.879685
 30
0.0
 10
124.048000
 20
125.478685
 30
0.0
 10
124.157000
 20
126.008685
 30
0.0
 10
124.240000
 20
126.503685
 30
0.0
 10
124.404000
 20
126.996685
 30
0.0
 10
124.737000
 20
127.423685
 30
0.0
 10
125.190000
 20
127.589685
 30
0.0
 10
125.694000
 20
127.543685
 30
0.0
 10
126.197000
 20
127.333685
 30
0.0
 10
126.197000
 20
127.333685
 30
0.0
  0
LWPOLYLINE
  5
10f
100
AcDbEntity
  8
Back_Silk
 62
7
100
AcDbPolyline
 90
18
 70
0
 10
130.092000
 20
124.782685
 30
0.0
 10
130.301000
 20
124.619685
 30
0.0
 10
130.777000
 20
124.211685
 30
0.0
 10
131.255000
 20
123.650685
 30
0.0
 10
131.464000
 20
123.124685
 30
0.0
 10
131.324000
 20
122.662685
 30
0.0
 10
130.997000
 20
122.409685
 30
0.0
 10
130.666000
 20
122.379685
 30
0.0
 10
130.328000
 20
122.499685
 30
0.0
 10
129.987000
 20
122.682685
 30
0.0
 10
129.650000
 20
122.856685
 30
0.0
 10
129.323000
 20
122.947685
 30
0.0
 10
129.172000
 20
122.933685
 30
0.0
 10
129.146000
 20
122.927685
 30
0.0
 10
129.146000
 20
122.927685
 30
0.0
 10
129.049000
 20
122.855685
 30
0.0
 10
129.010000
 20
122.730685
 30
0.0
 10
129.010000
 20
122.730685
 30
0.0
  0
LWPOLYLINE
  5
110
100
AcDbEntity
  8
Back_Silk
 62
7
100
AcDbPolyline
 90
46
 70
0
 10
129.010000
 20
122.727685
 30
0.0
 10
129.052000
 20
122.611685
 30
0.0
 10
129.133000
 20
122.509685
 30
0.0
 10
129.225000
 20
122.429685
 30
0.0
 10
129.515000
 20
122.219685
 30
0.0
 10
129.744000
 20
121.929685
 30
0.0
 10
129.807000
 20
121.669685
 30
0.0
 10
129.749000
 20
121.409685
 30
0.0
 10
129.535000
 20
121.289685
 30
0.0
 10
129.266000
 20
121.339685
 30
0.0
 10
128.973000
 20
121.469685
 30
0.0
 10
128.679000
 20
121.599685
 30
0.0
 10
128.427000
 20
121.659685
 30
0.0
 10
128.245000
 20
121.559685
 30
0.0
 10
128.180000
 20
121.219685
 30
0.0
 10
128.360000
 20
120.979685
 30
0.0
 10
128.596000
 20
120.819685
 30
0.0
 10
128.847000
 20
120.679685
 30
0.0
 10
129.092000
 20
120.539685
 30
0.0
 10
129.328000
 20
120.369685
 30
0.0
 10
129.556000
 20
120.049685
 30
0.0
 10
129.580000
 20
119.709685
 30
0.0
 10
129.433000
 20
119.359685
 30
0.0
 10
129.172000
 20
118.999685
 30
0.0
 10
128.439000
 20
118.459685
 30
0.0
 10
127.732000
 20
118.409685
 30
0.0
 10
127.074000
 20
118.669685
 30
0.0
 10
126.510000
 20
119.059685
 30
0.0
 10
126.478000
 20
119.089685
 30
0.0
 10
126.036000
 20
119.509685
 30
0.0
 10
125.744000
 20
119.999685
 30
0.0
 10
125.682000
 20
120.589685
 30
0.0
 10
125.929000
 20
121.269685
 30
0.0
 10
126.274000
 20
121.669685
 30
0.0
 10
126.672000
 20
121.969685
 30
0.0
 10
127.080000
 20
122.249685
 30
0.0
 10
127.448000
 20
122.672685
 30
0.0
 10
127.727000
 20
123.239685
 30
0.0
 10
127.893000
 20
123.751685
 30
0.0
 10
128.028000
 20
124.233685
 30
0.0
 10
128.243000
 20
124.702685
 30
0.0
 10
128.622000
 20
125.082685
 30
0.0
 10
129.098000
 20
125.185685
 30
0.0
 10
129.604000
 20
125.067685
 30
0.0
 10
130.091000
 20
124.782685
 30
0.0
 10
130.091000
 20
124.782685
 30
0.0
  0
LWPOLYLINE
  5
111
100
AcDbEntity
  8
Back_Silk
 62
7
100
AcDbPolyline
 90
1
 70
1
 10
130.092000
 20
124.782685
 30
0.0
  0
LWPOLYLINE
  5
112
100
AcDbEntity
  8
Back_Silk
 62
7
100
AcDbPolyline
 90
56
 70
1
 10
129.876000
 20
116.659685
 30
0.0
 10
129.657000
 20
116.959685
 30
0.0
 10
129.440000
 20
117.319685
 30
0.0
 10
129.248000
 20
117.699685
 30
0.0
 10
129.112000
 20
118.079685
 30
0.0
 10
129.089000
 20
118.539685
 30
0.0
 10
129.333000
 20
118.969685
 30
0.0
 10
129.868000
 20
119.399685
 30
0.0
 10
130.510000
 20
119.629685
 30
0.0
 10
131.191000
 20
119.719685
 30
0.0
 10
131.863000
 20
119.749685
 30
0.0
 10
132.446000
 20
119.819685
 30
0.0
 10
132.891000
 20
120.029685
 30
0.0
 10
132.982000
 20
120.179685
 30
0.0
 10
132.922000
 20
120.339685
 30
0.0
 10
132.714000
 20
120.489685
 30
0.0
 10
132.471000
 20
120.579685
 30
0.0
 10
132.229000
 20
120.649685
 30
0.0
 10
132.029000
 20
120.789685
 30
0.0
 10
131.901000
 20
121.029685
 30
0.0
 10
131.900000
 20
121.309685
 30
0.0
 10
131.990000
 20
121.579685
 30
0.0
 10
132.141000
 20
121.799685
 30
0.0
 10
132.542000
 20
121.999685
 30
0.0
 10
132.984000
 20
121.869685
 30
0.0
 10
133.419000
 20
121.539685
 30
0.0
 10
133.780000
 20
121.149685
 30
0.0
 10
134.053000
 20
120.819685
 30
0.0
 10
134.403000
 20
120.359685
 30
0.0
 10
134.727000
 20
119.809685
 30
0.0
 10
134.942000
 20
119.249685
 30
0.0
 10
134.953000
 20
118.729685
 30
0.0
 10
134.690000
 20
118.359685
 30
0.0
 10
134.270000
 20
118.209685
 30
0.0
 10
133.791000
 20
118.219685
 30
0.0
 10
133.280000
 20
118.299685
 30
0.0
 10
132.752000
 20
118.399685
 30
0.0
 10
132.249000
 20
118.459685
 30
0.0
 10
131.799000
 20
118.429685
 30
0.0
 10
131.730000
 20
118.409685
 30
0.0
 10
131.668000
 20
118.379685
 30
0.0
 10
131.652000
 20
118.319685
 30
0.0
 10
131.681000
 20
118.269685
 30
0.0
 10
131.917000
 20
118.089685
 30
0.0
 10
132.232000
 20
117.929685
 30
0.0
 10
132.547000
 20
117.769685
 30
0.0
 10
132.765000
 20
117.569685
 30
0.0
 10
132.809000
 20
117.189685
 30
0.0
 10
132.600000
 20
116.759685
 30
0.0
 10
132.264000
 20
116.379685
 30
0.0
 10
131.947000
 20
116.129685
 30
0.0
 10
131.259000
 20
115.869685
 30
0.0
 10
130.711000
 20
115.949685
 30
0.0
 10
130.255000
 20
116.239685
 30
0.0
 10
129.876000
 20
116.659685
 30
0.0
 10
129.876000
 20
116.659685
 30
0.0
  0
LWPOLYLINE
  5
113
100
AcDbEntity
  8
Back_Silk
 62
7
100
AcDbPolyline
 90
24
 70
1
 10
61.261600
 20
59.729685
 30
0.0
 10
60.994200
 20
60.889685
 30
0.0
 10
61.244700
 20
62.049685
 30
0.0
 10
61.907600
 20
63.089685
 30
0.0
 10
62.848300
 20
63.899685
 30
0.0
 10
63.835200
 20
64.349685
 30
0.0
 10
64.787700
 20
64.449685
 30
0.0
 10
65.610700
 20
64.199685
 30
0.0
 10
66.197600
 20
63.549685
 30
0.0
 10
66.354400
 20
63.119685
 30
0.0
 10
66.388700
 20
62.649685
 30
0.0
 10
66.248700
 20
62.189685
 30
0.0
 10
65.871700
 20
61.769685
 30
0.0
 10
65.512000
 20
61.549685
 30
0.0
 10
65.113500
 20
61.339685
 30
0.0
 10
64.706700
 20
61.139685
 30
0.0
 10
64.340800
 20
60.909685
 30
0.0
 10
63.946900
 20
60.579685
 30
0.0
 10
63.582500
 20
60.199685
 30
0.0
 10
63.213900
 20
59.819685
 30
0.0
 10
62.816500
 20
59.479685
 30
0.0
 10
61.926100
 20
59.159685
 30
0.0
 10
61.261600
 20
59.729685
 30
0.0
 10
61.261600
 20
59.729685
 30
0.0
  0
LWPOLYLINE
  5
114
100
AcDbEntity
  8
Back_Silk
 62
7
100
AcDbPolyline
 90
18
 70
1
 10
62.354100
 20
61.189685
 30
0.0
 10
62.512300
 20
61.059685
 30
0.0
 10
62.728400
 20
61.079685
 30
0.0
 10
62.962700
 20
61.189685
 30
0.0
 10
63.158100
 20
61.319685
 30
0.0
 10
63.351000
 20
61.449685
 30
0.0
 10
63.575500
 20
61.649685
 30
0.0
 10
63.730700
 20
61.869685
 30
0.0
 10
63.731500
 20
62.089685
 30
0.0
 10
63.569300
 20
62.259685
 30
0.0
 10
63.319800
 20
62.319685
 30
0.0
 10
63.036800
 20
62.289685
 30
0.0
 10
62.741000
 20
62.149685
 30
0.0
 10
62.545300
 20
61.959685
 30
0.0
 10
62.390600
 20
61.709685
 30
0.0
 10
62.314500
 20
61.439685
 30
0.0
 10
62.354200
 20
61.189685
 30
0.0
 10
62.354200
 20
61.189685
 30
0.0
  0
LWPOLYLINE
  5
115
100
AcDbEntity
  8
Back_Silk
 62
7
100
AcDbPolyline
 90
20
 70
1
 10
59.130000
 20
64.279685
 30
0.0
 10
59.006700
 20
64.899685
 30
0.0
 10
59.105300
 20
65.549685
 30
0.0
 10
59.401800
 20
66.189685
 30
0.0
 10
59.847600
 20
66.779685
 30
0.0
 10
60.402600
 20
67.299685
 30
0.0
 10
61.020000
 20
67.709685
 30
0.0
 10
61.983000
 20
68.069685
 30
0.0
 10
62.898200
 20
68.109685
 30
0.0
 10
63.664700
 20
67.799685
 30
0.0
 10
64.197700
 20
67.099685
 30
0.0
 10
64.340100
 20
66.319685
 30
0.0
 10
64.128300
 20
65.519685
 30
0.0
 10
63.605500
 20
64.769685
 30
0.0
 10
62.798800
 20
64.109685
 30
0.0
 10
61.677200
 20
63.579685
 30
0.0
 10
60.603900
 20
63.419685
 30
0.0
 10
59.705900
 20
63.639685
 30
0.0
 10
59.130000
 20
64.279685
 30
0.0
 10
59.130000
 20
64.279685
 30
0.0
  0
LWPOLYLINE
  5
116
100
AcDbEntity
  8
Back_Silk
 62
7
100
AcDbPolyline
 90
14
 70
1
 10
61.566300
 20
65.029685
 30
0.0
 10
61.841100
 20
65.379685
 30
0.0
 10
61.804300
 20
65.859685
 30
0.0
 10
61.538800
 20
66.129685
 30
0.0
 10
61.151700
 20
66.059685
 30
0.0
 10
60.957200
 20
65.899685
 30
0.0
 10
60.833000
 20
65.699685
 30
0.0
 10
60.788300
 20
65.469685
 30
0.0
 10
60.830600
 20
65.239685
 30
0.0
 10
60.962400
 20
65.069685
 30
0.0
 10
61.143600
 20
64.969685
 30
0.0
 10
61.348200
 20
64.949685
 30
0.0
 10
61.566300
 20
65.029685
 30
0.0
 10
61.566300
 20
65.029685
 30
0.0
  0
LWPOLYLINE
  5
117
100
AcDbEntity
  8
Back_Silk
 62
7
100
AcDbPolyline
 90
66
 70
1
 10
58.009600
 20
67.359685
 30
0.0
 10
57.962000
 20
67.769685
 30
0.0
 10
58.211600
 20
68.149685
 30
0.0
 10
58.417500
 20
68.339685
 30
0.0
 10
58.721700
 20
68.639685
 30
0.0
 10
59.058500
 20
68.989685
 30
0.0
 10
59.358300
 20
69.359685
 30
0.0
 10
59.562300
 20
69.679685
 30
0.0
 10
59.598100
 20
69.919685
 30
0.0
 10
59.491500
 20
69.989685
 30
0.0
 10
59.298500
 20
69.969685
 30
0.0
 10
59.095100
 20
69.919685
 30
0.0
 10
58.951800
 20
69.859685
 30
0.0
 10
58.668400
 20
69.669685
 30
0.0
 10
58.399200
 20
69.449685
 30
0.0
 10
58.141400
 20
69.239685
 30
0.0
 10
57.858400
 20
69.059685
 30
0.0
 10
57.299100
 20
68.989685
 30
0.0
 10
56.951300
 20
69.409685
 30
0.0
 10
56.915400
 20
69.669685
 30
0.0
 10
56.977600
 20
69.949685
 30
0.0
 10
57.121600
 20
70.209685
 30
0.0
 10
57.340600
 20
70.389685
 30
0.0
 10
58.117400
 20
70.719685
 30
0.0
 10
58.894000
 20
71.049685
 30
0.0
 10
59.355900
 20
71.339685
 30
0.0
 10
59.783800
 20
71.689685
 30
0.0
 10
60.210300
 20
72.049685
 30
0.0
 10
60.667400
 20
72.329685
 30
0.0
 10
61.138200
 20
72.509685
 30
0.0
 10
61.549300
 20
72.539685
 30
0.0
 10
61.882400
 20
72.399685
 30
0.0
 10
62.110200
 20
72.069685
 30
0.0
 10
62.151000
 20
71.639685
 30
0.0
 10
61.991100
 20
71.229685
 30
0.0
 10
61.685700
 20
70.879685
 30
0.0
 10
61.289900
 20
70.609685
 30
0.0
 10
60.947900
 20
70.369685
 30
0.0
 10
60.576800
 20
70.019685
 30
0.0
 10
60.291000
 20
69.649685
 30
0.0
 10
60.215600
 20
69.379685
 30
0.0
 10
60.277200
 20
69.319685
 30
0.0
 10
60.371000
 20
69.319685
 30
0.0
 10
60.473400
 20
69.349685
 30
0.0
 10
60.556600
 20
69.389685
 30
0.0
 10
60.830400
 20
69.599685
 30
0.0
 10
61.082400
 20
69.859685
 30
0.0
 10
61.360600
 20
70.149685
 30
0.0
 10
61.713000
 20
70.389685
 30
0.0
 10
62.114200
 20
70.519685
 30
0.0
 10
62.487800
 20
70.519685
 30
0.0
 10
62.795200
 20
70.369685
 30
0.0
 10
63.007000
 20
70.059685
 30
0.0
 10
63.063000
 20
69.679685
 30
0.0
 10
62.959900
 20
69.299685
 30
0.0
 10
62.728000
 20
68.959685
 30
0.0
 10
62.385800
 20
68.689685
 30
0.0
 10
61.713800
 20
68.389685
 30
0.0
 10
61.032900
 20
68.159685
 30
0.0
 10
60.343600
 20
67.939685
 30
0.0
 10
59.675400
 20
67.649685
 30
0.0
 10
59.211500
 20
67.339685
 30
0.0
 10
58.795300
 20
67.049685
 30
0.0
 10
58.316500
 20
67.009685
 30
0.0
 10
58.009600
 20
67.359685
 30
0.0
 10
58.009600
 20
67.359685
 30
0.0
  0
LWPOLYLINE
  5
118
100
AcDbEntity
  8
Back_Silk
 62
7
100
AcDbPolyline
 90
66
 70
0
 10
56.489300
 20
71.459685
 30
0.0
 10
56.456200
 20
71.869685
 30
0.0
 10
56.718100
 20
72.229685
 30
0.0
 10
56.930100
 20
72.419685
 30
0.0
 10
57.243900
 20
72.699685
 30
0.0
 10
57.592100
 20
73.039685
 30
0.0
 10
57.903500
 20
73.389685
 30
0.0
 10
58.117900
 20
73.709685
 30
0.0
 10
58.161400
 20
73.939685
 30
0.0
 10
58.057200
 20
74.019685
 30
0.0
 10
57.863900
 20
74.009685
 30
0.0
 10
57.658800
 20
73.959685
 30
0.0
 10
57.513700
 20
73.909685
 30
0.0
 10
57.224700
 20
73.739685
 30
0.0
 10
56.948600
 20
73.529685
 30
0.0
 10
56.684100
 20
73.329685
 30
0.0
 10
56.395400
 20
73.159685
 30
0.0
 10
55.834500
 20
73.119685
 30
0.0
 10
55.500300
 20
73.549685
 30
0.0
 10
55.472600
 20
73.809685
 30
0.0
 10
55.543700
 20
74.089685
 30
0.0
 10
55.695900
 20
74.339685
 30
0.0
 10
55.920500
 20
74.509685
 30
0.0
 10
56.707900
 20
74.809685
 30
0.0
 10
57.495000
 20
75.109685
 30
0.0
 10
57.966300
 20
75.379685
 30
0.0
 10
58.405500
 20
75.709685
 30
0.0
 10
58.843600
 20
76.039685
 30
0.0
 10
59.310200
 20
76.299685
 30
0.0
 10
59.786400
 20
76.459685
 30
0.0
 10
60.198000
 20
76.469685
 30
0.0
 10
60.525800
 20
76.319685
 30
0.0
 10
60.741700
 20
75.979685
 30
0.0
 10
60.767900
 20
75.549685
 30
0.0
 10
60.594700
 20
75.149685
 30
0.0
 10
60.278100
 20
74.809685
 30
0.0
 10
59.873900
 20
74.559685
 30
0.0
 10
59.524500
 20
74.339685
 30
0.0
 10
59.142200
 20
73.999685
 30
0.0
 10
58.844800
 20
73.649685
 30
0.0
 10
58.760500
 20
73.379685
 30
0.0
 10
58.820100
 20
73.319685
 30
0.0
 10
58.913800
 20
73.309685
 30
0.0
 10
59.017000
 20
73.339685
 30
0.0
 10
59.101500
 20
73.379685
 30
0.0
 10
59.381800
 20
73.569685
 30
0.0
 10
59.642100
 20
73.819685
 30
0.0
 10
59.929300
 20
74.089685
 30
0.0
 10
60.289200
 20
74.319685
 30
0.0
 10
60.694400
 20
74.439685
 30
0.0
 10
61.067600
 20
74.419685
 30
0.0
 10
61.369600
 20
74.239685
 30
0.0
 10
61.571500
 20
73.929685
 30
0.0
 10
61.615100
 20
73.549685
 30
0.0
 10
61.595100
 20
73.429685
 30
0.0
 10
61.500100
 20
73.169685
 30
0.0
 10
61.257100
 20
72.839685
 30
0.0
 10
60.906000
 20
72.579685
 30
0.0
 10
60.223900
 20
72.319685
 30
0.0
 10
59.535600
 20
72.129685
 30
0.0
 10
58.839400
 20
71.939685
 30
0.0
 10
58.162000
 20
71.679685
 30
0.0
 10
57.687500
 20
71.379685
 30
0.0
 10
57.261700
 20
71.119685
 30
0.0
 10
56.782900
 20
71.099685
 30
0.0
 10
56.782900
 20
71.099685
 30
0.0
  0
LWPOLYLINE
  5
119
100
AcDbEntity
  8
Back_Silk
 62
7
100
AcDbPolyline
 90
4
 70
0
 10
56.778000
 20
71.099685
 30
0.0
 10
56.489300
 20
71.459685
 30
0.0
 10
56.489300
 20
71.459685
 30
0.0
 10
56.489300
 20
71.459685
 30
0.0
  0
LWPOLYLINE
  5
11a
100
AcDbEntity
  8
Back_Silk
 62
7
100
AcDbPolyline
 90
50
 70
1
 10
56.219800
 20
76.879685
 30
0.0
 10
56.094900
 20
76.909685
 30
0.0
 10
55.803800
 20
76.869685
 30
0.0
 10
55.427300
 20
76.809685
 30
0.0
 10
55.040600
 20
76.789685
 30
0.0
 10
54.715500
 20
76.869685
 30
0.0
 10
54.526200
 20
77.089685
 30
0.0
 10
54.490800
 20
77.389685
 30
0.0
 10
54.563900
 20
77.689685
 30
0.0
 10
54.745300
 20
77.949685
 30
0.0
 10
55.044200
 20
78.129685
 30
0.0
 10
55.410700
 20
78.189685
 30
0.0
 10
55.781400
 20
78.149685
 30
0.0
 10
56.168200
 20
78.059685
 30
0.0
 10
56.566400
 20
77.969685
 30
0.0
 10
56.978500
 20
77.949685
 30
0.0
 10
57.394100
 20
78.049685
 30
0.0
 10
57.754600
 20
78.279685
 30
0.0
 10
58.063700
 20
78.609685
 30
0.0
 10
58.366300
 20
78.929685
 30
0.0
 10
58.716500
 20
79.159685
 30
0.0
 10
59.122600
 20
79.219685
 30
0.0
 10
59.450000
 20
79.089685
 30
0.0
 10
59.695200
 20
78.829685
 30
0.0
 10
59.849100
 20
78.489685
 30
0.0
 10
59.909400
 20
78.119685
 30
0.0
 10
59.877900
 20
77.719685
 30
0.0
 10
59.691700
 20
77.349685
 30
0.0
 10
59.312400
 20
77.069685
 30
0.0
 10
58.979200
 20
77.019685
 30
0.0
 10
58.558600
 20
77.039685
 30
0.0
 10
58.132200
 20
77.059685
 30
0.0
 10
57.769800
 20
76.999685
 30
0.0
 10
57.423400
 20
76.759685
 30
0.0
 10
57.139200
 20
76.409685
 30
0.0
 10
56.892000
 20
75.999685
 30
0.0
 10
56.657400
 20
75.589685
 30
0.0
 10
56.404800
 20
75.249685
 30
0.0
 10
56.101000
 20
75.019685
 30
0.0
 10
55.774500
 20
74.969685
 30
0.0
 10
55.461900
 20
75.049685
 30
0.0
 10
55.215500
 20
75.239685
 30
0.0
 10
55.068600
 20
75.479685
 30
0.0
 10
55.086300
 20
75.799685
 30
0.0
 10
55.292400
 20
76.089685
 30
0.0
 10
55.590700
 20
76.359685
 30
0.0
 10
55.902900
 20
76.579685
 30
0.0
 10
56.140300
 20
76.759685
 30
0.0
 10
56.219800
 20
76.879685
 30
0.0
 10
56.219800
 20
76.879685
 30
0.0
  0
LWPOLYLINE
  5
11b
100
AcDbEntity
  8
Back_Silk
 62
7
100
AcDbPolyline
 90
82
 70
1
 10
54.110000
 20
78.809685
 30
0.0
 10
54.067700
 20
79.099685
 30
0.0
 10
54.103300
 20
79.389685
 30
0.0
 10
54.239300
 20
79.639685
 30
0.0
 10
54.504800
 20
79.809685
 30
0.0
 10
55.095100
 20
79.959685
 30
0.0
 10
55.683600
 20
80.119685
 30
0.0
 10
55.913800
 20
80.209685
 30
0.0
 10
56.139300
 20
80.339685
 30
0.0
 10
56.290500
 20
80.509685
 30
0.0
 10
56.312400
 20
80.739685
 30
0.0
 10
56.154900
 20
80.919685
 30
0.0
 10
55.868700
 20
80.939685
 30
0.0
 10
55.512900
 20
80.899685
 30
0.0
 10
55.164200
 20
80.839685
 30
0.0
 10
54.876200
 20
80.879685
 30
0.0
 10
54.710100
 20
81.069685
 30
0.0
 10
54.749500
 20
81.339685
 30
0.0
 10
54.955100
 20
81.549685
 30
0.0
 10
55.251000
 20
81.729685
 30
0.0
 10
55.544100
 20
81.899685
 30
0.0
 10
55.764900
 20
82.079685
 30
0.0
 10
55.814800
 20
82.279685
 30
0.0
 10
55.680200
 20
82.439685
 30
0.0
 10
55.439700
 20
82.499685
 30
0.0
 10
55.161800
 20
82.469685
 30
0.0
 10
54.935800
 20
82.409685
 30
0.0
 10
54.450800
 20
82.199685
 30
0.0
 10
53.964400
 20
81.989685
 30
0.0
 10
53.318200
 20
81.999685
 30
0.0
 10
52.993900
 20
82.559685
 30
0.0
 10
52.952900
 20
82.839685
 30
0.0
 10
52.968700
 20
83.139685
 30
0.0
 10
53.080800
 20
83.419685
 30
0.0
 10
53.323700
 20
83.599685
 30
0.0
 10
53.522600
 20
83.629685
 30
0.0
 10
53.758700
 20
83.649685
 30
0.0
 10
53.997400
 20
83.649685
 30
0.0
 10
54.198300
 20
83.649685
 30
0.0
 10
54.797200
 20
83.699685
 30
0.0
 10
55.395100
 20
83.829685
 30
0.0
 10
55.725300
 20
83.959685
 30
0.0
 10
56.032800
 20
84.099685
 30
0.0
 10
56.334500
 20
84.229685
 30
0.0
 10
56.659000
 20
84.349685
 30
0.0
 10
57.254700
 20
84.469685
 30
0.0
 10
57.818500
 20
84.429685
 30
0.0
 10
58.284600
 20
84.189685
 30
0.0
 10
58.555200
 20
83.729685
 30
0.0
 10
58.588300
 20
83.419685
 30
0.0
 10
58.544900
 20
83.059685
 30
0.0
 10
58.416100
 20
82.719685
 30
0.0
 10
58.191000
 20
82.459685
 30
0.0
 10
57.857200
 20
82.279685
 30
0.0
 10
57.496400
 20
82.129685
 30
0.0
 10
57.221200
 20
81.989685
 30
0.0
 10
57.136000
 20
81.829685
 30
0.0
 10
57.258800
 20
81.749685
 30
0.0
 10
57.491100
 20
81.809685
 30
0.0
 10
57.771600
 20
81.919685
 30
0.0
 10
58.025900
 20
82.019685
 30
0.0
 10
58.467800
 20
82.029685
 30
0.0
 10
58.834500
 20
81.869685
 30
0.0
 10
59.108300
 20
81.589685
 30
0.0
 10
59.278700
 20
81.219685
 30
0.0
 10
59.297800
 20
80.729685
 30
0.0
 10
59.111800
 20
80.279685
 30
0.0
 10
58.771700
 20
79.899685
 30
0.0
 10
58.310400
 20
79.629685
 30
0.0
 10
57.907600
 20
79.519685
 30
0.0
 10
57.519700
 20
79.459685
 30
0.0
 10
57.125800
 20
79.409685
 30
0.0
 10
56.715400
 20
79.299685
 30
0.0
 10
56.269500
 20
79.069685
 30
0.0
 10
55.858500
 20
78.779685
 30
0.0
 10
55.461100
 20
78.489685
 30
0.0
 10
55.049100
 20
78.269685
 30
0.0
 10
54.714500
 20
78.209685
 30
0.0
 10
54.439800
 20
78.299685
 30
0.0
 10
54.239200
 20
78.509685
 30
0.0
 10
54.109900
 20
78.809685
 30
0.0
 10
54.109900
 20
78.809685
 30
0.0
  0
LWPOLYLINE
  5
11c
100
AcDbEntity
  8
Back_Silk
 62
7
100
AcDbPolyline
 90
50
 70
1
 10
57.419900
 20
84.869685
 30
0.0
 10
57.000900
 20
84.839685
 30
0.0
 10
56.563600
 20
84.929685
 30
0.0
 10
56.143400
 20
85.099685
 30
0.0
 10
55.763600
 20
85.259685
 30
0.0
 10
55.230800
 20
85.369685
 30
0.0
 10
54.731600
 20
85.359685
 30
0.0
 10
54.280000
 20
85.279685
 30
0.0
 10
53.862600
 20
85.179685
 30
0.0
 10
53.494500
 20
85.119685
 30
0.0
 10
53.172700
 20
85.159685
 30
0.0
 10
52.873700
 20
85.329685
 30
0.0
 10
52.644300
 20
85.589685
 30
0.0
 10
52.479400
 20
85.909685
 30
0.0
 10
52.378300
 20
86.249685
 30
0.0
 10
52.345800
 20
86.579685
 30
0.0
 10
52.355900
 20
86.739685
 30
0.0
 10
52.559800
 20
87.199685
 30
0.0
 10
52.818100
 20
87.409685
 30
0.0
 10
53.187200
 20
87.629685
 30
0.0
 10
53.579500
 20
87.869685
 30
0.0
 10
53.908700
 20
88.099685
 30
0.0
 10
54.248700
 20
88.459685
 30
0.0
 10
54.527400
 20
88.809685
 30
0.0
 10
54.797700
 20
89.139685
 30
0.0
 10
55.099100
 20
89.449685
 30
0.0
 10
55.473500
 20
89.689685
 30
0.0
 10
55.971100
 20
89.869685
 30
0.0
 10
56.459300
 20
89.919685
 30
0.0
 10
56.867100
 20
89.819685
 30
0.0
 10
57.165100
 20
89.569685
 30
0.0
 10
57.331100
 20
89.159685
 30
0.0
 10
57.296000
 20
88.599685
 30
0.0
 10
57.046400
 20
88.169685
 30
0.0
 10
56.679900
 20
87.839685
 30
0.0
 10
56.440200
 20
87.669685
 30
0.0
 10
56.300800
 20
87.569685
 30
0.0
 10
56.014000
 20
87.349685
 30
0.0
 10
55.917900
 20
87.149685
 30
0.0
 10
55.933800
 20
87.099685
 30
0.0
 10
55.965200
 20
87.059685
 30
0.0
 10
56.319800
 20
86.949685
 30
0.0
 10
56.755100
 20
86.989685
 30
0.0
 10
57.207300
 20
87.069685
 30
0.0
 10
57.638300
 20
87.069685
 30
0.0
 10
57.991500
 20
86.869685
 30
0.0
 10
58.223100
 20
86.369685
 30
0.0
 10
58.148500
 20
85.429685
 30
0.0
 10
57.419900
 20
84.869685
 30
0.0
 10
57.419900
 20
84.869685
 30
0.0
  0
LWPOLYLINE
  5
11d
100
AcDbEntity
  8
Back_Silk
 62
7
100
AcDbPolyline
 90
28
 70
1
 10
54.680300
 20
86.379685
 30
0.0
 10
54.826000
 20
86.459685
 30
0.0
 10
54.909500
 20
86.609685
 30
0.0
 10
54.939200
 20
86.769685
 30
0.0
 10
54.926600
 20
86.919685
 30
0.0
 10
54.879900
 20
87.069685
 30
0.0
 10
54.790800
 20
87.199685
 30
0.0
 10
54.766400
 20
87.229685
 30
0.0
 10
54.766400
 20
87.229685
 30
0.0
 10
54.766400
 20
87.229685
 30
0.0
 10
54.666900
 20
87.289685
 30
0.0
 10
54.510000
 20
87.299685
 30
0.0
 10
54.345800
 20
87.209685
 30
0.0
 10
54.207000
 20
87.079685
 30
0.0
 10
54.207000
 20
87.079685
 30
0.0
 10
54.207000
 20
87.079685
 30
0.0
 10
54.207000
 20
87.079685
 30
0.0
 10
54.207000
 20
87.079685
 30
0.0
 10
54.207000
 20
87.079685
 30
0.0
 10
54.207000
 20
87.079685
 30
0.0
 10
54.207000
 20
87.079685
 30
0.0
 10
54.199900
 20
87.069685
 30
0.0
 10
54.105700
 20
86.879685
 30
0.0
 10
54.094400
 20
86.689685
 30
0.0
 10
54.178200
 20
86.519685
 30
0.0
 10
54.331100
 20
86.409685
 30
0.0
 10
54.509100
 20
86.359685
 30
0.0
 10
54.680400
 20
86.379685
 30
0.0
  0
LWPOLYLINE
  5
11e
100
AcDbEntity
  8
Back_Silk
 62
7
100
AcDbPolyline
 90
37
 70
1
 10
52.780200
 20
89.169685
 30
0.0
 10
52.326100
 20
89.139685
 30
0.0
 10
51.986600
 20
89.279685
 30
0.0
 10
51.756600
 20
89.549685
 30
0.0
 10
51.634300
 20
89.929685
 30
0.0
 10
51.640000
 20
90.339685
 30
0.0
 10
51.768900
 20
90.679685
 30
0.0
 10
52.011700
 20
90.919685
 30
0.0
 10
52.326000
 20
91.059685
 30
0.0
 10
52.722300
 20
91.049685
 30
0.0
 10
53.168100
 20
90.959685
 30
0.0
 10
53.655900
 20
90.879685
 30
0.0
 10
54.195200
 20
90.909685
 30
0.0
 10
54.784600
 20
91.179685
 30
0.0
 10
54.961200
 20
91.629685
 30
0.0
 10
54.804600
 20
91.909685
 30
0.0
 10
54.509400
 20
92.089685
 30
0.0
 10
54.219200
 20
92.279685
 30
0.0
 10
54.056800
 20
92.589685
 30
0.0
 10
54.302100
 20
93.109685
 30
0.0
 10
55.109100
 20
93.409685
 30
0.0
 10
56.617000
 20
93.079685
 30
0.0
 10
57.311600
 20
91.569685
 30
0.0
 10
57.339100
 20
90.989685
 30
0.0
 10
57.221600
 20
90.559685
 30
0.0
 10
56.941900
 20
90.259685
 30
0.0
 10
56.476300
 20
90.079685
 30
0.0
 10
56.416600
 20
90.059685
 30
0.0
 10
55.938800
 20
89.989685
 30
0.0
 10
55.431500
 20
89.939685
 30
0.0
 10
54.905200
 20
89.899685
 30
0.0
 10
54.403100
 20
89.819685
 30
0.0
 10
53.968100
 20
89.679685
 30
0.0
 10
53.576800
 20
89.489685
 30
0.0
 10
53.197700
 20
89.309685
 30
0.0
 10
52.780300
 20
89.169685
 30
0.0
 10
52.780300
 20
89.169685
 30
0.0
  0
LWPOLYLINE
  5
11f
100
AcDbEntity
  8
Back_Silk
 62
7
100
AcDbPolyline
 90
51
 70
1
 10
51.043500
 20
95.189685
 30
0.0
 10
51.031400
 20
95.559685
 30
0.0
 10
51.054200
 20
95.989685
 30
0.0
 10
51.128900
 20
96.429685
 30
0.0
 10
51.282000
 20
96.829685
 30
0.0
 10
51.532800
 20
97.099685
 30
0.0
 10
51.892900
 20
97.219685
 30
0.0
 10
52.345300
 20
97.129685
 30
0.0
 10
52.507400
 20
96.719685
 30
0.0
 10
52.477500
 20
96.449685
 30
0.0
 10
52.387500
 20
96.189685
 30
0.0
 10
52.304500
 20
95.939685
 30
0.0
 10
52.272700
 20
95.669685
 30
0.0
 10
52.368100
 20
95.419685
 30
0.0
 10
52.581400
 20
95.339685
 30
0.0
 10
52.787400
 20
95.529685
 30
0.0
 10
52.977500
 20
95.979685
 30
0.0
 10
53.189300
 20
96.559685
 30
0.0
 10
53.486500
 20
97.139685
 30
0.0
 10
53.915100
 20
97.589685
 30
0.0
 10
54.510700
 20
97.779685
 30
0.0
 10
55.466900
 20
97.649685
 30
0.0
 10
56.149700
 20
97.209685
 30
0.0
 10
56.578800
 20
96.519685
 30
0.0
 10
56.775900
 20
95.589685
 30
0.0
 10
56.696900
 20
94.939685
 30
0.0
 10
56.375500
 20
94.339685
 30
0.0
 10
55.848900
 20
93.869685
 30
0.0
 10
55.146900
 20
93.619685
 30
0.0
 10
54.810000
 20
93.609685
 30
0.0
 10
54.481400
 20
93.699685
 30
0.0
 10
54.228200
 20
93.899685
 30
0.0
 10
54.106300
 20
94.199685
 30
0.0
 10
54.154400
 20
94.529685
 30
0.0
 10
54.290200
 20
94.859685
 30
0.0
 10
54.434000
 20
95.189685
 30
0.0
 10
54.480900
 20
95.539685
 30
0.0
 10
54.299200
 20
95.789685
 30
0.0
 10
54.097500
 20
95.619685
 30
0.0
 10
53.919400
 20
95.219685
 30
0.0
 10
53.717400
 20
94.709685
 30
0.0
 10
53.447600
 20
94.179685
 30
0.0
 10
53.049800
 20
93.739685
 30
0.0
 10
52.473700
 20
93.499685
 30
0.0
 10
52.096800
 20
93.529685
 30
0.0
 10
51.759300
 20
93.719685
 30
0.0
 10
51.472800
 20
94.039685
 30
0.0
 10
51.256000
 20
94.419685
 30
0.0
 10
51.113900
 20
94.809685
 30
0.0
 10
51.043500
 20
95.189685
 30
0.0
 10
51.043500
 20
95.189685
 30
0.0
  0
LWPOLYLINE
  5
120
100
AcDbEntity
  8
Back_Silk
 62
7
100
AcDbPolyline
 90
19
 70
1
 10
54.213500
 20
98.969685
 30
0.0
 10
54.331300
 20
99.289685
 30
0.0
 10
54.638200
 20
99.539685
 30
0.0
 10
55.053900
 20
99.699685
 30
0.0
 10
55.516000
 20
99.739685
 30
0.0
 10
55.877800
 20
99.659685
 30
0.0
 10
56.140300
 20
99.449685
 30
0.0
 10
56.300200
 20
99.169685
 30
0.0
 10
56.353000
 20
98.839685
 30
0.0
 10
56.281200
 20
98.559685
 30
0.0
 10
56.101400
 20
98.339685
 30
0.0
 10
55.848600
 20
98.199685
 30
0.0
 10
55.564500
 20
98.149685
 30
0.0
 10
55.534200
 20
98.149685
 30
0.0
 10
55.054300
 20
98.199685
 30
0.0
 10
54.633700
 20
98.369685
 30
0.0
 10
54.328600
 20
98.629685
 30
0.0
 10
54.213500
 20
98.969685
 30
0.0
 10
54.213500
 20
98.969685
 30
0.0
  0
LWPOLYLINE
  5
121
100
AcDbEntity
  8
Back_Silk
 62
7
100
AcDbPolyline
 90
47
 70
1
 10
54.008500
 20
100.549685
 30
0.0
 10
53.283500
 20
100.629685
 30
0.0
 10
52.569600
 20
100.819685
 30
0.0
 10
51.923400
 20
101.139685
 30
0.0
 10
51.403600
 20
101.609685
 30
0.0
 10
51.076300
 20
102.249685
 30
0.0
 10
51.054100
 20
102.329685
 30
0.0
 10
51.008800
 20
103.079685
 30
0.0
 10
51.106300
 20
103.519685
 30
0.0
 10
51.318900
 20
103.989685
 30
0.0
 10
51.644900
 20
104.339685
 30
0.0
 10
52.065200
 20
104.419685
 30
0.0
 10
52.302700
 20
104.279685
 30
0.0
 10
52.410800
 20
103.999685
 30
0.0
 10
52.448000
 20
103.639685
 30
0.0
 10
52.460800
 20
103.239685
 30
0.0
 10
52.514600
 20
102.829685
 30
0.0
 10
52.657300
 20
102.459685
 30
0.0
 10
52.938700
 20
102.189685
 30
0.0
 10
53.168400
 20
102.089685
 30
0.0
 10
53.168400
 20
102.089685
 30
0.0
 10
53.168400
 20
102.089685
 30
0.0
 10
53.403100
 20
102.049685
 30
0.0
 10
53.634700
 20
102.039685
 30
0.0
 10
53.634700
 20
102.039685
 30
0.0
 10
53.671100
 20
102.039685
 30
0.0
 10
53.896100
 20
102.099685
 30
0.0
 10
54.055300
 20
102.239685
 30
0.0
 10
54.133000
 20
102.479685
 30
0.0
 10
54.121900
 20
102.789685
 30
0.0
 10
54.053800
 20
103.099685
 30
0.0
 10
53.994300
 20
103.409685
 30
0.0
 10
53.988700
 20
103.739685
 30
0.0
 10
54.107700
 20
104.039685
 30
0.0
 10
54.322400
 20
104.189685
 30
0.0
 10
54.609900
 20
104.199685
 30
0.0
 10
54.953900
 20
104.149685
 30
0.0
 10
56.338800
 20
103.439685
 30
0.0
 10
56.722100
 20
102.169685
 30
0.0
 10
56.625400
 20
101.699685
 30
0.0
 10
56.625400
 20
101.699685
 30
0.0
 10
56.625400
 20
101.699685
 30
0.0
 10
56.444900
 20
101.329685
 30
0.0
 10
55.863400
 20
100.819685
 30
0.0
 10
55.030100
 20
100.569685
 30
0.0
 10
54.008500
 20
100.549685
 30
0.0
 10
54.008500
 20
100.549685
 30
0.0
  0
LWPOLYLINE
  5
122
100
AcDbEntity
  8
Back_Silk
 62
7
100
AcDbPolyline
 90
23
 70
1
 10
51.813600
 20
107.329685
 30
0.0
 10
52.119200
 20
107.949685
 30
0.0
 10
52.606400
 20
108.389685
 30
0.0
 10
53.221200
 20
108.609685
 30
0.0
 10
53.902400
 20
108.649685
 30
0.0
 10
54.072000
 20
108.629685
 30
0.0
 10
54.072000
 20
108.629685
 30
0.0
 10
54.607500
 20
108.519685
 30
0.0
 10
55.282400
 20
108.249685
 30
0.0
 10
56.149900
 20
107.639685
 30
0.0
 10
56.260100
 20
107.539685
 30
0.0
 10
56.795100
 20
106.909685
 30
0.0
 10
57.151100
 20
106.129685
 30
0.0
 10
57.151100
 20
105.319685
 30
0.0
 10
56.824600
 20
104.709685
 30
0.0
 10
56.231800
 20
104.329685
 30
0.0
 10
55.421200
 20
104.169685
 30
0.0
 10
54.439400
 20
104.259685
 30
0.0
 10
53.283900
 20
104.689685
 30
0.0
 10
52.373000
 20
105.379685
 30
0.0
 10
51.837300
 20
106.299685
 30
0.0
 10
51.813700
 20
107.329685
 30
0.0
 10
51.813700
 20
107.329685
 30
0.0
  0
LWPOLYLINE
  5
123
100
AcDbEntity
  8
Back_Silk
 62
7
100
AcDbPolyline
 90
14
 70
1
 10
54.019100
 20
105.899685
 30
0.0
 10
54.426300
 20
105.939685
 30
0.0
 10
54.677500
 20
106.319685
 30
0.0
 10
54.647400
 20
106.729685
 30
0.0
 10
54.335100
 20
106.999685
 30
0.0
 10
54.097700
 20
107.039685
 30
0.0
 10
53.886700
 20
106.989685
 30
0.0
 10
53.716100
 20
106.859685
 30
0.0
 10
53.611200
 20
106.659685
 30
0.0
 10
53.600000
 20
106.409685
 30
0.0
 10
53.671500
 20
106.189685
 30
0.0
 10
53.812700
 20
106.009685
 30
0.0
 10
54.019100
 20
105.899685
 30
0.0
 10
54.019100
 20
105.899685
 30
0.0
  0
LWPOLYLINE
  5
124
100
AcDbEntity
  8
Back_Silk
 62
7
100
AcDbPolyline
 90
72
 70
1
 10
53.442300
 20
111.459685
 30
0.0
 10
53.760300
 20
111.779685
 30
0.0
 10
54.162300
 20
111.839685
 30
0.0
 10
54.594200
 20
111.749685
 30
0.0
 10
54.996200
 20
111.599685
 30
0.0
 10
55.320300
 20
111.509685
 30
0.0
 10
55.508600
 20
111.569685
 30
0.0
 10
55.492300
 20
111.789685
 30
0.0
 10
55.334300
 20
112.129685
 30
0.0
 10
55.120000
 20
112.569685
 30
0.0
 10
54.944800
 20
113.059685
 30
0.0
 10
54.903600
 20
113.559685
 30
0.0
 10
55.094100
 20
114.029685
 30
0.0
 10
55.431400
 20
114.289685
 30
0.0
 10
55.778500
 20
114.289685
 30
0.0
 10
56.145200
 20
114.039685
 30
0.0
 10
56.546000
 20
113.619685
 30
0.0
 10
56.938400
 20
113.269685
 30
0.0
 10
57.469400
 20
112.879685
 30
0.0
 10
58.041700
 20
112.389685
 30
0.0
 10
58.578300
 20
111.799685
 30
0.0
 10
59.087400
 20
111.029685
 30
0.0
 10
59.336900
 20
110.459685
 30
0.0
 10
59.385600
 20
110.039685
 30
0.0
 10
59.264100
 20
109.759685
 30
0.0
 10
59.017500
 20
109.579685
 30
0.0
 10
58.696000
 20
109.569685
 30
0.0
 10
58.320800
 20
109.699685
 30
0.0
 10
57.916400
 20
109.989685
 30
0.0
 10
57.485400
 20
110.449685
 30
0.0
 10
57.225600
 20
110.849685
 30
0.0
 10
57.012600
 20
111.209685
 30
0.0
 10
56.717300
 20
111.569685
 30
0.0
 10
56.523400
 20
111.699685
 30
0.0
 10
56.400400
 20
111.669685
 30
0.0
 10
56.419600
 20
111.509685
 30
0.0
 10
56.583200
 20
111.259685
 30
0.0
 10
56.809600
 20
110.959685
 30
0.0
 10
57.031900
 20
110.649685
 30
0.0
 10
57.168100
 20
110.369685
 30
0.0
 10
57.154300
 20
110.139685
 30
0.0
 10
56.972900
 20
110.049685
 30
0.0
 10
56.694600
 20
110.109685
 30
0.0
 10
56.362100
 20
110.239685
 30
0.0
 10
56.045800
 20
110.389685
 30
0.0
 10
55.794200
 20
110.499685
 30
0.0
 10
55.668500
 20
110.499685
 30
0.0
 10
55.667500
 20
110.379685
 30
0.0
 10
55.753300
 20
110.239685
 30
0.0
 10
55.886800
 20
110.119685
 30
0.0
 10
56.017900
 20
110.009685
 30
0.0
 10
56.429400
 20
109.799685
 30
0.0
 10
56.829200
 20
109.699685
 30
0.0
 10
57.227100
 20
109.599685
 30
0.0
 10
57.612700
 20
109.379685
 30
0.0
 10
57.966700
 20
109.039685
 30
0.0
 10
58.213000
 20
108.649685
 30
0.0
 10
58.305300
 20
108.219685
 30
0.0
 10
58.187400
 20
107.739685
 30
0.0
 10
57.947400
 20
107.509685
 30
0.0
 10
57.586600
 20
107.469685
 30
0.0
 10
57.179200
 20
107.539685
 30
0.0
 10
56.799500
 20
107.699685
 30
0.0
 10
56.049300
 20
108.169685
 30
0.0
 10
55.356300
 20
108.719685
 30
0.0
 10
54.653200
 20
109.289685
 30
0.0
 10
53.849800
 20
109.839685
 30
0.0
 10
53.519900
 20
110.119685
 30
0.0
 10
53.320000
 20
110.499685
 30
0.0
 10
53.281900
 20
110.949685
 30
0.0
 10
53.442300
 20
111.459685
 30
0.0
 10
53.442300
 20
111.459685
 30
0.0
  0
ENDSEC
  0
SECTION
  2
OBJECTS
  0
DICTIONARY
  5
C
330
0
100
AcDbDictionary
  3
ACAD_GROUP
350
D
  3
ACAD_MLINESTYLE
350
17
  0
DICTIONARY
  5
D
330
C
100
AcDbDictionary
  0
DICTIONARY
  5
1A
330
C
100
AcDbDictionary
  0
DICTIONARY
  5
17
330
C
100
AcDbDictionary
  3
STANDARD
350
18
  0
DICTIONARY
  5
19
330
C
100
AcDbDictionary
  0
ENDSEC
  0
EOF
