  0
SECTION
  2
HEADER
  9
$ACADVER
  1
AC1014
  9
$HANDSEED
  5
FFFF
  9
$INSUNITS
 70
     0
  9
$MEASUREMENT
 70
     1
  0
ENDSEC
  0
SECTION
  2
TABLES
  0
TABLE
  2
VPORT
  5
8
330
0
100
AcDbSymbolTable
 70
     4
  0
VPORT
  5
2E
330
8
100
AcDbSymbolTableRecord
100
AcDbViewportTableRecord
  2
*ACTIVE
 70
     0
 10
0.0
 20
0.0
 11
1.0
 21
1.0
 12
210.0
 22
148.5
 13
0.0
 23
0.0
 14
10.0
 24
10.0
 15
10.0
 25
10.0
 16
0.0
 26
0.0
 36
1.0
 17
0.0
 27
0.0
 37
0.0
 40
341.0
 41
1.24
 42
50.0
 43
0.0
 44
0.0
 50
0.0
 51
0.0
 71
     0
 72
   100
 73
     1
 74
     3
 75
     0
 76
     0
 77
     0
 78
     0
  0
ENDTAB
  0
TABLE
  2
LTYPE
  5
5
330
0
100
AcDbSymbolTable
 70
     1
  0
LTYPE
  5
14
330
5
100
AcDbSymbolTableRecord
100
AcDbLinetypeTableRecord
  2
BYBLOCK
 70
     0
  3

 72
    65
 73
     0
 40
0.0
  0
LTYPE
  5
15
330
5
100
AcDbSymbolTableRecord
100
AcDbLinetypeTableRecord
  2
BYLAYER
 70
     0
  3

 72
    65
 73
     0
 40
0.0
  0
LTYPE
  5
16
330
5
100
AcDbSymbolTableRecord
100
AcDbLinetypeTableRecord
  2
CONTINUOUS
 70
     0
  3
Solid line
 72
    65
 73
     0
 40
0.0
  0
ENDTAB
  0
TABLE
  2
LAYER
  5
2
100
AcDbSymbolTable
 70
2
  0
LAYER
  5
50
100
AcDbSymbolTableRecord
100
AcDbLayerTableRecord
  2
0
 70
0
  6
CONTINUOUS
  0
LAYER
  5
51
100
AcDbSymbolTableRecord
100
AcDbLayerTableRecord
  2
Back_Silk
 70
0
  6
CONTINUOUS
  0
ENDTAB
  0
TABLE
  2
STYLE
  5
3
330
0
100
AcDbSymbolTable
 70
     1
  0
STYLE
  5
11
330
3
100
AcDbSymbolTableRecord
100
AcDbTextStyleTableRecord
  2
STANDARD
 70
     0
 40
0.0
 41
1.0
 50
0.0
 71
     0
 42
2.5
  3
txt
  4

  0
ENDTAB
  0
TABLE
  2
VIEW
  5
6
330
0
100
AcDbSymbolTable
 70
     0
  0
ENDTAB
  0
TABLE
  2
UCS
  5
7
330
0
100
AcDbSymbolTable
 70
     0
  0
ENDTAB
  0
TABLE
  2
APPID
  5
9
330
0
100
AcDbSymbolTable
 70
     2
  0
APPID
  5
12
330
9
100
AcDbSymbolTableRecord
100
AcDbRegAppTableRecord
  2
ACAD
 70
     0
  0
ENDTAB
  0
TABLE
  2
DIMSTYLE
  5
A
330
0
100
AcDbSymbolTable
 70
     1
  0
DIMSTYLE
105
27
330
A
100
AcDbSymbolTableRecord
100
AcDbDimStyleTableRecord
  2
ISO-25
 70
     0
  3

  4

  5

  6

  7

 40
1.0
 41
2.5
 42
0.625
 43
3.75
 44
1.25
 45
0.0
 46
0.0
 47
0.0
 48
0.0
140
2.5
141
2.5
142
0.0
143
0.03937007874016
144
1.0
145
0.0
146
1.0
147
0.625
 71
     0
 72
     0
 73
     0
 74
     0
 75
     0
 76
     0
 77
     1
 78
     8
170
     0
171
     3
172
     1
173
     0
174
     0
175
     0
176
     0
177
     0
178
     0
270
     2
271
     2
272
     2
273
     2
274
     3
340
11
275
     0
280
     0
281
     0
282
     0
283
     0
284
     8
285
     0
286
     0
287
     3
288
     0
  0
ENDTAB
  0
TABLE
  2
BLOCK_RECORD
  5
1
330
0
100
AcDbSymbolTable
 70
     1
  0
BLOCK_RECORD
  5
1F
330
1
100
AcDbSymbolTableRecord
100
AcDbBlockTableRecord
  2
*MODEL_SPACE
  0
BLOCK_RECORD
  5
1B
330
1
100
AcDbSymbolTableRecord
100
AcDbBlockTableRecord
  2
*PAPER_SPACE
  0
ENDTAB
  0
ENDSEC
  0
SECTION
  2
BLOCKS
  0
BLOCK
  5
20
330
1F
100
AcDbEntity
  8
0
100
AcDbBlockBegin
  2
*MODEL_SPACE
 70
     0
 10
0.0
 20
0.0
 30
0.0
  3
*MODEL_SPACE
  1

  0
ENDBLK
  5
21
330
1F
100
AcDbEntity
  8
0
100
AcDbBlockEnd
  0
BLOCK
  5
1C
330
1B
100
AcDbEntity
 67
     1
  8
0
100
AcDbBlockBegin
  2
*PAPER_SPACE
  1

  0
ENDBLK
  5
1D
330
1B
100
AcDbEntity
 67
     1
  8
0
100
AcDbBlockEnd
  0
ENDSEC
  0
SECTION
  2
ENTITIES
  0
LWPOLYLINE
  5
100
100
AcDbEntity
  8
Back_Silk
 62
7
100
AcDbPolyline
 90
66
 70
1
 10
22.994700
 20
75.319685
 30
0.0
 10
23.573400
 20
75.499685
 30
0.0
 10
24.006900
 20
75.249685
 30
0.0
 10
24.204600
 20
75.029685
 30
0.0
 10
24.508500
 20
74.679685
 30
0.0
 10
24.856700
 20
74.289685
 30
0.0
 10
25.209100
 20
73.929685
 30
0.0
 10
25.518200
 20
73.679685
 30
0.0
 10
25.768400
 20
73.609685
 30
0.0
 10
25.870600
 20
73.729685
 30
0.0
 10
25.900800
 20
73.959685
 30
0.0
 10
25.888800
 20
74.209685
 30
0.0
 10
25.860500
 20
74.379685
 30
0.0
 10
25.733800
 20
74.729685
 30
0.0
 10
25.557700
 20
75.069685
 30
0.0
 10
25.380400
 20
75.389685
 30
0.0
 10
25.245000
 20
75.739685
 30
0.0
 10
25.342100
 20
76.409685
 30
0.0
 10
25.963300
 20
76.789685
 30
0.0
 10
26.276100
 20
76.789685
 30
0.0
 10
26.572800
 20
76.669685
 30
0.0
 10
26.808500
 20
76.449685
 30
0.0
 10
26.931900
 20
76.159685
 30
0.0
 10
27.046300
 20
75.209685
 30
0.0
 10
27.163200
 20
74.259685
 30
0.0
 10
27.329200
 20
73.679685
 30
0.0
 10
27.561800
 20
73.119685
 30
0.0
 10
27.796900
 20
72.569685
 30
0.0
 10
27.954900
 20
71.989685
 30
0.0
 10
27.997700
 20
71.419685
 30
0.0
 10
27.914400
 20
70.939685
 30
0.0
 10
27.696600
 20
70.579685
 30
0.0
 10
27.333900
 20
70.379685
 30
0.0
 10
26.940700
 20
70.419685
 30
0.0
 10
26.610900
 20
70.679685
 30
0.0
 10
26.341100
 20
71.079685
 30
0.0
 10
26.147900
 20
71.579685
 30
0.0
 10
25.973500
 20
71.999685
 30
0.0
 10
25.685300
 20
72.459685
 30
0.0
 10
25.357300
 20
72.819685
 30
0.0
 10
25.086600
 20
72.919685
 30
0.0
 10
25.021200
 20
72.849685
 30
0.0
 10
25.010000
 20
72.739685
 30
0.0
 10
25.029300
 20
72.619685
 30
0.0
 10
25.066000
 20
72.519685
 30
0.0
 10
25.247100
 20
72.199685
 30
0.0
 10
25.478200
 20
71.899685
 30
0.0
 10
25.716500
 20
71.549685
 30
0.0
 10
25.909200
 20
71.129685
 30
0.0
 10
26.005000
 20
70.659685
 30
0.0
 10
26.004700
 20
70.249685
 30
0.0
 10
25.912600
 20
69.939685
 30
0.0
 10
25.746300
 20
69.759685
 30
0.0
 10
25.530400
 20
69.739685
 30
0.0
 10
25.273200
 20
69.859685
 30
0.0
 10
24.980100
 20
70.099685
 30
0.0
 10
24.676000
 20
70.429685
 30
0.0
 10
24.234000
 20
71.119685
 30
0.0
 10
23.878300
 20
71.839685
 30
0.0
 10
23.563800
 20
72.599685
 30
0.0
 10
23.203000
 20
73.319685
 30
0.0
 10
22.816900
 20
73.779685
 30
0.0
 10
22.459900
 20
74.189685
 30
0.0
 10
22.445800
 20
74.789685
 30
0.0
 10
22.994700
 20
75.319685
 30
0.0
 10
22.994700
 20
75.319685
 30
0.0
  0
LWPOLYLINE
  5
101
100
AcDbEntity
  8
Back_Silk
 62
7
100
AcDbPolyline
 90
28
 70
1
 10
28.538500
 20
77.139685
 30
0.0
 10
29.294900
 20
77.019685
 30
0.0
 10
29.615300
 20
76.469685
 30
0.0
 10
29.606700
 20
76.029685
 30
0.0
 10
29.551100
 20
75.509685
 30
0.0
 10
29.503600
 20
74.939685
 30
0.0
 10
29.518800
 20
74.339685
 30
0.0
 10
29.681100
 20
73.739685
 30
0.0
 10
29.957800
 20
73.219685
 30
0.0
 10
30.222900
 20
72.679685
 30
0.0
 10
30.385400
 20
72.059685
 30
0.0
 10
30.388600
 20
72.019685
 30
0.0
 10
30.220900
 20
70.769685
 30
0.0
 10
29.442900
 20
70.249685
 30
0.0
 10
28.645900
 20
70.449685
 30
0.0
 10
28.219000
 20
71.239685
 30
0.0
 10
28.209900
 20
71.299685
 30
0.0
 10
28.192000
 20
71.859685
 30
0.0
 10
28.276400
 20
72.399685
 30
0.0
 10
28.358700
 20
72.989685
 30
0.0
 10
28.338000
 20
73.699685
 30
0.0
 10
28.176200
 20
74.329685
 30
0.0
 10
27.942400
 20
74.829685
 30
0.0
 10
27.710900
 20
75.279685
 30
0.0
 10
27.555400
 20
75.799685
 30
0.0
 10
27.715000
 20
76.699685
 30
0.0
 10
28.538500
 20
77.139685
 30
0.0
 10
28.538500
 20
77.139685
 30
0.0
  0
LWPOLYLINE
  5
102
100
AcDbEntity
  8
Back_Silk
 62
7
100
AcDbPolyline
 90
86
 70
1
 10
31.125000
 20
77.199685
 30
0.0
 10
31.564400
 20
77.109685
 30
0.0
 10
31.823100
 20
76.719685
 30
0.0
 10
31.920200
 20
76.429685
 30
0.0
 10
32.079900
 20
75.989685
 30
0.0
 10
32.277000
 20
75.509685
 30
0.0
 10
32.500200
 20
75.049685
 30
0.0
 10
32.721900
 20
74.719685
 30
0.0
 10
32.940500
 20
74.589685
 30
0.0
 10
33.060000
 20
74.679685
 30
0.0
 10
33.133400
 20
74.889685
 30
0.0
 10
33.169600
 20
75.129685
 30
0.0
 10
33.177000
 20
75.309685
 30
0.0
 10
33.129300
 20
75.679685
 30
0.0
 10
33.037500
 20
76.049685
 30
0.0
 10
32.945100
 20
76.399685
 30
0.0
 10
32.895600
 20
76.769685
 30
0.0
 10
33.092800
 20
77.399685
 30
0.0
 10
33.673000
 20
77.609685
 30
0.0
 10
33.946700
 20
77.559685
 30
0.0
 10
34.195400
 20
77.389685
 30
0.0
 10
34.357500
 20
77.179685
 30
0.0
 10
34.357500
 20
77.179685
 30
0.0
 10
34.357500
 20
77.179685
 30
0.0
 10
34.357500
 20
77.179685
 30
0.0
 10
34.357500
 20
77.179685
 30
0.0
 10
34.357500
 20
77.179685
 30
0.0
 10
34.357500
 20
77.179685
 30
0.0
 10
34.380800
 20
77.139685
 30
0.0
 10
34.453200
 20
76.839685
 30
0.0
 10
34.414100
 20
75.879685
 30
0.0
 10
34.379800
 20
75.329685
 30
0.0
 10
34.379800
 20
75.329685
 30
0.0
 10
34.379800
 20
75.329685
 30
0.0
 10
34.376200
 20
74.929685
 30
0.0
 10
34.387300
 20
74.699685
 30
0.0
 10
34.387300
 20
74.699685
 30
0.0
 10
34.387300
 20
74.699685
 30
0.0
 10
34.387300
 20
74.699685
 30
0.0
 10
34.387300
 20
74.699685
 30
0.0
 10
34.387300
 20
74.699685
 30
0.0
 10
34.387300
 20
74.699685
 30
0.0
 10
34.444200
 20
74.329685
 30
0.0
 10
34.583500
 20
73.739685
 30
0.0
 10
34.726800
 20
73.149685
 30
0.0
 10
34.791000
 20
72.559685
 30
0.0
 10
34.742100
 20
71.989685
 30
0.0
 10
34.581500
 20
71.539685
 30
0.0
 10
34.427800
 20
71.339685
 30
0.0
 10
34.427800
 20
71.339685
 30
0.0
 10
34.427800
 20
71.339685
 30
0.0
 10
34.298200
 20
71.239685
 30
0.0
 10
33.874600
 20
71.119685
 30
0.0
 10
33.442300
 20
71.229685
 30
0.0
 10
33.125500
 20
71.549685
 30
0.0
 10
32.924200
 20
72.009685
 30
0.0
 10
32.841500
 20
72.529685
 30
0.0
 10
32.766100
 20
72.979685
 30
0.0
 10
32.591100
 20
73.509685
 30
0.0
 10
32.362200
 20
73.939685
 30
0.0
 10
32.129900
 20
74.119685
 30
0.0
 10
32.047100
 20
74.079685
 30
0.0
 10
32.003500
 20
73.979685
 30
0.0
 10
31.985300
 20
73.849685
 30
0.0
 10
31.990500
 20
73.749685
 30
0.0
 10
32.068800
 20
73.379685
 30
0.0
 10
32.211400
 20
73.019685
 30
0.0
 10
32.359800
 20
72.619685
 30
0.0
 10
32.438700
 20
72.149685
 30
0.0
 10
32.389600
 20
71.669685
 30
0.0
 10
32.223500
 20
71.269685
 30
0.0
 10
31.940300
 20
70.999685
 30
0.0
 10
31.561800
 20
70.869685
 30
0.0
 10
31.178700
 20
70.939685
 30
0.0
 10
30.860800
 20
71.179685
 30
0.0
 10
30.631500
 20
71.549685
 30
0.0
 10
30.517200
 20
72.009685
 30
0.0
 10
30.509900
 20
72.839685
 30
0.0
 10
30.579100
 20
73.649685
 30
0.0
 10
30.659500
 20
74.479685
 30
0.0
 10
30.664000
 20
75.299685
 30
0.0
 10
30.553700
 20
75.909685
 30
0.0
 10
30.452900
 20
76.449685
 30
0.0
 10
30.625600
 20
76.989685
 30
0.0
 10
31.124900
 20
77.199685
 30
0.0
 10
31.124900
 20
77.199685
 30
0.0
  0
LWPOLYLINE
  5
103
100
AcDbEntity
  8
Back_Silk
 62
7
100
AcDbPolyline
 90
43
 70
1
 10
37.148100
 20
77.179685
 30
0.0
 10
37.575200
 20
77.209685
 30
0.0
 10
38.065200
 20
77.239685
 30
0.0
 10
38.676100
 20
76.969685
 30
0.0
 10
38.838500
 20
76.319685
 30
0.0
 10
38.775600
 20
75.979685
 30
0.0
 10
38.651400
 20
75.799685
 30
0.0
 10
38.494300
 20
75.729685
 30
0.0
 10
38.338600
 20
75.679685
 30
0.0
 10
38.219300
 20
75.619685
 30
0.0
 10
38.171300
 20
75.469685
 30
0.0
 10
38.222400
 20
75.149685
 30
0.0
 10
38.341700
 20
74.699685
 30
0.0
 10
38.458400
 20
74.039685
 30
0.0
 10
38.485100
 20
73.109685
 30
0.0
 10
37.949700
 20
71.309685
 30
0.0
 10
36.546800
 20
70.739685
 30
0.0
 10
35.390700
 20
71.179685
 30
0.0
 10
34.993700
 20
72.419685
 30
0.0
 10
35.133500
 20
73.239685
 30
0.0
 10
35.511300
 20
73.559685
 30
0.0
 10
35.655400
 20
73.509685
 30
0.0
 10
35.757100
 20
73.409685
 30
0.0
 10
35.864600
 20
73.309685
 30
0.0
 10
36.032100
 20
73.269685
 30
0.0
 10
36.321000
 20
73.379685
 30
0.0
 10
36.565700
 20
73.709685
 30
0.0
 10
36.736000
 20
74.179685
 30
0.0
 10
36.806000
 20
74.739685
 30
0.0
 10
36.747600
 20
75.279685
 30
0.0
 10
36.561900
 20
75.609685
 30
0.0
 10
36.420900
 20
75.659685
 30
0.0
 10
36.236100
 20
75.679685
 30
0.0
 10
35.946300
 20
75.669685
 30
0.0
 10
35.638000
 20
75.679685
 30
0.0
 10
35.354300
 20
75.779685
 30
0.0
 10
35.131300
 20
76.009685
 30
0.0
 10
34.999100
 20
76.499685
 30
0.0
 10
35.209700
 20
77.069685
 30
0.0
 10
35.768600
 20
77.289685
 30
0.0
 10
36.421300
 20
77.239685
 30
0.0
 10
37.148100
 20
77.179685
 30
0.0
 10
37.148100
 20
77.179685
 30
0.0
  0
LWPOLYLINE
  5
104
100
AcDbEntity
  8
Back_Silk
 62
7
100
AcDbPolyline
 90
48
 70
1
 10
38.915900
 20
71.949685
 30
0.0
 10
39.030900
 20
72.419685
 30
0.0
 10
39.289600
 20
72.869685
 30
0.0
 10
39.609000
 20
73.279685
 30
0.0
 10
39.904900
 20
73.649685
 30
0.0
 10
40.213000
 20
74.199685
 30
0.0
 10
40.384000
 20
74.749685
 30
0.0
 10
40.462700
 20
75.269685
 30
0.0
 10
40.515200
 20
75.759685
 30
0.0
 10
40.583000
 20
76.179685
 30
0.0
 10
40.739700
 20
76.519685
 30
0.0
 10
41.018600
 20
76.799685
 30
0.0
 10
41.361100
 20
76.969685
 30
0.0
 10
41.736500
 20
77.059685
 30
0.0
 10
42.119400
 20
77.059685
 30
0.0
 10
42.617800
 20
76.929685
 30
0.0
 10
43.001700
 20
76.569685
 30
0.0
 10
43.122600
 20
76.219685
 30
0.0
 10
43.213400
 20
75.749685
 30
0.0
 10
43.306700
 20
75.249685
 30
0.0
 10
43.429200
 20
74.809685
 30
0.0
 10
43.662500
 20
74.329685
 30
0.0
 10
43.918000
 20
73.919685
 30
0.0
 10
44.160500
 20
73.519685
 30
0.0
 10
44.362200
 20
73.089685
 30
0.0
 10
44.477500
 20
72.609685
 30
0.0
 10
44.483700
 20
72.009685
 30
0.0
 10
44.362900
 20
71.459685
 30
0.0
 10
44.119400
 20
71.039685
 30
0.0
 10
43.757500
 20
70.789685
 30
0.0
 10
43.279400
 20
70.739685
 30
0.0
 10
42.724500
 20
70.949685
 30
0.0
 10
42.378800
 20
71.349685
 30
0.0
 10
42.174800
 20
71.859685
 30
0.0
 10
42.045600
 20
72.349685
 30
0.0
 10
41.924400
 20
72.739685
 30
0.0
 10
41.750500
 20
72.899685
 30
0.0
 10
41.696200
 20
72.899685
 30
0.0
 10
41.652400
 20
72.879685
 30
0.0
 10
41.405800
 20
72.519685
 30
0.0
 10
41.288700
 20
72.039685
 30
0.0
 10
41.206000
 20
71.509685
 30
0.0
 10
41.050500
 20
71.039685
 30
0.0
 10
40.723900
 20
70.719685
 30
0.0
 10
40.132500
 20
70.619685
 30
0.0
 10
39.209100
 20
70.979685
 30
0.0
 10
38.915900
 20
71.949685
 30
0.0
 10
38.915900
 20
71.949685
 30
0.0
  0
LWPOLYLINE
  5
105
100
AcDbEntity
  8
Back_Silk
 62
7
100
AcDbPolyline
 90
18
 70
1
 10
41.425400
 20
74.499685
 30
0.0
 10
41.455600
 20
74.309685
 30
0.0
 10
41.568200
 20
74.179685
 30
0.0
 10
41.720700
 20
74.089685
 30
0.0
 10
41.882600
 20
74.059685
 30
0.0
 10
42.041400
 20
74.069685
 30
0.0
 10
42.210000
 20
74.119685
 30
0.0
 10
42.346300
 20
74.229685
 30
0.0
 10
42.408400
 20
74.399685
 30
0.0
 10
42.381500
 20
74.609685
 30
0.0
 10
42.286900
 20
74.809685
 30
0.0
 10
42.133200
 20
74.969685
 30
0.0
 10
41.941900
 20
75.039685
 30
0.0
 10
41.742400
 20
74.999685
 30
0.0
 10
41.579500
 20
74.869685
 30
0.0
 10
41.469100
 20
74.689685
 30
0.0
 10
41.425400
 20
74.499685
 30
0.0
 10
41.425400
 20
74.499685
 30
0.0
  0
LWPOLYLINE
  5
106
100
AcDbEntity
  8
Back_Silk
 62
7
100
AcDbPolyline
 90
37
 70
1
 10
44.893100
 20
75.719685
 30
0.0
 10
45.019100
 20
76.229685
 30
0.0
 10
45.271900
 20
76.559685
 30
0.0
 10
45.616000
 20
76.729685
 30
0.0
 10
46.032700
 20
76.749685
 30
0.0
 10
46.432900
 20
76.619685
 30
0.0
 10
46.725000
 20
76.379685
 30
0.0
 10
46.885500
 20
76.039685
 30
0.0
 10
46.914700
 20
75.649685
 30
0.0
 10
46.776200
 20
75.219685
 30
0.0
 10
46.536000
 20
74.749685
 30
0.0
 10
46.291800
 20
74.239685
 30
0.0
 10
46.143100
 20
73.639685
 30
0.0
 10
46.223700
 20
72.909685
 30
0.0
 10
46.616200
 20
72.579685
 30
0.0
 10
46.954700
 20
72.669685
 30
0.0
 10
47.231800
 20
72.939685
 30
0.0
 10
47.521200
 20
73.209685
 30
0.0
 10
47.887400
 20
73.289685
 30
0.0
 10
48.333200
 20
72.869685
 30
0.0
 10
48.383600
 20
71.899685
 30
0.0
 10
47.561300
 20
70.329685
 30
0.0
 10
45.759100
 20
70.019685
 30
0.0
 10
45.148800
 20
70.169685
 30
0.0
 10
44.750700
 20
70.429685
 30
0.0
 10
44.543000
 20
70.829685
 30
0.0
 10
44.517300
 20
71.389685
 30
0.0
 10
44.524300
 20
71.459685
 30
0.0
 10
44.615700
 20
72.009685
 30
0.0
 10
44.746000
 20
72.579685
 30
0.0
 10
44.885300
 20
73.169685
 30
0.0
 10
44.981000
 20
73.739685
 30
0.0
 10
44.985800
 20
74.259685
 30
0.0
 10
44.937100
 20
74.749685
 30
0.0
 10
44.886100
 20
75.219685
 30
0.0
 10
44.893100
 20
75.719685
 30
0.0
 10
44.893100
 20
75.719685
 30
0.0
  0
LWPOLYLINE
  5
107
100
AcDbEntity
  8
Back_Silk
 62
7
100
AcDbPolyline
 90
29
 70
0
 10
50.406000
 20
76.219685
 30
0.0
 10
51.055100
 20
75.889685
 30
0.0
 10
51.210100
 20
75.259685
 30
0.0
 10
51.096200
 20
74.849685
 30
0.0
 10
50.915300
 20
74.369685
 30
0.0
 10
50.727800
 20
73.829685
 30
0.0
 10
50.588800
 20
73.239685
 30
0.0
 10
50.591600
 20
72.619685
 30
0.0
 10
50.727900
 20
72.029685
 30
0.0
 10
50.855300
 20
71.439685
 30
0.0
 10
50.862600
 20
70.799685
 30
0.0
 10
50.857200
 20
70.759685
 30
0.0
 10
50.370800
 20
69.599685
 30
0.0
 10
49.427000
 20
69.339685
 30
0.0
 10
48.650800
 20
69.789685
 30
0.0
 10
48.453500
 20
70.689685
 30
0.0
 10
48.461200
 20
70.739685
 30
0.0
 10
48.614500
 20
71.289685
 30
0.0
 10
48.856600
 20
71.769685
 30
0.0
 10
49.108100
 20
72.299685
 30
0.0
 10
49.291000
 20
72.989685
 30
0.0
 10
49.316500
 20
73.639685
 30
0.0
 10
49.239800
 20
74.189685
 30
0.0
 10
49.155100
 20
74.689685
 30
0.0
 10
49.162300
 20
75.239685
 30
0.0
 10
49.557000
 20
76.049685
 30
0.0
 10
50.406100
 20
76.219685
 30
0.0
 10
50.406100
 20
76.219685
 30
0.0
 10
50.406100
 20
76.219685
 30
0.0
  0
LWPOLYLINE
  5
108
100
AcDbEntity
  8
Back_Silk
 62
7
100
AcDbPolyline
 90
77
 70
1
 10
51.715700
 20
74.739685
 30
0.0
 10
51.823900
 20
75.109685
 30
0.0
 10
52.048200
 20
75.449685
 30
0.0
 10
52.389400
 20
75.689685
 30
0.0
 10
52.770000
 20
75.739685
 30
0.0
 10
52.830300
 20
75.729685
 30
0.0
 10
53.369600
 20
75.409685
 30
0.0
 10
53.484600
 20
74.759685
 30
0.0
 10
53.406800
 20
74.459685
 30
0.0
 10
53.301200
 20
74.209685
 30
0.0
 10
53.206500
 20
73.989685
 30
0.0
 10
53.148100
 20
73.789685
 30
0.0
 10
53.152100
 20
73.669685
 30
0.0
 10
53.259400
 20
73.599685
 30
0.0
 10
53.511000
 20
73.689685
 30
0.0
 10
53.781300
 20
73.989685
 30
0.0
 10
54.077100
 20
74.379685
 30
0.0
 10
54.417100
 20
74.769685
 30
0.0
 10
54.807200
 20
75.039685
 30
0.0
 10
55.259800
 20
75.089685
 30
0.0
 10
55.567800
 20
74.939685
 30
0.0
 10
55.763700
 20
74.669685
 30
0.0
 10
55.853600
 20
74.309685
 30
0.0
 10
55.831300
 20
73.899685
 30
0.0
 10
55.594500
 20
73.419685
 30
0.0
 10
55.176300
 20
73.129685
 30
0.0
 10
54.671300
 20
72.969685
 30
0.0
 10
54.185400
 20
72.859685
 30
0.0
 10
53.806000
 20
72.759685
 30
0.0
 10
53.631900
 20
72.579685
 30
0.0
 10
53.738300
 20
72.309685
 30
0.0
 10
54.057900
 20
71.949685
 30
0.0
 10
54.473300
 20
71.529685
 30
0.0
 10
54.873300
 20
71.009685
 30
0.0
 10
55.135300
 20
70.399685
 30
0.0
 10
55.150900
 20
69.689685
 30
0.0
 10
55.008300
 20
69.299685
 30
0.0
 10
54.747200
 20
68.949685
 30
0.0
 10
54.372900
 20
68.719685
 30
0.0
 10
53.900400
 20
68.699685
 30
0.0
 10
53.603200
 20
68.849685
 30
0.0
 10
53.362400
 20
69.109685
 30
0.0
 10
53.206000
 20
69.449685
 30
0.0
 10
53.144700
 20
69.819685
 30
0.0
 10
53.171100
 20
70.279685
 30
0.0
 10
53.246400
 20
70.709685
 30
0.0
 10
53.310800
 20
71.069685
 30
0.0
 10
53.316800
 20
71.349685
 30
0.0
 10
53.283100
 20
71.509685
 30
0.0
 10
53.235000
 20
71.689685
 30
0.0
 10
53.146300
 20
71.849685
 30
0.0
 10
52.990800
 20
71.939685
 30
0.0
 10
52.799500
 20
71.859685
 30
0.0
 10
52.712000
 20
71.599685
 30
0.0
 10
52.734700
 20
71.199685
 30
0.0
 10
52.858000
 20
70.779685
 30
0.0
 10
52.981200
 20
70.339685
 30
0.0
 10
52.987000
 20
69.849685
 30
0.0
 10
52.832900
 20
69.459685
 30
0.0
 10
52.545000
 20
69.149685
 30
0.0
 10
52.156400
 20
68.979685
 30
0.0
 10
51.700100
 20
68.979685
 30
0.0
 10
51.649100
 20
68.989685
 30
0.0
 10
51.649100
 20
68.989685
 30
0.0
 10
51.302300
 20
69.149685
 30
0.0
 10
50.999100
 20
69.459685
 30
0.0
 10
50.824000
 20
69.859685
 30
0.0
 10
50.806100
 20
70.319685
 30
0.0
 10
50.975100
 20
70.819685
 30
0.0
 10
51.253400
 20
71.309685
 30
0.0
 10
51.543700
 20
71.819685
 30
0.0
 10
51.732500
 20
72.419685
 30
0.0
 10
51.755500
 20
72.939685
 30
0.0
 10
51.701600
 20
73.449685
 30
0.0
 10
51.662600
 20
74.019685
 30
0.0
 10
51.715600
 20
74.739685
 30
0.0
 10
51.715600
 20
74.739685
 30
0.0
  0
LWPOLYLINE
  5
109
100
AcDbEntity
  8
Back_Silk
 62
7
100
AcDbPolyline
 90
58
 70
1
 10
57.795800
 20
74.719685
 30
0.0
 10
58.569800
 20
74.499685
 30
0.0
 10
59.162800
 20
74.209685
 30
0.0
 10
59.523600
 20
73.849685
 30
0.0
 10
59.574900
 20
73.369685
 30
0.0
 10
59.396600
 20
72.979685
 30
0.0
 10
59.125800
 20
72.799685
 30
0.0
 10
58.790600
 20
72.749685
 30
0.0
 10
58.426100
 20
72.759685
 30
0.0
 10
58.067800
 20
72.769685
 30
0.0
 10
57.746200
 20
72.709685
 30
0.0
 10
57.616500
 20
72.639685
 30
0.0
 10
57.533700
 20
72.509685
 30
0.0
 10
57.543400
 20
72.379685
 30
0.0
 10
57.624400
 20
72.289685
 30
0.0
 10
57.732000
 20
72.239685
 30
0.0
 10
57.843800
 20
72.199685
 30
0.0
 10
58.180600
 20
72.129685
 30
0.0
 10
58.491600
 20
71.979685
 30
0.0
 10
58.646800
 20
71.769685
 30
0.0
 10
58.699800
 20
71.509685
 30
0.0
 10
58.554500
 20
71.299685
 30
0.0
 10
58.293600
 20
71.229685
 30
0.0
 10
57.978800
 20
71.209685
 30
0.0
 10
57.659900
 20
71.199685
 30
0.0
 10
57.406200
 20
71.149685
 30
0.0
 10
57.277000
 20
70.979685
 30
0.0
 10
57.342300
 20
70.649685
 30
0.0
 10
57.606300
 20
70.499685
 30
0.0
 10
57.887700
 20
70.459685
 30
0.0
 10
58.175100
 20
70.439685
 30
0.0
 10
58.456800
 20
70.429685
 30
0.0
 10
58.743900
 20
70.379685
 30
0.0
 10
59.091800
 20
70.199685
 30
0.0
 10
59.265000
 20
69.909685
 30
0.0
 10
59.291800
 20
69.519685
 30
0.0
 10
59.217500
 20
69.079685
 30
0.0
 10
58.787600
 20
68.239685
 30
0.0
 10
58.121700
 20
67.879685
 30
0.0
 10
57.341800
 20
67.839685
 30
0.0
 10
56.565100
 20
67.969685
 30
0.0
 10
55.949500
 20
68.179685
 30
0.0
 10
55.462200
 20
68.539685
 30
0.0
 10
55.180800
 20
69.069685
 30
0.0
 10
55.178100
 20
69.799685
 30
0.0
 10
55.368900
 20
70.309685
 30
0.0
 10
55.648300
 20
70.729685
 30
0.0
 10
55.935200
 20
71.159685
 30
0.0
 10
56.134800
 20
71.689685
 30
0.0
 10
56.199900
 20
72.329685
 30
0.0
 10
56.182600
 20
72.869685
 30
0.0
 10
56.150000
 20
73.369685
 30
0.0
 10
56.195600
 20
73.889685
 30
0.0
 10
56.415000
 20
74.399685
 30
0.0
 10
56.802600
 20
74.679685
 30
0.0
 10
57.282200
 20
74.779685
 30
0.0
 10
57.795800
 20
74.719685
 30
0.0
 10
57.795800
 20
74.719685
 30
0.0
  0
LWPOLYLINE
  5
10a
100
AcDbEntity
  8
Back_Silk
 62
7
100
AcDbPolyline
 90
51
 70
1
 10
62.600700
 20
73.319685
 30
0.0
 10
62.954100
 20
73.199685
 30
0.0
 10
63.362500
 20
73.009685
 30
0.0
 10
63.754800
 20
72.769685
 30
0.0
 10
64.074500
 20
72.469685
 30
0.0
 10
64.249600
 20
72.089685
 30
0.0
 10
64.234900
 20
71.659685
 30
0.0
 10
63.979200
 20
71.199685
 30
0.0
 10
63.519900
 20
71.169685
 30
0.0
 10
63.267200
 20
71.309685
 30
0.0
 10
63.050200
 20
71.499685
 30
0.0
 10
62.836300
 20
71.679685
 30
0.0
 10
62.583400
 20
71.819685
 30
0.0
 10
62.310200
 20
71.809685
 30
0.0
 10
62.142600
 20
71.609685
 30
0.0
 10
62.250100
 20
71.309685
 30
0.0
 10
62.621400
 20
70.939685
 30
0.0
 10
63.110900
 20
70.489685
 30
0.0
 10
63.570200
 20
69.959685
 30
0.0
 10
63.856900
 20
69.329685
 30
0.0
 10
63.834100
 20
68.609685
 30
0.0
 10
63.354700
 20
67.619685
 30
0.0
 10
62.658400
 20
67.039685
 30
0.0
 10
61.781100
 20
66.839685
 30
0.0
 10
60.750200
 20
66.999685
 30
0.0
 10
60.113300
 20
67.339685
 30
0.0
 10
59.634500
 20
67.929685
 30
0.0
 10
59.378000
 20
68.679685
 30
0.0
 10
59.415800
 20
69.529685
 30
0.0
 10
59.551400
 20
69.889685
 30
0.0
 10
59.775900
 20
70.199685
 30
0.0
 10
60.072100
 20
70.399685
 30
0.0
 10
60.418800
 20
70.409685
 30
0.0
 10
60.730000
 20
70.229685
 30
0.0
 10
61.004200
 20
69.949685
 30
0.0
 10
61.274900
 20
69.669685
 30
0.0
 10
61.601100
 20
69.489685
 30
0.0
 10
61.915700
 20
69.589685
 30
0.0
 10
61.827800
 20
69.869685
 30
0.0
 10
61.503800
 20
70.209685
 30
0.0
 10
61.076200
 20
70.629685
 30
0.0
 10
60.664700
 20
71.119685
 30
0.0
 10
60.400000
 20
71.719685
 30
0.0
 10
60.406300
 20
72.429685
 30
0.0
 10
60.590500
 20
72.819685
 30
0.0
 10
60.911300
 20
73.099685
 30
0.0
 10
61.325800
 20
73.289685
 30
0.0
 10
61.776100
 20
73.379685
 30
0.0
 10
62.213000
 20
73.379685
 30
0.0
 10
62.600700
 20
73.319685
 30
0.0
 10
62.600700
 20
73.319685
 30
0.0
  0
LWPOLYLINE
  5
10b
100
AcDbEntity
  8
Back_Silk
 62
7
100
AcDbPolyline
 90
38
 70
1
 10
64.218900
 20
69.119685
 30
0.0
 10
64.499100
 20
69.909685
 30
0.0
 10
64.883800
 20
70.649685
 30
0.0
 10
65.369700
 20
71.279685
 30
0.0
 10
65.964400
 20
71.739685
 30
0.0
 10
66.659400
 20
71.939685
 30
0.0
 10
67.462100
 20
71.809685
 30
0.0
 10
67.862100
 20
71.599685
 30
0.0
 10
68.263700
 20
71.259685
 30
0.0
 10
68.527400
 20
70.819685
 30
0.0
 10
68.527200
 20
70.319685
 30
0.0
 10
68.342000
 20
70.079685
 30
0.0
 10
68.053400
 20
70.019685
 30
0.0
 10
67.689200
 20
70.059685
 30
0.0
 10
67.293400
 20
70.139685
 30
0.0
 10
66.878800
 20
70.179685
 30
0.0
 10
66.489000
 20
70.109685
 30
0.0
 10
66.148900
 20
69.859685
 30
0.0
 10
65.895700
 20
69.379685
 30
0.0
 10
65.825000
 20
69.079685
 30
0.0
 10
65.834100
 20
68.809685
 30
0.0
 10
65.942600
 20
68.589685
 30
0.0
 10
66.168000
 20
68.439685
 30
0.0
 10
66.484800
 20
68.369685
 30
0.0
 10
66.823900
 20
68.369685
 30
0.0
 10
67.155500
 20
68.359685
 30
0.0
 10
67.486200
 20
68.289685
 30
0.0
 10
67.775900
 20
68.079685
 30
0.0
 10
67.889700
 20
67.799685
 30
0.0
 10
67.860100
 20
67.469685
 30
0.0
 10
67.748000
 20
67.089685
 30
0.0
 10
66.752600
 20
65.679685
 30
0.0
 10
65.274000
 20
65.599685
 30
0.0
 10
64.418200
 20
66.159685
 30
0.0
 10
64.016200
 20
66.959685
 30
0.0
 10
63.974100
 20
67.969685
 30
0.0
 10
64.218900
 20
69.119685
 30
0.0
 10
64.218900
 20
69.119685
 30
0.0
  0
LWPOLYLINE
  5
10c
100
AcDbEntity
  8
Back_Silk
 62
7
100
AcDbPolyline
 90
75
 70
0
 10
70.415500
 20
66.129685
 30
0.0
 10
70.291000
 20
66.729685
 30
0.0
 10
70.291000
 20
66.729685
 30
0.0
 10
70.249500
 20
66.749685
 30
0.0
 10
69.887400
 20
66.769685
 30
0.0
 10
69.636200
 20
66.449685
 30
0.0
 10
69.551700
 20
66.119685
 30
0.0
 10
69.521300
 20
65.769685
 30
0.0
 10
69.489800
 20
65.419685
 30
0.0
 10
69.403600
 20
65.069685
 30
0.0
 10
69.195500
 20
64.649685
 30
0.0
 10
68.900200
 20
64.289685
 30
0.0
 10
68.515300
 20
64.109685
 30
0.0
 10
68.017700
 20
64.179685
 30
0.0
 10
67.599100
 20
64.509685
 30
0.0
 10
67.419500
 20
64.979685
 30
0.0
 10
67.408600
 20
65.509685
 30
0.0
 10
67.527000
 20
66.029685
 30
0.0
 10
67.543600
 20
66.069685
 30
0.0
 10
67.773700
 20
66.499685
 30
0.0
 10
68.098400
 20
66.889685
 30
0.0
 10
68.431800
 20
67.329685
 30
0.0
 10
68.703100
 20
67.829685
 30
0.0
 10
68.825600
 20
68.329685
 30
0.0
 10
68.876000
 20
68.859685
 30
0.0
 10
68.924300
 20
69.389685
 30
0.0
 10
69.050100
 20
69.919685
 30
0.0
 10
69.223600
 20
70.279685
 30
0.0
 10
69.469900
 20
70.509685
 30
0.0
 10
69.804800
 20
70.589685
 30
0.0
 10
70.265000
 20
70.459685
 30
0.0
 10
70.570100
 20
70.189685
 30
0.0
 10
70.636200
 20
69.799685
 30
0.0
 10
70.529300
 20
69.419685
 30
0.0
 10
70.374800
 20
69.019685
 30
0.0
 10
70.222800
 20
68.639685
 30
0.0
 10
70.136500
 20
68.279685
 30
0.0
 10
70.186600
 20
67.979685
 30
0.0
 10
70.424300
 20
67.779685
 30
0.0
 10
70.697500
 20
67.729685
 30
0.0
 10
70.697500
 20
67.729685
 30
0.0
 10
70.784000
 20
67.759685
 30
0.0
 10
71.039300
 20
68.039685
 30
0.0
 10
71.098100
 20
68.249685
 30
0.0
 10
71.141200
 20
68.499685
 30
0.0
 10
71.202700
 20
68.789685
 30
0.0
 10
71.305200
 20
69.109685
 30
0.0
 10
71.735800
 20
69.689685
 30
0.0
 10
72.311900
 20
69.689685
 30
0.0
 10
72.785600
 20
69.119685
 30
0.0
 10
72.620800
 20
68.189685
 30
0.0
 10
72.469800
 20
67.899685
 30
0.0
 10
72.288200
 20
67.579685
 30
0.0
 10
72.107100
 20
67.259685
 30
0.0
 10
71.965300
 20
66.959685
 30
0.0
 10
71.826100
 20
66.489685
 30
0.0
 10
71.762600
 20
66.029685
 30
0.0
 10
71.727500
 20
65.599685
 30
0.0
 10
71.705500
 20
65.139685
 30
0.0
 10
71.648000
 20
64.669685
 30
0.0
 10
71.497200
 20
64.189685
 30
0.0
 10
71.202400
 20
63.699685
 30
0.0
 10
70.839000
 20
63.349685
 30
0.0
 10
70.424900
 20
63.199685
 30
0.0
 10
69.974700
 20
63.279685
 30
0.0
 10
69.606500
 20
63.569685
 30
0.0
 10
69.456900
 20
63.929685
 30
0.0
 10
69.478100
 20
64.349685
 30
0.0
 10
69.614200
 20
64.779685
 30
0.0
 10
69.632500
 20
64.819685
 30
0.0
 10
69.816900
 20
65.179685
 30
0.0
 10
70.034300
 20
65.509685
 30
0.0
 10
70.247400
 20
65.819685
 30
0.0
 10
70.415100
 20
66.129685
 30
0.0
 10
70.415100
 20
66.129685
 30
0.0
  0
LWPOLYLINE
  5
10d
100
AcDbEntity
  8
Back_Silk
 62
7
100
AcDbPolyline
 90
1
 70
1
 10
70.415500
 20
66.129685
 30
0.0
  0
LWPOLYLINE
  5
10e
100
AcDbEntity
  8
Back_Silk
 62
7
100
AcDbPolyline
 90
58
 70
0
 10
75.239500
 20
68.229685
 30
0.0
 10
75.962400
 20
67.759685
 30
0.0
 10
76.484100
 20
67.289685
 30
0.0
 10
76.747600
 20
66.819685
 30
0.0
 10
76.669800
 20
66.339685
 30
0.0
 10
76.388300
 20
66.029685
 30
0.0
 10
76.072600
 20
65.949685
 30
0.0
 10
75.729800
 20
66.009685
 30
0.0
 10
75.375500
 20
66.139685
 30
0.0
 10
75.026400
 20
66.259685
 30
0.0
 10
74.696100
 20
66.299685
 30
0.0
 10
74.549900
 20
66.269685
 30
0.0
 10
74.437900
 20
66.169685
 30
0.0
 10
74.414500
 20
66.039685
 30
0.0
 10
74.470500
 20
65.929685
 30
0.0
 10
74.561400
 20
65.849685
 30
0.0
 10
74.661600
 20
65.779685
 30
0.0
 10
74.971600
 20
65.609685
 30
0.0
 10
75.232200
 20
65.359685
 30
0.0
 10
75.327500
 20
65.119685
 30
0.0
 10
75.306600
 20
64.849685
 30
0.0
 10
75.112300
 20
64.699685
 30
0.0
 10
74.841000
 20
64.709685
 30
0.0
 10
74.535100
 20
64.789685
 30
0.0
 10
74.227100
 20
64.869685
 30
0.0
 10
73.969900
 20
64.899685
 30
0.0
 10
73.802700
 20
64.769685
 30
0.0
 10
73.779900
 20
64.429685
 30
0.0
 10
73.991700
 20
64.209685
 30
0.0
 10
74.247900
 20
64.089685
 30
0.0
 10
74.516400
 20
63.989685
 30
0.0
 10
74.779200
 20
63.889685
 30
0.0
 10
75.038100
 20
63.759685
 30
0.0
 10
75.313300
 20
63.479685
 30
0.0
 10
75.390700
 20
63.149685
 30
0.0
 10
75.302400
 20
62.769685
 30
0.0
 10
75.101600
 20
62.379685
 30
0.0
 10
74.457700
 20
61.719685
 30
0.0
 10
73.747000
 20
61.569685
 30
0.0
 10
73.029000
 20
61.739685
 30
0.0
 10
72.356200
 20
62.069685
 30
0.0
 10
71.846200
 20
62.439685
 30
0.0
 10
71.482600
 20
62.899685
 30
0.0
 10
71.346500
 20
63.479685
 30
0.0
 10
71.515900
 20
64.189685
 30
0.0
 10
71.816200
 20
64.629685
 30
0.0
 10
72.182800
 20
64.969685
 30
0.0
 10
72.557800
 20
65.309685
 30
0.0
 10
72.877100
 20
65.769685
 30
0.0
 10
73.090300
 20
66.369685
 30
0.0
 10
73.199300
 20
66.899685
 30
0.0
 10
73.282700
 20
67.399685
 30
0.0
 10
73.446400
 20
67.889685
 30
0.0
 10
73.779100
 20
68.319685
 30
0.0
 10
74.232200
 20
68.479685
 30
0.0
 10
74.736400
 20
68.439685
 30
0.0
 10
75.239300
 20
68.229685
 30
0.0
 10
75.239300
 20
68.229685
 30
0.0
  0
LWPOLYLINE
  5
10f
100
AcDbEntity
  8
Back_Silk
 62
7
100
AcDbPolyline
 90
1
 70
1
 10
75.239400
 20
68.229685
 30
0.0
  0
LWPOLYLINE
  5
110
100
AcDbEntity
  8
Back_Silk
 62
7
100
AcDbPolyline
 90
18
 70
0
 10
79.133800
 20
65.679685
 30
0.0
 10
79.342900
 20
65.509685
 30
0.0
 10
79.819100
 20
65.099685
 30
0.0
 10
80.296900
 20
64.539685
 30
0.0
 10
80.506600
 20
64.019685
 30
0.0
 10
80.365800
 20
63.559685
 30
0.0
 10
80.039100
 20
63.299685
 30
0.0
 10
79.708600
 20
63.269685
 30
0.0
 10
79.370300
 20
63.389685
 30
0.0
 10
79.029100
 20
63.579685
 30
0.0
 10
78.692300
 20
63.749685
 30
0.0
 10
78.365200
 20
63.839685
 30
0.0
 10
78.214200
 20
63.829685
 30
0.0
 10
78.188400
 20
63.819685
 30
0.0
 10
78.188400
 20
63.819685
 30
0.0
 10
78.090800
 20
63.749685
 30
0.0
 10
78.051800
 20
63.619685
 30
0.0
 10
78.051800
 20
63.619685
 30
0.0
  0
LWPOLYLINE
  5
111
100
AcDbEntity
  8
Back_Silk
 62
7
100
AcDbPolyline
 90
47
 70
0
 10
78.052300
 20
63.619685
 30
0.0
 10
78.094500
 20
63.499685
 30
0.0
 10
78.175200
 20
63.409685
 30
0.0
 10
78.267300
 20
63.329685
 30
0.0
 10
78.556700
 20
63.109685
 30
0.0
 10
78.786000
 20
62.819685
 30
0.0
 10
78.848800
 20
62.569685
 30
0.0
 10
78.791000
 20
62.299685
 30
0.0
 10
78.577300
 20
62.179685
 30
0.0
 10
78.308300
 20
62.229685
 30
0.0
 10
78.015100
 20
62.359685
 30
0.0
 10
77.720700
 20
62.489685
 30
0.0
 10
77.468800
 20
62.549685
 30
0.0
 10
77.287400
 20
62.449685
 30
0.0
 10
77.221900
 20
62.119685
 30
0.0
 10
77.401800
 20
61.869685
 30
0.0
 10
77.637900
 20
61.709685
 30
0.0
 10
77.888900
 20
61.569685
 30
0.0
 10
78.134200
 20
61.439685
 30
0.0
 10
78.370400
 20
61.269685
 30
0.0
 10
78.598400
 20
60.939685
 30
0.0
 10
78.622200
 20
60.599685
 30
0.0
 10
78.475600
 20
60.249685
 30
0.0
 10
78.214400
 20
59.899685
 30
0.0
 10
77.481200
 20
59.349685
 30
0.0
 10
76.774700
 20
59.299685
 30
0.0
 10
76.115900
 20
59.569685
 30
0.0
 10
75.552100
 20
59.959685
 30
0.0
 10
75.520700
 20
59.979685
 30
0.0
 10
75.078500
 20
60.399685
 30
0.0
 10
74.786500
 20
60.899685
 30
0.0
 10
74.724500
 20
61.479685
 30
0.0
 10
74.971400
 20
62.159685
 30
0.0
 10
75.315700
 20
62.569685
 30
0.0
 10
75.714300
 20
62.859685
 30
0.0
 10
76.121900
 20
63.149685
 30
0.0
 10
76.490300
 20
63.569685
 30
0.0
 10
76.768700
 20
64.129685
 30
0.0
 10
76.934700
 20
64.639685
 30
0.0
 10
77.070300
 20
65.129685
 30
0.0
 10
77.285600
 20
65.589685
 30
0.0
 10
77.664600
 20
65.979685
 30
0.0
 10
78.140000
 20
66.079685
 30
0.0
 10
78.646200
 20
65.959685
 30
0.0
 10
79.133700
 20
65.679685
 30
0.0
 10
79.133700
 20
65.679685
 30
0.0
 10
79.133700
 20
65.679685
 30
0.0
  0
LWPOLYLINE
  5
112
100
AcDbEntity
  8
Back_Silk
 62
7
100
AcDbPolyline
 90
57
 70
0
 10
78.917800
 20
57.549685
 30
0.0
 10
78.699300
 20
57.859685
 30
0.0
 10
78.482000
 20
58.209685
 30
0.0
 10
78.290200
 20
58.589685
 30
0.0
 10
78.154700
 20
58.969685
 30
0.0
 10
78.131500
 20
59.429685
 30
0.0
 10
78.375400
 20
59.869685
 30
0.0
 10
78.909900
 20
60.299685
 30
0.0
 10
79.552200
 20
60.519685
 30
0.0
 10
80.233200
 20
60.609685
 30
0.0
 10
80.905200
 20
60.649685
 30
0.0
 10
81.488300
 20
60.709685
 30
0.0
 10
81.933100
 20
60.929685
 30
0.0
 10
82.024300
 20
61.069685
 30
0.0
 10
81.964400
 20
61.239685
 30
0.0
 10
81.756400
 20
61.389685
 30
0.0
 10
81.513700
 20
61.469685
 30
0.0
 10
81.271300
 20
61.549685
 30
0.0
 10
81.071100
 20
61.679685
 30
0.0
 10
80.943100
 20
61.929685
 30
0.0
 10
80.942100
 20
62.199685
 30
0.0
 10
81.032100
 20
62.469685
 30
0.0
 10
81.183600
 20
62.689685
 30
0.0
 10
81.584100
 20
62.899685
 30
0.0
 10
82.026700
 20
62.769685
 30
0.0
 10
82.460700
 20
62.429685
 30
0.0
 10
82.822000
 20
62.039685
 30
0.0
 10
83.094900
 20
61.709685
 30
0.0
 10
83.445200
 20
61.249685
 30
0.0
 10
83.769600
 20
60.699685
 30
0.0
 10
83.984000
 20
60.139685
 30
0.0
 10
83.995200
 20
59.629685
 30
0.0
 10
83.732100
 20
59.249685
 30
0.0
 10
83.312400
 20
59.099685
 30
0.0
 10
82.833100
 20
59.109685
 30
0.0
 10
82.322100
 20
59.189685
 30
0.0
 10
81.794200
 20
59.289685
 30
0.0
 10
81.291200
 20
59.349685
 30
0.0
 10
80.841600
 20
59.319685
 30
0.0
 10
80.772100
 20
59.299685
 30
0.0
 10
80.710400
 20
59.269685
 30
0.0
 10
80.694300
 20
59.209685
 30
0.0
 10
80.723300
 20
59.169685
 30
0.0
 10
80.959100
 20
58.979685
 30
0.0
 10
81.274200
 20
58.819685
 30
0.0
 10
81.589600
 20
58.659685
 30
0.0
 10
81.807200
 20
58.469685
 30
0.0
 10
81.851400
 20
58.079685
 30
0.0
 10
81.641800
 20
57.659685
 30
0.0
 10
81.306000
 20
57.279685
 30
0.0
 10
80.989300
 20
57.019685
 30
0.0
 10
80.301000
 20
56.759685
 30
0.0
 10
79.752800
 20
56.839685
 30
0.0
 10
79.296900
 20
57.139685
 30
0.0
 10
78.918100
 20
57.549685
 30
0.0
 10
78.918100
 20
57.549685
 30
0.0
 10
78.918100
 20
57.549685
 30
0.0
  0
LWPOLYLINE
  5
113
100
AcDbEntity
  8
Back_Silk
 62
7
100
AcDbPolyline
 90
24
 70
1
 10
10.304100
 20
0.619685
 30
0.0
 10
10.036700
 20
1.779685
 30
0.0
 10
10.287200
 20
2.939685
 30
0.0
 10
10.950100
 20
3.979685
 30
0.0
 10
11.890800
 20
4.799685
 30
0.0
 10
12.877700
 20
5.249685
 30
0.0
 10
13.830200
 20
5.349685
 30
0.0
 10
14.653200
 20
5.089685
 30
0.0
 10
15.240100
 20
4.439685
 30
0.0
 10
15.396900
 20
4.009685
 30
0.0
 10
15.431200
 20
3.539685
 30
0.0
 10
15.291200
 20
3.079685
 30
0.0
 10
14.914200
 20
2.659685
 30
0.0
 10
14.554500
 20
2.439685
 30
0.0
 10
14.156000
 20
2.229685
 30
0.0
 10
13.749200
 20
2.029685
 30
0.0
 10
13.383300
 20
1.799685
 30
0.0
 10
12.989400
 20
1.469685
 30
0.0
 10
12.625000
 20
1.089685
 30
0.0
 10
12.256300
 20
0.709685
 30
0.0
 10
11.859000
 20
0.369685
 30
0.0
 10
10.968600
 20
0.049685
 30
0.0
 10
10.304100
 20
0.619685
 30
0.0
 10
10.304100
 20
0.619685
 30
0.0
  0
LWPOLYLINE
  5
114
100
AcDbEntity
  8
Back_Silk
 62
7
100
AcDbPolyline
 90
18
 70
1
 10
11.396600
 20
2.079685
 30
0.0
 10
11.554800
 20
1.949685
 30
0.0
 10
11.770800
 20
1.969685
 30
0.0
 10
12.005200
 20
2.079685
 30
0.0
 10
12.200600
 20
2.209685
 30
0.0
 10
12.393400
 20
2.349685
 30
0.0
 10
12.618000
 20
2.539685
 30
0.0
 10
12.773200
 20
2.759685
 30
0.0
 10
12.774000
 20
2.979685
 30
0.0
 10
12.611800
 20
3.149685
 30
0.0
 10
12.362300
 20
3.219685
 30
0.0
 10
12.079300
 20
3.179685
 30
0.0
 10
11.783400
 20
3.039685
 30
0.0
 10
11.587800
 20
2.849685
 30
0.0
 10
11.433100
 20
2.599685
 30
0.0
 10
11.357000
 20
2.329685
 30
0.0
 10
11.396600
 20
2.079685
 30
0.0
 10
11.396600
 20
2.079685
 30
0.0
  0
LWPOLYLINE
  5
115
100
AcDbEntity
  8
Back_Silk
 62
7
100
AcDbPolyline
 90
20
 70
1
 10
8.172510
 20
5.179685
 30
0.0
 10
8.049140
 20
5.789685
 30
0.0
 10
8.147820
 20
6.439685
 30
0.0
 10
8.444270
 20
7.079685
 30
0.0
 10
8.890050
 20
7.669685
 30
0.0
 10
9.445080
 20
8.189685
 30
0.0
 10
10.062500
 20
8.609685
 30
0.0
 10
11.025500
 20
8.969685
 30
0.0
 10
11.940700
 20
8.999685
 30
0.0
 10
12.707200
 20
8.689685
 30
0.0
 10
13.240200
 20
7.999685
 30
0.0
 10
13.382500
 20
7.209685
 30
0.0
 10
13.170800
 20
6.419685
 30
0.0
 10
12.648000
 20
5.659685
 30
0.0
 10
11.841300
 20
5.009685
 30
0.0
 10
10.719700
 20
4.479685
 30
0.0
 10
9.646400
 20
4.309685
 30
0.0
 10
8.748360
 20
4.529685
 30
0.0
 10
8.172510
 20
5.179685
 30
0.0
 10
8.172510
 20
5.179685
 30
0.0
  0
LWPOLYLINE
  5
116
100
AcDbEntity
  8
Back_Silk
 62
7
100
AcDbPolyline
 90
14
 70
1
 10
10.608800
 20
5.919685
 30
0.0
 10
10.883600
 20
6.269685
 30
0.0
 10
10.846800
 20
6.749685
 30
0.0
 10
10.581300
 20
7.019685
 30
0.0
 10
10.194200
 20
6.959685
 30
0.0
 10
9.999650
 20
6.789685
 30
0.0
 10
9.875520
 20
6.589685
 30
0.0
 10
9.830830
 20
6.359685
 30
0.0
 10
9.873100
 20
6.139685
 30
0.0
 10
10.004900
 20
5.959685
 30
0.0
 10
10.186000
 20
5.859685
 30
0.0
 10
10.390700
 20
5.839685
 30
0.0
 10
10.608800
 20
5.919685
 30
0.0
 10
10.608800
 20
5.919685
 30
0.0
  0
LWPOLYLINE
  5
117
100
AcDbEntity
  8
Back_Silk
 62
7
100
AcDbPolyline
 90
66
 70
1
 10
7.052070
 20
8.249685
 30
0.0
 10
7.004500
 20
8.669685
 30
0.0
 10
7.254080
 20
9.039685
 30
0.0
 10
7.460000
 20
9.229685
 30
0.0
 10
7.764140
 20
9.529685
 30
0.0
 10
8.101010
 20
9.879685
 30
0.0
 10
8.400760
 20
10.249685
 30
0.0
 10
8.604820
 20
10.569685
 30
0.0
 10
8.640610
 20
10.809685
 30
0.0
 10
8.533960
 20
10.879685
 30
0.0
 10
8.340960
 20
10.869685
 30
0.0
 10
8.137560
 20
10.809685
 30
0.0
 10
7.994250
 20
10.749685
 30
0.0
 10
7.710890
 20
10.569685
 30
0.0
 10
7.441700
 20
10.349685
 30
0.0
 10
7.183880
 20
10.129685
 30
0.0
 10
6.900920
 20
9.949685
 30
0.0
 10
6.341600
 20
9.879685
 30
0.0
 10
5.993800
 20
10.299685
 30
0.0
 10
5.957900
 20
10.559685
 30
0.0
 10
6.020040
 20
10.839685
 30
0.0
 10
6.164070
 20
11.099685
 30
0.0
 10
6.383070
 20
11.279685
 30
0.0
 10
7.159880
 20
11.609685
 30
0.0
 10
7.936480
 20
11.949685
 30
0.0
 10
8.398380
 20
12.239685
 30
0.0
 10
8.826280
 20
12.579685
 30
0.0
 10
9.252760
 20
12.939685
 30
0.0
 10
9.709910
 20
13.219685
 30
0.0
 10
10.180600
 20
13.399685
 30
0.0
 10
10.591800
 20
13.429685
 30
0.0
 10
10.924900
 20
13.299685
 30
0.0
 10
11.152600
 20
12.959685
 30
0.0
 10
11.193400
 20
12.529685
 30
0.0
 10
11.033500
 20
12.129685
 30
0.0
 10
10.728200
 20
11.769685
 30
0.0
 10
10.332300
 20
11.499685
 30
0.0
 10
9.990390
 20
11.269685
 30
0.0
 10
9.619250
 20
10.909685
 30
0.0
 10
9.333520
 20
10.539685
 30
0.0
 10
9.258100
 20
10.269685
 30
0.0
 10
9.319680
 20
10.219685
 30
0.0
 10
9.413510
 20
10.209685
 30
0.0
 10
9.515870
 20
10.239685
 30
0.0
 10
9.599050
 20
10.289685
 30
0.0
 10
9.872860
 20
10.489685
 30
0.0
 10
10.124900
 20
10.759685
 30
0.0
 10
10.403100
 20
11.039685
 30
0.0
 10
10.755400
 20
11.279685
 30
0.0
 10
11.156700
 20
11.419685
 30
0.0
 10
11.530300
 20
11.409685
 30
0.0
 10
11.837700
 20
11.259685
 30
0.0
 10
12.049500
 20
10.949685
 30
0.0
 10
12.105500
 20
10.569685
 30
0.0
 10
12.002400
 20
10.189685
 30
0.0
 10
11.770500
 20
9.849685
 30
0.0
 10
11.428300
 20
9.579685
 30
0.0
 10
10.756300
 20
9.279685
 30
0.0
 10
10.075400
 20
9.059685
 30
0.0
 10
9.386060
 20
8.829685
 30
0.0
 10
8.717900
 20
8.539685
 30
0.0
 10
8.253960
 20
8.229685
 30
0.0
 10
7.837800
 20
7.939685
 30
0.0
 10
7.358950
 20
7.899685
 30
0.0
 10
7.052060
 20
8.249685
 30
0.0
 10
7.052060
 20
8.249685
 30
0.0
  0
LWPOLYLINE
  5
118
100
AcDbEntity
  8
Back_Silk
 62
7
100
AcDbPolyline
 90
66
 70
0
 10
5.531820
 20
12.349685
 30
0.0
 10
5.498710
 20
12.769685
 30
0.0
 10
5.760540
 20
13.129685
 30
0.0
 10
5.972620
 20
13.309685
 30
0.0
 10
6.286380
 20
13.599685
 30
0.0
 10
6.634570
 20
13.929685
 30
0.0
 10
6.945990
 20
14.289685
 30
0.0
 10
7.160330
 20
14.599685
 30
0.0
 10
7.203910
 20
14.839685
 30
0.0
 10
7.099730
 20
14.909685
 30
0.0
 10
6.906400
 20
14.899685
 30
0.0
 10
6.701280
 20
14.849685
 30
0.0
 10
6.556160
 20
14.799685
 30
0.0
 10
6.267160
 20
14.629685
 30
0.0
 10
5.991090
 20
14.419685
 30
0.0
 10
5.726560
 20
14.219685
 30
0.0
 10
5.437920
 20
14.049685
 30
0.0
 10
4.877000
 20
14.009685
 30
0.0
 10
4.542800
 20
14.439685
 30
0.0
 10
4.515130
 20
14.709685
 30
0.0
 10
4.586150
 20
14.989685
 30
0.0
 10
4.738330
 20
15.239685
 30
0.0
 10
4.963000
 20
15.409685
 30
0.0
 10
5.750380
 20
15.699685
 30
0.0
 10
6.537510
 20
15.999685
 30
0.0
 10
7.008740
 20
16.269685
 30
0.0
 10
7.447990
 20
16.599685
 30
0.0
 10
7.886090
 20
16.929685
 30
0.0
 10
8.352640
 20
17.199685
 30
0.0
 10
8.828880
 20
17.349685
 30
0.0
 10
9.240480
 20
17.359685
 30
0.0
 10
9.568260
 20
17.209685
 30
0.0
 10
9.784190
 20
16.869685
 30
0.0
 10
9.810360
 20
16.439685
 30
0.0
 10
9.637200
 20
16.039685
 30
0.0
 10
9.320620
 20
15.699685
 30
0.0
 10
8.916340
 20
15.449685
 30
0.0
 10
8.567000
 20
15.229685
 30
0.0
 10
8.184710
 20
14.889685
 30
0.0
 10
7.887260
 20
14.539685
 30
0.0
 10
7.802950
 20
14.269685
 30
0.0
 10
7.862590
 20
14.209685
 30
0.0
 10
7.956260
 20
14.199685
 30
0.0
 10
8.059440
 20
14.229685
 30
0.0
 10
8.143950
 20
14.269685
 30
0.0
 10
8.424230
 20
14.459685
 30
0.0
 10
8.684610
 20
14.709685
 30
0.0
 10
8.971760
 20
14.979685
 30
0.0
 10
9.331710
 20
15.209685
 30
0.0
 10
9.736910
 20
15.329685
 30
0.0
 10
10.110100
 20
15.309685
 30
0.0
 10
10.412100
 20
15.139685
 30
0.0
 10
10.614000
 20
14.819685
 30
0.0
 10
10.657600
 20
14.439685
 30
0.0
 10
10.637600
 20
14.319685
 30
0.0
 10
10.542600
 20
14.059685
 30
0.0
 10
10.299600
 20
13.729685
 30
0.0
 10
9.948510
 20
13.479685
 30
0.0
 10
9.266390
 20
13.209685
 30
0.0
 10
8.578070
 20
13.019685
 30
0.0
 10
7.881860
 20
12.829685
 30
0.0
 10
7.204500
 20
12.569685
 30
0.0
 10
6.729990
 20
12.279685
 30
0.0
 10
6.304210
 20
12.009685
 30
0.0
 10
5.825330
 20
11.989685
 30
0.0
 10
5.825330
 20
11.989685
 30
0.0
  0
LWPOLYLINE
  5
119
100
AcDbEntity
  8
Back_Silk
 62
7
100
AcDbPolyline
 90
4
 70
0
 10
5.820510
 20
11.989685
 30
0.0
 10
5.531760
 20
12.359685
 30
0.0
 10
5.531760
 20
12.359685
 30
0.0
 10
5.531770
 20
12.359685
 30
0.0
  0
LWPOLYLINE
  5
11a
100
AcDbEntity
  8
Back_Silk
 62
7
100
AcDbPolyline
 90
50
 70
1
 10
5.262280
 20
17.769685
 30
0.0
 10
5.137370
 20
17.799685
 30
0.0
 10
4.846280
 20
17.759685
 30
0.0
 10
4.469800
 20
17.699685
 30
0.0
 10
4.083070
 20
17.679685
 30
0.0
 10
3.758010
 20
17.759685
 30
0.0
 10
3.568660
 20
17.979685
 30
0.0
 10
3.533320
 20
18.279685
 30
0.0
 10
3.606430
 20
18.579685
 30
0.0
 10
3.787780
 20
18.839685
 30
0.0
 10
4.086720
 20
19.019685
 30
0.0
 10
4.453210
 20
19.089685
 30
0.0
 10
4.823920
 20
19.049685
 30
0.0
 10
5.210660
 20
18.949685
 30
0.0
 10
5.608830
 20
18.869685
 30
0.0
 10
6.021000
 20
18.839685
 30
0.0
 10
6.436590
 20
18.939685
 30
0.0
 10
6.797050
 20
19.169685
 30
0.0
 10
7.106160
 20
19.499685
 30
0.0
 10
7.408730
 20
19.819685
 30
0.0
 10
7.759010
 20
20.049685
 30
0.0
 10
8.165080
 20
20.109685
 30
0.0
 10
8.492470
 20
19.979685
 30
0.0
 10
8.737710
 20
19.719685
 30
0.0
 10
8.891620
 20
19.379685
 30
0.0
 10
8.951880
 20
19.019685
 30
0.0
 10
8.920360
 20
18.619685
 30
0.0
 10
8.734220
 20
18.239685
 30
0.0
 10
8.354880
 20
17.959685
 30
0.0
 10
8.021670
 20
17.909685
 30
0.0
 10
7.601120
 20
17.929685
 30
0.0
 10
7.174640
 20
17.949685
 30
0.0
 10
6.812320
 20
17.889685
 30
0.0
 10
6.465910
 20
17.649685
 30
0.0
 10
6.181700
 20
17.299685
 30
0.0
 10
5.934450
 20
16.889685
 30
0.0
 10
5.699920
 20
16.489685
 30
0.0
 10
5.447320
 20
16.139685
 30
0.0
 10
5.143500
 20
15.909685
 30
0.0
 10
4.816960
 20
15.859685
 30
0.0
 10
4.504390
 20
15.939685
 30
0.0
 10
4.257990
 20
16.129685
 30
0.0
 10
4.111120
 20
16.369685
 30
0.0
 10
4.128780
 20
16.689685
 30
0.0
 10
4.334920
 20
16.979685
 30
0.0
 10
4.633150
 20
17.249685
 30
0.0
 10
4.945360
 20
17.479685
 30
0.0
 10
5.182730
 20
17.649685
 30
0.0
 10
5.262290
 20
17.769685
 30
0.0
 10
5.262290
 20
17.769685
 30
0.0
  0
LWPOLYLINE
  5
11b
100
AcDbEntity
  8
Back_Silk
 62
7
100
AcDbPolyline
 90
82
 70
1
 10
3.152450
 20
19.699685
 30
0.0
 10
3.110140
 20
19.989685
 30
0.0
 10
3.145810
 20
20.279685
 30
0.0
 10
3.281770
 20
20.529685
 30
0.0
 10
3.547270
 20
20.699685
 30
0.0
 10
4.137560
 20
20.849685
 30
0.0
 10
4.726130
 20
21.009685
 30
0.0
 10
4.956280
 20
21.099685
 30
0.0
 10
5.181740
 20
21.229685
 30
0.0
 10
5.332960
 20
21.399685
 30
0.0
 10
5.354910
 20
21.629685
 30
0.0
 10
5.197400
 20
21.809685
 30
0.0
 10
4.911200
 20
21.839685
 30
0.0
 10
4.555360
 20
21.789685
 30
0.0
 10
4.206680
 20
21.739685
 30
0.0
 10
3.918710
 20
21.769685
 30
0.0
 10
3.752590
 20
21.969685
 30
0.0
 10
3.791990
 20
22.229685
 30
0.0
 10
3.997590
 20
22.439685
 30
0.0
 10
4.293490
 20
22.629685
 30
0.0
 10
4.586600
 20
22.789685
 30
0.0
 10
4.807370
 20
22.969685
 30
0.0
 10
4.857310
 20
23.179685
 30
0.0
 10
4.722650
 20
23.339685
 30
0.0
 10
4.482190
 20
23.389685
 30
0.0
 10
4.204320
 20
23.359685
 30
0.0
 10
3.978330
 20
23.299685
 30
0.0
 10
3.493240
 20
23.089685
 30
0.0
 10
3.006910
 20
22.879685
 30
0.0
 10
2.360700
 20
22.889685
 30
0.0
 10
2.036340
 20
23.449685
 30
0.0
 10
1.995430
 20
23.729685
 30
0.0
 10
2.011200
 20
24.039685
 30
0.0
 10
2.123320
 20
24.309685
 30
0.0
 10
2.366200
 20
24.489685
 30
0.0
 10
2.565110
 20
24.519685
 30
0.0
 10
2.801230
 20
24.539685
 30
0.0
 10
3.039920
 20
24.539685
 30
0.0
 10
3.240740
 20
24.539685
 30
0.0
 10
3.839680
 20
24.589685
 30
0.0
 10
4.437610
 20
24.729685
 30
0.0
 10
4.767800
 20
24.849685
 30
0.0
 10
5.075290
 20
24.989685
 30
0.0
 10
5.377020
 20
25.119685
 30
0.0
 10
5.701520
 20
25.249685
 30
0.0
 10
6.297160
 20
25.359685
 30
0.0
 10
6.861020
 20
25.319685
 30
0.0
 10
7.327060
 20
25.089685
 30
0.0
 10
7.597720
 20
24.619685
 30
0.0
 10
7.630780
 20
24.309685
 30
0.0
 10
7.587340
 20
23.949685
 30
0.0
 10
7.458610
 20
23.609685
 30
0.0
 10
7.233530
 20
23.349685
 30
0.0
 10
6.899720
 20
23.169685
 30
0.0
 10
6.538840
 20
23.019685
 30
0.0
 10
6.263660
 20
22.879685
 30
0.0
 10
6.178460
 20
22.719685
 30
0.0
 10
6.301290
 20
22.639685
 30
0.0
 10
6.533600
 20
22.699685
 30
0.0
 10
6.814090
 20
22.819685
 30
0.0
 10
7.068370
 20
22.909685
 30
0.0
 10
7.510250
 20
22.919685
 30
0.0
 10
7.876950
 20
22.759685
 30
0.0
 10
8.150750
 20
22.479685
 30
0.0
 10
8.321230
 20
22.109685
 30
0.0
 10
8.340310
 20
21.629685
 30
0.0
 10
8.154320
 20
21.169685
 30
0.0
 10
7.814140
 20
20.789685
 30
0.0
 10
7.352860
 20
20.529685
 30
0.0
 10
6.950120
 20
20.409685
 30
0.0
 10
6.562180
 20
20.359685
 30
0.0
 10
6.168310
 20
20.299685
 30
0.0
 10
5.757860
 20
20.189685
 30
0.0
 10
5.311980
 20
19.959685
 30
0.0
 10
4.900980
 20
19.669685
 30
0.0
 10
4.503600
 20
19.379685
 30
0.0
 10
4.091580
 20
19.159685
 30
0.0
 10
3.756930
 20
19.099685
 30
0.0
 10
3.482250
 20
19.189685
 30
0.0
 10
3.281720
 20
19.399685
 30
0.0
 10
3.152420
 20
19.699685
 30
0.0
 10
3.152420
 20
19.699685
 30
0.0
  0
LWPOLYLINE
  5
11c
100
AcDbEntity
  8
Back_Silk
 62
7
100
AcDbPolyline
 90
50
 70
1
 10
6.462380
 20
25.759685
 30
0.0
 10
6.043360
 20
25.729685
 30
0.0
 10
5.606110
 20
25.829685
 30
0.0
 10
5.185910
 20
25.989685
 30
0.0
 10
4.806070
 20
26.149685
 30
0.0
 10
4.273260
 20
26.259685
 30
0.0
 10
3.774100
 20
26.249685
 30
0.0
 10
3.322450
 20
26.169685
 30
0.0
 10
2.905050
 20
26.069685
 30
0.0
 10
2.536950
 20
26.009685
 30
0.0
 10
2.215190
 20
26.049685
 30
0.0
 10
1.916130
 20
26.219685
 30
0.0
 10
1.686740
 20
26.479685
 30
0.0
 10
1.521850
 20
26.799685
 30
0.0
 10
1.420740
 20
27.139685
 30
0.0
 10
1.388280
 20
27.479685
 30
0.0
 10
1.398410
 20
27.639685
 30
0.0
 10
1.602270
 20
28.089685
 30
0.0
 10
1.860610
 20
28.299685
 30
0.0
 10
2.229700
 20
28.529685
 30
0.0
 10
2.622020
 20
28.759685
 30
0.0
 10
2.951210
 20
28.999685
 30
0.0
 10
3.291140
 20
29.349685
 30
0.0
 10
3.569910
 20
29.699685
 30
0.0
 10
3.840220
 20
30.039685
 30
0.0
 10
4.141550
 20
30.339685
 30
0.0
 10
4.516000
 20
30.579685
 30
0.0
 10
5.013570
 20
30.759685
 30
0.0
 10
5.501750
 20
30.809685
 30
0.0
 10
5.909530
 20
30.709685
 30
0.0
 10
6.207620
 20
30.459685
 30
0.0
 10
6.373610
 20
30.049685
 30
0.0
 10
6.338470
 20
29.489685
 30
0.0
 10
6.088850
 20
29.059685
 30
0.0
 10
5.722330
 20
28.729685
 30
0.0
 10
5.482720
 20
28.559685
 30
0.0
 10
5.343280
 20
28.469685
 30
0.0
 10
5.056520
 20
28.239685
 30
0.0
 10
4.960350
 20
28.039685
 30
0.0
 10
4.976250
 20
27.989685
 30
0.0
 10
5.007670
 20
27.959685
 30
0.0
 10
5.362290
 20
27.839685
 30
0.0
 10
5.797610
 20
27.879685
 30
0.0
 10
6.249760
 20
27.959685
 30
0.0
 10
6.680730
 20
27.959685
 30
0.0
 10
7.033960
 20
27.759685
 30
0.0
 10
7.265580
 20
27.259685
 30
0.0
 10
7.191020
 20
26.319685
 30
0.0
 10
6.462410
 20
25.759685
 30
0.0
 10
6.462410
 20
25.759685
 30
0.0
  0
LWPOLYLINE
  5
11d
100
AcDbEntity
  8
Back_Silk
 62
7
100
AcDbPolyline
 90
28
 70
1
 10
3.722830
 20
27.269685
 30
0.0
 10
3.868460
 20
27.359685
 30
0.0
 10
3.952010
 20
27.499685
 30
0.0
 10
3.981670
 20
27.659685
 30
0.0
 10
3.969080
 20
27.819685
 30
0.0
 10
3.922350
 20
27.959685
 30
0.0
 10
3.833260
 20
28.089685
 30
0.0
 10
3.808900
 20
28.119685
 30
0.0
 10
3.808900
 20
28.119685
 30
0.0
 10
3.808900
 20
28.119685
 30
0.0
 10
3.709410
 20
28.179685
 30
0.0
 10
3.552440
 20
28.189685
 30
0.0
 10
3.388280
 20
28.109685
 30
0.0
 10
3.249510
 20
27.969685
 30
0.0
 10
3.249510
 20
27.969685
 30
0.0
 10
3.249510
 20
27.969685
 30
0.0
 10
3.249510
 20
27.969685
 30
0.0
 10
3.249510
 20
27.969685
 30
0.0
 10
3.249510
 20
27.969685
 30
0.0
 10
3.249510
 20
27.969685
 30
0.0
 10
3.249510
 20
27.969685
 30
0.0
 10
3.242380
 20
27.959685
 30
0.0
 10
3.148150
 20
27.769685
 30
0.0
 10
3.136890
 20
27.579685
 30
0.0
 10
3.220690
 20
27.409685
 30
0.0
 10
3.373560
 20
27.299685
 30
0.0
 10
3.551600
 20
27.259685
 30
0.0
 10
3.722860
 20
27.269685
 30
0.0
  0
LWPOLYLINE
  5
11e
100
AcDbEntity
  8
Back_Silk
 62
7
100
AcDbPolyline
 90
37
 70
1
 10
1.822700
 20
30.069685
 30
0.0
 10
1.368550
 20
30.039685
 30
0.0
 10
1.029100
 20
30.169685
 30
0.0
 10
0.799109
 20
30.439685
 30
0.0
 10
0.676789
 20
30.819685
 30
0.0
 10
0.682435
 20
31.229685
 30
0.0
 10
0.811419
 20
31.569685
 30
0.0
 10
1.054180
 20
31.819685
 30
0.0
 10
1.368500
 20
31.949685
 30
0.0
 10
1.764790
 20
31.939685
 30
0.0
 10
2.210570
 20
31.849685
 30
0.0
 10
2.698410
 20
31.769685
 30
0.0
 10
3.237660
 20
31.799685
 30
0.0
 10
3.827130
 20
32.079685
 30
0.0
 10
4.003640
 20
32.519685
 30
0.0
 10
3.847110
 20
32.799685
 30
0.0
 10
3.551880
 20
32.979685
 30
0.0
 10
3.261710
 20
33.169685
 30
0.0
 10
3.099330
 20
33.479685
 30
0.0
 10
3.344590
 20
33.999685
 30
0.0
 10
4.151560
 20
34.299685
 30
0.0
 10
5.659430
 20
33.969685
 30
0.0
 10
6.354120
 20
32.459685
 30
0.0
 10
6.381570
 20
31.879685
 30
0.0
 10
6.264040
 20
31.449685
 30
0.0
 10
5.984360
 20
31.149685
 30
0.0
 10
5.518810
 20
30.969685
 30
0.0
 10
5.459040
 20
30.959685
 30
0.0
 10
4.981300
 20
30.879685
 30
0.0
 10
4.473990
 20
30.839685
 30
0.0
 10
3.947650
 20
30.789685
 30
0.0
 10
3.445620
 20
30.719685
 30
0.0
 10
3.010570
 20
30.569685
 30
0.0
 10
2.619240
 20
30.389685
 30
0.0
 10
2.240210
 20
30.199685
 30
0.0
 10
1.822750
 20
30.069685
 30
0.0
 10
1.822750
 20
30.069685
 30
0.0
  0
LWPOLYLINE
  5
11f
100
AcDbEntity
  8
Back_Silk
 62
7
100
AcDbPolyline
 90
51
 70
1
 10
0.086018
 20
36.079685
 30
0.0
 10
0.073856
 20
36.449685
 30
0.0
 10
0.096650
 20
36.889685
 30
0.0
 10
0.171428
 20
37.319685
 30
0.0
 10
0.324472
 20
37.719685
 30
0.0
 10
0.575237
 20
37.999685
 30
0.0
 10
0.935399
 20
38.119685
 30
0.0
 10
1.387820
 20
38.019685
 30
0.0
 10
1.549880
 20
37.609685
 30
0.0
 10
1.520010
 20
37.339685
 30
0.0
 10
1.430010
 20
37.089685
 30
0.0
 10
1.347000
 20
36.829685
 30
0.0
 10
1.315160
 20
36.559685
 30
0.0
 10
1.410600
 20
36.319685
 30
0.0
 10
1.623920
 20
36.229685
 30
0.0
 10
1.829880
 20
36.419685
 30
0.0
 10
2.019980
 20
36.879685
 30
0.0
 10
2.231770
 20
37.459685
 30
0.0
 10
2.528970
 20
38.029685
 30
0.0
 10
2.957550
 20
38.479685
 30
0.0
 10
3.553190
 20
38.669685
 30
0.0
 10
4.509340
 20
38.539685
 30
0.0
 10
5.192190
 20
38.099685
 30
0.0
 10
5.621310
 20
37.409685
 30
0.0
 10
5.818350
 20
36.489685
 30
0.0
 10
5.739390
 20
35.829685
 30
0.0
 10
5.417960
 20
35.229685
 30
0.0
 10
4.891360
 20
34.759685
 30
0.0
 10
4.189350
 20
34.509685
 30
0.0
 10
3.852460
 20
34.499685
 30
0.0
 10
3.523930
 20
34.589685
 30
0.0
 10
3.270690
 20
34.789685
 30
0.0
 10
3.148830
 20
35.089685
 30
0.0
 10
3.196900
 20
35.419685
 30
0.0
 10
3.332650
 20
35.759685
 30
0.0
 10
3.476440
 20
36.089685
 30
0.0
 10
3.523340
 20
36.429685
 30
0.0
 10
3.341710
 20
36.679685
 30
0.0
 10
3.139940
 20
36.509685
 30
0.0
 10
2.961910
 20
36.109685
 30
0.0
 10
2.759870
 20
35.599685
 30
0.0
 10
2.490080
 20
35.069685
 30
0.0
 10
2.092320
 20
34.629685
 30
0.0
 10
1.516200
 20
34.389685
 30
0.0
 10
1.139250
 20
34.419685
 30
0.0
 10
0.801740
 20
34.619685
 30
0.0
 10
0.515252
 20
34.929685
 30
0.0
 10
0.298454
 20
35.309685
 30
0.0
 10
0.156427
 20
35.709685
 30
0.0
 10
0.086018
 20
36.079685
 30
0.0
 10
0.086018
 20
36.079685
 30
0.0
  0
LWPOLYLINE
  5
120
100
AcDbEntity
  8
Back_Silk
 62
7
100
AcDbPolyline
 90
19
 70
0
 10
3.255940
 20
39.859685
 30
0.0
 10
3.373750
 20
40.189685
 30
0.0
 10
3.680700
 20
40.429685
 30
0.0
 10
4.096420
 20
40.589685
 30
0.0
 10
4.558450
 20
40.639685
 30
0.0
 10
4.920250
 20
40.549685
 30
0.0
 10
5.182810
 20
40.339685
 30
0.0
 10
5.342660
 20
40.059685
 30
0.0
 10
5.395530
 20
39.739685
 30
0.0
 10
5.323670
 20
39.449685
 30
0.0
 10
5.143850
 20
39.229685
 30
0.0
 10
4.891110
 20
39.089685
 30
0.0
 10
4.606980
 20
39.039685
 30
0.0
 10
4.576660
 20
39.039685
 30
0.0
 10
4.096780
 20
39.089685
 30
0.0
 10
3.676180
 20
39.259685
 30
0.0
 10
3.371090
 20
39.529685
 30
0.0
 10
3.255930
 20
39.869685
 30
0.0
 10
3.255930
 20
39.869685
 30
0.0
  0
LWPOLYLINE
  5
121
100
AcDbEntity
  8
Back_Silk
 62
7
100
AcDbPolyline
 90
1
 70
1
 10
3.255930
 20
39.859685
 30
0.0
  0
LWPOLYLINE
  5
122
100
AcDbEntity
  8
Back_Silk
 62
7
100
AcDbPolyline
 90
47
 70
1
 10
3.051020
 20
41.439685
 30
0.0
 10
2.325980
 20
41.519685
 30
0.0
 10
1.612080
 20
41.719685
 30
0.0
 10
0.965873
 20
42.039685
 30
0.0
 10
0.446041
 20
42.509685
 30
0.0
 10
0.118832
 20
43.139685
 30
0.0
 10
0.096548
 20
43.219685
 30
0.0
 10
0.051322
 20
43.969685
 30
0.0
 10
0.148823
 20
44.409685
 30
0.0
 10
0.361391
 20
44.879685
 30
0.0
 10
0.687394
 20
45.229685
 30
0.0
 10
1.107640
 20
45.309685
 30
0.0
 10
1.345150
 20
45.169685
 30
0.0
 10
1.453320
 20
44.889685
 30
0.0
 10
1.490490
 20
44.529685
 30
0.0
 10
1.503240
 20
44.129685
 30
0.0
 10
1.557050
 20
43.719685
 30
0.0
 10
1.699740
 20
43.359685
 30
0.0
 10
1.981180
 20
43.079685
 30
0.0
 10
2.210890
 20
42.979685
 30
0.0
 10
2.210890
 20
42.979685
 30
0.0
 10
2.210890
 20
42.979685
 30
0.0
 10
2.445570
 20
42.939685
 30
0.0
 10
2.677180
 20
42.929685
 30
0.0
 10
2.677180
 20
42.929685
 30
0.0
 10
2.713580
 20
42.929685
 30
0.0
 10
2.938560
 20
42.989685
 30
0.0
 10
3.097820
 20
43.129685
 30
0.0
 10
3.175440
 20
43.369685
 30
0.0
 10
3.164430
 20
43.679685
 30
0.0
 10
3.096250
 20
43.989685
 30
0.0
 10
3.036790
 20
44.309685
 30
0.0
 10
3.031230
 20
44.629685
 30
0.0
 10
3.150140
 20
44.929685
 30
0.0
 10
3.364850
 20
45.079685
 30
0.0
 10
3.652360
 20
45.099685
 30
0.0
 10
3.996370
 20
45.039685
 30
0.0
 10
5.381250
 20
44.329685
 30
0.0
 10
5.764580
 20
43.059685
 30
0.0
 10
5.667900
 20
42.589685
 30
0.0
 10
5.667900
 20
42.589685
 30
0.0
 10
5.667900
 20
42.589685
 30
0.0
 10
5.487400
 20
42.219685
 30
0.0
 10
4.905890
 20
41.709685
 30
0.0
 10
4.072610
 20
41.459685
 30
0.0
 10
3.050980
 20
41.439685
 30
0.0
 10
3.050980
 20
41.439685
 30
0.0
  0
LWPOLYLINE
  5
123
100
AcDbEntity
  8
Back_Silk
 62
7
100
AcDbPolyline
 90
23
 70
1
 10
0.856135
 20
48.219685
 30
0.0
 10
1.161720
 20
48.839685
 30
0.0
 10
1.648920
 20
49.279685
 30
0.0
 10
2.263720
 20
49.509685
 30
0.0
 10
2.944890
 20
49.539685
 30
0.0
 10
3.114490
 20
49.519685
 30
0.0
 10
3.114490
 20
49.519685
 30
0.0
 10
3.649950
 20
49.409685
 30
0.0
 10
4.324900
 20
49.139685
 30
0.0
 10
5.192400
 20
48.529685
 30
0.0
 10
5.302600
 20
48.429685
 30
0.0
 10
5.837590
 20
47.799685
 30
0.0
 10
6.193630
 20
47.019685
 30
0.0
 10
6.193620
 20
46.209685
 30
0.0
 10
5.867120
 20
45.599685
 30
0.0
 10
5.274300
 20
45.219685
 30
0.0
 10
4.463630
 20
45.059685
 30
0.0
 10
3.481930
 20
45.149685
 30
0.0
 10
2.326430
 20
45.579685
 30
0.0
 10
1.415470
 20
46.279685
 30
0.0
 10
0.879742
 20
47.189685
 30
0.0
 10
0.856135
 20
48.219685
 30
0.0
 10
0.856135
 20
48.219685
 30
0.0
  0
LWPOLYLINE
  5
124
100
AcDbEntity
  8
Back_Silk
 62
7
100
AcDbPolyline
 90
14
 70
1
 10
3.061560
 20
46.789685
 30
0.0
 10
3.468800
 20
46.829685
 30
0.0
 10
3.719980
 20
47.209685
 30
0.0
 10
3.689880
 20
47.619685
 30
0.0
 10
3.377620
 20
47.889685
 30
0.0
 10
3.140200
 20
47.929685
 30
0.0
 10
2.929230
 20
47.889685
 30
0.0
 10
2.758610
 20
47.749685
 30
0.0
 10
2.653630
 20
47.549685
 30
0.0
 10
2.642490
 20
47.299685
 30
0.0
 10
2.713990
 20
47.079685
 30
0.0
 10
2.855190
 20
46.899685
 30
0.0
 10
3.061550
 20
46.789685
 30
0.0
 10
3.061550
 20
46.789685
 30
0.0
  0
LWPOLYLINE
  5
125
100
AcDbEntity
  8
Back_Silk
 62
7
100
AcDbPolyline
 90
72
 70
0
 10
2.484830
 20
52.359685
 30
0.0
 10
2.802780
 20
52.669685
 30
0.0
 10
3.204750
 20
52.729685
 30
0.0
 10
3.636700
 20
52.639685
 30
0.0
 10
4.038690
 20
52.489685
 30
0.0
 10
4.362810
 20
52.399685
 30
0.0
 10
4.551110
 20
52.469685
 30
0.0
 10
4.534810
 20
52.679685
 30
0.0
 10
4.376800
 20
53.019685
 30
0.0
 10
4.162440
 20
53.459685
 30
0.0
 10
3.987270
 20
53.949685
 30
0.0
 10
3.946070
 20
54.459685
 30
0.0
 10
4.136580
 20
54.919685
 30
0.0
 10
4.473920
 20
55.179685
 30
0.0
 10
4.820990
 20
55.179685
 30
0.0
 10
5.187710
 20
54.939685
 30
0.0
 10
5.588490
 20
54.509685
 30
0.0
 10
5.980900
 20
54.159685
 30
0.0
 10
6.511850
 20
53.769685
 30
0.0
 10
7.084130
 20
53.289685
 30
0.0
 10
7.620800
 20
52.689685
 30
0.0
 10
8.129900
 20
51.919685
 30
0.0
 10
8.379350
 20
51.349685
 30
0.0
 10
8.428110
 20
50.929685
 30
0.0
 10
8.306540
 20
50.649685
 30
0.0
 10
8.059990
 20
50.479685
 30
0.0
 10
7.738460
 20
50.459685
 30
0.0
 10
7.363240
 20
50.589685
 30
0.0
 10
6.958890
 20
50.889685
 30
0.0
 10
6.527900
 20
51.349685
 30
0.0
 10
6.268130
 20
51.739685
 30
0.0
 10
6.055060
 20
52.109685
 30
0.0
 10
5.759750
 20
52.469685
 30
0.0
 10
5.565850
 20
52.589685
 30
0.0
 10
5.442930
 20
52.559685
 30
0.0
 10
5.462060
 20
52.399685
 30
0.0
 10
5.625690
 20
52.149685
 30
0.0
 10
5.852060
 20
51.859685
 30
0.0
 10
6.074410
 20
51.539685
 30
0.0
 10
6.210590
 20
51.259685
 30
0.0
 10
6.196820
 20
51.039685
 30
0.0
 10
6.015330
 20
50.949685
 30
0.0
 10
5.737100
 20
50.999685
 30
0.0
 10
5.404610
 20
51.129685
 30
0.0
 10
5.088320
 20
51.279685
 30
0.0
 10
4.836720
 20
51.389685
 30
0.0
 10
4.710960
 20
51.389685
 30
0.0
 10
4.709950
 20
51.269685
 30
0.0
 10
4.795760
 20
51.129685
 30
0.0
 10
4.929230
 20
51.009685
 30
0.0
 10
5.060390
 20
50.909685
 30
0.0
 10
5.471830
 20
50.699685
 30
0.0
 10
5.871650
 20
50.599685
 30
0.0
 10
6.269620
 20
50.489685
 30
0.0
 10
6.655190
 20
50.269685
 30
0.0
 10
7.009170
 20
49.929685
 30
0.0
 10
7.255450
 20
49.539685
 30
0.0
 10
7.347790
 20
49.109685
 30
0.0
 10
7.229870
 20
48.629685
 30
0.0
 10
6.989870
 20
48.409685
 30
0.0
 10
6.629080
 20
48.359685
 30
0.0
 10
6.221650
 20
48.429685
 30
0.0
 10
5.842010
 20
48.589685
 30
0.0
 10
5.091750
 20
49.059685
 30
0.0
 10
4.398800
 20
49.609685
 30
0.0
 10
3.695720
 20
50.179685
 30
0.0
 10
2.892270
 20
50.729685
 30
0.0
 10
2.562350
 20
51.009685
 30
0.0
 10
2.362480
 20
51.389685
 30
0.0
 10
2.324390
 20
51.849685
 30
0.0
 10
2.484740
 20
52.349685
 30
0.0
 10
2.484740
 20
52.349685
 30
0.0
  0
LWPOLYLINE
  5
126
100
AcDbEntity
  8
Back_Silk
 62
7
100
AcDbPolyline
 90
1
 70
1
 10
2.484860
 20
52.359685
 30
0.0
  0
LWPOLYLINE
  5
127
100
AcDbEntity
  8
Back_Silk
 62
7
100
AcDbPolyline
 90
39
 70
1
 10
15.916400
 20
20.309685
 30
0.0
 10
16.646600
 20
20.249685
 30
0.0
 10
17.220200
 20
19.839685
 30
0.0
 10
17.601400
 20
19.229685
 30
0.0
 10
17.840800
 20
18.419685
 30
0.0
 10
17.921200
 20
17.899685
 30
0.0
 10
17.959000
 20
17.599685
 30
0.0
 10
17.411900
 20
17.459685
 30
0.0
 10
17.386400
 20
17.769685
 30
0.0
 10
17.296800
 20
18.349685
 30
0.0
 10
17.144300
 20
18.869685
 30
0.0
 10
16.913100
 20
19.339685
 30
0.0
 10
16.579500
 20
19.629685
 30
0.0
 10
16.157200
 20
19.679685
 30
0.0
 10
15.746400
 20
19.469685
 30
0.0
 10
15.475800
 20
19.009685
 30
0.0
 10
15.321900
 20
18.499685
 30
0.0
 10
15.142700
 20
17.929685
 30
0.0
 10
14.729600
 20
17.269685
 30
0.0
 10
14.131000
 20
16.989685
 30
0.0
 10
13.492400
 20
17.019685
 30
0.0
 10
12.972900
 20
17.329685
 30
0.0
 10
12.584000
 20
17.879685
 30
0.0
 10
12.343500
 20
18.649685
 30
0.0
 10
12.268800
 20
19.139685
 30
0.0
 10
12.231500
 20
19.419685
 30
0.0
 10
12.778100
 20
19.579685
 30
0.0
 10
12.803800
 20
19.289685
 30
0.0
 10
12.894700
 20
18.679685
 30
0.0
 10
13.028200
 20
18.249685
 30
0.0
 10
13.249000
 20
17.869685
 30
0.0
 10
13.543700
 20
17.659685
 30
0.0
 10
13.932400
 20
17.619685
 30
0.0
 10
14.276300
 20
17.799685
 30
0.0
 10
14.553300
 20
18.289685
 30
0.0
 10
14.698200
 20
18.749685
 30
0.0
 10
14.871100
 20
19.309685
 30
0.0
 10
15.285100
 20
19.979685
 30
0.0
 10
15.916400
 20
20.309685
 30
0.0
  0
LWPOLYLINE
  5
128
100
AcDbEntity
  8
Back_Silk
 62
7
100
AcDbPolyline
 90
17
 70
1
 10
14.471300
 20
24.619685
 30
0.0
 10
15.534600
 20
24.539685
 30
0.0
 10
16.325100
 20
23.949685
 30
0.0
 10
16.778300
 20
23.149685
 30
0.0
 10
17.030000
 20
22.269685
 30
0.0
 10
18.789300
 20
22.619685
 30
0.0
 10
18.903900
 20
22.009685
 30
0.0
 10
17.838900
 20
21.819685
 30
0.0
 10
15.841100
 20
21.449685
 30
0.0
 10
14.674700
 20
21.229685
 30
0.0
 10
13.241000
 20
20.939685
 30
0.0
 10
13.191700
 20
21.189685
 30
0.0
 10
13.156400
 20
21.369685
 30
0.0
 10
13.006000
 20
22.639685
 30
0.0
 10
13.153400
 20
23.509685
 30
0.0
 10
13.645400
 20
24.229685
 30
0.0
 10
14.471300
 20
24.619685
 30
0.0
  0
LWPOLYLINE
  5
129
100
AcDbEntity
  8
Back_Silk
 62
7
100
AcDbPolyline
 90
15
 70
1
 10
14.605800
 20
24.009685
 30
0.0
 10
13.978600
 20
23.709685
 30
0.0
 10
13.615900
 20
23.159685
 30
0.0
 10
13.515000
 20
22.529685
 30
0.0
 10
13.579200
 20
21.809685
 30
0.0
 10
13.595000
 20
21.729685
 30
0.0
 10
13.611600
 20
21.639685
 30
0.0
 10
14.069900
 20
21.719685
 30
0.0
 10
15.414400
 20
21.959685
 30
0.0
 10
15.974900
 20
22.069685
 30
0.0
 10
16.550100
 20
22.179685
 30
0.0
 10
16.349300
 20
22.889685
 30
0.0
 10
16.053400
 20
23.449685
 30
0.0
 10
15.431100
 20
23.949685
 30
0.0
 10
14.605800
 20
24.009685
 30
0.0
  0
LWPOLYLINE
  5
12a
100
AcDbEntity
  8
Back_Silk
 62
7
100
AcDbPolyline
 90
17
 70
1
 10
13.773200
 20
28.989685
 30
0.0
 10
14.655800
 20
28.989685
 30
0.0
 10
15.436500
 20
28.669685
 30
0.0
 10
15.910900
 20
28.169685
 30
0.0
 10
16.168800
 20
27.489685
 30
0.0
 10
16.175600
 20
26.779685
 30
0.0
 10
15.915100
 20
26.139685
 30
0.0
 10
15.309100
 20
25.549685
 30
0.0
 10
14.471000
 20
25.229685
 30
0.0
 10
13.635700
 20
25.219685
 30
0.0
 10
12.887700
 20
25.519685
 30
0.0
 10
12.364500
 20
26.039685
 30
0.0
 10
12.083100
 20
26.729685
 30
0.0
 10
12.082000
 20
27.479685
 30
0.0
 10
12.368700
 20
28.129685
 30
0.0
 10
12.970600
 20
28.699685
 30
0.0
 10
13.773200
 20
28.989685
 30
0.0
  0
LWPOLYLINE
  5
12b
100
AcDbEntity
  8
Back_Silk
 62
7
100
AcDbPolyline
 90
17
 70
1
 10
13.915400
 20
28.379685
 30
0.0
 10
13.235200
 20
28.129685
 30
0.0
 10
12.727000
 20
27.659685
 30
0.0
 10
12.571400
 20
27.259685
 30
0.0
 10
12.570700
 20
26.819685
 30
0.0
 10
12.741600
 20
26.379685
 30
0.0
 10
13.075700
 20
26.059685
 30
0.0
 10
13.666100
 20
25.839685
 30
0.0
 10
14.355700
 20
25.849685
 30
0.0
 10
15.055100
 20
26.099685
 30
0.0
 10
15.547400
 20
26.589685
 30
0.0
 10
15.689900
 20
26.979685
 30
0.0
 10
15.681200
 20
27.399685
 30
0.0
 10
15.512400
 20
27.839685
 30
0.0
 10
15.197500
 20
28.159685
 30
0.0
 10
14.597400
 20
28.389685
 30
0.0
 10
13.915400
 20
28.379685
 30
0.0
  0
LWPOLYLINE
  5
12c
100
AcDbEntity
  8
Back_Silk
 62
7
100
AcDbPolyline
 90
30
 70
1
 10
14.937000
 20
33.509685
 30
0.0
 10
15.050800
 20
32.899685
 30
0.0
 10
14.339100
 20
32.779685
 30
0.0
 10
13.592800
 20
32.639685
 30
0.0
 10
13.006100
 20
32.529685
 30
0.0
 10
12.434800
 20
32.419685
 30
0.0
 10
11.833100
 20
32.129685
 30
0.0
 10
11.743400
 20
31.549685
 30
0.0
 10
11.990400
 20
30.999685
 30
0.0
 10
12.474800
 20
30.359685
 30
0.0
 10
12.932400
 20
30.439685
 30
0.0
 10
13.689400
 20
30.579685
 30
0.0
 10
14.762900
 20
30.789685
 30
0.0
 10
15.421100
 20
30.929685
 30
0.0
 10
15.535000
 20
30.319685
 30
0.0
 10
15.065100
 20
30.239685
 30
0.0
 10
13.743000
 20
29.999685
 30
0.0
 10
12.799300
 20
29.819685
 30
0.0
 10
11.649600
 20
29.589685
 30
0.0
 10
11.537200
 20
30.189685
 30
0.0
 10
11.979500
 20
30.269685
 30
0.0
 10
11.986400
 20
30.279685
 30
0.0
 10
11.392400
 20
31.089685
 30
0.0
 10
11.157100
 20
31.669685
 30
0.0
 10
11.320400
 20
32.509685
 30
0.0
 10
12.108800
 20
32.969685
 30
0.0
 10
12.947200
 20
33.119685
 30
0.0
 10
13.516200
 20
33.219685
 30
0.0
 10
14.390000
 20
33.389685
 30
0.0
 10
14.936900
 20
33.509685
 30
0.0
  0
LWPOLYLINE
  5
12d
100
AcDbEntity
  8
Back_Silk
 62
7
100
AcDbPolyline
 90
39
 70
1
 10
13.174400
 20
36.689685
 30
0.0
 10
13.707100
 20
36.649685
 30
0.0
 10
14.135700
 20
36.359685
 30
0.0
 10
14.462900
 20
35.839685
 30
0.0
 10
14.668400
 20
35.149685
 30
0.0
 10
14.722700
 20
34.759685
 30
0.0
 10
14.746000
 20
34.529685
 30
0.0
 10
14.247400
 20
34.409685
 30
0.0
 10
14.220700
 20
34.679685
 30
0.0
 10
14.148900
 20
35.139685
 30
0.0
 10
14.061000
 20
35.489685
 30
0.0
 10
13.911000
 20
35.819685
 30
0.0
 10
13.650300
 20
36.059685
 30
0.0
 10
13.337400
 20
36.099685
 30
0.0
 10
13.099200
 20
35.969685
 30
0.0
 10
12.949000
 20
35.709685
 30
0.0
 10
12.809400
 20
35.249685
 30
0.0
 10
12.666500
 20
34.759685
 30
0.0
 10
12.368300
 20
34.299685
 30
0.0
 10
11.894400
 20
34.069685
 30
0.0
 10
11.355000
 20
34.129685
 30
0.0
 10
10.911700
 20
34.479685
 30
0.0
 10
10.656800
 20
34.949685
 30
0.0
 10
10.514400
 20
35.469685
 30
0.0
 10
10.450000
 20
35.859685
 30
0.0
 10
10.425300
 20
36.029685
 30
0.0
 10
10.927900
 20
36.169685
 30
0.0
 10
10.957300
 20
35.929685
 30
0.0
 10
11.027600
 20
35.469685
 30
0.0
 10
11.121800
 20
35.139685
 30
0.0
 10
11.260500
 20
34.879685
 30
0.0
 10
11.508700
 20
34.679685
 30
0.0
 10
11.752000
 20
34.659685
 30
0.0
 10
11.998200
 20
34.809685
 30
0.0
 10
12.142300
 20
35.079685
 30
0.0
 10
12.280500
 20
35.549685
 30
0.0
 10
12.409700
 20
35.979685
 30
0.0
 10
12.709600
 20
36.459685
 30
0.0
 10
13.174300
 20
36.689685
 30
0.0
  0
LWPOLYLINE
  5
12e
100
AcDbEntity
  8
Back_Silk
 62
7
100
AcDbPolyline
 90
17
 70
1
 10
11.530100
 20
40.939685
 30
0.0
 10
12.412700
 20
40.939685
 30
0.0
 10
13.193400
 20
40.619685
 30
0.0
 10
13.667800
 20
40.119685
 30
0.0
 10
13.925700
 20
39.449685
 30
0.0
 10
13.932500
 20
38.729685
 30
0.0
 10
13.672000
 20
38.089685
 30
0.0
 10
13.066000
 20
37.499685
 30
0.0
 10
12.227900
 20
37.179685
 30
0.0
 10
11.392600
 20
37.169685
 30
0.0
 10
10.644600
 20
37.469685
 30
0.0
 10
10.121400
 20
37.989685
 30
0.0
 10
9.840030
 20
38.679685
 30
0.0
 10
9.838940
 20
39.429685
 30
0.0
 10
10.125600
 20
40.079685
 30
0.0
 10
10.727500
 20
40.649685
 30
0.0
 10
11.530100
 20
40.939685
 30
0.0
  0
LWPOLYLINE
  5
12f
100
AcDbEntity
  8
Back_Silk
 62
7
100
AcDbPolyline
 90
17
 70
1
 10
11.672300
 20
40.339685
 30
0.0
 10
10.992100
 20
40.079685
 30
0.0
 10
10.483900
 20
39.619685
 30
0.0
 10
10.328300
 20
39.219685
 30
0.0
 10
10.327600
 20
38.779685
 30
0.0
 10
10.498500
 20
38.329685
 30
0.0
 10
10.832600
 20
38.009685
 30
0.0
 10
11.423000
 20
37.789685
 30
0.0
 10
12.112600
 20
37.799685
 30
0.0
 10
12.812000
 20
38.049685
 30
0.0
 10
13.304300
 20
38.539685
 30
0.0
 10
13.446800
 20
38.929685
 30
0.0
 10
13.438100
 20
39.349685
 30
0.0
 10
13.269300
 20
39.789685
 30
0.0
 10
12.954400
 20
40.109685
 30
0.0
 10
12.354300
 20
40.339685
 30
0.0
 10
11.672300
 20
40.339685
 30
0.0
  0
LWPOLYLINE
  5
130
100
AcDbEntity
  8
Back_Silk
 62
7
100
AcDbPolyline
 90
15
 70
0
 10
9.438140
 20
43.869685
 30
0.0
 10
9.771070
 20
43.269685
 30
0.0
 10
10.389100
 20
42.339685
 30
0.0
 10
10.777600
 20
42.409685
 30
0.0
 10
11.415600
 20
42.529685
 30
0.0
 10
12.489200
 20
42.739685
 30
0.0
 10
13.178100
 20
42.879685
 30
0.0
 10
13.291900
 20
42.269685
 30
0.0
 10
12.860500
 20
42.199685
 30
0.0
 10
11.611300
 20
41.969685
 30
0.0
 10
10.613800
 20
41.779685
 30
0.0
 10
9.406640
 20
41.539685
 30
0.0
 10
9.294950
 20
42.139685
 30
0.0
 10
9.878510
 20
42.249685
 30
0.0
 10
9.878510
 20
42.249685
 30
0.0
  0
LWPOLYLINE
  5
131
100
AcDbEntity
  8
Back_Silk
 62
7
100
AcDbPolyline
 90
4
 70
0
 10
9.881630
 20
42.249685
 30
0.0
 10
9.294790
 20
43.029685
 30
0.0
 10
8.922260
 20
43.659685
 30
0.0
 10
9.438140
 20
43.869685
 30
0.0
  0
LWPOLYLINE
  5
132
100
AcDbEntity
  8
Back_Silk
 62
7
100
AcDbPolyline
 90
29
 70
1
 10
44.902700
 20
62.839685
 30
0.0
 10
44.818300
 20
62.659685
 30
0.0
 10
44.678900
 20
62.329685
 30
0.0
 10
44.612200
 20
62.349685
 30
0.0
 10
44.549100
 20
62.379685
 30
0.0
 10
43.012700
 20
63.129685
 30
0.0
 10
42.073000
 20
64.179685
 30
0.0
 10
41.808500
 20
65.059685
 30
0.0
 10
41.941100
 20
66.079685
 30
0.0
 10
42.411800
 20
66.899685
 30
0.0
 10
43.116000
 20
67.439685
 30
0.0
 10
44.487100
 20
67.739685
 30
0.0
 10
46.110100
 20
67.489685
 30
0.0
 10
46.202900
 20
67.459685
 30
0.0
 10
46.277100
 20
67.439685
 30
0.0
 10
46.221200
 20
67.219685
 30
0.0
 10
46.143600
 20
66.889685
 30
0.0
 10
46.080500
 20
66.909685
 30
0.0
 10
46.017400
 20
66.929685
 30
0.0
 10
45.022100
 20
67.149685
 30
0.0
 10
44.064800
 20
67.119685
 30
0.0
 10
43.119400
 20
66.669685
 30
0.0
 10
42.572000
 20
65.859685
 30
0.0
 10
42.498600
 20
64.869685
 30
0.0
 10
42.989300
 20
63.949685
 30
0.0
 10
43.774000
 20
63.319685
 30
0.0
 10
44.727100
 20
62.889685
 30
0.0
 10
44.797600
 20
62.869685
 30
0.0
 10
44.902700
 20
62.839685
 30
0.0
  0
LWPOLYLINE
  5
133
100
AcDbEntity
  8
Back_Silk
 62
7
100
AcDbPolyline
 90
15
 70
0
 10
48.829900
 20
64.719685
 30
0.0
 10
48.135700
 20
64.719685
 30
0.0
 10
47.030600
 20
64.619685
 30
0.0
 10
46.903700
 20
64.249685
 30
0.0
 10
46.697500
 20
63.629685
 30
0.0
 10
46.363800
 20
62.589685
 30
0.0
 10
46.155600
 20
61.919685
 30
0.0
 10
45.569000
 20
62.109685
 30
0.0
 10
45.713100
 20
62.529685
 30
0.0
 10
46.116900
 20
63.729685
 30
0.0
 10
46.430000
 20
64.699685
 30
0.0
 10
46.802800
 20
65.869685
 30
0.0
 10
47.378300
 20
65.679685
 30
0.0
 10
47.192700
 20
65.119685
 30
0.0
 10
47.192700
 20
65.119685
 30
0.0
  0
LWPOLYLINE
  5
134
100
AcDbEntity
  8
Back_Silk
 62
7
100
AcDbPolyline
 90
4
 70
0
 10
47.195300
 20
65.109685
 30
0.0
 10
48.158200
 20
65.249685
 30
0.0
 10
48.889400
 20
65.269685
 30
0.0
 10
48.829900
 20
64.719685
 30
0.0
  0
LWPOLYLINE
  5
135
100
AcDbEntity
  8
Back_Silk
 62
7
100
AcDbPolyline
 90
24
 70
0
 10
51.872100
 20
62.279685
 30
0.0
 10
49.188700
 20
63.159685
 30
0.0
 10
49.118000
 20
62.379685
 30
0.0
 10
49.441000
 20
61.669685
 30
0.0
 10
49.862700
 20
61.299685
 30
0.0
 10
50.501300
 20
61.019685
 30
0.0
 10
50.890900
 20
60.899685
 30
0.0
 10
51.114800
 20
60.849685
 30
0.0
 10
50.885900
 20
60.379685
 30
0.0
 10
50.685500
 20
60.429685
 30
0.0
 10
50.288500
 20
60.549685
 30
0.0
 10
49.303000
 20
61.039685
 30
0.0
 10
48.723200
 20
61.699685
 30
0.0
 10
48.501400
 20
62.419685
 30
0.0
 10
48.591600
 20
63.259685
 30
0.0
 10
48.968900
 20
63.979685
 30
0.0
 10
49.555800
 20
64.489685
 30
0.0
 10
50.225700
 20
64.699685
 30
0.0
 10
50.946200
 20
64.619685
 30
0.0
 10
51.524400
 20
64.309685
 30
0.0
 10
51.884700
 20
63.839685
 30
0.0
 10
52.026100
 20
63.149685
 30
0.0
 10
51.871900
 20
62.279685
 30
0.0
 10
51.871900
 20
62.279685
 30
0.0
  0
LWPOLYLINE
  5
136
100
AcDbEntity
  8
Back_Silk
 62
7
100
AcDbPolyline
 90
5
 70
1
 10
51.433400
 20
62.879685
 30
0.0
 10
51.354400
 20
63.699685
 30
0.0
 10
50.772900
 20
64.189685
 30
0.0
 10
49.991200
 20
64.149685
 30
0.0
 10
49.370000
 20
63.559685
 30
0.0
  0
LWPOLYLINE
  5
137
100
AcDbEntity
  8
Back_Silk
 62
7
100
AcDbPolyline
 90
27
 70
0
 10
55.371300
 20
61.239685
 30
0.0
 10
54.875100
 20
59.739685
 30
0.0
 10
54.666500
 20
59.119685
 30
0.0
 10
54.312800
 20
59.209685
 30
0.0
 10
53.510100
 20
59.439685
 30
0.0
 10
52.916000
 20
59.699685
 30
0.0
 10
52.437700
 20
60.029685
 30
0.0
 10
52.078400
 20
60.559685
 30
0.0
 10
52.084200
 20
61.199685
 30
0.0
 10
52.499400
 20
61.729685
 30
0.0
 10
53.242000
 20
61.949685
 30
0.0
 10
53.942600
 20
61.919685
 30
0.0
 10
54.903200
 20
61.739685
 30
0.0
 10
54.914500
 20
62.259685
 30
0.0
 10
54.647100
 20
62.659685
 30
0.0
 10
54.313900
 20
62.879685
 30
0.0
 10
53.856000
 20
63.059685
 30
0.0
 10
53.567800
 20
63.149685
 30
0.0
 10
53.246300
 20
63.229685
 30
0.0
 10
53.467800
 20
63.709685
 30
0.0
 10
53.690400
 20
63.639685
 30
0.0
 10
54.146800
 20
63.509685
 30
0.0
 10
54.895700
 20
63.159685
 30
0.0
 10
55.370900
 20
62.679685
 30
0.0
 10
55.532900
 20
62.089685
 30
0.0
 10
55.371100
 20
61.239685
 30
0.0
 10
55.371100
 20
61.239685
 30
0.0
  0
LWPOLYLINE
  5
138
100
AcDbEntity
  8
Back_Silk
 62
7
100
AcDbPolyline
 90
15
 70
1
 10
54.509700
 20
60.529685
 30
0.0
 10
54.614500
 20
60.849685
 30
0.0
 10
54.757000
 20
61.299685
 30
0.0
 10
54.163500
 20
61.419685
 30
0.0
 10
53.423300
 20
61.479685
 30
0.0
 10
52.975400
 20
61.369685
 30
0.0
 10
52.689100
 20
61.029685
 30
0.0
 10
52.692300
 20
60.579685
 30
0.0
 10
52.990400
 20
60.219685
 30
0.0
 10
53.360700
 20
59.999685
 30
0.0
 10
53.819800
 20
59.819685
 30
0.0
 10
54.002900
 20
59.759685
 30
0.0
 10
54.231700
 20
59.699685
 30
0.0
 10
54.312100
 20
59.939685
 30
0.0
 10
54.509700
 20
60.529685
 30
0.0
  0
LWPOLYLINE
  5
139
100
AcDbEntity
  8
Back_Silk
 62
7
100
AcDbPolyline
 90
25
 70
1
 10
58.086100
 20
58.509685
 30
0.0
 10
57.864500
 20
58.059685
 30
0.0
 10
57.732200
 20
58.099685
 30
0.0
 10
57.556600
 20
58.149685
 30
0.0
 10
56.509700
 20
58.849685
 30
0.0
 10
56.440600
 20
59.949685
 30
0.0
 10
56.734500
 20
60.829685
 30
0.0
 10
57.126000
 20
61.999685
 30
0.0
 10
56.502400
 20
62.199685
 30
0.0
 10
56.644900
 20
62.639685
 30
0.0
 10
57.301800
 20
62.419685
 30
0.0
 10
57.590900
 20
63.299685
 30
0.0
 10
58.128800
 20
63.119685
 30
0.0
 10
57.840000
 20
62.239685
 30
0.0
 10
59.168500
 20
61.809685
 30
0.0
 10
59.026000
 20
61.369685
 30
0.0
 10
57.697500
 20
61.809685
 30
0.0
 10
57.537600
 20
61.349685
 30
0.0
 10
57.346000
 20
60.779685
 30
0.0
 10
57.220500
 20
60.399685
 30
0.0
 10
57.043800
 20
59.859685
 30
0.0
 10
57.074400
 20
59.079685
 30
0.0
 10
57.806500
 20
58.599685
 30
0.0
 10
57.966100
 20
58.549685
 30
0.0
 10
58.086100
 20
58.509685
 30
0.0
  0
LWPOLYLINE
  5
13a
100
AcDbEntity
  8
Back_Silk
 62
7
100
AcDbPolyline
 90
17
 70
1
 10
62.652600
 20
58.579685
 30
0.0
 10
62.226200
 20
57.809685
 30
0.0
 10
61.563900
 20
57.279685
 30
0.0
 10
60.901300
 20
57.109685
 30
0.0
 10
60.185700
 20
57.209685
 30
0.0
 10
59.556700
 20
57.539685
 30
0.0
 10
59.117000
 20
58.079685
 30
0.0
 10
58.898500
 20
58.899685
 30
0.0
 10
59.021800
 20
59.779685
 30
0.0
 10
59.408800
 20
60.519685
 30
0.0
 10
60.032900
 20
61.039685
 30
0.0
 10
60.742200
 20
61.239685
 30
0.0
 10
61.486300
 20
61.149685
 30
0.0
 10
62.141300
 20
60.799685
 30
0.0
 10
62.576200
 20
60.229685
 30
0.0
 10
62.778600
 20
59.429685
 30
0.0
 10
62.652600
 20
58.579685
 30
0.0
  0
LWPOLYLINE
  5
13b
100
AcDbEntity
  8
Back_Silk
 62
7
100
AcDbPolyline
 90
17
 70
1
 10
62.050300
 20
58.749685
 30
0.0
 10
62.158300
 20
59.469685
 30
0.0
 10
61.992300
 20
60.139685
 30
0.0
 10
61.717800
 20
60.469685
 30
0.0
 10
61.331500
 20
60.679685
 30
0.0
 10
60.859300
 20
60.749685
 30
0.0
 10
60.418900
 20
60.609685
 30
0.0
 10
59.939000
 20
60.199685
 30
0.0
 10
59.615600
 20
59.589685
 30
0.0
 10
59.501500
 20
58.849685
 30
0.0
 10
59.693400
 20
58.189685
 30
0.0
 10
59.961600
 20
57.879685
 30
0.0
 10
60.340500
 20
57.679685
 30
0.0
 10
60.801500
 20
57.619685
 30
0.0
 10
61.235800
 20
57.739685
 30
0.0
 10
61.729300
 20
58.149685
 30
0.0
 10
62.050300
 20
58.749685
 30
0.0
  0
LWPOLYLINE
  5
13c
100
AcDbEntity
  8
Back_Silk
 62
7
100
AcDbPolyline
 90
15
 70
0
 10
66.228100
 20
58.999685
 30
0.0
 10
65.533900
 20
59.009685
 30
0.0
 10
64.428700
 20
58.909685
 30
0.0
 10
64.301800
 20
58.539685
 30
0.0
 10
64.095700
 20
57.919685
 30
0.0
 10
63.762000
 20
56.879685
 30
0.0
 10
63.553700
 20
56.209685
 30
0.0
 10
62.967300
 20
56.399685
 30
0.0
 10
63.111400
 20
56.809685
 30
0.0
 10
63.515200
 20
58.019685
 30
0.0
 10
63.828300
 20
58.979685
 30
0.0
 10
64.201100
 20
60.159685
 30
0.0
 10
64.776200
 20
59.969685
 30
0.0
 10
64.591000
 20
59.399685
 30
0.0
 10
64.591000
 20
59.399685
 30
0.0
  0
LWPOLYLINE
  5
13d
100
AcDbEntity
  8
Back_Silk
 62
7
100
AcDbPolyline
 90
4
 70
0
 10
64.593600
 20
59.399685
 30
0.0
 10
65.556500
 20
59.539685
 30
0.0
 10
66.287700
 20
59.559685
 30
0.0
 10
66.228100
 20
58.999685
 30
0.0
  0
ENDSEC
  0
SECTION
  2
OBJECTS
  0
DICTIONARY
  5
C
330
0
100
AcDbDictionary
  3
ACAD_GROUP
350
D
  3
ACAD_MLINESTYLE
350
17
  0
DICTIONARY
  5
D
330
C
100
AcDbDictionary
  0
DICTIONARY
  5
1A
330
C
100
AcDbDictionary
  0
DICTIONARY
  5
17
330
C
100
AcDbDictionary
  3
STANDARD
350
18
  0
DICTIONARY
  5
19
330
C
100
AcDbDictionary
  0
ENDSEC
  0
EOF
