<?xml version="1.0" encoding="UTF-8" standalone="no"?>
<!-- Created with Inkscape (http://www.inkscape.org/) -->

<svg
   width="210mm"
   height="297mm"
   viewBox="0 0 210 297"
   version="1.1"
   id="svg1"
   inkscape:version="1.3 (0e150ed, 2023-07-21)"
   sodipodi:docname="edge_cuts_2.svg"
   xmlns:inkscape="http://www.inkscape.org/namespaces/inkscape"
   xmlns:sodipodi="http://sodipodi.sourceforge.net/DTD/sodipodi-0.dtd"
   xmlns="http://www.w3.org/2000/svg"
   xmlns:svg="http://www.w3.org/2000/svg">
  <sodipodi:namedview
     id="namedview1"
     pagecolor="#ffffff"
     bordercolor="#000000"
     borderopacity="0.25"
     inkscape:showpageshadow="2"
     inkscape:pageopacity="0.0"
     inkscape:pagecheckerboard="0"
     inkscape:deskcolor="#d1d1d1"
     inkscape:document-units="mm"
     inkscape:zoom="1.2599496"
     inkscape:cx="397.63495"
     inkscape:cy="561.5304"
     inkscape:window-width="2560"
     inkscape:window-height="1212"
     inkscape:window-x="0"
     inkscape:window-y="25"
     inkscape:window-maximized="0"
     inkscape:current-layer="layer1" />
  <defs
     id="defs1" />
  <g
     inkscape:label="Layer 1"
     inkscape:groupmode="layer"
     id="layer1">
    <path
       style="display:inline;fill:none;fill-opacity:1;stroke:#000000;stroke-width:0.0529167;stroke-dasharray:none;stroke-opacity:1;paint-order:stroke markers fill"
       d="m 138.50258,74.644526 c -7.83563,0.05946 -15.56618,2.059859 -22.71447,5.181874 -2.44636,1.138048 -4.92196,2.319913 -7.05237,3.99045 -1.77991,1.609074 -1.67079,4.762727 0.25212,6.220568 0.84648,0.727599 1.96414,1.021224 3.06706,0.921411 6.26655,0.127521 12.56223,-0.118095 18.78822,0.751408 0.73706,0.09787 1.48085,0.175229 2.21077,0.316388 -0.5653,0.986753 -1.16598,1.961799 -1.81388,2.893552 -3.275,-1.239559 -6.8941,-0.784509 -10.25694,-0.171044 -4.52016,0.939833 -9.00449,2.470552 -12.84473,5.072403 -2.05271,1.463444 -1.97229,4.985054 0.2194,6.284464 0.60356,0.39686 1.23887,0.76084 1.99233,0.61925 3.57559,0.10024 7.18121,-0.0107 10.73449,0.37896 -0.39922,0.91908 -0.99292,1.96116 -2.00122,2.3955 -1.54342,1.05542 -3.31683,1.83148 -4.66461,3.14566 -1.41926,1.71714 -1.02505,4.60424 0.92989,5.75603 0.48627,0.39858 1.15995,0.42684 1.67398,0.72296 0.36799,1.41938 1.35,2.77831 2.78923,3.25831 1.63857,0.47116 3.53531,-0.15092 4.44915,-1.61707 1.13179,-1.54139 1.99841,-3.293 3.11141,-4.82092 0.5441,-0.27881 1.06776,-0.66011 1.64655,-0.84578 0.34759,1.81761 0.21283,3.70654 0.28014,5.55449 0.009,1.78548 0.01,3.571 0.0153,5.3565 -1.38221,0.17046 -2.66196,1.22959 -3.00777,2.57977 -0.1263,5.70643 -0.10959,11.41754 -0.0347,17.12478 0.0328,1.04792 0.0226,2.26848 0.95845,2.96817 0.78227,0.84857 1.9822,0.99951 3.07559,0.91768 7.29719,0.0709 14.59594,0.0243 21.89267,0.0155 1.30724,-0.46526 2.4852,-1.4695 2.83426,-2.83709 -0.004,-6.39218 0.007,-12.78618 -0.005,-19.17723 -0.30493,-0.71014 -0.87954,-1.2591 -1.58722,-1.56668 2.77723,-4.77641 4.98985,-9.89001 6.35067,-15.24836 1.26473,-5.01288 2.2032,-10.21163 1.74571,-15.396314 -0.18018,-2.323307 -1.11043,-4.524998 -2.47926,-6.398656 1.40852,-2.828416 2.42075,-6.216125 1.28569,-9.311707 -0.82054,-2.404382 -3.21755,-3.998761 -5.71025,-4.18431 -2.57421,-0.265599 -5.11998,0.558774 -7.38027,1.727072 -2.3609,-1.727966 -5.27452,-2.670196 -8.20847,-2.577335 -0.18053,-0.0025 -0.36106,-0.0011 -0.5416,-6.92e-4 z m 5.67445,28.576014 c 1.03797,6.30237 1.08232,12.70696 1.04958,19.0781 0.0733,1.21948 -0.11239,2.5063 0.21545,3.68368 -2.61879,0.14227 -5.25643,0.0947 -7.88101,0.0376 2.19549,-4.17976 3.70549,-8.72885 4.23661,-13.42528 0.32135,-2.35063 0.34195,-4.78863 -0.41382,-7.06153 -0.13705,-0.3355 -0.14755,-0.67387 0.27402,-0.79524 0.81587,-0.5277 1.66258,-1.12158 2.51917,-1.51737 z"
       id="path1"
       inkscape:label="infill" />
  </g>
</svg>
