999
"DXF R12 Output" (www.mydxf.blogspot.com)
 0 
SECTION
 2 
HEADER
 9 
$ACADVER
 1 
AC1009
 9 
$EXTMIN
 10 
 0 
 20 
 0 
 9 
$EXTMAX
 10 
 8.5 
 20 
 11 
 0 
ENDSEC
 0 
SECTION
 2 
ENTITIES
0
LINE
8
Front Silk
10
31.700822
20
49.542389
11
26.339729
21
49.170948
0
LINE
8
Front Silk
10
26.339729
20
49.170948
11
21.044886
21
48.258716
0
LINE
8
Front Silk
10
21.044886
20
48.258716
11
15.852108
21
46.864551
0
LINE
8
Front Silk
10
15.852108
20
46.864551
11
10.797208
21
45.047309
0
LINE
8
Front Silk
10
10.797208
20
45.047309
11
6.508378
21
43.069507
0
LINE
8
Front Silk
10
6.508378
20
43.069507
11
4.443277
21
41.925980
0
LINE
8
Front Silk
10
4.443277
20
41.925980
11
2.459880
21
40.648390
0
LINE
8
Front Silk
10
2.459880
20
40.648390
11
1.806305
21
40.056157
0
LINE
8
Front Silk
10
1.806305
20
40.056157
11
1.325520
21
39.336110
0
LINE
8
Front Silk
10
1.325520
20
39.336110
11
1.017656
21
38.526901
0
LINE
8
Front Silk
10
1.017656
20
38.526901
11
0.882841
21
37.667183
0
LINE
8
Front Silk
10
0.882841
20
37.667183
11
0.921205
21
36.795608
0
LINE
8
Front Silk
10
0.921205
20
36.795608
11
1.132878
21
35.950828
0
LINE
8
Front Silk
10
1.132878
20
35.950828
11
1.517990
21
35.171497
0
LINE
8
Front Silk
10
1.517990
20
35.171497
11
2.076670
21
34.496266
0
LINE
8
Front Silk
10
2.076670
20
34.496266
11
2.781508
21
33.929502
0
LINE
8
Front Silk
10
2.781508
20
33.929502
11
3.595385
21
33.553422
0
LINE
8
Front Silk
10
3.595385
20
33.553422
11
4.475940
21
33.358351
0
LINE
8
Front Silk
10
4.475940
20
33.358351
11
5.380807
21
33.334613
0
LINE
8
Front Silk
10
5.380807
20
33.334613
11
13.768049
21
33.291645
0
LINE
8
Front Silk
10
13.768049
20
33.291645
11
17.957966
21
33.169671
0
LINE
8
Front Silk
10
17.957966
20
33.169671
11
22.137324
21
32.828918
0
LINE
8
Front Silk
10
22.137324
20
32.828918
11
24.340246
21
32.590281
0
LINE
8
Front Silk
10
24.340246
20
32.590281
11
26.513093
21
32.254484
0
LINE
8
Front Silk
10
26.513093
20
32.254484
11
25.600747
21
30.705275
0
LINE
8
Front Silk
10
25.600747
20
30.705275
11
24.577279
21
29.233654
0
LINE
8
Front Silk
10
24.577279
20
29.233654
11
23.185766
21
29.696136
0
LINE
8
Front Silk
10
23.185766
20
29.696136
11
21.964544
21
29.895911
0
LINE
8
Front Silk
10
21.964544
20
29.895911
11
20.727199
21
29.957267
0
LINE
8
Front Silk
10
20.727199
20
29.957267
11
18.245034
21
29.931234
0
LINE
8
Front Silk
10
18.245034
20
29.931234
11
14.721783
21
29.490986
0
LINE
8
Front Silk
10
14.721783
20
29.490986
11
11.258182
21
28.691620
0
LINE
8
Front Silk
10
11.258182
20
28.691620
11
8.737781
21
27.904675
0
LINE
8
Front Silk
10
8.737781
20
27.904675
11
6.273477
21
26.948361
0
LINE
8
Front Silk
10
6.273477
20
26.948361
11
3.898099
21
25.797247
0
LINE
8
Front Silk
10
3.898099
20
25.797247
11
1.644476
21
24.425901
0
LINE
8
Front Silk
10
1.644476
20
24.425901
11
0.808191
21
23.635526
0
LINE
8
Front Silk
10
0.808191
20
23.635526
11
0.277363
21
22.628363
0
LINE
8
Front Silk
10
0.277363
20
22.628363
11
0.066131
21
21.503848
0
LINE
8
Front Silk
10
0.066131
20
21.503848
11
0.188634
21
20.361417
0
LINE
8
Front Silk
10
0.188634
20
20.361417
11
0.706752
21
19.171500
0
LINE
8
Front Silk
10
0.706752
20
19.171500
11
1.618769
21
18.257547
0
LINE
8
Front Silk
10
1.618769
20
18.257547
11
2.789625
21
17.694688
0
LINE
8
Front Silk
10
2.789625
20
17.694688
11
4.084261
21
17.558055
0
LINE
8
Front Silk
10
4.084261
20
17.558055
11
9.251594
21
17.519284
0
LINE
8
Front Silk
10
9.251594
20
17.519284
11
11.832667
21
17.442807
0
LINE
8
Front Silk
10
11.832667
20
17.442807
11
14.403867
21
17.213184
0
LINE
8
Front Silk
10
14.403867
20
17.213184
11
14.519311
21
17.099842
0
LINE
8
Front Silk
10
14.519311
20
17.099842
11
14.445077
21
16.917751
0
LINE
8
Front Silk
10
14.445077
20
16.917751
11
14.229531
21
16.547803
0
LINE
8
Front Silk
10
14.229531
20
16.547803
11
13.727260
21
15.653900
0
LINE
8
Front Silk
10
13.727260
20
15.653900
11
13.416911
21
15.263215
0
LINE
8
Front Silk
10
13.416911
20
15.263215
11
12.983920
21
14.991308
0
LINE
8
Front Silk
10
12.983920
20
14.991308
11
10.432913
21
13.427421
0
LINE
8
Front Silk
10
10.432913
20
13.427421
11
7.972489
21
11.734032
0
LINE
8
Front Silk
10
7.972489
20
11.734032
11
7.472540
21
11.056567
0
LINE
8
Front Silk
10
7.472540
20
11.056567
11
7.150805
21
10.289642
0
LINE
8
Front Silk
10
7.150805
20
10.289642
11
7.003097
21
9.470214
0
LINE
8
Front Silk
10
7.003097
20
9.470214
11
7.025228
21
8.635241
0
LINE
8
Front Silk
10
7.025228
20
8.635241
11
7.213008
21
7.821681
0
LINE
8
Front Silk
10
7.213008
20
7.821681
11
7.562249
21
7.066490
0
LINE
8
Front Silk
10
7.562249
20
7.066490
11
8.068762
21
6.406626
0
LINE
8
Front Silk
10
8.068762
20
6.406626
11
8.728360
21
5.879046
0
LINE
8
Front Silk
10
8.728360
20
5.879046
11
9.556148
21
5.488832
0
LINE
8
Front Silk
10
9.556148
20
5.488832
11
10.449483
21
5.276093
0
LINE
8
Front Silk
10
10.449483
20
5.276093
11
10.947397
21
3.846234
0
LINE
8
Front Silk
10
10.947397
20
3.846234
11
11.923192
21
2.669485
0
LINE
8
Front Silk
10
11.923192
20
2.669485
11
13.236136
21
1.919456
0
LINE
8
Front Silk
10
13.236136
20
1.919456
11
13.975061
21
1.758716
0
LINE
8
Front Silk
10
13.975061
20
1.758716
11
14.745500
21
1.769760
0
LINE
8
Front Silk
10
14.745500
20
1.769760
11
15.689703
21
2.023391
0
LINE
8
Front Silk
10
15.689703
20
2.023391
11
16.557631
21
2.470468
0
LINE
8
Front Silk
10
16.557631
20
2.470468
11
17.296063
21
3.100792
0
LINE
8
Front Silk
10
17.296063
20
3.100792
11
17.851775
21
3.904164
0
LINE
8
Front Silk
10
17.851775
20
3.904164
11
20.645864
21
8.328156
0
LINE
8
Front Silk
10
20.645864
20
8.328156
11
21.500293
21
8.827600
0
LINE
8
Front Silk
10
21.500293
20
8.827600
11
22.382586
21
9.241639
0
LINE
8
Front Silk
10
22.382586
20
9.241639
11
22.568717
21
8.613170
0
LINE
8
Front Silk
10
22.568717
20
8.613170
11
22.610940
21
7.924283
0
LINE
8
Front Silk
10
22.610940
20
7.924283
11
22.822141
21
3.064482
0
LINE
8
Front Silk
10
22.822141
20
3.064482
11
22.809470
21
-1.800666
0
LINE
8
Front Silk
10
22.809470
20
-1.800666
11
21.994391
21
-2.004347
0
LINE
8
Front Silk
10
21.994391
20
-2.004347
11
21.239485
21
-2.361521
0
LINE
8
Front Silk
10
21.239485
20
-2.361521
11
20.586423
21
-2.873175
0
LINE
8
Front Silk
10
20.586423
20
-2.873175
11
20.076876
21
-3.540297
0
LINE
8
Front Silk
10
20.076876
20
-3.540297
11
19.711251
21
-4.440583
0
LINE
8
Front Silk
10
19.711251
20
-4.440583
11
19.600990
21
-5.400749
0
LINE
8
Front Silk
10
19.600990
20
-5.400749
11
19.600808
21
-7.357131
0
LINE
8
Front Silk
10
19.600808
20
-7.357131
11
19.691681
21
-22.928738
0
LINE
8
Front Silk
10
19.691681
20
-22.928738
11
20.074469
21
-23.705957
0
LINE
8
Front Silk
10
20.074469
20
-23.705957
11
20.611727
21
-24.393283
0
LINE
8
Front Silk
10
20.611727
20
-24.393283
11
21.288535
21
-24.926131
0
LINE
8
Front Silk
10
21.288535
20
-24.926131
11
22.089974
21
-25.239918
0
LINE
8
Front Silk
10
22.089974
20
-25.239918
11
45.433429
21
-25.312702
0
LINE
8
Front Silk
10
45.433429
20
-25.312702
11
46.367016
21
-24.942000
0
LINE
8
Front Silk
10
46.367016
20
-24.942000
11
47.177357
21
-24.359576
0
LINE
8
Front Silk
10
47.177357
20
-24.359576
11
47.818837
21
-23.598577
0
LINE
8
Front Silk
10
47.818837
20
-23.598577
11
48.245838
21
-22.692148
0
LINE
8
Front Silk
10
48.245838
20
-22.692148
11
48.319675
21
-21.384748
0
LINE
8
Front Silk
10
48.319675
20
-21.384748
11
48.311388
21
-20.061446
0
LINE
8
Front Silk
10
48.311388
20
-20.061446
11
48.311388
21
-3.415228
0
LINE
8
Front Silk
10
48.311388
20
-3.415228
11
47.668803
21
-2.448355
0
LINE
8
Front Silk
10
47.668803
20
-2.448355
11
47.206991
21
-2.099705
0
LINE
8
Front Silk
10
47.206991
20
-2.099705
11
46.665838
21
-1.873937
0
LINE
8
Front Silk
10
46.665838
20
-1.873937
11
47.065375
21
-1.096446
0
LINE
8
Front Silk
10
47.065375
20
-1.096446
11
47.522806
21
-0.328338
0
LINE
8
Front Silk
10
47.522806
20
-0.328338
11
48.890603
21
2.251213
0
LINE
8
Front Silk
10
48.890603
20
2.251213
11
50.119252
21
4.897545
0
LINE
8
Front Silk
10
50.119252
20
4.897545
11
52.165550
21
10.359469
0
LINE
8
Front Silk
10
52.165550
20
10.359469
11
53.674582
21
15.995272
0
LINE
8
Front Silk
10
53.674582
20
15.995272
11
54.659229
21
21.742795
0
LINE
8
Front Silk
10
54.659229
20
21.742795
11
54.924493
21
25.637941
0
LINE
8
Front Silk
10
54.924493
20
25.637941
11
54.744951
21
29.536375
0
LINE
8
Front Silk
10
54.744951
20
29.536375
11
54.442712
21
31.010632
0
LINE
8
Front Silk
10
54.442712
20
31.010632
11
53.935334
21
32.422840
0
LINE
8
Front Silk
10
53.935334
20
32.422840
11
53.262349
21
33.768837
0
LINE
8
Front Silk
10
53.262349
20
33.768837
11
52.463288
21
35.044461
0
LINE
8
Front Silk
10
52.463288
20
35.044461
11
52.414691
21
35.398406
0
LINE
8
Front Silk
10
52.414691
20
35.398406
11
52.537985
21
35.746456
0
LINE
8
Front Silk
10
52.537985
20
35.746456
11
52.857347
21
36.434026
0
LINE
8
Front Silk
10
52.857347
20
36.434026
11
53.569638
21
38.263192
0
LINE
8
Front Silk
10
53.569638
20
38.263192
11
53.998232
21
40.182206
0
LINE
8
Front Silk
10
53.998232
20
40.182206
11
54.090172
21
42.137854
0
LINE
8
Front Silk
10
54.090172
20
42.137854
11
53.792500
21
44.076926
0
LINE
8
Front Silk
10
53.792500
20
44.076926
11
53.266589
21
45.350175
0
LINE
8
Front Silk
10
53.266589
20
45.350175
11
52.489869
21
46.485292
0
LINE
8
Front Silk
10
52.489869
20
46.485292
11
51.485361
21
47.418853
0
LINE
8
Front Silk
10
51.485361
20
47.418853
11
50.276089
21
48.087432
0
LINE
8
Front Silk
10
50.276089
20
48.087432
11
48.765790
21
48.545482
0
LINE
8
Front Silk
10
48.765790
20
48.545482
11
47.194183
21
48.706811
0
LINE
8
Front Silk
10
47.194183
20
48.706811
11
45.608950
21
48.617376
0
LINE
8
Front Silk
10
45.608950
20
48.617376
11
44.057769
21
48.323129
0
LINE
8
Front Silk
10
44.057769
20
48.323129
11
42.301439
21
47.718133
0
LINE
8
Front Silk
10
42.301439
20
47.718133
11
40.611536
21
46.943595
0
LINE
8
Front Silk
10
40.611536
20
46.943595
11
39.082952
21
47.881033
0
LINE
8
Front Silk
10
39.082952
20
47.881033
11
37.463055
21
48.653992
0
LINE
8
Front Silk
10
37.463055
20
48.653992
11
35.760249
21
49.200176
0
LINE
8
Front Silk
10
35.760249
20
49.200176
11
33.982938
21
49.457293
0
LINE
8
Front Silk
10
33.982938
20
49.457293
11
31.700822
21
49.542389
0
LINE
8
Front Silk
10
31.700822
20
49.542389
11
31.700822
21
49.542389
0
LINE
8
Front Silk
10
32.121462
20
49.167488
11
34.078150
21
49.069155
0
LINE
8
Front Silk
10
34.078150
20
49.069155
11
36.003439
21
48.713431
0
LINE
8
Front Silk
10
36.003439
20
48.713431
11
37.849199
21
48.077158
0
LINE
8
Front Silk
10
37.849199
20
48.077158
11
39.567301
21
47.137183
0
LINE
8
Front Silk
10
39.567301
20
47.137183
11
40.172046
21
46.715726
0
LINE
8
Front Silk
10
40.172046
20
46.715726
11
40.475455
21
46.544876
0
LINE
8
Front Silk
10
40.475455
20
46.544876
11
40.791937
21
46.579551
0
LINE
8
Front Silk
10
40.791937
20
46.579551
11
43.331325
21
47.695350
0
LINE
8
Front Silk
10
43.331325
20
47.695350
11
44.661693
21
48.079325
0
LINE
8
Front Silk
10
44.661693
20
48.079325
11
46.032826
21
48.265095
0
LINE
8
Front Silk
10
46.032826
20
48.265095
11
48.029169
21
48.255129
0
LINE
8
Front Silk
10
48.029169
20
48.255129
11
49.011581
21
48.124142
0
LINE
8
Front Silk
10
49.011581
20
48.124142
11
49.956938
21
47.803845
0
LINE
8
Front Silk
10
49.956938
20
47.803845
11
51.183515
21
47.156201
0
LINE
8
Front Silk
10
51.183515
20
47.156201
11
52.199954
21
46.226247
0
LINE
8
Front Silk
10
52.199954
20
46.226247
11
52.971413
21
45.081221
0
LINE
8
Front Silk
10
52.971413
20
45.081221
11
53.463049
21
43.788361
0
LINE
8
Front Silk
10
53.463049
20
43.788361
11
53.698376
21
42.169657
0
LINE
8
Front Silk
10
53.698376
20
42.169657
11
53.649645
21
40.539433
0
LINE
8
Front Silk
10
53.649645
20
40.539433
11
53.349212
21
38.931634
0
LINE
8
Front Silk
10
53.349212
20
38.931634
11
52.829434
21
37.380202
0
LINE
8
Front Silk
10
52.829434
20
37.380202
11
51.863714
21
35.213244
0
LINE
8
Front Silk
10
51.863714
20
35.213244
11
52.845342
21
33.691458
0
LINE
8
Front Silk
10
52.845342
20
33.691458
11
53.650679
21
32.068303
0
LINE
8
Front Silk
10
53.650679
20
32.068303
11
54.210372
21
30.354542
0
LINE
8
Front Silk
10
54.210372
20
30.354542
11
54.455066
21
28.560936
0
LINE
8
Front Silk
10
54.455066
20
28.560936
11
54.541778
21
25.448111
0
LINE
8
Front Silk
10
54.541778
20
25.448111
11
54.332259
21
22.342298
0
LINE
8
Front Silk
10
54.332259
20
22.342298
11
53.899861
21
19.254266
0
LINE
8
Front Silk
10
53.899861
20
19.254266
11
53.317933
21
16.194783
0
LINE
8
Front Silk
10
53.317933
20
16.194783
11
52.091264
21
11.449651
0
LINE
8
Front Silk
10
52.091264
20
11.449651
11
50.493942
21
6.812850
0
LINE
8
Front Silk
10
50.493942
20
6.812850
11
48.501004
21
2.334696
0
LINE
8
Front Silk
10
48.501004
20
2.334696
11
46.087489
21
-1.934495
0
LINE
8
Front Silk
10
46.087489
20
-1.934495
11
45.931132
21
-2.203103
0
LINE
8
Front Silk
10
45.931132
20
-2.203103
11
46.146919
21
-2.272106
0
LINE
8
Front Silk
10
46.146919
20
-2.272106
11
46.853985
21
-2.378261
0
LINE
8
Front Silk
10
46.853985
20
-2.378261
11
47.368328
21
-2.683665
0
LINE
8
Front Silk
10
47.368328
20
-2.683665
11
47.718329
21
-3.146508
0
LINE
8
Front Silk
10
47.718329
20
-3.146508
11
47.900485
21
-3.705704
0
LINE
8
Front Silk
10
47.900485
20
-3.705704
11
47.911294
21
-4.300168
0
LINE
8
Front Silk
10
47.911294
20
-4.300168
11
47.911558
21
-22.530501
0
LINE
8
Front Silk
10
47.911558
20
-22.530501
11
47.521033
21
-23.326907
0
LINE
8
Front Silk
10
47.521033
20
-23.326907
11
46.970617
21
-24.022758
0
LINE
8
Front Silk
10
46.970617
20
-24.022758
11
46.269629
21
-24.549882
0
LINE
8
Front Silk
10
46.269629
20
-24.549882
11
45.427386
21
-24.840109
0
LINE
8
Front Silk
10
45.427386
20
-24.840109
11
41.755591
21
-24.948966
0
LINE
8
Front Silk
10
41.755591
20
-24.948966
11
38.079313
21
-24.950123
0
LINE
8
Front Silk
10
38.079313
20
-24.950123
11
22.311275
21
-24.875733
0
LINE
8
Front Silk
10
22.311275
20
-24.875733
11
21.531264
21
-24.607112
0
LINE
8
Front Silk
10
21.531264
20
-24.607112
11
20.873923
21
-24.112285
0
LINE
8
Front Silk
10
20.873923
20
-24.112285
11
20.379881
21
-23.453633
0
LINE
8
Front Silk
10
20.379881
20
-23.453633
11
20.089766
21
-22.693537
0
LINE
8
Front Silk
10
20.089766
20
-22.693537
11
20.011342
21
-4.530287
0
LINE
8
Front Silk
10
20.011342
20
-4.530287
11
20.441016
21
-3.679600
0
LINE
8
Front Silk
10
20.441016
20
-3.679600
11
21.071917
21
-2.964279
0
LINE
8
Front Silk
10
21.071917
20
-2.964279
11
21.871010
21
-2.463944
0
LINE
8
Front Silk
10
21.871010
20
-2.463944
11
22.805258
21
-2.258212
0
LINE
8
Front Silk
10
22.805258
20
-2.258212
11
23.128115
21
-2.176369
0
LINE
8
Front Silk
10
23.128115
20
-2.176369
11
23.204173
21
-1.869144
0
LINE
8
Front Silk
10
23.204173
20
-1.869144
11
23.193011
21
-1.105583
0
LINE
8
Front Silk
10
23.193011
20
-1.105583
11
23.184809
21
4.392854
0
LINE
8
Front Silk
10
23.184809
20
4.392854
11
22.790779
21
9.872440
0
LINE
8
Front Silk
10
22.790779
20
9.872440
11
22.297803
21
9.729862
0
LINE
8
Front Silk
10
22.297803
20
9.729862
11
21.819913
21
9.451761
0
LINE
8
Front Silk
10
21.819913
20
9.451761
11
20.715288
21
8.812275
0
LINE
8
Front Silk
10
20.715288
20
8.812275
11
20.227281
21
8.420375
0
LINE
8
Front Silk
10
20.227281
20
8.420375
11
19.876126
21
7.890906
0
LINE
8
Front Silk
10
19.876126
20
7.890906
11
17.165547
21
3.554973
0
LINE
8
Front Silk
10
17.165547
20
3.554973
11
16.238178
21
2.735435
0
LINE
8
Front Silk
10
16.238178
20
2.735435
11
15.096429
21
2.249579
0
LINE
8
Front Silk
10
15.096429
20
2.249579
11
13.872882
21
2.172150
0
LINE
8
Front Silk
10
13.872882
20
2.172150
11
12.700120
21
2.577894
0
LINE
8
Front Silk
10
12.700120
20
2.577894
11
11.960779
21
3.125180
0
LINE
8
Front Silk
10
11.960779
20
3.125180
11
11.395647
21
3.843380
0
LINE
8
Front Silk
10
11.395647
20
3.843380
11
11.011445
21
4.675528
0
LINE
8
Front Silk
10
11.011445
20
4.675528
11
10.814894
21
5.564658
0
LINE
8
Front Silk
10
10.814894
20
5.564658
11
9.634769
21
5.889486
0
LINE
8
Front Silk
10
9.634769
20
5.889486
11
9.074576
21
6.131979
0
LINE
8
Front Silk
10
9.074576
20
6.131979
11
8.575233
21
6.493199
0
LINE
8
Front Silk
10
8.575233
20
6.493199
11
8.084031
21
6.995878
0
LINE
8
Front Silk
10
8.084031
20
6.995878
11
7.720380
21
7.587408
0
LINE
8
Front Silk
10
7.720380
20
7.587408
11
7.379676
21
8.928919
0
LINE
8
Front Silk
10
7.379676
20
8.928919
11
7.561023
21
10.301526
0
LINE
8
Front Silk
10
7.561023
20
10.301526
11
7.849935
21
10.931926
0
LINE
8
Front Silk
10
7.849935
20
10.931926
11
8.272322
21
11.489023
0
LINE
8
Front Silk
10
8.272322
20
11.489023
11
11.002857
21
13.323162
0
LINE
8
Front Silk
10
11.002857
20
13.323162
11
13.810895
21
15.042958
0
LINE
8
Front Silk
10
13.810895
20
15.042958
11
15.166028
21
17.495060
0
LINE
8
Front Silk
10
15.166028
20
17.495060
11
12.262238
21
17.808928
0
LINE
8
Front Silk
10
12.262238
20
17.808928
11
9.342234
21
17.910336
0
LINE
8
Front Silk
10
9.342234
20
17.910336
11
3.494415
21
17.985854
0
LINE
8
Front Silk
10
3.494415
20
17.985854
11
2.279516
21
18.295903
0
LINE
8
Front Silk
10
2.279516
20
18.295903
11
1.292154
21
19.062922
0
LINE
8
Front Silk
10
1.292154
20
19.062922
11
0.648335
21
20.139289
0
LINE
8
Front Silk
10
0.648335
20
20.139289
11
0.464063
21
21.377382
0
LINE
8
Front Silk
10
0.464063
20
21.377382
11
0.592422
21
22.337147
0
LINE
8
Front Silk
10
0.592422
20
22.337147
11
0.990743
21
23.212640
0
LINE
8
Front Silk
10
0.990743
20
23.212640
11
1.614259
21
23.949956
0
LINE
8
Front Silk
10
1.614259
20
23.949956
11
2.418205
21
24.495193
0
LINE
8
Front Silk
10
2.418205
20
24.495193
11
5.966512
21
26.370451
0
LINE
8
Front Silk
10
5.966512
20
26.370451
11
9.708534
21
27.822659
0
LINE
8
Front Silk
10
9.708534
20
27.822659
11
13.588904
21
28.864779
0
LINE
8
Front Silk
10
13.588904
20
28.864779
11
17.552260
21
29.509774
0
LINE
8
Front Silk
10
17.552260
20
29.509774
11
20.160144
21
29.559594
0
LINE
8
Front Silk
10
20.160144
20
29.559594
11
22.760286
21
29.408038
0
LINE
8
Front Silk
10
22.760286
20
29.408038
11
23.718629
21
29.119000
0
LINE
8
Front Silk
10
23.718629
20
29.119000
11
24.641296
21
28.725594
0
LINE
8
Front Silk
10
24.641296
20
28.725594
11
25.742477
21
30.210336
0
LINE
8
Front Silk
10
25.742477
20
30.210336
11
26.713351
21
31.792055
0
LINE
8
Front Silk
10
26.713351
20
31.792055
11
26.942336
21
32.175910
0
LINE
8
Front Silk
10
26.942336
20
32.175910
11
27.088625
21
32.559849
0
LINE
8
Front Silk
10
27.088625
20
32.559849
11
22.828798
21
33.155028
0
LINE
8
Front Silk
10
22.828798
20
33.155028
11
18.540045
21
33.522250
0
LINE
8
Front Silk
10
18.540045
20
33.522250
11
14.966970
21
33.672209
0
LINE
8
Front Silk
10
14.966970
20
33.672209
11
11.390462
21
33.701686
0
LINE
8
Front Silk
10
11.390462
20
33.701686
11
4.238575
21
33.781777
0
LINE
8
Front Silk
10
4.238575
20
33.781777
11
2.997812
21
34.255478
0
LINE
8
Front Silk
10
2.997812
20
34.255478
11
2.021271
21
35.147600
0
LINE
8
Front Silk
10
2.021271
20
35.147600
11
1.415233
21
36.322064
0
LINE
8
Front Silk
10
1.415233
20
36.322064
11
1.285981
21
37.642788
0
LINE
8
Front Silk
10
1.285981
20
37.642788
11
1.449733
21
38.609047
0
LINE
8
Front Silk
10
1.449733
20
38.609047
11
1.878180
21
39.478972
0
LINE
8
Front Silk
10
1.878180
20
39.478972
11
2.519123
21
40.215882
0
LINE
8
Front Silk
10
2.519123
20
40.215882
11
3.320362
21
40.783096
0
LINE
8
Front Silk
10
3.320362
20
40.783096
11
7.770134
21
43.260725
0
LINE
8
Front Silk
10
7.770134
20
43.260725
11
12.442240
21
45.289668
0
LINE
8
Front Silk
10
12.442240
20
45.289668
11
17.281139
21
46.896620
0
LINE
8
Front Silk
10
17.281139
20
46.896620
11
22.231286
21
48.108277
0
LINE
8
Front Silk
10
22.231286
20
48.108277
11
27.151779
21
48.872359
0
LINE
8
Front Silk
10
27.151779
20
48.872359
11
32.121462
21
49.167488
0
LINE
8
Front Silk
10
32.121462
20
49.167488
11
32.121462
21
49.167488
0
LINE
8
Front Silk
10
31.848116
20
49.592242
11
28.915617
21
49.480564
0
LINE
8
Front Silk
10
28.915617
20
49.480564
11
25.998562
21
49.196525
0
LINE
8
Front Silk
10
25.998562
20
49.196525
11
23.102540
21
48.749725
0
LINE
8
Front Silk
10
23.102540
20
48.749725
11
20.233145
21
48.149766
0
LINE
8
Front Silk
10
20.233145
20
48.149766
11
14.596603
21
46.528779
0
LINE
8
Front Silk
10
14.596603
20
46.528779
11
9.133672
21
44.410375
0
LINE
8
Front Silk
10
9.133672
20
44.410375
11
5.489012
21
42.614835
0
LINE
8
Front Silk
10
5.489012
20
42.614835
11
3.737989
21
41.588156
0
LINE
8
Front Silk
10
3.737989
20
41.588156
11
2.081310
21
40.419929
0
LINE
8
Front Silk
10
2.081310
20
40.419929
11
1.502248
21
39.750454
0
LINE
8
Front Silk
10
1.502248
20
39.750454
11
1.099400
21
38.974148
0
LINE
8
Front Silk
10
1.099400
20
38.974148
11
0.871885
21
38.128985
0
LINE
8
Front Silk
10
0.871885
20
38.128985
11
0.818820
21
37.252937
0
LINE
8
Front Silk
10
0.818820
20
37.252937
11
0.939324
21
36.383978
0
LINE
8
Front Silk
10
0.939324
20
36.383978
11
1.232516
21
35.560082
0
LINE
8
Front Silk
10
1.232516
20
35.560082
11
1.697515
21
34.819221
0
LINE
8
Front Silk
10
1.697515
20
34.819221
11
2.333438
21
34.199370
0
LINE
8
Front Silk
10
2.333438
20
34.199370
11
3.014676
21
33.734407
0
LINE
8
Front Silk
10
3.014676
20
33.734407
11
3.770800
21
33.428385
0
LINE
8
Front Silk
10
3.770800
20
33.428385
11
4.575008
21
33.277503
0
LINE
8
Front Silk
10
4.575008
20
33.277503
11
5.400495
21
33.277959
0
LINE
8
Front Silk
10
5.400495
20
33.277959
11
14.809796
21
33.180499
0
LINE
8
Front Silk
10
14.809796
20
33.180499
11
19.507674
21
32.992848
0
LINE
8
Front Silk
10
19.507674
20
32.992848
11
24.188684
21
32.526552
0
LINE
8
Front Silk
10
24.188684
20
32.526552
11
26.399452
21
32.210165
0
LINE
8
Front Silk
10
26.399452
20
32.210165
11
24.585573
21
29.316616
0
LINE
8
Front Silk
10
24.585573
20
29.316616
11
22.074189
21
29.952548
0
LINE
8
Front Silk
10
22.074189
20
29.952548
11
19.490051
21
30.097021
0
LINE
8
Front Silk
10
19.490051
20
30.097021
11
16.889445
21
29.894053
0
LINE
8
Front Silk
10
16.889445
20
29.894053
11
14.328652
21
29.487660
0
LINE
8
Front Silk
10
14.328652
20
29.487660
11
10.954757
21
28.664491
0
LINE
8
Front Silk
10
10.954757
20
28.664491
11
7.651321
21
27.574718
0
LINE
8
Front Silk
10
7.651321
20
27.574718
11
4.475371
21
26.173316
0
LINE
8
Front Silk
10
4.475371
20
26.173316
11
1.483931
21
24.415263
0
LINE
8
Front Silk
10
1.483931
20
24.415263
11
0.814114
21
23.778357
0
LINE
8
Front Silk
10
0.814114
20
23.778357
11
0.344021
21
22.998658
0
LINE
8
Front Silk
10
0.344021
20
22.998658
11
0.073397
21
22.126326
0
LINE
8
Front Silk
10
0.073397
20
22.126326
11
0.001986
21
21.211523
0
LINE
8
Front Silk
10
0.001986
20
21.211523
11
0.129530
21
20.304409
0
LINE
8
Front Silk
10
0.129530
20
20.304409
11
0.455774
21
19.455145
0
LINE
8
Front Silk
10
0.455774
20
19.455145
11
0.980461
21
18.713892
0
LINE
8
Front Silk
10
0.980461
20
18.713892
11
1.703336
21
18.130811
0
LINE
8
Front Silk
10
1.703336
20
18.130811
11
2.643287
21
17.619265
0
LINE
8
Front Silk
10
2.643287
20
17.619265
11
3.151374
21
17.492773
0
LINE
8
Front Silk
10
3.151374
20
17.492773
11
3.695666
21
17.511557
0
LINE
8
Front Silk
10
3.695666
20
17.511557
11
9.071266
21
17.430595
0
LINE
8
Front Silk
10
9.071266
20
17.430595
11
14.430137
21
17.132597
0
LINE
8
Front Silk
10
14.430137
20
17.132597
11
13.657936
21
15.753072
0
LINE
8
Front Silk
10
13.657936
20
15.753072
11
13.110848
21
15.165389
0
LINE
8
Front Silk
10
13.110848
20
15.165389
11
12.428922
21
14.737102
0
LINE
8
Front Silk
10
12.428922
20
14.737102
11
10.023255
21
13.261305
0
LINE
8
Front Silk
10
10.023255
20
13.261305
11
8.844711
21
12.488952
0
LINE
8
Front Silk
10
8.844711
20
12.488952
11
7.764313
21
11.591443
0
LINE
8
Front Silk
10
7.764313
20
11.591443
11
7.316605
21
10.898349
0
LINE
8
Front Silk
10
7.316605
20
10.898349
11
7.035947
21
10.129618
0
LINE
8
Front Silk
10
7.035947
20
10.129618
11
6.919378
21
9.319296
0
LINE
8
Front Silk
10
6.919378
20
9.319296
11
6.963936
21
8.501428
0
LINE
8
Front Silk
10
6.963936
20
8.501428
11
7.166659
21
7.710060
0
LINE
8
Front Silk
10
7.166659
20
7.710060
11
7.524586
21
6.979239
0
LINE
8
Front Silk
10
7.524586
20
6.979239
11
8.034754
21
6.343010
0
LINE
8
Front Silk
10
8.034754
20
6.343010
11
8.694203
21
5.835419
0
LINE
8
Front Silk
10
8.694203
20
5.835419
11
9.520785
21
5.435519
0
LINE
8
Front Silk
10
9.520785
20
5.435519
11
10.368181
21
5.112467
0
LINE
8
Front Silk
10
10.368181
20
5.112467
11
10.756854
21
4.072055
0
LINE
8
Front Silk
10
10.756854
20
4.072055
11
11.361082
21
3.131045
0
LINE
8
Front Silk
10
11.361082
20
3.131045
11
12.166168
21
2.366170
0
LINE
8
Front Silk
10
12.166168
20
2.366170
11
13.157412
21
1.854162
0
LINE
8
Front Silk
10
13.157412
20
1.854162
11
14.415352
21
1.701879
0
LINE
8
Front Silk
10
14.415352
20
1.701879
11
15.653757
21
1.936202
0
LINE
8
Front Silk
10
15.653757
20
1.936202
11
16.756276
21
2.533772
0
LINE
8
Front Silk
10
16.756276
20
2.533772
11
17.606558
21
3.471230
0
LINE
8
Front Silk
10
17.606558
20
3.471230
11
19.169305
21
5.886734
0
LINE
8
Front Silk
10
19.169305
20
5.886734
11
20.717960
21
8.292144
0
LINE
8
Front Silk
10
20.717960
20
8.292144
11
22.364510
21
9.137923
0
LINE
8
Front Silk
10
22.364510
20
9.137923
11
22.609683
21
6.372057
0
LINE
8
Front Silk
10
22.609683
20
6.372057
11
22.644649
21
3.583439
0
LINE
8
Front Silk
10
22.644649
20
3.583439
11
22.659905
21
-1.773057
0
LINE
8
Front Silk
10
22.659905
20
-1.773057
11
21.655456
21
-2.058191
0
LINE
8
Front Silk
10
21.655456
20
-2.058191
11
20.767379
21
-2.620547
0
LINE
8
Front Silk
10
20.767379
20
-2.620547
11
20.073625
21
-3.404102
0
LINE
8
Front Silk
10
20.073625
20
-3.404102
11
19.652147
21
-4.352828
0
LINE
8
Front Silk
10
19.652147
20
-4.352828
11
19.559348
21
-12.914900
0
LINE
8
Front Silk
10
19.559348
20
-12.914900
11
19.617446
21
-21.477587
0
LINE
8
Front Silk
10
19.617446
20
-21.477587
11
19.758036
21
-23.092255
0
LINE
8
Front Silk
10
19.758036
20
-23.092255
11
20.035937
21
-23.834157
0
LINE
8
Front Silk
10
20.035937
20
-23.834157
11
20.575888
21
-24.445748
0
LINE
8
Front Silk
10
20.575888
20
-24.445748
11
21.232713
21
-24.958635
0
LINE
8
Front Silk
10
21.232713
20
-24.958635
11
21.997015
21
-25.253490
0
LINE
8
Front Silk
10
21.997015
20
-25.253490
11
23.651474
21
-25.363425
0
LINE
8
Front Silk
10
23.651474
20
-25.363425
11
45.544120
21
-25.378983
0
LINE
8
Front Silk
10
45.544120
20
-25.378983
11
46.489377
21
-24.931719
0
LINE
8
Front Silk
10
46.489377
20
-24.931719
11
47.320566
21
-24.298806
0
LINE
8
Front Silk
10
47.320566
20
-24.298806
11
47.972095
21
-23.496707
0
LINE
8
Front Silk
10
47.972095
20
-23.496707
11
48.378375
21
-22.541888
0
LINE
8
Front Silk
10
48.378375
20
-22.541888
11
48.373110
21
-3.364690
0
LINE
8
Front Silk
10
48.373110
20
-3.364690
11
47.730529
21
-2.430388
0
LINE
8
Front Silk
10
47.730529
20
-2.430388
11
46.785884
21
-1.798010
0
LINE
8
Front Silk
10
46.785884
20
-1.798010
11
48.758454
21
1.846075
0
LINE
8
Front Silk
10
48.758454
20
1.846075
11
50.492371
21
5.607939
0
LINE
8
Front Silk
10
50.492371
20
5.607939
11
51.960711
21
9.478915
0
LINE
8
Front Silk
10
51.960711
20
9.478915
11
53.136548
21
13.450337
0
LINE
8
Front Silk
10
53.136548
20
13.450337
11
54.007210
21
17.241719
0
LINE
8
Front Silk
10
54.007210
20
17.241719
11
54.655239
21
21.084056
0
LINE
8
Front Silk
10
54.655239
20
21.084056
11
54.980351
21
24.958606
0
LINE
8
Front Silk
10
54.980351
20
24.958606
11
54.882262
21
28.846628
0
LINE
8
Front Silk
10
54.882262
20
28.846628
11
54.611354
21
30.563078
0
LINE
8
Front Silk
10
54.611354
20
30.563078
11
54.088374
21
32.214570
0
LINE
8
Front Silk
10
54.088374
20
32.214570
11
53.342524
21
33.781754
0
LINE
8
Front Silk
10
53.342524
20
33.781754
11
52.403005
21
35.245276
0
LINE
8
Front Silk
10
52.403005
20
35.245276
11
53.357727
21
37.458149
0
LINE
8
Front Silk
10
53.357727
20
37.458149
11
53.999686
21
39.800936
0
LINE
8
Front Silk
10
53.999686
20
39.800936
11
54.164726
21
42.193817
0
LINE
8
Front Silk
10
54.164726
20
42.193817
11
54.017102
21
43.384099
0
LINE
8
Front Silk
10
54.017102
20
43.384099
11
53.688688
21
44.556971
0
LINE
8
Front Silk
10
53.688688
20
44.556971
11
53.309982
21
45.419475
0
LINE
8
Front Silk
10
53.309982
20
45.419475
11
52.800835
21
46.199023
0
LINE
8
Front Silk
10
52.800835
20
46.199023
11
51.460627
21
47.481185
0
LINE
8
Front Silk
10
51.460627
20
47.481185
11
49.806890
21
48.347316
0
LINE
8
Front Silk
10
49.806890
20
48.347316
11
47.978450
21
48.741276
0
LINE
8
Front Silk
10
47.978450
20
48.741276
11
46.057141
21
48.747763
0
LINE
8
Front Silk
10
46.057141
20
48.747763
11
44.170597
21
48.415452
0
LINE
8
Front Silk
10
44.170597
20
48.415452
11
42.342914
21
47.814286
0
LINE
8
Front Silk
10
42.342914
20
47.814286
11
40.598188
21
47.014206
0
LINE
8
Front Silk
10
40.598188
20
47.014206
11
38.732196
21
48.158958
0
LINE
8
Front Silk
10
38.732196
20
48.158958
11
36.708850
21
48.985681
0
LINE
8
Front Silk
10
36.708850
20
48.985681
11
34.578057
21
49.471000
0
LINE
8
Front Silk
10
34.578057
20
49.471000
11
32.389725
21
49.591538
0
LINE
8
Front Silk
10
32.389725
20
49.591538
11
31.848129
21
49.592230
0
LINE
8
Front Silk
10
31.848129
20
49.592230
11
31.848116
21
49.592242
0
LINE
8
Front Silk
10
37.522556
20
21.016263
11
38.129054
21
16.272447
0
LINE
8
Front Silk
10
38.129054
20
16.272447
11
38.448867
21
11.503016
0
LINE
8
Front Silk
10
38.448867
20
11.503016
11
38.572141
21
1.938186
0
LINE
8
Front Silk
10
38.572141
20
1.938186
11
38.584392
21
0.080562
0
LINE
8
Front Silk
10
38.584392
20
0.080562
11
38.787593
21
-1.745487
0
LINE
8
Front Silk
10
38.787593
20
-1.745487
11
34.849261
21
-1.839043
0
LINE
8
Front Silk
10
34.849261
20
-1.839043
11
30.906586
21
-1.783135
0
LINE
8
Front Silk
10
30.906586
20
-1.783135
11
32.420092
21
1.417459
0
LINE
8
Front Silk
10
32.420092
20
1.417459
11
33.649031
21
4.735742
0
LINE
8
Front Silk
10
33.649031
20
4.735742
11
34.565899
21
8.150901
0
LINE
8
Front Silk
10
34.565899
20
8.150901
11
35.143190
21
11.642124
0
LINE
8
Front Silk
10
35.143190
20
11.642124
11
35.320383
21
13.417534
0
LINE
8
Front Silk
10
35.320383
20
13.417534
11
35.340202
21
15.202037
0
LINE
8
Front Silk
10
35.340202
20
15.202037
11
35.158060
21
16.971963
0
LINE
8
Front Silk
10
35.158060
20
16.971963
11
34.729369
21
18.703643
0
LINE
8
Front Silk
10
34.729369
20
18.703643
11
34.656902
21
19.181565
0
LINE
8
Front Silk
10
34.656902
20
19.181565
11
35.003395
21
19.498882
0
LINE
8
Front Silk
10
35.003395
20
19.498882
11
36.247709
21
20.307034
0
LINE
8
Front Silk
10
36.247709
20
20.307034
11
37.522556
21
21.016252
0
LINE
8
Front Silk
10
37.522556
20
21.016252
11
37.522556
21
21.016263
0
LINE
8
Front Silk
10
26.626446
20
-1.448487
11
28.157161
21
1.268400
0
LINE
8
Front Silk
10
28.157161
20
1.268400
11
29.384807
21
4.120332
0
LINE
8
Front Silk
10
29.384807
20
4.120332
11
30.322562
21
6.991028
0
LINE
8
Front Silk
10
30.322562
20
6.991028
11
30.983602
21
9.764206
0
LINE
8
Front Silk
10
30.983602
20
9.764206
11
31.381105
21
12.323585
0
LINE
8
Front Silk
10
31.381105
20
12.323585
11
31.528247
21
14.552882
0
LINE
8
Front Silk
10
31.528247
20
14.552882
11
31.438205
21
16.335817
0
LINE
8
Front Silk
10
31.438205
20
16.335817
11
31.124156
21
17.556107
0
LINE
8
Front Silk
10
31.124156
20
17.556107
11
30.476605
21
18.721378
0
LINE
8
Front Silk
10
30.476605
20
18.721378
11
29.798936
21
19.556572
0
LINE
8
Front Silk
10
29.798936
20
19.556572
11
29.623245
21
19.921656
0
LINE
8
Front Silk
10
29.623245
20
19.921656
11
29.718622
21
20.316748
0
LINE
8
Front Silk
10
29.718622
20
20.316748
11
30.571355
21
21.933997
0
LINE
8
Front Silk
10
30.571355
20
21.933997
11
30.968544
21
23.262429
0
LINE
8
Front Silk
10
30.968544
20
23.262429
11
31.011839
21
24.328301
0
LINE
8
Front Silk
10
31.011839
20
24.328301
11
30.802891
21
25.157867
0
LINE
8
Front Silk
10
30.802891
20
25.157867
11
30.481626
21
25.637979
0
LINE
8
Front Silk
10
30.481626
20
25.637979
11
29.999728
21
25.958053
0
LINE
8
Front Silk
10
29.999728
20
25.958053
11
29.161427
21
26.166226
0
LINE
8
Front Silk
10
29.161427
20
26.166226
11
28.082178
21
26.123091
0
LINE
8
Front Silk
10
28.082178
20
26.123091
11
26.746920
21
25.727374
0
LINE
8
Front Silk
10
26.746920
20
25.727374
11
25.140596
21
24.877803
0
LINE
8
Front Silk
10
25.140596
20
24.877803
11
24.744034
21
24.782781
0
LINE
8
Front Silk
10
24.744034
20
24.782781
11
24.377591
21
24.957821
0
LINE
8
Front Silk
10
24.377591
20
24.957821
11
23.524231
21
25.617974
0
LINE
8
Front Silk
10
23.524231
20
25.617974
11
22.369686
21
26.278127
0
LINE
8
Front Silk
10
22.369686
20
26.278127
11
21.144863
21
26.591012
0
LINE
8
Front Silk
10
21.144863
20
26.591012
11
19.355317
21
26.680720
0
LINE
8
Front Silk
10
19.355317
20
26.680720
11
17.117757
21
26.534123
0
LINE
8
Front Silk
10
17.117757
20
26.534123
11
14.548892
21
26.138094
0
LINE
8
Front Silk
10
14.548892
20
26.138094
11
11.765433
21
25.479504
0
LINE
8
Front Silk
10
11.765433
20
25.479504
11
8.884088
21
24.545226
0
LINE
8
Front Silk
10
8.884088
20
24.545226
11
6.021567
21
23.322130
0
LINE
8
Front Silk
10
6.021567
20
23.322130
11
3.294579
21
21.797090
0
LINE
8
Front Silk
10
3.294579
20
21.797090
11
3.118888
21
21.567036
0
LINE
8
Front Silk
10
3.118888
20
21.567036
11
3.093789
21
21.276970
0
LINE
8
Front Silk
10
3.093789
20
21.276970
11
3.274500
21
21.041916
0
LINE
8
Front Silk
10
3.274500
20
21.041916
11
3.575686
21
20.956896
0
LINE
8
Front Silk
10
3.575686
20
20.956896
11
8.786202
21
21.011908
0
LINE
8
Front Silk
10
8.786202
20
21.011908
11
13.718121
21
20.737469
0
LINE
8
Front Silk
10
13.718121
20
20.737469
11
16.330909
21
20.424662
0
LINE
8
Front Silk
10
16.330909
20
20.424662
11
18.875929
21
19.956664
0
LINE
8
Front Silk
10
18.875929
20
19.956664
11
19.210371
21
19.786624
0
LINE
8
Front Silk
10
19.210371
20
19.786624
11
19.413044
21
19.496557
0
LINE
8
Front Silk
10
19.413044
20
19.496557
11
19.457595
21
19.146477
0
LINE
8
Front Silk
10
19.457595
20
19.146477
11
19.317669
21
18.796396
0
LINE
8
Front Silk
10
19.317669
20
18.796396
11
17.510553
21
16.100772
0
LINE
8
Front Silk
10
17.510553
20
16.100772
11
15.944387
21
13.315128
0
LINE
8
Front Silk
10
15.944387
20
13.315128
11
15.462489
21
12.795008
0
LINE
8
Front Silk
10
15.462489
20
12.795008
11
10.241934
21
9.594268
0
LINE
8
Front Silk
10
10.241934
20
9.594268
11
10.036124
21
9.339208
0
LINE
8
Front Silk
10
10.036124
20
9.339208
11
10.041144
21
8.994127
0
LINE
8
Front Silk
10
10.041144
20
8.994127
11
10.262013
21
8.764074
0
LINE
8
Front Silk
10
10.262013
20
8.764074
11
10.603357
21
8.714064
0
LINE
8
Front Silk
10
10.603357
20
8.714064
11
15.542806
21
10.954582
0
LINE
8
Front Silk
10
15.542806
20
10.954582
11
15.743596
21
10.914571
0
LINE
8
Front Silk
10
15.743596
20
10.914571
11
15.783755
21
10.714525
0
LINE
8
Front Silk
10
15.783755
20
10.714525
11
13.534900
21
5.793189
0
LINE
8
Front Silk
10
13.534900
20
5.793189
11
13.585098
21
5.468113
0
LINE
8
Front Silk
10
13.585098
20
5.468113
11
13.816007
21
5.233059
0
LINE
8
Front Silk
10
13.816007
20
5.233059
11
14.147311
21
5.228058
0
LINE
8
Front Silk
10
14.147311
20
5.228058
11
14.418378
21
5.433105
0
LINE
8
Front Silk
10
14.418378
20
5.433105
11
17.631028
21
10.634508
0
LINE
8
Front Silk
10
17.631028
20
10.634508
11
18.153083
21
11.114617
0
LINE
8
Front Silk
10
18.153083
20
11.114617
11
20.949092
21
12.674979
0
LINE
8
Front Silk
10
20.949092
20
12.674979
11
23.654745
21
14.475395
0
LINE
8
Front Silk
10
23.654745
20
14.475395
11
24.006129
21
14.614803
0
LINE
8
Front Silk
10
24.006129
20
14.614803
11
24.357512
21
14.570417
0
LINE
8
Front Silk
10
24.357512
20
14.570417
11
24.648659
21
14.368495
0
LINE
8
Front Silk
10
24.648659
20
14.368495
11
24.819331
21
14.035293
0
LINE
8
Front Silk
10
24.819331
20
14.035293
11
25.289071
21
11.499698
0
LINE
8
Front Silk
10
25.289071
20
11.499698
11
25.603042
21
8.896573
0
LINE
8
Front Silk
10
25.603042
20
8.896573
11
25.878501
21
3.982868
0
LINE
8
Front Silk
10
25.878501
20
3.982868
11
25.823284
21
-1.208431
0
LINE
8
Front Silk
10
25.823284
20
-1.208431
11
25.908620
21
-1.493497
0
LINE
8
Front Silk
10
25.908620
20
-1.493497
11
26.144549
21
-1.688541
0
LINE
8
Front Silk
10
26.144549
20
-1.688541
11
26.415616
21
-1.658535
0
LINE
8
Front Silk
10
26.415616
20
-1.658535
11
26.626446
21
-1.448487
0
LINE
8
Front Silk
10
26.626446
20
-1.448487
11
26.626446
21
-1.448487
0
LINE
8
Front Silk
10
42.321224
20
-1.393340
11
43.656765
21
0.823164
0
LINE
8
Front Silk
10
43.656765
20
0.823164
11
44.864126
21
3.120424
0
LINE
8
Front Silk
10
44.864126
20
3.120424
11
46.904895
21
7.860163
0
LINE
8
Front Silk
10
46.904895
20
7.860163
11
48.464709
21
12.631771
0
LINE
8
Front Silk
10
48.464709
20
12.631771
11
49.564743
21
17.241142
0
LINE
8
Front Silk
10
49.564743
20
17.241142
11
50.226175
21
21.494172
0
LINE
8
Front Silk
10
50.226175
20
21.494172
11
50.470183
21
25.196754
0
LINE
8
Front Silk
10
50.470183
20
25.196754
11
50.317943
21
28.154785
0
LINE
8
Front Silk
10
50.317943
20
28.154785
11
50.099847
21
29.293936
0
LINE
8
Front Silk
10
50.099847
20
29.293936
11
49.790632
21
30.174159
0
LINE
8
Front Silk
10
49.790632
20
30.174159
11
48.686284
21
32.139614
0
LINE
8
Front Silk
10
48.686284
20
32.139614
11
47.581935
21
33.534936
0
LINE
8
Front Silk
10
47.581935
20
33.534936
11
47.310868
21
34.140076
0
LINE
8
Front Silk
10
47.310868
20
34.140076
11
47.461463
21
34.775223
0
LINE
8
Front Silk
10
47.461463
20
34.775223
11
48.889586
21
37.473347
0
LINE
8
Front Silk
10
48.889586
20
37.473347
11
49.549684
21
39.706363
0
LINE
8
Front Silk
10
49.549684
20
39.706363
11
49.607412
21
41.504278
0
LINE
8
Front Silk
10
49.607412
20
41.504278
11
49.228419
21
42.897098
0
LINE
8
Front Silk
10
49.228419
20
42.897098
11
48.706363
21
43.617265
0
LINE
8
Front Silk
10
48.706363
20
43.617265
11
47.983517
21
44.137385
0
LINE
8
Front Silk
10
47.983517
20
44.137385
11
46.585513
21
44.498093
0
LINE
8
Front Silk
10
46.585513
20
44.498093
11
44.780908
21
44.442456
0
LINE
8
Front Silk
10
44.780908
20
44.442456
11
42.539582
21
43.794181
0
LINE
8
Front Silk
10
42.539582
20
43.794181
11
39.831418
21
42.376978
0
LINE
8
Front Silk
10
39.831418
20
42.376978
11
39.178848
21
42.226943
0
LINE
8
Front Silk
10
39.178848
20
42.226943
11
38.586515
21
42.497006
0
LINE
8
Front Silk
10
38.586515
20
42.497006
11
37.186001
21
43.597260
0
LINE
8
Front Silk
10
37.186001
20
43.597260
11
35.213236
21
44.697515
0
LINE
8
Front Silk
10
35.213236
20
44.697515
11
34.329296
21
44.998991
0
LINE
8
Front Silk
10
34.329296
20
44.998991
11
33.184702
21
45.211384
0
LINE
8
Front Silk
10
33.184702
20
45.211384
11
30.211668
21
45.357668
0
LINE
8
Front Silk
10
30.211668
20
45.357668
11
26.490375
21
45.113862
0
LINE
8
Front Silk
10
26.490375
20
45.113862
11
22.217065
21
44.457461
0
LINE
8
Front Silk
10
22.217065
20
44.457461
11
17.587979
21
43.365959
0
LINE
8
Front Silk
10
17.587979
20
43.365959
11
12.799359
21
41.816852
0
LINE
8
Front Silk
10
12.799359
20
41.816852
11
8.047446
21
39.787633
0
LINE
8
Front Silk
10
8.047446
20
39.787633
11
5.746579
21
38.585949
0
LINE
8
Front Silk
10
5.746579
20
38.585949
11
3.528481
21
37.255797
0
LINE
8
Front Silk
10
3.528481
20
37.255797
11
3.217255
21
36.860706
0
LINE
8
Front Silk
10
3.217255
20
36.860706
11
3.207216
21
36.375594
0
LINE
8
Front Silk
10
3.207216
20
36.375594
11
3.518441
21
35.980502
0
LINE
8
Front Silk
10
3.518441
20
35.980502
11
4.010378
21
35.855473
0
LINE
8
Front Silk
10
4.010378
20
35.855473
11
6.513986
21
35.936117
0
LINE
8
Front Silk
10
6.513986
20
35.936117
11
12.684532
21
35.930491
0
LINE
8
Front Silk
10
12.684532
20
35.930491
11
16.629596
21
35.779284
0
LINE
8
Front Silk
10
16.629596
20
35.779284
11
20.873023
21
35.467258
0
LINE
8
Front Silk
10
20.873023
20
35.467258
11
25.208688
21
34.947998
0
LINE
8
Front Silk
10
25.208688
20
34.947998
11
29.430467
21
34.175085
0
LINE
8
Front Silk
10
29.430467
20
34.175085
11
29.972602
21
33.891894
0
LINE
8
Front Silk
10
29.972602
20
33.891894
11
30.303906
21
33.409908
0
LINE
8
Front Silk
10
30.303906
20
33.409908
11
30.379202
21
32.830399
0
LINE
8
Front Silk
10
30.379202
20
32.830399
11
30.153313
21
32.254640
0
LINE
8
Front Silk
10
30.153313
20
32.254640
11
27.061137
21
27.573558
0
LINE
8
Front Silk
10
27.061137
20
27.573558
11
27.141454
21
27.493539
0
LINE
8
Front Silk
10
27.141454
20
27.493539
11
28.755309
21
28.121809
0
LINE
8
Front Silk
10
28.755309
20
28.121809
11
30.113155
21
28.378744
0
LINE
8
Front Silk
10
30.113155
20
28.378744
11
31.230052
21
28.343110
0
LINE
8
Front Silk
10
31.230052
20
28.343110
11
32.121059
21
28.093678
0
LINE
8
Front Silk
10
32.121059
20
28.093678
11
32.723433
21
27.693585
0
LINE
8
Front Silk
10
32.723433
20
27.693585
11
33.125014
21
27.093447
0
LINE
8
Front Silk
10
33.125014
20
27.093447
11
33.375374
21
26.183236
0
LINE
8
Front Silk
10
33.375374
20
26.183236
11
33.411139
21
25.062977
0
LINE
8
Front Silk
10
33.411139
20
25.062977
11
33.153249
21
23.717665
0
LINE
8
Front Silk
10
33.153249
20
23.717665
11
32.522641
21
22.132298
0
LINE
8
Front Silk
10
32.522641
20
22.132298
11
32.602958
21
22.052280
0
LINE
8
Front Silk
10
32.602958
20
22.052280
11
37.301457
21
25.132993
0
LINE
8
Front Silk
10
37.301457
20
25.132993
11
37.879357
21
25.363671
0
LINE
8
Front Silk
10
37.879357
20
25.363671
11
38.461022
21
25.298031
0
LINE
8
Front Silk
10
38.461022
20
25.298031
11
38.944802
21
24.969830
0
LINE
8
Front Silk
10
38.944802
20
24.969830
11
39.229047
21
24.412827
0
LINE
8
Front Silk
10
39.229047
20
24.412827
11
40.004836
21
20.205047
0
LINE
8
Front Silk
10
40.004836
20
20.205047
11
40.526029
21
15.881446
0
LINE
8
Front Silk
10
40.526029
20
15.881446
11
40.839215
21
11.648795
0
LINE
8
Front Silk
10
40.839215
20
11.648795
11
40.990985
21
7.713864
0
LINE
8
Front Silk
10
40.990985
20
7.713864
11
40.996633
21
1.564248
0
LINE
8
Front Silk
10
40.996633
20
1.564248
11
40.915690
21
-0.913231
0
LINE
8
Front Silk
10
40.915690
20
-0.913231
11
41.056243
21
-1.403345
0
LINE
8
Front Silk
10
41.056243
20
-1.403345
11
41.437744
21
-1.713414
0
LINE
8
Front Silk
10
41.437744
20
-1.713414
11
41.924661
21
-1.688408
0
LINE
8
Front Silk
10
41.924661
20
-1.688408
11
42.321224
21
-1.393340
0
LINE
8
Front Silk
10
42.321224
20
-1.393340
11
42.321224
21
-1.393340
0
LINE
8
SwiftLeeds
10
23.286533
20
-18.764354
11
22.189281
21
-18.472343
0
LINE
8
SwiftLeeds
10
22.189281
20
-18.472343
11
21.862360
21
-18.299192
0
LINE
8
SwiftLeeds
10
21.862360
20
-18.299192
11
21.738355
21
-17.985651
0
LINE
8
SwiftLeeds
10
21.738355
20
-17.985651
11
21.972273
21
-17.595360
0
LINE
8
SwiftLeeds
10
21.972273
20
-17.595360
11
22.437290
21
-17.491469
0
LINE
8
SwiftLeeds
10
22.437290
20
-17.491469
11
23.007523
21
-17.642158
0
LINE
8
SwiftLeeds
10
23.007523
20
-17.642158
11
23.256472
21
-18.157862
0
LINE
8
SwiftLeeds
10
23.256472
20
-18.157862
11
23.917829
21
-18.157862
0
LINE
8
SwiftLeeds
10
23.917829
20
-18.157862
11
23.802045
21
-17.637831
0
LINE
8
SwiftLeeds
10
23.802045
20
-17.637831
11
23.487571
21
-17.260295
0
LINE
8
SwiftLeeds
10
23.487571
20
-17.260295
11
23.023728
21
-17.030170
0
LINE
8
SwiftLeeds
10
23.023728
20
-17.030170
11
22.459835
21
-16.952369
0
LINE
8
SwiftLeeds
10
22.459835
20
-16.952369
11
21.954070
21
-17.019289
0
LINE
8
SwiftLeeds
10
21.954070
20
-17.019289
11
21.508193
21
-17.223792
0
LINE
8
SwiftLeeds
10
21.508193
20
-17.223792
11
21.190549
21
-17.571495
0
LINE
8
SwiftLeeds
10
21.190549
20
-17.571495
11
21.069480
21
-18.068014
0
LINE
8
SwiftLeeds
10
21.069480
20
-18.068014
11
21.245154
21
-18.628644
0
LINE
8
SwiftLeeds
10
21.245154
20
-18.628644
11
21.911210
21
-19.026418
0
LINE
8
SwiftLeeds
10
21.911210
20
-19.026418
11
23.046038
21
-19.340895
0
LINE
8
SwiftLeeds
10
23.046038
20
-19.340895
11
23.263047
21
-19.485967
0
LINE
8
SwiftLeeds
10
23.263047
20
-19.485967
11
23.361687
21
-19.805125
0
LINE
8
SwiftLeeds
10
23.361687
20
-19.805125
11
23.179438
21
-20.196348
0
LINE
8
SwiftLeeds
10
23.179438
20
-20.196348
11
22.557537
21
-20.374176
0
LINE
8
SwiftLeeds
10
22.557537
20
-20.374176
11
21.876451
21
-20.188859
0
LINE
8
SwiftLeeds
10
21.876451
20
-20.188859
11
21.670834
21
-19.938260
0
LINE
8
SwiftLeeds
10
21.670834
20
-19.938260
11
21.595562
21
-19.565522
0
LINE
8
SwiftLeeds
10
21.595562
20
-19.565522
11
20.934203
21
-19.565522
0
LINE
8
SwiftLeeds
10
20.934203
20
-19.565522
11
21.066787
21
-20.170960
0
LINE
8
SwiftLeeds
10
21.066787
20
-20.170960
11
21.408621
21
-20.590380
0
LINE
8
SwiftLeeds
10
21.408621
20
-20.590380
11
21.909685
21
-20.834310
0
LINE
8
SwiftLeeds
10
21.909685
20
-20.834310
11
22.519959
21
-20.913280
0
LINE
8
SwiftLeeds
10
22.519959
20
-20.913280
11
23.073048
21
-20.847413
0
LINE
8
SwiftLeeds
10
23.073048
20
-20.847413
11
23.557089
21
-20.639050
0
LINE
8
SwiftLeeds
10
23.557089
20
-20.639050
11
23.900216
21
-20.272043
0
LINE
8
SwiftLeeds
10
23.900216
20
-20.272043
11
24.030561
21
-19.730248
0
LINE
8
SwiftLeeds
10
24.030561
20
-19.730248
11
23.841738
21
-19.157451
0
LINE
8
SwiftLeeds
10
23.841738
20
-19.157451
11
23.286533
21
-18.764354
0
LINE
8
SwiftLeeds
10
23.286533
20
-18.764354
11
23.286533
21
-18.764354
0
LINE
8
SwiftLeeds
10
26.984125
20
-20.134577
11
26.976616
21
-20.134577
0
LINE
8
SwiftLeeds
10
26.976616
20
-20.134577
11
26.480598
21
-18.090475
0
LINE
8
SwiftLeeds
10
26.480598
20
-18.090475
11
25.871845
21
-18.090475
0
LINE
8
SwiftLeeds
10
25.871845
20
-18.090475
11
25.353281
21
-20.134577
0
LINE
8
SwiftLeeds
10
25.353281
20
-20.134577
11
25.345771
21
-20.134577
0
LINE
8
SwiftLeeds
10
25.345771
20
-20.134577
11
24.804661
21
-18.090475
0
LINE
8
SwiftLeeds
10
24.804661
20
-18.090475
11
24.165850
21
-18.090475
0
LINE
8
SwiftLeeds
10
24.165850
20
-18.090475
11
25.015093
21
-20.830917
0
LINE
8
SwiftLeeds
10
25.015093
20
-20.830917
11
25.653904
21
-20.830917
0
LINE
8
SwiftLeeds
10
25.653904
20
-20.830917
11
26.157437
21
-18.794305
0
LINE
8
SwiftLeeds
10
26.157437
20
-18.794305
11
26.164946
21
-18.794305
0
LINE
8
SwiftLeeds
10
26.164946
20
-18.794305
11
26.675995
21
-20.830917
0
LINE
8
SwiftLeeds
10
26.675995
20
-20.830917
11
27.299777
21
-20.830917
0
LINE
8
SwiftLeeds
10
27.299777
20
-20.830917
11
28.164049
21
-18.090475
0
LINE
8
SwiftLeeds
10
28.164049
20
-18.090475
11
27.547790
21
-18.090475
0
LINE
8
SwiftLeeds
10
27.547790
20
-18.090475
11
26.984125
21
-20.134577
0
LINE
8
SwiftLeeds
10
29.065898
20
-17.042218
11
28.457148
21
-17.042218
0
LINE
8
SwiftLeeds
10
28.457148
20
-17.042218
11
28.457148
21
-17.611273
0
LINE
8
SwiftLeeds
10
28.457148
20
-17.611273
11
29.065898
21
-17.611273
0
LINE
8
SwiftLeeds
10
29.065898
20
-17.611273
11
29.065898
21
-17.042218
0
LINE
8
SwiftLeeds
10
29.065898
20
-18.090475
11
28.457148
21
-18.090475
0
LINE
8
SwiftLeeds
10
28.457148
20
-18.090475
11
28.457148
21
-20.830917
0
LINE
8
SwiftLeeds
10
28.457148
20
-20.830917
11
29.065898
21
-20.830917
0
LINE
8
SwiftLeeds
10
29.065898
20
-20.830917
11
29.065898
21
-18.090475
0
LINE
8
SwiftLeeds
10
33.680369
20
-17.042218
11
33.019015
21
-17.042218
0
LINE
8
SwiftLeeds
10
33.019015
20
-17.042218
11
33.019015
21
-20.830917
0
LINE
8
SwiftLeeds
10
33.019015
20
-20.830917
11
35.611833
21
-20.830917
0
LINE
8
SwiftLeeds
10
35.611833
20
-20.830917
11
35.611833
21
-20.254377
0
LINE
8
SwiftLeeds
10
35.611833
20
-20.254377
11
33.680369
21
-20.254377
0
LINE
8
SwiftLeeds
10
33.680369
20
-20.254377
11
33.680369
21
-17.042218
0
LINE
8
SwiftLeeds
10
37.069829
20
-18.015602
11
36.516387
21
-18.131892
0
LINE
8
SwiftLeeds
10
36.516387
20
-18.131892
11
36.097519
21
-18.446134
0
LINE
8
SwiftLeeds
10
36.097519
20
-18.446134
11
35.832248
21
-18.906383
0
LINE
8
SwiftLeeds
10
35.832248
20
-18.906383
11
35.739597
21
-19.460694
0
LINE
8
SwiftLeeds
10
35.739597
20
-19.460694
11
35.828256
21
-20.042267
0
LINE
8
SwiftLeeds
10
35.828256
20
-20.042267
11
36.088126
21
-20.496785
0
LINE
8
SwiftLeeds
10
36.088126
20
-20.496785
11
36.510048
21
-20.792660
0
LINE
8
SwiftLeeds
10
36.510048
20
-20.792660
11
37.084860
21
-20.898305
0
LINE
8
SwiftLeeds
10
37.084860
20
-20.898305
11
37.883376
21
-20.654959
0
LINE
8
SwiftLeeds
10
37.883376
20
-20.654959
11
38.164970
21
-20.361306
0
LINE
8
SwiftLeeds
10
38.164970
20
-20.361306
11
38.332423
21
-19.962361
0
LINE
8
SwiftLeeds
10
38.332423
20
-19.962361
11
37.761249
21
-19.962361
0
LINE
8
SwiftLeeds
10
37.761249
20
-19.962361
11
37.519815
21
-20.303045
0
LINE
8
SwiftLeeds
10
37.519815
20
-20.303045
11
37.092374
21
-20.419102
0
LINE
8
SwiftLeeds
10
37.092374
20
-20.419102
11
36.764867
21
-20.352767
0
LINE
8
SwiftLeeds
10
36.764867
20
-20.352767
11
36.535295
21
-20.174820
0
LINE
8
SwiftLeeds
10
36.535295
20
-20.174820
11
36.355864
21
-19.610448
0
LINE
8
SwiftLeeds
10
36.355864
20
-19.610448
11
38.377513
21
-19.610448
0
LINE
8
SwiftLeeds
10
38.377513
20
-19.610448
11
38.333830
21
-19.016943
0
LINE
8
SwiftLeeds
10
38.333830
20
-19.016943
11
38.084412
21
-18.506971
0
LINE
8
SwiftLeeds
10
38.084412
20
-18.506971
11
37.654624
21
-18.150026
0
LINE
8
SwiftLeeds
10
37.654624
20
-18.150026
11
37.069829
21
-18.015602
0
LINE
8
SwiftLeeds
10
37.069829
20
-18.015602
11
37.069829
21
-18.015602
0
LINE
8
SwiftLeeds
10
36.348347
20
-19.213605
11
36.556895
21
-18.698838
0
LINE
8
SwiftLeeds
10
36.556895
20
-18.698838
11
37.069829
21
-18.487314
0
LINE
8
SwiftLeeds
10
37.069829
20
-18.487314
11
37.559270
21
-18.707261
0
LINE
8
SwiftLeeds
10
37.559270
20
-18.707261
11
37.761249
21
-19.213605
0
LINE
8
SwiftLeeds
10
37.761249
20
-19.213605
11
36.348347
21
-19.213605
0
LINE
8
SwiftLeeds
10
39.918172
20
-18.015602
11
39.364733
21
-18.131892
0
LINE
8
SwiftLeeds
10
39.364733
20
-18.131892
11
38.945867
21
-18.446134
0
LINE
8
SwiftLeeds
10
38.945867
20
-18.446134
11
38.680596
21
-18.906383
0
LINE
8
SwiftLeeds
10
38.680596
20
-18.906383
11
38.587946
21
-19.460694
0
LINE
8
SwiftLeeds
10
38.587946
20
-19.460694
11
38.676604
21
-20.042267
0
LINE
8
SwiftLeeds
10
38.676604
20
-20.042267
11
38.936473
21
-20.496785
0
LINE
8
SwiftLeeds
10
38.936473
20
-20.496785
11
39.358394
21
-20.792660
0
LINE
8
SwiftLeeds
10
39.358394
20
-20.792660
11
39.933207
21
-20.898305
0
LINE
8
SwiftLeeds
10
39.933207
20
-20.898305
11
40.731719
21
-20.654959
0
LINE
8
SwiftLeeds
10
40.731719
20
-20.654959
11
41.013313
21
-20.361306
0
LINE
8
SwiftLeeds
10
41.013313
20
-20.361306
11
41.180765
21
-19.962361
0
LINE
8
SwiftLeeds
10
41.180765
20
-19.962361
11
40.609595
21
-19.962361
0
LINE
8
SwiftLeeds
10
40.609595
20
-19.962361
11
40.368161
21
-20.303045
0
LINE
8
SwiftLeeds
10
40.368161
20
-20.303045
11
39.940721
21
-20.419102
0
LINE
8
SwiftLeeds
10
39.940721
20
-20.419102
11
39.613213
21
-20.352767
0
LINE
8
SwiftLeeds
10
39.613213
20
-20.352767
11
39.383640
21
-20.174820
0
LINE
8
SwiftLeeds
10
39.383640
20
-20.174820
11
39.204208
21
-19.610448
0
LINE
8
SwiftLeeds
10
39.204208
20
-19.610448
11
41.225859
21
-19.610448
0
LINE
8
SwiftLeeds
10
41.225859
20
-19.610448
11
41.185346
21
-19.016943
0
LINE
8
SwiftLeeds
10
41.185346
20
-19.016943
11
40.935576
21
-18.506971
0
LINE
8
SwiftLeeds
10
40.935576
20
-18.506971
11
40.504025
21
-18.150026
0
LINE
8
SwiftLeeds
10
40.504025
20
-18.150026
11
39.918172
21
-18.015602
0
LINE
8
SwiftLeeds
10
39.918172
20
-18.015602
11
39.918172
21
-18.015602
0
LINE
8
SwiftLeeds
10
39.196694
20
-19.213605
11
39.405242
21
-18.698838
0
LINE
8
SwiftLeeds
10
39.405242
20
-18.698838
11
39.918172
21
-18.487314
0
LINE
8
SwiftLeeds
10
39.918172
20
-18.487314
11
40.407617
21
-18.707261
0
LINE
8
SwiftLeeds
10
40.407617
20
-18.707261
11
40.609595
21
-19.213605
0
LINE
8
SwiftLeeds
10
40.609595
20
-19.213605
11
39.196694
21
-19.213605
0
LINE
8
SwiftLeeds
10
43.555641
20
-18.442388
11
43.548131
21
-18.442388
0
LINE
8
SwiftLeeds
10
43.548131
20
-18.442388
11
43.148875
21
-18.116684
0
LINE
8
SwiftLeeds
10
43.148875
20
-18.116684
11
42.631251
21
-18.015602
0
LINE
8
SwiftLeeds
10
42.631251
20
-18.015602
11
42.192067
21
-18.098900
0
LINE
8
SwiftLeeds
10
42.192067
20
-18.098900
11
41.812067
21
-18.356284
0
LINE
8
SwiftLeeds
10
41.812067
20
-18.356284
11
41.544798
21
-18.798984
0
LINE
8
SwiftLeeds
10
41.544798
20
-18.798984
11
41.443810
21
-19.438233
0
LINE
8
SwiftLeeds
10
41.443810
20
-19.438233
11
41.523074
21
-20.013838
0
LINE
8
SwiftLeeds
10
41.523074
20
-20.013838
11
41.762277
21
-20.477130
0
LINE
8
SwiftLeeds
10
41.762277
20
-20.477130
11
42.163530
21
-20.785991
0
LINE
8
SwiftLeeds
10
42.163530
20
-20.785991
11
42.728948
21
-20.898305
0
LINE
8
SwiftLeeds
10
42.728948
20
-20.898305
11
43.224029
21
-20.792543
0
LINE
8
SwiftLeeds
10
43.224029
20
-20.792543
11
43.578194
21
-20.456539
0
LINE
8
SwiftLeeds
10
43.578194
20
-20.456539
11
43.585703
21
-20.456539
0
LINE
8
SwiftLeeds
10
43.585703
20
-20.456539
11
43.585703
21
-20.830917
0
LINE
8
SwiftLeeds
10
43.585703
20
-20.830917
11
44.156877
21
-20.830917
0
LINE
8
SwiftLeeds
10
44.156877
20
-20.830917
11
44.156877
21
-17.049708
0
LINE
8
SwiftLeeds
10
44.156877
20
-17.049708
11
43.548127
21
-17.049708
0
LINE
8
SwiftLeeds
10
43.548127
20
-17.049708
11
43.548127
21
-18.442388
0
LINE
8
SwiftLeeds
10
43.548127
20
-18.442388
11
43.555641
21
-18.442388
0
LINE
8
SwiftLeeds
10
42.811614
20
-20.426588
11
42.471071
21
-20.346682
0
LINE
8
SwiftLeeds
10
42.471071
20
-20.346682
11
42.234805
21
-20.135511
0
LINE
8
SwiftLeeds
10
42.234805
20
-20.135511
11
42.052556
21
-19.490649
0
LINE
8
SwiftLeeds
10
42.052556
20
-19.490649
11
42.225412
21
-18.807408
0
LINE
8
SwiftLeeds
10
42.225412
20
-18.807408
11
42.464731
21
-18.580910
0
LINE
8
SwiftLeeds
10
42.464731
20
-18.580910
11
42.826645
21
-18.494804
0
LINE
8
SwiftLeeds
10
42.826645
20
-18.494804
11
43.380908
21
-18.750316
0
LINE
8
SwiftLeeds
10
43.380908
20
-18.750316
11
43.585703
21
-19.460694
0
LINE
8
SwiftLeeds
10
43.585703
20
-19.460694
11
43.398759
21
-20.120536
0
LINE
8
SwiftLeeds
10
43.398759
20
-20.120536
11
43.159791
21
-20.342003
0
LINE
8
SwiftLeeds
10
43.159791
20
-20.342003
11
42.811614
21
-20.426588
0
LINE
8
SwiftLeeds
10
42.811614
20
-20.426588
11
42.811614
21
-20.426588
0
LINE
8
SwiftLeeds
10
46.125918
20
-19.213605
11
45.512472
21
-19.068536
0
LINE
8
SwiftLeeds
10
45.512472
20
-19.068536
11
45.308968
21
-18.953532
0
LINE
8
SwiftLeeds
10
45.308968
20
-18.953532
11
45.231583
21
-18.771840
0
LINE
8
SwiftLeeds
10
45.231583
20
-18.771840
11
45.414771
21
-18.539727
0
LINE
8
SwiftLeeds
10
45.414771
20
-18.539727
11
45.727601
21
-18.487314
0
LINE
8
SwiftLeeds
10
45.727601
20
-18.487314
11
46.084585
21
-18.564062
0
LINE
8
SwiftLeeds
10
46.084585
20
-18.564062
11
46.283744
21
-18.854207
0
LINE
8
SwiftLeeds
10
46.283744
20
-18.854207
11
46.915039
21
-18.854207
0
LINE
8
SwiftLeeds
10
46.915039
20
-18.854207
11
46.782931
21
-18.467311
0
LINE
8
SwiftLeeds
10
46.782931
20
-18.467311
11
46.523296
21
-18.207470
0
LINE
8
SwiftLeeds
10
46.523296
20
-18.207470
11
45.765177
21
-18.015602
0
LINE
8
SwiftLeeds
10
45.765177
20
-18.015602
11
45.004242
21
-18.184071
0
LINE
8
SwiftLeeds
10
45.004242
20
-18.184071
11
44.725232
21
-18.426246
0
LINE
8
SwiftLeeds
10
44.725232
20
-18.426246
11
44.615319
21
-18.801795
0
LINE
8
SwiftLeeds
10
44.615319
20
-18.801795
11
44.690356
21
-19.149262
0
LINE
8
SwiftLeeds
10
44.690356
20
-19.149262
11
44.888692
21
-19.380205
0
LINE
8
SwiftLeeds
10
44.888692
20
-19.380205
11
45.494623
21
-19.610448
0
LINE
8
SwiftLeeds
10
45.494623
20
-19.610448
11
46.103372
21
-19.754584
0
LINE
8
SwiftLeeds
10
46.103372
20
-19.754584
11
46.308403
21
-19.873683
0
LINE
8
SwiftLeeds
10
46.308403
20
-19.873683
11
46.396476
21
-20.067190
0
LINE
8
SwiftLeeds
10
46.396476
20
-20.067190
11
46.182282
21
-20.364817
0
LINE
8
SwiftLeeds
10
46.182282
20
-20.364817
11
45.787726
21
-20.426588
0
LINE
8
SwiftLeeds
10
45.787726
20
-20.426588
11
45.365922
21
-20.318954
0
LINE
8
SwiftLeeds
10
45.365922
20
-20.318954
11
45.163945
21
-19.947386
0
LINE
8
SwiftLeeds
10
45.163945
20
-19.947386
11
44.555195
21
-19.947386
0
LINE
8
SwiftLeeds
10
44.555195
20
-19.947386
11
44.651366
21
-20.367624
0
LINE
8
SwiftLeeds
10
44.651366
20
-20.367624
11
44.907478
21
-20.664318
0
LINE
8
SwiftLeeds
10
44.907478
20
-20.664318
11
45.772695
21
-20.898305
0
LINE
8
SwiftLeeds
10
45.772695
20
-20.898305
11
46.599392
21
-20.697076
0
LINE
8
SwiftLeeds
10
46.599392
20
-20.697076
11
46.886622
21
-20.421324
0
LINE
8
SwiftLeeds
10
46.886622
20
-20.421324
11
46.997709
21
-20.007288
0
LINE
8
SwiftLeeds
10
46.997709
20
-20.007288
11
46.930182
21
-19.669529
0
LINE
8
SwiftLeeds
10
46.930182
20
-19.669529
11
46.733725
21
-19.444786
0
LINE
8
SwiftLeeds
10
46.733725
20
-19.444786
11
46.125918
21
-19.213605
0
LINE
8
SwiftLeeds
10
46.125918
20
-19.213605
11
46.125918
21
-19.213605
0
LINE
8
SwiftLeeds
10
30.982332
20
-18.090475
11
30.914693
21
-18.090475
0
LINE
8
SwiftLeeds
10
30.914693
20
-18.090475
11
30.907184
21
-18.090475
0
LINE
8
SwiftLeeds
10
30.907184
20
-18.090475
11
30.403648
21
-18.090475
0
LINE
8
SwiftLeeds
10
30.403648
20
-18.090475
11
30.403648
21
-17.805950
0
LINE
8
SwiftLeeds
10
30.403648
20
-17.805950
11
30.491955
21
-17.579451
0
LINE
8
SwiftLeeds
10
30.491955
20
-17.579451
11
30.704268
21
-17.521424
0
LINE
8
SwiftLeeds
10
30.704268
20
-17.521424
11
30.982336
21
-17.551351
0
LINE
8
SwiftLeeds
10
30.982336
20
-17.551351
11
30.982336
21
-17.079639
0
LINE
8
SwiftLeeds
10
30.982336
20
-17.079639
11
30.553956
21
-17.042190
0
LINE
8
SwiftLeeds
10
30.553956
20
-17.042190
11
30.027879
21
-17.189134
0
LINE
8
SwiftLeeds
10
30.027879
20
-17.189134
11
29.858548
21
-17.437043
0
LINE
8
SwiftLeeds
10
29.858548
20
-17.437043
11
29.794902
21
-17.858334
0
LINE
8
SwiftLeeds
10
29.794902
20
-17.858334
11
29.794902
21
-18.082961
0
LINE
8
SwiftLeeds
10
29.794902
20
-18.082961
11
29.343974
21
-18.082961
0
LINE
8
SwiftLeeds
10
29.343974
20
-18.082961
11
29.343974
21
-18.532213
0
LINE
8
SwiftLeeds
10
29.343974
20
-18.532213
11
29.794902
21
-18.532213
0
LINE
8
SwiftLeeds
10
29.794902
20
-18.532213
11
29.794902
21
-20.823403
0
LINE
8
SwiftLeeds
10
29.794902
20
-20.823403
11
30.403648
21
-20.823403
0
LINE
8
SwiftLeeds
10
30.403648
20
-20.823403
11
30.403648
21
-18.532213
0
LINE
8
SwiftLeeds
10
30.403648
20
-18.532213
11
30.907184
21
-18.532213
0
LINE
8
SwiftLeeds
10
30.907184
20
-18.532213
11
30.914693
21
-18.532213
0
LINE
8
SwiftLeeds
10
30.914693
20
-18.532213
11
30.982332
21
-18.532213
0
LINE
8
SwiftLeeds
10
30.982332
20
-18.532213
11
30.982332
21
-18.090475
0
LINE
8
SwiftLeeds
10
32.598149
20
-18.539730
11
32.598149
21
-18.090475
0
LINE
8
SwiftLeeds
10
32.598149
20
-18.090475
11
32.049524
21
-18.090475
0
LINE
8
SwiftLeeds
10
32.049524
20
-18.090475
11
32.049524
21
-17.266846
0
LINE
8
SwiftLeeds
10
32.049524
20
-17.266846
11
31.440774
21
-17.266846
0
LINE
8
SwiftLeeds
10
31.440774
20
-17.266846
11
31.440774
21
-18.090475
0
LINE
8
SwiftLeeds
10
31.440774
20
-18.090475
11
31.049970
21
-18.090475
0
LINE
8
SwiftLeeds
10
31.049970
20
-18.090475
11
31.049970
21
-18.539730
0
LINE
8
SwiftLeeds
10
31.049970
20
-18.539730
11
31.440774
21
-18.539730
0
LINE
8
SwiftLeeds
10
31.440774
20
-18.539730
11
31.440774
21
-20.157038
0
LINE
8
SwiftLeeds
10
31.440774
20
-20.157038
11
31.586382
21
-20.676486
0
LINE
8
SwiftLeeds
10
31.586382
20
-20.676486
11
32.199832
21
-20.853378
0
LINE
8
SwiftLeeds
10
32.199832
20
-20.853378
11
32.590632
21
-20.823451
0
LINE
8
SwiftLeeds
10
32.590632
20
-20.823451
11
32.590632
21
-20.359221
0
LINE
8
SwiftLeeds
10
32.590632
20
-20.359221
11
32.335109
21
-20.381706
0
LINE
8
SwiftLeeds
10
32.335109
20
-20.381706
11
32.087102
21
-20.287175
0
LINE
8
SwiftLeeds
10
32.087102
20
-20.287175
11
32.042010
21
-20.007328
0
LINE
8
SwiftLeeds
10
32.042010
20
-20.007328
11
32.042010
21
-18.547256
0
LINE
8
SwiftLeeds
10
32.042010
20
-18.547256
11
32.598149
21
-18.547256
0
LINE
8
SwiftLeeds
10
32.598149
20
-18.547256
11
32.598149
21
-18.539730
0
LINE
8
Front Silk
10
28.734273
20
-22.416203
11
28.904542
21
-21.955297
0
LINE
8
Front Silk
10
28.904542
20
-21.955297
11
29.312548
21
-21.654427
0
LINE
8
Front Silk
10
29.312548
20
-21.654427
11
29.890826
21
-21.545601
0
LINE
8
Front Silk
10
29.890826
20
-21.545601
11
30.430551
21
-21.641623
0
LINE
8
Front Silk
10
30.430551
20
-21.641623
11
30.793580
21
-21.910487
0
LINE
8
Front Silk
10
30.793580
20
-21.910487
11
30.925298
21
-22.310579
0
LINE
8
Front Silk
10
30.925298
20
-22.310579
11
30.838557
21
-22.637053
0
LINE
8
Front Silk
10
30.838557
20
-22.637053
11
30.559057
21
-22.944324
0
LINE
8
Front Silk
10
30.559057
20
-22.944324
11
30.035394
21
-23.293206
0
LINE
8
Front Silk
10
30.035394
20
-23.293206
11
29.436495
21
-23.638886
0
LINE
8
Front Silk
10
29.436495
20
-23.638886
11
30.999191
21
-23.638886
0
LINE
8
Front Silk
10
30.999191
20
-23.638886
11
30.999191
21
-23.990967
0
LINE
8
Front Silk
10
30.999191
20
-23.990967
11
28.756760
21
-23.990967
0
LINE
8
Front Silk
10
28.756760
20
-23.990967
11
28.756760
21
-23.683696
0
LINE
8
Front Silk
10
28.756760
20
-23.683696
11
29.781595
21
-23.062752
0
LINE
8
Front Silk
10
29.781595
20
-23.062752
11
30.205664
21
-22.781087
0
LINE
8
Front Silk
10
30.205664
20
-22.781087
11
30.430551
21
-22.553834
0
LINE
8
Front Silk
10
30.430551
20
-22.553834
11
30.498017
21
-22.329783
0
LINE
8
Front Silk
10
30.498017
20
-22.329783
11
30.430551
21
-22.105731
0
LINE
8
Front Silk
10
30.430551
20
-22.105731
11
30.224941
21
-21.948894
0
LINE
8
Front Silk
10
30.224941
20
-21.948894
11
29.877975
21
-21.891281
0
LINE
8
Front Silk
10
29.877975
20
-21.891281
11
29.482818
21
-21.961697
0
LINE
8
Front Silk
10
29.482818
20
-21.961697
11
29.251509
21
-22.153742
0
LINE
8
Front Silk
10
29.251509
20
-22.153742
11
29.161553
21
-22.416203
0
LINE
8
Front Silk
10
29.161553
20
-22.416203
11
28.734273
21
-22.416203
0
LINE
8
Front Silk
10
32.570173
20
-24.035777
11
31.889092
21
-23.882141
0
LINE
8
Front Silk
10
31.889092
20
-23.882141
11
31.448960
21
-23.446841
0
LINE
8
Front Silk
10
31.448960
20
-23.446841
11
31.294751
21
-22.790689
0
LINE
8
Front Silk
10
31.294751
20
-22.790689
11
31.448960
21
-22.137738
0
LINE
8
Front Silk
10
31.448960
20
-22.137738
11
31.889092
21
-21.702438
0
LINE
8
Front Silk
10
31.889092
20
-21.702438
11
32.570173
21
-21.545601
0
LINE
8
Front Silk
10
32.570173
20
-21.545601
11
33.248043
21
-21.702438
0
LINE
8
Front Silk
10
33.248043
20
-21.702438
11
33.688177
21
-22.137738
0
LINE
8
Front Silk
10
33.688177
20
-22.137738
11
33.842384
21
-22.790689
0
LINE
8
Front Silk
10
33.842384
20
-22.790689
11
33.688177
21
-23.446841
0
LINE
8
Front Silk
10
33.688177
20
-23.446841
11
33.248043
21
-23.882141
0
LINE
8
Front Silk
10
33.248043
20
-23.882141
11
32.570173
21
-24.035777
0
LINE
8
Front Silk
10
32.570173
20
-24.035777
11
32.570173
21
-24.035777
0
LINE
8
Front Silk
10
32.570173
20
-23.686898
11
33.193428
21
-23.453244
0
LINE
8
Front Silk
10
33.193428
20
-23.453244
11
33.415101
21
-22.790689
0
LINE
8
Front Silk
10
33.415101
20
-22.790689
11
33.193428
21
-22.131337
0
LINE
8
Front Silk
10
33.193428
20
-22.131337
11
32.570173
21
-21.894483
0
LINE
8
Front Silk
10
32.570173
20
-21.894483
11
31.943707
21
-22.131337
0
LINE
8
Front Silk
10
31.943707
20
-22.131337
11
31.722034
21
-22.790689
0
LINE
8
Front Silk
10
31.722034
20
-22.790689
11
31.943707
21
-23.453244
0
LINE
8
Front Silk
10
31.943707
20
-23.453244
11
32.570173
21
-23.686898
0
LINE
8
Front Silk
10
32.570173
20
-23.686898
11
32.570173
21
-23.686898
0
LINE
8
Front Silk
10
34.137947
20
-22.416203
11
34.308216
21
-21.955297
0
LINE
8
Front Silk
10
34.308216
20
-21.955297
11
34.716222
21
-21.654427
0
LINE
8
Front Silk
10
34.716222
20
-21.654427
11
35.294500
21
-21.545601
0
LINE
8
Front Silk
10
35.294500
20
-21.545601
11
35.834225
21
-21.641623
0
LINE
8
Front Silk
10
35.834225
20
-21.641623
11
36.197254
21
-21.910487
0
LINE
8
Front Silk
10
36.197254
20
-21.910487
11
36.328972
21
-22.310579
0
LINE
8
Front Silk
10
36.328972
20
-22.310579
11
36.242231
21
-22.637053
0
LINE
8
Front Silk
10
36.242231
20
-22.637053
11
35.962731
21
-22.944324
0
LINE
8
Front Silk
10
35.962731
20
-22.944324
11
35.439068
21
-23.293206
0
LINE
8
Front Silk
10
35.439068
20
-23.293206
11
34.848429
21
-23.638886
0
LINE
8
Front Silk
10
34.848429
20
-23.638886
11
36.402864
21
-23.638886
0
LINE
8
Front Silk
10
36.402864
20
-23.638886
11
36.402864
21
-23.990967
0
LINE
8
Front Silk
10
36.402864
20
-23.990967
11
34.160433
21
-23.990967
0
LINE
8
Front Silk
10
34.160433
20
-23.990967
11
34.160433
21
-23.683696
0
LINE
8
Front Silk
10
34.160433
20
-23.683696
11
35.185269
21
-23.062752
0
LINE
8
Front Silk
10
35.185269
20
-23.062752
11
35.609338
21
-22.781087
0
LINE
8
Front Silk
10
35.609338
20
-22.781087
11
35.834225
21
-22.553834
0
LINE
8
Front Silk
10
35.834225
20
-22.553834
11
35.901691
21
-22.329783
0
LINE
8
Front Silk
10
35.901691
20
-22.329783
11
35.834225
21
-22.105731
0
LINE
8
Front Silk
10
35.834225
20
-22.105731
11
35.628615
21
-21.948894
0
LINE
8
Front Silk
10
35.628615
20
-21.948894
11
35.281649
21
-21.891281
0
LINE
8
Front Silk
10
35.281649
20
-21.891281
11
34.886492
21
-21.961697
0
LINE
8
Front Silk
10
34.886492
20
-21.961697
11
34.655183
21
-22.153742
0
LINE
8
Front Silk
10
34.655183
20
-22.153742
11
34.565227
21
-22.416203
0
LINE
8
Front Silk
10
34.565227
20
-22.416203
11
34.137947
21
-22.416203
0
LINE
8
Front Silk
10
36.720914
20
-22.329783
11
36.881545
21
-21.932892
0
LINE
8
Front Silk
10
36.881545
20
-21.932892
11
37.273491
21
-21.651225
0
LINE
8
Front Silk
10
37.273491
20
-21.651225
11
37.877467
21
-21.545601
0
LINE
8
Front Silk
10
37.877467
20
-21.545601
11
38.417193
21
-21.628820
0
LINE
8
Front Silk
10
38.417193
20
-21.628820
11
38.773798
21
-21.856073
0
LINE
8
Front Silk
10
38.773798
20
-21.856073
11
38.899091
21
-22.198552
0
LINE
8
Front Silk
10
38.899091
20
-22.198552
11
38.799497
21
-22.499423
0
LINE
8
Front Silk
10
38.799497
20
-22.499423
11
38.503934
21
-22.707470
0
LINE
8
Front Silk
10
38.503934
20
-22.707470
11
38.167275
21
-22.760882
0
LINE
8
Front Silk
10
38.167275
20
-22.760882
11
38.513565
21
-22.777888
0
LINE
8
Front Silk
10
38.513565
20
-22.777888
11
38.838041
21
-22.976334
0
LINE
8
Front Silk
10
38.838041
20
-22.976334
11
38.953696
21
-23.299609
0
LINE
8
Front Silk
10
38.953696
20
-23.299609
11
38.821978
21
-23.680495
0
LINE
8
Front Silk
10
38.821978
20
-23.680495
11
38.439675
21
-23.942956
0
LINE
8
Front Silk
10
38.439675
20
-23.942956
11
37.832483
21
-24.035777
0
LINE
8
Front Silk
10
37.832483
20
-24.035777
11
37.222079
21
-23.936555
0
LINE
8
Front Silk
10
37.222079
20
-23.936555
11
36.814074
21
-23.651690
0
LINE
8
Front Silk
10
36.814074
20
-23.651690
11
36.653440
21
-23.225991
0
LINE
8
Front Silk
10
36.653440
20
-23.225991
11
37.080723
21
-23.225991
0
LINE
8
Front Silk
10
37.080723
20
-23.225991
11
37.299182
21
-23.571672
0
LINE
8
Front Silk
10
37.299182
20
-23.571672
11
37.832483
21
-23.690099
0
LINE
8
Front Silk
10
37.832483
20
-23.690099
11
38.349719
21
-23.578072
0
LINE
8
Front Silk
10
38.349719
20
-23.578072
11
38.523203
21
-23.270801
0
LINE
8
Front Silk
10
38.523203
20
-23.270801
11
38.462161
21
-23.078756
0
LINE
8
Front Silk
10
38.462161
20
-23.078756
11
38.266190
21
-22.957127
0
LINE
8
Front Silk
10
38.266190
20
-22.957127
11
37.899949
21
-22.915519
0
LINE
8
Front Silk
10
37.899949
20
-22.915519
11
37.463027
21
-22.915519
0
LINE
8
Front Silk
10
37.463027
20
-22.915519
11
37.463027
21
-22.601845
0
LINE
8
Front Silk
10
37.463027
20
-22.601845
11
37.899949
21
-22.601845
0
LINE
8
Front Silk
10
37.899949
20
-22.601845
11
38.333656
21
-22.505823
0
LINE
8
Front Silk
10
38.333656
20
-22.505823
11
38.468588
21
-22.252966
0
LINE
8
Front Silk
10
38.468588
20
-22.252966
11
38.317593
21
-21.987304
0
LINE
8
Front Silk
10
38.317593
20
-21.987304
11
37.854970
21
-21.891281
0
LINE
8
Front Silk
10
37.854970
20
-21.891281
11
37.363436
21
-22.006510
0
LINE
8
Front Silk
10
37.363436
20
-22.006510
11
37.148189
21
-22.329783
0
LINE
8
Front Silk
10
37.148189
20
-22.329783
11
36.720914
21
-22.329783
 0 
ENDSEC
 0 
EOF