<?xml version="1.0" encoding="UTF-8" standalone="no"?>
<svg
   width="136.95844"
   height="187.45641"
   viewBox="0 0 136.95843 187.45641"
   fill="none"
   version="1.1"
   id="svg28"
   sodipodi:docname="front_silkscreen.svg"
   inkscape:version="1.3 (0e150ed, 2023-07-21)"
   inkscape:export-filename="../Version4/back_silkscreen.png"
   inkscape:export-xdpi="280.73999"
   inkscape:export-ydpi="280.73999"
   xml:space="preserve"
   xmlns:inkscape="http://www.inkscape.org/namespaces/inkscape"
   xmlns:sodipodi="http://sodipodi.sourceforge.net/DTD/sodipodi-0.dtd"
   xmlns="http://www.w3.org/2000/svg"
   xmlns:svg="http://www.w3.org/2000/svg"><defs
     id="defs32"><inkscape:path-effect
       effect="bend_path"
       id="path-effect22"
       is_visible="true"
       lpeversion="1"
       bendpath="M 63.302061,-4.4764408 C 52.267623,-22.46702 47.776605,-51.078935 53.999351,-68.897883"
       prop_scale="1"
       scale_y_rel="false"
       vertical="false"
       hide_knot="false"
       bendpath-nodetypes="cc" /><inkscape:path-effect
       effect="bend_path"
       id="path-effect21"
       is_visible="true"
       lpeversion="1"
       bendpath="m 69.045358,-81.915857 c 11.303923,-6.923221 34.349062,-3.036678 53.558352,7.446897"
       prop_scale="1"
       scale_y_rel="false"
       vertical="false"
       hide_knot="false"
       bendpath-nodetypes="cc" /><inkscape:path-effect
       effect="fillet_chamfer"
       id="path-effect13"
       is_visible="true"
       lpeversion="1"
       nodesatellites_param="F,0,0,1,0,8.0934265,0,1 @ F,0,0,1,0,7.2895428,0,1 @ F,0,0,1,0,8.4537078,0,1 @ F,0,0,1,0,4.6845359,0,1 @ F,0,0,1,0,0,0,1 @ F,0,0,1,0,0,0,1 @ F,0,0,1,0,0,0,1 @ F,0,0,1,0,0,0,1 @ F,0,0,1,0,0,0,1 @ F,0,0,1,0,0,0,1 @ F,0,0,1,0,0,0,1 @ F,0,0,1,0,0,0,1 @ F,0,0,1,0,0,0,1 @ F,0,0,1,0,0,0,1 @ F,0,0,1,0,0,0,1 @ F,0,0,1,0,0,0,1 @ F,0,0,1,0,0,0,1 @ F,0,0,1,0,0,0,1 @ F,0,0,1,0,0,0,1 @ F,0,0,1,0,0,0,1 @ F,0,0,1,0,0,0,1 @ F,0,0,1,0,0,0,1 @ F,0,0,1,0,0,0,1 @ F,0,0,1,0,0,0,1 @ F,0,0,1,0,0,0,1 @ F,0,0,1,0,0,0,1 @ F,0,0,1,0,0,0,1 @ F,0,0,1,0,0,0,1 @ F,0,0,1,0,0,0,1 @ F,0,0,1,0,0,0,1 @ F,0,0,1,0,0,0,1 @ F,0,0,1,0,0,0,1 @ F,0,0,1,0,0,0,1 @ F,0,0,1,0,0,0,1 @ F,0,0,1,0,0,0,1 @ F,0,0,1,0,0,0,1 @ F,0,0,1,0,0,0,1 @ F,0,0,1,0,0,0,1 @ F,0,0,1,0,0,0,1 @ F,0,0,1,0,0,0,1 @ F,0,0,1,0,0,0,1 @ F,0,0,1,0,0,0,1 @ F,0,0,1,0,0,0,1 @ F,0,0,1,0,0,0,1"
       radius="0"
       unit="px"
       method="auto"
       mode="F"
       chamfer_steps="1"
       flexible="false"
       use_knot_distance="true"
       apply_no_radius="true"
       apply_with_radius="true"
       only_selected="false"
       hide_knots="false" /><inkscape:path-effect
       effect="fillet_chamfer"
       id="path-effect2-1"
       is_visible="true"
       lpeversion="1"
       nodesatellites_param="F,0,0,1,0,8.0934265,0,1 @ F,0,0,1,0,7.2895428,0,1 @ F,0,0,1,0,8.4537078,0,1 @ F,0,0,1,0,4.6845359,0,1 @ F,0,0,1,0,0,0,1 @ F,0,0,1,0,0,0,1 @ F,0,0,1,0,0,0,1 @ F,0,0,1,0,0,0,1 @ F,0,0,1,0,0,0,1 @ F,0,0,1,0,0,0,1 @ F,0,0,1,0,0,0,1 @ F,0,0,1,0,0,0,1 @ F,0,0,1,0,0,0,1 @ F,0,0,1,0,0,0,1 @ F,0,0,1,0,0,0,1 @ F,0,0,1,0,0,0,1 @ F,0,0,1,0,0,0,1 @ F,0,0,1,0,0,0,1 @ F,0,0,1,0,0,0,1 @ F,0,0,1,0,0,0,1 @ F,0,0,1,0,0,0,1 @ F,0,0,1,0,0,0,1 @ F,0,0,1,0,0,0,1 @ F,0,0,1,0,0,0,1 @ F,0,0,1,0,0,0,1 @ F,0,0,1,0,0,0,1 @ F,0,0,1,0,0,0,1 @ F,0,0,1,0,0,0,1 @ F,0,0,1,0,0,0,1 @ F,0,0,1,0,0,0,1 @ F,0,0,1,0,0,0,1 @ F,0,0,1,0,0,0,1 @ F,0,0,1,0,0,0,1 @ F,0,0,1,0,0,0,1 @ F,0,0,1,0,0,0,1 @ F,0,0,1,0,0,0,1 @ F,0,0,1,0,0,0,1 @ F,0,0,1,0,0,0,1 @ F,0,0,1,0,0,0,1 @ F,0,0,1,0,0,0,1 @ F,0,0,1,0,0,0,1 @ F,0,0,1,0,0,0,1 @ F,0,0,1,0,0,0,1 @ F,0,0,1,0,0,0,1"
       radius="0"
       unit="px"
       method="auto"
       mode="F"
       chamfer_steps="1"
       flexible="false"
       use_knot_distance="true"
       apply_no_radius="true"
       apply_with_radius="true"
       only_selected="false"
       hide_knots="false" /></defs><sodipodi:namedview
     id="namedview30"
     pagecolor="#ffffff"
     bordercolor="#000000"
     borderopacity="0.25"
     inkscape:showpageshadow="2"
     inkscape:pageopacity="0.0"
     inkscape:pagecheckerboard="0"
     inkscape:deskcolor="#d1d1d1"
     showgrid="false"
     inkscape:zoom="1.6550499"
     inkscape:cx="-137.15599"
     inkscape:cy="206.33819"
     inkscape:window-width="2432"
     inkscape:window-height="1302"
     inkscape:window-x="79"
     inkscape:window-y="25"
     inkscape:window-maximized="0"
     inkscape:current-layer="layer3" /><g
     inkscape:groupmode="layer"
     id="layer3"
     inkscape:label="Front Silk"
     style="display:inline"
     transform="translate(-0.03572749,0.11946489)"><path
       style="display:inline;fill:none;fill-opacity:1;stroke:none;stroke-width:4.88578;stroke-dasharray:none;stroke-opacity:1;paint-order:stroke markers fill"
       d="M 119.85001,0.08999481 C 92.726676,0.50033061 65.910096,6.9543795 40.844124,17.079294 29.880094,21.660351 19.085827,26.890061 9.3329225,33.705153 1.8753849,38.900161 1.3786591,50.806274 7.8845687,56.957302 c 3.2060353,3.352854 7.9380243,4.686335 12.4880933,4.390507 21.1151,0.344338 42.307236,-0.54837 63.331797,1.911289 5.496457,0.674942 11.193458,1.006522 16.538361,2.171093 -2.265023,3.894189 -4.49146,7.914133 -7.316473,11.417323 -1.769831,-0.197448 -3.421439,-1.477203 -5.259269,-1.747964 -6.096391,-1.467434 -12.458341,-0.868255 -18.673654,-0.888562 -8.95149,0.42234 -17.756149,2.453088 -26.407032,4.68516 -12.787457,3.581677 -25.34039,8.614066 -36.3353129,16.122423 -4.9602591,3.269727 -6.98440304,9.726599 -5.50240485,15.361849 1.39162085,6.56558 8.11447645,11.10701 14.72364975,10.5954 12.998003,0.34086 26.08117,-0.38458 39.003286,1.30345 1.270479,0.31376 -0.635497,1.82556 -0.65891,2.51483 -1.380958,2.13423 -2.11203,4.91425 -4.707828,5.88282 -6.319192,4.08225 -13.078157,7.57613 -18.940863,12.31098 -5.951036,6.25302 -4.54846,17.60256 2.856837,22.12911 1.941975,1.2931 4.232754,1.88015 6.505041,2.27888 1.06867,7.55172 8.372162,14.30221 16.236935,13.2523 4.860982,-0.77359 9.489619,-3.59966 11.740265,-8.06705 3.629795,-5.49186 6.784896,-11.38949 10.56035,-16.72062 2.22213,-1.03993 4.20145,-2.843 6.563996,-3.45254 1.112374,1.26482 0.475908,3.4097 0.863074,4.97899 0.943414,12.22749 0.935107,24.50133 0.75035,36.75576 -4.189109,0.64133 -8.191741,2.81973 -10.327926,6.57499 -2.715158,4.32571 -1.481411,9.61671 -1.799318,14.42585 0.007,19.61824 0.223713,39.23565 0.343458,58.85339 1.514739,4.03472 4.736706,7.81434 9.064427,8.73518 29.407942,0.32915 58.818012,0.32578 88.227342,0.27509 4.93861,-1.27896 9.09482,-5.02587 10.62959,-9.90447 0.58051,-3.21784 0.0811,-6.64484 0.24775,-9.94282 0,-20.97164 0,-41.94328 0,-62.91492 -1.09284,-2.76423 -3.31048,-5.03886 -6.21941,-5.82536 0.62475,-2.05413 2.32244,-3.8348 3.23894,-5.84164 14.49231,-25.63603 23.30998,-54.27755 26.97234,-83.41856 1.17379,-9.759351 1.39174,-19.680175 0.32399,-29.456088 -0.93981,-7.578695 -4.34558,-14.573943 -8.62362,-20.817991 -0.864,-1.80235 1.1204,-3.52225 1.48936,-5.251904 4.21537,-8.902086 6.10518,-19.24603 3.53444,-28.886589 C 201.36659,14.089002 196.62708,8.1840605 190.05583,5.5890531 182.67943,2.4559268 174.20458,2.7765458 166.55349,4.6982255 162.00621,5.876413 157.74087,7.8796511 153.52834,9.9122197 146.06943,4.878318 137.60549,0.874325 128.47534,0.41161606 125.60763,0.16558814 122.72765,0.08159986 119.85001,0.08999481 Z m 1.58982,1.41694969 c 9.85876,-0.114117 19.88613,2.1325824 28.14179,7.673604 1.56709,0.5196079 2.98514,3.0256245 4.62855,2.1075885 6.19583,-3.0848988 12.79534,-6.0374452 19.80811,-6.3705672 4.98276,-1.922e-4 10.19412,-0.4804699 14.83131,1.7433089 6.65214,2.4394428 11.53751,8.4018933 13.25146,15.1766493 1.95599,8.071224 0.72292,16.600635 -2.39477,24.219846 -1.03747,2.806551 -2.36909,5.489306 -3.64997,8.190086 5.27449,7.395363 9.47119,15.920855 9.7941,25.142614 1.30659,15.686283 -1.11172,31.410406 -4.29783,46.738276 -5.28965,24.10095 -14.06343,47.61717 -27.3277,68.52019 -2.07877,2.09466 1.71209,0.74896 2.897,1.67723 3.00017,1.03974 4.37929,4.28193 3.99613,7.26391 0.25332,22.96625 9.1e-4,45.93497 0.001,68.90213 -1.54948,4.15225 -4.80436,7.9781 -9.38901,8.72924 -9.23121,0.67196 -18.51847,0.28658 -27.77228,0.4158 -19.86477,-0.0422 -39.73501,0.0947 -59.595809,-0.28116 -4.171605,-0.67892 -7.516349,-4.26645 -8.396265,-8.24768 -0.193299,-22.8821 -0.546185,-45.76552 -0.296403,-68.64859 1.602763,-4.49427 5.566613,-8.42667 10.559694,-8.58738 2.491218,0.37679 1.040837,-2.84598 1.465524,-4.3564 0.232023,-13.83537 0.192067,-27.75142 -1.520249,-41.49179 -1.250228,-0.2607 -2.495212,1.16772 -3.669418,1.58997 -2.644151,1.70701 -6.040223,2.77177 -7.346607,5.8993 -3.537468,5.38435 -6.626082,11.06794 -10.244718,16.3878 -3.91048,4.84518 -11.317909,7.0806 -16.877227,3.6929 -4.153477,-2.23163 -6.618892,-6.76003 -7.125272,-11.28857 -2.919172,-0.79639 -6.153395,-1.30765 -8.464873,-3.50945 -5.590152,-4.52783 -6.077945,-13.72723 -1.144862,-18.88188 6.606764,-5.01535 13.935883,-8.99308 20.933217,-13.43221 1.683938,-3.08368 3.690648,-6.1138 5.121767,-9.2678 C 42.78093,118.88267 27.939346,119.97801 13.242981,119.35894 6.742191,119.19588 1.3655011,112.93929 1.7896698,106.54055 1.6811009,101.58214 4.7445964,96.929806 9.1754111,94.75668 26.475567,84.218818 46.286126,78.075429 66.37506,75.80391 c 6.552115,-0.149296 13.17081,-0.480997 19.683905,0.384515 2.501681,0.44849 4.787442,1.604875 7.109338,2.579319 3.191569,-3.407033 5.29649,-7.694052 7.831397,-11.589787 0.37784,-0.920105 1.45726,-1.981374 1.41836,-2.901903 C 91.761614,62.305004 80.910648,61.460918 70.108427,60.638626 52.115809,59.418691 34.059792,60.377036 16.055557,59.657738 9.3156627,58.553454 4.1676036,51.860496 4.8961326,45.06492 4.9667081,40.014466 8.2311842,35.565231 12.585143,33.196026 34.355702,19.534924 58.926925,10.665088 84.059593,5.5102683 96.362144,3.090997 108.88939,1.5629792 121.43983,1.5069445 Z"
       id="path3" /><path
       style="display:inline;fill:#999999;fill-opacity:1;stroke-width:6.87223;paint-order:stroke markers fill;stroke:none"
       d="M 120.40671,-0.0984257 C 90.791753,0.12629142 61.573908,7.6868685 34.556736,19.486609 25.310669,23.787894 15.954056,28.254783 7.9021042,34.568625 1.1749189,40.650166 1.5873231,52.569484 8.8550334,58.079432 c 3.1992946,2.749984 7.4235096,3.859745 11.5920386,3.4825 23.684569,0.481971 47.479267,-0.446344 71.010567,2.839967 2.785755,0.369903 5.596929,0.662282 8.355672,1.195797 -2.136572,3.729459 -4.406858,7.414675 -6.855614,10.936262 C 80.579741,71.849008 66.901264,73.568882 54.191332,75.88749 37.107259,79.439616 20.158584,85.225011 5.6442922,95.058778 c -7.7582712,5.531112 -7.4543057,18.841162 0.829248,23.752292 2.2811627,1.49994 4.6823498,2.87564 7.5300758,2.34049 13.514036,0.37886 27.14155,-0.0403 40.57128,1.43229 -1.508848,3.47368 -3.752758,7.41226 -7.563656,9.05385 -5.833382,3.98901 -12.536058,6.92215 -17.63004,11.88912 -5.36412,6.48998 -3.874201,17.40183 3.514549,21.75508 1.837884,1.50644 4.384082,1.61325 6.326854,2.73242 1.390844,5.3646 5.102362,10.50071 10.54199,12.31487 6.19301,1.78078 13.361801,-0.57039 16.815691,-6.11176 4.277627,-5.82571 7.553029,-12.44596 11.759644,-18.2208 2.056452,-1.05374 4.035646,-2.4949 6.223188,-3.19665 1.31373,6.86971 0.804377,14.00899 1.058794,20.99335 0.03266,6.7483 0.03681,13.4967 0.05766,20.24505 -5.224073,0.64427 -10.060921,4.64727 -11.367918,9.75033 -0.477381,21.56759 -0.414201,43.15289 -0.131152,64.72358 0.124095,3.96064 0.08539,8.57378 3.62246,11.21826 2.956627,3.20721 7.491801,3.77769 11.624279,3.46839 27.579961,0.26796 55.165771,0.0919 82.743961,0.0588 4.94075,-1.75849 9.39289,-5.55405 10.71216,-10.72289 -0.0137,-24.15942 0.0266,-48.3257 -0.0199,-72.48084 -1.1525,-2.68401 -3.32426,-4.75882 -5.99897,-5.92132 10.49662,-18.05259 18.8593,-37.37959 24.00254,-57.63162 4.7801,-18.94632 8.32708,-38.595114 6.59798,-58.190778 C 206.784,69.52929 203.2681,61.207936 198.09458,54.126394 203.41809,43.43632 207.24386,30.632379 202.95386,18.932543 199.85262,9.8451133 190.79303,3.8191129 181.37183,3.1178261 c -9.72932,-1.0038386 -19.35111,2.111901 -27.89394,6.5275182 -8.92311,-6.5308974 -19.93518,-10.09208006 -31.02415,-9.74110835 -0.68232,-0.0092832 -1.36464,-0.0042961 -2.04698,-0.002616 z M 141.85344,107.90541 c 3.92307,23.81997 4.09068,48.02629 3.96694,72.10621 0.27683,4.60907 -0.42479,9.47261 0.81431,13.92256 -9.8978,0.53771 -19.86684,0.35779 -29.78652,0.14229 8.29794,-15.7975 14.00502,-32.99091 16.01238,-50.7412 1.21458,-8.88429 1.29241,-18.09878 -1.56405,-26.68924 -0.51797,-1.26804 -0.55764,-2.54694 1.03569,-3.00563 3.08361,-1.99446 6.28377,-4.23905 9.52125,-5.73495 z"
       id="path1"
       inkscape:label="infill" /><path
       d="m 100.67124,192.81166 c 16.99924,-26.31163 21.24905,-62.75551 16.99924,-71.82848 -1.51779,-3.32676 -3.33914,-5.89744 -5.00871,-7.56082 -0.75889,-0.75608 -0.91067,-1.96581 -0.30355,-2.87311 5.61582,-8.92176 5.61582,-14.667978 4.09803,-18.297168 -0.30356,-0.604866 -0.7589,-1.209731 -1.21423,-1.814596 -0.45534,-0.453649 -1.06246,-0.907297 -1.82135,-1.20973 -3.6427,-1.512163 -9.56207,-1.512163 -18.365249,4.082839 -0.910673,0.604866 -2.124904,0.453649 -2.883799,-0.302432 -1.821346,-1.663379 -4.249809,-3.326758 -7.588945,-4.990137 -9.106734,-4.234056 -45.685449,0 -72.094981,16.936224 -0.607115,0.45365 -0.910673,1.20973 -0.758894,1.96581 0.303558,0.75608 0.910673,1.20973 1.821347,1.20973 0.303558,0 32.936024,-1.81459 57.827764,3.78041 1.973126,0.45365 2.883799,2.72189 1.669568,4.38527 -5.008704,6.80473 -8.954955,13.45825 -12.749428,20.71663 -0.455336,0.75608 -1.062452,1.51216 -1.821347,1.96581 l -19.731257,12.0973 c -0.758894,0.45365 -1.062452,1.36095 -0.758894,2.26825 0.303558,0.75608 1.214231,1.20973 2.124904,1.05851 l 18.668805,-8.46811 c 0.303558,-0.15122 0.607116,0 0.758895,0.15122 0.151779,0.15121 0.303558,0.45365 0.151779,0.75608 l -8.499619,18.60035 c -0.151779,0.9073 0.303558,1.66338 1.062453,2.11703 0.758894,0.30243 1.821346,0 2.276683,-0.75608 l 12.142312,-19.65887 c 0.455337,-0.75608 1.214231,-1.36095 1.973126,-1.81459 7.285387,-3.78041 13.963659,-7.71203 20.793709,-12.70217 1.669568,-1.20973 3.946252,-0.30243 4.401588,1.66338 5.61582,24.79947 3.794473,57.31172 3.794473,57.61415 0,0.75608 0.455336,1.51216 1.214231,1.81459 0.607116,0.15122 1.517786,-0.15121 1.821346,-0.90729 z"
       fill="#000000"
       id="path4"
       style="display:inline;fill:#000000;fill-opacity:1;stroke:none;stroke-width:1.51497;stroke-opacity:1"
       inkscape:label="Smol" /><path
       d="m 162.68662,188.30488 c 28.23087,-43.70224 35.36448,-104.339972 28.23087,-119.310383 -2.73202,-5.746218 -5.61582,-9.829057 -8.34784,-12.702167 -1.21423,-1.360946 -1.36601,-3.175541 -0.45534,-4.687704 9.4103,-14.819195 9.4103,-24.648252 6.67828,-30.696888 -0.45534,-1.058514 -1.06246,-1.965811 -1.97313,-2.721893 -0.75889,-0.756081 -1.82135,-1.512162 -2.73202,-1.965811 -6.07116,-2.570678 -15.93678,-2.721894 -30.81112,6.653516 -1.51779,0.907297 -3.49091,0.756081 -4.70514,-0.453649 -2.8838,-2.721893 -6.98183,-5.595002 -12.74943,-8.316896 -15.02611,-6.955948 -76.041226,-1.5e-5 -119.753553,28.126212 -1.062452,0.756082 -1.669567,2.117028 -1.214231,3.326758 0.455337,1.20973 1.669568,2.117028 3.035578,1.965812 0.607116,0 54.792186,-2.873109 96.076046,6.351083 3.18736,0.756081 4.70515,4.536488 2.73202,7.258381 -4.24981,5.897435 -8.04428,11.794869 -11.68697,17.692304 -0.15178,0.151216 0.15177,0.302432 0.30355,0.302432 8.80318,-4.234055 14.87434,-3.931623 18.82059,-2.268244 0.91067,0.302433 1.51779,0.907298 2.27668,1.512163 0.60712,0.604865 1.21423,1.360946 1.51779,2.268244 1.66957,4.082839 1.97313,10.13149 -2.27668,18.750818 0,0.151216 0.15178,0.302432 0.30355,0.302432 5.91938,-3.62919 11.83876,-7.409597 17.75813,-11.643653 2.73202,-1.965811 6.52649,-0.604865 7.28539,2.721893 9.25851,41.13083 6.37471,95.26699 6.37471,95.72064 0,1.36096 0.7589,2.57068 1.97313,3.02433 1.21423,0.30243 2.58024,-0.15122 3.33914,-1.20973 z"
       fill="#ed2207"
       id="path2-0"
       style="display:inline;fill:#000000;fill-opacity:1;stroke:none;stroke-width:1.51497;stroke-opacity:1"
       inkscape:label="Big" /><g
       id="g1"
       inkscape:label="SwiftLeeds"
       transform="matrix(1.517789,0,0,1.5121627,-0.0184993,-2.0631431)"
       style="stroke:none"><path
         d="m 58.022721,172.15154 c -0.486578,-0.14972 -2.582608,-0.69244 -2.732324,-0.72986 -0.673723,-0.18715 -1.122874,-0.56144 -1.122874,-1.21645 0,-0.95445 0.973157,-1.23517 1.740455,-1.23517 1.141587,0 1.965026,0.44916 2.039888,1.6656 h 1.646879 c 0,-1.96502 -1.646879,-3.01304 -3.630626,-3.01304 -1.703027,0 -3.462195,0.87958 -3.462195,2.78847 0,0.97316 0.467864,1.96503 2.096036,2.39546 1.291304,0.35558 2.152171,0.52401 2.825893,0.78601 0.39301,0.14972 0.786012,0.43044 0.786012,1.16031 0,0.71115 -0.542719,1.4223 -2.002453,1.4223 -1.328739,0 -2.395464,-0.56144 -2.395464,-2.02117 h -1.646885 c 0.03747,2.33932 1.796602,3.36862 3.948773,3.36862 1.871457,0 3.761629,-0.84215 3.761629,-2.9569 -0.0187,-0.97316 -0.617582,-2.03988 -1.852744,-2.41418 z"
         fill="#000000"
         id="path3-8"
         style="display:inline;fill:#000000;fill-opacity:1;stroke:none;stroke-width:0.187146;stroke-opacity:1" /><path
         d="m 67.230286,175.57631 h -0.0187 l -1.23516,-5.10908 H 64.46054 l -1.291304,5.10908 h -0.0187 l -1.347445,-5.10908 h -1.590738 l 2.114744,6.84953 h 1.590737 l 1.253872,-5.09036 h 0.0187 l 1.27259,5.09036 h 1.55331 l 2.15217,-6.84953 h -1.53458 z"
         fill="#000000"
         id="path4-3"
         style="display:inline;fill:#000000;fill-opacity:1;stroke:none;stroke-width:0.187146;stroke-opacity:1" /><path
         d="m 72.414216,167.84719 h -1.51588 v 1.42231 h 1.51588 z"
         fill="#000000"
         id="path5-5"
         style="display:inline;fill:#000000;fill-opacity:1;stroke:none;stroke-width:0.187146;stroke-opacity:1" /><path
         d="m 72.414216,170.46723 h -1.51588 v 6.84953 h 1.51588 z"
         fill="#000000"
         id="path6"
         style="display:inline;fill:#000000;fill-opacity:1;stroke:none;stroke-width:0.187146;stroke-opacity:1" /><path
         d="m 83.904946,167.84719 h -1.64687 v 9.46957 h 6.45651 v -1.44102 h -4.80964 z"
         fill="#000000"
         id="path7"
         style="display:inline;fill:#000000;fill-opacity:1;stroke:none;stroke-width:0.187146;stroke-opacity:1" /><path
         d="m 92.345216,170.28009 c -2.03989,0 -3.31248,1.66559 -3.31248,3.6119 0,2.11475 1.19774,3.5932 3.34991,3.5932 1.49717,0 2.76976,-0.84216 3.10662,-2.33932 h -1.42231 c -0.26201,0.74858 -0.78601,1.14159 -1.6656,1.14159 -1.25387,0 -1.83402,-0.95445 -1.83402,-2.02117 h 5.03421 c 0.22458,-2.03989 -1.08544,-3.9862 -3.25633,-3.9862 z m -1.7966,2.99432 c 0.0374,-1.01058 0.74858,-1.81531 1.7966,-1.81531 1.01058,0 1.66559,0.86087 1.72174,1.81531 z"
         fill="#000000"
         id="path8"
         style="display:inline;fill:#000000;fill-opacity:1;stroke:none;stroke-width:0.187146;stroke-opacity:1" /><path
         d="m 99.438022,170.28009 c -2.03988,0 -3.312466,1.66559 -3.312466,3.6119 0,2.11475 1.197726,3.5932 3.349906,3.5932 1.497158,0 2.769748,-0.84216 3.106608,-2.33932 h -1.4223 c -0.262,0.74858 -0.78602,1.14159 -1.665598,1.14159 -1.25387,0 -1.83403,-0.95445 -1.83403,-2.02117 h 5.034218 c 0.24329,-2.03989 -1.08544,-3.9862 -3.256338,-3.9862 z m -1.79659,2.99432 c 0.0374,-1.01058 0.74858,-1.81531 1.79659,-1.81531 1.010598,0 1.665598,0.86087 1.721748,1.81531 z"
         fill="#000000"
         id="path9"
         style="display:inline;fill:#000000;fill-opacity:1;stroke:none;stroke-width:0.187146;stroke-opacity:1" /><path
         d="m 108.49587,171.34681 h -0.0187 c -0.46786,-0.74857 -1.42231,-1.06672 -2.28317,-1.06672 -1.49717,0 -2.95691,1.08544 -2.95691,3.55576 0,2.0586 1.04802,3.64934 3.20019,3.64934 0.86088,0 1.72174,-0.33686 2.11475,-1.10416 h 0.0187 v 0.93573 h 1.42231 v -9.45085 h -1.51588 v 3.4809 z m -1.85274,4.95936 c -1.31002,0 -1.89017,-1.1603 -1.89017,-2.33931 0,-1.23517 0.5053,-2.48904 1.9276,-2.48904 1.1603,0 1.89017,0.8983 1.89017,2.41417 -0.0187,1.17903 -0.58015,2.41418 -1.9276,2.41418 z"
         fill="#000000"
         id="path10"
         style="display:inline;fill:#000000;fill-opacity:1;stroke:none;stroke-width:0.187146;stroke-opacity:1" /><path
         d="m 114.89625,173.27441 c -1.10416,-0.24328 -2.22703,-0.35557 -2.22703,-1.10416 0,-0.59886 0.80472,-0.71115 1.23516,-0.71115 0.65501,0 1.25388,0.20586 1.38488,0.91702 h 1.57202 c -0.18715,-1.51588 -1.45974,-2.09603 -2.86333,-2.09603 -1.23516,0 -2.86332,0.46786 -2.86332,1.96503 0,1.38487 1.08544,1.79659 2.1896,2.02117 1.10415,0.24329 2.1896,0.33686 2.24575,1.14159 0.0374,0.78601 -0.95444,0.89829 -1.51588,0.89829 -0.80473,0 -1.47845,-0.31815 -1.55331,-1.19773 h -1.51588 c 0.0187,1.60945 1.31002,2.37675 3.03176,2.37675 1.42231,0 3.05047,-0.59887 3.05047,-2.22703 0.0374,-1.34745 -1.06673,-1.74045 -2.17089,-1.98375 z"
         fill="#000000"
         id="path11"
         style="display:inline;fill:#000000;fill-opacity:1;stroke:none;stroke-width:0.187146;stroke-opacity:1" /><path
         d="m 77.186426,170.46723 h -0.16843 -0.0187 -1.25388 v -0.71115 c 0,-0.56144 0.33686,-0.71115 0.74859,-0.71115 0.29943,0 0.50529,0.0187 0.69243,0.0748 v -1.17901 c -0.24328,-0.0749 -0.58015,-0.0936 -1.06673,-0.0936 -0.97315,0 -1.89016,0.29944 -1.89016,2.03989 v 0.56144 h -1.12288 v 1.12287 h 1.12288 v 5.72666 h 1.51587 v -5.72666 h 1.25388 0.0187 0.16843 z"
         fill="#000000"
         id="path12"
         style="display:inline;fill:#000000;fill-opacity:1;stroke:none;stroke-width:0.187146;stroke-opacity:1" /><path
         d="m 81.210056,171.59011 v -1.12288 h -1.36616 v -2.0586 h -1.51588 v 2.0586 h -0.97316 v 1.12288 h 0.97316 v 4.04234 c 0.0187,1.14159 0.31814,1.74045 1.89017,1.74045 0.33686,0 0.65501,-0.0562 0.97315,-0.0748 v -1.16031 c -0.20585,0.0562 -0.43043,0.0562 -0.63629,0.0562 -0.67372,0 -0.72986,-0.31815 -0.72986,-0.93573 v -3.64934 h 1.38487 z"
         fill="#000000"
         id="path13"
         style="display:inline;fill:#000000;fill-opacity:1;stroke:none;stroke-width:0.187146;stroke-opacity:1" /></g><path
       d="m 108.63784,272.05982 c 0.0486,-0.66939 0.26308,-1.25006 0.64354,-1.74201 0.38855,-0.49195 0.90258,-0.87101 1.54207,-1.13715 0.6395,-0.2742 1.36804,-0.41131 2.18562,-0.41131 0.77711,0 1.45708,0.12098 2.03991,0.36292 0.59092,0.24195 1.04828,0.58067 1.37208,1.01618 0.33189,0.4355 0.49783,0.93955 0.49783,1.51216 0,0.44356 -0.10928,0.85487 -0.32784,1.23392 -0.21047,0.37906 -0.56259,0.76617 -1.05638,1.16134 -0.48569,0.38712 -1.14543,0.82666 -1.9792,1.31861 -0.77912,0.39014 -1.50584,0.87654 -2.26356,1.30651 h 5.90626 v 1.3307 h -8.47534 v -1.16134 l 3.8734,-2.34688 c 0.67997,-0.4113 1.21423,-0.76616 1.60278,-1.06456 0.39665,-0.30647 0.67997,-0.59277 0.84997,-0.85891 0.16999,-0.26614 0.25499,-0.54841 0.25499,-0.84681 0,-0.31453 -0.085,-0.5968 -0.25499,-0.84681 -0.17,-0.25 -0.42903,-0.4476 -0.77711,-0.59277 -0.33999,-0.14516 -0.77711,-0.21775 -1.31137,-0.21775 -0.60712,0 -1.10495,0.0888 -1.49351,0.26614 -0.38855,0.17743 -0.67996,0.41937 -0.87424,0.72584 -0.18618,0.2984 -0.29951,0.62906 -0.33999,0.99198 z m 14.49791,6.12123 c -0.99567,0 -1.85372,-0.19355 -2.57417,-0.58067 -0.72044,-0.39517 -1.27494,-0.94359 -1.66349,-1.64523 -0.38856,-0.7097 -0.58284,-1.53636 -0.58284,-2.47995 0,-0.94359 0.19428,-1.7662 0.58284,-2.46785 0.38855,-0.7097 0.94305,-1.25811 1.66349,-1.64523 0.72045,-0.39517 1.5785,-0.59277 2.57417,-0.59277 0.99567,0 1.84968,0.1976 2.56203,0.59277 0.72044,0.38712 1.27494,0.93553 1.6635,1.64523 0.38855,0.70165 0.58283,1.52426 0.58283,2.46785 0,0.94359 -0.19428,1.77025 -0.58283,2.47995 -0.38856,0.70164 -0.94306,1.25006 -1.6635,1.64523 -0.71235,0.38712 -1.56636,0.58067 -2.56203,0.58067 z m 0,-1.3186 c 1.01186,0 1.79706,-0.29437 2.35561,-0.8831 0.55855,-0.59681 0.83782,-1.43152 0.83782,-2.50415 0,-1.07262 -0.27927,-1.90331 -0.83782,-2.49204 -0.55855,-0.59681 -1.34375,-0.8952 -2.35561,-0.8952 -1.01186,0 -1.80111,0.29839 -2.36775,0.8952 -0.55855,0.58873 -0.83782,1.41942 -0.83782,2.49204 0,1.07263 0.27927,1.90734 0.83782,2.50415 0.56664,0.58873 1.35589,0.8831 2.36775,0.8831 z m 5.92545,-4.80263 c 0.0486,-0.66939 0.26308,-1.25006 0.64354,-1.74201 0.38855,-0.49195 0.90258,-0.87101 1.54207,-1.13715 0.6395,-0.2742 1.36804,-0.41131 2.18562,-0.41131 0.77711,0 1.45708,0.12098 2.03991,0.36292 0.59092,0.24195 1.04828,0.58067 1.37208,1.01618 0.33189,0.4355 0.49783,0.93955 0.49783,1.51216 0,0.44356 -0.10928,0.85487 -0.32784,1.23392 -0.21047,0.37906 -0.56259,0.76617 -1.05638,1.16134 -0.48569,0.38712 -1.14543,0.82666 -1.9792,1.31861 -0.77279,0.38274 -1.48736,0.87247 -2.23234,1.30651 h 5.87504 v 1.3307 h -8.47534 v -1.16134 l 3.8734,-2.34688 c 0.67997,-0.4113 1.21423,-0.76616 1.60278,-1.06456 0.39665,-0.30647 0.67997,-0.59277 0.84997,-0.85891 0.16999,-0.26614 0.25499,-0.54841 0.25499,-0.84681 0,-0.31453 -0.085,-0.5968 -0.25499,-0.84681 -0.17,-0.25 -0.42903,-0.4476 -0.77711,-0.59277 -0.33999,-0.14516 -0.77711,-0.21775 -1.31137,-0.21775 -0.60712,0 -1.10495,0.0888 -1.49351,0.26614 -0.38855,0.17743 -0.67997,0.41937 -0.87424,0.72584 -0.18618,0.2984 -0.29951,0.62906 -0.33999,0.99198 z m 9.76241,-0.32663 c 0.0567,-0.55647 0.25904,-1.0565 0.60711,-1.50006 0.35618,-0.45164 0.84997,-0.80648 1.48137,-1.06457 0.63949,-0.26614 1.40041,-0.39921 2.28275,-0.39921 0.7852,0 1.46517,0.1048 2.03991,0.31453 0.58283,0.20162 1.0321,0.48793 1.3478,0.85891 0.3157,0.36292 0.47355,0.79439 0.47355,1.29441 0,0.41937 -0.12548,0.79843 -0.37642,1.13715 -0.24284,0.33066 -0.61521,0.59277 -1.11709,0.78632 -1.54508,0.36431 -1.86015,0.0853 0.0364,0.26615 0.53426,0.1613 0.94305,0.4113 1.22637,0.75003 0.29142,0.33066 0.43712,0.73793 0.43712,1.22183 0,0.54034 -0.16594,1.02021 -0.49783,1.43957 -0.33189,0.41937 -0.81353,0.75004 -1.44493,0.99198 -0.62331,0.23389 -1.38828,0.35082 -2.2949,0.35082 -0.88234,0 -1.65136,-0.12505 -2.30704,-0.37501 -0.65569,-0.25808 -1.16971,-0.61696 -1.54207,-1.07666 -0.36427,-0.4597 -0.56665,-0.99602 -0.60712,-1.60894 h 1.61493 c 0.0729,0.56453 0.34808,1.00004 0.82567,1.30651 0.4776,0.29839 1.14948,0.4476 2.01563,0.4476 0.86615,0 1.51779,-0.14109 1.95491,-0.42341 0.43712,-0.28227 0.65569,-0.66939 0.65569,-1.16134 0,-0.29034 -0.0769,-0.53228 -0.23071,-0.72584 -0.14571,-0.20162 -0.3926,-0.35486 -0.74068,-0.4597 -0.33998,-0.10479 -0.80139,-0.15726 -1.38422,-0.15726 h -1.65136 v -1.18554 h 1.65136 c 0.75282,0 1.29922,-0.12097 1.63921,-0.36292 0.33998,-0.25 0.50998,-0.56857 0.50998,-0.95568 0,-0.42745 -0.19023,-0.76213 -0.57069,-1.00408 -0.37237,-0.24194 -0.9552,-0.36292 -1.7485,-0.36292 -0.7771,0 -1.39636,0.14517 -1.85777,0.43551 -0.45331,0.28227 -0.72449,0.68954 -0.81353,1.22182 z"
       id="text1"
       style="font-size:8px;font-family:Unbounded;-inkscape-font-specification:Unbounded;text-align:center;text-anchor:middle;display:inline;fill:#000000;stroke:none;stroke-width:0.151497;paint-order:stroke markers fill"
       aria-label="2023"
       sodipodi:nodetypes="cccsccsccccccccccssscsscccsccsccsccsccsscscscscscccsccsccccccccccssscssccccccsccscsccsscscccccsssccsccscscsccc"
       inkscape:label="2023" /></g></svg>
