<?xml version="1.0" encoding="UTF-8" standalone="no"?>
<svg
   width="136.95844"
   height="187.45641"
   viewBox="0 0 136.95843 187.45641"
   fill="none"
   version="1.1"
   id="svg28"
   sodipodi:docname="front_silkscreen.svg"
   inkscape:version="1.3 (0e150ed, 2023-07-21)"
   inkscape:export-filename="../Version4/back_silkscreen.png"
   inkscape:export-xdpi="280.73999"
   inkscape:export-ydpi="280.73999"
   xml:space="preserve"
   xmlns:inkscape="http://www.inkscape.org/namespaces/inkscape"
   xmlns:sodipodi="http://sodipodi.sourceforge.net/DTD/sodipodi-0.dtd"
   xmlns="http://www.w3.org/2000/svg"
   xmlns:svg="http://www.w3.org/2000/svg"><defs
     id="defs32" /><sodipodi:namedview
     id="namedview30"
     pagecolor="#ffffff"
     bordercolor="#000000"
     borderopacity="0.25"
     inkscape:showpageshadow="2"
     inkscape:pageopacity="0.0"
     inkscape:pagecheckerboard="0"
     inkscape:deskcolor="#d1d1d1"
     showgrid="false"
     inkscape:zoom="1.9465489"
     inkscape:cx="-26.713945"
     inkscape:cy="181.60345"
     inkscape:window-width="2432"
     inkscape:window-height="1302"
     inkscape:window-x="79"
     inkscape:window-y="25"
     inkscape:window-maximized="0"
     inkscape:current-layer="layer3" /><g
     inkscape:groupmode="layer"
     id="layer3"
     inkscape:label="Front Silk"
     style="display:inline;stroke:none"
     transform="translate(-0.03572749,0.11946489)"><path
       d="m 164.49925,189.5133 c 28.23087,-43.70224 35.36448,-104.339969 28.23087,-119.31038 -2.73202,-5.746218 -5.61582,-9.829057 -8.34784,-12.702167 -1.21423,-1.360946 -1.36601,-3.175541 -0.45534,-4.687704 9.4103,-14.819195 9.4103,-24.648252 6.67828,-30.696888 -0.45534,-1.058514 -1.06246,-1.965811 -1.97313,-2.721893 -0.75889,-0.756081 -1.82135,-1.512162 -2.73202,-1.965811 -6.07116,-2.570678 -15.93678,-2.721894 -30.81112,6.653516 -1.51779,0.907297 -3.49091,0.756081 -4.70514,-0.453649 -2.8838,-2.721893 -6.98183,-5.595002 -12.74943,-8.316896 -15.02611,-6.9559482 -76.041222,-1.5e-5 -119.753549,28.126212 -1.062452,0.756082 -1.669567,2.117028 -1.214231,3.326758 0.455337,1.20973 1.669568,2.117028 3.035578,1.965812 0.607116,0 54.792186,-2.873109 96.076042,6.351083 3.18736,0.756081 4.70515,4.536488 2.73202,7.258381 -4.24981,5.897435 -8.04428,11.794869 -11.68697,17.692304 -0.15178,0.151216 0.15177,0.302432 0.30355,0.302432 8.80318,-4.234055 14.87434,-3.931623 18.82059,-2.268244 0.91067,0.302433 1.51779,0.907298 2.27668,1.512163 0.60712,0.604865 1.21423,1.360946 1.51779,2.268244 1.66957,4.082839 1.97313,10.13149 -2.27668,18.750817 0,0.15122 0.15178,0.30243 0.30355,0.30243 5.91938,-3.629187 11.83876,-7.409594 17.75813,-11.64365 2.73202,-1.965811 6.52649,-0.604865 7.28539,2.721893 9.25851,41.130827 6.37471,95.266987 6.37471,95.720637 0,1.36096 0.7589,2.57068 1.97313,3.02433 1.21423,0.30243 2.58024,-0.15122 3.33914,-1.20973 z"
       fill="#ed2207"
       id="path2-0"
       style="display:inline;fill:#000000;fill-opacity:1;stroke:none;stroke-width:1.51497;stroke-opacity:1"
       inkscape:label="Big"
       inkscape:export-filename="../Version4/mask_2.svg"
       inkscape:export-xdpi="280.73999"
       inkscape:export-ydpi="280.73999" /></g></svg>
