<?xml version="1.0" encoding="UTF-8" standalone="no"?>
<!-- Created with Inkscape (http://www.inkscape.org/) -->

<svg
   width="210mm"
   height="297mm"
   viewBox="0 0 210 297"
   version="1.1"
   id="svg1"
   inkscape:version="1.3 (0e150ed, 2023-07-21)"
   sodipodi:docname="mask.svg"
   xmlns:inkscape="http://www.inkscape.org/namespaces/inkscape"
   xmlns:sodipodi="http://sodipodi.sourceforge.net/DTD/sodipodi-0.dtd"
   xmlns="http://www.w3.org/2000/svg"
   xmlns:svg="http://www.w3.org/2000/svg">
  <sodipodi:namedview
     id="namedview1"
     pagecolor="#ffffff"
     bordercolor="#000000"
     borderopacity="0.25"
     inkscape:showpageshadow="2"
     inkscape:pageopacity="0.0"
     inkscape:pagecheckerboard="0"
     inkscape:deskcolor="#d1d1d1"
     inkscape:document-units="mm"
     inkscape:zoom="0.91794631"
     inkscape:cx="397.08205"
     inkscape:cy="561.57968"
     inkscape:window-width="1392"
     inkscape:window-height="1212"
     inkscape:window-x="0"
     inkscape:window-y="25"
     inkscape:window-maximized="0"
     inkscape:current-layer="layer1" />
  <defs
     id="defs1" />
  <g
     inkscape:label="Layer 1"
     inkscape:groupmode="layer"
     id="layer1">
    <path
       d="m 114.55956,130.26555 c 7.68371,-11.56533 9.6253,-27.61247 7.68371,-31.574222 -0.74358,-1.520672 -1.52848,-2.601151 -2.27206,-3.361492 -0.33049,-0.360156 -0.3718,-0.840368 -0.12394,-1.240552 2.56124,-3.921741 2.56124,-6.522891 1.81765,-8.1236 -0.12392,-0.28013 -0.28916,-0.52023 -0.53702,-0.720323 -0.20654,-0.200092 -0.49572,-0.400175 -0.74359,-0.52023 -1.65241,-0.680304 -4.33759,-0.720323 -8.386,1.760783 -0.4131,0.240101 -0.95014,0.200092 -1.28062,-0.120056 -0.7849,-0.720322 -1.90028,-1.480653 -3.47007,-2.200976 -4.08973,-1.840819 -20.696473,-1e-5 -32.593849,7.443306 -0.289176,0.200083 -0.454413,0.560249 -0.330487,0.880387 0.123937,0.320138 0.454413,0.560248 0.826214,0.52023 0.165239,0 14.913033,-0.760341 26.149442,1.680746 0.86752,0.200092 1.28061,1.200534 0.74358,1.920857 -1.15668,1.56069 -2.189446,3.12138 -3.180887,4.682082 -0.04135,0.04 0.04125,0.08 0.08261,0.08 2.395997,-1.12049 4.048407,-1.04047 5.122477,-0.60026 0.24786,0.08 0.4131,0.2401 0.61966,0.40017 0.16524,0.16008 0.33047,0.36016 0.4131,0.60027 0.45441,1.08048 0.53704,2.68119 -0.61966,4.9622 0,0.04 0.0414,0.08 0.0826,0.08 1.61111,-0.96043 3.22221,-1.96087 4.83331,-3.08138 0.74358,-0.52023 1.77634,-0.16006 1.98289,0.72033 2.51994,10.88483 1.73504,25.21139 1.73504,25.33145 0,0.36016 0.20655,0.6803 0.53703,0.80035 0.33048,0.08 0.70229,-0.04 0.90884,-0.32014 z"
       fill="#ed2207"
       id="path2-0"
       style="display:inline;fill:#000000;fill-opacity:1;stroke:none;stroke-width:0.406588;stroke-opacity:1"
       inkscape:label="Big" />
  </g>
</svg>
