<?xml version="1.0" encoding="UTF-8" standalone="no"?>
<svg
   width="136.78218"
   height="187.17728"
   viewBox="0 0 136.78218 187.17728"
   fill="none"
   version="1.1"
   id="svg28"
   sodipodi:docname="Edge Cut.svg"
   inkscape:version="1.3 (0e150ed, 2023-07-21)"
   inkscape:export-filename="Version4/edge_cuts.svg"
   inkscape:export-xdpi="185"
   inkscape:export-ydpi="185"
   xml:space="preserve"
   xmlns:inkscape="http://www.inkscape.org/namespaces/inkscape"
   xmlns:sodipodi="http://sodipodi.sourceforge.net/DTD/sodipodi-0.dtd"
   xmlns="http://www.w3.org/2000/svg"
   xmlns:svg="http://www.w3.org/2000/svg"><defs
     id="defs32"><inkscape:path-effect
       effect="fillet_chamfer"
       id="path-effect2"
       is_visible="true"
       lpeversion="1"
       nodesatellites_param="F,0,0,1,0,8.0934265,0,1 @ F,0,0,1,0,7.2895428,0,1 @ F,0,0,1,0,8.4537078,0,1 @ F,0,0,1,0,4.6845359,0,1 @ F,0,0,1,0,0,0,1 @ F,0,0,1,0,0,0,1 @ F,0,0,1,0,0,0,1 @ F,0,0,1,0,0,0,1 @ F,0,0,1,0,0,0,1 @ F,0,0,1,0,0,0,1 @ F,0,0,1,0,0,0,1 @ F,0,0,1,0,0,0,1 @ F,0,0,1,0,0,0,1 @ F,0,0,1,0,0,0,1 @ F,0,0,1,0,0,0,1 @ F,0,0,1,0,0,0,1 @ F,0,0,1,0,0,0,1 @ F,0,0,1,0,0,0,1 @ F,0,0,1,0,0,0,1 @ F,0,0,1,0,0,0,1 @ F,0,0,1,0,0,0,1 @ F,0,0,1,0,0,0,1 @ F,0,0,1,0,0,0,1 @ F,0,0,1,0,0,0,1 @ F,0,0,1,0,0,0,1 @ F,0,0,1,0,0,0,1 @ F,0,0,1,0,0,0,1 @ F,0,0,1,0,0,0,1 @ F,0,0,1,0,0,0,1 @ F,0,0,1,0,0,0,1 @ F,0,0,1,0,0,0,1 @ F,0,0,1,0,0,0,1 @ F,0,0,1,0,0,0,1 @ F,0,0,1,0,0,0,1 @ F,0,0,1,0,0,0,1 @ F,0,0,1,0,0,0,1 @ F,0,0,1,0,0,0,1 @ F,0,0,1,0,0,0,1 @ F,0,0,1,0,0,0,1 @ F,0,0,1,0,0,0,1 @ F,0,0,1,0,0,0,1 @ F,0,0,1,0,0,0,1 @ F,0,0,1,0,0,0,1 @ F,0,0,1,0,0,0,1"
       radius="0"
       unit="px"
       method="auto"
       mode="F"
       chamfer_steps="1"
       flexible="false"
       use_knot_distance="true"
       apply_no_radius="true"
       apply_with_radius="true"
       only_selected="false"
       hide_knots="false" /><inkscape:path-effect
       effect="fillet_chamfer"
       id="path-effect2-1"
       is_visible="true"
       lpeversion="1"
       nodesatellites_param="F,0,0,1,0,8.0934265,0,1 @ F,0,0,1,0,7.2895428,0,1 @ F,0,0,1,0,8.4537078,0,1 @ F,0,0,1,0,4.6845359,0,1 @ F,0,0,1,0,0,0,1 @ F,0,0,1,0,0,0,1 @ F,0,0,1,0,0,0,1 @ F,0,0,1,0,0,0,1 @ F,0,0,1,0,0,0,1 @ F,0,0,1,0,0,0,1 @ F,0,0,1,0,0,0,1 @ F,0,0,1,0,0,0,1 @ F,0,0,1,0,0,0,1 @ F,0,0,1,0,0,0,1 @ F,0,0,1,0,0,0,1 @ F,0,0,1,0,0,0,1 @ F,0,0,1,0,0,0,1 @ F,0,0,1,0,0,0,1 @ F,0,0,1,0,0,0,1 @ F,0,0,1,0,0,0,1 @ F,0,0,1,0,0,0,1 @ F,0,0,1,0,0,0,1 @ F,0,0,1,0,0,0,1 @ F,0,0,1,0,0,0,1 @ F,0,0,1,0,0,0,1 @ F,0,0,1,0,0,0,1 @ F,0,0,1,0,0,0,1 @ F,0,0,1,0,0,0,1 @ F,0,0,1,0,0,0,1 @ F,0,0,1,0,0,0,1 @ F,0,0,1,0,0,0,1 @ F,0,0,1,0,0,0,1 @ F,0,0,1,0,0,0,1 @ F,0,0,1,0,0,0,1 @ F,0,0,1,0,0,0,1 @ F,0,0,1,0,0,0,1 @ F,0,0,1,0,0,0,1 @ F,0,0,1,0,0,0,1 @ F,0,0,1,0,0,0,1 @ F,0,0,1,0,0,0,1 @ F,0,0,1,0,0,0,1 @ F,0,0,1,0,0,0,1 @ F,0,0,1,0,0,0,1 @ F,0,0,1,0,0,0,1"
       radius="0"
       unit="px"
       method="auto"
       mode="F"
       chamfer_steps="1"
       flexible="false"
       use_knot_distance="true"
       apply_no_radius="true"
       apply_with_radius="true"
       only_selected="false"
       hide_knots="false" /></defs><sodipodi:namedview
     id="namedview30"
     pagecolor="#ffffff"
     bordercolor="#000000"
     borderopacity="0.25"
     inkscape:showpageshadow="2"
     inkscape:pageopacity="0.0"
     inkscape:pagecheckerboard="0"
     inkscape:deskcolor="#d1d1d1"
     showgrid="false"
     inkscape:zoom="1.1173109"
     inkscape:cx="130.67089"
     inkscape:cy="305.19707"
     inkscape:window-width="1728"
     inkscape:window-height="969"
     inkscape:window-x="0"
     inkscape:window-y="38"
     inkscape:window-maximized="0"
     inkscape:current-layer="layer2" /><g
     inkscape:groupmode="layer"
     id="layer2"
     inkscape:label="Edge Cut"
     style="display:inline"><g
       id="g2"
       inkscape:export-filename="Version4/g2.svg"
       inkscape:export-xdpi="185"
       inkscape:export-ydpi="185"
       transform="matrix(1.5104523,0,0,1.5144176,-0.0416616,0.02499987)"><path
         style="fill:none;fill-opacity:1;stroke:#050505;stroke-opacity:1;paint-order:stroke markers fill"
         d="m 49.186657,137.07736 c 0.06057,13.03942 0.121147,29.4023 0.181721,42.3015 0.0189,4.02585 3.30009,7.2899 7.325994,7.29047 l 54.715958,0.008 a 8.4410616,8.4410616 134.96524 0 0 8.44225,-8.4525 l -0.0603,-44.49448 a 4.7474054,4.7474054 45.304261 0 0 -4.69055,-4.74063 l 0,0 c 1.39867,-2.01553 2.5479,-4.25189 3.81043,-6.41294 8.28444,-15.20436 13.4967,-31.976728 16.13672,-49.056639 1.14637,-7.897997 1.73098,-15.958992 0.69727,-23.902343 -0.63414,-4.178521 -2.34821,-8.128179 -4.66797,-11.640625 -0.47243,-0.742754 -0.97562,-1.465954 -1.48242,-2.185547 3.00283,-5.591822 5.1504,-11.923596 4.53125,-18.347657 -0.45475,-4.77446 -2.75581,-9.611732 -6.94141,-12.179687 C 122.43168,2.281737 116.45736,2.033869 111.09967,3.222656 107.54536,4.007852 104.1761,5.457507 100.97272,7.162109 96.575096,3.986334 91.538446,1.427338 86.070376,0.896484 c -2.81249,-0.379093 -5.65485,-0.415161 -8.48828,-0.390625 -15.71587,0.420471 -31.22736,3.986483 -45.95313,9.375 -8.66997,3.260121 -17.11073,7.248053 -24.832031,12.388672 -4.507826,2.823284 -5.602164,9.627493 -2.435547,13.839844 1.903389,2.655368 5.138683,4.143978 8.373047,4.164063 1.835841,-0.05903 3.671171,-0.203345 5.511721,-0.207032 6.89751,-0.163743 13.8186,-0.124658 20.66406,0.144532 9.37861,0.380226 18.75648,1.12659 28.02539,2.640625 -1.64366,2.540992 -3.25313,5.10275 -4.85547,7.669921 -0.347356,0.511853 -0.813939,1.134549 -0.993049,1.027328 -2.47055,-1.406604 -4.345001,-1.7423 -7.184681,-1.992171 -7.45589,-0.706457 -14.94238,0.474154 -22.20117,2.121093 -9.74471,2.333507 -19.251576,6.030081 -27.625004,11.585938 -3.404516,2.469444 -4.519889,7.424672 -2.708984,11.183594 1.424587,3.219416 4.915333,5.229086 8.394531,5.156246 2.750105,0.0297 5.494497,-0.20473 8.246097,-0.14257 6.37088,-0.0146 12.74672,0.29683 19.08007,0.99414 -1.0546,1.79886 -2.0856,3.61159 -3.08203,5.44336 -4.40226,2.79771 -8.96638,5.35493 -13.24218,8.34375 -3.98579,3.34068 -3.97689,10.180718 -0.0898,13.593748 1.56511,1.46151 3.6692,2.23631 5.77735,2.41015 0.29665,4.37485 3.91383,8.41186 8.35937,8.75391 3.87459,0.36419 7.6779,-2.01401 9.40039,-5.44141 2.11935,-3.55517 4.33238,-7.07527 6.53906,-10.64648 0.55062,-0.5677 1.40119,-0.81737 2.07032,-1.26172 1.16256,-0.65547 2.32234,-1.31686 3.47461,-1.990238 0.3788,3.492888 0.66281,7.128058 0.82812,10.712888 0.0306,0.88695 0.0805,2.06239 0.0957,3.06055 0.16912,4.94918 -0.0855,10.52638 0.02093,15.51154 -4.469861,0.0215 -8.073893,3.6624 -8.053129,8.13223 z"
         id="path24270"
         sodipodi:nodetypes="ccccccccccccccccccccccccccccccccccccccccccccc"
         inkscape:path-effect="#path-effect2"
         inkscape:original-d="m 49.146453,128.98403 c 0.08612,15.97657 0.172251,41.7077 0.258376,57.68427 l 70.459211,0.01 -0.0781,-57.63271 -4.6842,-0.0561 c 1.39867,-2.01553 2.5479,-4.25189 3.81043,-6.41294 8.28444,-15.20436 13.4967,-31.976728 16.13672,-49.056639 1.14637,-7.897997 1.73098,-15.958992 0.69727,-23.902343 -0.63414,-4.178521 -2.34821,-8.128179 -4.66797,-11.640625 -0.47243,-0.742754 -0.97562,-1.465954 -1.48242,-2.185547 3.00283,-5.591822 5.1504,-11.923596 4.53125,-18.347657 -0.45475,-4.77446 -2.75581,-9.611732 -6.94141,-12.179687 C 122.43168,2.281737 116.45736,2.033869 111.09967,3.222656 107.54536,4.007852 104.1761,5.457507 100.97272,7.162109 96.575096,3.986334 91.538446,1.427338 86.070376,0.896484 c -2.81249,-0.379093 -5.65485,-0.415161 -8.48828,-0.390625 -15.71587,0.420471 -31.22736,3.986483 -45.95313,9.375 -8.66997,3.260121 -17.11073,7.248053 -24.832031,12.388672 -4.507826,2.823284 -5.602164,9.627493 -2.435547,13.839844 1.903389,2.655368 5.138683,4.143978 8.373047,4.164063 1.835841,-0.05903 3.671171,-0.203345 5.511721,-0.207032 6.89751,-0.163743 13.8186,-0.124658 20.66406,0.144532 9.37861,0.380226 18.75648,1.12659 28.02539,2.640625 -1.64366,2.540992 -3.25313,5.10275 -4.85547,7.669921 -0.347356,0.511853 -0.813939,1.134549 -0.993049,1.027328 -2.47055,-1.406604 -4.345001,-1.7423 -7.184681,-1.992171 -7.45589,-0.706457 -14.94238,0.474154 -22.20117,2.121093 -9.74471,2.333507 -19.251576,6.030081 -27.625004,11.585938 -3.404516,2.469444 -4.519889,7.424672 -2.708984,11.183594 1.424587,3.219416 4.915333,5.229086 8.394531,5.156246 2.750105,0.0297 5.494497,-0.20473 8.246097,-0.14257 6.37088,-0.0146 12.74672,0.29683 19.08007,0.99414 -1.0546,1.79886 -2.0856,3.61159 -3.08203,5.44336 -4.40226,2.79771 -8.96638,5.35493 -13.24218,8.34375 -3.98579,3.34068 -3.97689,10.180718 -0.0898,13.593748 1.56511,1.46151 3.6692,2.23631 5.77735,2.41015 0.29665,4.37485 3.91383,8.41186 8.35937,8.75391 3.87459,0.36419 7.6779,-2.01401 9.40039,-5.44141 2.11935,-3.55517 4.33238,-7.07527 6.53906,-10.64648 0.55062,-0.5677 1.40119,-0.81737 2.07032,-1.26172 1.16256,-0.65547 2.32234,-1.31686 3.47461,-1.990238 0.3788,3.492888 0.66281,7.128058 0.82812,10.712888 0.0306,0.88695 0.0805,2.06239 0.0957,3.06055 0.16912,4.94918 -0.0855,10.52638 0.02093,15.51154 z"
         transform="translate(-7.4188659e-4,1.7826918e-4)"
         inkscape:label="path24270" /><path
         style="fill:#ff0000;fill-opacity:1;stroke:none;paint-order:stroke markers fill"
         d="m 57.050832,128.31687 -6.317129,-0.19741"
         id="path24272" /><path
         style="fill:none;fill-opacity:1;stroke:#050505;stroke-opacity:1;paint-order:stroke markers fill"
         d="m 97.66943,128.97569 c -0.508636,-1.08547 -0.947946,-2.36222 -1.101756,-3.68059 -0.17765,-2.12181 0.0906,-4.25277 0.0996,-6.37891 0.1163,-4.97854 0.15182,-10.19558 0.0312,-15.26562 -0.05649,-3.10774 -0.1828,-6.32522 -0.33593,-9.50195 -0.37277,-8.14502 -1.21328,-16.34649 -2.45899,-24.330083 -2.40771,1.535152 -4.82407,3.058274 -7.25976,4.548829 -0.592547,0.454024 -1.392341,0.578284 -1.21818,1.967533 0.38252,0.727476 -0.02942,0.04357 0.27872,0.805901 1.56687,3.97597 1.74553,8.34684 1.54297,12.57032 -0.91498,13.75839 -4.85785,27.34996 -11.621144,39.16073 z"
         id="path24478"
         sodipodi:nodetypes="cccccccccccc"
         inkscape:label="path24478" /></g></g></svg>
