<svg xmlns:inkscape="http://www.inkscape.org/namespaces/inkscape" xmlns:sodipodi="http://sodipodi.sourceforge.net/DTD/sodipodi-0.dtd" xmlns="http://www.w3.org/2000/svg" xmlns:svg="http://www.w3.org/2000/svg" width="136.78218" height="187.17728" viewBox="0 0 136.78218 187.17728" fill="none" version="1.1" id="svg28" sodipodi:docname="complete_layers.tar" inkscape:version="1.3 (0e150ed, 2023-07-21)" inkscape:export-filename="Version4/edge_cuts.svg" inkscape:export-xdpi="185" inkscape:export-ydpi="185" xml:space="preserve"><defs id="defs32"><inkscape:path-effect effect="fillet_chamfer" id="path-effect2" is_visible="true" lpeversion="1" nodesatellites_param="F,0,0,1,0,8.0934265,0,1 @ F,0,0,1,0,7.2895428,0,1 @ F,0,0,1,0,8.4537078,0,1 @ F,0,0,1,0,4.6845359,0,1 @ F,0,0,1,0,0,0,1 @ F,0,0,1,0,0,0,1 @ F,0,0,1,0,0,0,1 @ F,0,0,1,0,0,0,1 @ F,0,0,1,0,0,0,1 @ F,0,0,1,0,0,0,1 @ F,0,0,1,0,0,0,1 @ F,0,0,1,0,0,0,1 @ F,0,0,1,0,0,0,1 @ F,0,0,1,0,0,0,1 @ F,0,0,1,0,0,0,1 @ F,0,0,1,0,0,0,1 @ F,0,0,1,0,0,0,1 @ F,0,0,1,0,0,0,1 @ F,0,0,1,0,0,0,1 @ F,0,0,1,0,0,0,1 @ F,0,0,1,0,0,0,1 @ F,0,0,1,0,0,0,1 @ F,0,0,1,0,0,0,1 @ F,0,0,1,0,0,0,1 @ F,0,0,1,0,0,0,1 @ F,0,0,1,0,0,0,1 @ F,0,0,1,0,0,0,1 @ F,0,0,1,0,0,0,1 @ F,0,0,1,0,0,0,1 @ F,0,0,1,0,0,0,1 @ F,0,0,1,0,0,0,1 @ F,0,0,1,0,0,0,1 @ F,0,0,1,0,0,0,1 @ F,0,0,1,0,0,0,1 @ F,0,0,1,0,0,0,1 @ F,0,0,1,0,0,0,1 @ F,0,0,1,0,0,0,1 @ F,0,0,1,0,0,0,1 @ F,0,0,1,0,0,0,1 @ F,0,0,1,0,0,0,1 @ F,0,0,1,0,0,0,1 @ F,0,0,1,0,0,0,1 @ F,0,0,1,0,0,0,1 @ F,0,0,1,0,0,0,1" radius="0" unit="px" method="auto" mode="F" chamfer_steps="1" flexible="false" use_knot_distance="true" apply_no_radius="true" apply_with_radius="true" only_selected="false" hide_knots="false"/><inkscape:path-effect effect="fillet_chamfer" id="path-effect2-1" is_visible="true" lpeversion="1" nodesatellites_param="F,0,0,1,0,8.0934265,0,1 @ F,0,0,1,0,7.2895428,0,1 @ F,0,0,1,0,8.4537078,0,1 @ F,0,0,1,0,4.6845359,0,1 @ F,0,0,1,0,0,0,1 @ F,0,0,1,0,0,0,1 @ F,0,0,1,0,0,0,1 @ F,0,0,1,0,0,0,1 @ F,0,0,1,0,0,0,1 @ F,0,0,1,0,0,0,1 @ F,0,0,1,0,0,0,1 @ F,0,0,1,0,0,0,1 @ F,0,0,1,0,0,0,1 @ F,0,0,1,0,0,0,1 @ F,0,0,1,0,0,0,1 @ F,0,0,1,0,0,0,1 @ F,0,0,1,0,0,0,1 @ F,0,0,1,0,0,0,1 @ F,0,0,1,0,0,0,1 @ F,0,0,1,0,0,0,1 @ F,0,0,1,0,0,0,1 @ F,0,0,1,0,0,0,1 @ F,0,0,1,0,0,0,1 @ F,0,0,1,0,0,0,1 @ F,0,0,1,0,0,0,1 @ F,0,0,1,0,0,0,1 @ F,0,0,1,0,0,0,1 @ F,0,0,1,0,0,0,1 @ F,0,0,1,0,0,0,1 @ F,0,0,1,0,0,0,1 @ F,0,0,1,0,0,0,1 @ F,0,0,1,0,0,0,1 @ F,0,0,1,0,0,0,1 @ F,0,0,1,0,0,0,1 @ F,0,0,1,0,0,0,1 @ F,0,0,1,0,0,0,1 @ F,0,0,1,0,0,0,1 @ F,0,0,1,0,0,0,1 @ F,0,0,1,0,0,0,1 @ F,0,0,1,0,0,0,1 @ F,0,0,1,0,0,0,1 @ F,0,0,1,0,0,0,1 @ F,0,0,1,0,0,0,1 @ F,0,0,1,0,0,0,1" radius="0" unit="px" method="auto" mode="F" chamfer_steps="1" flexible="false" use_knot_distance="true" apply_no_radius="true" apply_with_radius="true" only_selected="false" hide_knots="false"/></defs><sodipodi:namedview id="namedview30" pagecolor="#ffffff" bordercolor="#000000" borderopacity="0.25" inkscape:showpageshadow="2" inkscape:pageopacity="0.0" inkscape:pagecheckerboard="0" inkscape:deskcolor="#d1d1d1" showgrid="false" inkscape:zoom="5.0233237" inkscape:cx="66.290771" inkscape:cy="89.283515" inkscape:window-width="1728" inkscape:window-height="1080" inkscape:window-x="0" inkscape:window-y="37" inkscape:window-maximized="0" inkscape:current-layer="layer2"/><g style="display:inline;fill:none" id="g1" transform="translate(7.214608,7.8095231)" inkscape:label="Birbs"><path d="m 100.02514,117.35723 c 18.6,-28.900497 23.3,-69.000499 18.6,-78.900499 -1.8,-3.8 -3.7,-6.5 -5.5,-8.4 -0.8,-0.9 -0.9,-2.1 -0.3,-3.1 6.2,-9.8 6.2,-16.3 4.4,-20.2999905 -0.3,-0.7 -0.7,-1.3 -1.3,-1.8 -0.5,-0.5 -1.2,-1 -1.8,-1.3 -4,-1.7 -10.5,-1.8 -20.3,4.4 -1,0.6 -2.3,0.5 -3.1,-0.3 -1.9,-1.8 -4.6,-3.7 -8.4,-5.5 -9.9,-4.6 -50.1,-1e-5 -78.9000021,18.5999905 -0.7,0.5 -1.1,1.4 -0.8,2.2 0.3,0.8 1.1,1.4 2,1.3 0.4,0 36.1000021,-1.9 63.3000021,4.2 2.1,0.5 3.1,3 1.8,4.8 -2.8,3.9 -5.3,7.8 -7.7,11.7 -0.1,0.1 0.1,0.2 0.2,0.2 5.8,-2.8 9.8,-2.6 12.4,-1.5 0.6,0.2 1,0.6 1.5,1 0.4,0.4 0.8,0.9 1,1.5 1.1,2.7 1.3,6.7 -1.5,12.4 0,0.1 0.1,0.2 0.2,0.2 3.9,-2.4 7.8,-4.9 11.7,-7.7 1.8,-1.3 4.3,-0.4 4.8,1.8 6.1,27.200002 4.2,63.000499 4.2,63.300499 0,0.9 0.5,1.7 1.3,2 0.8,0.2 1.7,-0.1 2.2,-0.8 z" fill="#ed2207" id="path2" style="fill:#000000;fill-opacity:1;stroke:#000000;stroke-opacity:1" inkscape:label="Big"/><path d="m 59.12514,119.65723 c 11.2,-17.4 14,-41.500497 11.2,-47.500497 -1,-2.2 -2.2,-3.9 -3.3,-5 -0.5,-0.5 -0.6,-1.3 -0.2,-1.9 3.7,-5.900002 3.7,-9.700002 2.7,-12.100002 -0.2,-0.4 -0.5,-0.8 -0.8,-1.2 -0.3,-0.3 -0.7,-0.6 -1.2,-0.8 -2.4,-1 -6.3,-1 -12.1,2.7 -0.6,0.4 -1.4,0.3 -1.9,-0.2 -1.2,-1.1 -2.8,-2.2 -5,-3.3 -6,-2.8 -30.1,0 -47.5000021,11.200002 -0.39999995,0.3 -0.59999995,0.8 -0.49999995,1.3 0.2,0.5 0.59999995,0.8 1.19999995,0.8 0.2,0 21.7000021,-1.2 38.1000021,2.5 1.3,0.3 1.9,1.8 1.1,2.9 -3.3,4.5 -5.9,8.9 -8.4,13.7 -0.3,0.5 -0.7,1 -1.2,1.3 l -13,8 c -0.5,0.3 -0.7,0.9 -0.5,1.5 0.2,0.5 0.8,0.8 1.4,0.7 l 12.3,-5.6 c 0.2,-0.1 0.4,0 0.5,0.1 0.1,0.1 0.2,0.3 0.1,0.5 l -5.6,12.300497 c -0.1,0.6 0.2,1.1 0.7,1.4 0.5,0.2 1.2,0 1.5,-0.5 l 8,-13.000497 c 0.3,-0.5 0.8,-0.9 1.3,-1.2 4.8,-2.5 9.2,-5.1 13.7,-8.4 1.1,-0.8 2.6,-0.2 2.9,1.1 3.7,16.4 2.5,37.900497 2.5,38.100497 0,0.5 0.3,1 0.8,1.2 0.4,0.1 1,-0.1 1.2,-0.6 z" fill="#000000" id="path4" style="fill:#000000;fill-opacity:1;stroke:#000000;stroke-opacity:1" inkscape:label="Smol"/></g><g inkscape:groupmode="layer" id="layer1" inkscape:label="Label" style="display:inline"><text xml:space="preserve" style="font-style:normal;font-variant:normal;font-weight:normal;font-stretch:normal;font-size:5.33333px;font-family:sans-serif;-inkscape-font-specification:sans-serif;fill:#000000;fill-opacity:0.959494;stroke:none;stroke-width:16.2;paint-order:stroke markers fill" x="62.110271" y="183.54381" id="text2" inkscape:label="SwiftLeeds 2023"><tspan sodipodi:role="line" id="tspan2" x="62.110271" y="183.54381" style="font-size:5.33333px">SwiftLeeds 2023</tspan></text></g></svg>