G04 #@! TF.GenerationSoftware,KiCad,Pcbnew,(6.0.10-0)*
G04 #@! TF.CreationDate,2023-09-19T21:44:43+02:00*
G04 #@! TF.ProjectId,SwiftLeeds,53776966-744c-4656-9564-732e6b696361,rev?*
G04 #@! TF.SameCoordinates,Original*
G04 #@! TF.FileFunction,Profile,NP*
%FSLAX46Y46*%
G04 Gerber Fmt 4.6, Leading zero omitted, Abs format (unit mm)*
G04 Created by KiCad (PCBNEW (6.0.10-0)) date 2023-09-19 21:44:43*
%MOMM*%
%LPD*%
G01*
G04 APERTURE LIST*
G04 #@! TA.AperFunction,Profile*
%ADD10C,0.052916*%
G04 #@! TD*
G04 APERTURE END LIST*
D10*
X145466419Y-40459428D02*
X145466084Y-40459482D01*
X145466419Y-40459428D02*
X145466419Y-40459428D01*
X145737223Y-40458685D02*
X145466419Y-40459428D01*
X145872620Y-40458901D02*
X145737223Y-40458685D01*
X146008015Y-40460122D02*
X145872620Y-40458901D01*
X146008015Y-40460122D02*
X146008015Y-40460122D01*
X146557761Y-40454779D02*
X146008015Y-40460122D01*
X147106252Y-40473331D02*
X146557761Y-40454779D01*
X147652706Y-40515412D02*
X147106252Y-40473331D01*
X148196344Y-40580658D02*
X147652706Y-40515412D01*
X148736386Y-40668702D02*
X148196344Y-40580658D01*
X149272053Y-40779180D02*
X148736386Y-40668702D01*
X149802564Y-40911727D02*
X149272053Y-40779180D01*
X150327139Y-41065977D02*
X149802564Y-40911727D01*
X150844999Y-41241564D02*
X150327139Y-41065977D01*
X151355364Y-41438124D02*
X150844999Y-41241564D01*
X151857454Y-41655292D02*
X151355364Y-41438124D01*
X152350489Y-41892701D02*
X151857454Y-41655292D01*
X152833689Y-42149987D02*
X152350489Y-41892701D01*
X153306274Y-42426785D02*
X152833689Y-42149987D01*
X153767464Y-42722729D02*
X153306274Y-42426785D01*
X154216480Y-43037454D02*
X153767464Y-42722729D01*
X154216480Y-43037454D02*
X154216480Y-43037454D01*
X154643567Y-42822611D02*
X154216480Y-43037454D01*
X155076967Y-42616921D02*
X154643567Y-42822611D01*
X155516306Y-42421478D02*
X155076967Y-42616921D01*
X155961207Y-42237373D02*
X155516306Y-42421478D01*
X156411292Y-42065701D02*
X155961207Y-42237373D01*
X156866186Y-41907554D02*
X156411292Y-42065701D01*
X157325512Y-41764024D02*
X156866186Y-41907554D01*
X157788893Y-41636205D02*
X157325512Y-41764024D01*
X158255953Y-41525190D02*
X157788893Y-41636205D01*
X158726315Y-41432071D02*
X158255953Y-41525190D01*
X159199602Y-41357941D02*
X158726315Y-41432071D01*
X159675439Y-41303893D02*
X159199602Y-41357941D01*
X160153448Y-41271020D02*
X159675439Y-41303893D01*
X160633253Y-41260415D02*
X160153448Y-41271020D01*
X161114477Y-41273171D02*
X160633253Y-41260415D01*
X161596745Y-41310380D02*
X161114477Y-41273171D01*
X161596745Y-41310380D02*
X161596745Y-41310380D01*
X161830110Y-41331885D02*
X161596745Y-41310380D01*
X162062644Y-41361534D02*
X161830110Y-41331885D01*
X162294075Y-41399219D02*
X162062644Y-41361534D01*
X162524131Y-41444830D02*
X162294075Y-41399219D01*
X162979037Y-41559391D02*
X162524131Y-41444830D01*
X163425193Y-41704340D02*
X162979037Y-41559391D01*
X163860430Y-41878800D02*
X163425193Y-41704340D01*
X164282578Y-42081894D02*
X163860430Y-41878800D01*
X164689468Y-42312744D02*
X164282578Y-42081894D01*
X164886514Y-42438303D02*
X164689468Y-42312744D01*
X165078932Y-42570473D02*
X164886514Y-42438303D01*
X165266451Y-42709143D02*
X165078932Y-42570473D01*
X165448800Y-42854204D02*
X165266451Y-42709143D01*
X165625708Y-43005546D02*
X165448800Y-42854204D01*
X165796904Y-43163060D02*
X165625708Y-43005546D01*
X165962116Y-43326636D02*
X165796904Y-43163060D01*
X166121073Y-43496163D02*
X165962116Y-43326636D01*
X166273505Y-43671534D02*
X166121073Y-43496163D01*
X166419140Y-43852637D02*
X166273505Y-43671534D01*
X166557707Y-44039364D02*
X166419140Y-43852637D01*
X166688934Y-44231604D02*
X166557707Y-44039364D01*
X166812552Y-44429248D02*
X166688934Y-44231604D01*
X166928288Y-44632187D02*
X166812552Y-44429248D01*
X167035872Y-44840310D02*
X166928288Y-44632187D01*
X167135031Y-45053508D02*
X167035872Y-44840310D01*
X167225496Y-45271672D02*
X167135031Y-45053508D01*
X167306996Y-45494691D02*
X167225496Y-45271672D01*
X167306996Y-45494691D02*
X167306996Y-45494691D01*
X167495083Y-46078328D02*
X167306996Y-45494691D01*
X167635408Y-46667565D02*
X167495083Y-46078328D01*
X167730536Y-47261154D02*
X167635408Y-46667565D01*
X167783032Y-47857848D02*
X167730536Y-47261154D01*
X167795460Y-48456400D02*
X167783032Y-47857848D01*
X167770387Y-49055563D02*
X167795460Y-48456400D01*
X167710376Y-49654089D02*
X167770387Y-49055563D01*
X167617993Y-50250732D02*
X167710376Y-49654089D01*
X167495802Y-50844244D02*
X167617993Y-50250732D01*
X167346368Y-51433378D02*
X167495802Y-50844244D01*
X167172257Y-52016886D02*
X167346368Y-51433378D01*
X166976032Y-52593522D02*
X167172257Y-52016886D01*
X166760260Y-53162039D02*
X166976032Y-52593522D01*
X166527505Y-53721188D02*
X166760260Y-53162039D01*
X166280332Y-54269724D02*
X166527505Y-53721188D01*
X166021305Y-54806398D02*
X166280332Y-54269724D01*
X166021305Y-54806398D02*
X166021305Y-54806398D01*
X166272746Y-55161502D02*
X166021305Y-54806398D01*
X166513452Y-55523993D02*
X166272746Y-55161502D01*
X166742965Y-55893567D02*
X166513452Y-55523993D01*
X166960830Y-56269922D02*
X166742965Y-55893567D01*
X167166591Y-56652756D02*
X166960830Y-56269922D01*
X167359791Y-57041766D02*
X167166591Y-56652756D01*
X167539975Y-57436651D02*
X167359791Y-57041766D01*
X167706684Y-57837107D02*
X167539975Y-57436651D01*
X167859465Y-58242833D02*
X167706684Y-57837107D01*
X167997859Y-58653525D02*
X167859465Y-58242833D01*
X168121411Y-59068883D02*
X167997859Y-58653525D01*
X168229665Y-59488602D02*
X168121411Y-59068883D01*
X168322163Y-59912382D02*
X168229665Y-59488602D01*
X168398451Y-60339919D02*
X168322163Y-59912382D01*
X168458072Y-60770911D02*
X168398451Y-60339919D01*
X168500569Y-61205057D02*
X168458072Y-60770911D01*
X168500569Y-61205057D02*
X168500569Y-61205057D01*
X168570250Y-62177301D02*
X168500569Y-61205057D01*
X168608780Y-63149582D02*
X168570250Y-62177301D01*
X168617727Y-64121608D02*
X168608780Y-63149582D01*
X168598656Y-65093084D02*
X168617727Y-64121608D01*
X168553135Y-66063718D02*
X168598656Y-65093084D01*
X168482732Y-67033218D02*
X168553135Y-66063718D01*
X168389012Y-68001290D02*
X168482732Y-67033218D01*
X168273543Y-68967642D02*
X168389012Y-68001290D01*
X167983625Y-70894013D02*
X168273543Y-68967642D01*
X167625514Y-72809987D02*
X167983625Y-70894013D01*
X167211746Y-74713221D02*
X167625514Y-72809987D01*
X166754856Y-76601373D02*
X167211746Y-74713221D01*
X166754856Y-76601373D02*
X166754856Y-76601373D01*
X166489793Y-77603173D02*
X166754856Y-76601373D01*
X166205185Y-78599102D02*
X166489793Y-77603173D01*
X165579023Y-80572801D02*
X166205185Y-78599102D01*
X164879734Y-82521388D02*
X165579023Y-80572801D01*
X164110686Y-84443780D02*
X164879734Y-82521388D01*
X163275242Y-86338894D02*
X164110686Y-84443780D01*
X162376768Y-88205646D02*
X163275242Y-86338894D01*
X161418630Y-90042953D02*
X162376768Y-88205646D01*
X160404194Y-91849733D02*
X161418630Y-90042953D01*
X160404194Y-91849733D02*
X160404194Y-91849733D01*
X160535290Y-91910213D02*
X160404194Y-91849733D01*
X160663067Y-91976233D02*
X160535290Y-91910213D01*
X160787326Y-92047676D02*
X160663067Y-91976233D01*
X160907865Y-92124424D02*
X160787326Y-92047676D01*
X161024486Y-92206359D02*
X160907865Y-92124424D01*
X161136987Y-92293364D02*
X161024486Y-92206359D01*
X161245169Y-92385322D02*
X161136987Y-92293364D01*
X161348831Y-92482114D02*
X161245169Y-92385322D01*
X161447774Y-92583624D02*
X161348831Y-92482114D01*
X161541797Y-92689734D02*
X161447774Y-92583624D01*
X161630701Y-92800327D02*
X161541797Y-92689734D01*
X161714284Y-92915284D02*
X161630701Y-92800327D01*
X161792347Y-93034489D02*
X161714284Y-92915284D01*
X161864689Y-93157824D02*
X161792347Y-93034489D01*
X161931112Y-93285171D02*
X161864689Y-93157824D01*
X161991413Y-93416414D02*
X161931112Y-93285171D01*
X161991413Y-93416414D02*
X161991413Y-93416414D01*
X161996418Y-112593645D02*
X161991413Y-93416414D01*
X161996418Y-112593645D02*
X161996418Y-112593645D01*
X161961287Y-112720787D02*
X161996418Y-112593645D01*
X161921427Y-112845768D02*
X161961287Y-112720787D01*
X161876966Y-112968556D02*
X161921427Y-112845768D01*
X161828032Y-113089119D02*
X161876966Y-112968556D01*
X161717260Y-113323439D02*
X161828032Y-113089119D01*
X161590136Y-113548470D02*
X161717260Y-113323439D01*
X161447683Y-113763957D02*
X161590136Y-113548470D01*
X161290927Y-113969641D02*
X161447683Y-113763957D01*
X161120892Y-114165265D02*
X161290927Y-113969641D01*
X160938605Y-114350572D02*
X161120892Y-114165265D01*
X160745088Y-114525305D02*
X160938605Y-114350572D01*
X160541368Y-114689206D02*
X160745088Y-114525305D01*
X160328469Y-114842018D02*
X160541368Y-114689206D01*
X160107416Y-114983484D02*
X160328469Y-114842018D01*
X159879233Y-115113347D02*
X160107416Y-114983484D01*
X159644946Y-115231349D02*
X159879233Y-115113347D01*
X159405580Y-115337233D02*
X159644946Y-115231349D01*
X159162159Y-115430742D02*
X159405580Y-115337233D01*
X159162159Y-115430742D02*
X159162159Y-115430742D01*
X148215996Y-115452882D02*
X159162159Y-115430742D01*
X142742620Y-115448813D02*
X148215996Y-115452882D01*
X137269489Y-115415239D02*
X142742620Y-115448813D01*
X137269489Y-115415239D02*
X137269489Y-115415239D01*
X137063357Y-115427741D02*
X137269489Y-115415239D01*
X136855495Y-115434107D02*
X137063357Y-115427741D01*
X136646673Y-115433655D02*
X136855495Y-115434107D01*
X136437658Y-115425705D02*
X136646673Y-115433655D01*
X136229217Y-115409576D02*
X136437658Y-115425705D01*
X136022119Y-115384586D02*
X136229217Y-115409576D01*
X135817131Y-115350055D02*
X136022119Y-115384586D01*
X135615021Y-115305301D02*
X135817131Y-115350055D01*
X135416557Y-115249645D02*
X135615021Y-115305301D01*
X135222507Y-115182404D02*
X135416557Y-115249645D01*
X135033639Y-115102898D02*
X135222507Y-115182404D01*
X134850721Y-115010446D02*
X135033639Y-115102898D01*
X134674519Y-114904367D02*
X134850721Y-115010446D01*
X134589178Y-114846005D02*
X134674519Y-114904367D01*
X134505803Y-114783981D02*
X134589178Y-114846005D01*
X134424492Y-114718209D02*
X134505803Y-114783981D01*
X134345340Y-114648605D02*
X134424492Y-114718209D01*
X134268443Y-114575084D02*
X134345340Y-114648605D01*
X134193897Y-114497560D02*
X134268443Y-114575084D01*
X134193897Y-114497560D02*
X134193897Y-114497560D01*
X134108903Y-114430459D02*
X134193897Y-114497560D01*
X134029270Y-114360433D02*
X134108903Y-114430459D01*
X133954819Y-114287609D02*
X134029270Y-114360433D01*
X133885367Y-114212114D02*
X133954819Y-114287609D01*
X133820735Y-114134075D02*
X133885367Y-114212114D01*
X133760740Y-114053619D02*
X133820735Y-114134075D01*
X133705202Y-113970873D02*
X133760740Y-114053619D01*
X133653939Y-113885964D02*
X133705202Y-113970873D01*
X133563517Y-113710164D02*
X133653939Y-113885964D01*
X133488023Y-113527236D02*
X133563517Y-113710164D01*
X133426009Y-113338195D02*
X133488023Y-113527236D01*
X133376027Y-113144058D02*
X133426009Y-113338195D01*
X133336628Y-112945840D02*
X133376027Y-113144058D01*
X133306362Y-112744557D02*
X133336628Y-112945840D01*
X133283782Y-112541225D02*
X133306362Y-112744557D01*
X133267438Y-112336860D02*
X133283782Y-112541225D01*
X133247663Y-111929096D02*
X133267438Y-112336860D01*
X133235447Y-111529390D02*
X133247663Y-111929096D01*
X133235447Y-111529390D02*
X133235447Y-111529390D01*
X133191514Y-107248366D02*
X133235447Y-111529390D01*
X133177351Y-102966693D02*
X133191514Y-107248366D01*
X133200911Y-98685173D02*
X133177351Y-102966693D01*
X133270146Y-94404603D02*
X133200911Y-98685173D01*
X133270146Y-94404603D02*
X133270146Y-94404603D01*
X133305276Y-94278895D02*
X133270146Y-94404603D01*
X133345727Y-94155002D02*
X133305276Y-94278895D01*
X133391345Y-94033033D02*
X133345727Y-94155002D01*
X133441979Y-93913098D02*
X133391345Y-94033033D01*
X133557684Y-93679766D02*
X133441979Y-93913098D01*
X133691624Y-93455882D02*
X133557684Y-93679766D01*
X133842582Y-93242321D02*
X133691624Y-93455882D01*
X134009339Y-93039958D02*
X133842582Y-93242321D01*
X134190677Y-92849669D02*
X134009339Y-93039958D01*
X134385379Y-92672329D02*
X134190677Y-92849669D01*
X134592226Y-92508814D02*
X134385379Y-92672329D01*
X134810000Y-92360000D02*
X134592226Y-92508814D01*
X135037484Y-92226761D02*
X134810000Y-92360000D01*
X135273459Y-92109973D02*
X135037484Y-92226761D01*
X135516707Y-92010511D02*
X135273459Y-92109973D01*
X135766011Y-91929251D02*
X135516707Y-92010511D01*
X136020152Y-91867068D02*
X135766011Y-91929251D01*
X136277912Y-91824838D02*
X136020152Y-91867068D01*
X136277912Y-91824838D02*
X136277912Y-91824838D01*
X136262608Y-86468339D02*
X136277912Y-91824838D01*
X136262608Y-86468339D02*
X136262608Y-86468339D01*
X136245503Y-85773658D02*
X136262608Y-86468339D01*
X136239322Y-85076450D02*
X136245503Y-85773658D01*
X136227648Y-83679719D02*
X136239322Y-85076450D01*
X136206113Y-82982829D02*
X136227648Y-83679719D01*
X136163420Y-82288677D02*
X136206113Y-82982829D01*
X136131632Y-81943038D02*
X136163420Y-82288677D01*
X136091546Y-81598578D02*
X136131632Y-81943038D01*
X136042160Y-81255461D02*
X136091546Y-81598578D01*
X135982472Y-80913850D02*
X136042160Y-81255461D01*
X135982472Y-80913850D02*
X135982472Y-80913850D01*
X135874578Y-80950883D02*
X135982472Y-80913850D01*
X135767865Y-80992064D02*
X135874578Y-80950883D01*
X135662222Y-81036957D02*
X135767865Y-80992064D01*
X135557539Y-81085125D02*
X135662222Y-81036957D01*
X135453706Y-81136131D02*
X135557539Y-81085125D01*
X135350611Y-81189539D02*
X135453706Y-81136131D01*
X135146193Y-81301813D02*
X135350611Y-81189539D01*
X134741349Y-81535964D02*
X135146193Y-81301813D01*
X134539153Y-81650854D02*
X134741349Y-81535964D01*
X134335926Y-81759630D02*
X134539153Y-81650854D01*
X134335926Y-81759630D02*
X134335926Y-81759630D01*
X131224514Y-86580552D02*
X134335926Y-81759630D01*
X131224514Y-86580552D02*
X131224514Y-86580552D01*
X131136000Y-86715524D02*
X131224514Y-86580552D01*
X131041954Y-86845504D02*
X131136000Y-86715524D01*
X130942603Y-86970448D02*
X131041954Y-86845504D01*
X130838174Y-87090308D02*
X130942603Y-86970448D01*
X130614995Y-87314599D02*
X130838174Y-87090308D01*
X130374232Y-87518012D02*
X130614995Y-87314599D01*
X130117705Y-87700181D02*
X130374232Y-87518012D01*
X129847230Y-87860743D02*
X130117705Y-87700181D01*
X129564627Y-87999332D02*
X129847230Y-87860743D01*
X129271713Y-88115583D02*
X129564627Y-87999332D01*
X128970307Y-88209131D02*
X129271713Y-88115583D01*
X128662225Y-88279611D02*
X128970307Y-88209131D01*
X128349286Y-88326658D02*
X128662225Y-88279611D01*
X128033308Y-88349907D02*
X128349286Y-88326658D01*
X127716109Y-88348993D02*
X128033308Y-88349907D01*
X127399506Y-88323552D02*
X127716109Y-88348993D01*
X127085319Y-88273218D02*
X127399506Y-88323552D01*
X126775364Y-88197626D02*
X127085319Y-88273218D01*
X126775364Y-88197626D02*
X126775364Y-88197626D01*
X126641780Y-88150076D02*
X126775364Y-88197626D01*
X126510905Y-88097526D02*
X126641780Y-88150076D01*
X126257391Y-87978026D02*
X126510905Y-88097526D01*
X126015052Y-87840323D02*
X126257391Y-87978026D01*
X125784119Y-87685617D02*
X126015052Y-87840323D01*
X125564821Y-87515107D02*
X125784119Y-87685617D01*
X125357388Y-87329991D02*
X125564821Y-87515107D01*
X125162048Y-87131470D02*
X125357388Y-87329991D01*
X124979033Y-86920741D02*
X125162048Y-87131470D01*
X124808571Y-86699003D02*
X124979033Y-86920741D01*
X124650892Y-86467456D02*
X124808571Y-86699003D01*
X124506227Y-86227298D02*
X124650892Y-86467456D01*
X124374804Y-85979729D02*
X124506227Y-86227298D01*
X124256854Y-85725948D02*
X124374804Y-85979729D01*
X124152606Y-85467153D02*
X124256854Y-85725948D01*
X124062289Y-85204543D02*
X124152606Y-85467153D01*
X123986134Y-84939317D02*
X124062289Y-85204543D01*
X123986134Y-84939317D02*
X123986134Y-84939317D01*
X123887967Y-84886778D02*
X123986134Y-84939317D01*
X123786567Y-84839582D02*
X123887967Y-84886778D01*
X123682441Y-84796794D02*
X123786567Y-84839582D01*
X123576099Y-84757480D02*
X123682441Y-84796794D01*
X123358798Y-84685532D02*
X123576099Y-84757480D01*
X123138732Y-84616260D02*
X123358798Y-84685532D01*
X122919967Y-84542185D02*
X123138732Y-84616260D01*
X122812344Y-84501009D02*
X122919967Y-84542185D01*
X122706571Y-84455829D02*
X122812344Y-84501009D01*
X122603157Y-84405708D02*
X122706571Y-84455829D01*
X122502610Y-84349712D02*
X122603157Y-84405708D01*
X122405440Y-84286906D02*
X122502610Y-84349712D01*
X122312153Y-84216356D02*
X122405440Y-84286906D01*
X122312153Y-84216356D02*
X122312153Y-84216356D01*
X122133458Y-84103380D02*
X122312153Y-84216356D01*
X121963953Y-83980769D02*
X122133458Y-84103380D01*
X121803686Y-83849054D02*
X121963953Y-83980769D01*
X121652703Y-83708767D02*
X121803686Y-83849054D01*
X121511050Y-83560440D02*
X121652703Y-83708767D01*
X121378773Y-83404605D02*
X121511050Y-83560440D01*
X121255919Y-83241794D02*
X121378773Y-83404605D01*
X121142533Y-83072539D02*
X121255919Y-83241794D01*
X121038663Y-82897372D02*
X121142533Y-83072539D01*
X120944354Y-82716825D02*
X121038663Y-82897372D01*
X120859653Y-82531430D02*
X120944354Y-82716825D01*
X120784606Y-82341718D02*
X120859653Y-82531430D01*
X120719259Y-82148222D02*
X120784606Y-82341718D01*
X120663658Y-81951474D02*
X120719259Y-82148222D01*
X120617850Y-81752006D02*
X120663658Y-81951474D01*
X120581882Y-81550350D02*
X120617850Y-81752006D01*
X120555798Y-81347037D02*
X120581882Y-81550350D01*
X120539647Y-81142600D02*
X120555798Y-81347037D01*
X120533473Y-80937570D02*
X120539647Y-81142600D01*
X120537323Y-80732480D02*
X120533473Y-80937570D01*
X120551244Y-80527862D02*
X120537323Y-80732480D01*
X120575282Y-80324247D02*
X120551244Y-80527862D01*
X120609482Y-80122168D02*
X120575282Y-80324247D01*
X120653892Y-79922156D02*
X120609482Y-80122168D01*
X120708558Y-79724744D02*
X120653892Y-79922156D01*
X120773525Y-79530463D02*
X120708558Y-79724744D01*
X120848841Y-79339846D02*
X120773525Y-79530463D01*
X120934551Y-79153424D02*
X120848841Y-79339846D01*
X121030701Y-78971729D02*
X120934551Y-79153424D01*
X121137339Y-78795293D02*
X121030701Y-78971729D01*
X121254509Y-78624649D02*
X121137339Y-78795293D01*
X121382260Y-78460328D02*
X121254509Y-78624649D01*
X121382260Y-78460328D02*
X121382260Y-78460328D01*
X121639796Y-78220026D02*
X121382260Y-78460328D01*
X121906348Y-77991139D02*
X121639796Y-78220026D01*
X122180954Y-77772469D02*
X121906348Y-77991139D01*
X122462656Y-77562818D02*
X122180954Y-77772469D01*
X122750492Y-77360990D02*
X122462656Y-77562818D01*
X123043501Y-77165787D02*
X122750492Y-77360990D01*
X123641200Y-76790464D02*
X123043501Y-77165787D01*
X124856427Y-76066626D02*
X123641200Y-76790464D01*
X125458589Y-75698952D02*
X124856427Y-76066626D01*
X125754945Y-75509485D02*
X125458589Y-75698952D01*
X126046871Y-75314668D02*
X125754945Y-75509485D01*
X126046871Y-75314668D02*
X126046871Y-75314668D01*
X126140192Y-75272190D02*
X126046871Y-75314668D01*
X126231123Y-75226286D02*
X126140192Y-75272190D01*
X126405980Y-75124730D02*
X126231123Y-75226286D01*
X126571764Y-75011071D02*
X126405980Y-75124730D01*
X126728798Y-74886379D02*
X126571764Y-75011071D01*
X126877405Y-74751726D02*
X126728798Y-74886379D01*
X127017907Y-74608180D02*
X126877405Y-74751726D01*
X127150626Y-74456814D02*
X127017907Y-74608180D01*
X127275886Y-74298696D02*
X127150626Y-74456814D01*
X127394007Y-74134898D02*
X127275886Y-74298696D01*
X127505314Y-73966489D02*
X127394007Y-74134898D01*
X127610128Y-73794541D02*
X127505314Y-73966489D01*
X127708771Y-73620124D02*
X127610128Y-73794541D01*
X127801567Y-73444307D02*
X127708771Y-73620124D01*
X127888837Y-73268162D02*
X127801567Y-73444307D01*
X128048092Y-72919168D02*
X127888837Y-73268162D01*
X128048092Y-72919168D02*
X128048092Y-72919168D01*
X126713321Y-72795122D02*
X128048092Y-72919168D01*
X125374607Y-72709666D02*
X126713321Y-72795122D01*
X124032917Y-72654458D02*
X125374607Y-72709666D01*
X122689216Y-72621158D02*
X124032917Y-72654458D01*
X117313603Y-72540208D02*
X122689216Y-72621158D01*
X117313603Y-72540208D02*
X117313603Y-72540208D01*
X117243309Y-72552016D02*
X117313603Y-72540208D01*
X117173692Y-72560948D02*
X117243309Y-72552016D01*
X117104735Y-72567090D02*
X117173692Y-72560948D01*
X117036424Y-72570530D02*
X117104735Y-72567090D01*
X116968741Y-72571354D02*
X117036424Y-72570530D01*
X116901672Y-72569648D02*
X116968741Y-72571354D01*
X116769309Y-72558994D02*
X116901672Y-72569648D01*
X116639209Y-72539260D02*
X116769309Y-72558994D01*
X116511246Y-72511139D02*
X116639209Y-72539260D01*
X116385293Y-72475323D02*
X116511246Y-72511139D01*
X116261223Y-72432504D02*
X116385293Y-72475323D01*
X116138910Y-72383376D02*
X116261223Y-72432504D01*
X116018226Y-72328629D02*
X116138910Y-72383376D01*
X115899047Y-72268958D02*
X116018226Y-72328629D01*
X115781244Y-72205054D02*
X115899047Y-72268958D01*
X115664691Y-72137610D02*
X115781244Y-72205054D01*
X115549263Y-72067318D02*
X115664691Y-72137610D01*
X115321270Y-71920961D02*
X115549263Y-72067318D01*
X115321270Y-71920961D02*
X115321270Y-71920961D01*
X115121985Y-71792762D02*
X115321270Y-71920961D01*
X114935075Y-71652325D02*
X115121985Y-71792762D01*
X114760544Y-71500436D02*
X114935075Y-71652325D01*
X114598395Y-71337877D02*
X114760544Y-71500436D01*
X114448633Y-71165433D02*
X114598395Y-71337877D01*
X114311262Y-70983887D02*
X114448633Y-71165433D01*
X114186286Y-70794022D02*
X114311262Y-70983887D01*
X114073708Y-70596623D02*
X114186286Y-70794022D01*
X113973533Y-70392474D02*
X114073708Y-70596623D01*
X113885765Y-70182357D02*
X113973533Y-70392474D01*
X113810407Y-69967058D02*
X113885765Y-70182357D01*
X113747464Y-69747359D02*
X113810407Y-69967058D01*
X113696940Y-69524044D02*
X113747464Y-69747359D01*
X113658839Y-69297898D02*
X113696940Y-69524044D01*
X113633165Y-69069703D02*
X113658839Y-69297898D01*
X113619921Y-68840245D02*
X113633165Y-69069703D01*
X113619112Y-68610305D02*
X113619921Y-68840245D01*
X113630742Y-68380669D02*
X113619112Y-68610305D01*
X113654814Y-68152120D02*
X113630742Y-68380669D01*
X113691334Y-67925441D02*
X113654814Y-68152120D01*
X113740304Y-67701417D02*
X113691334Y-67925441D01*
X113801729Y-67480831D02*
X113740304Y-67701417D01*
X113875612Y-67264467D02*
X113801729Y-67480831D01*
X113961959Y-67053109D02*
X113875612Y-67264467D01*
X114060772Y-66847540D02*
X113961959Y-67053109D01*
X114172056Y-66648544D02*
X114060772Y-66847540D01*
X114295815Y-66456906D02*
X114172056Y-66648544D01*
X114432053Y-66273408D02*
X114295815Y-66456906D01*
X114580773Y-66098834D02*
X114432053Y-66273408D01*
X114741981Y-65933969D02*
X114580773Y-66098834D01*
X114915679Y-65779596D02*
X114741981Y-65933969D01*
X115101872Y-65636499D02*
X114915679Y-65779596D01*
X115101872Y-65636499D02*
X115101872Y-65636499D01*
X115829316Y-65161087D02*
X115101872Y-65636499D01*
X116570966Y-64710076D02*
X115829316Y-65161087D01*
X117325929Y-64282763D02*
X116570966Y-64710076D01*
X118093315Y-63878444D02*
X117325929Y-64282763D01*
X118872232Y-63496415D02*
X118093315Y-63878444D01*
X119661791Y-63135975D02*
X118872232Y-63496415D01*
X120461099Y-62796418D02*
X119661791Y-63135975D01*
X121269266Y-62477041D02*
X120461099Y-62796418D01*
X122085401Y-62177141D02*
X121269266Y-62477041D01*
X122908613Y-61896014D02*
X122085401Y-62177141D01*
X123738010Y-61632957D02*
X122908613Y-61896014D01*
X124572702Y-61387266D02*
X123738010Y-61632957D01*
X126254407Y-60945169D02*
X124572702Y-61387266D01*
X127946598Y-60564096D02*
X126254407Y-60945169D01*
X127946598Y-60564096D02*
X127946598Y-60564096D01*
X129218503Y-60344473D02*
X127946598Y-60564096D01*
X130507396Y-60157704D02*
X129218503Y-60344473D01*
X131156015Y-60082265D02*
X130507396Y-60157704D01*
X131806243Y-60021790D02*
X131156015Y-60082265D01*
X132457201Y-59978530D02*
X131806243Y-60021790D01*
X133108009Y-59954735D02*
X132457201Y-59978530D01*
X133757787Y-59952655D02*
X133108009Y-59954735D01*
X134405657Y-59974540D02*
X133757787Y-59952655D01*
X135050738Y-60022641D02*
X134405657Y-59974540D01*
X135692152Y-60099208D02*
X135050738Y-60022641D01*
X136329018Y-60206491D02*
X135692152Y-60099208D01*
X136960458Y-60346740D02*
X136329018Y-60206491D01*
X137585592Y-60522206D02*
X136960458Y-60346740D01*
X138203541Y-60735139D02*
X137585592Y-60522206D01*
X138203541Y-60735139D02*
X138203541Y-60735139D01*
X138444310Y-60383764D02*
X138203541Y-60735139D01*
X138680792Y-60028700D02*
X138444310Y-60383764D01*
X138913127Y-59670317D02*
X138680792Y-60028700D01*
X139141451Y-59308987D02*
X138913127Y-59670317D01*
X139365904Y-58945079D02*
X139141451Y-59308987D01*
X139586623Y-58578962D02*
X139365904Y-58945079D01*
X140017414Y-57841585D02*
X139586623Y-58578962D01*
X140017414Y-57841585D02*
X140017414Y-57841585D01*
X139743085Y-57791476D02*
X140017414Y-57841585D01*
X139467696Y-57746360D02*
X139743085Y-57791476D01*
X139191490Y-57705249D02*
X139467696Y-57746360D01*
X138914707Y-57667156D02*
X139191490Y-57705249D01*
X137806645Y-57525194D02*
X138914707Y-57667156D01*
X137806645Y-57525194D02*
X137806645Y-57525194D01*
X135468827Y-57248493D02*
X137806645Y-57525194D01*
X133125633Y-57058895D02*
X135468827Y-57248493D01*
X130778221Y-56938958D02*
X133125633Y-57058895D01*
X128427749Y-56871242D02*
X130778221Y-56938958D01*
X119018429Y-56773782D02*
X128427749Y-56871242D01*
X119018429Y-56773782D02*
X119018429Y-56773782D01*
X118811528Y-56787877D02*
X119018429Y-56773782D01*
X118604701Y-56792691D02*
X118811528Y-56787877D01*
X118398366Y-56788165D02*
X118604701Y-56792691D01*
X118192942Y-56774240D02*
X118398366Y-56788165D01*
X117988848Y-56750856D02*
X118192942Y-56774240D01*
X117786503Y-56717954D02*
X117988848Y-56750856D01*
X117586325Y-56675475D02*
X117786503Y-56717954D01*
X117388733Y-56623358D02*
X117586325Y-56675475D01*
X117194147Y-56561545D02*
X117388733Y-56623358D01*
X117002984Y-56489977D02*
X117194147Y-56561545D01*
X116815664Y-56408593D02*
X117002984Y-56489977D01*
X116632606Y-56317336D02*
X116815664Y-56408593D01*
X116454229Y-56216144D02*
X116632606Y-56317336D01*
X116280950Y-56104959D02*
X116454229Y-56216144D01*
X116113190Y-55983722D02*
X116280950Y-56104959D01*
X115951367Y-55852373D02*
X116113190Y-55983722D01*
X115951367Y-55852373D02*
X115951367Y-55852373D01*
X115776410Y-55710831D02*
X115951367Y-55852373D01*
X115612094Y-55559946D02*
X115776410Y-55710831D01*
X115458434Y-55400311D02*
X115612094Y-55559946D01*
X115315443Y-55232520D02*
X115458434Y-55400311D01*
X115183135Y-55057166D02*
X115315443Y-55232520D01*
X115061523Y-54874843D02*
X115183135Y-55057166D01*
X114950622Y-54686143D02*
X115061523Y-54874843D01*
X114850445Y-54491659D02*
X114950622Y-54686143D01*
X114761005Y-54291987D02*
X114850445Y-54491659D01*
X114682318Y-54087717D02*
X114761005Y-54291987D01*
X114614395Y-53879445D02*
X114682318Y-54087717D01*
X114557253Y-53667763D02*
X114614395Y-53879445D01*
X114510903Y-53453264D02*
X114557253Y-53667763D01*
X114475360Y-53236543D02*
X114510903Y-53453264D01*
X114450637Y-53018191D02*
X114475360Y-53236543D01*
X114436749Y-52798804D02*
X114450637Y-53018191D01*
X114433709Y-52578973D02*
X114436749Y-52798804D01*
X114441530Y-52359292D02*
X114433709Y-52578973D01*
X114460228Y-52140355D02*
X114441530Y-52359292D01*
X114489815Y-51922755D02*
X114460228Y-52140355D01*
X114530305Y-51707086D02*
X114489815Y-51922755D01*
X114581712Y-51493939D02*
X114530305Y-51707086D01*
X114644049Y-51283910D02*
X114581712Y-51493939D01*
X114717332Y-51077591D02*
X114644049Y-51283910D01*
X114801572Y-50875575D02*
X114717332Y-51077591D01*
X114896785Y-50678457D02*
X114801572Y-50875575D01*
X115002983Y-50486828D02*
X114896785Y-50678457D01*
X115120181Y-50301284D02*
X115002983Y-50486828D01*
X115248393Y-50122416D02*
X115120181Y-50301284D01*
X115387632Y-49950818D02*
X115248393Y-50122416D01*
X115537911Y-49787084D02*
X115387632Y-49950818D01*
X115699246Y-49631807D02*
X115537911Y-49787084D01*
X115699246Y-49631807D02*
X115699246Y-49631807D01*
X116102651Y-49324200D02*
X115699246Y-49631807D01*
X116513599Y-49027394D02*
X116102651Y-49324200D01*
X116931540Y-48740739D02*
X116513599Y-49027394D01*
X117355926Y-48463581D02*
X116931540Y-48740739D01*
X118221838Y-47935154D02*
X117355926Y-48463581D01*
X119106949Y-47436901D02*
X118221838Y-47935154D01*
X120006870Y-46963607D02*
X119106949Y-47436901D01*
X120917213Y-46510061D02*
X120006870Y-46963607D01*
X122751614Y-45641359D02*
X120917213Y-46510061D01*
X122751614Y-45641359D02*
X122751614Y-45641359D01*
X125458585Y-44524779D02*
X122751614Y-45641359D01*
X126830792Y-44008921D02*
X125458585Y-44524779D01*
X128214550Y-43522952D02*
X126830792Y-44008921D01*
X129609158Y-43068071D02*
X128214550Y-43522952D01*
X131013918Y-42645479D02*
X129609158Y-43068071D01*
X132428130Y-42256376D02*
X131013918Y-42645479D01*
X133851096Y-41901963D02*
X132428130Y-42256376D01*
X135282117Y-41583438D02*
X133851096Y-41901963D01*
X136720494Y-41302003D02*
X135282117Y-41583438D01*
X138165528Y-41058858D02*
X136720494Y-41302003D01*
X139616519Y-40855202D02*
X138165528Y-41058858D01*
X141072769Y-40692237D02*
X139616519Y-40855202D01*
X142533580Y-40571161D02*
X141072769Y-40692237D01*
X143998251Y-40493176D02*
X142533580Y-40571161D01*
X145466084Y-40459482D02*
X143998251Y-40493176D01*
X151140522Y-69035448D02*
X151140537Y-69035493D01*
X151140522Y-69035448D02*
X151140522Y-69035448D01*
X150980034Y-69111915D02*
X151140522Y-69035448D01*
X150819807Y-69192638D02*
X150980034Y-69111915D01*
X150500264Y-69365303D02*
X150819807Y-69192638D01*
X150182137Y-69550344D02*
X150500264Y-69365303D01*
X149865673Y-69744666D02*
X150182137Y-69550344D01*
X149551118Y-69945172D02*
X149865673Y-69744666D01*
X149238716Y-70148764D02*
X149551118Y-69945172D01*
X148621357Y-70552820D02*
X149238716Y-70148764D01*
X148621357Y-70552820D02*
X148621357Y-70552820D01*
X148583092Y-70564828D02*
X148621357Y-70552820D01*
X148547302Y-70578067D02*
X148583092Y-70564828D01*
X148513931Y-70592497D02*
X148547302Y-70578067D01*
X148482925Y-70608078D02*
X148513931Y-70592497D01*
X148454226Y-70624769D02*
X148482925Y-70608078D01*
X148427780Y-70642530D02*
X148454226Y-70624769D01*
X148403529Y-70661321D02*
X148427780Y-70642530D01*
X148381419Y-70681102D02*
X148403529Y-70661321D01*
X148361393Y-70701832D02*
X148381419Y-70681102D01*
X148343394Y-70723471D02*
X148361393Y-70701832D01*
X148327368Y-70745979D02*
X148343394Y-70723471D01*
X148313259Y-70769316D02*
X148327368Y-70745979D01*
X148301010Y-70793441D02*
X148313259Y-70769316D01*
X148290565Y-70818314D02*
X148301010Y-70793441D01*
X148281868Y-70843895D02*
X148290565Y-70818314D01*
X148274864Y-70870143D02*
X148281868Y-70843895D01*
X148269497Y-70897019D02*
X148274864Y-70870143D01*
X148265711Y-70924482D02*
X148269497Y-70897019D01*
X148263449Y-70952492D02*
X148265711Y-70924482D01*
X148262656Y-70981008D02*
X148263449Y-70952492D01*
X148265252Y-71039399D02*
X148262656Y-70981008D01*
X148273052Y-71099334D02*
X148265252Y-71039399D01*
X148285608Y-71160489D02*
X148273052Y-71099334D01*
X148302473Y-71222544D02*
X148285608Y-71160489D01*
X148323200Y-71285175D02*
X148302473Y-71222544D01*
X148347340Y-71348062D02*
X148323200Y-71285175D01*
X148347340Y-71348062D02*
X148347340Y-71348062D01*
X148480064Y-71776104D02*
X148347340Y-71348062D01*
X148595289Y-72207646D02*
X148480064Y-71776104D01*
X148693712Y-72642318D02*
X148595289Y-72207646D01*
X148776028Y-73079750D02*
X148693712Y-72642318D01*
X148842936Y-73519571D02*
X148776028Y-73079750D01*
X148895130Y-73961414D02*
X148842936Y-73519571D01*
X148933309Y-74404906D02*
X148895130Y-73961414D01*
X148958168Y-74849679D02*
X148933309Y-74404906D01*
X148970405Y-75295364D02*
X148958168Y-74849679D01*
X148970717Y-75741589D02*
X148970405Y-75295364D01*
X148959799Y-76187985D02*
X148970717Y-75741589D01*
X148938349Y-76634183D02*
X148959799Y-76187985D01*
X148866638Y-77524504D02*
X148938349Y-76634183D01*
X148761158Y-78409593D02*
X148866638Y-77524504D01*
X148761158Y-78409593D02*
X148761158Y-78409593D01*
X148650175Y-79288392D02*
X148761158Y-78409593D01*
X148516679Y-80163413D02*
X148650175Y-79288392D01*
X148361100Y-81034330D02*
X148516679Y-80163413D01*
X148183867Y-81900818D02*
X148361100Y-81034330D01*
X147985412Y-82762553D02*
X148183867Y-81900818D01*
X147766162Y-83619208D02*
X147985412Y-82762553D01*
X147526548Y-84470459D02*
X147766162Y-83619208D01*
X147267000Y-85315980D02*
X147526548Y-84470459D01*
X146987948Y-86155447D02*
X147267000Y-85315980D01*
X146689821Y-86988534D02*
X146987948Y-86155447D01*
X146373049Y-87814916D02*
X146689821Y-86988534D01*
X146038062Y-88634268D02*
X146373049Y-87814916D01*
X145685289Y-89446265D02*
X146038062Y-88634268D01*
X145315160Y-90250581D02*
X145685289Y-89446265D01*
X144928106Y-91046891D02*
X145315160Y-90250581D01*
X144524555Y-91834871D02*
X144928106Y-91046891D01*
X144524555Y-91834871D02*
X144524555Y-91834871D01*
X146494944Y-91873095D02*
X144524555Y-91834871D01*
X148467236Y-91890839D02*
X146494944Y-91873095D01*
X149453161Y-91886749D02*
X148467236Y-91890839D01*
X150438440Y-91871200D02*
X149453161Y-91886749D01*
X151422700Y-91842079D02*
X150438440Y-91871200D01*
X152405567Y-91797273D02*
X151422700Y-91842079D01*
X152405567Y-91797273D02*
X152405567Y-91797273D01*
X152349925Y-91575276D02*
X152405567Y-91797273D01*
X152305187Y-91350972D02*
X152349925Y-91575276D01*
X152270223Y-91124622D02*
X152305187Y-91350972D01*
X152243899Y-90896483D02*
X152270223Y-91124622D01*
X152225085Y-90666815D02*
X152243899Y-90896483D01*
X152212649Y-90435876D02*
X152225085Y-90666815D01*
X152202385Y-89971224D02*
X152212649Y-90435876D01*
X152208599Y-89038071D02*
X152202385Y-89971224D01*
X152206970Y-88573712D02*
X152208599Y-89038071D01*
X152190113Y-88113595D02*
X152206970Y-88573712D01*
X152190113Y-88113595D02*
X152190113Y-88113595D01*
X152185895Y-83331088D02*
X152190113Y-88113595D01*
X152146093Y-80939105D02*
X152185895Y-83331088D01*
X152066841Y-78548755D02*
X152146093Y-80939105D01*
X151937400Y-76161629D02*
X152066841Y-78548755D01*
X151747030Y-73779317D02*
X151937400Y-76161629D01*
X151484989Y-71403408D02*
X151747030Y-73779317D01*
X151140537Y-69035493D02*
X151484989Y-71403408D01*
M02*
