G04 #@! TF.GenerationSoftware,KiCad,Pcbnew,(6.0.10-0)*
G04 #@! TF.CreationDate,2023-09-19T21:44:43+02:00*
G04 #@! TF.ProjectId,SwiftLeeds,53776966-744c-4656-9564-732e6b696361,rev?*
G04 #@! TF.SameCoordinates,Original*
G04 #@! TF.FileFunction,Soldermask,Bot*
G04 #@! TF.FilePolarity,Negative*
%FSLAX46Y46*%
G04 Gerber Fmt 4.6, Leading zero omitted, Abs format (unit mm)*
G04 Created by KiCad (PCBNEW (6.0.10-0)) date 2023-09-19 21:44:43*
%MOMM*%
%LPD*%
G01*
G04 APERTURE LIST*
G04 Aperture macros list*
%AMRoundRect*
0 Rectangle with rounded corners*
0 $1 Rounding radius*
0 $2 $3 $4 $5 $6 $7 $8 $9 X,Y pos of 4 corners*
0 Add a 4 corners polygon primitive as box body*
4,1,4,$2,$3,$4,$5,$6,$7,$8,$9,$2,$3,0*
0 Add four circle primitives for the rounded corners*
1,1,$1+$1,$2,$3*
1,1,$1+$1,$4,$5*
1,1,$1+$1,$6,$7*
1,1,$1+$1,$8,$9*
0 Add four rect primitives between the rounded corners*
20,1,$1+$1,$2,$3,$4,$5,0*
20,1,$1+$1,$4,$5,$6,$7,0*
20,1,$1+$1,$6,$7,$8,$9,0*
20,1,$1+$1,$8,$9,$2,$3,0*%
G04 Aperture macros list end*
%ADD10C,0.000000*%
%ADD11RoundRect,0.250000X-0.132583X0.503814X-0.503814X0.132583X0.132583X-0.503814X0.503814X-0.132583X0*%
%ADD12RoundRect,0.243750X-0.345367X0.385097X-0.512102X-0.073003X0.345367X-0.385097X0.512102X0.073003X0*%
%ADD13RoundRect,0.243750X-0.028093X-0.516516X0.413732X-0.310490X0.028093X0.516516X-0.413732X0.310490X0*%
%ADD14RoundRect,0.243750X-0.194724X-0.479229X0.290106X-0.428272X0.194724X0.479229X-0.290106X0.428272X0*%
%ADD15R,1.270000X5.080000*%
%ADD16C,17.800000*%
%ADD17RoundRect,0.243750X-0.494975X-0.150260X-0.150260X-0.494975X0.494975X0.150260X0.150260X0.494975X0*%
%ADD18RoundRect,0.243750X-0.456250X0.243750X-0.456250X-0.243750X0.456250X-0.243750X0.456250X0.243750X0*%
G04 APERTURE END LIST*
D10*
G36*
X146615483Y-43868133D02*
G01*
X147996205Y-43988630D01*
X149140801Y-44201024D01*
X149616886Y-44340802D01*
X150024741Y-44502500D01*
X150305721Y-44637981D01*
X150576524Y-44774282D01*
X150837327Y-44911286D01*
X151088306Y-45048877D01*
X151329638Y-45186937D01*
X151561498Y-45325348D01*
X151784065Y-45463993D01*
X151997513Y-45602756D01*
X152202019Y-45741519D01*
X152397761Y-45880164D01*
X152584914Y-46018575D01*
X152763655Y-46156635D01*
X152934161Y-46294225D01*
X153096607Y-46431230D01*
X153251171Y-46567531D01*
X153398028Y-46703012D01*
X153428725Y-46732198D01*
X153460540Y-46759744D01*
X153493414Y-46785648D01*
X153527287Y-46809912D01*
X153562102Y-46832534D01*
X153597800Y-46853516D01*
X153671606Y-46890556D01*
X153748236Y-46921031D01*
X153827218Y-46944943D01*
X153908084Y-46962291D01*
X153990361Y-46973075D01*
X154073579Y-46977295D01*
X154157268Y-46974950D01*
X154240957Y-46966042D01*
X154324175Y-46950570D01*
X154406452Y-46928533D01*
X154487318Y-46899933D01*
X154566301Y-46864768D01*
X154642932Y-46823040D01*
X155365386Y-46387011D01*
X156057251Y-46007303D01*
X156718998Y-45681163D01*
X157351096Y-45405835D01*
X157954017Y-45178565D01*
X158528232Y-44996599D01*
X159074210Y-44857182D01*
X159592422Y-44757559D01*
X160083340Y-44694976D01*
X160547433Y-44666679D01*
X160985173Y-44669912D01*
X161397029Y-44701921D01*
X161783473Y-44759953D01*
X162144975Y-44841251D01*
X162482005Y-44943062D01*
X162795035Y-45062630D01*
X162840655Y-45086054D01*
X162887039Y-45111236D01*
X162934011Y-45138058D01*
X162981395Y-45166405D01*
X163029015Y-45196158D01*
X163076693Y-45227200D01*
X163124253Y-45259415D01*
X163171520Y-45292684D01*
X163218315Y-45326891D01*
X163264464Y-45361919D01*
X163309789Y-45397650D01*
X163354114Y-45433967D01*
X163397263Y-45470753D01*
X163439059Y-45507890D01*
X163479325Y-45545262D01*
X163517886Y-45582751D01*
X163562132Y-45620729D01*
X163604555Y-45659644D01*
X163645213Y-45699497D01*
X163684165Y-45740288D01*
X163721470Y-45782016D01*
X163757187Y-45824683D01*
X163791375Y-45868287D01*
X163824091Y-45912828D01*
X163855396Y-45958308D01*
X163885348Y-46004725D01*
X163914006Y-46052079D01*
X163941429Y-46100372D01*
X163967675Y-46149602D01*
X163992803Y-46199770D01*
X164016873Y-46250875D01*
X164039943Y-46302919D01*
X164166573Y-46614787D01*
X164273674Y-46950568D01*
X164358657Y-47310729D01*
X164418933Y-47695740D01*
X164451914Y-48106070D01*
X164455012Y-48542186D01*
X164425638Y-49004559D01*
X164361204Y-49493657D01*
X164259123Y-50009949D01*
X164116804Y-50553903D01*
X163931661Y-51125989D01*
X163701104Y-51726676D01*
X163422546Y-52356432D01*
X163093398Y-53015725D01*
X162711071Y-53705026D01*
X162272979Y-54424803D01*
X162231095Y-54500709D01*
X162195800Y-54578198D01*
X162167093Y-54656976D01*
X162144975Y-54736751D01*
X162129445Y-54817228D01*
X162120504Y-54898116D01*
X162118151Y-54979121D01*
X162122386Y-55059951D01*
X162133210Y-55140311D01*
X162150623Y-55219910D01*
X162174623Y-55298453D01*
X162205213Y-55375649D01*
X162242390Y-55451203D01*
X162263450Y-55488274D01*
X162286157Y-55524824D01*
X162310510Y-55560817D01*
X162336511Y-55596217D01*
X162364159Y-55630988D01*
X162393454Y-55665091D01*
X162666248Y-55965395D01*
X162941864Y-56297113D01*
X163219363Y-56661652D01*
X163497804Y-57060416D01*
X163776244Y-57494814D01*
X164053743Y-57966252D01*
X164329360Y-58476136D01*
X164466168Y-58745935D01*
X164602153Y-59025874D01*
X164911369Y-59906098D01*
X165129465Y-61045250D01*
X165253792Y-62419066D01*
X165281705Y-64003284D01*
X165210556Y-65773640D01*
X165037697Y-67705871D01*
X164760483Y-69775714D01*
X164376264Y-71958905D01*
X163882396Y-74231182D01*
X163276229Y-76568281D01*
X162555118Y-78945940D01*
X161716414Y-81339894D01*
X160757472Y-83725881D01*
X159675643Y-86079638D01*
X158468281Y-88376902D01*
X157132739Y-90593409D01*
X157132739Y-90593405D01*
X157093257Y-90644032D01*
X157050304Y-90690849D01*
X157004174Y-90733798D01*
X156955163Y-90772821D01*
X156903563Y-90807859D01*
X156849668Y-90838852D01*
X156793774Y-90865743D01*
X156736174Y-90888473D01*
X156677162Y-90906983D01*
X156617032Y-90921215D01*
X156556079Y-90931110D01*
X156494597Y-90936609D01*
X156432879Y-90937654D01*
X156371220Y-90934186D01*
X156309914Y-90926147D01*
X156249255Y-90913477D01*
X156190449Y-90888667D01*
X156134584Y-90859403D01*
X156081779Y-90825919D01*
X156032150Y-90788450D01*
X155985815Y-90747230D01*
X155942892Y-90702493D01*
X155903498Y-90654474D01*
X155867752Y-90603408D01*
X155835771Y-90549529D01*
X155807672Y-90493070D01*
X155783573Y-90434268D01*
X155763592Y-90373355D01*
X155747846Y-90310567D01*
X155736454Y-90246139D01*
X155729532Y-90180303D01*
X155727198Y-90113295D01*
X155808143Y-87635813D01*
X155839438Y-84916633D01*
X155802496Y-81486191D01*
X155650727Y-77551256D01*
X155337541Y-73318600D01*
X155105857Y-71155243D01*
X154816347Y-68994994D01*
X154463188Y-66863702D01*
X154040557Y-64787211D01*
X154019413Y-64706226D01*
X153993761Y-64628355D01*
X153963801Y-64553664D01*
X153929730Y-64482218D01*
X153891747Y-64414083D01*
X153850051Y-64349325D01*
X153804840Y-64288011D01*
X153756313Y-64230206D01*
X153704668Y-64175976D01*
X153650104Y-64125387D01*
X153592819Y-64078504D01*
X153533012Y-64035395D01*
X153470881Y-63996124D01*
X153406625Y-63960758D01*
X153340443Y-63929363D01*
X153272533Y-63902004D01*
X153203093Y-63878748D01*
X153132322Y-63859661D01*
X153060419Y-63844807D01*
X152987582Y-63834254D01*
X152914010Y-63828067D01*
X152839901Y-63826313D01*
X152765454Y-63829057D01*
X152690866Y-63836364D01*
X152616338Y-63848302D01*
X152542067Y-63864935D01*
X152468252Y-63886331D01*
X152395092Y-63912554D01*
X152322784Y-63943671D01*
X152251528Y-63979748D01*
X152181521Y-64020850D01*
X152112964Y-64067044D01*
X151525651Y-64481672D01*
X150938339Y-64885985D01*
X150351026Y-65280920D01*
X149763714Y-65667416D01*
X148589087Y-66418840D01*
X147414458Y-67147759D01*
X147410695Y-67147643D01*
X147406938Y-67147300D01*
X147403197Y-67146737D01*
X147399478Y-67145962D01*
X147395788Y-67144981D01*
X147392134Y-67143803D01*
X147388525Y-67142434D01*
X147384968Y-67140883D01*
X147381469Y-67139155D01*
X147378036Y-67137259D01*
X147374677Y-67135202D01*
X147371399Y-67132991D01*
X147368209Y-67130633D01*
X147365114Y-67128136D01*
X147362123Y-67125507D01*
X147359242Y-67122754D01*
X147356478Y-67119884D01*
X147353840Y-67116903D01*
X147351334Y-67113820D01*
X147348967Y-67110642D01*
X147346748Y-67107376D01*
X147344683Y-67104030D01*
X147342780Y-67100610D01*
X147341046Y-67097124D01*
X147339488Y-67093579D01*
X147338114Y-67089983D01*
X147336932Y-67086344D01*
X147335947Y-67082667D01*
X147335169Y-67078962D01*
X147334604Y-67075234D01*
X147334260Y-67071491D01*
X147334144Y-67067742D01*
X147531062Y-66648074D01*
X147700980Y-66244113D01*
X147845132Y-65855625D01*
X147964754Y-65482374D01*
X148061080Y-65124127D01*
X148135348Y-64780648D01*
X148188791Y-64451705D01*
X148222645Y-64137061D01*
X148238145Y-63836483D01*
X148236527Y-63549737D01*
X148219027Y-63276588D01*
X148186879Y-63016801D01*
X148141319Y-62770142D01*
X148083582Y-62536376D01*
X148014903Y-62315270D01*
X147936519Y-62106589D01*
X147920537Y-62062047D01*
X147902791Y-62018443D01*
X147883398Y-61975777D01*
X147862476Y-61934049D01*
X147840141Y-61893258D01*
X147816513Y-61853405D01*
X147791708Y-61814490D01*
X147765844Y-61776512D01*
X147739039Y-61739473D01*
X147711411Y-61703370D01*
X147683076Y-61668206D01*
X147654154Y-61633979D01*
X147624761Y-61600690D01*
X147595014Y-61568339D01*
X147565033Y-61536925D01*
X147534934Y-61506449D01*
X147389988Y-61387671D01*
X147319632Y-61330627D01*
X147284366Y-61303101D01*
X147248806Y-61276396D01*
X147212775Y-61250629D01*
X147176097Y-61225916D01*
X147138596Y-61202375D01*
X147100095Y-61180124D01*
X147060418Y-61159279D01*
X147019388Y-61139958D01*
X146976828Y-61122278D01*
X146932563Y-61106356D01*
X146730164Y-61028261D01*
X146514353Y-60959837D01*
X146284894Y-60902314D01*
X146041553Y-60856923D01*
X145784093Y-60824894D01*
X145512280Y-60807458D01*
X145225878Y-60805846D01*
X144924652Y-60821289D01*
X144608367Y-60855018D01*
X144276788Y-60908263D01*
X143929678Y-60982255D01*
X143566803Y-61078224D01*
X143187928Y-61197403D01*
X142792817Y-61341020D01*
X142381235Y-61510307D01*
X141952947Y-61706496D01*
X141949069Y-61706380D01*
X141944986Y-61706037D01*
X141940726Y-61705474D01*
X141936319Y-61704698D01*
X141931794Y-61703718D01*
X141927182Y-61702540D01*
X141922510Y-61701171D01*
X141917809Y-61699619D01*
X141913108Y-61697891D01*
X141908436Y-61695995D01*
X141903824Y-61693938D01*
X141899299Y-61691727D01*
X141894892Y-61689369D01*
X141890632Y-61686872D01*
X141886549Y-61684244D01*
X141882671Y-61681490D01*
X141879029Y-61678620D01*
X141875652Y-61675639D01*
X141872569Y-61672556D01*
X141869809Y-61669378D01*
X141867402Y-61666112D01*
X141865378Y-61662766D01*
X141863765Y-61659346D01*
X141862593Y-61655860D01*
X141861892Y-61652315D01*
X141861692Y-61648720D01*
X141862020Y-61645080D01*
X141862908Y-61641404D01*
X141864383Y-61637698D01*
X141866477Y-61633970D01*
X141869217Y-61630228D01*
X141872634Y-61626479D01*
X142604265Y-60456207D01*
X143358485Y-59285935D01*
X143746419Y-58700798D01*
X144142824Y-58115662D01*
X144548641Y-57530526D01*
X144964812Y-56945389D01*
X145011064Y-56877086D01*
X145051992Y-56807339D01*
X145087684Y-56736347D01*
X145118229Y-56664308D01*
X145143715Y-56591419D01*
X145164231Y-56517877D01*
X145179864Y-56443882D01*
X145190702Y-56369630D01*
X145196835Y-56295319D01*
X145198350Y-56221148D01*
X145195335Y-56147314D01*
X145187879Y-56074014D01*
X145176070Y-56001447D01*
X145159996Y-55929811D01*
X145139745Y-55859302D01*
X145115406Y-55790120D01*
X145087067Y-55722461D01*
X145054816Y-55656524D01*
X145018741Y-55592507D01*
X144978931Y-55530607D01*
X144935474Y-55471021D01*
X144888457Y-55413949D01*
X144837970Y-55359587D01*
X144784101Y-55308133D01*
X144726937Y-55259786D01*
X144666568Y-55214742D01*
X144603080Y-55173201D01*
X144536563Y-55135359D01*
X144467105Y-55101414D01*
X144394794Y-55071565D01*
X144319718Y-55046008D01*
X144241965Y-55024943D01*
X142158192Y-54603878D01*
X140020181Y-54252029D01*
X137853699Y-53963593D01*
X135684511Y-53732768D01*
X133538383Y-53553751D01*
X131441079Y-53420742D01*
X129418367Y-53327937D01*
X127496010Y-53269535D01*
X124055428Y-53232729D01*
X121325457Y-53263909D01*
X118821846Y-53344552D01*
X118788085Y-53347489D01*
X118754589Y-53348821D01*
X118721387Y-53348585D01*
X118688509Y-53346818D01*
X118655983Y-53343557D01*
X118623840Y-53338838D01*
X118592108Y-53332697D01*
X118560818Y-53325172D01*
X118529999Y-53316299D01*
X118499679Y-53306115D01*
X118469889Y-53294656D01*
X118440658Y-53281959D01*
X118412014Y-53268061D01*
X118383989Y-53252997D01*
X118356611Y-53236806D01*
X118329909Y-53219523D01*
X118303913Y-53201185D01*
X118278652Y-53181828D01*
X118254156Y-53161490D01*
X118230455Y-53140207D01*
X118207576Y-53118016D01*
X118185551Y-53094953D01*
X118164408Y-53071054D01*
X118144177Y-53046357D01*
X118124887Y-53020898D01*
X118106568Y-52994714D01*
X118089249Y-52967842D01*
X118072959Y-52940317D01*
X118057728Y-52912177D01*
X118043586Y-52883458D01*
X118030561Y-52854197D01*
X118018683Y-52824431D01*
X118008207Y-52794313D01*
X117999349Y-52763997D01*
X117992079Y-52733520D01*
X117986368Y-52702918D01*
X117982187Y-52672228D01*
X117979505Y-52641488D01*
X117978295Y-52610732D01*
X117978525Y-52579999D01*
X117980167Y-52549324D01*
X117983192Y-52518744D01*
X117987569Y-52488296D01*
X117993271Y-52458017D01*
X118000266Y-52427943D01*
X118008526Y-52398111D01*
X118018021Y-52368556D01*
X118028723Y-52339318D01*
X118040600Y-52310430D01*
X118053625Y-52281931D01*
X118067768Y-52253857D01*
X118082999Y-52226244D01*
X118099289Y-52199130D01*
X118116608Y-52172550D01*
X118134927Y-52146542D01*
X118154217Y-52121142D01*
X118174448Y-52096386D01*
X118195591Y-52072312D01*
X118217616Y-52048956D01*
X118240494Y-52026354D01*
X118264196Y-52004544D01*
X118288692Y-51983561D01*
X118313953Y-51963443D01*
X118339949Y-51944226D01*
X120558050Y-50614073D01*
X122858918Y-49412387D01*
X125218024Y-48336356D01*
X127610837Y-47383166D01*
X130012827Y-46550004D01*
X132399463Y-45834057D01*
X134746216Y-45232511D01*
X137028554Y-44742554D01*
X139221949Y-44361372D01*
X141301870Y-44086152D01*
X143243786Y-43914081D01*
X145023167Y-43842346D01*
X146615483Y-43868133D01*
G37*
D11*
X138830470Y-69909530D03*
X137540000Y-71200000D03*
X141620470Y-72799530D03*
X140330000Y-74090000D03*
D12*
X162179356Y-84390962D03*
X162820644Y-82629038D03*
D11*
X140280470Y-71439530D03*
X138990000Y-72730000D03*
D13*
X125747785Y-46286883D03*
X124048457Y-47079293D03*
D14*
X142792364Y-42452005D03*
X140927636Y-42647995D03*
D11*
X135630470Y-66929530D03*
X134340000Y-68220000D03*
D15*
X136635000Y-103640000D03*
X158605000Y-103640000D03*
D16*
X147620000Y-103640000D03*
D17*
X163787087Y-44057087D03*
X165112913Y-45382913D03*
D18*
X166730000Y-63072500D03*
X166730000Y-64947500D03*
D11*
X137290470Y-68439530D03*
X136000000Y-69730000D03*
M02*
