G04 #@! TF.GenerationSoftware,KiCad,Pcbnew,(6.0.10-0)*
G04 #@! TF.CreationDate,2023-09-19T21:44:43+02:00*
G04 #@! TF.ProjectId,SwiftLeeds,53776966-744c-4656-9564-732e6b696361,rev?*
G04 #@! TF.SameCoordinates,Original*
G04 #@! TF.FileFunction,Soldermask,Top*
G04 #@! TF.FilePolarity,Negative*
%FSLAX46Y46*%
G04 Gerber Fmt 4.6, Leading zero omitted, Abs format (unit mm)*
G04 Created by KiCad (PCBNEW (6.0.10-0)) date 2023-09-19 21:44:43*
%MOMM*%
%LPD*%
G01*
G04 APERTURE LIST*
%ADD10C,0.000000*%
G04 APERTURE END LIST*
D10*
G36*
X146620130Y-43883581D02*
G01*
X148000852Y-44004078D01*
X149145448Y-44216472D01*
X149621533Y-44356250D01*
X150029388Y-44517948D01*
X150310368Y-44653429D01*
X150581171Y-44789730D01*
X150841974Y-44926734D01*
X151092953Y-45064325D01*
X151334285Y-45202385D01*
X151566145Y-45340796D01*
X151788712Y-45479441D01*
X152002160Y-45618204D01*
X152206666Y-45756967D01*
X152402408Y-45895612D01*
X152589561Y-46034023D01*
X152768302Y-46172083D01*
X152938808Y-46309673D01*
X153101254Y-46446678D01*
X153255818Y-46582979D01*
X153402675Y-46718460D01*
X153433372Y-46747646D01*
X153465187Y-46775192D01*
X153498061Y-46801096D01*
X153531934Y-46825360D01*
X153566749Y-46847982D01*
X153602447Y-46868964D01*
X153676253Y-46906004D01*
X153752883Y-46936479D01*
X153831865Y-46960391D01*
X153912731Y-46977739D01*
X153995008Y-46988523D01*
X154078226Y-46992743D01*
X154161915Y-46990398D01*
X154245604Y-46981490D01*
X154328822Y-46966018D01*
X154411099Y-46943981D01*
X154491965Y-46915381D01*
X154570948Y-46880216D01*
X154647579Y-46838488D01*
X155370033Y-46402459D01*
X156061898Y-46022751D01*
X156723645Y-45696611D01*
X157355743Y-45421283D01*
X157958664Y-45194013D01*
X158532879Y-45012047D01*
X159078857Y-44872630D01*
X159597069Y-44773007D01*
X160087987Y-44710424D01*
X160552080Y-44682127D01*
X160989820Y-44685360D01*
X161401676Y-44717369D01*
X161788120Y-44775401D01*
X162149622Y-44856699D01*
X162486652Y-44958510D01*
X162799682Y-45078078D01*
X162845302Y-45101502D01*
X162891686Y-45126684D01*
X162938658Y-45153506D01*
X162986042Y-45181853D01*
X163033662Y-45211606D01*
X163081340Y-45242648D01*
X163128900Y-45274863D01*
X163176167Y-45308132D01*
X163222962Y-45342339D01*
X163269111Y-45377367D01*
X163314436Y-45413098D01*
X163358761Y-45449415D01*
X163401910Y-45486201D01*
X163443706Y-45523338D01*
X163483972Y-45560710D01*
X163522533Y-45598199D01*
X163566779Y-45636177D01*
X163609202Y-45675092D01*
X163649860Y-45714945D01*
X163688812Y-45755736D01*
X163726117Y-45797464D01*
X163761834Y-45840131D01*
X163796022Y-45883735D01*
X163828738Y-45928276D01*
X163860043Y-45973756D01*
X163889995Y-46020173D01*
X163918653Y-46067527D01*
X163946076Y-46115820D01*
X163972322Y-46165050D01*
X163997450Y-46215218D01*
X164021520Y-46266323D01*
X164044590Y-46318367D01*
X164171220Y-46630235D01*
X164278321Y-46966016D01*
X164363304Y-47326177D01*
X164423580Y-47711188D01*
X164456561Y-48121518D01*
X164459659Y-48557634D01*
X164430285Y-49020007D01*
X164365851Y-49509105D01*
X164263770Y-50025397D01*
X164121451Y-50569351D01*
X163936308Y-51141437D01*
X163705751Y-51742124D01*
X163427193Y-52371880D01*
X163098045Y-53031173D01*
X162715718Y-53720474D01*
X162277626Y-54440251D01*
X162235742Y-54516157D01*
X162200447Y-54593646D01*
X162171740Y-54672424D01*
X162149622Y-54752199D01*
X162134092Y-54832676D01*
X162125151Y-54913564D01*
X162122798Y-54994569D01*
X162127033Y-55075399D01*
X162137857Y-55155759D01*
X162155270Y-55235358D01*
X162179270Y-55313901D01*
X162209860Y-55391097D01*
X162247037Y-55466651D01*
X162268097Y-55503722D01*
X162290804Y-55540272D01*
X162315157Y-55576265D01*
X162341158Y-55611665D01*
X162368806Y-55646436D01*
X162398101Y-55680539D01*
X162670895Y-55980843D01*
X162946511Y-56312561D01*
X163224010Y-56677100D01*
X163502451Y-57075864D01*
X163780891Y-57510262D01*
X164058390Y-57981700D01*
X164334007Y-58491584D01*
X164470815Y-58761383D01*
X164606800Y-59041322D01*
X164916016Y-59921546D01*
X165134112Y-61060698D01*
X165258439Y-62434514D01*
X165286352Y-64018732D01*
X165215203Y-65789088D01*
X165042344Y-67721319D01*
X164765130Y-69791162D01*
X164380911Y-71974353D01*
X163887043Y-74246630D01*
X163280876Y-76583729D01*
X162559765Y-78961388D01*
X161721061Y-81355342D01*
X160762119Y-83741329D01*
X159680290Y-86095086D01*
X158472928Y-88392350D01*
X157137386Y-90608857D01*
X157137386Y-90608853D01*
X157097904Y-90659480D01*
X157054951Y-90706297D01*
X157008821Y-90749246D01*
X156959810Y-90788269D01*
X156908210Y-90823307D01*
X156854315Y-90854300D01*
X156798421Y-90881191D01*
X156740821Y-90903921D01*
X156681809Y-90922431D01*
X156621679Y-90936663D01*
X156560726Y-90946558D01*
X156499244Y-90952057D01*
X156437526Y-90953102D01*
X156375867Y-90949634D01*
X156314561Y-90941595D01*
X156253902Y-90928925D01*
X156195096Y-90904115D01*
X156139231Y-90874851D01*
X156086426Y-90841367D01*
X156036797Y-90803898D01*
X155990462Y-90762678D01*
X155947539Y-90717941D01*
X155908145Y-90669922D01*
X155872399Y-90618856D01*
X155840418Y-90564977D01*
X155812319Y-90508518D01*
X155788220Y-90449716D01*
X155768239Y-90388803D01*
X155752493Y-90326015D01*
X155741101Y-90261587D01*
X155734179Y-90195751D01*
X155731845Y-90128743D01*
X155812790Y-87651261D01*
X155844085Y-84932081D01*
X155807143Y-81501639D01*
X155655374Y-77566704D01*
X155342188Y-73334048D01*
X155110504Y-71170691D01*
X154820994Y-69010442D01*
X154467835Y-66879150D01*
X154045204Y-64802659D01*
X154024060Y-64721674D01*
X153998408Y-64643803D01*
X153968448Y-64569112D01*
X153934377Y-64497666D01*
X153896394Y-64429531D01*
X153854698Y-64364773D01*
X153809487Y-64303459D01*
X153760960Y-64245654D01*
X153709315Y-64191424D01*
X153654751Y-64140835D01*
X153597466Y-64093952D01*
X153537659Y-64050843D01*
X153475528Y-64011572D01*
X153411272Y-63976206D01*
X153345090Y-63944811D01*
X153277180Y-63917452D01*
X153207740Y-63894196D01*
X153136969Y-63875109D01*
X153065066Y-63860255D01*
X152992229Y-63849702D01*
X152918657Y-63843515D01*
X152844548Y-63841761D01*
X152770101Y-63844505D01*
X152695513Y-63851812D01*
X152620985Y-63863750D01*
X152546714Y-63880383D01*
X152472899Y-63901779D01*
X152399739Y-63928002D01*
X152327431Y-63959119D01*
X152256175Y-63995196D01*
X152186168Y-64036298D01*
X152117611Y-64082492D01*
X151530298Y-64497120D01*
X150942986Y-64901433D01*
X150355673Y-65296368D01*
X149768361Y-65682864D01*
X148593734Y-66434288D01*
X147419105Y-67163207D01*
X147415342Y-67163091D01*
X147411585Y-67162748D01*
X147407844Y-67162185D01*
X147404125Y-67161410D01*
X147400435Y-67160429D01*
X147396781Y-67159251D01*
X147393172Y-67157882D01*
X147389615Y-67156331D01*
X147386116Y-67154603D01*
X147382683Y-67152707D01*
X147379324Y-67150650D01*
X147376046Y-67148439D01*
X147372856Y-67146081D01*
X147369761Y-67143584D01*
X147366770Y-67140955D01*
X147363889Y-67138202D01*
X147361125Y-67135332D01*
X147358487Y-67132351D01*
X147355981Y-67129268D01*
X147353614Y-67126090D01*
X147351395Y-67122824D01*
X147349330Y-67119478D01*
X147347427Y-67116058D01*
X147345693Y-67112572D01*
X147344135Y-67109027D01*
X147342761Y-67105431D01*
X147341579Y-67101792D01*
X147340594Y-67098115D01*
X147339816Y-67094410D01*
X147339251Y-67090682D01*
X147338907Y-67086939D01*
X147338791Y-67083190D01*
X147535709Y-66663522D01*
X147705627Y-66259561D01*
X147849779Y-65871073D01*
X147969401Y-65497822D01*
X148065727Y-65139575D01*
X148139995Y-64796096D01*
X148193438Y-64467153D01*
X148227292Y-64152509D01*
X148242792Y-63851931D01*
X148241174Y-63565185D01*
X148223674Y-63292036D01*
X148191526Y-63032249D01*
X148145966Y-62785590D01*
X148088229Y-62551824D01*
X148019550Y-62330718D01*
X147941166Y-62122037D01*
X147925184Y-62077495D01*
X147907438Y-62033891D01*
X147888045Y-61991225D01*
X147867123Y-61949497D01*
X147844788Y-61908706D01*
X147821160Y-61868853D01*
X147796355Y-61829938D01*
X147770491Y-61791960D01*
X147743686Y-61754921D01*
X147716058Y-61718818D01*
X147687723Y-61683654D01*
X147658801Y-61649427D01*
X147629408Y-61616138D01*
X147599661Y-61583787D01*
X147569680Y-61552373D01*
X147539581Y-61521897D01*
X147394635Y-61403119D01*
X147324279Y-61346075D01*
X147289013Y-61318549D01*
X147253453Y-61291844D01*
X147217422Y-61266077D01*
X147180744Y-61241364D01*
X147143243Y-61217823D01*
X147104742Y-61195572D01*
X147065065Y-61174727D01*
X147024035Y-61155406D01*
X146981475Y-61137726D01*
X146937210Y-61121804D01*
X146734811Y-61043709D01*
X146519000Y-60975285D01*
X146289541Y-60917762D01*
X146046200Y-60872371D01*
X145788740Y-60840342D01*
X145516927Y-60822906D01*
X145230525Y-60821294D01*
X144929299Y-60836737D01*
X144613014Y-60870466D01*
X144281435Y-60923711D01*
X143934325Y-60997703D01*
X143571450Y-61093672D01*
X143192575Y-61212851D01*
X142797464Y-61356468D01*
X142385882Y-61525755D01*
X141957594Y-61721944D01*
X141953716Y-61721828D01*
X141949633Y-61721485D01*
X141945373Y-61720922D01*
X141940966Y-61720146D01*
X141936441Y-61719166D01*
X141931829Y-61717988D01*
X141927157Y-61716619D01*
X141922456Y-61715067D01*
X141917755Y-61713339D01*
X141913083Y-61711443D01*
X141908471Y-61709386D01*
X141903946Y-61707175D01*
X141899539Y-61704817D01*
X141895279Y-61702320D01*
X141891196Y-61699692D01*
X141887318Y-61696938D01*
X141883676Y-61694068D01*
X141880299Y-61691087D01*
X141877216Y-61688004D01*
X141874456Y-61684826D01*
X141872049Y-61681560D01*
X141870025Y-61678214D01*
X141868412Y-61674794D01*
X141867240Y-61671308D01*
X141866539Y-61667763D01*
X141866339Y-61664168D01*
X141866667Y-61660528D01*
X141867555Y-61656852D01*
X141869030Y-61653146D01*
X141871124Y-61649418D01*
X141873864Y-61645676D01*
X141877281Y-61641927D01*
X142608912Y-60471655D01*
X143363132Y-59301383D01*
X143751066Y-58716246D01*
X144147471Y-58131110D01*
X144553288Y-57545974D01*
X144969459Y-56960837D01*
X145015711Y-56892534D01*
X145056639Y-56822787D01*
X145092331Y-56751795D01*
X145122876Y-56679756D01*
X145148362Y-56606867D01*
X145168878Y-56533325D01*
X145184511Y-56459330D01*
X145195349Y-56385078D01*
X145201482Y-56310767D01*
X145202997Y-56236596D01*
X145199982Y-56162762D01*
X145192526Y-56089462D01*
X145180717Y-56016895D01*
X145164643Y-55945259D01*
X145144392Y-55874750D01*
X145120053Y-55805568D01*
X145091714Y-55737909D01*
X145059463Y-55671972D01*
X145023388Y-55607955D01*
X144983578Y-55546055D01*
X144940121Y-55486469D01*
X144893104Y-55429397D01*
X144842617Y-55375035D01*
X144788748Y-55323581D01*
X144731584Y-55275234D01*
X144671215Y-55230190D01*
X144607727Y-55188649D01*
X144541210Y-55150807D01*
X144471752Y-55116862D01*
X144399441Y-55087013D01*
X144324365Y-55061456D01*
X144246612Y-55040391D01*
X142162839Y-54619326D01*
X140024828Y-54267477D01*
X137858346Y-53979041D01*
X135689158Y-53748216D01*
X133543030Y-53569199D01*
X131445726Y-53436190D01*
X129423014Y-53343385D01*
X127500657Y-53284983D01*
X124060075Y-53248177D01*
X121330104Y-53279357D01*
X118826493Y-53360000D01*
X118792732Y-53362937D01*
X118759236Y-53364269D01*
X118726034Y-53364033D01*
X118693156Y-53362266D01*
X118660630Y-53359005D01*
X118628487Y-53354286D01*
X118596755Y-53348145D01*
X118565465Y-53340620D01*
X118534646Y-53331747D01*
X118504326Y-53321563D01*
X118474536Y-53310104D01*
X118445305Y-53297407D01*
X118416661Y-53283509D01*
X118388636Y-53268445D01*
X118361258Y-53252254D01*
X118334556Y-53234971D01*
X118308560Y-53216633D01*
X118283299Y-53197276D01*
X118258803Y-53176938D01*
X118235102Y-53155655D01*
X118212223Y-53133464D01*
X118190198Y-53110401D01*
X118169055Y-53086502D01*
X118148824Y-53061805D01*
X118129534Y-53036346D01*
X118111215Y-53010162D01*
X118093896Y-52983290D01*
X118077606Y-52955765D01*
X118062375Y-52927625D01*
X118048233Y-52898906D01*
X118035208Y-52869645D01*
X118023330Y-52839879D01*
X118012854Y-52809761D01*
X118003996Y-52779445D01*
X117996726Y-52748968D01*
X117991015Y-52718366D01*
X117986834Y-52687676D01*
X117984152Y-52656936D01*
X117982942Y-52626180D01*
X117983172Y-52595447D01*
X117984814Y-52564772D01*
X117987839Y-52534192D01*
X117992216Y-52503744D01*
X117997918Y-52473465D01*
X118004913Y-52443391D01*
X118013173Y-52413559D01*
X118022668Y-52384004D01*
X118033370Y-52354766D01*
X118045247Y-52325878D01*
X118058272Y-52297379D01*
X118072415Y-52269305D01*
X118087646Y-52241692D01*
X118103936Y-52214578D01*
X118121255Y-52187998D01*
X118139574Y-52161990D01*
X118158864Y-52136590D01*
X118179095Y-52111834D01*
X118200238Y-52087760D01*
X118222263Y-52064404D01*
X118245141Y-52041802D01*
X118268843Y-52019992D01*
X118293339Y-51999009D01*
X118318600Y-51978891D01*
X118344596Y-51959674D01*
X120562697Y-50629521D01*
X122863565Y-49427835D01*
X125222671Y-48351804D01*
X127615484Y-47398614D01*
X130017474Y-46565452D01*
X132404110Y-45849505D01*
X134750863Y-45247959D01*
X137033201Y-44758002D01*
X139226596Y-44376820D01*
X141306517Y-44101600D01*
X143248433Y-43929529D01*
X145027814Y-43857794D01*
X146620130Y-43883581D01*
G37*
M02*
