G04 #@! TF.GenerationSoftware,KiCad,Pcbnew,(6.0.10-0)*
G04 #@! TF.CreationDate,2023-09-18T23:16:47+02:00*
G04 #@! TF.ProjectId,SwiftLeeds,53776966-744c-4656-9564-732e6b696361,rev?*
G04 #@! TF.SameCoordinates,Original*
G04 #@! TF.FileFunction,Copper,L2,Bot*
G04 #@! TF.FilePolarity,Positive*
%FSLAX46Y46*%
G04 Gerber Fmt 4.6, Leading zero omitted, Abs format (unit mm)*
G04 Created by KiCad (PCBNEW (6.0.10-0)) date 2023-09-18 23:16:47*
%MOMM*%
%LPD*%
G01*
G04 APERTURE LIST*
G04 Aperture macros list*
%AMRoundRect*
0 Rectangle with rounded corners*
0 $1 Rounding radius*
0 $2 $3 $4 $5 $6 $7 $8 $9 X,Y pos of 4 corners*
0 Add a 4 corners polygon primitive as box body*
4,1,4,$2,$3,$4,$5,$6,$7,$8,$9,$2,$3,0*
0 Add four circle primitives for the rounded corners*
1,1,$1+$1,$2,$3*
1,1,$1+$1,$4,$5*
1,1,$1+$1,$6,$7*
1,1,$1+$1,$8,$9*
0 Add four rect primitives between the rounded corners*
20,1,$1+$1,$2,$3,$4,$5,0*
20,1,$1+$1,$4,$5,$6,$7,0*
20,1,$1+$1,$6,$7,$8,$9,0*
20,1,$1+$1,$8,$9,$2,$3,0*%
G04 Aperture macros list end*
G04 #@! TA.AperFunction,SMDPad,CuDef*
%ADD10RoundRect,0.250000X-0.132583X0.503814X-0.503814X0.132583X0.132583X-0.503814X0.503814X-0.132583X0*%
G04 #@! TD*
G04 #@! TA.AperFunction,SMDPad,CuDef*
%ADD11RoundRect,0.243750X0.345367X-0.385097X0.512102X0.073003X-0.345367X0.385097X-0.512102X-0.073003X0*%
G04 #@! TD*
G04 #@! TA.AperFunction,SMDPad,CuDef*
%ADD12RoundRect,0.243750X0.028093X0.516516X-0.413732X0.310490X-0.028093X-0.516516X0.413732X-0.310490X0*%
G04 #@! TD*
G04 #@! TA.AperFunction,SMDPad,CuDef*
%ADD13RoundRect,0.243750X0.243750X0.456250X-0.243750X0.456250X-0.243750X-0.456250X0.243750X-0.456250X0*%
G04 #@! TD*
G04 #@! TA.AperFunction,SMDPad,CuDef*
%ADD14R,1.270000X5.080000*%
G04 #@! TD*
G04 #@! TA.AperFunction,SMDPad,CuDef*
%ADD15C,17.800000*%
G04 #@! TD*
G04 #@! TA.AperFunction,SMDPad,CuDef*
%ADD16RoundRect,0.243750X0.494975X0.150260X0.150260X0.494975X-0.494975X-0.150260X-0.150260X-0.494975X0*%
G04 #@! TD*
G04 #@! TA.AperFunction,SMDPad,CuDef*
%ADD17RoundRect,0.243750X0.456250X-0.243750X0.456250X0.243750X-0.456250X0.243750X-0.456250X-0.243750X0*%
G04 #@! TD*
G04 #@! TA.AperFunction,Conductor*
%ADD18C,0.250000*%
G04 #@! TD*
G04 APERTURE END LIST*
D10*
X138830470Y-69909530D03*
X137540000Y-71200000D03*
X141620470Y-72799530D03*
X140330000Y-74090000D03*
D11*
X161779356Y-84240962D03*
X162420644Y-82479038D03*
D10*
X140280470Y-71439530D03*
X138990000Y-72730000D03*
D12*
X125747785Y-46286883D03*
X124048457Y-47079293D03*
D13*
X142797500Y-42550000D03*
X140922500Y-42550000D03*
D10*
X135630470Y-66929530D03*
X134340000Y-68220000D03*
D14*
X136635000Y-103640000D03*
X158605000Y-103640000D03*
D15*
X147620000Y-103640000D03*
D16*
X164382913Y-45212913D03*
X163057087Y-43887087D03*
D17*
X165970000Y-64317500D03*
X165970000Y-62442500D03*
D10*
X137290470Y-68439530D03*
X136000000Y-69730000D03*
D18*
X165870000Y-74430000D02*
X163547771Y-76752229D01*
X163547771Y-83462229D02*
X162769038Y-84240962D01*
X164382913Y-43492913D02*
X164382913Y-45312913D01*
X163547771Y-76752229D02*
X163547771Y-83462229D01*
X159940000Y-86080318D02*
X159940000Y-88330000D01*
X150290000Y-44040000D02*
X160870000Y-44040000D01*
X164382913Y-45312913D02*
X164880000Y-45810000D01*
X163560000Y-42670000D02*
X164382913Y-43492913D01*
X134580000Y-44600000D02*
X137170000Y-42010000D01*
X167170000Y-63017500D02*
X165870000Y-64317500D01*
X125747785Y-46286883D02*
X127434668Y-44600000D01*
X165870000Y-64317500D02*
X165870000Y-74430000D01*
X162240000Y-42670000D02*
X163560000Y-42670000D01*
X141401834Y-41525000D02*
X142976834Y-43100000D01*
X159565000Y-106505000D02*
X150485000Y-106505000D01*
X167170000Y-60110000D02*
X167170000Y-63017500D01*
X140065000Y-41525000D02*
X141401834Y-41525000D01*
X161779356Y-84240962D02*
X159940000Y-86080318D01*
X159940000Y-88330000D02*
X159000000Y-89270000D01*
X159000000Y-94440000D02*
X159565000Y-95005000D01*
X160870000Y-44040000D02*
X162240000Y-42670000D01*
X142976834Y-43100000D02*
X149350000Y-43100000D01*
X139580000Y-42010000D02*
X140065000Y-41525000D01*
X127434668Y-44600000D02*
X134580000Y-44600000D01*
X162769038Y-84240962D02*
X161779356Y-84240962D01*
X159565000Y-95005000D02*
X159565000Y-106505000D01*
X150485000Y-106505000D02*
X147620000Y-103640000D01*
X164880000Y-45810000D02*
X164880000Y-57820000D01*
X164880000Y-57820000D02*
X167170000Y-60110000D01*
X149350000Y-43100000D02*
X150290000Y-44040000D01*
X159000000Y-89270000D02*
X159000000Y-94440000D01*
X137170000Y-42010000D02*
X139580000Y-42010000D01*
X150900000Y-59140000D02*
X162420644Y-70660644D01*
X141647678Y-68392322D02*
X150900000Y-59140000D01*
X141620470Y-68392322D02*
X141647678Y-68392322D01*
X141620470Y-72799530D02*
X141620470Y-68392322D01*
X162420644Y-70660644D02*
X162420644Y-82479038D01*
X134240235Y-71489765D02*
X134230235Y-71489765D01*
X140300000Y-74090000D02*
X138565235Y-75824765D01*
X137235235Y-74494765D02*
X138565235Y-75824765D01*
X158605000Y-96145000D02*
X156305000Y-93845000D01*
X135735235Y-73004765D02*
X133790000Y-74950000D01*
X156110000Y-93650000D02*
X156305000Y-93845000D01*
X134340000Y-68220000D02*
X132705235Y-69854765D01*
X140330000Y-74090000D02*
X140300000Y-74090000D01*
X132675235Y-69934765D02*
X132705235Y-69964765D01*
X158605000Y-103640000D02*
X158605000Y-96145000D01*
X139600000Y-81520000D02*
X139600000Y-93650000D01*
X137540000Y-71200000D02*
X137530000Y-71200000D01*
X132705235Y-69964765D02*
X134230235Y-71489765D01*
X136000000Y-69730000D02*
X134240235Y-71489765D01*
X133790000Y-74950000D02*
X133790000Y-75710000D01*
X135735235Y-72994765D02*
X137235235Y-74494765D01*
X134230235Y-71489765D02*
X135735235Y-72994765D01*
X133790000Y-75710000D02*
X139600000Y-81520000D01*
X136635000Y-103640000D02*
X136635000Y-96615000D01*
X137530000Y-71200000D02*
X135735235Y-72994765D01*
X132705235Y-69854765D02*
X132705235Y-69964765D01*
X138990000Y-72730000D02*
X138990000Y-72740000D01*
X139600000Y-93650000D02*
X156110000Y-93650000D01*
X135735235Y-72994765D02*
X135735235Y-73004765D01*
X138990000Y-72740000D02*
X137235235Y-74494765D01*
X136635000Y-96615000D02*
X139600000Y-93650000D01*
X135630470Y-66929530D02*
X140537678Y-66929530D01*
X138910000Y-47460000D02*
X124429164Y-47460000D01*
X140537678Y-66929530D02*
X149458604Y-58008604D01*
X124429164Y-47460000D02*
X124048457Y-47079293D01*
X149458604Y-58008604D02*
X138910000Y-47460000D01*
X150546802Y-52174302D02*
X140922500Y-42550000D01*
X150546802Y-57556802D02*
X150546802Y-52174302D01*
X139664074Y-68439530D02*
X144526802Y-63576802D01*
X144526802Y-63576802D02*
X150546802Y-57556802D01*
X137290470Y-68439530D02*
X139664074Y-68439530D01*
X162490000Y-44454174D02*
X163057087Y-43887087D01*
X138830470Y-69909530D02*
X145030000Y-63710000D01*
X162490000Y-46260000D02*
X162490000Y-44454174D01*
X145040000Y-63710000D02*
X162490000Y-46260000D01*
X145030000Y-63710000D02*
X145040000Y-63710000D01*
X161650698Y-58123198D02*
X165970000Y-62442500D01*
X151263198Y-58123198D02*
X161650698Y-58123198D01*
X145203198Y-64173198D02*
X145213198Y-64173198D01*
X145203198Y-64173198D02*
X145208198Y-64168198D01*
X145213198Y-64173198D02*
X151263198Y-58123198D01*
X140280470Y-71439530D02*
X140280470Y-69095926D01*
X140280470Y-69095926D02*
X145203198Y-64173198D01*
M02*
