%TF.GenerationSoftware,KiCad,Pcbnew,(6.0.10-0)*%
%TF.CreationDate,2023-09-18T23:17:23+02:00*%
%TF.ProjectId,SwiftLeeds,53776966-744c-4656-9564-732e6b696361,rev?*%
%TF.SameCoordinates,Original*%
%TF.FileFunction,Drillmap*%
%TF.FilePolarity,Positive*%
%FSLAX45Y45*%
G04 Gerber Fmt 4.5, Leading zero omitted, Abs format (unit mm)*
G04 Created by KiCad (PCBNEW (6.0.10-0)) date 2023-09-18 23:17:23*
%MOMM*%
%LPD*%
G01*
G04 APERTURE LIST*
%ADD10C,0.400165*%
%ADD11C,0.200000*%
G04 APERTURE END LIST*
D10*
X13902583Y-5745613D02*
X14041688Y-5766952D01*
X16535679Y-4327721D02*
X16508721Y-4303534D01*
X16605084Y-5571640D02*
X16597948Y-5560515D01*
X13998006Y-4105643D02*
X13881451Y-4121306D01*
X12192884Y-8370809D02*
X12204859Y-8381468D01*
X12708832Y-8810494D02*
X12724945Y-8813869D01*
X13808661Y-6115760D02*
X13807957Y-6115442D01*
X13543096Y-9236847D02*
X13528439Y-9242724D01*
X11657115Y-6504816D02*
X11592839Y-6543972D01*
X14812752Y-7201321D02*
X14821429Y-7232018D01*
X12540088Y-8715129D02*
X12552013Y-8726402D01*
X15806662Y-4179063D02*
X15780115Y-4185270D01*
X14810761Y-7041916D02*
X14806150Y-7044885D01*
X16605084Y-5571640D02*
X16605084Y-5571640D01*
X13339630Y-11237459D02*
X13340080Y-11252490D01*
X12662058Y-8795704D02*
X12677370Y-8801386D01*
X11501428Y-5429152D02*
X11509838Y-5446808D01*
X14467164Y-4070204D02*
X14467164Y-4070204D01*
X16725947Y-4940851D02*
X16729688Y-4893125D01*
X12430522Y-8516216D02*
X12434242Y-8532220D01*
X13654203Y-9216633D02*
X13637561Y-9217135D01*
X15005954Y-4127879D02*
X14966922Y-4116162D01*
X15044521Y-4141087D02*
X15005954Y-4127879D01*
X16152828Y-11241217D02*
X16154856Y-11224683D01*
X16154856Y-11224683D02*
X16156072Y-11208007D01*
X13425967Y-11444004D02*
X13436134Y-11453676D01*
X13604966Y-9220607D02*
X13589053Y-9223536D01*
X13655169Y-8670551D02*
X13655751Y-8747787D01*
X11875589Y-5663649D02*
X11875589Y-5663649D01*
X11469452Y-5296623D02*
X11471182Y-5316176D01*
X16099936Y-11379100D02*
X16108755Y-11365085D01*
X15835821Y-11529488D02*
X15852452Y-11528248D01*
X13847643Y-6074278D02*
X13842246Y-6082111D01*
X11416444Y-6730400D02*
X11410754Y-6744860D01*
X13338632Y-9477095D02*
X13335863Y-9493079D01*
X15847080Y-4170819D02*
X15806662Y-4179063D01*
X16044781Y-9092125D02*
X16118881Y-8961459D01*
X16791635Y-6038068D02*
X16786382Y-6006784D01*
X14786831Y-7125726D02*
X14787006Y-7127046D01*
X13409053Y-6028436D02*
X13353160Y-6027295D01*
X13340080Y-11252490D02*
X13341275Y-11267323D01*
X13416269Y-11433858D02*
X13425967Y-11444004D01*
X13573424Y-9227232D02*
X13558098Y-9231676D01*
X11722347Y-6467348D02*
X11657115Y-6504816D01*
X15901383Y-11519694D02*
X15917281Y-11515268D01*
X13828049Y-6100926D02*
X13825279Y-6104162D01*
X13505955Y-11500761D02*
X13518890Y-11506612D01*
X11730734Y-7239143D02*
X11743756Y-7239595D01*
X12113238Y-8264255D02*
X12121880Y-8281230D01*
X12468158Y-7243072D02*
X12563493Y-7248650D01*
X12083753Y-8173663D02*
X12087817Y-8192374D01*
X11461497Y-7100178D02*
X11469657Y-7110290D01*
X11468775Y-5257332D02*
X11468652Y-5276992D01*
X12952717Y-8779877D02*
X12977936Y-8766097D01*
X16669780Y-5680349D02*
X16654554Y-5652599D01*
X12817428Y-7327852D02*
X12786397Y-7382247D01*
X15885260Y-11523340D02*
X15901383Y-11519694D01*
X15224053Y-9038474D02*
X15223511Y-9006548D01*
X14678363Y-8556997D02*
X14645113Y-8654596D01*
X11387100Y-6866637D02*
X11386947Y-6882216D01*
X14802893Y-7170930D02*
X14812752Y-7201321D01*
X12277300Y-7235900D02*
X12372753Y-7238832D01*
X11616611Y-7214415D02*
X11628836Y-7218922D01*
X12192884Y-8370809D02*
X12192884Y-8370809D01*
X14637091Y-4071965D02*
X14594623Y-4070719D01*
X16033050Y-11453196D02*
X16045678Y-11442276D01*
X12449558Y-8579068D02*
X12455987Y-8594213D01*
X16054066Y-4152503D02*
X16012374Y-4152859D01*
X14851962Y-7420872D02*
X14854013Y-7452829D01*
X16056039Y-9242066D02*
X16047959Y-9237836D01*
X11387887Y-6851074D02*
X11387100Y-6866637D01*
X14570480Y-8846387D02*
X14529122Y-8940389D01*
X12182007Y-7839073D02*
X12168476Y-7852795D01*
X16150216Y-9370381D02*
X16148121Y-9361256D01*
X15225128Y-8942639D02*
X15228143Y-8878698D01*
X15248722Y-9166002D02*
X15242633Y-9147611D01*
X12488056Y-6158270D02*
X12343843Y-6201285D01*
X15153728Y-7088870D02*
X15137371Y-6967832D01*
X13357788Y-11337889D02*
X13363070Y-11351154D01*
X16299034Y-4190971D02*
X16259361Y-4179345D01*
X13520828Y-6035618D02*
X13520828Y-6035618D01*
X13133522Y-8600110D02*
X13133522Y-8600110D01*
X12168476Y-7852795D02*
X12155878Y-7867237D01*
X13763121Y-5726969D02*
X13902583Y-5745613D01*
X15499218Y-4287858D02*
X15450268Y-4311811D01*
X13520828Y-6035618D02*
X13464947Y-6031182D01*
X16449521Y-4260869D02*
X16413345Y-4239732D01*
X11439432Y-7067933D02*
X11446369Y-7078993D01*
X16702309Y-5082444D02*
X16712146Y-5035549D01*
X12742770Y-6096848D02*
X12633580Y-6120608D01*
X12121880Y-8281230D02*
X12131436Y-8297706D01*
X12040729Y-5656380D02*
X12068286Y-5655656D01*
X12470723Y-8623650D02*
X12478992Y-8637892D01*
X13812092Y-6115442D02*
X13811148Y-6115748D01*
X13588023Y-11526209D02*
X13602612Y-11528068D01*
X14854013Y-7452829D02*
X14856041Y-7516868D01*
X14786887Y-7124924D02*
X14786831Y-7125726D01*
X11386947Y-6882216D02*
X11387433Y-6897784D01*
X15887967Y-4164000D02*
X15847080Y-4170819D01*
X15222099Y-7918043D02*
X15217737Y-7822365D01*
X13483327Y-5697012D02*
X13623352Y-5710831D01*
X11405660Y-6759553D02*
X11401167Y-6774450D01*
X15120211Y-4171642D02*
X15082611Y-4155702D01*
X16440603Y-8252240D02*
X16484595Y-8130006D01*
X15265479Y-4246993D02*
X15229957Y-4226582D01*
X12120280Y-4665795D02*
X11996546Y-4729112D01*
X14834087Y-7850851D02*
X14820179Y-7953525D01*
X16219083Y-4169907D02*
X16178306Y-4162580D01*
X16179524Y-8846505D02*
X16237319Y-8730154D01*
X16146383Y-11273753D02*
X16150000Y-11257583D01*
X15232749Y-8663612D02*
X15234089Y-8510312D01*
X14820179Y-7953525D02*
X14803471Y-8055759D01*
X11488557Y-5141443D02*
X11483024Y-5160270D01*
X15948292Y-11504126D02*
X15963349Y-11497432D01*
X15701503Y-4207395D02*
X15649941Y-4224824D01*
X15224806Y-9054427D02*
X15224053Y-9038474D01*
X13635516Y-6050413D02*
X13617824Y-6047216D01*
X14779793Y-7098729D02*
X14780113Y-7103516D01*
X12360947Y-8457589D02*
X12376538Y-8460901D01*
X12564388Y-8737153D02*
X12577193Y-8747356D01*
X12425267Y-8483772D02*
X12427524Y-8500058D01*
X11446369Y-7078993D02*
X11453729Y-7089744D01*
X12106867Y-7948469D02*
X12099854Y-7966163D01*
X16677324Y-5175139D02*
X16690665Y-5128987D01*
X11756790Y-7239565D02*
X11756790Y-7239565D01*
X15966600Y-9218419D02*
X15966600Y-9218419D01*
X15157311Y-4188824D02*
X15120211Y-4171642D01*
X14927438Y-4106019D02*
X14887513Y-4097531D01*
X16126914Y-9310536D02*
X16122047Y-9302864D01*
X16156072Y-11208007D02*
X16156464Y-11191219D01*
X11392768Y-6944155D02*
X11395855Y-6959410D01*
X16131419Y-9318451D02*
X16126914Y-9310536D01*
X13062222Y-5667577D02*
X13202712Y-5675574D01*
X16105392Y-9281421D02*
X16099195Y-9274836D01*
X16154054Y-9408371D02*
X16153798Y-9398673D01*
X12078382Y-8135707D02*
X12080608Y-8154757D01*
X12509550Y-5651744D02*
X12715995Y-5654767D01*
X11474622Y-5198654D02*
X11471766Y-5218114D01*
X11540968Y-5496800D02*
X11540968Y-5496800D01*
X13547172Y-8083356D02*
X13616447Y-8043214D01*
X11487095Y-7129521D02*
X11496342Y-7138627D01*
X11388562Y-6913315D02*
X11390339Y-6928781D01*
X14821429Y-7232018D02*
X14828982Y-7262991D01*
X12095860Y-5655354D02*
X12302714Y-5651974D01*
X13623352Y-5710831D02*
X13763121Y-5726969D01*
X13789709Y-6105367D02*
X13771927Y-6096241D01*
X12772350Y-8819190D02*
X12786825Y-8819606D01*
X13616447Y-8043214D02*
X13627076Y-8149129D01*
X14552133Y-4070098D02*
X14467164Y-4070204D01*
X12407981Y-8465792D02*
X12423770Y-8467381D01*
X16699438Y-4606403D02*
X16688226Y-4571659D01*
X16344482Y-8493550D02*
X16393908Y-8373447D01*
X11421311Y-7032959D02*
X11421311Y-7032959D01*
X13333883Y-9509318D02*
X13332711Y-9525793D01*
X14791792Y-7140879D02*
X14802893Y-7170930D01*
X13847643Y-6074278D02*
X13847643Y-6074278D01*
X16745916Y-5854019D02*
X16735177Y-5824282D01*
X11732967Y-5638557D02*
X11756024Y-5646025D01*
X15401948Y-4336913D02*
X15368698Y-4313357D01*
X13486732Y-9264390D02*
X13473653Y-9272889D01*
X15137371Y-6967832D02*
X15119466Y-6847484D01*
X15193897Y-4207165D02*
X15157311Y-4188824D01*
X11526013Y-7163832D02*
X11536495Y-7171507D01*
X14787501Y-7129054D02*
X14788405Y-7131917D01*
X11529573Y-6584844D02*
X11517086Y-6594408D01*
X15234777Y-9119225D02*
X15232549Y-9109585D01*
X11529297Y-5052889D02*
X11519426Y-5069695D01*
X13472493Y-8126213D02*
X13477588Y-8122961D01*
X12692968Y-8806324D02*
X12708832Y-8810494D01*
X16720062Y-4988338D02*
X16725947Y-4940851D01*
X11923260Y-6364781D02*
X11855472Y-6397360D01*
X13534089Y-4183378D02*
X13304777Y-4236552D01*
X12423770Y-8467381D02*
X12423770Y-8467381D01*
X12372753Y-7238832D02*
X12468158Y-7243072D01*
X12658736Y-7255592D02*
X12753863Y-7263929D01*
X11502256Y-5104761D02*
X11494970Y-5122924D01*
X11646191Y-5596137D02*
X11666911Y-5608589D01*
X12087817Y-8192374D02*
X12092798Y-8210840D01*
X13332368Y-9542483D02*
X13339630Y-11237459D01*
X11510411Y-5087002D02*
X11502256Y-5104761D01*
X11710377Y-5629817D02*
X11732967Y-5638557D01*
X16560878Y-4353629D02*
X16535679Y-4327721D01*
X13830873Y-6097448D02*
X13828049Y-6100926D01*
X13086560Y-8672478D02*
X13103967Y-8649506D01*
X16545841Y-5484067D02*
X16567922Y-5441715D01*
X11494970Y-5122924D02*
X11488557Y-5141443D01*
X13351465Y-9430886D02*
X13346452Y-9445979D01*
X16259361Y-4179345D02*
X16219083Y-4169907D01*
X16118881Y-8961459D02*
X16118881Y-8961459D01*
X14041688Y-5766952D02*
X13992661Y-5843460D01*
X15232549Y-9109585D02*
X15230539Y-9099871D01*
X13754521Y-6088004D02*
X13737399Y-6080600D01*
X11607167Y-5567643D02*
X11626250Y-5582482D01*
X12003910Y-7233861D02*
X12045113Y-7233431D01*
X13561699Y-6039610D02*
X13520828Y-6035618D01*
X14787555Y-7123961D02*
X14787337Y-7124210D01*
X13437165Y-9301926D02*
X13425987Y-9312718D01*
X16813053Y-6397531D02*
X16811152Y-6277487D01*
X12261057Y-7781970D02*
X12196473Y-7826122D01*
X15976269Y-9218778D02*
X15966600Y-9218419D01*
X13686824Y-6062802D02*
X13669925Y-6058149D01*
X13477588Y-8122961D02*
X13547172Y-8083356D01*
X16130912Y-11320804D02*
X16136827Y-11305391D01*
X12528630Y-8703357D02*
X12540088Y-8715129D01*
X16808330Y-6217524D02*
X16804178Y-6157623D01*
X16142652Y-9343535D02*
X16139300Y-9334962D01*
X15242633Y-9147611D02*
X15239831Y-9138246D01*
X14789915Y-7059281D02*
X14788277Y-7061557D01*
X12647049Y-8789301D02*
X12662058Y-8795704D01*
X11487520Y-5392641D02*
X11493991Y-5411080D01*
X14389027Y-9213689D02*
X14389027Y-9213689D01*
X11404019Y-6989456D02*
X11409105Y-7004193D01*
X13415334Y-9324032D02*
X13405228Y-9335848D01*
X11996546Y-4729112D02*
X11874819Y-4796161D01*
X15368698Y-4313357D02*
X15334862Y-4290463D01*
X15548808Y-4265248D02*
X15499218Y-4287858D01*
X11626250Y-5582482D02*
X11646191Y-5596137D01*
X13737399Y-6080600D02*
X13720470Y-6073970D01*
X11469657Y-7110290D02*
X11478195Y-7120073D01*
X12517658Y-8691113D02*
X12528630Y-8703357D01*
X14820160Y-7036078D02*
X14810761Y-7041916D01*
X13481124Y-11487274D02*
X13493360Y-11494309D01*
X13077592Y-4298437D02*
X12852806Y-4368410D01*
X11482889Y-6626331D02*
X11472593Y-6637959D01*
X13378386Y-9374101D02*
X13370665Y-9387718D01*
X13119660Y-8625350D02*
X13133522Y-8600110D01*
X16026043Y-9124456D02*
X16044781Y-9092125D01*
X12757845Y-8818141D02*
X12757845Y-8818141D01*
X13461018Y-9281991D02*
X13448849Y-9291677D01*
X12245791Y-4606009D02*
X12120280Y-4665795D01*
X13944046Y-5920222D02*
X13847643Y-6074278D01*
X14779683Y-7094216D02*
X14779793Y-7098729D01*
X13335863Y-9493079D02*
X13333883Y-9509318D01*
X16092694Y-9268553D02*
X16085901Y-9262583D01*
X15300452Y-4268314D02*
X15265479Y-4246993D01*
X14529122Y-8940389D02*
X14485085Y-9033004D01*
X12061025Y-6304307D02*
X11991796Y-6333773D01*
X11399604Y-6974519D02*
X11404019Y-6989456D01*
X15987122Y-9187742D02*
X16006880Y-9156375D01*
X16013526Y-9224867D02*
X16004448Y-9222670D01*
X16508721Y-4303534D02*
X16480002Y-4281204D01*
X12315075Y-8444124D02*
X12330185Y-8449205D01*
X14853455Y-7644559D02*
X14845183Y-7747831D01*
X12345486Y-8453692D02*
X12360947Y-8457589D01*
X12141904Y-8313631D02*
X12153284Y-8328954D01*
X12077076Y-8116564D02*
X12078382Y-8135707D01*
X16731173Y-4845199D02*
X16730290Y-4797110D01*
X16791635Y-6038068D02*
X16791635Y-6038068D01*
X12392226Y-8463634D02*
X12407981Y-8465792D01*
X14780113Y-7103516D02*
X14780653Y-7108588D01*
X14114890Y-4092624D02*
X13998006Y-4105643D01*
X11788484Y-6431539D02*
X11722347Y-6467348D01*
X13304777Y-4236552D02*
X13077592Y-4298437D01*
X13617824Y-6047216D02*
X13599684Y-6044388D01*
X13649542Y-8472468D02*
X13651685Y-8532114D01*
X16031142Y-9230538D02*
X16022428Y-9227493D01*
X11410754Y-6744860D02*
X11405660Y-6759553D01*
X16690665Y-5128987D02*
X16702309Y-5082444D01*
X11704790Y-7236816D02*
X11717741Y-7238214D01*
X16722655Y-4713019D02*
X16716651Y-4677220D01*
X12926608Y-8791778D02*
X12952717Y-8779877D01*
X13353160Y-6027295D02*
X13297285Y-6027675D01*
X13589053Y-9223536D02*
X13573424Y-9227232D01*
X13649542Y-8472468D02*
X13649542Y-8472468D01*
X15082611Y-4155702D02*
X15044521Y-4141087D01*
X16122047Y-9302864D02*
X16116830Y-9295446D01*
X16012374Y-4152859D02*
X15970722Y-4154944D01*
X11930615Y-5661376D02*
X11985654Y-5658670D01*
X12872189Y-8809542D02*
X12899726Y-8801699D01*
X13815226Y-6113707D02*
X13813088Y-6114996D01*
X13341275Y-11267323D02*
X13343197Y-11281941D01*
X13819999Y-6109713D02*
X13817538Y-6111929D01*
X12715995Y-5654767D02*
X12921679Y-5661145D01*
X16151868Y-9379666D02*
X16150216Y-9370381D01*
X14806390Y-4085856D02*
X14764188Y-4080782D01*
X11547249Y-7178809D02*
X11558259Y-7185731D01*
X13807957Y-6115442D02*
X13807957Y-6115442D01*
X11529602Y-5480680D02*
X11540968Y-5496800D01*
X15334862Y-4290463D02*
X15300452Y-4268314D01*
X12852806Y-4368410D02*
X12630691Y-4445850D01*
X12392623Y-7697268D02*
X12326511Y-7739124D01*
X13461908Y-8132288D02*
X13467257Y-8129312D01*
X12326511Y-7739124D02*
X12261057Y-7781970D01*
X11437049Y-6688686D02*
X11429597Y-6702286D01*
X16622178Y-5598232D02*
X16605084Y-5571640D01*
X13809430Y-6115913D02*
X13808661Y-6115760D01*
X16764832Y-5914346D02*
X16755811Y-5884045D01*
X13528439Y-9242724D02*
X13514145Y-9249288D01*
X14708887Y-8458389D02*
X14678363Y-8556997D01*
X13573664Y-11523638D02*
X13588023Y-11526209D01*
X16085901Y-9262583D02*
X16078828Y-9256938D01*
X12230198Y-8400870D02*
X12243500Y-8409624D01*
X13394849Y-8173517D02*
X13394849Y-8173517D01*
X12443778Y-8563671D02*
X12449558Y-8579068D01*
X16735177Y-5824282D02*
X16723621Y-5794846D01*
X15255375Y-9183886D02*
X15248722Y-9166002D01*
X11851366Y-5662812D02*
X11875589Y-5663649D01*
X13342168Y-9461388D02*
X13338632Y-9477095D01*
X11472593Y-6637959D02*
X11462856Y-6650035D01*
X12844115Y-8815207D02*
X12872189Y-8809542D01*
X13881451Y-4121306D02*
X13765257Y-4139534D01*
X13398355Y-11412224D02*
X13407059Y-11423259D01*
X13467257Y-8129312D02*
X13472493Y-8126213D01*
X11426887Y-7044910D02*
X11432933Y-7056570D01*
X13375463Y-11376687D02*
X13382539Y-11388920D01*
X16786382Y-6006784D02*
X16780146Y-5975728D01*
X11604551Y-7209489D02*
X11616611Y-7214415D01*
X14797453Y-7051392D02*
X14795438Y-7053205D01*
X15223980Y-8974601D02*
X15225128Y-8942639D01*
X11691897Y-7234955D02*
X11704790Y-7236816D01*
X16413345Y-4239732D02*
X16376133Y-4221088D01*
X12677370Y-8801386D02*
X12692968Y-8806324D01*
X16730290Y-4797110D02*
X16726927Y-4748896D01*
X16729688Y-4893125D02*
X16731173Y-4845199D01*
X15168509Y-7210468D02*
X15153728Y-7088870D01*
X12144214Y-7882349D02*
X12133481Y-7898078D01*
X12455987Y-8594213D02*
X12463048Y-8609082D01*
X13810260Y-6115907D02*
X13809430Y-6115913D01*
X12165574Y-8343626D02*
X12178775Y-8357594D01*
X15599046Y-4244173D02*
X15548808Y-4265248D01*
X14788405Y-7131917D02*
X14789806Y-7135803D01*
X12438667Y-8548047D02*
X12443778Y-8563671D01*
X15217737Y-7822365D02*
X15217737Y-7822365D01*
X15963349Y-11497432D02*
X15978071Y-11490005D01*
X15119466Y-6847484D02*
X15119466Y-6847484D01*
X12563493Y-7248650D02*
X12658736Y-7255592D01*
X14787111Y-7121635D02*
X14787530Y-7122841D01*
X11679077Y-7232636D02*
X11691897Y-7234955D01*
X11422727Y-6716200D02*
X11416444Y-6730400D01*
X14761706Y-8258524D02*
X14736672Y-8358866D01*
X16600654Y-7757869D02*
X16634132Y-7632259D01*
X15780115Y-4185270D02*
X15753740Y-4192077D01*
X12077228Y-8078201D02*
X12076691Y-8097378D01*
X13382539Y-11388920D02*
X13390176Y-11400771D01*
X13653223Y-9140710D02*
X13654203Y-9216633D01*
X15239831Y-9138246D02*
X15237208Y-9128782D01*
X16606011Y-4410059D02*
X16584322Y-4381121D01*
X16141988Y-11289698D02*
X16146383Y-11273753D01*
X13345828Y-11296325D02*
X13349149Y-11310456D01*
X16698168Y-5736923D02*
X16684327Y-5708462D01*
X15401948Y-4336913D02*
X15401948Y-4336913D01*
X16153798Y-9398673D02*
X16153066Y-9389101D01*
X11517086Y-6594408D02*
X11505140Y-6604528D01*
X14793505Y-7055117D02*
X14791661Y-7057138D01*
X16804178Y-6157623D02*
X16798634Y-6097798D01*
X13653229Y-9063136D02*
X13653223Y-9140710D01*
X13655751Y-8747787D02*
X13654725Y-8905326D01*
X12084378Y-8021229D02*
X12081070Y-8040076D01*
X12300189Y-8438444D02*
X12315075Y-8444124D01*
X11519426Y-5069695D02*
X11510411Y-5087002D01*
X12963226Y-6057253D02*
X12852693Y-6075507D01*
X12086337Y-7233852D02*
X12086337Y-7233852D01*
X15217737Y-7822365D02*
X15211279Y-7699894D01*
X12899726Y-8801699D02*
X12926608Y-8791778D01*
X13434443Y-8146385D02*
X13456473Y-8135172D01*
X11666911Y-5608589D02*
X11688332Y-5619822D01*
X12092798Y-8210840D02*
X12098696Y-8229009D01*
X16080219Y-11405846D02*
X16090421Y-11392697D01*
X11991796Y-6333773D02*
X11923260Y-6364781D01*
X11477455Y-5354854D02*
X11482010Y-5373883D01*
X13813088Y-6114996D02*
X13812092Y-6115442D01*
X12577193Y-8747356D02*
X12590412Y-8756988D01*
X14856041Y-7516868D02*
X14855698Y-7580863D01*
X11414868Y-7018703D02*
X11421311Y-7032959D01*
X16662398Y-5220862D02*
X16677324Y-5175139D01*
X16154054Y-9408371D02*
X16154054Y-9408371D01*
X15929217Y-4158683D02*
X15887967Y-4164000D01*
X14783976Y-8157456D02*
X14761706Y-8258524D01*
X16810374Y-6517620D02*
X16813053Y-6397531D01*
X14828982Y-7262991D02*
X14835472Y-7294208D01*
X13637561Y-9217135D02*
X13621142Y-9218467D01*
X12501226Y-4496237D02*
X12372850Y-4549557D01*
X13408365Y-8161930D02*
X13413300Y-8158524D01*
X13532147Y-11511843D02*
X13545707Y-11516437D01*
X13992661Y-5843460D02*
X13944046Y-5920222D01*
X16711275Y-5765722D02*
X16698168Y-5736923D01*
X15193223Y-7454833D02*
X15181684Y-7332499D01*
X11606131Y-4965268D02*
X11591260Y-4978057D01*
X13363070Y-11351154D02*
X13368967Y-11364093D01*
X16712146Y-5035549D02*
X16720062Y-4988338D01*
X14232066Y-4082326D02*
X14114890Y-4092624D01*
X16644137Y-4471728D02*
X16625948Y-4440307D01*
X14795438Y-7053205D02*
X14793505Y-7055117D01*
X12725684Y-7491796D02*
X12592803Y-7574486D01*
X13651685Y-8532114D02*
X13652685Y-8564065D01*
X15228973Y-8108976D02*
X15225898Y-8013769D01*
X16124254Y-11335909D02*
X16130912Y-11320804D01*
X13363591Y-9401736D02*
X13357184Y-9416132D01*
X15966600Y-9218419D02*
X15966600Y-9218419D01*
X14845492Y-7357244D02*
X14849141Y-7389000D01*
X16634132Y-7632259D02*
X16665053Y-7505991D01*
X15649941Y-4224824D02*
X15599046Y-4244173D01*
X13653367Y-8595101D02*
X13655169Y-8670551D01*
X16545841Y-5484067D02*
X16545841Y-5484067D01*
X13413300Y-8158524D02*
X13418404Y-8155297D01*
X16006880Y-9156375D02*
X16026043Y-9124456D01*
X13559552Y-11520375D02*
X13573664Y-11523638D01*
X15868941Y-11526195D02*
X15885260Y-11523340D01*
X12088610Y-8002595D02*
X12084378Y-8021229D01*
X13370665Y-9387718D02*
X13363591Y-9401736D01*
X16480002Y-4281204D02*
X16449521Y-4260869D01*
X16772953Y-5944911D02*
X16764832Y-5914346D01*
X11827220Y-5660613D02*
X11851366Y-5662812D01*
X13074250Y-6042751D02*
X12963226Y-6057253D01*
X15229916Y-8814776D02*
X15232749Y-8663612D01*
X12848854Y-7273686D02*
X12848854Y-7273686D01*
X13202712Y-5675574D02*
X13343097Y-5685322D01*
X11688332Y-5619822D02*
X11710377Y-5629817D01*
X12086337Y-7233852D02*
X12181820Y-7234250D01*
X12271210Y-8425263D02*
X12285557Y-8432158D01*
X11390339Y-6928781D02*
X11392768Y-6944155D01*
X16145596Y-9352303D02*
X16142652Y-9343535D01*
X13464947Y-6031182D02*
X13409053Y-6028436D01*
X16684327Y-5708462D02*
X16669780Y-5680349D01*
X13395687Y-9348145D02*
X13386733Y-9360903D01*
X14788277Y-7061557D02*
X14786754Y-7063978D01*
X12243500Y-8409624D02*
X12257181Y-8417754D01*
X16780146Y-5975728D02*
X16772953Y-5944911D01*
X11592670Y-7204152D02*
X11604551Y-7209489D01*
X13343097Y-5685322D02*
X13483327Y-5697012D01*
X11756790Y-7239565D02*
X11797995Y-7239559D01*
X13418404Y-8155297D02*
X13423648Y-8152218D01*
X11389303Y-6835555D02*
X11387887Y-6851074D01*
X13473653Y-9272889D02*
X13461018Y-9281991D01*
X11515816Y-7155789D02*
X11526013Y-7163832D01*
X16047959Y-9237836D02*
X16039656Y-9233990D01*
X16779815Y-6876852D02*
X16793261Y-6757413D01*
X13636194Y-8256459D02*
X13643713Y-8364480D01*
X16292296Y-8612477D02*
X16344482Y-8493550D01*
X14806150Y-7044885D02*
X14801691Y-7048013D01*
X16708913Y-4641636D02*
X16699438Y-4606403D01*
X16237319Y-8730154D02*
X16292296Y-8612477D01*
X16099195Y-9274836D02*
X16092694Y-9268553D01*
X12376538Y-8460901D02*
X12392226Y-8463634D01*
X16723621Y-5794846D02*
X16711275Y-5765722D01*
X13632406Y-11529580D02*
X15819077Y-11529902D01*
X15203098Y-7577341D02*
X15193223Y-7454833D01*
X12081070Y-8040076D02*
X12078688Y-8059084D01*
X13436134Y-11453676D02*
X13446751Y-11462858D01*
X16625948Y-4440307D02*
X16606011Y-4410059D01*
X14787006Y-7127046D02*
X14787501Y-7129054D01*
X13297285Y-6027675D02*
X13241440Y-6029495D01*
X11580985Y-7198409D02*
X11592670Y-7204152D01*
X13353142Y-11324317D02*
X13357788Y-11337889D01*
X13703642Y-6068057D02*
X13686824Y-6062802D01*
X15852452Y-11528248D02*
X15868941Y-11526195D01*
X11473847Y-5335602D02*
X11477455Y-5354854D01*
X13807957Y-6115442D02*
X13789709Y-6105367D01*
X12592803Y-7574486D02*
X12459183Y-7656087D01*
X12068286Y-5655656D02*
X12095860Y-5655354D01*
X13386733Y-9360903D02*
X13378386Y-9374101D01*
X13500236Y-9256516D02*
X13486732Y-9264390D01*
X15932926Y-11510075D02*
X15948292Y-11504126D01*
X12786397Y-7382247D02*
X12755802Y-7436888D01*
X15966600Y-9218419D02*
X15966600Y-9218419D01*
X11493739Y-6615178D02*
X11482889Y-6626331D01*
X12078688Y-8059084D02*
X12077228Y-8078201D01*
X13407059Y-11423259D02*
X13416269Y-11433858D01*
X14787530Y-7122841D02*
X14787649Y-7123561D01*
X16811152Y-6277487D02*
X16808330Y-6217524D01*
X16039656Y-9233990D02*
X16031142Y-9230538D01*
X16376133Y-4221088D02*
X16337994Y-4204860D01*
X13346452Y-9445979D02*
X13342168Y-9461388D01*
X13632406Y-11529580D02*
X13632406Y-11529580D01*
X13669925Y-6058149D02*
X13652852Y-6054038D01*
X14847160Y-4090782D02*
X14806390Y-4085856D01*
X11756024Y-5646025D02*
X11779471Y-5652202D01*
X13349149Y-11310456D02*
X13353142Y-11324317D01*
X15211279Y-7699894D02*
X15203098Y-7577341D01*
X12427524Y-8500058D02*
X12430522Y-8516216D01*
X11536495Y-7171507D02*
X11547249Y-7178809D01*
X16638677Y-5625222D02*
X16622178Y-5598232D01*
X15269966Y-9217850D02*
X15262490Y-9201192D01*
X12434242Y-8532220D02*
X12438667Y-8548047D01*
X12815621Y-8818595D02*
X12844115Y-8815207D01*
X12181820Y-7234250D02*
X12277300Y-7235900D01*
X12105509Y-8246831D02*
X12113238Y-8264255D01*
X16560987Y-5505730D02*
X16545841Y-5484067D01*
X13425987Y-9312718D02*
X13415334Y-9324032D01*
X11569509Y-7192266D02*
X11580985Y-7198409D01*
X14966922Y-4116162D02*
X14927438Y-4106019D01*
X11641210Y-7223004D02*
X11653719Y-7226654D01*
X11391344Y-6820105D02*
X11389303Y-6835555D01*
X12095860Y-5655354D02*
X12095860Y-5655354D01*
X13448849Y-9291677D02*
X13437165Y-9301926D01*
X16135552Y-9326597D02*
X16131419Y-9318451D01*
X14791792Y-7140879D02*
X14791792Y-7140879D01*
X15806662Y-4179063D02*
X15806662Y-4179063D01*
X12921679Y-5661145D02*
X12921679Y-5661145D01*
X14780061Y-7085963D02*
X14779775Y-7089964D01*
X13133522Y-8600110D02*
X13197685Y-8493480D01*
X14736672Y-8358866D02*
X14708887Y-8458389D01*
X11571885Y-5534484D02*
X11589019Y-5551638D01*
X16719347Y-7251774D02*
X16763769Y-6995810D01*
X12201359Y-6249886D02*
X12130897Y-6276355D01*
X12372850Y-4549557D02*
X12245791Y-4606009D01*
X16178306Y-4162580D02*
X16137140Y-4157288D01*
X11540016Y-5036632D02*
X11529297Y-5052889D01*
X12196473Y-7826122D02*
X12182007Y-7839073D01*
X11483024Y-5160270D02*
X11478377Y-5179356D01*
X11551579Y-5020972D02*
X11540016Y-5036632D01*
X12507190Y-8678419D02*
X12517658Y-8691113D01*
X12724945Y-8813869D02*
X12741289Y-8816427D01*
X16597948Y-5560515D02*
X16590710Y-5549456D01*
X11743756Y-7239595D02*
X11756790Y-7239565D01*
X16118881Y-8961459D02*
X16179524Y-8846505D01*
X16716651Y-4677220D02*
X16708913Y-4641636D01*
X11621814Y-4953316D02*
X11606131Y-4965268D01*
X14803471Y-8055759D02*
X14783976Y-8157456D01*
X12921679Y-5661145D02*
X13062222Y-5667577D01*
X12217308Y-8391486D02*
X12230198Y-8400870D01*
X11445080Y-6675426D02*
X11437049Y-6688686D01*
X12098696Y-8229009D02*
X12105509Y-8246831D01*
X13456473Y-8135172D02*
X13461908Y-8132288D01*
X11779471Y-5652202D02*
X11803229Y-5657070D01*
X16108755Y-11365085D02*
X16116865Y-11350679D01*
X16095691Y-4153954D02*
X16054066Y-4152503D01*
X16078828Y-9256938D02*
X16071485Y-9251628D01*
X11653719Y-7226654D02*
X11666346Y-7229867D01*
X16589091Y-5398706D02*
X16609235Y-5355079D01*
X13429003Y-8149258D02*
X13434443Y-8146385D01*
X13477588Y-8122961D02*
X13477588Y-8122961D01*
X13241440Y-6029495D02*
X13185643Y-6032669D01*
X11717741Y-7238214D02*
X11730734Y-7239143D01*
X13405228Y-9335848D02*
X13395687Y-9348145D01*
X14902203Y-6984725D02*
X14829337Y-7029751D01*
X13617413Y-11529198D02*
X13632406Y-11529580D01*
X14779775Y-7089964D02*
X14779683Y-7094216D01*
X14785356Y-7066555D02*
X14784091Y-7069301D01*
X16660577Y-4504185D02*
X16644137Y-4471728D01*
X14840955Y-7325636D02*
X14845492Y-7357244D01*
X16156464Y-11191219D02*
X16156464Y-11191219D01*
X12076691Y-8097378D02*
X12077076Y-8116564D01*
X13394849Y-8173517D02*
X13399111Y-8169396D01*
X12196473Y-7826122D02*
X12196473Y-7826122D01*
X16609235Y-5355079D02*
X16628242Y-5310870D01*
X11555842Y-5516198D02*
X11571885Y-5534484D01*
X14438383Y-9124135D02*
X14389027Y-9213689D01*
X16337994Y-4204860D02*
X16299034Y-4190971D01*
X15230539Y-9099871D02*
X15228758Y-9090092D01*
X14789806Y-7135803D02*
X14791792Y-7140879D01*
X13423648Y-8152218D02*
X13429003Y-8149258D01*
X12330185Y-8449205D02*
X12345486Y-8453692D01*
X12487839Y-8651784D02*
X12507190Y-8678419D01*
X13399111Y-8169396D02*
X13403626Y-8165543D01*
X15229957Y-4226582D02*
X15193897Y-4207165D01*
X11505921Y-7147385D02*
X11515816Y-7155789D01*
X14389027Y-9213689D02*
X15269966Y-9217850D01*
X11505140Y-6604528D02*
X11493739Y-6615178D01*
X14780653Y-7108588D02*
X14785016Y-7117091D01*
X13654203Y-9216633D02*
X13654203Y-9216633D01*
X12114809Y-7931189D02*
X12106867Y-7948469D01*
X16045678Y-11442276D02*
X16057805Y-11430693D01*
X14835472Y-7294208D02*
X14840955Y-7325636D01*
X13545707Y-11516437D02*
X13559552Y-11520375D01*
X13621142Y-9218467D02*
X13604966Y-9220607D01*
X13514145Y-9249288D02*
X13500236Y-9256516D01*
X12123680Y-7914375D02*
X12114809Y-7931189D01*
X12459183Y-7656087D02*
X12392623Y-7697268D01*
X11855472Y-6397360D02*
X11788484Y-6431539D01*
X16004448Y-9222670D02*
X15995204Y-9220915D01*
X16006398Y-11472998D02*
X16019947Y-11463441D01*
X14785016Y-7117091D02*
X14786302Y-7119774D01*
X13771927Y-6096241D02*
X13754521Y-6088004D01*
X15233655Y-8356325D02*
X15231162Y-8203099D01*
X12045113Y-7233431D02*
X12086337Y-7233852D01*
X16111274Y-9288295D02*
X16105392Y-9281421D01*
X12478992Y-8637892D02*
X12487839Y-8651784D01*
X13390176Y-11400771D02*
X13398355Y-11412224D01*
X12133481Y-7898078D02*
X12123680Y-7914375D01*
X16137140Y-4157288D02*
X16095691Y-4153954D01*
X14609147Y-8751090D02*
X14570480Y-8846387D01*
X11591260Y-4978057D02*
X11577207Y-4991636D01*
X13558098Y-9231676D02*
X13543096Y-9236847D01*
X16755811Y-5884045D02*
X16745916Y-5854019D01*
X14787337Y-7124210D02*
X14787085Y-7124475D01*
X11387433Y-6897784D02*
X11388562Y-6913315D01*
X15992430Y-11481856D02*
X16006398Y-11472998D01*
X13493360Y-11494309D02*
X13505955Y-11500761D01*
X16069343Y-11418521D02*
X16080219Y-11405846D01*
X16798634Y-6097798D02*
X16791635Y-6038068D01*
X12725684Y-7491796D02*
X12725684Y-7491796D01*
X16063885Y-9246667D02*
X16056039Y-9242066D01*
X11468652Y-5276992D02*
X11469452Y-5296623D01*
X15225935Y-9070372D02*
X15224806Y-9054427D01*
X11493991Y-5411080D02*
X11501428Y-5429152D01*
X13103967Y-8649506D02*
X13119660Y-8625350D01*
X13654725Y-8905326D02*
X13653229Y-9063136D01*
X15231162Y-8203099D02*
X15231162Y-8203099D01*
X16665053Y-7505991D02*
X16719347Y-7251774D01*
X13616447Y-8043214D02*
X13616447Y-8043214D01*
X12302714Y-5651974D02*
X12509550Y-5651744D01*
X14041688Y-5766952D02*
X14041688Y-5766952D01*
X14801691Y-7048013D02*
X14797453Y-7051392D01*
X13332711Y-9525793D02*
X13332368Y-9542483D01*
X11397281Y-6789526D02*
X11394005Y-6804754D01*
X14721892Y-4076863D02*
X14679520Y-4073969D01*
X11409105Y-7004193D02*
X11414868Y-7018703D01*
X14784091Y-7069301D02*
X14782967Y-7072226D01*
X14824811Y-7033023D02*
X14820160Y-7036078D01*
X16449521Y-4260869D02*
X16449521Y-4260869D01*
X13653367Y-8595101D02*
X13653367Y-8595101D01*
X16803612Y-6637625D02*
X16810374Y-6517620D01*
X13025233Y-8733295D02*
X13047075Y-8714472D01*
X11755328Y-4867141D02*
X11638303Y-4942251D01*
X11589019Y-5551638D02*
X11607167Y-5567643D01*
X12130897Y-6276355D02*
X12061025Y-6304307D01*
X16763769Y-6995810D02*
X16763769Y-6995810D01*
X14786754Y-7063978D02*
X14785356Y-7066555D01*
X12630691Y-4445850D02*
X12630691Y-4445850D01*
X11839184Y-7238824D02*
X11921541Y-7236221D01*
X12343843Y-6201285D02*
X12201359Y-6249886D01*
X16584322Y-4381121D02*
X16560878Y-4353629D01*
X14349502Y-4074827D02*
X14232066Y-4082326D01*
X11921541Y-7236221D02*
X12003910Y-7233861D01*
X13652852Y-6054038D02*
X13635516Y-6050413D01*
X11401167Y-6774450D02*
X11397281Y-6789526D01*
X16150000Y-11257583D02*
X16152828Y-11241217D01*
X13343197Y-11281941D02*
X13345828Y-11296325D01*
X11638303Y-4942251D02*
X11621814Y-4953316D01*
X12131436Y-8297706D02*
X12141904Y-8313631D01*
X15978071Y-11490005D02*
X15992430Y-11481856D01*
X11577207Y-4991636D02*
X11563978Y-5005958D01*
X11638303Y-4942251D02*
X11638303Y-4942251D01*
X14887513Y-4097531D02*
X14847160Y-4090782D01*
X15995204Y-9220915D02*
X15985808Y-9219614D01*
X13836593Y-6089966D02*
X13830873Y-6097448D01*
X14645113Y-8654596D02*
X14609147Y-8751090D01*
X11394005Y-6804754D02*
X11391344Y-6820105D01*
X13332368Y-9542483D02*
X13332368Y-9542483D01*
X11558259Y-7185731D02*
X11569509Y-7192266D01*
X11453729Y-7089744D02*
X11461497Y-7100178D01*
X11628836Y-7218922D02*
X11641210Y-7223004D01*
X15819077Y-11529902D02*
X15819077Y-11529902D01*
X11462856Y-6650035D02*
X11453684Y-6662533D01*
X14849141Y-7389000D02*
X14851962Y-7420872D01*
X13842246Y-6082111D02*
X13836593Y-6089966D01*
X15119466Y-6847484D02*
X14974820Y-6939287D01*
X14787649Y-7123561D02*
X14787555Y-7123961D01*
X13469265Y-11479675D02*
X13481124Y-11487274D01*
X14679520Y-4073969D02*
X14637091Y-4071965D01*
X11803229Y-5657070D02*
X11827220Y-5660613D01*
X16484595Y-8130006D02*
X16525915Y-8006816D01*
X11797995Y-7239559D02*
X11839184Y-7238824D01*
X13652685Y-8564065D02*
X13653367Y-8595101D01*
X12741289Y-8816427D02*
X12757845Y-8818141D01*
X14791661Y-7057138D02*
X14789915Y-7059281D01*
X15181684Y-7332499D02*
X15168509Y-7210468D01*
X15231162Y-8203099D02*
X15228973Y-8108976D01*
X16019947Y-11463441D02*
X16033050Y-11453196D01*
X13765257Y-4139534D02*
X13534089Y-4183378D01*
X16726927Y-4748896D02*
X16726927Y-4748896D01*
X12630691Y-4445850D02*
X12501226Y-4496237D01*
X13822588Y-6107107D02*
X13819999Y-6109713D01*
X12786825Y-8819606D02*
X12815621Y-8818595D01*
X12633580Y-6120608D02*
X12633580Y-6120608D01*
X12977936Y-8766097D02*
X13002147Y-8750537D01*
X13627076Y-8149129D02*
X13636194Y-8256459D01*
X11469815Y-5237690D02*
X11468775Y-5257332D01*
X15229350Y-8846731D02*
X15229916Y-8814776D01*
X16153066Y-9389101D02*
X16151868Y-9379666D01*
X14467164Y-4070204D02*
X14349502Y-4074827D01*
X14782967Y-7072226D02*
X14781993Y-7075344D01*
X13817538Y-6111929D02*
X13815226Y-6113707D01*
X12423770Y-8467381D02*
X12425267Y-8483772D01*
X12178775Y-8357594D02*
X12192884Y-8370809D01*
X11429597Y-6702286D02*
X11422727Y-6716200D01*
X13339630Y-11237459D02*
X13339630Y-11237459D01*
X16793261Y-6757413D02*
X16803612Y-6637625D01*
X15985808Y-9219614D02*
X15976269Y-9218778D01*
X12757845Y-8818141D02*
X12772350Y-8819190D01*
X11432933Y-7056570D02*
X11439432Y-7067933D01*
X16564592Y-7882746D02*
X16600654Y-7757869D01*
X15262490Y-9201192D02*
X15255375Y-9183886D01*
X16116830Y-9295446D02*
X16111274Y-9288295D01*
X16071485Y-9251628D02*
X16063885Y-9246667D01*
X16654554Y-5652599D02*
X16638677Y-5625222D01*
X14853455Y-7644559D02*
X14853455Y-7644559D01*
X14594623Y-4070719D02*
X14552133Y-4070098D01*
X13047075Y-8714472D02*
X13067557Y-8694166D01*
X15450268Y-4311811D02*
X15401948Y-4336913D01*
X16688226Y-4571659D02*
X16675273Y-4537541D01*
X12463048Y-8609082D02*
X12470723Y-8623650D01*
X12632362Y-8782204D02*
X12647049Y-8789301D01*
X11563978Y-5005958D02*
X11551579Y-5020972D01*
X15753740Y-4192077D02*
X15727537Y-4199460D01*
X16646000Y-5266118D02*
X16662398Y-5220862D01*
X15966600Y-9218419D02*
X15987122Y-9187742D01*
X11666346Y-7229867D02*
X11679077Y-7232636D01*
X13197685Y-8493480D02*
X13262877Y-8387054D01*
X13602612Y-11528068D02*
X13617413Y-11529198D01*
X13811148Y-6115748D02*
X13810260Y-6115907D01*
X13518890Y-11506612D02*
X13532147Y-11511843D01*
X16139300Y-9334962D02*
X16135552Y-9326597D01*
X15228758Y-9090092D02*
X15227219Y-9080256D01*
X13357184Y-9416132D02*
X13351465Y-9430886D01*
X16675273Y-4537541D02*
X16660577Y-4504185D01*
X16136827Y-11305391D02*
X16141988Y-11289698D01*
X12590412Y-8756988D02*
X12604025Y-8766022D01*
X14786302Y-7119774D02*
X14787111Y-7121635D01*
X12155878Y-7867237D02*
X12144214Y-7882349D01*
X13446751Y-11462858D02*
X13457801Y-11471530D01*
X16567922Y-5441715D02*
X16589091Y-5398706D01*
X12852693Y-6075507D02*
X12742770Y-6096848D01*
X15237208Y-9128782D02*
X15234777Y-9119225D01*
X13002147Y-8750537D02*
X13025233Y-8733295D01*
X16393908Y-8373447D02*
X16440603Y-8252240D01*
X13332368Y-9542483D02*
X13332368Y-9542483D01*
X13368967Y-11364093D02*
X13375463Y-11376687D01*
X14781179Y-7078665D02*
X14780532Y-7082200D01*
X15223511Y-9006548D02*
X15223980Y-8974601D01*
X15970722Y-4154944D02*
X15929217Y-4158683D01*
X11471766Y-5218114D02*
X11469815Y-5237690D01*
X16116865Y-11350679D02*
X16124254Y-11335909D01*
X14845183Y-7747831D02*
X14834087Y-7850851D01*
X13643713Y-8364480D02*
X13649542Y-8472468D01*
X16022428Y-9227493D02*
X16013526Y-9224867D01*
X12633580Y-6120608D02*
X12488056Y-6158270D01*
X11478195Y-7120073D02*
X11487095Y-7129521D01*
X11519227Y-5464000D02*
X11529602Y-5480680D01*
X13262877Y-8387054D02*
X13394849Y-8173517D01*
X15227219Y-9080256D02*
X15225935Y-9070372D01*
X12753863Y-7263929D02*
X12848854Y-7273686D01*
X14780532Y-7082200D02*
X14780061Y-7085963D01*
X14485085Y-9033004D02*
X14438383Y-9124135D01*
X12204859Y-8381468D02*
X12217308Y-8391486D01*
X13599684Y-6044388D02*
X13561699Y-6039610D01*
X15917281Y-11515268D02*
X15932926Y-11510075D01*
X11540968Y-5496800D02*
X11555842Y-5516198D01*
X13185643Y-6032669D02*
X13074250Y-6042751D01*
X12848854Y-7273686D02*
X12817428Y-7327852D01*
X16090421Y-11392697D02*
X16099936Y-11379100D01*
X11985654Y-5658670D02*
X12040729Y-5656380D01*
X12285557Y-8432158D02*
X12300189Y-8438444D01*
X16726927Y-4748896D02*
X16722655Y-4713019D01*
X15225898Y-8013769D02*
X15222099Y-7918043D01*
X14974820Y-6939287D02*
X14902203Y-6984725D01*
X14781993Y-7075344D02*
X14781179Y-7078665D01*
X14787085Y-7124475D02*
X14786887Y-7124924D01*
X11395855Y-6959410D02*
X11399604Y-6974519D01*
X12257181Y-8417754D02*
X12271210Y-8425263D01*
X16590710Y-5549456D02*
X16575978Y-5527506D01*
X13457801Y-11471530D02*
X13469265Y-11479675D01*
X12093769Y-7984222D02*
X12088610Y-8002595D01*
X11421311Y-7032959D02*
X11426887Y-7044910D01*
X12618014Y-8774436D02*
X12632362Y-8782204D01*
X16628242Y-5310870D02*
X16646000Y-5266118D01*
X11529573Y-6584844D02*
X11529573Y-6584844D01*
X11453684Y-6662533D02*
X11445080Y-6675426D01*
X13403626Y-8165543D02*
X13408365Y-8161930D01*
X12099854Y-7966163D02*
X12093769Y-7984222D01*
X13067557Y-8694166D02*
X13086560Y-8672478D01*
X14829337Y-7029751D02*
X14824811Y-7033023D01*
X15819077Y-11529902D02*
X15835821Y-11529488D01*
X12755802Y-7436888D02*
X12725684Y-7491796D01*
X12153284Y-8328954D02*
X12165574Y-8343626D01*
X16057805Y-11430693D02*
X16069343Y-11418521D01*
X16575978Y-5527506D02*
X16560987Y-5505730D01*
X11478377Y-5179356D02*
X11474622Y-5198654D01*
X13720470Y-6073970D02*
X13703642Y-6068057D01*
X14764188Y-4080782D02*
X14721892Y-4076863D01*
X11471182Y-5316176D02*
X11473847Y-5335602D01*
X14829337Y-7029751D02*
X14829337Y-7029751D01*
X16057805Y-11430693D02*
X16057805Y-11430693D01*
X14780653Y-7108588D02*
X14780653Y-7108588D01*
X14806390Y-4085856D02*
X14806390Y-4085856D01*
X11875589Y-5663649D02*
X11930615Y-5661376D01*
X16148121Y-9361256D02*
X16145596Y-9352303D01*
X15225935Y-9070372D02*
X15225935Y-9070372D01*
X12604025Y-8766022D02*
X12618014Y-8774436D01*
X11592839Y-6543972D02*
X11529573Y-6584844D01*
X12080608Y-8154757D02*
X12083753Y-8173663D01*
X11496342Y-7138627D02*
X11505921Y-7147385D01*
X15229916Y-8814776D02*
X15229916Y-8814776D01*
X14855698Y-7580863D02*
X14853455Y-7644559D01*
X15234089Y-8510312D02*
X15233655Y-8356325D01*
X11482010Y-5373883D02*
X11487520Y-5392641D01*
X15228143Y-8878698D02*
X15229350Y-8846731D01*
X16525915Y-8006816D02*
X16564592Y-7882746D01*
X11874819Y-4796161D02*
X11755328Y-4867141D01*
X13825279Y-6104162D02*
X13822588Y-6107107D01*
X15727537Y-4199460D02*
X15701503Y-4207395D01*
X11509838Y-5446808D02*
X11519227Y-5464000D01*
X16156464Y-11191219D02*
X16154054Y-9408371D01*
X12552013Y-8726402D02*
X12564388Y-8737153D01*
X16763769Y-6995810D02*
X16779815Y-6876852D01*
D11*
X11624558Y-11860386D02*
X11624558Y-11660386D01*
X11672177Y-11660386D01*
X11700749Y-11669910D01*
X11719796Y-11688957D01*
X11729320Y-11708005D01*
X11738844Y-11746100D01*
X11738844Y-11774672D01*
X11729320Y-11812767D01*
X11719796Y-11831814D01*
X11700749Y-11850862D01*
X11672177Y-11860386D01*
X11624558Y-11860386D01*
X11824558Y-11860386D02*
X11824558Y-11727053D01*
X11824558Y-11765148D02*
X11834082Y-11746100D01*
X11843606Y-11736576D01*
X11862653Y-11727053D01*
X11881701Y-11727053D01*
X11948368Y-11860386D02*
X11948368Y-11727053D01*
X11948368Y-11660386D02*
X11938844Y-11669910D01*
X11948368Y-11679434D01*
X11957891Y-11669910D01*
X11948368Y-11660386D01*
X11948368Y-11679434D01*
X12072177Y-11860386D02*
X12053129Y-11850862D01*
X12043606Y-11831814D01*
X12043606Y-11660386D01*
X12176939Y-11860386D02*
X12157891Y-11850862D01*
X12148368Y-11831814D01*
X12148368Y-11660386D01*
X12405510Y-11860386D02*
X12405510Y-11660386D01*
X12472177Y-11803243D01*
X12538844Y-11660386D01*
X12538844Y-11860386D01*
X12719796Y-11860386D02*
X12719796Y-11755624D01*
X12710272Y-11736576D01*
X12691225Y-11727053D01*
X12653129Y-11727053D01*
X12634082Y-11736576D01*
X12719796Y-11850862D02*
X12700749Y-11860386D01*
X12653129Y-11860386D01*
X12634082Y-11850862D01*
X12624558Y-11831814D01*
X12624558Y-11812767D01*
X12634082Y-11793719D01*
X12653129Y-11784195D01*
X12700749Y-11784195D01*
X12719796Y-11774672D01*
X12815034Y-11727053D02*
X12815034Y-11927053D01*
X12815034Y-11736576D02*
X12834082Y-11727053D01*
X12872177Y-11727053D01*
X12891225Y-11736576D01*
X12900749Y-11746100D01*
X12910272Y-11765148D01*
X12910272Y-11822291D01*
X12900749Y-11841338D01*
X12891225Y-11850862D01*
X12872177Y-11860386D01*
X12834082Y-11860386D01*
X12815034Y-11850862D01*
X12995987Y-11841338D02*
X13005510Y-11850862D01*
X12995987Y-11860386D01*
X12986463Y-11850862D01*
X12995987Y-11841338D01*
X12995987Y-11860386D01*
X12995987Y-11736576D02*
X13005510Y-11746100D01*
X12995987Y-11755624D01*
X12986463Y-11746100D01*
X12995987Y-11736576D01*
X12995987Y-11755624D01*
M02*
