G04 #@! TF.GenerationSoftware,KiCad,Pcbnew,(6.0.10-0)*
G04 #@! TF.CreationDate,2023-09-19T21:04:42+02:00*
G04 #@! TF.ProjectId,SwiftLeeds,53776966-744c-4656-9564-732e6b696361,rev?*
G04 #@! TF.SameCoordinates,Original*
G04 #@! TF.FileFunction,Legend,Top*
G04 #@! TF.FilePolarity,Positive*
%FSLAX46Y46*%
G04 Gerber Fmt 4.6, Leading zero omitted, Abs format (unit mm)*
G04 Created by KiCad (PCBNEW (6.0.10-0)) date 2023-09-19 21:04:42*
%MOMM*%
%LPD*%
G01*
G04 APERTURE LIST*
%ADD10C,1.279921*%
%ADD11C,0.000000*%
G04 APERTURE END LIST*
D10*
X133650267Y-81823509D02*
X133607876Y-81890161D01*
X136095153Y-80976028D02*
X136107815Y-81014465D01*
X135561851Y-60279293D02*
X135257239Y-60253787D01*
X122686339Y-78056536D02*
X123356964Y-77595839D01*
X131497279Y-86062009D02*
X131847943Y-85517003D01*
X127279041Y-74611489D02*
X127200020Y-74706110D01*
X159834094Y-92199658D02*
X159928065Y-92209929D01*
X133759733Y-112640359D02*
X133709145Y-112445813D01*
X121144139Y-80731792D02*
X121154335Y-80559178D01*
X117084278Y-72486769D02*
X117244428Y-72507669D01*
X135603885Y-114540759D02*
X135506540Y-114509144D01*
X135258284Y-92478673D02*
X135362823Y-92426584D01*
X126808184Y-75010953D02*
X126748695Y-75038826D01*
X161321017Y-42067722D02*
X161566099Y-42086885D01*
X136946844Y-60515451D02*
X136858315Y-60493755D01*
X167046663Y-51035358D02*
X167143386Y-50557090D01*
X147220618Y-115045196D02*
X158755700Y-115043908D01*
X161212565Y-94126814D02*
X161204521Y-94200366D01*
X129532747Y-56951295D02*
X131602225Y-57031862D01*
X121252358Y-81760291D02*
X121214232Y-81591825D01*
X135989251Y-91803008D02*
X135788762Y-91858254D01*
X166912237Y-49317860D02*
X166875627Y-49721368D01*
X151698524Y-42448226D02*
X152128073Y-42671377D01*
X133631639Y-94428630D02*
X133717369Y-94209400D01*
X114177414Y-67355125D02*
X114128825Y-67488397D01*
X166492870Y-56437517D02*
X166305600Y-56114470D01*
X114340648Y-68246189D02*
X114381736Y-68009537D01*
X124181736Y-84701112D02*
X124212664Y-84886251D01*
X145184025Y-40790815D02*
X143855256Y-40829444D01*
X136755242Y-91292669D02*
X136754390Y-91198474D01*
X150465375Y-41513117D02*
X150047028Y-41369191D01*
X115479916Y-65705313D02*
X115479916Y-65705313D01*
X134297320Y-56849585D02*
X132177482Y-56682119D01*
X167730155Y-65462603D02*
X167685839Y-66233280D01*
X159348069Y-42057837D02*
X160333175Y-42047232D01*
X163226194Y-42515377D02*
X163226194Y-42515377D01*
X126820841Y-72721798D02*
X128089778Y-72860028D01*
X167215303Y-47168711D02*
X167129315Y-46688768D01*
X130933329Y-43415307D02*
X132148200Y-43079102D01*
X116239246Y-56021282D02*
X116417739Y-56155697D01*
X167551522Y-58817395D02*
X167431584Y-58465162D01*
X160979580Y-92992124D02*
X161013817Y-93055984D01*
X121227317Y-82745269D02*
X121328337Y-82925115D01*
X120054669Y-63203140D02*
X119458278Y-63469503D01*
X160508478Y-92017601D02*
X160381711Y-91949225D01*
X121742404Y-82855687D02*
X121648594Y-82711119D01*
X114928738Y-66164827D02*
X114832298Y-66269314D01*
X155121067Y-114683103D02*
X153303926Y-114677691D01*
X115253359Y-53904821D02*
X115209469Y-53746224D01*
X124980959Y-61473899D02*
X124980959Y-61473899D01*
X114832298Y-66269314D02*
X114740520Y-66377547D01*
X115752922Y-55560263D02*
X115907044Y-55715935D01*
X114968759Y-66711036D02*
X115116893Y-66522653D01*
X127924078Y-73483735D02*
X127919460Y-73502478D01*
X117559847Y-56305678D02*
X117404426Y-56250052D01*
X161353464Y-112909981D02*
X161451987Y-112680945D01*
X114340456Y-69354288D02*
X114321128Y-69199375D01*
X117254411Y-48961566D02*
X116285763Y-49613288D01*
X156035875Y-42868049D02*
X156355802Y-42741770D01*
X159348069Y-42057837D02*
X159348069Y-42057837D01*
X120827487Y-80130084D02*
X120796335Y-80334635D01*
X137034453Y-41986550D02*
X138248333Y-41783421D01*
X167040372Y-58541359D02*
X167187848Y-58963795D01*
X140057095Y-57939688D02*
X140057095Y-57939688D01*
X114493433Y-66722791D02*
X114420577Y-66844079D01*
X136717038Y-84214649D02*
X136638038Y-82854003D01*
X128178006Y-72904611D02*
X128189713Y-72919634D01*
X131506865Y-85346049D02*
X131168027Y-85880679D01*
X133626945Y-103437318D02*
X133609088Y-98932978D01*
X159946617Y-114050939D02*
X159768845Y-114175902D01*
X137801435Y-60852673D02*
X137716739Y-60821172D01*
X154049212Y-43775066D02*
X154088692Y-43764818D01*
X133201341Y-83296944D02*
X133544154Y-82746873D01*
X142528920Y-40904337D02*
X141205570Y-41014583D01*
X135860296Y-80800998D02*
X135974992Y-80767457D01*
X116925257Y-72458826D02*
X117084278Y-72486769D01*
X154128482Y-43749825D02*
X154168599Y-43729826D01*
X135477057Y-114917773D02*
X135580572Y-114946879D01*
X134345351Y-113702630D02*
X134217303Y-113542919D01*
X118854535Y-64201602D02*
X119751301Y-63776402D01*
X131104363Y-86675390D02*
X131248539Y-86481289D01*
X114289289Y-67094808D02*
X114230911Y-67223865D01*
X114647296Y-71047284D02*
X114747232Y-71172685D01*
X121576523Y-56499522D02*
X119809610Y-56476810D01*
X139528962Y-57834716D02*
X140057095Y-57939688D01*
X136154877Y-81303794D02*
X136158942Y-81390874D01*
X128843108Y-72580420D02*
X128127704Y-72475908D01*
X113916877Y-68746575D02*
X113918868Y-68889367D01*
X167522104Y-60262139D02*
X167593895Y-60704709D01*
X161332238Y-92806618D02*
X161249327Y-92688045D01*
X128062283Y-73253433D02*
X127993705Y-73352188D01*
X132863669Y-83851983D02*
X133201341Y-83296944D01*
X140326790Y-58259143D02*
X140356064Y-58211493D01*
X125519395Y-86670316D02*
X125445449Y-86584409D01*
X136342192Y-84483109D02*
X136383895Y-85688758D01*
X134379752Y-114280898D02*
X134543007Y-114419329D01*
X139155441Y-59476438D02*
X138917749Y-59853540D01*
X123730624Y-61844783D02*
X122490094Y-62254516D01*
X124525385Y-45249745D02*
X124525385Y-45249745D01*
X118211966Y-48822065D02*
X119304076Y-48193523D01*
X123191590Y-84453420D02*
X123298870Y-84490087D01*
X159005513Y-42082127D02*
X159348069Y-42057837D01*
X166578716Y-51316237D02*
X166469367Y-51707533D01*
X120765632Y-80747773D02*
X120765952Y-80955215D01*
X136450909Y-92181377D02*
X136503245Y-92182643D01*
X133709145Y-112445813D02*
X133709145Y-112445813D01*
X127542635Y-60856618D02*
X126685008Y-61050212D01*
X151487872Y-114684249D02*
X151487872Y-114684249D01*
X115287454Y-51636230D02*
X115370801Y-51410118D01*
X123666555Y-84183959D02*
X123520919Y-84140092D01*
X132177482Y-56682119D02*
X130412482Y-56586874D01*
X138453576Y-57671785D02*
X138993892Y-57746621D01*
X134258624Y-81673595D02*
X134366866Y-81620197D01*
X160047130Y-91594587D02*
X160091950Y-91497101D01*
D11*
G36*
X146092103Y-111654108D02*
G01*
X146139629Y-111656861D01*
X146185766Y-111661449D01*
X146230513Y-111667874D01*
X146273872Y-111676133D01*
X146315842Y-111686228D01*
X146356423Y-111698159D01*
X146395614Y-111711925D01*
X146433416Y-111727527D01*
X146469830Y-111744964D01*
X146504854Y-111764237D01*
X146538489Y-111785346D01*
X146570735Y-111808290D01*
X146601591Y-111833070D01*
X146631059Y-111859686D01*
X146659137Y-111888137D01*
X146685666Y-111917853D01*
X146710484Y-111949058D01*
X146733589Y-111981751D01*
X146754984Y-112015931D01*
X146774667Y-112051601D01*
X146792638Y-112088758D01*
X146808897Y-112127404D01*
X146823445Y-112167537D01*
X146836282Y-112209159D01*
X146847407Y-112252270D01*
X146856820Y-112296868D01*
X146864522Y-112342955D01*
X146870512Y-112390530D01*
X146874791Y-112439593D01*
X146877359Y-112490144D01*
X146878214Y-112542184D01*
X146877359Y-112594237D01*
X146874791Y-112644827D01*
X146870512Y-112693953D01*
X146864522Y-112741615D01*
X146856820Y-112787814D01*
X146847406Y-112832549D01*
X146836281Y-112875821D01*
X146823444Y-112917630D01*
X146808896Y-112957975D01*
X146792636Y-112996856D01*
X146774665Y-113034274D01*
X146754983Y-113070229D01*
X146733588Y-113104720D01*
X146710483Y-113137747D01*
X146685666Y-113169312D01*
X146659137Y-113199413D01*
X146631058Y-113227478D01*
X146601590Y-113253734D01*
X146570733Y-113278178D01*
X146538487Y-113300813D01*
X146504852Y-113321636D01*
X146469828Y-113340649D01*
X146433414Y-113357852D01*
X146395612Y-113373243D01*
X146356420Y-113386824D01*
X146315840Y-113398595D01*
X146273870Y-113408554D01*
X146230512Y-113416703D01*
X146185764Y-113423041D01*
X146139628Y-113427568D01*
X146092102Y-113430284D01*
X146043188Y-113431190D01*
X145994261Y-113430284D01*
X145946698Y-113427568D01*
X145900499Y-113423041D01*
X145855665Y-113416703D01*
X145812195Y-113408554D01*
X145770089Y-113398595D01*
X145729348Y-113386824D01*
X145689971Y-113373243D01*
X145651958Y-113357852D01*
X145615309Y-113340649D01*
X145580024Y-113321636D01*
X145546104Y-113300813D01*
X145513548Y-113278178D01*
X145482356Y-113253734D01*
X145452528Y-113227478D01*
X145424065Y-113199413D01*
X145397536Y-113169312D01*
X145372719Y-113137747D01*
X145349613Y-113104720D01*
X145328218Y-113070229D01*
X145308536Y-113034274D01*
X145290565Y-112996856D01*
X145274305Y-112957975D01*
X145259757Y-112917630D01*
X145246920Y-112875821D01*
X145235795Y-112832549D01*
X145226382Y-112787814D01*
X145218680Y-112741615D01*
X145212690Y-112693953D01*
X145208411Y-112644827D01*
X145205844Y-112594237D01*
X145204988Y-112542184D01*
X145205844Y-112490145D01*
X145208411Y-112439595D01*
X145212690Y-112390532D01*
X145218681Y-112342957D01*
X145226383Y-112296871D01*
X145235796Y-112252272D01*
X145246921Y-112209162D01*
X145259758Y-112167540D01*
X145274306Y-112127405D01*
X145290566Y-112088760D01*
X145308537Y-112051602D01*
X145328220Y-112015932D01*
X145349614Y-111981751D01*
X145372719Y-111949058D01*
X145397536Y-111917853D01*
X145424065Y-111888137D01*
X145452528Y-111859686D01*
X145482355Y-111833070D01*
X145513547Y-111808290D01*
X145546103Y-111785346D01*
X145580023Y-111764237D01*
X145615308Y-111744964D01*
X145651956Y-111727527D01*
X145689970Y-111711925D01*
X145729347Y-111698159D01*
X145770089Y-111686228D01*
X145812195Y-111676133D01*
X145855665Y-111667874D01*
X145900499Y-111661449D01*
X145946698Y-111656861D01*
X145994261Y-111654108D01*
X146043188Y-111653190D01*
X146092103Y-111654108D01*
G37*
D10*
X167016809Y-46212327D02*
X166911355Y-45887169D01*
X153742359Y-43717409D02*
X153780009Y-43735766D01*
X160433846Y-92422079D02*
X160496147Y-92461700D01*
X116537567Y-71962336D02*
X116391075Y-71911122D01*
X166893212Y-47700447D02*
X166923787Y-48104255D01*
X136286610Y-80133599D02*
X136256009Y-80135477D01*
X160827984Y-42048693D02*
X161074876Y-42055400D01*
X162049006Y-41779705D02*
X161664549Y-41713884D01*
X115710880Y-50773301D02*
X115851565Y-50576764D01*
X114848299Y-53859798D02*
X114905950Y-54068164D01*
X160114139Y-91836863D02*
X159973666Y-91793645D01*
X154168599Y-43729826D02*
X154168599Y-43729826D01*
X136660554Y-92140009D02*
X136688265Y-92118703D01*
X117620978Y-56716030D02*
X117837459Y-56769792D01*
X135375294Y-114884521D02*
X135477057Y-114917773D01*
X121199064Y-80216691D02*
X121233628Y-80047657D01*
X120869259Y-79927643D02*
X120827487Y-80130084D01*
X122775402Y-84275264D02*
X122877227Y-84324924D01*
X121136076Y-82560085D02*
X121227317Y-82745269D01*
X127284365Y-61302135D02*
X128258041Y-61105754D01*
X121704709Y-78944753D02*
X121804923Y-78803698D01*
X162822528Y-85420581D02*
X162317721Y-86525808D01*
X121464450Y-78617735D02*
X121346528Y-78789371D01*
X165501476Y-43570612D02*
X165259793Y-43331376D01*
X128525060Y-44161651D02*
X129725330Y-43776018D01*
X116419238Y-55664321D02*
X116295637Y-55555758D01*
X164953626Y-81031709D02*
X165408930Y-79658630D01*
X120286816Y-47211641D02*
X119257609Y-47763624D01*
X153990314Y-43368709D02*
X153621561Y-43124317D01*
X115609528Y-55396340D02*
X115752922Y-55560263D01*
X154010023Y-43780828D02*
X154049212Y-43775066D01*
X116068796Y-55874745D02*
X116239246Y-56021282D01*
X166876652Y-58124373D02*
X167040372Y-58541359D01*
X123520919Y-84140092D02*
X123376671Y-84092661D01*
X160630344Y-92093595D02*
X160508478Y-92017601D01*
X134197893Y-81281407D02*
X134073639Y-81374849D01*
X167122911Y-70835359D02*
X166849298Y-72357006D01*
X136786122Y-91834748D02*
X136787053Y-91788894D01*
X160015804Y-92227597D02*
X160056323Y-92239891D01*
X159582205Y-114287234D02*
X159485604Y-114337458D01*
X167429785Y-59824352D02*
X167522104Y-60262139D01*
X117244428Y-72507669D02*
X117405447Y-72521381D01*
X157396159Y-42000269D02*
X157396159Y-42000269D01*
X121327229Y-79716102D02*
X121386297Y-79554419D01*
X114801356Y-53648572D02*
X114848299Y-53859798D01*
X166327508Y-44652515D02*
X166142816Y-44365261D01*
X168047207Y-61599719D02*
X167958097Y-60635941D01*
X129132273Y-88008939D02*
X129360545Y-87927656D01*
X136858315Y-60493755D02*
X136768761Y-60477462D01*
X128646281Y-56533366D02*
X125111687Y-56504126D01*
X161787322Y-87618859D02*
X161230944Y-88698956D01*
X134199879Y-92784844D02*
X134059080Y-92935788D01*
X157003159Y-42512692D02*
X157330596Y-42411805D01*
X123818427Y-45961668D02*
X124979203Y-45472214D01*
X161592765Y-110489032D02*
X161590858Y-110160894D01*
X136731697Y-92065100D02*
X136747974Y-92033314D01*
X127003970Y-44299621D02*
X124525385Y-45249745D01*
X116391075Y-71911122D02*
X116247649Y-71852254D01*
X166777428Y-46897078D02*
X166844592Y-47297879D01*
X116063344Y-55322605D02*
X115955061Y-55198542D01*
X133484769Y-113071747D02*
X133584461Y-113263205D01*
X124181736Y-84701112D02*
X124181736Y-84701112D01*
X137752623Y-61243083D02*
X138207232Y-61440199D01*
X167659399Y-59173540D02*
X167551522Y-58817395D01*
X121162041Y-81250095D02*
X121148007Y-81077670D01*
X145748419Y-40793994D02*
X145184025Y-40790815D01*
X161217875Y-93830968D02*
X161220564Y-93904938D01*
X122669668Y-46478113D02*
X123818427Y-45961668D01*
X160369035Y-92385371D02*
X160433846Y-92422079D01*
X122956998Y-83921395D02*
X122823043Y-83852117D01*
X162997134Y-42414057D02*
X163226194Y-42515377D01*
X116156215Y-72218563D02*
X116305679Y-72279537D01*
X114740520Y-66377547D02*
X114653432Y-66489333D01*
X158749832Y-114575124D02*
X157844016Y-114629056D01*
X151260346Y-42244262D02*
X151698524Y-42448226D01*
X116344312Y-50042317D02*
X116529438Y-49884452D01*
X124360048Y-85430913D02*
X124426470Y-85607760D01*
X122577039Y-84164505D02*
X122675293Y-84221857D01*
X128403967Y-60680961D02*
X127542635Y-60856618D01*
X135974992Y-80767457D02*
X135974992Y-80767457D01*
X136778397Y-91921081D02*
X136783330Y-91878895D01*
X146083482Y-41164406D02*
X146567519Y-41180992D01*
X163942666Y-83741671D02*
X164464938Y-82393043D01*
X159285930Y-114426363D02*
X159182893Y-114464780D01*
X126305576Y-87320962D02*
X126207652Y-87260883D01*
X153185342Y-43299013D02*
X153259861Y-43354523D01*
X121054678Y-82370137D02*
X121136076Y-82560085D01*
X163541604Y-42234071D02*
X163541604Y-42234071D01*
X119458278Y-63469503D02*
X118867886Y-63748337D01*
X120921715Y-79727884D02*
X120869259Y-79927643D01*
X166930783Y-51509705D02*
X167046663Y-51035358D01*
X124165360Y-76615342D02*
X123538835Y-77009176D01*
X128202401Y-72953655D02*
X128203868Y-72972457D01*
X116247649Y-71852254D02*
X116107513Y-71786017D01*
X166547801Y-73870238D02*
X166547801Y-73870238D01*
X135177138Y-114806080D02*
X135275311Y-114847249D01*
X153072614Y-43227609D02*
X153110341Y-43249483D01*
X137063836Y-60961731D02*
X137295378Y-61049957D01*
X114553181Y-70917460D02*
X114647296Y-71047284D01*
X161212520Y-93757190D02*
X161217875Y-93830968D01*
X136783330Y-91878895D02*
X136786122Y-91834748D01*
X125111687Y-56504126D02*
X121576523Y-56499522D01*
X134327335Y-81193373D02*
X134197893Y-81281407D01*
X115363021Y-54214950D02*
X115304611Y-54061151D01*
X136080608Y-80938524D02*
X136095153Y-80976028D01*
X165657574Y-44346847D02*
X165856551Y-44625698D01*
X167873382Y-68366848D02*
X167873382Y-68366848D01*
X167836532Y-59897304D02*
X167754606Y-59533531D01*
X114321128Y-69199375D02*
X114310016Y-69043385D01*
X125936759Y-87519169D02*
X126093182Y-87624612D01*
X130720698Y-86525584D02*
X130617098Y-86638612D01*
X128696182Y-72889404D02*
X128843108Y-72580420D01*
X160773382Y-90358579D02*
X160820591Y-90260486D01*
X138649307Y-60915056D02*
X138786057Y-60731463D01*
X121154335Y-80559178D02*
X121172638Y-80387338D01*
X113960451Y-68178186D02*
X113941882Y-68319482D01*
X167318009Y-59391515D02*
X167429785Y-59824352D01*
X160720108Y-92646955D02*
X160769754Y-92699369D01*
X167310422Y-49107009D02*
X167322331Y-48621305D01*
X137971718Y-60904547D02*
X137886389Y-60880733D01*
X117837459Y-56769792D02*
X118056749Y-56812632D01*
X161590858Y-110160894D02*
X161599931Y-109834890D01*
X121953689Y-83129133D02*
X121844107Y-82995164D01*
X115354911Y-55046135D02*
X115476858Y-55224764D01*
X164736707Y-42897273D02*
X164456014Y-42704373D01*
X124542967Y-84414878D02*
X124542967Y-84414878D01*
X117407961Y-56651197D02*
X117620978Y-56716030D01*
X135578291Y-92335796D02*
X135689091Y-92297406D01*
X136135831Y-81134680D02*
X136147527Y-81218209D01*
X125929607Y-87061220D02*
X125842211Y-86988558D01*
X123087475Y-72168483D02*
X120195744Y-72152148D01*
X126971433Y-74912511D02*
X126919432Y-74947678D01*
X134672891Y-92389785D02*
X134507428Y-92511858D01*
X122445628Y-83597079D02*
X122329552Y-83493800D01*
X117405447Y-72521381D02*
X117567074Y-72527758D01*
X130218302Y-87484175D02*
X130414799Y-87344507D01*
X166065027Y-52855193D02*
X165959868Y-53129965D01*
X115479916Y-65705313D02*
X115360575Y-65788184D01*
X130948079Y-86858920D02*
X131104363Y-86675390D01*
X129497346Y-87444847D02*
X129356804Y-87508328D01*
X160231907Y-92321169D02*
X160301719Y-92351695D01*
X114012776Y-67898355D02*
X113984091Y-68037747D01*
X115131722Y-71025165D02*
X115031269Y-70905480D01*
X115454510Y-71824063D02*
X115587900Y-71914428D01*
X125431101Y-75846135D02*
X124165360Y-76615342D01*
X114852730Y-71293518D02*
X114963528Y-71409637D01*
X129770547Y-87301211D02*
X129635346Y-87375760D01*
X134958407Y-114239905D02*
X134791268Y-114122755D01*
X133742887Y-81698031D02*
X133695316Y-81759509D01*
X114712837Y-67115174D02*
X114833843Y-66908822D01*
X161603180Y-111802124D02*
X161610859Y-111475850D01*
X136802468Y-88305180D02*
X136794962Y-86941026D01*
X158970509Y-114528880D02*
X158861198Y-114554300D01*
X165686808Y-54691021D02*
X165701673Y-54647839D01*
X159973666Y-91793645D02*
X159973666Y-91793645D01*
X146567519Y-41180992D02*
X147051104Y-41212818D01*
X160769754Y-92699369D02*
X160816849Y-92753986D01*
X135591347Y-91923001D02*
X135397648Y-91997264D01*
X116958543Y-56038990D02*
X116817391Y-55954787D01*
X138280677Y-60762282D02*
X138143966Y-60936224D01*
X121844107Y-82995164D02*
X121742404Y-82855687D01*
X143140407Y-41243786D02*
X144369478Y-41186027D01*
X152996619Y-43190947D02*
X153034712Y-43208011D01*
X148763337Y-41037217D02*
X148326322Y-40963046D01*
X133584461Y-113263205D02*
X133693925Y-113450090D01*
X121562694Y-82561881D02*
X121484717Y-82408392D01*
X114936346Y-70781285D02*
X114847175Y-70652869D01*
X129802133Y-87729269D02*
X130013806Y-87612481D01*
X127503856Y-75012799D02*
X127503856Y-75012799D01*
X113918868Y-68889367D02*
X113926066Y-69032050D01*
X161451987Y-112680945D02*
X161535149Y-112444434D01*
X153555972Y-43594746D02*
X153630226Y-43648947D01*
X119809610Y-56476810D02*
X118043613Y-56424679D01*
X114079290Y-69897079D02*
X114125352Y-70053787D01*
X122997885Y-72556387D02*
X124274140Y-72580680D01*
X135803003Y-114591536D02*
X135702732Y-114568263D01*
X115072607Y-51108896D02*
X114991199Y-51307706D01*
X153780009Y-43735766D02*
X153817825Y-43751456D01*
X156953610Y-42125969D02*
X156517271Y-42269523D01*
X127410828Y-72390498D02*
X125973290Y-72269076D01*
X115107636Y-52928464D02*
X115112229Y-52761802D01*
X159460825Y-92188610D02*
X159640444Y-92192521D01*
X167671611Y-61603533D02*
X167671611Y-61603533D01*
X154819965Y-42973322D02*
X153990314Y-43368709D01*
X160091950Y-91497101D02*
X160141215Y-91400720D01*
X121276344Y-79880655D02*
X121327229Y-79716102D01*
X135534987Y-80506477D02*
X135476797Y-80535331D01*
X136415975Y-57046388D02*
X134297320Y-56849585D01*
X165673955Y-54734281D02*
X165686808Y-54691021D01*
X157993006Y-42242113D02*
X158327985Y-42175221D01*
X161542933Y-93188087D02*
X161479207Y-93057023D01*
X166305600Y-56114470D02*
X166111153Y-55795851D01*
X127117566Y-87689318D02*
X126971145Y-87643404D01*
X121239679Y-78967127D02*
X121143838Y-79150429D01*
X166849298Y-72357006D02*
X166547801Y-73870238D01*
X168055365Y-66439113D02*
X168108683Y-65471642D01*
X131847943Y-85517003D02*
X132190325Y-84965003D01*
X115220456Y-51868315D02*
X115287454Y-51636230D01*
X136469080Y-60411433D02*
X136167930Y-60357083D01*
X135951653Y-80247256D02*
X135891305Y-80283167D01*
X129069114Y-87617892D02*
X128922479Y-87663686D01*
X160479191Y-114098450D02*
X160655088Y-113925053D01*
X163302127Y-84303959D02*
X162822528Y-85420581D01*
X139047131Y-60354392D02*
X139295508Y-59967398D01*
X121184121Y-81421620D02*
X121162041Y-81250095D01*
X126686470Y-75064031D02*
X126686470Y-75064031D01*
X140688294Y-41455456D02*
X141913140Y-41334191D01*
X162529688Y-42256420D02*
X162764863Y-42328146D01*
X167958097Y-60635941D02*
X167904565Y-60264796D01*
X136167930Y-60357083D02*
X135865467Y-60313381D01*
X136147527Y-81218209D02*
X136154877Y-81303794D01*
X127851610Y-73626909D02*
X127788755Y-73736792D01*
X136383895Y-85688758D02*
X136409396Y-86894940D01*
X133695316Y-81759509D02*
X133650267Y-81823509D01*
X161599931Y-109834890D02*
X161599931Y-93322547D01*
X114616417Y-70245142D02*
X114552496Y-70102695D01*
X115031269Y-70905480D02*
X114936346Y-70781285D01*
X166691219Y-46498568D02*
X166777428Y-46897078D01*
X133631639Y-94428630D02*
X133631639Y-94428630D01*
X126207652Y-87260883D02*
X126112341Y-87197493D01*
X124904298Y-85720181D02*
X124815012Y-85510726D01*
X128097408Y-73203069D02*
X128062283Y-73253433D01*
X161809815Y-42114112D02*
X162051856Y-42150628D01*
X133995859Y-113199795D02*
X133903718Y-113018316D01*
X166672352Y-56764927D02*
X166492870Y-56437517D01*
X115907044Y-55715935D02*
X116068796Y-55874745D01*
X136768761Y-60477462D02*
X136768761Y-60477462D01*
X133607876Y-81890161D02*
X133568278Y-81959596D01*
X126315815Y-61523136D02*
X127284365Y-61302135D01*
X168108683Y-65471642D02*
X168135537Y-64503024D01*
X121648594Y-82711119D02*
X121562694Y-82561881D01*
X127414808Y-87757521D02*
X127265539Y-87727309D01*
X133315622Y-112679118D02*
X133315622Y-112679118D01*
X125548710Y-72632249D02*
X126820841Y-72721798D01*
X137207450Y-60604916D02*
X137121295Y-60571836D01*
X131379785Y-86276776D02*
X131497279Y-86062009D01*
X133709145Y-112445813D02*
X133626945Y-103437318D01*
X167724446Y-62375549D02*
X167755585Y-63147631D01*
X116680320Y-55864099D02*
X116547534Y-55767189D01*
X130395617Y-86851613D02*
X130278248Y-86951297D01*
X127919460Y-73502478D02*
X127917484Y-73520054D01*
X134224886Y-114131889D02*
X134379752Y-114280898D01*
X167220131Y-50075726D02*
X167276082Y-49592090D01*
X133236951Y-95050357D02*
X133225995Y-95292089D01*
X136271212Y-92181659D02*
X136392813Y-92174831D01*
X113984091Y-68037747D02*
X113960451Y-68178186D01*
X125675423Y-86834735D02*
X125596058Y-86753795D01*
X124397512Y-62039805D02*
X125353246Y-61768959D01*
X133475660Y-93883473D02*
X133396371Y-94109425D01*
X128118529Y-72868652D02*
X128142656Y-72879023D01*
X158755700Y-115043908D02*
X158995315Y-114973466D01*
X114905950Y-54068164D02*
X114974313Y-54273071D01*
X126406099Y-87377619D02*
X126305576Y-87320962D01*
X114765120Y-53435086D02*
X114801356Y-53648572D01*
D11*
G36*
X156222044Y-108282012D02*
G01*
X156263689Y-108285121D01*
X156304289Y-108290279D01*
X156343823Y-108297465D01*
X156382269Y-108306658D01*
X156419605Y-108317837D01*
X156455810Y-108330983D01*
X156490861Y-108346076D01*
X156524738Y-108363094D01*
X156557417Y-108382018D01*
X156588878Y-108402826D01*
X156619099Y-108425499D01*
X156648057Y-108450016D01*
X156675732Y-108476357D01*
X156702101Y-108504501D01*
X156727143Y-108534428D01*
X156750836Y-108566118D01*
X156773158Y-108599549D01*
X156794087Y-108634703D01*
X156813602Y-108671558D01*
X156831680Y-108710093D01*
X156848301Y-108750290D01*
X156863442Y-108792126D01*
X156877082Y-108835582D01*
X156889198Y-108880638D01*
X156899770Y-108927272D01*
X156908775Y-108975465D01*
X156916191Y-109025196D01*
X156921998Y-109076445D01*
X156926172Y-109129191D01*
X156928692Y-109183414D01*
X156929537Y-109239093D01*
X156925598Y-109326965D01*
X156916469Y-109414609D01*
X156902008Y-109501273D01*
X156882075Y-109586207D01*
X156856527Y-109668660D01*
X156825224Y-109747882D01*
X156788024Y-109823122D01*
X156767169Y-109859014D01*
X156744786Y-109893629D01*
X156720858Y-109926873D01*
X156695368Y-109958653D01*
X156668297Y-109988874D01*
X156639628Y-110017442D01*
X156609343Y-110044265D01*
X156577426Y-110069247D01*
X156543857Y-110092295D01*
X156508619Y-110113316D01*
X156471695Y-110132215D01*
X156433067Y-110148898D01*
X156392717Y-110163273D01*
X156350628Y-110175244D01*
X156306781Y-110184718D01*
X156261160Y-110191602D01*
X156213746Y-110195801D01*
X156164523Y-110197221D01*
X156116627Y-110195886D01*
X156070419Y-110191935D01*
X156025886Y-110185453D01*
X155983017Y-110176521D01*
X155941802Y-110165222D01*
X155902230Y-110151640D01*
X155864290Y-110135858D01*
X155827971Y-110117958D01*
X155793263Y-110098024D01*
X155760154Y-110076139D01*
X155728633Y-110052384D01*
X155698689Y-110026844D01*
X155670313Y-109999601D01*
X155643492Y-109970739D01*
X155618217Y-109940340D01*
X155594475Y-109908487D01*
X155572256Y-109875263D01*
X155551550Y-109840751D01*
X155532345Y-109805034D01*
X155514631Y-109768195D01*
X155498397Y-109730317D01*
X155483631Y-109691483D01*
X155470323Y-109651776D01*
X155458462Y-109611278D01*
X155448037Y-109570074D01*
X155439038Y-109528245D01*
X155425271Y-109443046D01*
X155417075Y-109356346D01*
X155414362Y-109268808D01*
X155416752Y-109176930D01*
X155424082Y-109085618D01*
X155436590Y-108995612D01*
X155454517Y-108907652D01*
X155478101Y-108822477D01*
X155507583Y-108740827D01*
X155543200Y-108663442D01*
X155563385Y-108626580D01*
X155585193Y-108591061D01*
X155608655Y-108556979D01*
X155633801Y-108524426D01*
X155660660Y-108493493D01*
X155689263Y-108464275D01*
X155719639Y-108436862D01*
X155751819Y-108411348D01*
X155785831Y-108387824D01*
X155821707Y-108366385D01*
X155859476Y-108347121D01*
X155899168Y-108330126D01*
X155940813Y-108315492D01*
X155984440Y-108303311D01*
X156030081Y-108293676D01*
X156077764Y-108286679D01*
X156127519Y-108282413D01*
X156179377Y-108280971D01*
X156222044Y-108282012D01*
G37*
D10*
X161249327Y-92688045D02*
X161160352Y-92574402D01*
X160655088Y-113925053D02*
X160819850Y-113741099D01*
X124616494Y-84859401D02*
X124573779Y-84637581D01*
X162051856Y-42150628D02*
X162291917Y-42197656D01*
X137716739Y-60821172D02*
X137632184Y-60787033D01*
X124302092Y-85251488D02*
X124360048Y-85430913D01*
X113941882Y-68319482D02*
X113928412Y-68461440D01*
X167685839Y-66233280D02*
X167550243Y-67772161D01*
X116004570Y-50389042D02*
X116169087Y-50210704D01*
X136378503Y-80141737D02*
X136347860Y-80136600D01*
X114991199Y-51307706D02*
X114920477Y-51510846D01*
X120660033Y-63377430D02*
X121579874Y-63004486D01*
X115199982Y-71627151D02*
X115325117Y-71728255D01*
X140621421Y-57705642D02*
X140624475Y-57682495D01*
X166092618Y-53793763D02*
X166092618Y-53793763D01*
X118043613Y-56424679D02*
X117879645Y-56393255D01*
X167755585Y-63147631D02*
X167766161Y-63919612D01*
X136133844Y-80162489D02*
X136103378Y-80173469D01*
X136392813Y-92174831D02*
X136392813Y-92174831D01*
X129360545Y-87927656D02*
X129584106Y-87834380D01*
X136256009Y-80135477D02*
X136225429Y-80139435D01*
X136200671Y-82074221D02*
X136200671Y-82074221D01*
X124737214Y-85296856D02*
X124671007Y-85079453D01*
X136396874Y-91720958D02*
X136192169Y-91757248D01*
X114920477Y-51510846D02*
X114860441Y-51717716D01*
X136194873Y-80145342D02*
X136164343Y-80153070D01*
X116796239Y-56388763D02*
X116994938Y-56487713D01*
X163856104Y-42797422D02*
X164153472Y-42968345D01*
X160490379Y-90834901D02*
X160610131Y-90646433D01*
X115970890Y-71712697D02*
X115838005Y-71632580D01*
X160930604Y-112883303D02*
X160818943Y-113074094D01*
X135397648Y-91997264D02*
X135208310Y-92081059D01*
X159973666Y-91793645D02*
X160007465Y-91693371D01*
X124501086Y-85781693D02*
X124583625Y-85952376D01*
X159711229Y-41635786D02*
X159319512Y-41665383D01*
X157396159Y-42000269D02*
X157174064Y-42060735D01*
X153110341Y-43249483D02*
X153185342Y-43299013D01*
X153630226Y-43648947D02*
X153667486Y-43673740D01*
X134714420Y-114546180D02*
X134893763Y-114660451D01*
X153932449Y-43779936D02*
X153971108Y-43782365D01*
X115209469Y-53746224D02*
X115173147Y-53585624D01*
X167191641Y-72650806D02*
X167450814Y-71227498D01*
X117718321Y-56353500D02*
X117559847Y-56305678D01*
X120775738Y-80540722D02*
X120765632Y-80747773D01*
X136281909Y-83278196D02*
X136342192Y-84483109D01*
X160972773Y-113547101D02*
X161113152Y-113343572D01*
X163541604Y-42234071D02*
X163176712Y-42090393D01*
X121058940Y-79338704D02*
X120984921Y-79531380D01*
X133955661Y-81474741D02*
X133845047Y-81582121D01*
X128624908Y-87736571D02*
X128474484Y-87763373D01*
X133395080Y-112876718D02*
X133484769Y-113071747D01*
X166080753Y-56514272D02*
X166298739Y-56907787D01*
X114720634Y-52787057D02*
X114724761Y-53003729D01*
X166843436Y-57096635D02*
X166672352Y-56764927D01*
X134345214Y-93208281D02*
X134507050Y-93035703D01*
X165848556Y-53402128D02*
X165732146Y-53672117D01*
X166697759Y-57713005D02*
X166876652Y-58124373D01*
X159251253Y-92051001D02*
X159243601Y-92077607D01*
X128197764Y-72936014D02*
X128202401Y-72953655D01*
X116767625Y-72423986D02*
X116925257Y-72458826D01*
X135732604Y-57369874D02*
X137909710Y-57606592D01*
X140616915Y-57728966D02*
X140621421Y-57705642D01*
X163858107Y-42371789D02*
X163541604Y-42234071D01*
X114313336Y-68729320D02*
X114317618Y-68486396D01*
X168135537Y-64503024D02*
X168134916Y-63534203D01*
X136024347Y-80832313D02*
X136045338Y-80866597D01*
X115143178Y-54670115D02*
X115243685Y-54861052D01*
X123538835Y-77009176D02*
X122921999Y-77416664D01*
X115584343Y-71453100D02*
X115464014Y-71354310D01*
X128843108Y-72580420D02*
X128843108Y-72580420D01*
X120776632Y-81162475D02*
X120797609Y-81368980D01*
X117137777Y-64663610D02*
X116576454Y-64996271D01*
X124673815Y-86119472D02*
X124771384Y-86282645D01*
X154088692Y-43764818D02*
X154128482Y-43749825D01*
X130780509Y-87031722D02*
X130948079Y-86858920D01*
X115852294Y-55069839D02*
X115755249Y-54936760D01*
X164593537Y-80893517D02*
X164187246Y-82039647D01*
X127964126Y-73399025D02*
X127951362Y-73421469D01*
X159274518Y-92150346D02*
X159295598Y-92161483D01*
X137258968Y-41548310D02*
X135953092Y-41790842D01*
X121689426Y-83426903D02*
X121828915Y-83579673D01*
X160816849Y-92753986D02*
X160861386Y-92810689D01*
X141913140Y-41334191D02*
X143140407Y-41243786D01*
X135904619Y-114610458D02*
X135803003Y-114591536D01*
X136167176Y-81829131D02*
X136173837Y-81913436D01*
X132190325Y-84965003D02*
X132863669Y-83851983D01*
X122509972Y-62657367D02*
X123449469Y-62335874D01*
X160610131Y-90646433D02*
X160667441Y-90551360D01*
X134194786Y-93391720D02*
X134345214Y-93208281D01*
X144369478Y-41186027D02*
X145599735Y-41162701D01*
X140586114Y-57823748D02*
X140603896Y-57776087D01*
X133693925Y-113450090D02*
X133812929Y-113631403D01*
X127931096Y-73463921D02*
X127924078Y-73483735D01*
X145599735Y-41162701D02*
X145599735Y-41162701D01*
X167873382Y-68366848D02*
X167976595Y-67404496D01*
X131447508Y-60269894D02*
X131009987Y-60304887D01*
X161566099Y-42086885D02*
X161809815Y-42114112D01*
X160820591Y-90260486D02*
X161513765Y-88989844D01*
X146594657Y-40819561D02*
X146312684Y-40807980D01*
X123085462Y-84413803D02*
X123191590Y-84453420D01*
X134056278Y-93584786D02*
X134194786Y-93391720D01*
X114860441Y-51717716D02*
X114811094Y-51927718D01*
X160819850Y-113741099D02*
X160972773Y-113547101D01*
X157660544Y-42321293D02*
X157993006Y-42242113D01*
X120797609Y-81368980D02*
X120828818Y-81574158D01*
X164464938Y-82393043D02*
X164953626Y-81031709D01*
X138918471Y-60544412D02*
X139047131Y-60354392D01*
X114307344Y-68886605D02*
X114313336Y-68729320D01*
X163176712Y-42090393D02*
X162805824Y-41967247D01*
X159287854Y-91985762D02*
X159265869Y-92020477D01*
X135506540Y-114509144D02*
X135410776Y-114473540D01*
X166932800Y-48913488D02*
X166912237Y-49317860D01*
X136173837Y-81913436D02*
X136184648Y-81995319D01*
X166485001Y-45843175D02*
X166597559Y-46167852D01*
X157174064Y-42060735D02*
X156953610Y-42125969D01*
X165663329Y-54777624D02*
X165673955Y-54734281D01*
X166691219Y-46498568D02*
X166691219Y-46498568D01*
X161220564Y-93904938D02*
X161220579Y-93978981D01*
X138248333Y-41783421D02*
X139466485Y-41605795D01*
X128191663Y-73034871D02*
X128182867Y-73057353D01*
X166900277Y-74068150D02*
X167191641Y-72650806D01*
X126865056Y-74980531D02*
X126808184Y-75010953D01*
X128198257Y-73013163D02*
X128191663Y-73034871D01*
X136787053Y-91788894D02*
X136784444Y-91693089D01*
X166292027Y-53351391D02*
X166476365Y-52900974D01*
X137886389Y-60880733D02*
X137801435Y-60852673D01*
X161193839Y-93610682D02*
X161204506Y-93683722D01*
X122490094Y-62254516D02*
X121263424Y-62706250D01*
X127846251Y-74407711D02*
X128198272Y-73803529D01*
X116603622Y-56278141D02*
X116796239Y-56388763D01*
X118948931Y-56877768D02*
X119172460Y-56868247D01*
X117308174Y-72093574D02*
X117149712Y-72084924D01*
X114833843Y-66908822D02*
X114968759Y-66711036D01*
X135527901Y-80938150D02*
X135636990Y-80887097D01*
X126253995Y-87722432D02*
X126418929Y-87812293D01*
X165110630Y-55004724D02*
X165110630Y-55004724D01*
X159928065Y-92209929D02*
X159972916Y-92217701D01*
X114963528Y-71409637D02*
X115079366Y-71520897D01*
X115029813Y-66064277D02*
X114928738Y-66164827D01*
X121172638Y-80387338D02*
X121199064Y-80216691D01*
X125105652Y-86745263D02*
X125230022Y-86889380D01*
X161408920Y-92929739D02*
X161332238Y-92806618D01*
X124987575Y-86595877D02*
X125105652Y-86745263D01*
X132148200Y-43079102D02*
X133369085Y-42766991D01*
X160496147Y-92461700D02*
X160555930Y-92504117D01*
X163226194Y-42515377D02*
X163546832Y-42646085D01*
X114686986Y-70384511D02*
X114616417Y-70245142D01*
X154168599Y-43729826D02*
X154781089Y-43429111D01*
X165613185Y-55746261D02*
X165851878Y-56127041D01*
X161579726Y-112125332D02*
X161593759Y-111964176D01*
X131885930Y-60244254D02*
X131885930Y-60244254D01*
X136118727Y-81053767D02*
X136135831Y-81134680D01*
X152958314Y-43176678D02*
X152996619Y-43190947D01*
X114240156Y-70356846D02*
X114308376Y-70502906D01*
X127352413Y-74511393D02*
X127279041Y-74611489D01*
X115428383Y-54365955D02*
X115363021Y-54214950D01*
X162317721Y-86525808D02*
X161787322Y-87618859D01*
X160274978Y-113764349D02*
X160115376Y-113913403D01*
X160301719Y-92351695D02*
X160369035Y-92385371D01*
X129521045Y-43447118D02*
X127003970Y-44299621D01*
X115237480Y-71140056D02*
X115131722Y-71025165D01*
X153246779Y-42887227D02*
X152866097Y-42658402D01*
X123407163Y-84524002D02*
X123516328Y-84555367D01*
X151487872Y-114684249D02*
X143695855Y-114680190D01*
X161479207Y-93057023D02*
X161408920Y-92929739D01*
X114747232Y-71172685D02*
X114852730Y-71293518D01*
X140611044Y-57752452D02*
X140616915Y-57728966D01*
X134078640Y-113973303D02*
X134224886Y-114131889D01*
X115579142Y-54658528D02*
X115500492Y-54513902D01*
X140625878Y-57636780D02*
X139578691Y-57456086D01*
X118245917Y-48345972D02*
X117254411Y-48961566D01*
X159402088Y-91853715D02*
X159402088Y-91853715D01*
X160818943Y-113074094D02*
X160697406Y-113258651D01*
X135066498Y-60646133D02*
X135708413Y-60692081D01*
X116295637Y-55555758D02*
X116176938Y-55441765D01*
X115116893Y-66522653D02*
X115277555Y-66344507D01*
X161220579Y-93978981D02*
X161217915Y-94052979D01*
X122877227Y-84324924D02*
X122980628Y-84371038D01*
X136591750Y-92170355D02*
X136628475Y-92157312D01*
X121346528Y-78789371D02*
X121239679Y-78967127D01*
X135685810Y-114971713D02*
X147220618Y-115045196D01*
X157844016Y-114629056D02*
X156937100Y-114661807D01*
X130819195Y-86408399D02*
X130720698Y-86525584D01*
X117707129Y-64344996D02*
X117137777Y-64663610D01*
X120921673Y-81978239D02*
X120983189Y-82175998D01*
X128172111Y-73080513D02*
X128159637Y-73104252D01*
X138993892Y-57746621D02*
X139528962Y-57834716D01*
X167904565Y-60264796D02*
X167836532Y-59897304D01*
X133498007Y-82107331D02*
X133498007Y-82107331D01*
X115709082Y-71545953D02*
X115584343Y-71453100D01*
X127479832Y-88165477D02*
X127665997Y-88190204D01*
X166644816Y-52443338D02*
X166796561Y-51979307D01*
X167550243Y-67772161D02*
X167359580Y-69306632D01*
X166142816Y-44365261D02*
X165943343Y-44088538D01*
X165684137Y-55127868D02*
X165669254Y-55083705D01*
X114007487Y-69597856D02*
X114041135Y-69737112D01*
X123298870Y-84490087D02*
X123407163Y-84524002D01*
X134652968Y-42064164D02*
X133359149Y-42367365D01*
X137293047Y-60640182D02*
X137207450Y-60604916D01*
X122030191Y-78538154D02*
X122686339Y-78056536D01*
X165004752Y-43106602D02*
X164736707Y-42897273D01*
X122329552Y-83493800D02*
X122196427Y-83378870D01*
X155403505Y-43139302D02*
X156035875Y-42868049D01*
X134423050Y-60621156D02*
X135066498Y-60646133D01*
X160056323Y-92239891D02*
X160094066Y-92254859D01*
X145599735Y-41162701D02*
X146083482Y-41164406D01*
X114653432Y-66489333D02*
X114571061Y-66604478D01*
X114571061Y-66604478D02*
X114493433Y-66722791D01*
X114606432Y-67329257D02*
X114712837Y-67115174D01*
X152479645Y-42438810D02*
X152087552Y-42229414D01*
X114402864Y-69659741D02*
X114367776Y-69507839D01*
X160942758Y-92929876D02*
X160979580Y-92992124D01*
X124525385Y-45249745D02*
X123452824Y-45709076D01*
X159891737Y-114550159D02*
X160096811Y-114411517D01*
X136776021Y-91031474D02*
X136802468Y-88305180D01*
X164187246Y-82039647D02*
X163756905Y-83176721D01*
X137463032Y-60714058D02*
X137293047Y-60640182D01*
X134473861Y-81562858D02*
X134579846Y-81502329D01*
X122823043Y-83852117D02*
X122692847Y-83775478D01*
X166065027Y-52855193D02*
X166065027Y-52855193D01*
X116169087Y-50210704D02*
X116344312Y-50042317D01*
X126418929Y-87812293D02*
X126587711Y-87893858D01*
X153894027Y-43773802D02*
X153932449Y-43779936D01*
X123376671Y-84092661D02*
X123234286Y-84040907D01*
X135953092Y-41790842D02*
X134652968Y-42064164D01*
X140539052Y-57920258D02*
X140564268Y-57871841D01*
X115348319Y-71249866D02*
X115237480Y-71140056D01*
X118750809Y-72136046D02*
X117308174Y-72093574D01*
X140255003Y-58398399D02*
X140275562Y-58352704D01*
X138786057Y-60731463D02*
X138918471Y-60544412D01*
X159182893Y-114464780D02*
X159077747Y-114498996D01*
X149623820Y-41241255D02*
X149195879Y-41130275D01*
X123516328Y-84555367D02*
X123626223Y-84584378D01*
X127068790Y-74835710D02*
X127021179Y-74875149D01*
X135689091Y-92297406D02*
X135801852Y-92263890D01*
X127993705Y-73352188D02*
X127964126Y-73399025D01*
X161229496Y-103242139D02*
X161204893Y-112284091D01*
X164163029Y-42528884D02*
X163858107Y-42371789D01*
X136470273Y-60787434D02*
X136591053Y-60815637D01*
X133498007Y-82107331D02*
X133156139Y-82640606D01*
X139466485Y-41605795D02*
X140688294Y-41455456D01*
X117100318Y-65131490D02*
X117970589Y-64653231D01*
X117891109Y-72517929D02*
X117891109Y-72517929D01*
X129268984Y-60527569D02*
X128403967Y-60680961D01*
X135788762Y-91858254D02*
X135591347Y-91923001D01*
X133225815Y-97232742D02*
X133225815Y-97232742D01*
X160096811Y-114411517D02*
X160292864Y-114260776D01*
X140299723Y-58306249D02*
X140326790Y-58259143D01*
X123449469Y-62335874D02*
X124397512Y-62039805D01*
X134059080Y-92935788D02*
X133927789Y-93096385D01*
X125116914Y-86122312D02*
X125004966Y-85924337D01*
X161664549Y-41713884D02*
X161277041Y-41665746D01*
X136184648Y-81995319D02*
X136200671Y-82074221D01*
X135732604Y-57369874D02*
X135732604Y-57369874D01*
X160697406Y-113258651D02*
X160566137Y-113435917D01*
X128089778Y-72860028D02*
X128118529Y-72868652D01*
X120796335Y-80334635D02*
X120775738Y-80540722D01*
X158749832Y-114575124D02*
X158749832Y-114575124D01*
X156678229Y-42623000D02*
X157003159Y-42512692D01*
X166576523Y-75478568D02*
X166900277Y-74068150D01*
X115476858Y-55224764D02*
X115609528Y-55396340D01*
X165703170Y-55172152D02*
X165684137Y-55127868D01*
X165611695Y-53940368D02*
X165362901Y-54473404D01*
X135023975Y-92174400D02*
X134845288Y-92277304D01*
X138360475Y-61269912D02*
X138507640Y-61094702D01*
X162429677Y-41863922D02*
X162049006Y-41779705D01*
X161164574Y-93466361D02*
X161180526Y-93538189D01*
X167754606Y-59533531D02*
X167659399Y-59173540D01*
X136045338Y-80866597D02*
X136064047Y-80902024D01*
X117199063Y-56575141D02*
X117407961Y-56651197D01*
X135103040Y-81178166D02*
X135313651Y-81052502D01*
X124252873Y-85069822D02*
X124302092Y-85251488D01*
X133240778Y-96754235D02*
X133236998Y-96994692D01*
X113979183Y-69457530D02*
X114007487Y-69597856D01*
X160094066Y-92254859D02*
X160128628Y-92272774D01*
X115360575Y-65788184D02*
X115245758Y-65875763D01*
X161074876Y-42055400D02*
X161321017Y-42067722D01*
X128159637Y-73104252D02*
X128130505Y-73153083D01*
X115450052Y-66177433D02*
X115633694Y-66022269D01*
X130602475Y-87193637D02*
X130780509Y-87031722D01*
X135652493Y-80437454D02*
X135593561Y-80473506D01*
X114552496Y-70102695D02*
X114495448Y-69957455D01*
X134507428Y-92511858D02*
X134349543Y-92643540D01*
X121214232Y-81591825D02*
X121184121Y-81421620D01*
X128189713Y-72919634D02*
X128197764Y-72936014D01*
X121439072Y-83099052D02*
X121559456Y-83266505D01*
X134543007Y-114419329D02*
X134714420Y-114546180D01*
X114744474Y-52354719D02*
X114727206Y-52570520D01*
X133632726Y-93553766D02*
X133574935Y-93662346D01*
X115144597Y-53423284D02*
X115124025Y-53259469D01*
X116993197Y-72067189D02*
X116838852Y-72040655D01*
X118056749Y-56812632D02*
X118278196Y-56844699D01*
X124542967Y-84414878D02*
X123960094Y-84264044D01*
X128371011Y-73500413D02*
X128537899Y-73195887D01*
X134862910Y-92728063D02*
X134958208Y-92659869D01*
X136946998Y-60920899D02*
X137063836Y-60961731D01*
X135974992Y-80767457D02*
X136000943Y-80799244D01*
X165959868Y-53129965D02*
X165848556Y-53402128D01*
X125445449Y-86584409D02*
X125374232Y-86496184D01*
X159242508Y-92100569D02*
X159247566Y-92120164D01*
X164968775Y-43588214D02*
X165213147Y-43827063D01*
X136526623Y-81496103D02*
X136378503Y-80141737D01*
X166469367Y-51707533D02*
X166346970Y-52094809D01*
X133224013Y-95779458D02*
X133234559Y-96268324D01*
X117308174Y-72093574D02*
X117308174Y-72093574D01*
X148966046Y-41499698D02*
X149436217Y-41613107D01*
X115164698Y-50915015D02*
X115072607Y-51108896D01*
X123094237Y-83984072D02*
X122956998Y-83921395D01*
X114445496Y-69809708D02*
X114402864Y-69659741D01*
X122921999Y-77416664D02*
X122318946Y-77843433D01*
X136200671Y-82074221D02*
X136281909Y-83278196D01*
X166111153Y-55795851D02*
X165703170Y-55172152D01*
X133289328Y-94573578D02*
X133257360Y-94810668D01*
X134073639Y-81374849D02*
X133955661Y-81474741D01*
X159768845Y-114175902D02*
X159582205Y-114287234D01*
X127114427Y-88085416D02*
X127295885Y-88130435D01*
X159243601Y-92077607D02*
X159242508Y-92100569D01*
X121733770Y-78295110D02*
X121593509Y-78452790D01*
X135825465Y-42213394D02*
X137034453Y-41986550D01*
X127940271Y-73443133D02*
X127931096Y-73463921D01*
X114724761Y-53003729D02*
X114739589Y-53219939D01*
X122136197Y-83860035D02*
X122303859Y-83986482D01*
X128171637Y-87796973D02*
X128019726Y-87803481D01*
X138507640Y-61094702D02*
X138649307Y-60915056D01*
X135702732Y-114568263D02*
X135603885Y-114540759D01*
X133225815Y-97232742D02*
X133259661Y-104955979D01*
X127917484Y-73520054D02*
X127851610Y-73626909D01*
X166844592Y-47297879D02*
X166893212Y-47700447D01*
X128162401Y-72891041D02*
X128178006Y-72904611D01*
X123234286Y-84040907D02*
X123094237Y-83984072D01*
X115125621Y-52594718D02*
X115125621Y-52594718D01*
X126406099Y-87377619D02*
X126406099Y-87377619D01*
X136710703Y-60847510D02*
X136829319Y-60882712D01*
X118284000Y-64040037D02*
X117707129Y-64344996D01*
X135476797Y-80535331D02*
X135419015Y-80559032D01*
D11*
G36*
X133254340Y-111636133D02*
G01*
X133242257Y-111239640D01*
X133222866Y-109343080D01*
X134543538Y-109343080D01*
X134546918Y-109428599D01*
X134554204Y-109511093D01*
X134565302Y-109590581D01*
X134580113Y-109667083D01*
X134598542Y-109740621D01*
X134620492Y-109811215D01*
X134645866Y-109878885D01*
X134674568Y-109943651D01*
X134706501Y-110005533D01*
X134741568Y-110064553D01*
X134779674Y-110120731D01*
X134820721Y-110174087D01*
X134864614Y-110224641D01*
X134911254Y-110272414D01*
X134960547Y-110317426D01*
X135012395Y-110359698D01*
X135066702Y-110399250D01*
X135123371Y-110436102D01*
X135182306Y-110470275D01*
X135243410Y-110501789D01*
X135306586Y-110530665D01*
X135371739Y-110556923D01*
X135438771Y-110580583D01*
X135507586Y-110601666D01*
X135578088Y-110620193D01*
X135650179Y-110636183D01*
X135723764Y-110649657D01*
X135798745Y-110660635D01*
X135952512Y-110675187D01*
X136110707Y-110680001D01*
X136249872Y-110676043D01*
X136388101Y-110664001D01*
X136524284Y-110643625D01*
X136657313Y-110614664D01*
X136786076Y-110576869D01*
X136909465Y-110529990D01*
X137026369Y-110473775D01*
X137082043Y-110442089D01*
X137135679Y-110407975D01*
X137187140Y-110371403D01*
X137236286Y-110332340D01*
X137282978Y-110290756D01*
X137327078Y-110246620D01*
X137368448Y-110199899D01*
X137406948Y-110150563D01*
X137442439Y-110098581D01*
X137474784Y-110043920D01*
X137503843Y-109986551D01*
X137529477Y-109926441D01*
X137551548Y-109863560D01*
X137569918Y-109797876D01*
X137584446Y-109729358D01*
X137594996Y-109657974D01*
X137601427Y-109583693D01*
X137603602Y-109506484D01*
X137599507Y-109433708D01*
X137589982Y-109360518D01*
X137574995Y-109287372D01*
X137554514Y-109214726D01*
X137528506Y-109143038D01*
X137496938Y-109072765D01*
X137459777Y-109004362D01*
X137416992Y-108938289D01*
X137368549Y-108875000D01*
X137342196Y-108844543D01*
X137314416Y-108814954D01*
X137285205Y-108786289D01*
X137254560Y-108758606D01*
X137222475Y-108731963D01*
X137188948Y-108706415D01*
X137153974Y-108682021D01*
X137117548Y-108658837D01*
X137079668Y-108636921D01*
X137040328Y-108616329D01*
X136999525Y-108597119D01*
X136957254Y-108579348D01*
X136913512Y-108563073D01*
X136868295Y-108548351D01*
X136868298Y-108548345D01*
X136625748Y-108480107D01*
X136275967Y-108386801D01*
X135783907Y-108258683D01*
X135734839Y-108243878D01*
X135687990Y-108227277D01*
X135643491Y-108208827D01*
X135601473Y-108188472D01*
X135562066Y-108166159D01*
X135525401Y-108141833D01*
X135491608Y-108115441D01*
X135475829Y-108101452D01*
X135460818Y-108086926D01*
X135446589Y-108071856D01*
X135433161Y-108056236D01*
X135420548Y-108040058D01*
X135408768Y-108023315D01*
X135397836Y-108006001D01*
X135387769Y-107988110D01*
X135378584Y-107969633D01*
X135370296Y-107950565D01*
X135362922Y-107930899D01*
X135356479Y-107910627D01*
X135350981Y-107889744D01*
X135346447Y-107868241D01*
X135342892Y-107846114D01*
X135340333Y-107823353D01*
X135338785Y-107799954D01*
X135338265Y-107775909D01*
X135339383Y-107741175D01*
X135342677Y-107707979D01*
X135348063Y-107676293D01*
X135355456Y-107646088D01*
X135364768Y-107617336D01*
X135375915Y-107590007D01*
X135388811Y-107564074D01*
X135403371Y-107539508D01*
X135419507Y-107516280D01*
X135437136Y-107494361D01*
X135456171Y-107473724D01*
X135476527Y-107454339D01*
X135498117Y-107436179D01*
X135520857Y-107419213D01*
X135544660Y-107403415D01*
X135569441Y-107388755D01*
X135595114Y-107375205D01*
X135621594Y-107362736D01*
X135648794Y-107351319D01*
X135676630Y-107340927D01*
X135705015Y-107331530D01*
X135733864Y-107323100D01*
X135792610Y-107309027D01*
X135852183Y-107298479D01*
X135911897Y-107291228D01*
X135971068Y-107287045D01*
X136029009Y-107285701D01*
X136112438Y-107287821D01*
X136192657Y-107294303D01*
X136269417Y-107305334D01*
X136342466Y-107321097D01*
X136411555Y-107341778D01*
X136444536Y-107354021D01*
X136476433Y-107367562D01*
X136507215Y-107382425D01*
X136536851Y-107398633D01*
X136565309Y-107416210D01*
X136592558Y-107435177D01*
X136618566Y-107455559D01*
X136643303Y-107477379D01*
X136666738Y-107500659D01*
X136688837Y-107525423D01*
X136709572Y-107551693D01*
X136728910Y-107579494D01*
X136746820Y-107608848D01*
X136763270Y-107639778D01*
X136778231Y-107672307D01*
X136791669Y-107706458D01*
X136803554Y-107742256D01*
X136813855Y-107779722D01*
X136822540Y-107818879D01*
X136829578Y-107859752D01*
X136834938Y-107902363D01*
X136838589Y-107946735D01*
X137492194Y-107946735D01*
X137490432Y-107879884D01*
X137737308Y-107879884D01*
X138576596Y-110598296D01*
X139207921Y-110598296D01*
X139705553Y-108578059D01*
X139712974Y-108578059D01*
X140218033Y-110598296D01*
X140834501Y-110598296D01*
X141978309Y-110598296D01*
X142579922Y-110598296D01*
X142579922Y-108318067D01*
X142854738Y-108318067D01*
X143300379Y-108318067D01*
X143300379Y-110590835D01*
X143901992Y-110590835D01*
X143901992Y-108325528D01*
X144540739Y-108325528D01*
X144926962Y-108325528D01*
X144926962Y-109929836D01*
X144929756Y-110012256D01*
X144935737Y-110089595D01*
X144945483Y-110161821D01*
X144951948Y-110196006D01*
X144959570Y-110228900D01*
X144968421Y-110260500D01*
X144978575Y-110290801D01*
X144990102Y-110319799D01*
X145003074Y-110347490D01*
X145017564Y-110373870D01*
X145033645Y-110398935D01*
X145051387Y-110422681D01*
X145070863Y-110445104D01*
X145092145Y-110466199D01*
X145115305Y-110485963D01*
X145140416Y-110504391D01*
X145167549Y-110521480D01*
X145196776Y-110537225D01*
X145228170Y-110551622D01*
X145261803Y-110564667D01*
X145297746Y-110576357D01*
X145336071Y-110586687D01*
X145376852Y-110595652D01*
X145420159Y-110603250D01*
X145466066Y-110609475D01*
X145514643Y-110614324D01*
X145565964Y-110617793D01*
X145620100Y-110619877D01*
X145677123Y-110620572D01*
X145726923Y-110619599D01*
X145776114Y-110616972D01*
X145824783Y-110613126D01*
X145873017Y-110608497D01*
X145968527Y-110598639D01*
X145972256Y-110598296D01*
X146486700Y-110598296D01*
X149049130Y-110598296D01*
X149049130Y-110026389D01*
X147140304Y-110026389D01*
X147140304Y-109239087D01*
X149175398Y-109239087D01*
X149180945Y-109393413D01*
X149187852Y-109468203D01*
X149197492Y-109541330D01*
X149209846Y-109612732D01*
X149224896Y-109682349D01*
X149242626Y-109750119D01*
X149263018Y-109815981D01*
X149286053Y-109879874D01*
X149311714Y-109941737D01*
X149339984Y-110001507D01*
X149370845Y-110059125D01*
X149404279Y-110114529D01*
X149440268Y-110167657D01*
X149478795Y-110218450D01*
X149519842Y-110266844D01*
X149563391Y-110312780D01*
X149609425Y-110356195D01*
X149657926Y-110397029D01*
X149708876Y-110435221D01*
X149762258Y-110470710D01*
X149818054Y-110503433D01*
X149876246Y-110533330D01*
X149936817Y-110560340D01*
X149999749Y-110584402D01*
X150065024Y-110605454D01*
X150132625Y-110623435D01*
X150202533Y-110638284D01*
X150274732Y-110649940D01*
X150349203Y-110658341D01*
X150425929Y-110663427D01*
X150504893Y-110665136D01*
X150615190Y-110661237D01*
X150722984Y-110649614D01*
X150827863Y-110630374D01*
X150929413Y-110603628D01*
X151027219Y-110569483D01*
X151120870Y-110528049D01*
X151209951Y-110479434D01*
X151294049Y-110423747D01*
X151334100Y-110393285D01*
X151372750Y-110361097D01*
X151409948Y-110327194D01*
X151445642Y-110291592D01*
X151479780Y-110254304D01*
X151512310Y-110215342D01*
X151543181Y-110174722D01*
X151572341Y-110132455D01*
X151599739Y-110088557D01*
X151625323Y-110043041D01*
X151649040Y-109995919D01*
X151670840Y-109947207D01*
X151690671Y-109896916D01*
X151708481Y-109845062D01*
X151724218Y-109791658D01*
X151737831Y-109736716D01*
X151173354Y-109736716D01*
X151152629Y-109790764D01*
X151141335Y-109816541D01*
X151129412Y-109841483D01*
X151116853Y-109865587D01*
X151103650Y-109888851D01*
X151089797Y-109911271D01*
X151075288Y-109932846D01*
X151060115Y-109953571D01*
X151044271Y-109973446D01*
X151027750Y-109992466D01*
X151010545Y-110010630D01*
X150992649Y-110027934D01*
X150974055Y-110044376D01*
X150954757Y-110059953D01*
X150934748Y-110074663D01*
X150914021Y-110088502D01*
X150892569Y-110101467D01*
X150870385Y-110113557D01*
X150847462Y-110124769D01*
X150823795Y-110135099D01*
X150799375Y-110144545D01*
X150774197Y-110153105D01*
X150748252Y-110160774D01*
X150721536Y-110167552D01*
X150694039Y-110173435D01*
X150665757Y-110178421D01*
X150636682Y-110182506D01*
X150606808Y-110185688D01*
X150576126Y-110187964D01*
X150544632Y-110189332D01*
X150512317Y-110189788D01*
X150466447Y-110188688D01*
X150422136Y-110185431D01*
X150379378Y-110180076D01*
X150338167Y-110172685D01*
X150298495Y-110163319D01*
X150260356Y-110152040D01*
X150223743Y-110138908D01*
X150188649Y-110123986D01*
X150155067Y-110107333D01*
X150122991Y-110089012D01*
X150092413Y-110069083D01*
X150063327Y-110047608D01*
X150035726Y-110024648D01*
X150009604Y-110000264D01*
X149984953Y-109974518D01*
X149961767Y-109947469D01*
X149940039Y-109919181D01*
X149919761Y-109889713D01*
X149900928Y-109859128D01*
X149883533Y-109827486D01*
X149867568Y-109794848D01*
X149853028Y-109761276D01*
X149839904Y-109726832D01*
X149828191Y-109691575D01*
X149817881Y-109655567D01*
X149808967Y-109618870D01*
X149801444Y-109581545D01*
X149795304Y-109543653D01*
X149787146Y-109466412D01*
X149784439Y-109387637D01*
X151782391Y-109387637D01*
X151788971Y-109311871D01*
X151791924Y-109239087D01*
X151990356Y-109239087D01*
X151995903Y-109393413D01*
X152002810Y-109468203D01*
X152012449Y-109541330D01*
X152024803Y-109612732D01*
X152039854Y-109682349D01*
X152057584Y-109750119D01*
X152077975Y-109815981D01*
X152101010Y-109879874D01*
X152126671Y-109941737D01*
X152154941Y-110001507D01*
X152185802Y-110059125D01*
X152219235Y-110114529D01*
X152255224Y-110167657D01*
X152293751Y-110218450D01*
X152334798Y-110266844D01*
X152378347Y-110312780D01*
X152424381Y-110356195D01*
X152472882Y-110397029D01*
X152523832Y-110435221D01*
X152577214Y-110470710D01*
X152633010Y-110503433D01*
X152691203Y-110533330D01*
X152751774Y-110560340D01*
X152814706Y-110584402D01*
X152879981Y-110605454D01*
X152947581Y-110623435D01*
X153017490Y-110638284D01*
X153089689Y-110649940D01*
X153164160Y-110658341D01*
X153240887Y-110663427D01*
X153319850Y-110665136D01*
X153430146Y-110661237D01*
X153537940Y-110649614D01*
X153642818Y-110630374D01*
X153744367Y-110603628D01*
X153842173Y-110569483D01*
X153935823Y-110528049D01*
X154024904Y-110479434D01*
X154109002Y-110423747D01*
X154149053Y-110393285D01*
X154187703Y-110361097D01*
X154224901Y-110327194D01*
X154260595Y-110291592D01*
X154294733Y-110254304D01*
X154327263Y-110215342D01*
X154358134Y-110174722D01*
X154387295Y-110132455D01*
X154414692Y-110088557D01*
X154440276Y-110043041D01*
X154463994Y-109995919D01*
X154485794Y-109947207D01*
X154505625Y-109896916D01*
X154523435Y-109845062D01*
X154539172Y-109791658D01*
X154552785Y-109736716D01*
X153988308Y-109736716D01*
X153967584Y-109790764D01*
X153956291Y-109816541D01*
X153944368Y-109841483D01*
X153931809Y-109865587D01*
X153918607Y-109888851D01*
X153904754Y-109911271D01*
X153890245Y-109932846D01*
X153875071Y-109953571D01*
X153859228Y-109973446D01*
X153842707Y-109992466D01*
X153825502Y-110010630D01*
X153807606Y-110027934D01*
X153789012Y-110044376D01*
X153769714Y-110059953D01*
X153749704Y-110074663D01*
X153728977Y-110088502D01*
X153707525Y-110101467D01*
X153685341Y-110113557D01*
X153662418Y-110124769D01*
X153638751Y-110135099D01*
X153614331Y-110144545D01*
X153589152Y-110153105D01*
X153563208Y-110160774D01*
X153536491Y-110167552D01*
X153508995Y-110173435D01*
X153480713Y-110178421D01*
X153451638Y-110182506D01*
X153421764Y-110185688D01*
X153391083Y-110187964D01*
X153359589Y-110189332D01*
X153327275Y-110189788D01*
X153281404Y-110188688D01*
X153237094Y-110185431D01*
X153194336Y-110180076D01*
X153153125Y-110172685D01*
X153113453Y-110163319D01*
X153075314Y-110152040D01*
X153038700Y-110138908D01*
X153003606Y-110123986D01*
X152970024Y-110107333D01*
X152937948Y-110089012D01*
X152907370Y-110069083D01*
X152878284Y-110047608D01*
X152850683Y-110024648D01*
X152824560Y-110000264D01*
X152799909Y-109974518D01*
X152776723Y-109947469D01*
X152754995Y-109919181D01*
X152734717Y-109889713D01*
X152715884Y-109859128D01*
X152698489Y-109827486D01*
X152682524Y-109794848D01*
X152667983Y-109761276D01*
X152654859Y-109726832D01*
X152643146Y-109691575D01*
X152632836Y-109655567D01*
X152623922Y-109618870D01*
X152616399Y-109581545D01*
X152610259Y-109543653D01*
X152602101Y-109466412D01*
X152599393Y-109387637D01*
X154597349Y-109387637D01*
X154604582Y-109311871D01*
X154608213Y-109236456D01*
X154608234Y-109216806D01*
X154812749Y-109216806D01*
X154817629Y-109367709D01*
X154832290Y-109513608D01*
X154856764Y-109653850D01*
X154891085Y-109787781D01*
X154911948Y-109852177D01*
X154935284Y-109914749D01*
X154961099Y-109975418D01*
X154989396Y-110034102D01*
X155020178Y-110090718D01*
X155053451Y-110145185D01*
X155089218Y-110197422D01*
X155127483Y-110247348D01*
X155168251Y-110294879D01*
X155211525Y-110339935D01*
X155257310Y-110382435D01*
X155305609Y-110422296D01*
X155356427Y-110459437D01*
X155409767Y-110493777D01*
X155465635Y-110525234D01*
X155524033Y-110553725D01*
X155584967Y-110579171D01*
X155648439Y-110601488D01*
X155714455Y-110620596D01*
X155783018Y-110636413D01*
X155854132Y-110648857D01*
X155927802Y-110657846D01*
X156004031Y-110663300D01*
X156082823Y-110665136D01*
X156146839Y-110663560D01*
X156210583Y-110658797D01*
X156273783Y-110650791D01*
X156336166Y-110639489D01*
X156397462Y-110624836D01*
X156457398Y-110606778D01*
X156515701Y-110585260D01*
X156572101Y-110560228D01*
X156626324Y-110531627D01*
X156678100Y-110499402D01*
X156727156Y-110463501D01*
X156773219Y-110423867D01*
X156816019Y-110380447D01*
X156855283Y-110333186D01*
X156873504Y-110308098D01*
X156890739Y-110282030D01*
X156906955Y-110254974D01*
X156922116Y-110226924D01*
X156929537Y-110226924D01*
X156929537Y-110598296D01*
X157494017Y-110598296D01*
X157494017Y-109721868D01*
X157887671Y-109721868D01*
X157889836Y-109780773D01*
X157894900Y-109837724D01*
X157902800Y-109892729D01*
X157913476Y-109945791D01*
X157926867Y-109996917D01*
X157942911Y-110046111D01*
X157961548Y-110093380D01*
X157982715Y-110138729D01*
X158006352Y-110182162D01*
X158032398Y-110223687D01*
X158060791Y-110263307D01*
X158091471Y-110301029D01*
X158124375Y-110336858D01*
X158159443Y-110370799D01*
X158196613Y-110402857D01*
X158235825Y-110433039D01*
X158277017Y-110461350D01*
X158320128Y-110487795D01*
X158365097Y-110512379D01*
X158411863Y-110535108D01*
X158460363Y-110555988D01*
X158510538Y-110575024D01*
X158562326Y-110592221D01*
X158615665Y-110607584D01*
X158670495Y-110621120D01*
X158726755Y-110632833D01*
X158784382Y-110642730D01*
X158843317Y-110650814D01*
X158903497Y-110657093D01*
X158964862Y-110661571D01*
X159090900Y-110665147D01*
X159197520Y-110662320D01*
X159304988Y-110653672D01*
X159412238Y-110638953D01*
X159518205Y-110617913D01*
X159621821Y-110590301D01*
X159722021Y-110555867D01*
X159817739Y-110514362D01*
X159907908Y-110465534D01*
X159950578Y-110438296D01*
X159991462Y-110409134D01*
X160030425Y-110378016D01*
X160067334Y-110344912D01*
X160102057Y-110309789D01*
X160134460Y-110272616D01*
X160164409Y-110233363D01*
X160191771Y-110191998D01*
X160216413Y-110148490D01*
X160238203Y-110102807D01*
X160257005Y-110054918D01*
X160272688Y-110004792D01*
X160285118Y-109952397D01*
X160294161Y-109897703D01*
X160299685Y-109840678D01*
X160301556Y-109781291D01*
X160301634Y-109732257D01*
X160299141Y-109685384D01*
X160294158Y-109640613D01*
X160286771Y-109597886D01*
X160277060Y-109557145D01*
X160265110Y-109518331D01*
X160251002Y-109481385D01*
X160234821Y-109446250D01*
X160216649Y-109412866D01*
X160196569Y-109381175D01*
X160174664Y-109351120D01*
X160151017Y-109322640D01*
X160125711Y-109295678D01*
X160098828Y-109270175D01*
X160070453Y-109246073D01*
X160040667Y-109223313D01*
X160009553Y-109201837D01*
X159977196Y-109181587D01*
X159943676Y-109162503D01*
X159909079Y-109144527D01*
X159836980Y-109111668D01*
X159761563Y-109082540D01*
X159683491Y-109056676D01*
X159603428Y-109033608D01*
X159522037Y-109012868D01*
X159439982Y-108993989D01*
X159439976Y-108993989D01*
X159117004Y-108926564D01*
X158967747Y-108891241D01*
X158898499Y-108871616D01*
X158833722Y-108850086D01*
X158774080Y-108826207D01*
X158720238Y-108799531D01*
X158672858Y-108769613D01*
X158651799Y-108753299D01*
X158632604Y-108736007D01*
X158615357Y-108717681D01*
X158600140Y-108698267D01*
X158587037Y-108677706D01*
X158576130Y-108655946D01*
X158567503Y-108632928D01*
X158561238Y-108608598D01*
X158557418Y-108582900D01*
X158556126Y-108555778D01*
X158557047Y-108534057D01*
X158559754Y-108513441D01*
X158564162Y-108493902D01*
X158570183Y-108475413D01*
X158577733Y-108457946D01*
X158586726Y-108441475D01*
X158597076Y-108425972D01*
X158608697Y-108411410D01*
X158621505Y-108397762D01*
X158635413Y-108385001D01*
X158650335Y-108373100D01*
X158666186Y-108362030D01*
X158682881Y-108351766D01*
X158700333Y-108342279D01*
X158718457Y-108333543D01*
X158737167Y-108325531D01*
X158756377Y-108318215D01*
X158776002Y-108311568D01*
X158795957Y-108305563D01*
X158816154Y-108300173D01*
X158856938Y-108291128D01*
X158897667Y-108284215D01*
X158937656Y-108279218D01*
X158976220Y-108275917D01*
X159012673Y-108274096D01*
X159046331Y-108273538D01*
X159094772Y-108274524D01*
X159142451Y-108277600D01*
X159189129Y-108282938D01*
X159234567Y-108290713D01*
X159278526Y-108301100D01*
X159320765Y-108314272D01*
X159361047Y-108330403D01*
X159399130Y-108349668D01*
X159417273Y-108360530D01*
X159434776Y-108372241D01*
X159451611Y-108384822D01*
X159467746Y-108398295D01*
X159483153Y-108412682D01*
X159497800Y-108428004D01*
X159511659Y-108444285D01*
X159524699Y-108461544D01*
X159536890Y-108479804D01*
X159548203Y-108499088D01*
X159558607Y-108519415D01*
X159568073Y-108540809D01*
X159576570Y-108563291D01*
X159584070Y-108586883D01*
X159590541Y-108611606D01*
X159595953Y-108637483D01*
X160219851Y-108637483D01*
X160211637Y-108582165D01*
X160200969Y-108528997D01*
X160187915Y-108477954D01*
X160172545Y-108429009D01*
X160154928Y-108382137D01*
X160135134Y-108337312D01*
X160113232Y-108294507D01*
X160089291Y-108253698D01*
X160063381Y-108214858D01*
X160035572Y-108177961D01*
X160005931Y-108142982D01*
X159974530Y-108109895D01*
X159941437Y-108078674D01*
X159906721Y-108049293D01*
X159870452Y-108021726D01*
X159832699Y-107995947D01*
X159793533Y-107971931D01*
X159753021Y-107949652D01*
X159711233Y-107929083D01*
X159668239Y-107910200D01*
X159624108Y-107892975D01*
X159578910Y-107877384D01*
X159532713Y-107863401D01*
X159485587Y-107850999D01*
X159388827Y-107830837D01*
X159289184Y-107816692D01*
X159187212Y-107808356D01*
X159083467Y-107805623D01*
X158989922Y-107807854D01*
X158893896Y-107814762D01*
X158796564Y-107826676D01*
X158699103Y-107843921D01*
X158602685Y-107866823D01*
X158508488Y-107895709D01*
X158417685Y-107930906D01*
X158331451Y-107972739D01*
X158290415Y-107996247D01*
X158250962Y-108021536D01*
X158213239Y-108048647D01*
X158177393Y-108077621D01*
X158143570Y-108108500D01*
X158111918Y-108141323D01*
X158082583Y-108176132D01*
X158055713Y-108212967D01*
X158031453Y-108251869D01*
X158009952Y-108292879D01*
X157991356Y-108336038D01*
X157975811Y-108381387D01*
X157963466Y-108428966D01*
X157954465Y-108478816D01*
X157948957Y-108530978D01*
X157947089Y-108585492D01*
X157948338Y-108635897D01*
X157952034Y-108684096D01*
X157958098Y-108730146D01*
X157966455Y-108774105D01*
X157977025Y-108816029D01*
X157989732Y-108855975D01*
X158004498Y-108894002D01*
X158021246Y-108930165D01*
X158039897Y-108964522D01*
X158060375Y-108997130D01*
X158082602Y-109028047D01*
X158106500Y-109057328D01*
X158131992Y-109085032D01*
X158159001Y-109111216D01*
X158187448Y-109135936D01*
X158217257Y-109159250D01*
X158248350Y-109181215D01*
X158280649Y-109201889D01*
X158314076Y-109221327D01*
X158348555Y-109239587D01*
X158420357Y-109272804D01*
X158495433Y-109301995D01*
X158573164Y-109327617D01*
X158652930Y-109350128D01*
X158734110Y-109369984D01*
X158816084Y-109387643D01*
X159137082Y-109454256D01*
X159212491Y-109471181D01*
X159284787Y-109489216D01*
X159353385Y-109508862D01*
X159417696Y-109530618D01*
X159477133Y-109554985D01*
X159531109Y-109582464D01*
X159579035Y-109613555D01*
X159600546Y-109630611D01*
X159620325Y-109648759D01*
X159638298Y-109668059D01*
X159654391Y-109688575D01*
X159668531Y-109710370D01*
X159680645Y-109733506D01*
X159690659Y-109758045D01*
X159698499Y-109784050D01*
X159704093Y-109811584D01*
X159707367Y-109840709D01*
X159707580Y-109869178D01*
X159705505Y-109896120D01*
X159701249Y-109921578D01*
X159694917Y-109945591D01*
X159686617Y-109968201D01*
X159676453Y-109989448D01*
X159664533Y-110009373D01*
X159650961Y-110028016D01*
X159635845Y-110045420D01*
X159619290Y-110061624D01*
X159601402Y-110076669D01*
X159582287Y-110090597D01*
X159562052Y-110103447D01*
X159540802Y-110115261D01*
X159518644Y-110126079D01*
X159495684Y-110135943D01*
X159472027Y-110144893D01*
X159447780Y-110152969D01*
X159423049Y-110160214D01*
X159397940Y-110166667D01*
X159347012Y-110177361D01*
X159295844Y-110185379D01*
X159245286Y-110191047D01*
X159196185Y-110194691D01*
X159149391Y-110196639D01*
X159105751Y-110197215D01*
X159046523Y-110195712D01*
X158988785Y-110191108D01*
X158932810Y-110183262D01*
X158878869Y-110172032D01*
X158827235Y-110157277D01*
X158778180Y-110138856D01*
X158754704Y-110128226D01*
X158731975Y-110116627D01*
X158710026Y-110104040D01*
X158688893Y-110090448D01*
X158668607Y-110075834D01*
X158649205Y-110060179D01*
X158630719Y-110043466D01*
X158613183Y-110025677D01*
X158596633Y-110006795D01*
X158581100Y-109986802D01*
X158566621Y-109965680D01*
X158553228Y-109943411D01*
X158540956Y-109919978D01*
X158529838Y-109895364D01*
X158519909Y-109869550D01*
X158511203Y-109842518D01*
X158503753Y-109814252D01*
X158497594Y-109784734D01*
X158492760Y-109753945D01*
X158489284Y-109721868D01*
X157887671Y-109721868D01*
X157494017Y-109721868D01*
X157494017Y-106847490D01*
X156892404Y-106847490D01*
X156892404Y-108228969D01*
X156899828Y-108228975D01*
X156892407Y-108228975D01*
X156874441Y-108201622D01*
X156855385Y-108175261D01*
X156835282Y-108149886D01*
X156814174Y-108125486D01*
X156792103Y-108102056D01*
X156769111Y-108079585D01*
X156745241Y-108058066D01*
X156720535Y-108037491D01*
X156695034Y-108017851D01*
X156668781Y-107999139D01*
X156614187Y-107964465D01*
X156557091Y-107933403D01*
X156497830Y-107905888D01*
X156436741Y-107881854D01*
X156374162Y-107861236D01*
X156310429Y-107843970D01*
X156245880Y-107829989D01*
X156180853Y-107819229D01*
X156115684Y-107811623D01*
X156050712Y-107807108D01*
X155986272Y-107805618D01*
X155930628Y-107806883D01*
X155875174Y-107810695D01*
X155820013Y-107817074D01*
X155765250Y-107826042D01*
X155710988Y-107837622D01*
X155657329Y-107851835D01*
X155604377Y-107868702D01*
X155552236Y-107888246D01*
X155501009Y-107910487D01*
X155450799Y-107935449D01*
X155401710Y-107963153D01*
X155353844Y-107993620D01*
X155307306Y-108026872D01*
X155262199Y-108062931D01*
X155218626Y-108101819D01*
X155176690Y-108143558D01*
X155136495Y-108188169D01*
X155098144Y-108235674D01*
X155061741Y-108286095D01*
X155027388Y-108339453D01*
X154995190Y-108395771D01*
X154965250Y-108455069D01*
X154937670Y-108517371D01*
X154912555Y-108582697D01*
X154890007Y-108651070D01*
X154870130Y-108722511D01*
X154853028Y-108797041D01*
X154838803Y-108874684D01*
X154827560Y-108955460D01*
X154819401Y-109039391D01*
X154814429Y-109126499D01*
X154812749Y-109216806D01*
X154608234Y-109216806D01*
X154608294Y-109161528D01*
X154604879Y-109087222D01*
X154598020Y-109013672D01*
X154587771Y-108941013D01*
X154574184Y-108869379D01*
X154557313Y-108798905D01*
X154537210Y-108729726D01*
X154513929Y-108661976D01*
X154487523Y-108595790D01*
X154458045Y-108531303D01*
X154425547Y-108468649D01*
X154390083Y-108407963D01*
X154351706Y-108349379D01*
X154310470Y-108293033D01*
X154266426Y-108239058D01*
X154219628Y-108187590D01*
X154170129Y-108138763D01*
X154117982Y-108092712D01*
X154063240Y-108049571D01*
X154005957Y-108009475D01*
X153946185Y-107972558D01*
X153883977Y-107938956D01*
X153819386Y-107908803D01*
X153752465Y-107882234D01*
X153683268Y-107859383D01*
X153611848Y-107840384D01*
X153538257Y-107825373D01*
X153462548Y-107814484D01*
X153384775Y-107807852D01*
X153304990Y-107805612D01*
X153304993Y-107805618D01*
X153229993Y-107807537D01*
X153156815Y-107813230D01*
X153085494Y-107822594D01*
X153016067Y-107835530D01*
X152948572Y-107851936D01*
X152883045Y-107871712D01*
X152819522Y-107894758D01*
X152758040Y-107920973D01*
X152698637Y-107950255D01*
X152641348Y-107982505D01*
X152586211Y-108017622D01*
X152533262Y-108055505D01*
X152482538Y-108096054D01*
X152434076Y-108139167D01*
X152387912Y-108184745D01*
X152344083Y-108232687D01*
X152302626Y-108282891D01*
X152263577Y-108335258D01*
X152226974Y-108389687D01*
X152192852Y-108446077D01*
X152161250Y-108504327D01*
X152132203Y-108564337D01*
X152105747Y-108626006D01*
X152081921Y-108689234D01*
X152060760Y-108753919D01*
X152042302Y-108819962D01*
X152026583Y-108887262D01*
X152013639Y-108955718D01*
X152003508Y-109025229D01*
X151996226Y-109095694D01*
X151991829Y-109167014D01*
X151990356Y-109239087D01*
X151791924Y-109239087D01*
X151792031Y-109236456D01*
X151791620Y-109161528D01*
X151787788Y-109087222D01*
X151780583Y-109013672D01*
X151770054Y-108941013D01*
X151756250Y-108869379D01*
X151739220Y-108798905D01*
X151719014Y-108729726D01*
X151695679Y-108661976D01*
X151669265Y-108595790D01*
X151639822Y-108531303D01*
X151607397Y-108468649D01*
X151572040Y-108407963D01*
X151533800Y-108349379D01*
X151492726Y-108293033D01*
X151448866Y-108239058D01*
X151402270Y-108187590D01*
X151352987Y-108138763D01*
X151301065Y-108092712D01*
X151246554Y-108049571D01*
X151189503Y-108009475D01*
X151129960Y-107972558D01*
X151067974Y-107938956D01*
X151003595Y-107908803D01*
X150936871Y-107882234D01*
X150867852Y-107859383D01*
X150796585Y-107840384D01*
X150723121Y-107825373D01*
X150647509Y-107814484D01*
X150569796Y-107807852D01*
X150490033Y-107805612D01*
X150490035Y-107805618D01*
X150415036Y-107807537D01*
X150341857Y-107813230D01*
X150270536Y-107822594D01*
X150201110Y-107835530D01*
X150133614Y-107851936D01*
X150068087Y-107871712D01*
X150004564Y-107894758D01*
X149943083Y-107920973D01*
X149883679Y-107950255D01*
X149826391Y-107982505D01*
X149771253Y-108017622D01*
X149718305Y-108055505D01*
X149667580Y-108096054D01*
X149619118Y-108139167D01*
X149572954Y-108184745D01*
X149529125Y-108232687D01*
X149487668Y-108282891D01*
X149448619Y-108335258D01*
X149412016Y-108389687D01*
X149377895Y-108446077D01*
X149346292Y-108504327D01*
X149317245Y-108564337D01*
X149290790Y-108626006D01*
X149266963Y-108689234D01*
X149245803Y-108753919D01*
X149227344Y-108819962D01*
X149211625Y-108887262D01*
X149198681Y-108955718D01*
X149188550Y-109025229D01*
X149181268Y-109095694D01*
X149176872Y-109167014D01*
X149175398Y-109239087D01*
X147140304Y-109239087D01*
X147140304Y-106840057D01*
X146486700Y-106840057D01*
X146486700Y-110598296D01*
X145972256Y-110598296D01*
X146015977Y-110594281D01*
X146063341Y-110590886D01*
X146063341Y-110130387D01*
X146047939Y-110134314D01*
X146032385Y-110137750D01*
X146016700Y-110140728D01*
X146000907Y-110143282D01*
X145985026Y-110145444D01*
X145969080Y-110147247D01*
X145937079Y-110149904D01*
X145905077Y-110151516D01*
X145873249Y-110152344D01*
X145810812Y-110152692D01*
X145786457Y-110152322D01*
X145763496Y-110151214D01*
X145741890Y-110149369D01*
X145721598Y-110146788D01*
X145702579Y-110143473D01*
X145684792Y-110139424D01*
X145668196Y-110134644D01*
X145652751Y-110129134D01*
X145638415Y-110122894D01*
X145625149Y-110115928D01*
X145612911Y-110108234D01*
X145601660Y-110099816D01*
X145591355Y-110090675D01*
X145581957Y-110080811D01*
X145573423Y-110070227D01*
X145565713Y-110058923D01*
X145558787Y-110046901D01*
X145552603Y-110034162D01*
X145547121Y-110020708D01*
X145542300Y-110006540D01*
X145538100Y-109991659D01*
X145534478Y-109976067D01*
X145531395Y-109959765D01*
X145528810Y-109942755D01*
X145524970Y-109906614D01*
X145522631Y-109867654D01*
X145521466Y-109825888D01*
X145521151Y-109781326D01*
X145521151Y-108332996D01*
X146070774Y-108332996D01*
X146070768Y-108325528D01*
X146070768Y-107879884D01*
X145528575Y-107879884D01*
X145528575Y-107062879D01*
X144926962Y-107062879D01*
X144926962Y-107879884D01*
X144540739Y-107879884D01*
X144540739Y-108325528D01*
X143901992Y-108325528D01*
X143901992Y-108318067D01*
X144473891Y-108318067D01*
X144473891Y-107879884D01*
X143901992Y-107879884D01*
X143901992Y-107597650D01*
X143902381Y-107577235D01*
X143903534Y-107557759D01*
X143905432Y-107539203D01*
X143908056Y-107521546D01*
X143911387Y-107504771D01*
X143915407Y-107488859D01*
X143920096Y-107473789D01*
X143925435Y-107459544D01*
X143931404Y-107446104D01*
X143937986Y-107433450D01*
X143945161Y-107421564D01*
X143952910Y-107410425D01*
X143961213Y-107400015D01*
X143970053Y-107390315D01*
X143979409Y-107381306D01*
X143989263Y-107372969D01*
X143999595Y-107365285D01*
X144010388Y-107358235D01*
X144021621Y-107351799D01*
X144033275Y-107345959D01*
X144045333Y-107340696D01*
X144057773Y-107335990D01*
X144070579Y-107331822D01*
X144083729Y-107328175D01*
X144110991Y-107322362D01*
X144139406Y-107318398D01*
X144168822Y-107316132D01*
X144199087Y-107315410D01*
X144241968Y-107315772D01*
X144281716Y-107316917D01*
X144318678Y-107318932D01*
X144353203Y-107321904D01*
X144385639Y-107325919D01*
X144416334Y-107331065D01*
X144445636Y-107337428D01*
X144473894Y-107345096D01*
X144473894Y-106877176D01*
X144455350Y-106871859D01*
X144435902Y-106867043D01*
X144415520Y-106862707D01*
X144394168Y-106858828D01*
X144371816Y-106855385D01*
X144348430Y-106852356D01*
X144323977Y-106849719D01*
X144298426Y-106847452D01*
X144243896Y-106843942D01*
X144184578Y-106841651D01*
X144120212Y-106840405D01*
X144050537Y-106840028D01*
X143978465Y-106841531D01*
X143907416Y-106846484D01*
X143837891Y-106855549D01*
X143770389Y-106869390D01*
X143737553Y-106878309D01*
X143705411Y-106888671D01*
X143674025Y-106900559D01*
X143643457Y-106914056D01*
X143613771Y-106929244D01*
X143585029Y-106946208D01*
X143557293Y-106965029D01*
X143530626Y-106985791D01*
X143505091Y-107008576D01*
X143480749Y-107033468D01*
X143457664Y-107060550D01*
X143435899Y-107089904D01*
X143415515Y-107121614D01*
X143396575Y-107155762D01*
X143379143Y-107192431D01*
X143363279Y-107231705D01*
X143349048Y-107273666D01*
X143336511Y-107318397D01*
X143325732Y-107365982D01*
X143316772Y-107416502D01*
X143309694Y-107470042D01*
X143304561Y-107526684D01*
X143301435Y-107586511D01*
X143300379Y-107649606D01*
X143300379Y-107872434D01*
X142854738Y-107872434D01*
X142854738Y-108318067D01*
X142579922Y-108318067D01*
X142579922Y-107879884D01*
X141978309Y-107879884D01*
X141978309Y-110598296D01*
X140834501Y-110598296D01*
X141688642Y-107879884D01*
X141079607Y-107879884D01*
X140522549Y-109907554D01*
X140515128Y-109907554D01*
X140024923Y-107879884D01*
X139423307Y-107879884D01*
X138910820Y-109907554D01*
X138903399Y-109907554D01*
X138368631Y-107879884D01*
X137737308Y-107879884D01*
X137490432Y-107879884D01*
X137490295Y-107874690D01*
X137484661Y-107804787D01*
X137475388Y-107737035D01*
X137462571Y-107671445D01*
X137446305Y-107608025D01*
X137426686Y-107546785D01*
X137403808Y-107487735D01*
X137377766Y-107430884D01*
X137363733Y-107404542D01*
X141978309Y-107404542D01*
X142579922Y-107404542D01*
X142579922Y-106840057D01*
X141978309Y-106840057D01*
X141978309Y-107404542D01*
X137363733Y-107404542D01*
X137348657Y-107376241D01*
X137316574Y-107323817D01*
X137281614Y-107273620D01*
X137243871Y-107225661D01*
X137203441Y-107179948D01*
X137160419Y-107136491D01*
X137114900Y-107095300D01*
X137066979Y-107056384D01*
X137016751Y-107019753D01*
X136964312Y-106985417D01*
X136909757Y-106953384D01*
X136853181Y-106923664D01*
X136794680Y-106896268D01*
X136734347Y-106871204D01*
X136672280Y-106848481D01*
X136608572Y-106828110D01*
X136543319Y-106810100D01*
X136476617Y-106794461D01*
X136408560Y-106781201D01*
X136339243Y-106770331D01*
X136268763Y-106761860D01*
X136197213Y-106755797D01*
X136124690Y-106752153D01*
X136051288Y-106750936D01*
X135924474Y-106755041D01*
X135798193Y-106767415D01*
X135673500Y-106788144D01*
X135551451Y-106817317D01*
X135433101Y-106855019D01*
X135319506Y-106901338D01*
X135211721Y-106956361D01*
X135160336Y-106987163D01*
X135110800Y-107020174D01*
X135063245Y-107055405D01*
X135017801Y-107092866D01*
X134974601Y-107132569D01*
X134933777Y-107174523D01*
X134895461Y-107218741D01*
X134859785Y-107265233D01*
X134826880Y-107314009D01*
X134796879Y-107365081D01*
X134769913Y-107418460D01*
X134746115Y-107474156D01*
X134725616Y-107532180D01*
X134708549Y-107592544D01*
X134695044Y-107655257D01*
X134685235Y-107720332D01*
X134679252Y-107787779D01*
X134677229Y-107857608D01*
X134679472Y-107930055D01*
X134686470Y-108002339D01*
X134698624Y-108074123D01*
X134716339Y-108145069D01*
X134727406Y-108180122D01*
X134740015Y-108214839D01*
X134754215Y-108249179D01*
X134770057Y-108283098D01*
X134787590Y-108316555D01*
X134806865Y-108349507D01*
X134827933Y-108381912D01*
X134850844Y-108413729D01*
X134875647Y-108444914D01*
X134902394Y-108475426D01*
X134931135Y-108505223D01*
X134961920Y-108534263D01*
X134994800Y-108562503D01*
X135029824Y-108589900D01*
X135067043Y-108616414D01*
X135106507Y-108642002D01*
X135148267Y-108666622D01*
X135192373Y-108690230D01*
X135238876Y-108712787D01*
X135287824Y-108734248D01*
X135339270Y-108754573D01*
X135393264Y-108773718D01*
X135449854Y-108791642D01*
X135509093Y-108808303D01*
X135862936Y-108901960D01*
X136161770Y-108978208D01*
X136293388Y-109013067D01*
X136414647Y-109047491D01*
X136526681Y-109082784D01*
X136630619Y-109120252D01*
X136659827Y-109132034D01*
X136688806Y-109145219D01*
X136717327Y-109159993D01*
X136745164Y-109176540D01*
X136772086Y-109195045D01*
X136785133Y-109205090D01*
X136797866Y-109215693D01*
X136810256Y-109226879D01*
X136822275Y-109238670D01*
X136833893Y-109251089D01*
X136845084Y-109264160D01*
X136855818Y-109277905D01*
X136866066Y-109292348D01*
X136875800Y-109307512D01*
X136884991Y-109323419D01*
X136893611Y-109340094D01*
X136901632Y-109357558D01*
X136909024Y-109375836D01*
X136915759Y-109394951D01*
X136921809Y-109414925D01*
X136927145Y-109435781D01*
X136931738Y-109457544D01*
X136935560Y-109480235D01*
X136938583Y-109503878D01*
X136940777Y-109528496D01*
X136942115Y-109554113D01*
X136942567Y-109580751D01*
X136941931Y-109607202D01*
X136940006Y-109633602D01*
X136936765Y-109659898D01*
X136932180Y-109686039D01*
X136926224Y-109711974D01*
X136918871Y-109737650D01*
X136910091Y-109763016D01*
X136899860Y-109788020D01*
X136888149Y-109812610D01*
X136874930Y-109836736D01*
X136860178Y-109860345D01*
X136843865Y-109883385D01*
X136825963Y-109905805D01*
X136806445Y-109927553D01*
X136785285Y-109948578D01*
X136762454Y-109968828D01*
X136737927Y-109988250D01*
X136711674Y-110006794D01*
X136683671Y-110024408D01*
X136653888Y-110041040D01*
X136622299Y-110056639D01*
X136588877Y-110071152D01*
X136553594Y-110084528D01*
X136516424Y-110096716D01*
X136477339Y-110107663D01*
X136436312Y-110117318D01*
X136393316Y-110125630D01*
X136348323Y-110132546D01*
X136301307Y-110138016D01*
X136252239Y-110141986D01*
X136201094Y-110144407D01*
X136147843Y-110145225D01*
X136050263Y-110142581D01*
X135955588Y-110134519D01*
X135864286Y-110120843D01*
X135776824Y-110101357D01*
X135693671Y-110075865D01*
X135653856Y-110060806D01*
X135615294Y-110044172D01*
X135578043Y-110025939D01*
X135542162Y-110006082D01*
X135507708Y-109984576D01*
X135474741Y-109961398D01*
X135443319Y-109936523D01*
X135413500Y-109909926D01*
X135385343Y-109881583D01*
X135358907Y-109851469D01*
X135334249Y-109819560D01*
X135311429Y-109785831D01*
X135290505Y-109750258D01*
X135271534Y-109712817D01*
X135254577Y-109673482D01*
X135239691Y-109632230D01*
X135226935Y-109589036D01*
X135216366Y-109543876D01*
X135208045Y-109496725D01*
X135202029Y-109447558D01*
X135198376Y-109396351D01*
X135197145Y-109343080D01*
X134543538Y-109343080D01*
X133222866Y-109343080D01*
X133198838Y-106993052D01*
X133184840Y-102745819D01*
X133208124Y-98498738D01*
X133276552Y-94252603D01*
X133311271Y-94127905D01*
X133351247Y-94005007D01*
X133396331Y-93884019D01*
X133446371Y-93765047D01*
X133560720Y-93533591D01*
X133693091Y-93311506D01*
X133842279Y-93099662D01*
X134007082Y-92898926D01*
X134186295Y-92710167D01*
X134378714Y-92534253D01*
X134583136Y-92372053D01*
X134798358Y-92224435D01*
X135023175Y-92092268D01*
X135256383Y-91976419D01*
X135496780Y-91877757D01*
X135743161Y-91797151D01*
X135994322Y-91735468D01*
X136188271Y-91703574D01*
X144399095Y-91703574D01*
X146346389Y-91741442D01*
X148295566Y-91759028D01*
X149269937Y-91754971D01*
X150243670Y-91739551D01*
X151216395Y-91710669D01*
X152187744Y-91666227D01*
X152132754Y-91446015D01*
X152088539Y-91223516D01*
X152053982Y-90998986D01*
X152027964Y-90772683D01*
X152009368Y-90544862D01*
X151997074Y-90315782D01*
X151986924Y-89854868D01*
X151993062Y-88929221D01*
X151991460Y-88468598D01*
X151974818Y-88012182D01*
X151970647Y-83268140D01*
X151931311Y-80895396D01*
X151852988Y-78524273D01*
X151725063Y-76156349D01*
X151536922Y-73793199D01*
X151277950Y-71436402D01*
X150937532Y-69087543D01*
X150778926Y-69163395D01*
X150620578Y-69243469D01*
X150304780Y-69414745D01*
X149990382Y-69598298D01*
X149677627Y-69791057D01*
X149366758Y-69989949D01*
X149058018Y-70191902D01*
X148447895Y-70592707D01*
X148410077Y-70604617D01*
X148374707Y-70617749D01*
X148341728Y-70632063D01*
X148311085Y-70647517D01*
X148282723Y-70664074D01*
X148256587Y-70681692D01*
X148232620Y-70700331D01*
X148210769Y-70719953D01*
X148190978Y-70740516D01*
X148173190Y-70761981D01*
X148157352Y-70784308D01*
X148143408Y-70807457D01*
X148131302Y-70831389D01*
X148120980Y-70856062D01*
X148112385Y-70881437D01*
X148105463Y-70907475D01*
X148100159Y-70934135D01*
X148096416Y-70961377D01*
X148094181Y-70989162D01*
X148093397Y-71017449D01*
X148095962Y-71075371D01*
X148103670Y-71134824D01*
X148116078Y-71195488D01*
X148132744Y-71257043D01*
X148153226Y-71319171D01*
X148177082Y-71381551D01*
X148308251Y-71806149D01*
X148422125Y-72234219D01*
X148519395Y-72665394D01*
X148600747Y-73099307D01*
X148666870Y-73535591D01*
X148718454Y-73973879D01*
X148756185Y-74413805D01*
X148780754Y-74855001D01*
X148792848Y-75297100D01*
X148793156Y-75739737D01*
X148782366Y-76182543D01*
X148761167Y-76625153D01*
X148690296Y-77508314D01*
X148586050Y-78386285D01*
X148476368Y-79258016D01*
X148344437Y-80125999D01*
X148190681Y-80989911D01*
X148015526Y-81849430D01*
X147819395Y-82704233D01*
X147602715Y-83553998D01*
X147365909Y-84398402D01*
X147109402Y-85237123D01*
X146833620Y-86069837D01*
X146538986Y-86896223D01*
X146225926Y-87715958D01*
X145894865Y-88528719D01*
X145546226Y-89334184D01*
X145180435Y-90132030D01*
X144797916Y-90921934D01*
X144399095Y-91703574D01*
X136188271Y-91703574D01*
X136249061Y-91693578D01*
X136233983Y-86380163D01*
X136217076Y-85691068D01*
X136210966Y-84999467D01*
X136199427Y-83613970D01*
X136178145Y-82922685D01*
X136135952Y-82234116D01*
X136104537Y-81891258D01*
X136064922Y-81549569D01*
X136016116Y-81209211D01*
X135957128Y-80870348D01*
X135850497Y-80907084D01*
X135745034Y-80947934D01*
X135640629Y-80992467D01*
X135537173Y-81040248D01*
X135434556Y-81090844D01*
X135332669Y-81143823D01*
X135130647Y-81255195D01*
X134730548Y-81487463D01*
X134530721Y-81601428D01*
X134329875Y-81709326D01*
X131254935Y-86491469D01*
X131167458Y-86625355D01*
X131074514Y-86754290D01*
X130976327Y-86878228D01*
X130873122Y-86997124D01*
X130652558Y-87219611D01*
X130414617Y-87421388D01*
X130161096Y-87602093D01*
X129893791Y-87761363D01*
X129614500Y-87898837D01*
X129325018Y-88014153D01*
X129027144Y-88106949D01*
X128722673Y-88176862D01*
X128413401Y-88223530D01*
X128101127Y-88246592D01*
X127787646Y-88245685D01*
X127474754Y-88220448D01*
X127164250Y-88170518D01*
X126857929Y-88095533D01*
X126725911Y-88048365D01*
X126596568Y-87996238D01*
X126346026Y-87877698D01*
X126106528Y-87741103D01*
X125878302Y-87587642D01*
X125661574Y-87418503D01*
X125456571Y-87234877D01*
X125263522Y-87037952D01*
X125082651Y-86828918D01*
X124914187Y-86608964D01*
X124758357Y-86379280D01*
X124615387Y-86141054D01*
X124485504Y-85895476D01*
X124368936Y-85643735D01*
X124265908Y-85387021D01*
X124176650Y-85126523D01*
X124101386Y-84863429D01*
X124004371Y-84811314D01*
X123904160Y-84764498D01*
X123801255Y-84722055D01*
X123696160Y-84683058D01*
X123481408Y-84611690D01*
X123263921Y-84542976D01*
X123047720Y-84469498D01*
X122941358Y-84428654D01*
X122836825Y-84383837D01*
X122734622Y-84334119D01*
X122635253Y-84278574D01*
X122539220Y-84216274D01*
X122447026Y-84146291D01*
X122270425Y-84034224D01*
X122102907Y-83912598D01*
X121944519Y-83781941D01*
X121795305Y-83642782D01*
X121655313Y-83495648D01*
X121524586Y-83341066D01*
X121403172Y-83179564D01*
X121291115Y-83011670D01*
X121188463Y-82837911D01*
X121095259Y-82658816D01*
X121011551Y-82474912D01*
X120937383Y-82286726D01*
X120872802Y-82094787D01*
X120817853Y-81899621D01*
X120772583Y-81701757D01*
X120737036Y-81501723D01*
X120711258Y-81300045D01*
X120695296Y-81097252D01*
X120689195Y-80893872D01*
X120693000Y-80690432D01*
X120706758Y-80487460D01*
X120730514Y-80285483D01*
X120764313Y-80085029D01*
X120808203Y-79886626D01*
X120862228Y-79690802D01*
X120926434Y-79498083D01*
X121000866Y-79308999D01*
X121085572Y-79124077D01*
X121180595Y-78943843D01*
X121285983Y-78768827D01*
X121401780Y-78599555D01*
X121528033Y-78436556D01*
X121782552Y-78198187D01*
X122045980Y-77971141D01*
X122317369Y-77754229D01*
X122595770Y-77546265D01*
X122880233Y-77346060D01*
X123169808Y-77152427D01*
X123760503Y-76780123D01*
X124961488Y-76062107D01*
X125556591Y-75697390D01*
X125849474Y-75509446D01*
X126137978Y-75316196D01*
X126230204Y-75274060D01*
X126320070Y-75228525D01*
X126492877Y-75127787D01*
X126656718Y-75015042D01*
X126811912Y-74891354D01*
X126958777Y-74757783D01*
X127097632Y-74615393D01*
X127228796Y-74465243D01*
X127352587Y-74308397D01*
X127469324Y-74145916D01*
X127579326Y-73978862D01*
X127682911Y-73808296D01*
X127780398Y-73635282D01*
X127872106Y-73460880D01*
X127958353Y-73286152D01*
X128115739Y-72939967D01*
X126796610Y-72816926D01*
X125473586Y-72732160D01*
X124147622Y-72677396D01*
X122819670Y-72644362D01*
X117507067Y-72564055D01*
X117437597Y-72575767D01*
X117368796Y-72584627D01*
X117300648Y-72590719D01*
X117233137Y-72594131D01*
X117166248Y-72594948D01*
X117099964Y-72593256D01*
X116969153Y-72582687D01*
X116840578Y-72563111D01*
X116714115Y-72535215D01*
X116589637Y-72499687D01*
X116467021Y-72457212D01*
X116346141Y-72408478D01*
X116226872Y-72354172D01*
X116109089Y-72294981D01*
X115992667Y-72231590D01*
X115877480Y-72164688D01*
X115763404Y-72094961D01*
X115538085Y-71949779D01*
X115341136Y-71822611D01*
X115156416Y-71683305D01*
X114983930Y-71532638D01*
X114823682Y-71371387D01*
X114675675Y-71200330D01*
X114539914Y-71020244D01*
X114416402Y-70831907D01*
X114305143Y-70636096D01*
X114206142Y-70433589D01*
X114119403Y-70225162D01*
X114044928Y-70011594D01*
X113982723Y-69793662D01*
X113932791Y-69572144D01*
X113895136Y-69347816D01*
X113869762Y-69121457D01*
X113856673Y-68893843D01*
X113856120Y-68736206D01*
X116902208Y-68736206D01*
X116902863Y-68754661D01*
X116904187Y-68773175D01*
X116906186Y-68791733D01*
X116908869Y-68810319D01*
X116912242Y-68828921D01*
X116928055Y-68865188D01*
X116936659Y-68882606D01*
X116945728Y-68899536D01*
X116955263Y-68915973D01*
X116965262Y-68931908D01*
X116975727Y-68947335D01*
X116986656Y-68962246D01*
X116998051Y-68976633D01*
X117009911Y-68990490D01*
X117022235Y-69003809D01*
X117035025Y-69016583D01*
X117048280Y-69028805D01*
X117062000Y-69040467D01*
X117076186Y-69051563D01*
X117090836Y-69062084D01*
X117105951Y-69072024D01*
X117121532Y-69081376D01*
X117137577Y-69090131D01*
X117154088Y-69098283D01*
X117171064Y-69105825D01*
X117188504Y-69112750D01*
X117206410Y-69119049D01*
X117224781Y-69124716D01*
X117243617Y-69129743D01*
X117262918Y-69134124D01*
X117282685Y-69137851D01*
X117302916Y-69140916D01*
X117323612Y-69143313D01*
X117344774Y-69145034D01*
X117366400Y-69146072D01*
X117388492Y-69146420D01*
X118869332Y-69094950D01*
X120491559Y-69073168D01*
X122537946Y-69091849D01*
X123681829Y-69125228D01*
X124885709Y-69179362D01*
X126134238Y-69257797D01*
X127412067Y-69364079D01*
X128703849Y-69501755D01*
X129994235Y-69674370D01*
X131267878Y-69885472D01*
X132509430Y-70138605D01*
X132556977Y-70151144D01*
X132602845Y-70166356D01*
X132646983Y-70184126D01*
X132689341Y-70204338D01*
X132729868Y-70226876D01*
X132768513Y-70251622D01*
X132805224Y-70278462D01*
X132839952Y-70307278D01*
X132872645Y-70337954D01*
X132903253Y-70370375D01*
X132931724Y-70404423D01*
X132958007Y-70439983D01*
X132982052Y-70476938D01*
X133003809Y-70515172D01*
X133023225Y-70554569D01*
X133040250Y-70595012D01*
X133054834Y-70636386D01*
X133066925Y-70678573D01*
X133076473Y-70721458D01*
X133083426Y-70764924D01*
X133087735Y-70808855D01*
X133089347Y-70853136D01*
X133088212Y-70897648D01*
X133084279Y-70942277D01*
X133077498Y-70986907D01*
X133067817Y-71031419D01*
X133055186Y-71075700D01*
X133039553Y-71119631D01*
X133020868Y-71163097D01*
X132999081Y-71205982D01*
X132974139Y-71248170D01*
X132945992Y-71289543D01*
X132467417Y-71957797D01*
X132012095Y-72624655D01*
X131577238Y-73292444D01*
X131160054Y-73963488D01*
X130757753Y-74640113D01*
X130367545Y-75324645D01*
X129986638Y-76019408D01*
X129612243Y-76726729D01*
X129589454Y-76763916D01*
X129565734Y-76800988D01*
X129541085Y-76837827D01*
X129515505Y-76874317D01*
X129488995Y-76910342D01*
X129461555Y-76945785D01*
X129433185Y-76980531D01*
X129403884Y-77014463D01*
X129373654Y-77047465D01*
X129342493Y-77079421D01*
X129310402Y-77110214D01*
X129277381Y-77139728D01*
X129243429Y-77167846D01*
X129208548Y-77194454D01*
X129172736Y-77219433D01*
X129135994Y-77242668D01*
X123976618Y-80417669D01*
X123958365Y-80429176D01*
X123940816Y-80441359D01*
X123923980Y-80454196D01*
X123907863Y-80467665D01*
X123892472Y-80481745D01*
X123877816Y-80496413D01*
X123863901Y-80511649D01*
X123850734Y-80527429D01*
X123838323Y-80543732D01*
X123826676Y-80560537D01*
X123815798Y-80577822D01*
X123805698Y-80595564D01*
X123796383Y-80613742D01*
X123787860Y-80632335D01*
X123780136Y-80651320D01*
X123773219Y-80670676D01*
X123767116Y-80690380D01*
X123761834Y-80710411D01*
X123757381Y-80730748D01*
X123753763Y-80751368D01*
X123750988Y-80772250D01*
X123749064Y-80793371D01*
X123747997Y-80814711D01*
X123747795Y-80836246D01*
X123748464Y-80857957D01*
X123750013Y-80879819D01*
X123752449Y-80901813D01*
X123755779Y-80923915D01*
X123760009Y-80946105D01*
X123765148Y-80968360D01*
X123771203Y-80990658D01*
X123778181Y-81012979D01*
X123786082Y-81031347D01*
X123794885Y-81049236D01*
X123804560Y-81066631D01*
X123815078Y-81083517D01*
X123826409Y-81099880D01*
X123838526Y-81115705D01*
X123851398Y-81130978D01*
X123864997Y-81145684D01*
X123879294Y-81159809D01*
X123894259Y-81173338D01*
X123909864Y-81186256D01*
X123926079Y-81198549D01*
X123942875Y-81210203D01*
X123960224Y-81221203D01*
X123978096Y-81231535D01*
X123996462Y-81241183D01*
X124015293Y-81250133D01*
X124034560Y-81258372D01*
X124054235Y-81265884D01*
X124074287Y-81272654D01*
X124094687Y-81278669D01*
X124115408Y-81283913D01*
X124136419Y-81288373D01*
X124157692Y-81292033D01*
X124179198Y-81294879D01*
X124200907Y-81296897D01*
X124222790Y-81298072D01*
X124244819Y-81298389D01*
X124266964Y-81297835D01*
X124289196Y-81296393D01*
X124311486Y-81294051D01*
X124333805Y-81290793D01*
X129215367Y-79068293D01*
X129222808Y-79064802D01*
X129230241Y-79061762D01*
X129237659Y-79059158D01*
X129245056Y-79056976D01*
X129252423Y-79055200D01*
X129259755Y-79053817D01*
X129267042Y-79052811D01*
X129274279Y-79052169D01*
X129281458Y-79051876D01*
X129288571Y-79051918D01*
X129302572Y-79052945D01*
X129316224Y-79055134D01*
X129329470Y-79058370D01*
X129342250Y-79062537D01*
X129354507Y-79067517D01*
X129366182Y-79073195D01*
X129377219Y-79079454D01*
X129387557Y-79086178D01*
X129397140Y-79093251D01*
X129405908Y-79100556D01*
X129413805Y-79107978D01*
X129421227Y-79115875D01*
X129428533Y-79124644D01*
X129435606Y-79134227D01*
X129442330Y-79144565D01*
X129448590Y-79155602D01*
X129454267Y-79167278D01*
X129459248Y-79179535D01*
X129461440Y-79185863D01*
X129463414Y-79192315D01*
X129465156Y-79198883D01*
X129466651Y-79205560D01*
X129467884Y-79212339D01*
X129468840Y-79219213D01*
X129469507Y-79226173D01*
X129469868Y-79233214D01*
X129469909Y-79240327D01*
X129469616Y-79247505D01*
X129468974Y-79254742D01*
X129467968Y-79262030D01*
X129466585Y-79269361D01*
X129464809Y-79276728D01*
X129462627Y-79284125D01*
X129460023Y-79291543D01*
X129456982Y-79298976D01*
X129453492Y-79306416D01*
X127230992Y-84188176D01*
X127227734Y-84210383D01*
X127225392Y-84232350D01*
X127223950Y-84254070D01*
X127223396Y-84275536D01*
X127224888Y-84317675D01*
X127229752Y-84358709D01*
X127237872Y-84398581D01*
X127249131Y-84437232D01*
X127263413Y-84474603D01*
X127280602Y-84510638D01*
X127300582Y-84545277D01*
X127323235Y-84578463D01*
X127348447Y-84610138D01*
X127376100Y-84640242D01*
X127406079Y-84668719D01*
X127438267Y-84695510D01*
X127472548Y-84720557D01*
X127508806Y-84743801D01*
X127527634Y-84750779D01*
X127546885Y-84756833D01*
X127566513Y-84761972D01*
X127586475Y-84766203D01*
X127627228Y-84771968D01*
X127668795Y-84774186D01*
X127710828Y-84772917D01*
X127752976Y-84768218D01*
X127794892Y-84760147D01*
X127836227Y-84748762D01*
X127876632Y-84734121D01*
X127915757Y-84716283D01*
X127953255Y-84695306D01*
X127988776Y-84671247D01*
X128005686Y-84658081D01*
X128021972Y-84644166D01*
X128037588Y-84629509D01*
X128052493Y-84614119D01*
X128066642Y-84598002D01*
X128079991Y-84581166D01*
X128092498Y-84563617D01*
X128104117Y-84545364D01*
X131279116Y-79385792D01*
X131302351Y-79349050D01*
X131327330Y-79313239D01*
X131353937Y-79278358D01*
X131382056Y-79244406D01*
X131411570Y-79211385D01*
X131442362Y-79179294D01*
X131474318Y-79148133D01*
X131507320Y-79117903D01*
X131541252Y-79088602D01*
X131575998Y-79060232D01*
X131611441Y-79032791D01*
X131647466Y-79006281D01*
X131683956Y-78980701D01*
X131720795Y-78956052D01*
X131757867Y-78932332D01*
X131795054Y-78909543D01*
X132502375Y-78535148D01*
X133197138Y-78154242D01*
X133881670Y-77764033D01*
X134558295Y-77361733D01*
X135229340Y-76944549D01*
X135897128Y-76509691D01*
X136563987Y-76054370D01*
X137232241Y-75575793D01*
X137273614Y-75547647D01*
X137315802Y-75522706D01*
X137358686Y-75500918D01*
X137402153Y-75482234D01*
X137446084Y-75466601D01*
X137490364Y-75453970D01*
X137534877Y-75444289D01*
X137579506Y-75437508D01*
X137624135Y-75433575D01*
X137668647Y-75432441D01*
X137712928Y-75434053D01*
X137756859Y-75438361D01*
X137800325Y-75445314D01*
X137843210Y-75454862D01*
X137885398Y-75466953D01*
X137926771Y-75481537D01*
X137967215Y-75498562D01*
X138006611Y-75517978D01*
X138044846Y-75539735D01*
X138081801Y-75563780D01*
X138117361Y-75590063D01*
X138151409Y-75618534D01*
X138183830Y-75649142D01*
X138214506Y-75681835D01*
X138243322Y-75716563D01*
X138270162Y-75753274D01*
X138294909Y-75791919D01*
X138317446Y-75832446D01*
X138337658Y-75874804D01*
X138355429Y-75918942D01*
X138370641Y-75964810D01*
X138383179Y-76012357D01*
X138636313Y-77253911D01*
X138847415Y-78527561D01*
X139020031Y-79817957D01*
X139157706Y-81109751D01*
X139342423Y-83636140D01*
X139429937Y-85983939D01*
X139448617Y-88030362D01*
X139426835Y-89652619D01*
X139375365Y-91133487D01*
X139376750Y-91170665D01*
X139380868Y-91207669D01*
X139387661Y-91244324D01*
X139397069Y-91280456D01*
X139409036Y-91315890D01*
X139423502Y-91350452D01*
X139440410Y-91383967D01*
X139459702Y-91416262D01*
X139481319Y-91447161D01*
X139505203Y-91476491D01*
X139531297Y-91504076D01*
X139559541Y-91529743D01*
X139589879Y-91553317D01*
X139622251Y-91574624D01*
X139656600Y-91593489D01*
X139674497Y-91601952D01*
X139692867Y-91609739D01*
X139723505Y-91615785D01*
X139755654Y-91619041D01*
X139788966Y-91619506D01*
X139823092Y-91617181D01*
X139857683Y-91612065D01*
X139892391Y-91604159D01*
X139926865Y-91593463D01*
X139960758Y-91579975D01*
X139993721Y-91563698D01*
X140025405Y-91544629D01*
X140040658Y-91534049D01*
X140055461Y-91522770D01*
X140069770Y-91510794D01*
X140083541Y-91498121D01*
X140096730Y-91484749D01*
X140109295Y-91470680D01*
X140121190Y-91455914D01*
X140132374Y-91440449D01*
X140142802Y-91424288D01*
X140152431Y-91407428D01*
X140161216Y-91389871D01*
X140169115Y-91371616D01*
X140169118Y-91371616D01*
X140963760Y-90048051D01*
X141681894Y-88676578D01*
X142325149Y-87271615D01*
X142895153Y-85847581D01*
X143393533Y-84418894D01*
X143821918Y-82999971D01*
X144181934Y-81605233D01*
X144475211Y-80249096D01*
X144703375Y-78945979D01*
X144868055Y-77710300D01*
X144970878Y-76556478D01*
X145013472Y-75498931D01*
X144997466Y-74552077D01*
X144924486Y-73730335D01*
X144796161Y-73048122D01*
X144614118Y-72519858D01*
X144538803Y-72358482D01*
X144461802Y-72201815D01*
X144383289Y-72049916D01*
X144303439Y-71902841D01*
X144222427Y-71760650D01*
X144140426Y-71623401D01*
X144057611Y-71491151D01*
X143974157Y-71363959D01*
X143890238Y-71241883D01*
X143806027Y-71124982D01*
X143721701Y-71013312D01*
X143637433Y-70906933D01*
X143553397Y-70805902D01*
X143469768Y-70710279D01*
X143386720Y-70620120D01*
X143304428Y-70535484D01*
X143286291Y-70516537D01*
X143269091Y-70496930D01*
X143252836Y-70476697D01*
X143237533Y-70455876D01*
X143223190Y-70434502D01*
X143209812Y-70412613D01*
X143197409Y-70390244D01*
X143185987Y-70367431D01*
X143175553Y-70344212D01*
X143166114Y-70320622D01*
X143157678Y-70296698D01*
X143150253Y-70272476D01*
X143143845Y-70247992D01*
X143138461Y-70223283D01*
X143134109Y-70198385D01*
X143130797Y-70173334D01*
X143128531Y-70148167D01*
X143127318Y-70122920D01*
X143127167Y-70097630D01*
X143128084Y-70072332D01*
X143130076Y-70047064D01*
X143133151Y-70021861D01*
X143137316Y-69996759D01*
X143142579Y-69971796D01*
X143148946Y-69947007D01*
X143156425Y-69922429D01*
X143165023Y-69898098D01*
X143174747Y-69874050D01*
X143185605Y-69850322D01*
X143197604Y-69826951D01*
X143210752Y-69803971D01*
X143225054Y-69781421D01*
X143483440Y-69352077D01*
X143628886Y-69087534D01*
X150937531Y-69087534D01*
X150937532Y-69087543D01*
X150937534Y-69087543D01*
X150937531Y-69087534D01*
X143628886Y-69087534D01*
X143708978Y-68941859D01*
X143903239Y-68550362D01*
X144067793Y-68177177D01*
X144204209Y-67821898D01*
X144314057Y-67484119D01*
X144398907Y-67163431D01*
X144460327Y-66859429D01*
X144499889Y-66571704D01*
X144519161Y-66299851D01*
X144519713Y-66043461D01*
X144503115Y-65802129D01*
X144470937Y-65575447D01*
X144424748Y-65363009D01*
X144366118Y-65164407D01*
X144296616Y-64979234D01*
X144281278Y-64949468D01*
X144265068Y-64919702D01*
X144248044Y-64889936D01*
X144230264Y-64860170D01*
X144192669Y-64800639D01*
X144152749Y-64741108D01*
X144110968Y-64681577D01*
X144067792Y-64622046D01*
X143979114Y-64502984D01*
X143956325Y-64480669D01*
X143932606Y-64458413D01*
X143907956Y-64436273D01*
X143882376Y-64414307D01*
X143855867Y-64392574D01*
X143828426Y-64371131D01*
X143800056Y-64350038D01*
X143770756Y-64329351D01*
X143740525Y-64309129D01*
X143709364Y-64289431D01*
X143677273Y-64270314D01*
X143644252Y-64251836D01*
X143610301Y-64234056D01*
X143575419Y-64217032D01*
X143539607Y-64200822D01*
X143502865Y-64185483D01*
X143317256Y-64115982D01*
X143117462Y-64057351D01*
X142903251Y-64011162D01*
X142674389Y-63978984D01*
X142430645Y-63962386D01*
X142171785Y-63962938D01*
X141897577Y-63982210D01*
X141607789Y-64021772D01*
X141302188Y-64083192D01*
X140980541Y-64168042D01*
X140642616Y-64277890D01*
X140288181Y-64414306D01*
X139917002Y-64578860D01*
X139528848Y-64773121D01*
X139123485Y-64998660D01*
X138700681Y-65257045D01*
X138678130Y-65271348D01*
X138655151Y-65284495D01*
X138631779Y-65296494D01*
X138608051Y-65307353D01*
X138584003Y-65317077D01*
X138559672Y-65325676D01*
X138535093Y-65333155D01*
X138510304Y-65339522D01*
X138460239Y-65348950D01*
X138409767Y-65354017D01*
X138359179Y-65354783D01*
X138308765Y-65351305D01*
X138258817Y-65343640D01*
X138209624Y-65331848D01*
X138161477Y-65315987D01*
X138114668Y-65296114D01*
X138069486Y-65272288D01*
X138026223Y-65244567D01*
X138005402Y-65229264D01*
X137985170Y-65213009D01*
X137965562Y-65195809D01*
X137946616Y-65177672D01*
X137855439Y-65095816D01*
X137760426Y-65013960D01*
X137661460Y-64932105D01*
X137558424Y-64850249D01*
X137451202Y-64768394D01*
X137339678Y-64686538D01*
X137223736Y-64604683D01*
X137103259Y-64522827D01*
X136978131Y-64440972D01*
X136848235Y-64359116D01*
X136713457Y-64277261D01*
X136573678Y-64195406D01*
X136428784Y-64113550D01*
X136278657Y-64031695D01*
X136123182Y-63949839D01*
X135962242Y-63867984D01*
X135718255Y-63770349D01*
X135433979Y-63685941D01*
X134751773Y-63557615D01*
X133930040Y-63484635D01*
X132983199Y-63468629D01*
X131925667Y-63511223D01*
X130771861Y-63614046D01*
X129536201Y-63778726D01*
X128233102Y-64006890D01*
X126876983Y-64300167D01*
X125482262Y-64660184D01*
X124063356Y-65088568D01*
X122634684Y-65586949D01*
X121210662Y-66156953D01*
X119805709Y-66800208D01*
X118434242Y-67518342D01*
X117110680Y-68312984D01*
X117096030Y-68324376D01*
X117081854Y-68336219D01*
X117068157Y-68348497D01*
X117054947Y-68361197D01*
X117030016Y-68387804D01*
X117007120Y-68415923D01*
X116986317Y-68445436D01*
X116967665Y-68476229D01*
X116951222Y-68508184D01*
X116937047Y-68541186D01*
X116925197Y-68575118D01*
X116915730Y-68609864D01*
X116911909Y-68627506D01*
X116908706Y-68645308D01*
X116906127Y-68663255D01*
X116904181Y-68681333D01*
X116902874Y-68699527D01*
X116902214Y-68717823D01*
X116902208Y-68736206D01*
X113856120Y-68736206D01*
X113855873Y-68665753D01*
X113867367Y-68437964D01*
X113891157Y-68211252D01*
X113927248Y-67986397D01*
X113975644Y-67764174D01*
X114036349Y-67545363D01*
X114109366Y-67330739D01*
X114194701Y-67121080D01*
X114292355Y-66917165D01*
X114402335Y-66719770D01*
X114524643Y-66529673D01*
X114659284Y-66347651D01*
X114806261Y-66174482D01*
X114965579Y-66010944D01*
X115137241Y-65857813D01*
X115321251Y-65715867D01*
X116040170Y-65244279D01*
X116773127Y-64796896D01*
X117519242Y-64373020D01*
X118277634Y-63971953D01*
X119047423Y-63592998D01*
X119827729Y-63235456D01*
X120617670Y-62898630D01*
X121416366Y-62581821D01*
X122222936Y-62284333D01*
X123036500Y-62005467D01*
X123856178Y-61744526D01*
X124681088Y-61500811D01*
X126343084Y-61062270D01*
X128015444Y-60684262D01*
X129272440Y-60466405D01*
X130546226Y-60281138D01*
X131187242Y-60206306D01*
X131829849Y-60146317D01*
X132473176Y-60103405D01*
X133116355Y-60079802D01*
X133758518Y-60077738D01*
X134398793Y-60099448D01*
X135036314Y-60147162D01*
X135670209Y-60223113D01*
X136299611Y-60329533D01*
X136923650Y-60468655D01*
X137541457Y-60642711D01*
X138152163Y-60853932D01*
X138390113Y-60505383D01*
X138623825Y-60153175D01*
X138853436Y-59797676D01*
X139079084Y-59439252D01*
X139300906Y-59078270D01*
X139519038Y-58715099D01*
X139944783Y-57983654D01*
X139673669Y-57933947D01*
X139401509Y-57889195D01*
X139128541Y-57848415D01*
X138855003Y-57810628D01*
X137759924Y-57669810D01*
X135449504Y-57395336D01*
X133133772Y-57207264D01*
X130813872Y-57088293D01*
X128490949Y-57021123D01*
X119191916Y-56924446D01*
X118987440Y-56938427D01*
X118783037Y-56943202D01*
X118579120Y-56938712D01*
X118376104Y-56924899D01*
X118174402Y-56901703D01*
X117974428Y-56869065D01*
X117776596Y-56826927D01*
X117581321Y-56775230D01*
X117389015Y-56713914D01*
X117200093Y-56642921D01*
X117014969Y-56562192D01*
X116834057Y-56471669D01*
X116657771Y-56371291D01*
X116486523Y-56261000D01*
X116320730Y-56140738D01*
X116160803Y-56010445D01*
X115987897Y-55870041D01*
X115825507Y-55720370D01*
X115673648Y-55562020D01*
X115532332Y-55395578D01*
X115401574Y-55221634D01*
X115281388Y-55040777D01*
X115171786Y-54853595D01*
X115072783Y-54660676D01*
X114984392Y-54462608D01*
X114906626Y-54259982D01*
X114839500Y-54053385D01*
X114783027Y-53843405D01*
X114739181Y-53639741D01*
X116984426Y-53639741D01*
X116985622Y-53670249D01*
X116988272Y-53700742D01*
X116992405Y-53731185D01*
X116998049Y-53761540D01*
X117005233Y-53791772D01*
X117013988Y-53821844D01*
X117024341Y-53851720D01*
X117036079Y-53881247D01*
X117048952Y-53910273D01*
X117062928Y-53938760D01*
X117077981Y-53966674D01*
X117094080Y-53993977D01*
X117111196Y-54020634D01*
X117129300Y-54046607D01*
X117148364Y-54071861D01*
X117168358Y-54096360D01*
X117189253Y-54120066D01*
X117211020Y-54142943D01*
X117233630Y-54164956D01*
X117257054Y-54186068D01*
X117281263Y-54206243D01*
X117306228Y-54225443D01*
X117331919Y-54243634D01*
X117358308Y-54260778D01*
X117385365Y-54276839D01*
X117413062Y-54291781D01*
X117441370Y-54305568D01*
X117470258Y-54318163D01*
X117499699Y-54329530D01*
X117529664Y-54339632D01*
X117560122Y-54348434D01*
X117591046Y-54355898D01*
X117622405Y-54361989D01*
X117654172Y-54366670D01*
X117686316Y-54369905D01*
X117718809Y-54371658D01*
X117751622Y-54371891D01*
X117784726Y-54370570D01*
X117818091Y-54367657D01*
X120292358Y-54287662D01*
X122990333Y-54256733D01*
X126390590Y-54293243D01*
X128290416Y-54351175D01*
X130289422Y-54443234D01*
X132362144Y-54575173D01*
X134483119Y-54752750D01*
X136626883Y-54981718D01*
X138767974Y-55267834D01*
X140880926Y-55616854D01*
X142940277Y-56034532D01*
X143017118Y-56055428D01*
X143091314Y-56080779D01*
X143162777Y-56110388D01*
X143231421Y-56144060D01*
X143297158Y-56181598D01*
X143359901Y-56222805D01*
X143419563Y-56267487D01*
X143476057Y-56315445D01*
X143529295Y-56366485D01*
X143579190Y-56420410D01*
X143625655Y-56477023D01*
X143668603Y-56536129D01*
X143707947Y-56597532D01*
X143743599Y-56661035D01*
X143775472Y-56726441D01*
X143803479Y-56793556D01*
X143827533Y-56862182D01*
X143847546Y-56932123D01*
X143863432Y-57003183D01*
X143875103Y-57075167D01*
X143882472Y-57147877D01*
X143885451Y-57221117D01*
X143883955Y-57294692D01*
X143877894Y-57368405D01*
X143867183Y-57442059D01*
X143851733Y-57515460D01*
X143831459Y-57588409D01*
X143806271Y-57660712D01*
X143776085Y-57732172D01*
X143740811Y-57802593D01*
X143700363Y-57871779D01*
X143654654Y-57939532D01*
X143243360Y-58519962D01*
X142842299Y-59100391D01*
X142450540Y-59680821D01*
X142067153Y-60261251D01*
X141321773Y-61422110D01*
X140598718Y-62582970D01*
X140595341Y-62586689D01*
X140592633Y-62590401D01*
X140590564Y-62594099D01*
X140589106Y-62597775D01*
X140588229Y-62601422D01*
X140587904Y-62605032D01*
X140588103Y-62608599D01*
X140588796Y-62612115D01*
X140589953Y-62615573D01*
X140591547Y-62618965D01*
X140593548Y-62622285D01*
X140595927Y-62625525D01*
X140598654Y-62628678D01*
X140601701Y-62631736D01*
X140605039Y-62634692D01*
X140608639Y-62637540D01*
X140612471Y-62640271D01*
X140616506Y-62642879D01*
X140620716Y-62645355D01*
X140625072Y-62647694D01*
X140629543Y-62649888D01*
X140634102Y-62651929D01*
X140638719Y-62653809D01*
X140643365Y-62655523D01*
X140648011Y-62657063D01*
X140652628Y-62658420D01*
X140657187Y-62659589D01*
X140661658Y-62660562D01*
X140666014Y-62661331D01*
X140670224Y-62661889D01*
X140674259Y-62662230D01*
X140678091Y-62662345D01*
X141101360Y-62467734D01*
X141508119Y-62299809D01*
X141898599Y-62157347D01*
X142273033Y-62039127D01*
X142631655Y-61943930D01*
X142974696Y-61870533D01*
X143302389Y-61817716D01*
X143614967Y-61784259D01*
X143912661Y-61768941D01*
X144195706Y-61770539D01*
X144464333Y-61787835D01*
X144718774Y-61819606D01*
X144959263Y-61864633D01*
X145186032Y-61921693D01*
X145399314Y-61989567D01*
X145599340Y-62067033D01*
X145643087Y-62082827D01*
X145685149Y-62100364D01*
X145725699Y-62119530D01*
X145764912Y-62140207D01*
X145802962Y-62162279D01*
X145840023Y-62185630D01*
X145876271Y-62210144D01*
X145911880Y-62235704D01*
X145947023Y-62262195D01*
X145981875Y-62289499D01*
X146051406Y-62346085D01*
X146194653Y-62463907D01*
X146224399Y-62494138D01*
X146254029Y-62525299D01*
X146283427Y-62557390D01*
X146312475Y-62590411D01*
X146341059Y-62624363D01*
X146369061Y-62659245D01*
X146396366Y-62695057D01*
X146422857Y-62731799D01*
X146448417Y-62769471D01*
X146472931Y-62808073D01*
X146496283Y-62847605D01*
X146518355Y-62888068D01*
X146539032Y-62929461D01*
X146558198Y-62971784D01*
X146575735Y-63015037D01*
X146591528Y-63059220D01*
X146668994Y-63266223D01*
X146736868Y-63485551D01*
X146793928Y-63717436D01*
X146838955Y-63962111D01*
X146870726Y-64219808D01*
X146888022Y-64490761D01*
X146889621Y-64775201D01*
X146874302Y-65073361D01*
X146840845Y-65385473D01*
X146788028Y-65711771D01*
X146714632Y-66052487D01*
X146619434Y-66407853D01*
X146501214Y-66778101D01*
X146358752Y-67163465D01*
X146190826Y-67564177D01*
X145996215Y-67980470D01*
X145996330Y-67984189D01*
X145996671Y-67987902D01*
X145997229Y-67991599D01*
X145997998Y-67995275D01*
X145998971Y-67998922D01*
X146000140Y-68002533D01*
X146001497Y-68006099D01*
X146003037Y-68009615D01*
X146004750Y-68013073D01*
X146006631Y-68016466D01*
X146008672Y-68019785D01*
X146010866Y-68023025D01*
X146013204Y-68026178D01*
X146015681Y-68029236D01*
X146018289Y-68032192D01*
X146021020Y-68035040D01*
X146023867Y-68037771D01*
X146026824Y-68040378D01*
X146029882Y-68042855D01*
X146033035Y-68045194D01*
X146036274Y-68047387D01*
X146039594Y-68049428D01*
X146042987Y-68051309D01*
X146046444Y-68053022D01*
X146049960Y-68054562D01*
X146053527Y-68055919D01*
X146057137Y-68057088D01*
X146060784Y-68058061D01*
X146064460Y-68058830D01*
X146068157Y-68059388D01*
X146071869Y-68059728D01*
X146075589Y-68059843D01*
X147236449Y-67336786D01*
X148397308Y-66591405D01*
X148977738Y-66208017D01*
X149558168Y-65816258D01*
X150138597Y-65415197D01*
X150719026Y-65003905D01*
X150786780Y-64958083D01*
X150855965Y-64917311D01*
X150926386Y-64881525D01*
X150997846Y-64850658D01*
X151070149Y-64824646D01*
X151143099Y-64803423D01*
X151216499Y-64786923D01*
X151290154Y-64775082D01*
X151363867Y-64767833D01*
X151437441Y-64765111D01*
X151510682Y-64766852D01*
X151583392Y-64772989D01*
X151655375Y-64783457D01*
X151726436Y-64798191D01*
X151796377Y-64817125D01*
X151865003Y-64840194D01*
X151932117Y-64867333D01*
X151997524Y-64898475D01*
X152061026Y-64933557D01*
X152122429Y-64972511D01*
X152181535Y-65015274D01*
X152238149Y-65061779D01*
X152292074Y-65111961D01*
X152343113Y-65165755D01*
X152391072Y-65223095D01*
X152435753Y-65283916D01*
X152476961Y-65348153D01*
X152514498Y-65415740D01*
X152548170Y-65486611D01*
X152577780Y-65560702D01*
X152603130Y-65637946D01*
X152624027Y-65718279D01*
X153041705Y-67778069D01*
X153390725Y-69892219D01*
X153676842Y-72035093D01*
X153905811Y-74181050D01*
X154215327Y-78379662D01*
X154365318Y-82282947D01*
X154401828Y-85685798D01*
X154370900Y-88383106D01*
X154290904Y-90840661D01*
X154293211Y-90907131D01*
X154300051Y-90972438D01*
X154311310Y-91036349D01*
X154326871Y-91098632D01*
X154346618Y-91159055D01*
X154370435Y-91217384D01*
X154398204Y-91273388D01*
X154429811Y-91326834D01*
X154465138Y-91377489D01*
X154504070Y-91425121D01*
X154546490Y-91469498D01*
X154592281Y-91510386D01*
X154641329Y-91547553D01*
X154693515Y-91580768D01*
X154748725Y-91609796D01*
X154806841Y-91634406D01*
X154866790Y-91646974D01*
X154927377Y-91654948D01*
X154988313Y-91658388D01*
X155049308Y-91657351D01*
X155110070Y-91651896D01*
X155170308Y-91642081D01*
X155229733Y-91627964D01*
X155288052Y-91609603D01*
X155344977Y-91587056D01*
X155400216Y-91560381D01*
X155453478Y-91529638D01*
X155504473Y-91494883D01*
X155552909Y-91456174D01*
X155598498Y-91413571D01*
X155640947Y-91367131D01*
X155679965Y-91316913D01*
X155679965Y-91316919D01*
X156999856Y-89118239D01*
X158193068Y-86839453D01*
X159262217Y-84504627D01*
X160209921Y-82137830D01*
X161038795Y-79763130D01*
X161751455Y-77404596D01*
X162350517Y-75086294D01*
X162838598Y-72832293D01*
X163218313Y-70666661D01*
X163492278Y-68613466D01*
X163663111Y-66696776D01*
X163733426Y-64940659D01*
X163705841Y-63369184D01*
X163582971Y-62006417D01*
X163367431Y-60876427D01*
X163061840Y-60003283D01*
X162927449Y-59725596D01*
X162792244Y-59457967D01*
X162519857Y-58952184D01*
X162245611Y-58484538D01*
X161970434Y-58053634D01*
X161695257Y-57658076D01*
X161421010Y-57296470D01*
X161148624Y-56967420D01*
X160879028Y-56669532D01*
X160850076Y-56635703D01*
X160822752Y-56601212D01*
X160797056Y-56566097D01*
X160772987Y-56530393D01*
X160729734Y-56457365D01*
X160692992Y-56382418D01*
X160662761Y-56305843D01*
X160639041Y-56227931D01*
X160621833Y-56148973D01*
X160611136Y-56069259D01*
X160606950Y-55989080D01*
X160609276Y-55908726D01*
X160618113Y-55828489D01*
X160633460Y-55748659D01*
X160655319Y-55669526D01*
X160683690Y-55591381D01*
X160718571Y-55514516D01*
X160759963Y-55439220D01*
X161192921Y-54725233D01*
X161570766Y-54041476D01*
X161896056Y-53387485D01*
X162171349Y-52762795D01*
X162399203Y-52166940D01*
X162582176Y-51599455D01*
X162722826Y-51059876D01*
X162823712Y-50547737D01*
X162887390Y-50062573D01*
X162916419Y-49603919D01*
X162913357Y-49171310D01*
X162880762Y-48764281D01*
X162821192Y-48382367D01*
X162737205Y-48025102D01*
X162631359Y-47692022D01*
X162506212Y-47382662D01*
X162483413Y-47331037D01*
X162459627Y-47280343D01*
X162434793Y-47230578D01*
X162408855Y-47181744D01*
X162381754Y-47133840D01*
X162353433Y-47086866D01*
X162323832Y-47040822D01*
X162292894Y-46995709D01*
X162260561Y-46951526D01*
X162226774Y-46908272D01*
X162191476Y-46865949D01*
X162154608Y-46824556D01*
X162116112Y-46784094D01*
X162075931Y-46744561D01*
X162034005Y-46705959D01*
X161990278Y-46668287D01*
X161952169Y-46631099D01*
X161912375Y-46594028D01*
X161871069Y-46557189D01*
X161828426Y-46520699D01*
X161784620Y-46484674D01*
X161739826Y-46449231D01*
X161694218Y-46414485D01*
X161647971Y-46380553D01*
X161601259Y-46347551D01*
X161554256Y-46315595D01*
X161507137Y-46284803D01*
X161460075Y-46255289D01*
X161413247Y-46227170D01*
X161366825Y-46200563D01*
X161320985Y-46175584D01*
X161275900Y-46152349D01*
X160966539Y-46033742D01*
X160633458Y-45932750D01*
X160276193Y-45852106D01*
X159894278Y-45794542D01*
X159487249Y-45762790D01*
X159054640Y-45759583D01*
X158595985Y-45787653D01*
X158110821Y-45849732D01*
X157598682Y-45948554D01*
X157059102Y-46086849D01*
X156491618Y-46267352D01*
X155895762Y-46492794D01*
X155271072Y-46765907D01*
X154617081Y-47089424D01*
X153933324Y-47466077D01*
X153219337Y-47898599D01*
X153143605Y-47939992D01*
X153065548Y-47974874D01*
X152985630Y-48003244D01*
X152904317Y-48025103D01*
X152822074Y-48040451D01*
X152739365Y-48049288D01*
X152656657Y-48051613D01*
X152574414Y-48047427D01*
X152493101Y-48036730D01*
X152413184Y-48019522D01*
X152335126Y-47995803D01*
X152259395Y-47965572D01*
X152186454Y-47928830D01*
X152151175Y-47908017D01*
X152116769Y-47885577D01*
X152083292Y-47861509D01*
X152050804Y-47835813D01*
X152019363Y-47808489D01*
X151989026Y-47779537D01*
X151843889Y-47645146D01*
X151691136Y-47509941D01*
X151530593Y-47374039D01*
X151362086Y-47237555D01*
X151185440Y-47100606D01*
X151000480Y-46963308D01*
X150807033Y-46825777D01*
X150604923Y-46688131D01*
X150393977Y-46550484D01*
X150174020Y-46412954D01*
X149944877Y-46275656D01*
X149706374Y-46138707D01*
X149458337Y-46002223D01*
X149200591Y-45866321D01*
X148932962Y-45731116D01*
X148655276Y-45596725D01*
X148252201Y-45436327D01*
X147781695Y-45297673D01*
X146650514Y-45086988D01*
X145285976Y-44967460D01*
X143712322Y-44941880D01*
X141953796Y-45013038D01*
X140034640Y-45183725D01*
X137979097Y-45456732D01*
X135811410Y-45834848D01*
X133555821Y-46320864D01*
X131236574Y-46917572D01*
X128877910Y-47627761D01*
X126504072Y-48454221D01*
X124139304Y-49399745D01*
X121807847Y-50467121D01*
X119533946Y-51659142D01*
X117341841Y-52978596D01*
X117316150Y-52997658D01*
X117291185Y-53017615D01*
X117266976Y-53038429D01*
X117243552Y-53060064D01*
X117220942Y-53082484D01*
X117199175Y-53105652D01*
X117178280Y-53129533D01*
X117158286Y-53154089D01*
X117139222Y-53179285D01*
X117121118Y-53205084D01*
X117104002Y-53231450D01*
X117087903Y-53258346D01*
X117072851Y-53285737D01*
X117058874Y-53313585D01*
X117046001Y-53341855D01*
X117034263Y-53370510D01*
X117023687Y-53399514D01*
X117014303Y-53428830D01*
X117006140Y-53458422D01*
X116999226Y-53488255D01*
X116993592Y-53518290D01*
X116989266Y-53548493D01*
X116986276Y-53578827D01*
X116984653Y-53609255D01*
X116984426Y-53639741D01*
X114739181Y-53639741D01*
X114737220Y-53630632D01*
X114702093Y-53415653D01*
X114677660Y-53199058D01*
X114663935Y-52981434D01*
X114660930Y-52763372D01*
X114668660Y-52545458D01*
X114687138Y-52328282D01*
X114716378Y-52112432D01*
X114756393Y-51898497D01*
X114807197Y-51687065D01*
X114868804Y-51478725D01*
X114941227Y-51274065D01*
X115024480Y-51073674D01*
X115118576Y-50878141D01*
X115223530Y-50688054D01*
X115339354Y-50504002D01*
X115466062Y-50326573D01*
X115603668Y-50156356D01*
X115752186Y-49993939D01*
X115911629Y-49839911D01*
X116310307Y-49534777D01*
X116716439Y-49240358D01*
X117129482Y-48956008D01*
X117548894Y-48681079D01*
X118404659Y-48156902D01*
X119279397Y-47662656D01*
X120168771Y-47193170D01*
X121068444Y-46743272D01*
X122881344Y-45881557D01*
X125556589Y-44773958D01*
X126912714Y-44262250D01*
X128280254Y-43780189D01*
X129658518Y-43328968D01*
X131046814Y-42909775D01*
X132444452Y-42523801D01*
X133850741Y-42172238D01*
X135264991Y-41856276D01*
X136686510Y-41577104D01*
X138114607Y-41335915D01*
X139548593Y-41133898D01*
X140987775Y-40972243D01*
X142431464Y-40852142D01*
X143878968Y-40774785D01*
X145329597Y-40741363D01*
X145329614Y-40741372D01*
X145597243Y-40740636D01*
X145731055Y-40740861D01*
X145864866Y-40742058D01*
X146408170Y-40736759D01*
X146950233Y-40755162D01*
X147490283Y-40796905D01*
X148027550Y-40861626D01*
X148561264Y-40948963D01*
X149090652Y-41058552D01*
X149614945Y-41190033D01*
X150133372Y-41343042D01*
X150645163Y-41517218D01*
X151149546Y-41712197D01*
X151645751Y-41927617D01*
X152133007Y-42163117D01*
X152610544Y-42418334D01*
X153077590Y-42692906D01*
X153533376Y-42986469D01*
X153977130Y-43298663D01*
X154399211Y-43085547D01*
X154827533Y-42881512D01*
X155261722Y-42687641D01*
X155701408Y-42505017D01*
X156146218Y-42334726D01*
X156595780Y-42177851D01*
X157049723Y-42035476D01*
X157507672Y-41908686D01*
X157969258Y-41798563D01*
X158434107Y-41706194D01*
X158901848Y-41632660D01*
X159372108Y-41579047D01*
X159844515Y-41546439D01*
X160318697Y-41535919D01*
X160794283Y-41548572D01*
X161270899Y-41585482D01*
X161501529Y-41606813D01*
X161731337Y-41636224D01*
X161960054Y-41673606D01*
X162187414Y-41718850D01*
X162636988Y-41832490D01*
X163077915Y-41976274D01*
X163508050Y-42149331D01*
X163925251Y-42350791D01*
X164327373Y-42579784D01*
X164522110Y-42704333D01*
X164712273Y-42835440D01*
X164897595Y-42972995D01*
X165077807Y-43116889D01*
X165252642Y-43267014D01*
X165421832Y-43423261D01*
X165585108Y-43585521D01*
X165742202Y-43753685D01*
X165892848Y-43927645D01*
X166036776Y-44107292D01*
X166173719Y-44292517D01*
X166303409Y-44483211D01*
X166425577Y-44679266D01*
X166539957Y-44880573D01*
X166646279Y-45087022D01*
X166744277Y-45298506D01*
X166833681Y-45514916D01*
X166914224Y-45736142D01*
X167100107Y-46315085D01*
X167238788Y-46899582D01*
X167332801Y-47488396D01*
X167384682Y-48080291D01*
X167396964Y-48674029D01*
X167372185Y-49268372D01*
X167312877Y-49862084D01*
X167221576Y-50453928D01*
X167100817Y-51042666D01*
X166953135Y-51627061D01*
X166781065Y-52205876D01*
X166587141Y-52777874D01*
X166373898Y-53341818D01*
X166143873Y-53896470D01*
X165899598Y-54440593D01*
X165643609Y-54972951D01*
X165892101Y-55325199D01*
X166129983Y-55684774D01*
X166356804Y-56051376D01*
X166572115Y-56424704D01*
X166775463Y-56804459D01*
X166966398Y-57190340D01*
X167144468Y-57582049D01*
X167309224Y-57979284D01*
X167460214Y-58381746D01*
X167596986Y-58789136D01*
X167719091Y-59201152D01*
X167826077Y-59617495D01*
X167917493Y-60037866D01*
X167992888Y-60461964D01*
X168051812Y-60889489D01*
X168093812Y-61320142D01*
X168162677Y-62284566D01*
X168200756Y-63249027D01*
X168209598Y-64213234D01*
X168190752Y-65176896D01*
X168145765Y-66139723D01*
X168076187Y-67101424D01*
X167983566Y-68061709D01*
X167869450Y-69020287D01*
X167582931Y-70931162D01*
X167229016Y-72831724D01*
X166820096Y-74719650D01*
X166368558Y-76592615D01*
X166106599Y-77586357D01*
X165825326Y-78574275D01*
X165206499Y-80532100D01*
X164515402Y-82465014D01*
X163755364Y-84371945D01*
X162929709Y-86251816D01*
X162041765Y-88103554D01*
X161094857Y-89926084D01*
X160092312Y-91718332D01*
X160221873Y-91778325D01*
X160348155Y-91843814D01*
X160470958Y-91914682D01*
X160590086Y-91990812D01*
X160705340Y-92072088D01*
X160816523Y-92158393D01*
X160923437Y-92249611D01*
X161025885Y-92345625D01*
X161123668Y-92446319D01*
X161216589Y-92551576D01*
X161304450Y-92661279D01*
X161387053Y-92775312D01*
X161464201Y-92893559D01*
X161535696Y-93015903D01*
X161601339Y-93142228D01*
X161660934Y-93272416D01*
X161666135Y-112295387D01*
X161631416Y-112421505D01*
X161592023Y-112545481D01*
X161548083Y-112667280D01*
X161499723Y-112786872D01*
X161390250Y-113019305D01*
X161264616Y-113242526D01*
X161123833Y-113456278D01*
X160968914Y-113660307D01*
X160800873Y-113854357D01*
X160620722Y-114038174D01*
X160429474Y-114211501D01*
X160228141Y-114374084D01*
X160017737Y-114525668D01*
X159799274Y-114665998D01*
X159573766Y-114794817D01*
X159342224Y-114911872D01*
X159105663Y-115016907D01*
X158865094Y-115109666D01*
X148047225Y-115131580D01*
X142637996Y-115127531D01*
X137229010Y-115094228D01*
X137025295Y-115106631D01*
X136819872Y-115112946D01*
X136613498Y-115112498D01*
X136406934Y-115104613D01*
X136200937Y-115088614D01*
X135996266Y-115063825D01*
X135793681Y-115029572D01*
X135593939Y-114985179D01*
X135397801Y-114929971D01*
X135206025Y-114863271D01*
X135019370Y-114784405D01*
X134838595Y-114692697D01*
X134664458Y-114587472D01*
X134580116Y-114529579D01*
X134497718Y-114468054D01*
X134417360Y-114402811D01*
X134339135Y-114333767D01*
X134263140Y-114260837D01*
X134189467Y-114183936D01*
X134105469Y-114117375D01*
X134026770Y-114047913D01*
X133953192Y-113975675D01*
X133884556Y-113900787D01*
X133820682Y-113823376D01*
X133761391Y-113743568D01*
X133706505Y-113661487D01*
X133655845Y-113577261D01*
X133566484Y-113402876D01*
X133491878Y-113221420D01*
X133430594Y-113033900D01*
X133381200Y-112841324D01*
X133342265Y-112644700D01*
X133312355Y-112445037D01*
X133290040Y-112243340D01*
X133284253Y-112170709D01*
X142252241Y-112170709D01*
X142674516Y-112170715D01*
X142676724Y-112152955D01*
X142679378Y-112135393D01*
X142682478Y-112118030D01*
X142686025Y-112100865D01*
X142690019Y-112083898D01*
X142694459Y-112067130D01*
X142699346Y-112050560D01*
X142704679Y-112034189D01*
X142710458Y-112018016D01*
X142716684Y-112002041D01*
X142723357Y-111986265D01*
X142730476Y-111970687D01*
X142738041Y-111955308D01*
X142746053Y-111940128D01*
X142754512Y-111925145D01*
X142763417Y-111910361D01*
X142773239Y-111895478D01*
X142783657Y-111880992D01*
X142794669Y-111866903D01*
X142806278Y-111853211D01*
X142818482Y-111839916D01*
X142831281Y-111827017D01*
X142844675Y-111814516D01*
X142858665Y-111802412D01*
X142873250Y-111790704D01*
X142888430Y-111779393D01*
X142904206Y-111768479D01*
X142920577Y-111757962D01*
X142937544Y-111747842D01*
X142955106Y-111738119D01*
X142973263Y-111728793D01*
X142992015Y-111719863D01*
X143011400Y-111711408D01*
X143031455Y-111703497D01*
X143052179Y-111696132D01*
X143073573Y-111689311D01*
X143095637Y-111683036D01*
X143118370Y-111677306D01*
X143141774Y-111672122D01*
X143165846Y-111667483D01*
X143190589Y-111663389D01*
X143216001Y-111659841D01*
X143242083Y-111656839D01*
X143268835Y-111654382D01*
X143296256Y-111652471D01*
X143324348Y-111651106D01*
X143382539Y-111650014D01*
X143408435Y-111650237D01*
X143433736Y-111650907D01*
X143458442Y-111652024D01*
X143482552Y-111653587D01*
X143506067Y-111655596D01*
X143528987Y-111658052D01*
X143551311Y-111660955D01*
X143573040Y-111664303D01*
X143594174Y-111668099D01*
X143614712Y-111672341D01*
X143634655Y-111677029D01*
X143654002Y-111682164D01*
X143672754Y-111687745D01*
X143690911Y-111693772D01*
X143708473Y-111700246D01*
X143725439Y-111707166D01*
X143742232Y-111714470D01*
X143758479Y-111722097D01*
X143774180Y-111730047D01*
X143789336Y-111738319D01*
X143803946Y-111746914D01*
X143818011Y-111755831D01*
X143831530Y-111765070D01*
X143844503Y-111774632D01*
X143856930Y-111784517D01*
X143868811Y-111794724D01*
X143880147Y-111805253D01*
X143890937Y-111816105D01*
X143901181Y-111827279D01*
X143910880Y-111838776D01*
X143920033Y-111850595D01*
X143928640Y-111862737D01*
X143936714Y-111875140D01*
X143944267Y-111887741D01*
X143951299Y-111900541D01*
X143957810Y-111913539D01*
X143963800Y-111926735D01*
X143969270Y-111940130D01*
X143974218Y-111953723D01*
X143978646Y-111967515D01*
X143982553Y-111981504D01*
X143985939Y-111995693D01*
X143988804Y-112010079D01*
X143991148Y-112024664D01*
X143992972Y-112039447D01*
X143994274Y-112054429D01*
X143995055Y-112069609D01*
X143995316Y-112084987D01*
X143995055Y-112099622D01*
X143994274Y-112114158D01*
X143992972Y-112128594D01*
X143991148Y-112142931D01*
X143988804Y-112157169D01*
X143985939Y-112171308D01*
X143982553Y-112185347D01*
X143978646Y-112199288D01*
X143974218Y-112213129D01*
X143969270Y-112226870D01*
X143963800Y-112240513D01*
X143957810Y-112254056D01*
X143951299Y-112267500D01*
X143944267Y-112280845D01*
X143936714Y-112294091D01*
X143928640Y-112307237D01*
X143919958Y-112320396D01*
X143910582Y-112333678D01*
X143900512Y-112347085D01*
X143889746Y-112360616D01*
X143878287Y-112374271D01*
X143866132Y-112388050D01*
X143853283Y-112401953D01*
X143839740Y-112415980D01*
X143825502Y-112430131D01*
X143810569Y-112444406D01*
X143794942Y-112458806D01*
X143778621Y-112473329D01*
X143743894Y-112502748D01*
X143706390Y-112532663D01*
X143666505Y-112562724D01*
X143623047Y-112594175D01*
X143576018Y-112627016D01*
X143525416Y-112661246D01*
X143471243Y-112696865D01*
X143413497Y-112733873D01*
X143352179Y-112772271D01*
X143287290Y-112812059D01*
X142274465Y-113428008D01*
X142274465Y-113732810D01*
X144490616Y-113732810D01*
X144490616Y-113383559D01*
X142946236Y-113383559D01*
X143020197Y-113340626D01*
X143093654Y-113296774D01*
X143240078Y-113208189D01*
X143313556Y-113164397D01*
X143387551Y-113121565D01*
X143462321Y-113080163D01*
X143538119Y-113040660D01*
X143617741Y-112992888D01*
X143693098Y-112946404D01*
X143764188Y-112901210D01*
X143831012Y-112857306D01*
X143893569Y-112814691D01*
X143951860Y-112773366D01*
X144005885Y-112733330D01*
X144055644Y-112694585D01*
X144079419Y-112675163D01*
X144102325Y-112655790D01*
X144124364Y-112636468D01*
X144145535Y-112617194D01*
X144165838Y-112597971D01*
X144185272Y-112578797D01*
X144203838Y-112559673D01*
X144220065Y-112542184D01*
X144782712Y-112542184D01*
X144783308Y-112588259D01*
X144785094Y-112633614D01*
X144788071Y-112678251D01*
X144792238Y-112722168D01*
X144797596Y-112765365D01*
X144804145Y-112807844D01*
X144811884Y-112849603D01*
X144820814Y-112890642D01*
X144830934Y-112930963D01*
X144842245Y-112970564D01*
X144854747Y-113009445D01*
X144868439Y-113047607D01*
X144883322Y-113085050D01*
X144899395Y-113121773D01*
X144916659Y-113157777D01*
X144935113Y-113193061D01*
X144954672Y-113227118D01*
X144975247Y-113260233D01*
X144996840Y-113292404D01*
X145019449Y-113323633D01*
X145043076Y-113353920D01*
X145067719Y-113383263D01*
X145093379Y-113411664D01*
X145120056Y-113439123D01*
X145147751Y-113465638D01*
X145176462Y-113491212D01*
X145206190Y-113515842D01*
X145236936Y-113539530D01*
X145268698Y-113562276D01*
X145301478Y-113584079D01*
X145335275Y-113604940D01*
X145370089Y-113624858D01*
X145405832Y-113643313D01*
X145442419Y-113660577D01*
X145479849Y-113676651D01*
X145518122Y-113691534D01*
X145557239Y-113705226D01*
X145597199Y-113717727D01*
X145638003Y-113729038D01*
X145679650Y-113739159D01*
X145722140Y-113748089D01*
X145765474Y-113755828D01*
X145809651Y-113762376D01*
X145854672Y-113767734D01*
X145900536Y-113771901D01*
X145947243Y-113774878D01*
X145994794Y-113776664D01*
X146043188Y-113777259D01*
X146091570Y-113776664D01*
X146139084Y-113774878D01*
X146185729Y-113771901D01*
X146231507Y-113767734D01*
X146276416Y-113762376D01*
X146320457Y-113755828D01*
X146363629Y-113748089D01*
X146405934Y-113739159D01*
X146447370Y-113729038D01*
X146487938Y-113717727D01*
X146527638Y-113705226D01*
X146566469Y-113691534D01*
X146604433Y-113676651D01*
X146641528Y-113660577D01*
X146677755Y-113643313D01*
X146713113Y-113624858D01*
X146747927Y-113604941D01*
X146781724Y-113584081D01*
X146814504Y-113562278D01*
X146846267Y-113539533D01*
X146877012Y-113515845D01*
X146906741Y-113491214D01*
X146935453Y-113465641D01*
X146963147Y-113439125D01*
X146989824Y-113411666D01*
X147015485Y-113383265D01*
X147040128Y-113353921D01*
X147063754Y-113323634D01*
X147086363Y-113292405D01*
X147107956Y-113260233D01*
X147128531Y-113227118D01*
X147148089Y-113193061D01*
X147166544Y-113157777D01*
X147183809Y-113121773D01*
X147199882Y-113085050D01*
X147214766Y-113047607D01*
X147228458Y-113009445D01*
X147240960Y-112970564D01*
X147252270Y-112930963D01*
X147262391Y-112890642D01*
X147271320Y-112849603D01*
X147279059Y-112807844D01*
X147285608Y-112765365D01*
X147290965Y-112722168D01*
X147295132Y-112678251D01*
X147298109Y-112633614D01*
X147299895Y-112588259D01*
X147300490Y-112542184D01*
X147299895Y-112496122D01*
X147298109Y-112450804D01*
X147295132Y-112406230D01*
X147290965Y-112362400D01*
X147285607Y-112319314D01*
X147279058Y-112276973D01*
X147271319Y-112235375D01*
X147262390Y-112194522D01*
X147256383Y-112170715D01*
X147592589Y-112170715D01*
X148014864Y-112170720D01*
X148017072Y-112152960D01*
X148019726Y-112135399D01*
X148022827Y-112118035D01*
X148026374Y-112100870D01*
X148030367Y-112083904D01*
X148034807Y-112067136D01*
X148039694Y-112050566D01*
X148045027Y-112034194D01*
X148050806Y-112018021D01*
X148057032Y-112002047D01*
X148063704Y-111986271D01*
X148070823Y-111970693D01*
X148078388Y-111955314D01*
X148086400Y-111940133D01*
X148094858Y-111925151D01*
X148103762Y-111910367D01*
X148113585Y-111895484D01*
X148124003Y-111880998D01*
X148135016Y-111866909D01*
X148146625Y-111853217D01*
X148158829Y-111839921D01*
X148171628Y-111827023D01*
X148185023Y-111814522D01*
X148199012Y-111802417D01*
X148213597Y-111790710D01*
X148228778Y-111779399D01*
X148244553Y-111768485D01*
X148260924Y-111757968D01*
X148277891Y-111747848D01*
X148295452Y-111738125D01*
X148313609Y-111728798D01*
X148332361Y-111719869D01*
X148351746Y-111711413D01*
X148371801Y-111703503D01*
X148392526Y-111696137D01*
X148413920Y-111689317D01*
X148435984Y-111683042D01*
X148458718Y-111677312D01*
X148482121Y-111672128D01*
X148506194Y-111667489D01*
X148530937Y-111663395D01*
X148556349Y-111659847D01*
X148582431Y-111656845D01*
X148609183Y-111654388D01*
X148636605Y-111652477D01*
X148664696Y-111651112D01*
X148722887Y-111650020D01*
X148748783Y-111650243D01*
X148774084Y-111650913D01*
X148798789Y-111652029D01*
X148822899Y-111653592D01*
X148846414Y-111655602D01*
X148869333Y-111658058D01*
X148891657Y-111660960D01*
X148913386Y-111664309D01*
X148934520Y-111668105D01*
X148955058Y-111672346D01*
X148975001Y-111677035D01*
X148994349Y-111682169D01*
X149013101Y-111687750D01*
X149031258Y-111693778D01*
X149048820Y-111700252D01*
X149065787Y-111707172D01*
X149082579Y-111714476D01*
X149098826Y-111722103D01*
X149114527Y-111730053D01*
X149129683Y-111738326D01*
X149144293Y-111746921D01*
X149158357Y-111755838D01*
X149171876Y-111765078D01*
X149184849Y-111774641D01*
X149197276Y-111784526D01*
X149209158Y-111794734D01*
X149220494Y-111805263D01*
X149231284Y-111816116D01*
X149241528Y-111827290D01*
X149251227Y-111838787D01*
X149260381Y-111850607D01*
X149268988Y-111862748D01*
X149277062Y-111875150D01*
X149284615Y-111887751D01*
X149291647Y-111900550D01*
X149298158Y-111913547D01*
X149304148Y-111926743D01*
X149309617Y-111940137D01*
X149314566Y-111953730D01*
X149318993Y-111967521D01*
X149322900Y-111981511D01*
X149326285Y-111995699D01*
X149329150Y-112010085D01*
X149331494Y-112024670D01*
X149333317Y-112039453D01*
X149334620Y-112054434D01*
X149335401Y-112069614D01*
X149335661Y-112084993D01*
X149335401Y-112099628D01*
X149334620Y-112114163D01*
X149333317Y-112128600D01*
X149331494Y-112142937D01*
X149329150Y-112157175D01*
X149326285Y-112171314D01*
X149322900Y-112185353D01*
X149318993Y-112199293D01*
X149314566Y-112213134D01*
X149309617Y-112226876D01*
X149304148Y-112240519D01*
X149298158Y-112254062D01*
X149291647Y-112267506D01*
X149284615Y-112280851D01*
X149277062Y-112294096D01*
X149268988Y-112307243D01*
X149260306Y-112320401D01*
X149250930Y-112333684D01*
X149240859Y-112347091D01*
X149230093Y-112360622D01*
X149218633Y-112374277D01*
X149206479Y-112388056D01*
X149193630Y-112401959D01*
X149180087Y-112415986D01*
X149165849Y-112430137D01*
X149150917Y-112444412D01*
X149135290Y-112458811D01*
X149118968Y-112473335D01*
X149084242Y-112502753D01*
X149046738Y-112532668D01*
X149006853Y-112562730D01*
X148963395Y-112594181D01*
X148916365Y-112627021D01*
X148865763Y-112661251D01*
X148811590Y-112696870D01*
X148753844Y-112733879D01*
X148692527Y-112772277D01*
X148627638Y-112812064D01*
X147614813Y-113428014D01*
X147614813Y-113732816D01*
X149830962Y-113732816D01*
X149830962Y-113383565D01*
X148294747Y-113383565D01*
X148367470Y-113340246D01*
X148439718Y-113296056D01*
X148583879Y-113207069D01*
X148656335Y-113163271D01*
X148729403Y-113120605D01*
X148803356Y-113079569D01*
X148878464Y-113040666D01*
X148958087Y-112992893D01*
X148988747Y-112973981D01*
X150078609Y-112973981D01*
X150081089Y-113003906D01*
X150084562Y-113033361D01*
X150089027Y-113062344D01*
X150094484Y-113090856D01*
X150100934Y-113118898D01*
X150108375Y-113146468D01*
X150116809Y-113173567D01*
X150126235Y-113200194D01*
X150136653Y-113226351D01*
X150148063Y-113252036D01*
X150160466Y-113277250D01*
X150173860Y-113301993D01*
X150188247Y-113326264D01*
X150203625Y-113350065D01*
X150219996Y-113373394D01*
X150237359Y-113396251D01*
X150256049Y-113418563D01*
X150275607Y-113440254D01*
X150296034Y-113461326D01*
X150317329Y-113481778D01*
X150339492Y-113501609D01*
X150362523Y-113520821D01*
X150386423Y-113539412D01*
X150411191Y-113557384D01*
X150436827Y-113574735D01*
X150463331Y-113591466D01*
X150490703Y-113607577D01*
X150518943Y-113623068D01*
X150548051Y-113637938D01*
X150578028Y-113652188D01*
X150608873Y-113665819D01*
X150640585Y-113678828D01*
X150673079Y-113690745D01*
X150706268Y-113701893D01*
X150740151Y-113712273D01*
X150774729Y-113721884D01*
X150810001Y-113730726D01*
X150845968Y-113738800D01*
X150882629Y-113746106D01*
X150919985Y-113752642D01*
X150996780Y-113763409D01*
X151076353Y-113771100D01*
X151158704Y-113775715D01*
X151243832Y-113777253D01*
X151287849Y-113776894D01*
X151330997Y-113775815D01*
X151373277Y-113774017D01*
X151414688Y-113771499D01*
X151455232Y-113768263D01*
X151494907Y-113764307D01*
X151533714Y-113759631D01*
X151571653Y-113754236D01*
X151608723Y-113748122D01*
X151644926Y-113741289D01*
X151680260Y-113733736D01*
X151714726Y-113725464D01*
X151748324Y-113716472D01*
X151781054Y-113706761D01*
X151812915Y-113696330D01*
X151843909Y-113685180D01*
X151874406Y-113673001D01*
X151903986Y-113660277D01*
X151932648Y-113647006D01*
X151960392Y-113633190D01*
X151987219Y-113618828D01*
X152013127Y-113603921D01*
X152038118Y-113588467D01*
X152062191Y-113572468D01*
X152085346Y-113555923D01*
X152107584Y-113538832D01*
X152128904Y-113521195D01*
X152149306Y-113503013D01*
X152168790Y-113484285D01*
X152187356Y-113465011D01*
X152205005Y-113445192D01*
X152221735Y-113424827D01*
X152237499Y-113404004D01*
X152252245Y-113382809D01*
X152265975Y-113361241D01*
X152278687Y-113339302D01*
X152290382Y-113316990D01*
X152301060Y-113294307D01*
X152310722Y-113271251D01*
X152319366Y-113247823D01*
X152326993Y-113224023D01*
X152333604Y-113199851D01*
X152339197Y-113175307D01*
X152343773Y-113150391D01*
X152347333Y-113125103D01*
X152349875Y-113099442D01*
X152351401Y-113073410D01*
X152351909Y-113047006D01*
X152351463Y-113023430D01*
X152350123Y-113000325D01*
X152347891Y-112977691D01*
X152344766Y-112955529D01*
X152340748Y-112933837D01*
X152335836Y-112912617D01*
X152330032Y-112891868D01*
X152323335Y-112871590D01*
X152315745Y-112851783D01*
X152307262Y-112832448D01*
X152297886Y-112813584D01*
X152287617Y-112795191D01*
X152276455Y-112777269D01*
X152264400Y-112759818D01*
X152251452Y-112742839D01*
X152237611Y-112726331D01*
X152223336Y-112709936D01*
X152208291Y-112694086D01*
X152192478Y-112678782D01*
X152175896Y-112664023D01*
X152158545Y-112649810D01*
X152140425Y-112636143D01*
X152121536Y-112623022D01*
X152101878Y-112610446D01*
X152081452Y-112598416D01*
X152060256Y-112586931D01*
X152038292Y-112575992D01*
X152015558Y-112565599D01*
X151992056Y-112555751D01*
X151967785Y-112546449D01*
X151942745Y-112537692D01*
X151916936Y-112529481D01*
X151830665Y-112521925D01*
X151757572Y-112516774D01*
X151697281Y-112513603D01*
X151649416Y-112511989D01*
X151592006Y-112511744D01*
X151602119Y-112511236D01*
X151668716Y-112504209D01*
X151715766Y-112497516D01*
X151771483Y-112488139D01*
X151835489Y-112475652D01*
X151907409Y-112459632D01*
X151931618Y-112449896D01*
X151955034Y-112439739D01*
X151977656Y-112429159D01*
X151999483Y-112418159D01*
X152020518Y-112406736D01*
X152040758Y-112394892D01*
X152060205Y-112382626D01*
X152078858Y-112369938D01*
X152096718Y-112356829D01*
X152113784Y-112343298D01*
X152130056Y-112329345D01*
X152145534Y-112314971D01*
X152160219Y-112300174D01*
X152174110Y-112284956D01*
X152187207Y-112269317D01*
X152199511Y-112253255D01*
X152211429Y-112236463D01*
X152222579Y-112219422D01*
X152232959Y-112202134D01*
X152242571Y-112184597D01*
X152251414Y-112166812D01*
X152259488Y-112148779D01*
X152266793Y-112130498D01*
X152273329Y-112111969D01*
X152279096Y-112093192D01*
X152284094Y-112074167D01*
X152288324Y-112054893D01*
X152291784Y-112035372D01*
X152294475Y-112015602D01*
X152296398Y-111995584D01*
X152297551Y-111975319D01*
X152297936Y-111954805D01*
X152297452Y-111930409D01*
X152296001Y-111906435D01*
X152293583Y-111882883D01*
X152290197Y-111859752D01*
X152285844Y-111837044D01*
X152280524Y-111814757D01*
X152274236Y-111792892D01*
X152266980Y-111771448D01*
X152258758Y-111750426D01*
X152249568Y-111729826D01*
X152239410Y-111709648D01*
X152228285Y-111689891D01*
X152216193Y-111670556D01*
X152203133Y-111651643D01*
X152189106Y-111633151D01*
X152174111Y-111615081D01*
X152158224Y-111597086D01*
X152141518Y-111579612D01*
X152123993Y-111562659D01*
X152105651Y-111546226D01*
X152086489Y-111530314D01*
X152066509Y-111514922D01*
X152045711Y-111500052D01*
X152024093Y-111485702D01*
X152001658Y-111471873D01*
X151978403Y-111458565D01*
X151954331Y-111445778D01*
X151929439Y-111433511D01*
X151903729Y-111421766D01*
X151877200Y-111410541D01*
X151849853Y-111399838D01*
X151821687Y-111389655D01*
X151793186Y-111379658D01*
X151764041Y-111370306D01*
X151734250Y-111361599D01*
X151703815Y-111353537D01*
X151672734Y-111346121D01*
X151641009Y-111339350D01*
X151575624Y-111327742D01*
X151507659Y-111318715D01*
X151437114Y-111312267D01*
X151363990Y-111308398D01*
X151288287Y-111307109D01*
X151245399Y-111307518D01*
X151203256Y-111308747D01*
X151161858Y-111310793D01*
X151121203Y-111313659D01*
X151081292Y-111317343D01*
X151042125Y-111321846D01*
X151003703Y-111327167D01*
X150966025Y-111333307D01*
X150929090Y-111340265D01*
X150892900Y-111348042D01*
X150857454Y-111356638D01*
X150822752Y-111366051D01*
X150788794Y-111376284D01*
X150755581Y-111387335D01*
X150723111Y-111399204D01*
X150691386Y-111411891D01*
X150660851Y-111424889D01*
X150631160Y-111438481D01*
X150602313Y-111452669D01*
X150574308Y-111467452D01*
X150547147Y-111482830D01*
X150520830Y-111498804D01*
X150495355Y-111515373D01*
X150470724Y-111532537D01*
X150446937Y-111550297D01*
X150423992Y-111568652D01*
X150401891Y-111587602D01*
X150380634Y-111607148D01*
X150360220Y-111627290D01*
X150340649Y-111648027D01*
X150321921Y-111669359D01*
X150304037Y-111691287D01*
X150287419Y-111713289D01*
X150271693Y-111735638D01*
X150256859Y-111758334D01*
X150242919Y-111781377D01*
X150229872Y-111804768D01*
X150217718Y-111828506D01*
X150206456Y-111852591D01*
X150196088Y-111877024D01*
X150186612Y-111901804D01*
X150178029Y-111926931D01*
X150170340Y-111952406D01*
X150163543Y-111978228D01*
X150157640Y-112004397D01*
X150152630Y-112030913D01*
X150148512Y-112057776D01*
X150145288Y-112084987D01*
X150567561Y-112084970D01*
X150572484Y-112059160D01*
X150578524Y-112034119D01*
X150585680Y-112009848D01*
X150593953Y-111986346D01*
X150603341Y-111963612D01*
X150613846Y-111941648D01*
X150625467Y-111920453D01*
X150638204Y-111900027D01*
X150652057Y-111880369D01*
X150667027Y-111861481D01*
X150683113Y-111843361D01*
X150700315Y-111826011D01*
X150718634Y-111809429D01*
X150738068Y-111793615D01*
X150758619Y-111778571D01*
X150780286Y-111764295D01*
X150803392Y-111750454D01*
X150827465Y-111737506D01*
X150852505Y-111725451D01*
X150878513Y-111714289D01*
X150905488Y-111704020D01*
X150933430Y-111694644D01*
X150962340Y-111686161D01*
X150992217Y-111678571D01*
X151023062Y-111671874D01*
X151054874Y-111666070D01*
X151087654Y-111661158D01*
X151121400Y-111657140D01*
X151156115Y-111654015D01*
X151191797Y-111651783D01*
X151228446Y-111650443D01*
X151266062Y-111649997D01*
X151304311Y-111650369D01*
X151341270Y-111651485D01*
X151376939Y-111653346D01*
X151411318Y-111655950D01*
X151444408Y-111659299D01*
X151476207Y-111663392D01*
X151506717Y-111668229D01*
X151535937Y-111673811D01*
X151563867Y-111680136D01*
X151590508Y-111687206D01*
X151615858Y-111695020D01*
X151639919Y-111703578D01*
X151662689Y-111712880D01*
X151684170Y-111722926D01*
X151704361Y-111733717D01*
X151723262Y-111745252D01*
X151741332Y-111757443D01*
X151758236Y-111770205D01*
X151773974Y-111783537D01*
X151788547Y-111797440D01*
X151801953Y-111811913D01*
X151814194Y-111826958D01*
X151825269Y-111842572D01*
X151835179Y-111858757D01*
X151843922Y-111875513D01*
X151851500Y-111892839D01*
X151857912Y-111910736D01*
X151863158Y-111929203D01*
X151867238Y-111948240D01*
X151870153Y-111967848D01*
X151871902Y-111988026D01*
X151872485Y-112008775D01*
X151871964Y-112027614D01*
X151870401Y-112046032D01*
X151867797Y-112064028D01*
X151864150Y-112081602D01*
X151859462Y-112098755D01*
X151853733Y-112115486D01*
X151846961Y-112131795D01*
X151839148Y-112147683D01*
X151830292Y-112163148D01*
X151820395Y-112178193D01*
X151809457Y-112192815D01*
X151797476Y-112207016D01*
X151784454Y-112220795D01*
X151770389Y-112234152D01*
X151755283Y-112247087D01*
X151739135Y-112259601D01*
X151721834Y-112271136D01*
X151703268Y-112281926D01*
X151683437Y-112291973D01*
X151662341Y-112301275D01*
X151639980Y-112309833D01*
X151616353Y-112317647D01*
X151591462Y-112324717D01*
X151565305Y-112331042D01*
X151537884Y-112336623D01*
X151509197Y-112341460D01*
X151479245Y-112345554D01*
X151448028Y-112348902D01*
X151415547Y-112351507D01*
X151381800Y-112353367D01*
X151346788Y-112354484D01*
X151310511Y-112354856D01*
X150878711Y-112354856D01*
X150878711Y-112666003D01*
X151310511Y-112666003D01*
X151366173Y-112666649D01*
X151418858Y-112668585D01*
X151468567Y-112671812D01*
X151515299Y-112676328D01*
X151559055Y-112682134D01*
X151579816Y-112685520D01*
X151599834Y-112689228D01*
X151619107Y-112693259D01*
X151637636Y-112697611D01*
X151655421Y-112702286D01*
X151672462Y-112707282D01*
X151689217Y-112712591D01*
X151705352Y-112718196D01*
X151720868Y-112724100D01*
X151735763Y-112730301D01*
X151750038Y-112736800D01*
X151763692Y-112743596D01*
X151776727Y-112750690D01*
X151789142Y-112758082D01*
X151800937Y-112765771D01*
X151812111Y-112773758D01*
X151822666Y-112782043D01*
X151832600Y-112790625D01*
X151841914Y-112799505D01*
X151850608Y-112808683D01*
X151858682Y-112818158D01*
X151866136Y-112827932D01*
X151873441Y-112837605D01*
X151880275Y-112847575D01*
X151886637Y-112857844D01*
X151892528Y-112868410D01*
X151897948Y-112879274D01*
X151902897Y-112890436D01*
X151907374Y-112901896D01*
X151911380Y-112913654D01*
X151914915Y-112925709D01*
X151917978Y-112938062D01*
X151920570Y-112950712D01*
X151922691Y-112963661D01*
X151924340Y-112976906D01*
X151925518Y-112990450D01*
X151926225Y-113004291D01*
X151926461Y-113018430D01*
X151925791Y-113042316D01*
X151923782Y-113065557D01*
X151922275Y-113076936D01*
X151920433Y-113088154D01*
X151918257Y-113099210D01*
X151915745Y-113110106D01*
X151912899Y-113120840D01*
X151909718Y-113131413D01*
X151906202Y-113141824D01*
X151902351Y-113152075D01*
X151898165Y-113162164D01*
X151893644Y-113172092D01*
X151888789Y-113181859D01*
X151883599Y-113191465D01*
X151878073Y-113200909D01*
X151872213Y-113210192D01*
X151866018Y-113219314D01*
X151859489Y-113228275D01*
X151852624Y-113237075D01*
X151845424Y-113245713D01*
X151837890Y-113254191D01*
X151830021Y-113262507D01*
X151813277Y-113278655D01*
X151795195Y-113294159D01*
X151775773Y-113309018D01*
X151755011Y-113323232D01*
X151732922Y-113336689D01*
X151709519Y-113349278D01*
X151684801Y-113360999D01*
X151658769Y-113371851D01*
X151631421Y-113381835D01*
X151602759Y-113390950D01*
X151572783Y-113399197D01*
X151541492Y-113406576D01*
X151508886Y-113413087D01*
X151474966Y-113418729D01*
X151439730Y-113423504D01*
X151403181Y-113427410D01*
X151365316Y-113430448D01*
X151326137Y-113432618D01*
X151285643Y-113433920D01*
X151243835Y-113434354D01*
X151201964Y-113433895D01*
X151161285Y-113432518D01*
X151121796Y-113430224D01*
X151083497Y-113427011D01*
X151046389Y-113422881D01*
X151010472Y-113417833D01*
X150975746Y-113411868D01*
X150942210Y-113404984D01*
X150909865Y-113397183D01*
X150878710Y-113388464D01*
X150848747Y-113378828D01*
X150819973Y-113368274D01*
X150792390Y-113356802D01*
X150765998Y-113344412D01*
X150740797Y-113331105D01*
X150716786Y-113316880D01*
X150693990Y-113301402D01*
X150672435Y-113285130D01*
X150652120Y-113268064D01*
X150633045Y-113250205D01*
X150615210Y-113231552D01*
X150598615Y-113212105D01*
X150583261Y-113191864D01*
X150569147Y-113170830D01*
X150556273Y-113149002D01*
X150544640Y-113126381D01*
X150534246Y-113102965D01*
X150525093Y-113078756D01*
X150517181Y-113053753D01*
X150510508Y-113027956D01*
X150505076Y-113001365D01*
X150500884Y-112973981D01*
X150078609Y-112973981D01*
X148988747Y-112973981D01*
X149033444Y-112946410D01*
X149104534Y-112901216D01*
X149171358Y-112857311D01*
X149233916Y-112814697D01*
X149292207Y-112773371D01*
X149346231Y-112733336D01*
X149395989Y-112694591D01*
X149419764Y-112675169D01*
X149442672Y-112655796D01*
X149464711Y-112636473D01*
X149485882Y-112617200D01*
X149506185Y-112597977D01*
X149525619Y-112578803D01*
X149544186Y-112559679D01*
X149561884Y-112540604D01*
X149578714Y-112521579D01*
X149594676Y-112502603D01*
X149609770Y-112483677D01*
X149623995Y-112464801D01*
X149637353Y-112445974D01*
X149649842Y-112427196D01*
X149661462Y-112408468D01*
X149672215Y-112389789D01*
X149682596Y-112371037D01*
X149692307Y-112352086D01*
X149701349Y-112332937D01*
X149709720Y-112313589D01*
X149717422Y-112294044D01*
X149724454Y-112274299D01*
X149730817Y-112254357D01*
X149736509Y-112234216D01*
X149741532Y-112213876D01*
X149745885Y-112193338D01*
X149749569Y-112172602D01*
X149752582Y-112151667D01*
X149754926Y-112130534D01*
X149756600Y-112109203D01*
X149757605Y-112087673D01*
X149757940Y-112065944D01*
X149757431Y-112037976D01*
X149755906Y-112010429D01*
X149753363Y-111983305D01*
X149749804Y-111956602D01*
X149745227Y-111930321D01*
X149739634Y-111904462D01*
X149733023Y-111879025D01*
X149725396Y-111854009D01*
X149716751Y-111829416D01*
X149707090Y-111805244D01*
X149696412Y-111781494D01*
X149684716Y-111758165D01*
X149672004Y-111735259D01*
X149658275Y-111712774D01*
X149643529Y-111690710D01*
X149627766Y-111669069D01*
X149611481Y-111647935D01*
X149594378Y-111627397D01*
X149576457Y-111607455D01*
X149557717Y-111588108D01*
X149538158Y-111569356D01*
X149517781Y-111551199D01*
X149496586Y-111533637D01*
X149474572Y-111516671D01*
X149451739Y-111500300D01*
X149428088Y-111484524D01*
X149403619Y-111469344D01*
X149378330Y-111454759D01*
X149352223Y-111440769D01*
X149325298Y-111427374D01*
X149297554Y-111414574D01*
X149268991Y-111402370D01*
X149240118Y-111390835D01*
X149210650Y-111380044D01*
X149180586Y-111369998D01*
X149149928Y-111360696D01*
X149118674Y-111352138D01*
X149086824Y-111344324D01*
X149054380Y-111337254D01*
X149021340Y-111330929D01*
X148987705Y-111325347D01*
X148953474Y-111320510D01*
X148918648Y-111316417D01*
X148883227Y-111313068D01*
X148847211Y-111310464D01*
X148810599Y-111308603D01*
X148735590Y-111307115D01*
X148695779Y-111307537D01*
X148656513Y-111308802D01*
X148617792Y-111310910D01*
X148579618Y-111313862D01*
X148541989Y-111317657D01*
X148504906Y-111322296D01*
X148468368Y-111327778D01*
X148432377Y-111334104D01*
X148396931Y-111341272D01*
X148362030Y-111349284D01*
X148327676Y-111358140D01*
X148293867Y-111367839D01*
X148260604Y-111378381D01*
X148227887Y-111389766D01*
X148195715Y-111401995D01*
X148164090Y-111415067D01*
X148133121Y-111428511D01*
X148102921Y-111442649D01*
X148073490Y-111457482D01*
X148044828Y-111473010D01*
X148016935Y-111489232D01*
X147989811Y-111506149D01*
X147963456Y-111523760D01*
X147937870Y-111542066D01*
X147913052Y-111561067D01*
X147889004Y-111580762D01*
X147865725Y-111601151D01*
X147843215Y-111622235D01*
X147821473Y-111644014D01*
X147800501Y-111666487D01*
X147780297Y-111689655D01*
X147760863Y-111713517D01*
X147742718Y-111737999D01*
X147725590Y-111763026D01*
X147709480Y-111788599D01*
X147694386Y-111814718D01*
X147680309Y-111841383D01*
X147667249Y-111868593D01*
X147655207Y-111896350D01*
X147644181Y-111924652D01*
X147634172Y-111953499D01*
X147625181Y-111982893D01*
X147617206Y-112012832D01*
X147610248Y-112043317D01*
X147604308Y-112074348D01*
X147599384Y-112105924D01*
X147595478Y-112138047D01*
X147592589Y-112170715D01*
X147256383Y-112170715D01*
X147252269Y-112154413D01*
X147240958Y-112115048D01*
X147228457Y-112076427D01*
X147214764Y-112038550D01*
X147199881Y-112001417D01*
X147183808Y-111965028D01*
X147166544Y-111929383D01*
X147148089Y-111894483D01*
X147128530Y-111860054D01*
X147107955Y-111826618D01*
X147086362Y-111794174D01*
X147063753Y-111762722D01*
X147040127Y-111732262D01*
X147015483Y-111702794D01*
X146989823Y-111674319D01*
X146963146Y-111646836D01*
X146935452Y-111620344D01*
X146906740Y-111594845D01*
X146877012Y-111570338D01*
X146846266Y-111546823D01*
X146814504Y-111524301D01*
X146781724Y-111502770D01*
X146747927Y-111482232D01*
X146713113Y-111462686D01*
X146677754Y-111443847D01*
X146641527Y-111426224D01*
X146604431Y-111409816D01*
X146566468Y-111394623D01*
X146527636Y-111380646D01*
X146487936Y-111367884D01*
X146447368Y-111356337D01*
X146405932Y-111346005D01*
X146363627Y-111336889D01*
X146320455Y-111328989D01*
X146276414Y-111322303D01*
X146231505Y-111316833D01*
X146185728Y-111312579D01*
X146139083Y-111309540D01*
X146091569Y-111307717D01*
X146043188Y-111307109D01*
X145994794Y-111307717D01*
X145947243Y-111309540D01*
X145900536Y-111312579D01*
X145854672Y-111316833D01*
X145809652Y-111322302D01*
X145765475Y-111328987D01*
X145722141Y-111336887D01*
X145679651Y-111346003D01*
X145638004Y-111356335D01*
X145597200Y-111367881D01*
X145557240Y-111380643D01*
X145518123Y-111394621D01*
X145479850Y-111409814D01*
X145442420Y-111426223D01*
X145405833Y-111443846D01*
X145370089Y-111462686D01*
X145335275Y-111482232D01*
X145301478Y-111502770D01*
X145268698Y-111524301D01*
X145236936Y-111546823D01*
X145206190Y-111570338D01*
X145176461Y-111594845D01*
X145147750Y-111620344D01*
X145120055Y-111646836D01*
X145093378Y-111674319D01*
X145067718Y-111702794D01*
X145043074Y-111732262D01*
X145019448Y-111762722D01*
X144996839Y-111794174D01*
X144975247Y-111826618D01*
X144954671Y-111860054D01*
X144935113Y-111894483D01*
X144916658Y-111929383D01*
X144899394Y-111965028D01*
X144883320Y-112001417D01*
X144868437Y-112038551D01*
X144854744Y-112076428D01*
X144842243Y-112115049D01*
X144830932Y-112154414D01*
X144820812Y-112194524D01*
X144811882Y-112235378D01*
X144804143Y-112276975D01*
X144797595Y-112319317D01*
X144792237Y-112362402D01*
X144788070Y-112406232D01*
X144785094Y-112450805D01*
X144783308Y-112496123D01*
X144782712Y-112542184D01*
X144220065Y-112542184D01*
X144221536Y-112540598D01*
X144238366Y-112521573D01*
X144254328Y-112502598D01*
X144269422Y-112483672D01*
X144283647Y-112464795D01*
X144297004Y-112445968D01*
X144309493Y-112427190D01*
X144321114Y-112408462D01*
X144331867Y-112389783D01*
X144342248Y-112371031D01*
X144351959Y-112352080D01*
X144361001Y-112332931D01*
X144369373Y-112313584D01*
X144377075Y-112294038D01*
X144384107Y-112274294D01*
X144390470Y-112254351D01*
X144396162Y-112234210D01*
X144401186Y-112213871D01*
X144405539Y-112193333D01*
X144409223Y-112172596D01*
X144412236Y-112151662D01*
X144414581Y-112130528D01*
X144416255Y-112109197D01*
X144417259Y-112087667D01*
X144417594Y-112065938D01*
X144417086Y-112037970D01*
X144415560Y-112010423D01*
X144413018Y-111983299D01*
X144409458Y-111956596D01*
X144404882Y-111930315D01*
X144399288Y-111904456D01*
X144392677Y-111879019D01*
X144385050Y-111854004D01*
X144376405Y-111829410D01*
X144366744Y-111805238D01*
X144356065Y-111781488D01*
X144344370Y-111758160D01*
X144331657Y-111735253D01*
X144317928Y-111712768D01*
X144303181Y-111690705D01*
X144287418Y-111669063D01*
X144271134Y-111647930D01*
X144254031Y-111627392D01*
X144236110Y-111607449D01*
X144217370Y-111588102D01*
X144197811Y-111569350D01*
X144177434Y-111551193D01*
X144156239Y-111533632D01*
X144134225Y-111516665D01*
X144111392Y-111500294D01*
X144087741Y-111484519D01*
X144063271Y-111469338D01*
X144037982Y-111454753D01*
X144011875Y-111440763D01*
X143984950Y-111427368D01*
X143957206Y-111414568D01*
X143928643Y-111402364D01*
X143899770Y-111390829D01*
X143870302Y-111380039D01*
X143840238Y-111369992D01*
X143809580Y-111360690D01*
X143778326Y-111352132D01*
X143746477Y-111344318D01*
X143714032Y-111337248D01*
X143680993Y-111330923D01*
X143647357Y-111325341D01*
X143613127Y-111320504D01*
X143578301Y-111316411D01*
X143542880Y-111313062D01*
X143506864Y-111310458D01*
X143470252Y-111308597D01*
X143395242Y-111307109D01*
X143355430Y-111307531D01*
X143316164Y-111308796D01*
X143277444Y-111310904D01*
X143239270Y-111313856D01*
X143201641Y-111317652D01*
X143164558Y-111322290D01*
X143128020Y-111327772D01*
X143092028Y-111334098D01*
X143056582Y-111341267D01*
X143021682Y-111349279D01*
X142987328Y-111358134D01*
X142953519Y-111367833D01*
X142920256Y-111378375D01*
X142887539Y-111389760D01*
X142855367Y-111401989D01*
X142823741Y-111415061D01*
X142792773Y-111428505D01*
X142762573Y-111442644D01*
X142733143Y-111457477D01*
X142704481Y-111473004D01*
X142676588Y-111489227D01*
X142649464Y-111506143D01*
X142623109Y-111523755D01*
X142597523Y-111542061D01*
X142572706Y-111561061D01*
X142548657Y-111580756D01*
X142525378Y-111601146D01*
X142502868Y-111622230D01*
X142481127Y-111644008D01*
X142460155Y-111666482D01*
X142439952Y-111689649D01*
X142420517Y-111713512D01*
X142402372Y-111737993D01*
X142385244Y-111763020D01*
X142369133Y-111788594D01*
X142354039Y-111814712D01*
X142339962Y-111841377D01*
X142326903Y-111868588D01*
X142314860Y-111896344D01*
X142303834Y-111924646D01*
X142293825Y-111953494D01*
X142284834Y-111982887D01*
X142276859Y-112012826D01*
X142269901Y-112043312D01*
X142263961Y-112074342D01*
X142259037Y-112105919D01*
X142255130Y-112138041D01*
X142252241Y-112170709D01*
X133284253Y-112170709D01*
X133273887Y-112040619D01*
X133254340Y-111636133D01*
G37*
D10*
X166789342Y-45567626D02*
X166651126Y-45254681D01*
X166923787Y-48104255D02*
X166936816Y-48508778D01*
X114495448Y-69957455D02*
X114445496Y-69809708D01*
X160381711Y-91949225D02*
X160250209Y-91888851D01*
X120765952Y-80955215D02*
X120776632Y-81162475D01*
X114308376Y-70502906D02*
X114383461Y-70645126D01*
X162796576Y-86396952D02*
X163386611Y-85076629D01*
X115785322Y-50040507D02*
X115639848Y-50200758D01*
X134845288Y-92277304D02*
X134672891Y-92389785D01*
X121579874Y-63004486D02*
X122509972Y-62657367D01*
X167016809Y-46212327D02*
X167016809Y-46212327D01*
X130156800Y-87046244D02*
X130031530Y-87136308D01*
X160858710Y-92266902D02*
X160747144Y-92176823D01*
X115725026Y-71999207D02*
X115865628Y-72078253D01*
X130412482Y-56586874D02*
X128646281Y-56533366D01*
X160964878Y-92363447D02*
X160858710Y-92266902D01*
X139799957Y-114662043D02*
X135904619Y-114610458D01*
X165408930Y-79658630D02*
X165831048Y-78274772D01*
X160613189Y-92549211D02*
X160667918Y-92596863D01*
X136032995Y-92212100D02*
X136151251Y-92194134D01*
X165776993Y-54475802D02*
X165959293Y-54134128D01*
X156029359Y-114678211D02*
X155121067Y-114683103D01*
X165649613Y-54864575D02*
X165655144Y-54821054D01*
X157773678Y-41910745D02*
X157396159Y-42000269D01*
X116457576Y-72334196D02*
X116611645Y-72382394D01*
X158540916Y-41764093D02*
X158155509Y-41831783D01*
X127486063Y-74298557D02*
X127421100Y-74406768D01*
X159355558Y-91902655D02*
X159317616Y-91946579D01*
X136760998Y-91998545D02*
X136771046Y-91961049D01*
X117404426Y-56250052D02*
X117252265Y-56186886D01*
X136225429Y-80139435D02*
X136194873Y-80145342D01*
X115505046Y-50368934D02*
X115380919Y-50544435D01*
X122030191Y-78538154D02*
X122030191Y-78538154D01*
X165646951Y-54908192D02*
X165649613Y-54864575D01*
X136348267Y-60763243D02*
X136348267Y-60763243D01*
X158755700Y-115043908D02*
X158755700Y-115043908D01*
X138143966Y-60936224D02*
X138057538Y-60923312D01*
X166597559Y-46167852D02*
X166691219Y-46498568D01*
X129725330Y-43776018D02*
X130933329Y-43415307D01*
X167431584Y-58465162D02*
X167300196Y-58116906D01*
X121804923Y-78803698D02*
X121913412Y-78668025D01*
X136760901Y-91391269D02*
X136755242Y-91292669D01*
X128474484Y-87763373D02*
X128323308Y-87783556D01*
X147158057Y-40852970D02*
X146876463Y-40834486D01*
X148326322Y-40963046D02*
X147884965Y-40908727D01*
X161217915Y-94052979D02*
X161212565Y-94126814D01*
X114727206Y-52570520D02*
X114720634Y-52787057D01*
X138207232Y-61440199D02*
X138207232Y-61440199D01*
X127503856Y-75012799D02*
X127672474Y-74709869D01*
X161608117Y-111147550D02*
X161592765Y-110489032D01*
X120870194Y-81777435D02*
X120921673Y-81978239D01*
X121352598Y-82090332D02*
X121298486Y-81926599D01*
X122566884Y-83690718D02*
X122445628Y-83597079D01*
X167671611Y-61603533D02*
X167724446Y-62375549D01*
X117103569Y-56116445D02*
X116958543Y-56038990D01*
X114179061Y-70207092D02*
X114240156Y-70356846D01*
X140511166Y-57968891D02*
X140539052Y-57920258D01*
X135257239Y-60253787D02*
X134951789Y-60235829D01*
X145184025Y-40790815D02*
X145184025Y-40790815D01*
X136012209Y-80214482D02*
X135951653Y-80247256D01*
X167593895Y-60704709D02*
X167644088Y-61151896D01*
X133930199Y-93786243D02*
X134056278Y-93584786D01*
X160495818Y-41619673D02*
X160103576Y-41620312D01*
X140624475Y-57682495D02*
X140625989Y-57659536D01*
X120443340Y-72546821D02*
X122997885Y-72556387D01*
X116838852Y-72040655D02*
X116686900Y-72005609D01*
X161535149Y-112444434D02*
X161560413Y-112285462D01*
X133396371Y-94109425D02*
X133334963Y-94339645D01*
X133812929Y-113631403D02*
X133941244Y-113806141D01*
X160128628Y-92272774D02*
X160159604Y-92293912D01*
X115125621Y-52594718D02*
X115138734Y-52348127D01*
X116244577Y-65636580D02*
X117100318Y-65131490D01*
X115245758Y-65875763D02*
X115135495Y-65967859D01*
X114128825Y-67488397D02*
X114085170Y-67623488D01*
X146876463Y-40834486D02*
X146594657Y-40819561D01*
X147439395Y-40875226D02*
X147439395Y-40875226D01*
X122303859Y-83986482D02*
X122480783Y-84103009D01*
X124980959Y-61473899D02*
X123730624Y-61844783D01*
X116285763Y-49613288D02*
X116108282Y-49746173D01*
X121484717Y-82408392D02*
X121414680Y-82251069D01*
X138143966Y-60936224D02*
X138143966Y-60936224D01*
X136776021Y-91031474D02*
X136776021Y-91031474D01*
X114974313Y-54273071D02*
X115053388Y-54473922D01*
X151286966Y-41845078D02*
X150878731Y-41672067D01*
X140564268Y-57871841D02*
X140586114Y-57823748D01*
X166936816Y-48508778D02*
X166932800Y-48913488D01*
X161124779Y-93325173D02*
X161145989Y-93395316D01*
X147533492Y-41260242D02*
X148013940Y-41323625D01*
X137121295Y-60571836D02*
X137034465Y-60541746D01*
X150047028Y-41369191D02*
X149623820Y-41241255D01*
X166346970Y-52094809D02*
X166212023Y-52477537D01*
X133222385Y-95535308D02*
X133224013Y-95779458D01*
X127854109Y-88204282D02*
X128043896Y-88207373D01*
X115370801Y-51410118D02*
X115469692Y-51190547D01*
X128127704Y-72475908D02*
X127410828Y-72390498D01*
X114515319Y-67550235D02*
X114606432Y-67329257D01*
X119257609Y-47763624D02*
X118245917Y-48345972D01*
X114465149Y-70783359D02*
X114553181Y-70917460D01*
X133806649Y-93266651D02*
X133696304Y-93446601D01*
X167157968Y-57772689D02*
X167005511Y-57432578D01*
X135419015Y-80559032D02*
X135419015Y-80559032D01*
X113956196Y-69316325D02*
X113979183Y-69457530D01*
X139295508Y-59967398D02*
X139772764Y-59179283D01*
X156355802Y-42741770D02*
X156678229Y-42623000D01*
X129902694Y-87221345D02*
X129770547Y-87301211D01*
X122480783Y-84103009D02*
X122577039Y-84164505D01*
X125784999Y-87406439D02*
X125936759Y-87519169D01*
X166354084Y-45525579D02*
X166485001Y-45843175D01*
X166674516Y-50921447D02*
X166578716Y-51316237D01*
X136756464Y-91153668D02*
X136760574Y-91110729D01*
X127421100Y-74406768D02*
X127352413Y-74511393D01*
X135916507Y-92235403D02*
X136032995Y-92212100D01*
X133817059Y-93994859D02*
X133930199Y-93786243D01*
X120411636Y-47593626D02*
X121533785Y-47021961D01*
X156517271Y-42269523D02*
X156086438Y-42428482D01*
X161204521Y-94200366D02*
X161232504Y-98721181D01*
X116547534Y-55767189D02*
X116419238Y-55664321D01*
X116926168Y-49602557D02*
X117136161Y-49479665D01*
X165655144Y-54821054D02*
X165663329Y-54777624D01*
X135080803Y-114761141D02*
X135177138Y-114806080D01*
X153704857Y-43696647D02*
X153742359Y-43717409D01*
X167766161Y-63919612D02*
X167757307Y-64691325D01*
X160159604Y-92293912D02*
X160159604Y-92293912D01*
X127265539Y-87727309D02*
X127117566Y-87689318D01*
X166220180Y-76881097D02*
X166576523Y-75478568D01*
X116031648Y-65751006D02*
X116244577Y-65636580D01*
X161204521Y-94200366D02*
X161204521Y-94200366D01*
X136064047Y-80902024D02*
X136080608Y-80938524D01*
X128198272Y-73803529D02*
X128371011Y-73500413D01*
X165259793Y-43331376D02*
X165004752Y-43106602D01*
X115243685Y-54861052D02*
X115354911Y-55046135D01*
X140481306Y-58017631D02*
X140511166Y-57968891D01*
X135316670Y-114434067D02*
X135224302Y-114390846D01*
X114739589Y-53219939D02*
X114765120Y-53435086D01*
X156937100Y-114661807D02*
X156029359Y-114678211D01*
X127867832Y-87802935D02*
X127716210Y-87795189D01*
X118043613Y-56424679D02*
X118043613Y-56424679D01*
X116285763Y-49613288D02*
X116285763Y-49613288D01*
X133696304Y-93446601D02*
X133696304Y-93446601D01*
X133845047Y-81582121D02*
X133792842Y-81638945D01*
X121453564Y-79396023D02*
X121529044Y-79241334D01*
X127716210Y-87795189D02*
X127565117Y-87780099D01*
X149901476Y-41743908D02*
X150361079Y-41892462D01*
X150878731Y-41672067D02*
X150465375Y-41513117D01*
X128142656Y-72879023D02*
X128162401Y-72891041D01*
X159247566Y-92120164D02*
X159258371Y-92136664D01*
X126814199Y-75444793D02*
X127503856Y-75012799D01*
X167359580Y-69306632D02*
X167122911Y-70835359D01*
X165703170Y-55172152D02*
X165703170Y-55172152D01*
X166001490Y-54049003D02*
X166038916Y-53963924D01*
X147884965Y-40908727D02*
X147439395Y-40875226D01*
X166756267Y-50523688D02*
X166674516Y-50921447D01*
X133669094Y-57166683D02*
X135732604Y-57369874D01*
X136767916Y-85577253D02*
X136717038Y-84214649D01*
X147439395Y-40875226D02*
X147158057Y-40852970D01*
X132072186Y-42699533D02*
X130792634Y-43059754D01*
X114381736Y-68009537D02*
X114440190Y-67777274D01*
X153621561Y-43124317D02*
X153246779Y-42887227D01*
X140356064Y-58211493D02*
X140481306Y-58017631D01*
X113928412Y-68461440D02*
X113920068Y-68603869D01*
X134100597Y-113374985D02*
X133995859Y-113199795D01*
X115500492Y-54513902D02*
X115428383Y-54365955D01*
X123736708Y-84611236D02*
X123958886Y-84659287D01*
X132822275Y-83179203D02*
X132166560Y-84264213D01*
X143855256Y-40829444D02*
X142528920Y-40904337D01*
X123452824Y-45709076D02*
X122387094Y-46187248D01*
X136164343Y-80153070D02*
X136133844Y-80162489D01*
X117136161Y-49479665D02*
X118211966Y-48822065D01*
X130031530Y-87136308D02*
X129902694Y-87221345D01*
X130278248Y-86951297D02*
X130156800Y-87046244D01*
X137632184Y-60787033D02*
X137463032Y-60714058D01*
X126119638Y-75870046D02*
X126814199Y-75444793D01*
X159077747Y-114498996D02*
X158970509Y-114528880D01*
X136392813Y-92174831D02*
X136450909Y-92181377D01*
X158861198Y-114554300D02*
X158749832Y-114575124D01*
X135747708Y-80841129D02*
X135860296Y-80800998D01*
X166911355Y-45887169D02*
X166789342Y-45567626D01*
X133369085Y-42766991D02*
X135825465Y-42213394D01*
X148491706Y-41403324D02*
X148966046Y-41499698D01*
X128203868Y-72972457D02*
X128202406Y-72992326D01*
X134339006Y-60218430D02*
X131885930Y-60244254D01*
X136784444Y-91693089D02*
X136777730Y-91593522D01*
X121386297Y-79554419D02*
X121453564Y-79396023D01*
X124728727Y-76718765D02*
X126119638Y-75870046D01*
X159737138Y-92194588D02*
X159834094Y-92199658D01*
X133903718Y-113018316D02*
X133824800Y-112831515D01*
X152128073Y-42671377D02*
X152548251Y-42914075D01*
X117136161Y-49479665D02*
X117136161Y-49479665D01*
X136347860Y-80136600D02*
X136317228Y-80133930D01*
X162764863Y-42328146D02*
X162997134Y-42414057D01*
X135313651Y-81052502D02*
X135420201Y-80993536D01*
X133225995Y-95292089D02*
X133222385Y-95535308D01*
X128182867Y-73057353D02*
X128172111Y-73080513D01*
X140255003Y-58398399D02*
X140255003Y-58398399D01*
X115170614Y-52105803D02*
X115220456Y-51868315D01*
X162291917Y-42197656D02*
X162529688Y-42256420D01*
X119751301Y-63776402D02*
X120660033Y-63377430D01*
X122329552Y-83493800D02*
X122329552Y-83493800D01*
X131602225Y-57031862D02*
X133669094Y-57166683D01*
X159972916Y-92217701D02*
X160015804Y-92227597D01*
X155660411Y-42600400D02*
X155238487Y-42782829D01*
X125004966Y-85924337D02*
X124904298Y-85720181D01*
X135801852Y-92263890D02*
X135916507Y-92235403D01*
X166547801Y-73870238D02*
X165985901Y-76234037D01*
X135419015Y-80559032D02*
X134327335Y-81193373D01*
X114230911Y-67223865D02*
X114177414Y-67355125D01*
X124876061Y-86441559D02*
X124987575Y-86595877D01*
X121233628Y-80047657D02*
X121276344Y-79880655D01*
X138527482Y-57299722D02*
X137472994Y-57164289D01*
X160159604Y-92293912D02*
X160231907Y-92321169D01*
X115907044Y-55715935D02*
X115907044Y-55715935D01*
X115277555Y-66344507D02*
X115450052Y-66177433D01*
X138917749Y-59853540D02*
X138671241Y-60223856D01*
D11*
G36*
X150527220Y-108274530D02*
G01*
X150563560Y-108277467D01*
X150599037Y-108282296D01*
X150633635Y-108288958D01*
X150667335Y-108297400D01*
X150700120Y-108307565D01*
X150731972Y-108319397D01*
X150762873Y-108332840D01*
X150792806Y-108347840D01*
X150821754Y-108364340D01*
X150849697Y-108382283D01*
X150876619Y-108401616D01*
X150902502Y-108422281D01*
X150927328Y-108444223D01*
X150951080Y-108467387D01*
X150973740Y-108491716D01*
X150995290Y-108517155D01*
X151015713Y-108543647D01*
X151034991Y-108571138D01*
X151053106Y-108599572D01*
X151070040Y-108628892D01*
X151085776Y-108659043D01*
X151100297Y-108689969D01*
X151113584Y-108721615D01*
X151125620Y-108753924D01*
X151136387Y-108786842D01*
X151145867Y-108820311D01*
X151154044Y-108854277D01*
X151160898Y-108888684D01*
X151166413Y-108923475D01*
X151170571Y-108958595D01*
X151173354Y-108993989D01*
X149777011Y-108993989D01*
X149779182Y-108956635D01*
X149782895Y-108919804D01*
X149788127Y-108883538D01*
X149794851Y-108847881D01*
X149803044Y-108812878D01*
X149812682Y-108778570D01*
X149823740Y-108745002D01*
X149836193Y-108712217D01*
X149850017Y-108680260D01*
X149865187Y-108649172D01*
X149881680Y-108618999D01*
X149899470Y-108589783D01*
X149918533Y-108561567D01*
X149938844Y-108534397D01*
X149960380Y-108508314D01*
X149983115Y-108483362D01*
X150007025Y-108459586D01*
X150032086Y-108437028D01*
X150058272Y-108415733D01*
X150085561Y-108395742D01*
X150113927Y-108377101D01*
X150143345Y-108359853D01*
X150173791Y-108344041D01*
X150205241Y-108329708D01*
X150237670Y-108316899D01*
X150271054Y-108305656D01*
X150305368Y-108296023D01*
X150340588Y-108288045D01*
X150376689Y-108281763D01*
X150413647Y-108277223D01*
X150451438Y-108274466D01*
X150490035Y-108273538D01*
X150527220Y-108274530D01*
G37*
D10*
X161204893Y-112284091D02*
X161204893Y-112284091D01*
X131248539Y-86481289D02*
X131379785Y-86276776D01*
X121330868Y-46687143D02*
X120286816Y-47211641D01*
X115639848Y-50200758D02*
X115505046Y-50368934D01*
X163756905Y-83176721D02*
X163302127Y-84303959D01*
X115865628Y-72078253D02*
X116009444Y-72151420D01*
X135904619Y-114610458D02*
X135904619Y-114610458D01*
X131497279Y-86062009D02*
X131497279Y-86062009D01*
X128258041Y-61105754D02*
X129235987Y-60933793D01*
X160555930Y-92504117D02*
X160613189Y-92549211D01*
X125374232Y-86496184D02*
X125240037Y-86313222D01*
X166212023Y-52477537D02*
X166065027Y-52855193D01*
X113926066Y-69032050D02*
X113938500Y-69174434D01*
X122675293Y-84221857D02*
X122775402Y-84275264D01*
X165959293Y-54134128D02*
X166001490Y-54049003D01*
X131201273Y-60662327D02*
X131201273Y-60662327D01*
X166651126Y-45254681D02*
X166497063Y-44949316D01*
X139578691Y-57456086D02*
X138527482Y-57299722D01*
X161032245Y-112687335D02*
X160930604Y-112883303D01*
X133895463Y-82204759D02*
X134258624Y-81673595D01*
X115838005Y-71632580D02*
X115709082Y-71545953D01*
X135708413Y-60692081D02*
X136348267Y-60763243D01*
X131009987Y-60304887D02*
X130137665Y-60400768D01*
X121328337Y-82925115D02*
X121439072Y-83099052D01*
X159457342Y-114789092D02*
X159678346Y-114676189D01*
X115464014Y-71354310D02*
X115348319Y-71249866D01*
X132488781Y-60629621D02*
X133133664Y-60617143D01*
X115053388Y-54473922D02*
X115143178Y-54670115D01*
X114367776Y-69507839D02*
X114340456Y-69354288D01*
X124815012Y-85510726D02*
X124737214Y-85296856D01*
X160747144Y-92176823D02*
X160630344Y-92093595D01*
X129584106Y-87834380D02*
X129802133Y-87729269D01*
X161560413Y-112285462D02*
X161579726Y-112125332D01*
X128922479Y-87663686D02*
X128774325Y-87703294D01*
X114041135Y-69737112D02*
X114079290Y-69897079D01*
X136396874Y-91720958D02*
X136396874Y-91720958D01*
X116994938Y-56487713D02*
X117199063Y-56575141D01*
X136829319Y-60882712D02*
X136946998Y-60920899D01*
X128537899Y-73195887D02*
X128696182Y-72889404D01*
X133609088Y-98932978D02*
X133631639Y-94428630D01*
X158995315Y-114973466D02*
X159229430Y-114888356D01*
X114772438Y-52140252D02*
X114744474Y-52354719D01*
X165856551Y-44625698D02*
X166039321Y-44915798D01*
X121593509Y-78452790D02*
X121464450Y-78617735D01*
X161277041Y-41665746D02*
X160887219Y-41634580D01*
X161065480Y-92466075D02*
X160964878Y-92363447D01*
X136591053Y-60815637D02*
X136710703Y-60847510D01*
X166205344Y-45216106D02*
X166354084Y-45525579D01*
X166298739Y-56907787D02*
X166504764Y-57307421D01*
X136767000Y-91069913D02*
X136776021Y-91031474D01*
X113920068Y-68603869D02*
X113916877Y-68746575D01*
X121913412Y-78668025D02*
X122030191Y-78538154D01*
X120983189Y-82175998D02*
X121054678Y-82370137D01*
X134958208Y-92659869D02*
X135055913Y-92595470D01*
X136711886Y-92093648D02*
X136731697Y-92065100D01*
X158327985Y-42175221D02*
X158665487Y-42121574D01*
X135155959Y-92535020D02*
X135258284Y-92478673D01*
X155238487Y-42782829D02*
X154819965Y-42973322D01*
X161145989Y-93395316D02*
X161164574Y-93466361D01*
X160292864Y-114260776D02*
X160479191Y-114098450D01*
X167005511Y-57432578D02*
X166843436Y-57096635D01*
X128019726Y-87803481D02*
X127867832Y-87802935D01*
X115304611Y-54061151D02*
X115253359Y-53904821D01*
X163546832Y-42646085D02*
X163856104Y-42797422D01*
X133133664Y-60617143D02*
X133778596Y-60612908D01*
X138413964Y-60585409D02*
X138280677Y-60762282D01*
X167976595Y-67404496D02*
X168055365Y-66439113D01*
X165701673Y-54647839D02*
X165736589Y-54561691D01*
X134791268Y-114122755D02*
X134632960Y-113993515D01*
X133334963Y-94339645D02*
X133289328Y-94573578D01*
X133544154Y-82746873D02*
X133895463Y-82204759D01*
X136550099Y-92178884D02*
X136591750Y-92170355D01*
X118501145Y-56866144D02*
X118724941Y-56877118D01*
X139612186Y-58709780D02*
X139386269Y-59094526D01*
X114383461Y-70645126D02*
X114465149Y-70783359D01*
X121733770Y-78295110D02*
X121733770Y-78295110D01*
X160887219Y-41634580D02*
X160495818Y-41619673D01*
X136503245Y-92182643D02*
X136550099Y-92178884D01*
X160115376Y-113913403D02*
X159946617Y-114050939D01*
X140057095Y-57939688D02*
X139612186Y-58709780D01*
X124671007Y-85079453D02*
X124616494Y-84859401D01*
D11*
G36*
X153342178Y-108274530D02*
G01*
X153378518Y-108277467D01*
X153413996Y-108282296D01*
X153448595Y-108288958D01*
X153482295Y-108297400D01*
X153515080Y-108307565D01*
X153546932Y-108319397D01*
X153577834Y-108332840D01*
X153607767Y-108347840D01*
X153636714Y-108364340D01*
X153664658Y-108382283D01*
X153691580Y-108401616D01*
X153717463Y-108422281D01*
X153742289Y-108444223D01*
X153766041Y-108467387D01*
X153788701Y-108491716D01*
X153810251Y-108517155D01*
X153830674Y-108543647D01*
X153849951Y-108571138D01*
X153868066Y-108599572D01*
X153885000Y-108628892D01*
X153900736Y-108659043D01*
X153915257Y-108689969D01*
X153928544Y-108721615D01*
X153940579Y-108753924D01*
X153951346Y-108786842D01*
X153960826Y-108820311D01*
X153969002Y-108854277D01*
X153975857Y-108888684D01*
X153981371Y-108923475D01*
X153985529Y-108958595D01*
X153988311Y-108993989D01*
X152591969Y-108993989D01*
X152594140Y-108956635D01*
X152597853Y-108919804D01*
X152603084Y-108883538D01*
X152609809Y-108847881D01*
X152618002Y-108812878D01*
X152627640Y-108778570D01*
X152638698Y-108745002D01*
X152651151Y-108712217D01*
X152664975Y-108680260D01*
X152680145Y-108649172D01*
X152696638Y-108618999D01*
X152714428Y-108589783D01*
X152733491Y-108561567D01*
X152753803Y-108534397D01*
X152775338Y-108508314D01*
X152798074Y-108483362D01*
X152821984Y-108459586D01*
X152847044Y-108437028D01*
X152873231Y-108415733D01*
X152900520Y-108395742D01*
X152928885Y-108377101D01*
X152958304Y-108359853D01*
X152988750Y-108344041D01*
X153020200Y-108329708D01*
X153052629Y-108316899D01*
X153086013Y-108305656D01*
X153120327Y-108296023D01*
X153155547Y-108288045D01*
X153191648Y-108281763D01*
X153228605Y-108277223D01*
X153266395Y-108274466D01*
X153304993Y-108273538D01*
X153342178Y-108274530D01*
G37*
D10*
X137034465Y-60541746D02*
X136946844Y-60515451D01*
X127021179Y-74875149D02*
X126971433Y-74912511D01*
X136628475Y-92157312D02*
X136660554Y-92140009D01*
X133234559Y-96268324D02*
X133240778Y-96754235D01*
X134893763Y-114660451D02*
X135080803Y-114761141D01*
X123960094Y-84264044D02*
X123666555Y-84183959D01*
X117970589Y-64653231D02*
X118854535Y-64201602D01*
X128130505Y-73153083D02*
X128097408Y-73203069D01*
X133792842Y-81638945D02*
X133742887Y-81698031D01*
X135825465Y-42213394D02*
X135825465Y-42213394D01*
X167143386Y-50557090D02*
X167220131Y-50075726D01*
X154781089Y-43429111D02*
X155403505Y-43139302D01*
X167300196Y-58116906D02*
X167157968Y-57772689D01*
X116108282Y-49746173D02*
X115941468Y-49888779D01*
X121298486Y-81926599D02*
X121252358Y-81760291D01*
X167322331Y-48621305D02*
X167310993Y-48135805D01*
X161610859Y-111475850D02*
X161608117Y-111147550D01*
X128900111Y-88078071D02*
X129132273Y-88008939D01*
X115112229Y-52761802D02*
X115125621Y-52594718D01*
X126826532Y-87589422D02*
X126683982Y-87527227D01*
X114046478Y-67760205D02*
X114012776Y-67898355D01*
X137909710Y-57606592D02*
X138453576Y-57671785D01*
X130617098Y-86638612D02*
X130508653Y-86747336D01*
X159229430Y-114888356D02*
X159457342Y-114789092D01*
X160667918Y-92596863D02*
X160720108Y-92646955D01*
X122071134Y-83257175D02*
X121953689Y-83129133D01*
X152548251Y-42914075D02*
X152958314Y-43176678D01*
X117891109Y-72517929D02*
X119166558Y-72540142D01*
X137472994Y-57164289D02*
X136415975Y-57046388D01*
X115827790Y-65879848D02*
X116031648Y-65751006D01*
X130414799Y-87344507D02*
X130602475Y-87193637D01*
X115583321Y-50978085D02*
X115710880Y-50773301D01*
X134685063Y-81439363D02*
X135103040Y-81178166D01*
X128664882Y-88134894D02*
X128900111Y-88078071D01*
X159319512Y-41665383D02*
X158929162Y-41708389D01*
X160250209Y-91888851D02*
X160114139Y-91836863D01*
X116817391Y-55954787D02*
X116680320Y-55864099D01*
X153667486Y-43673740D02*
X153704857Y-43696647D01*
X135208310Y-92081059D02*
X135023975Y-92174400D01*
X115267469Y-50726661D02*
X115164698Y-50915015D01*
X115469692Y-51190547D02*
X115583321Y-50978085D01*
X149436217Y-41613107D02*
X149901476Y-41743908D01*
X161045462Y-93121337D02*
X161074509Y-93188065D01*
X129356804Y-87508328D02*
X129213975Y-87566058D01*
X135685810Y-114971713D02*
X135685810Y-114971713D01*
X136794962Y-86941026D02*
X136767916Y-85577253D01*
X120828818Y-81574158D02*
X120870194Y-81777435D01*
X115111637Y-53094440D02*
X115107636Y-52928464D01*
X113938500Y-69174434D02*
X113956196Y-69316325D01*
X160648203Y-89765317D02*
X160038713Y-90817163D01*
X165442927Y-44080288D02*
X165657574Y-44346847D01*
X161513765Y-88989844D02*
X162172360Y-87701679D01*
X119304076Y-48193523D02*
X120411636Y-47593626D01*
X121828915Y-83579673D02*
X121977861Y-83724241D01*
X152958314Y-43176678D02*
X152958314Y-43176678D01*
X121143838Y-79150429D02*
X121058940Y-79338704D01*
X122387094Y-46187248D02*
X121330868Y-46687143D01*
X136747974Y-92033314D02*
X136760998Y-91998545D01*
X126935732Y-88030756D02*
X127114427Y-88085416D01*
X114440190Y-67777274D02*
X114515319Y-67550235D01*
X136638038Y-82854003D02*
X136526623Y-81496103D01*
X121612754Y-79090771D02*
X121704709Y-78944753D01*
X114310016Y-69043385D02*
X114307344Y-68886605D01*
X136688265Y-92118703D02*
X136711886Y-92093648D01*
X115135495Y-65967859D02*
X115029813Y-66064277D01*
X134484112Y-113853151D02*
X134345351Y-113702630D01*
X116023664Y-65343374D02*
X115479916Y-65705313D01*
X116176938Y-55441765D02*
X116063344Y-55322605D01*
X133778596Y-60612908D02*
X134423050Y-60621156D01*
X119166558Y-72540142D02*
X120443340Y-72546821D01*
X129635346Y-87375760D02*
X129497346Y-87444847D01*
X165669254Y-55083705D02*
X165658307Y-55039661D01*
X147051104Y-41212818D02*
X147533492Y-41260242D01*
D11*
G36*
X151592006Y-112511744D02*
G01*
X151574697Y-112512613D01*
X151589460Y-112511733D01*
X151592006Y-112511744D01*
G37*
D10*
X136409396Y-86894940D02*
X136421288Y-89308096D01*
X165362901Y-54473404D02*
X165110630Y-55004724D01*
X126919432Y-74947678D02*
X126865056Y-74980531D01*
X168105810Y-62566120D02*
X168047207Y-61599719D01*
X136754390Y-91198474D02*
X136756464Y-91153668D01*
X127548268Y-74187706D02*
X127486063Y-74298557D01*
X159317616Y-91946579D02*
X159287854Y-91985762D01*
X165647369Y-54951909D02*
X165646951Y-54908192D01*
X115851565Y-50576764D02*
X116004570Y-50389042D01*
X136317228Y-80133930D02*
X136286610Y-80133599D01*
X127788755Y-73736792D02*
X127668251Y-73961862D01*
X161160352Y-92574402D02*
X161065480Y-92466075D01*
X136378503Y-80141737D02*
X136378503Y-80141737D01*
X127668251Y-73961862D02*
X127548268Y-74187706D01*
X133927789Y-93096385D02*
X133806649Y-93266651D01*
X161013817Y-93055984D02*
X161045462Y-93121337D01*
X133824800Y-112831515D02*
X133759733Y-112640359D01*
X134507050Y-93035703D02*
X134679786Y-92875218D01*
X136768761Y-60477462D02*
X136469080Y-60411433D01*
X140625878Y-57636780D02*
X140625878Y-57636780D01*
X126543753Y-87456674D02*
X126406099Y-87377619D01*
X119172460Y-56868247D02*
X119172460Y-56868247D01*
X136151251Y-92194134D02*
X136271212Y-92181659D01*
X134217303Y-113542919D02*
X134100597Y-113374985D01*
X160667441Y-90551360D02*
X160722095Y-90455473D01*
X116244577Y-65636580D02*
X116244577Y-65636580D01*
X134258624Y-81673595D02*
X134258624Y-81673595D01*
X121414680Y-82251069D02*
X121352598Y-82090332D01*
X118278196Y-56844699D02*
X118501145Y-56866144D01*
X161599931Y-109834890D02*
X161599931Y-109834890D01*
X166796561Y-51979307D02*
X166930783Y-51509705D01*
X140010937Y-58785982D02*
X140255003Y-58398399D01*
X127333377Y-44572619D02*
X128525060Y-44161651D01*
X115755249Y-54936760D02*
X115664130Y-54799568D01*
X160820591Y-90260486D02*
X160820591Y-90260486D01*
X160903358Y-92869358D02*
X160942758Y-92929876D01*
X164438399Y-43157813D02*
X164710346Y-43364783D01*
X166875627Y-49721368D02*
X166823471Y-50123486D01*
X136103378Y-80173469D02*
X136072948Y-80185881D01*
X159678346Y-114676189D02*
X159891737Y-114550159D01*
X167187848Y-58963795D02*
X167318009Y-59391515D01*
X136107815Y-81014465D02*
X136118727Y-81053767D01*
X120195744Y-72152148D02*
X118750809Y-72136046D01*
X128323308Y-87783556D02*
X128171637Y-87796973D01*
X166038916Y-53963924D02*
X166069862Y-53878855D01*
X114352520Y-66968149D02*
X114289289Y-67094808D01*
X160250240Y-91210508D02*
X160368521Y-91022413D01*
X165831048Y-78274772D02*
X166220180Y-76881097D01*
X124426470Y-85607760D02*
X124501086Y-85781693D01*
X150361079Y-41892462D02*
X150814283Y-42059127D01*
X134951789Y-60235829D02*
X134339006Y-60218430D01*
X133359149Y-42367365D02*
X132072186Y-42699533D01*
X116611645Y-72382394D02*
X116767625Y-72423986D01*
X165736589Y-54561691D02*
X165776993Y-54475802D01*
X122318946Y-77843433D02*
X122023868Y-78065806D01*
X117252265Y-56186886D02*
X117103569Y-56116445D01*
X157330596Y-42411805D02*
X157660544Y-42321293D01*
X114041135Y-69737112D02*
X114041135Y-69737112D01*
X152866097Y-42658402D02*
X152479645Y-42438810D01*
X135275311Y-114847249D02*
X135375294Y-114884521D01*
X164456014Y-42704373D02*
X164163029Y-42528884D01*
X158155509Y-41831783D02*
X157773678Y-41910745D01*
X165335508Y-78577210D02*
X164593537Y-80893517D01*
X126686470Y-75064031D02*
X126062129Y-75459508D01*
X128202406Y-72992326D02*
X128198257Y-73013163D01*
X159384393Y-92182372D02*
X159460825Y-92188610D01*
X130792634Y-43059754D02*
X129521045Y-43447118D01*
X153817825Y-43751456D02*
X153855825Y-43764222D01*
X116723659Y-49737676D02*
X116926168Y-49602557D01*
X118867886Y-63748337D02*
X118284000Y-64040037D01*
X115325117Y-71728255D02*
X115454510Y-71824063D01*
X117729048Y-72526656D02*
X117891109Y-72517929D01*
X121559456Y-83266505D02*
X121689426Y-83426903D01*
X126683982Y-87527227D02*
X126543753Y-87456674D01*
X138671241Y-60223856D02*
X138413964Y-60585409D01*
X128427407Y-88179249D02*
X128664882Y-88134894D01*
X125230022Y-86889380D02*
X125360414Y-87027893D01*
X158665487Y-42121574D02*
X159005513Y-42082127D01*
X116529438Y-49884452D02*
X116723659Y-49737676D01*
X134366866Y-81620197D02*
X134473861Y-81562858D01*
X159321209Y-92170349D02*
X159350942Y-92177221D01*
X122196427Y-83378870D02*
X122071134Y-83257175D01*
X134349543Y-92643540D02*
X134199879Y-92784844D01*
X122980628Y-84371038D02*
X123085462Y-84413803D01*
X116305679Y-72279537D02*
X116457576Y-72334196D01*
X127917484Y-73520054D02*
X127917484Y-73520054D01*
X145184025Y-40790815D02*
X145184025Y-40790815D01*
X166823471Y-50123486D02*
X166756267Y-50523688D01*
X136163602Y-81742965D02*
X136167176Y-81829131D01*
X166504764Y-57307421D02*
X166697759Y-57713005D01*
X166039321Y-44915798D02*
X166205344Y-45216106D01*
X116107513Y-71786017D02*
X115970890Y-71712697D01*
X121529044Y-79241334D02*
X121612754Y-79090771D01*
X167677995Y-69799191D02*
X167873382Y-68366848D01*
X127461410Y-56910868D02*
X129532747Y-56951295D01*
X133531610Y-82031943D02*
X133498007Y-82107331D01*
X124583625Y-85952376D02*
X124673815Y-86119472D01*
X160368521Y-91022413D02*
X160490379Y-90834901D01*
X121263424Y-62706250D02*
X120054669Y-63203140D01*
X125842211Y-86988558D02*
X125757478Y-86913026D01*
X114847175Y-70652869D02*
X114763980Y-70520515D01*
X127114387Y-74794311D02*
X127068790Y-74835710D01*
X123356964Y-77595839D02*
X124038837Y-77151452D01*
X133574935Y-93662346D02*
X133522667Y-93772271D01*
X117879645Y-56393255D02*
X117718321Y-56353500D01*
X135055913Y-92595470D02*
X135155959Y-92535020D01*
X159350942Y-92177221D02*
X159384393Y-92182372D01*
X161232504Y-98721181D02*
X161229496Y-103242139D01*
X146312684Y-40807980D02*
X145748419Y-40793994D01*
X127295885Y-88130435D02*
X127479832Y-88165477D01*
X140625989Y-57659536D02*
X140625878Y-57636780D01*
X136072948Y-80185881D02*
X136012209Y-80214482D01*
X114313336Y-68729320D02*
X114313336Y-68729320D01*
X137295378Y-61049957D02*
X137524716Y-61144653D01*
X161593759Y-111964176D02*
X161603180Y-111802124D01*
X115138734Y-52348127D02*
X115170614Y-52105803D01*
X160194215Y-91305253D02*
X160250240Y-91210508D01*
X124531752Y-72200341D02*
X123087475Y-72168483D01*
X133568278Y-81959596D02*
X133531610Y-82031943D01*
X133259661Y-104955979D02*
X133315622Y-112679118D01*
X133236998Y-96994692D02*
X133225815Y-97232742D01*
X124038837Y-77151452D02*
X124728727Y-76718765D01*
X131885930Y-60244254D02*
X131447508Y-60269894D01*
X133522667Y-93772271D02*
X133475660Y-93883473D01*
X160333175Y-42047232D02*
X160827984Y-42048693D01*
X115941468Y-49888779D02*
X115785322Y-50040507D01*
X121142034Y-80904763D02*
X121144139Y-80731792D01*
X167757307Y-64691325D02*
X167730155Y-65462603D01*
X124212664Y-84886251D02*
X124252873Y-85069822D01*
X167958097Y-60635941D02*
X167958097Y-60635941D01*
X167129315Y-46688768D02*
X167016809Y-46212327D01*
X161535149Y-112444434D02*
X161535149Y-112444434D01*
X115124025Y-53259469D02*
X115111637Y-53094440D01*
X115633694Y-66022269D02*
X115827790Y-65879848D01*
X122023868Y-78065806D02*
X121733770Y-78295110D01*
X116009444Y-72151420D02*
X116156215Y-72218563D01*
X162805824Y-41967247D02*
X162429677Y-41863922D01*
X160425280Y-113604835D02*
X160274978Y-113764349D01*
X117149712Y-72084924D02*
X116993197Y-72067189D01*
X161100950Y-93256050D02*
X161124779Y-93325173D01*
X123626223Y-84584378D02*
X123736708Y-84611236D01*
X161074509Y-93188065D02*
X161100950Y-93256050D01*
X164710346Y-43364783D02*
X164968775Y-43588214D01*
X161204893Y-112284091D02*
X161123723Y-112487245D01*
X127565117Y-87780099D02*
X127414808Y-87757521D01*
X166476365Y-52900974D02*
X166644816Y-52443338D01*
X165729444Y-43823327D02*
X165501476Y-43570612D01*
X132166560Y-84264213D02*
X131506865Y-85346049D01*
X126748695Y-75038826D02*
X126686470Y-75064031D01*
X128043896Y-88207373D02*
X128235086Y-88199140D01*
X135133750Y-114343998D02*
X134958407Y-114239905D01*
X114763980Y-70520515D02*
X114686986Y-70384511D01*
X167644088Y-61151896D02*
X167671611Y-61603533D01*
X135636990Y-80887097D02*
X135747708Y-80841129D01*
X129213975Y-87566058D02*
X129069114Y-87617892D01*
X156086438Y-42428482D02*
X155660411Y-42600400D01*
X159265869Y-92020477D02*
X159251253Y-92051001D01*
X165732146Y-53672117D02*
X165611695Y-53940368D01*
X133717369Y-94209400D02*
X133817059Y-93994859D01*
X130508653Y-86747336D02*
X130395617Y-86851613D01*
X133315622Y-112679118D02*
X133395080Y-112876718D01*
X148013940Y-41323625D02*
X148491706Y-41403324D01*
X160103576Y-41620312D02*
X159711229Y-41635786D01*
X128235086Y-88199140D02*
X128427407Y-88179249D01*
X135580572Y-114946879D02*
X135685810Y-114971713D01*
X149195879Y-41130275D02*
X148763337Y-41037217D01*
X130137665Y-60400768D02*
X129268984Y-60527569D01*
X138207232Y-61440199D02*
X138360475Y-61269912D01*
X140275562Y-58352704D02*
X140299723Y-58306249D01*
X126062129Y-75459508D02*
X125431101Y-75846135D01*
X121148007Y-81077670D02*
X121142034Y-80904763D01*
X159485604Y-114337458D02*
X159386839Y-114383879D01*
X121533785Y-47021961D02*
X122669668Y-46478113D01*
X127665997Y-88190204D02*
X127854109Y-88204282D01*
X127672474Y-74709869D02*
X127846251Y-74407711D01*
X135865467Y-60313381D02*
X135561851Y-60279293D01*
X136777730Y-91593522D02*
X136760901Y-91391269D01*
X116686900Y-72005609D02*
X116537567Y-71962336D01*
X115955061Y-55198542D02*
X115852294Y-55069839D01*
X134632960Y-113993515D02*
X134484112Y-113853151D01*
X138570041Y-41337482D02*
X137258968Y-41548310D01*
X124274140Y-72580680D02*
X125548710Y-72632249D01*
X167310993Y-48135805D02*
X167275589Y-47651332D01*
X123958886Y-84659287D02*
X124181736Y-84701112D01*
X133257360Y-94810668D02*
X133236951Y-95050357D01*
X115173147Y-53585624D02*
X115144597Y-53423284D01*
X150814283Y-42059127D02*
X151260346Y-42244262D01*
X143695855Y-114680190D02*
X139799957Y-114662043D01*
X128089778Y-72860028D02*
X128089778Y-72860028D01*
X135362823Y-92426584D02*
X135469514Y-92378907D01*
X159258371Y-92136664D02*
X159274518Y-92150346D01*
X165851878Y-56127041D02*
X166080753Y-56514272D01*
X114420577Y-66844079D02*
X114352520Y-66968149D01*
X158929162Y-41708389D02*
X158540916Y-41764093D01*
X165985901Y-76234037D02*
X165335508Y-78577210D01*
X118724941Y-56877118D02*
X118948931Y-56877768D01*
X127951362Y-73421469D02*
X127940271Y-73443133D01*
X124573779Y-84637581D02*
X124542967Y-84414878D01*
X116417739Y-56155697D02*
X116603622Y-56278141D01*
X135593561Y-80473506D02*
X135534987Y-80506477D01*
X136158942Y-81390874D02*
X136163602Y-81742965D01*
X165651084Y-54995730D02*
X165647369Y-54951909D01*
X131168027Y-85880679D02*
X130819195Y-86408399D01*
X127200020Y-74706110D02*
X127114387Y-74794311D01*
X116576454Y-64996271D02*
X116023664Y-65343374D01*
X135410776Y-114473540D02*
X135316670Y-114434067D01*
X125757478Y-86913026D02*
X125675423Y-86834735D01*
X153855825Y-43764222D02*
X153894027Y-43773802D01*
X129235987Y-60933793D02*
X130217350Y-60786051D01*
X125973290Y-72269076D02*
X124531752Y-72200341D01*
X167275589Y-47651332D02*
X167215303Y-47168711D01*
X166082371Y-53836314D02*
X166092618Y-53793763D01*
X117567074Y-72527758D02*
X117729048Y-72526656D01*
X136760574Y-91110729D02*
X136767000Y-91069913D01*
X125496555Y-87160465D02*
X125638174Y-87286759D01*
X126151139Y-45009335D02*
X127333377Y-44572619D01*
X137524716Y-61144653D02*
X137752623Y-61243083D01*
X114811094Y-51927718D02*
X114772438Y-52140252D01*
X165110630Y-55004724D02*
X165365746Y-55372100D01*
X153259861Y-43354523D02*
X153555972Y-43594746D01*
X140603896Y-57776087D02*
X140611044Y-57752452D01*
X167450814Y-71227498D02*
X167677995Y-69799191D01*
X131201273Y-60662327D02*
X132488781Y-60629621D01*
X159386839Y-114383879D02*
X159285930Y-114426363D01*
X128427407Y-88179249D02*
X128427407Y-88179249D01*
X166092618Y-53793763D02*
X166292027Y-53351391D01*
X114317618Y-68486396D02*
X114340648Y-68246189D01*
X152087552Y-42229414D02*
X151689949Y-42031182D01*
X141205570Y-41014583D02*
X139885760Y-41159268D01*
X153303926Y-114677691D02*
X151487872Y-114684249D01*
X134679786Y-92875218D02*
X134862910Y-92728063D01*
X125596058Y-86753795D02*
X125519395Y-86670316D01*
X159640444Y-92192521D02*
X159737138Y-92194588D01*
X161240284Y-113131028D02*
X161353464Y-112909981D01*
X133941244Y-113806141D02*
X134078640Y-113973303D01*
X124979203Y-45472214D02*
X126151139Y-45009335D01*
X160722095Y-90455473D02*
X160773382Y-90358579D01*
X136192169Y-91757248D02*
X135989251Y-91803008D01*
X124771384Y-86282645D02*
X124876061Y-86441559D01*
X130819195Y-86408399D02*
X130819195Y-86408399D01*
X138057538Y-60923312D02*
X137971718Y-60904547D01*
X161599931Y-93322547D02*
X161542933Y-93188087D01*
X126971145Y-87643404D02*
X126826532Y-87589422D01*
X130217350Y-60786051D02*
X131201273Y-60662327D01*
X153971108Y-43782365D02*
X154010023Y-43780828D01*
X125360414Y-87027893D02*
X125496555Y-87160465D01*
X115380919Y-50544435D02*
X115267469Y-50726661D01*
X166069862Y-53878855D02*
X166082371Y-53836314D01*
X153034712Y-43208011D02*
X153072614Y-43227609D01*
X139386269Y-59094526D02*
X139155441Y-59476438D01*
X135224302Y-114390846D02*
X135133750Y-114343998D01*
X151689949Y-42031182D02*
X151286966Y-41845078D01*
X125638174Y-87286759D02*
X125784999Y-87406439D01*
X164153472Y-42968345D02*
X164438399Y-43157813D01*
X119172460Y-56868247D02*
X127461410Y-56910868D01*
X161204506Y-93683722D02*
X161212520Y-93757190D01*
X134579846Y-81502329D02*
X134685063Y-81439363D01*
X139772764Y-59179283D02*
X140010937Y-58785982D01*
X161113152Y-113343572D02*
X161240284Y-113131028D01*
X160007465Y-91693371D02*
X160047130Y-91594587D01*
X126019655Y-87130902D02*
X125929607Y-87061220D01*
X153990314Y-43368709D02*
X153990314Y-43368709D01*
X135420201Y-80993536D02*
X135527901Y-80938150D01*
X122692847Y-83775478D02*
X122566884Y-83690718D01*
X168134916Y-63534203D02*
X168105810Y-62566120D01*
X159402088Y-91853715D02*
X159355558Y-91902655D01*
X126760069Y-87966792D02*
X126935732Y-88030756D01*
X159295598Y-92161483D02*
X159321209Y-92170349D01*
X133696304Y-93446601D02*
X133632726Y-93553766D01*
X115079366Y-71520897D02*
X115199982Y-71627151D01*
X132177482Y-56682119D02*
X132177482Y-56682119D01*
X115587900Y-71914428D02*
X115725026Y-71999207D01*
X122480783Y-84103009D02*
X122480783Y-84103009D01*
X165365746Y-55372100D02*
X165613185Y-55746261D01*
X136348267Y-60763243D02*
X136470273Y-60787434D01*
X125240037Y-86313222D02*
X125116914Y-86122312D01*
X160566137Y-113435917D02*
X160425280Y-113604835D01*
X160861386Y-92810689D02*
X160903358Y-92869358D01*
X160038713Y-90817163D02*
X159402088Y-91853715D01*
X160141215Y-91400720D02*
X160194215Y-91305253D01*
X125831109Y-61257415D02*
X124980959Y-61473899D01*
X114125352Y-70053787D02*
X114179061Y-70207092D01*
X133156139Y-82640606D02*
X132822275Y-83179203D01*
X139885760Y-41159268D02*
X138570041Y-41337482D01*
X126685008Y-61050212D02*
X125831109Y-61257415D01*
X136421288Y-89308096D02*
X136396874Y-91720958D01*
X163386611Y-85076629D02*
X163942666Y-83741671D01*
X165213147Y-43827063D02*
X165442927Y-44080288D01*
X161180526Y-93538189D02*
X161193839Y-93610682D01*
X161230944Y-88698956D02*
X160648203Y-89765317D01*
X167276082Y-49592090D02*
X167310422Y-49107009D01*
X161123723Y-112487245D02*
X161032245Y-112687335D01*
X128774325Y-87703294D02*
X128624908Y-87736571D01*
X130013806Y-87612481D02*
X130218302Y-87484175D01*
X126093182Y-87624612D02*
X126253995Y-87722432D01*
X136000943Y-80799244D02*
X136024347Y-80832313D01*
X126112341Y-87197493D02*
X126019655Y-87130902D01*
X162172360Y-87701679D02*
X162796576Y-86396952D01*
X121977861Y-83724241D02*
X122136197Y-83860035D01*
X145599735Y-41162701D02*
X145599735Y-41162701D01*
X126587711Y-87893858D02*
X126760069Y-87966792D01*
X166497063Y-44949316D02*
X166327508Y-44652515D01*
X135891305Y-80283167D02*
X135652493Y-80437454D01*
X125353246Y-61768959D02*
X126315815Y-61523136D01*
X165658307Y-55039661D02*
X165651084Y-54995730D01*
X135469514Y-92378907D02*
X135578291Y-92335796D01*
X114085170Y-67623488D02*
X114046478Y-67760205D01*
X115664130Y-54799568D02*
X115579142Y-54658528D01*
X120984921Y-79531380D02*
X120921715Y-79727884D01*
X161599931Y-93322547D02*
X161599931Y-93322547D01*
X165943343Y-44088538D02*
X165729444Y-43823327D01*
X136771046Y-91961049D02*
X136778397Y-91921081D01*
%LPC*%
G36*
X145147352Y-44287152D02*
G01*
X146315418Y-44348365D01*
X147239193Y-44449926D01*
X147574703Y-44514006D01*
X148689807Y-44887781D01*
X149909208Y-45482459D01*
X151096039Y-46226437D01*
X151655048Y-46648671D01*
X152265535Y-47080771D01*
X152781864Y-47249042D01*
X153322993Y-47157095D01*
X154007879Y-46808538D01*
X154146756Y-46724275D01*
X155608151Y-45950874D01*
X157056074Y-45418904D01*
X158449215Y-45126082D01*
X159746265Y-45070125D01*
X160905916Y-45248749D01*
X161886859Y-45659670D01*
X162647783Y-46300604D01*
X163147381Y-47169270D01*
X163166199Y-47222855D01*
X163434176Y-48471426D01*
X163406969Y-49812114D01*
X163078696Y-51278997D01*
X162443474Y-52906155D01*
X162044300Y-53722262D01*
X161677954Y-54464786D01*
X161391078Y-55109440D01*
X161223046Y-55564355D01*
X161195535Y-55702600D01*
X161309791Y-56033879D01*
X161602323Y-56515009D01*
X161839337Y-56829680D01*
X162610179Y-57919093D01*
X163285720Y-59143054D01*
X163798380Y-60365712D01*
X164050210Y-61274068D01*
X164152272Y-62113801D01*
X164203592Y-63246515D01*
X164207240Y-64589924D01*
X164166289Y-66061741D01*
X164083810Y-67579681D01*
X163962874Y-69061460D01*
X163806553Y-70424790D01*
X163677199Y-71267552D01*
X162875588Y-75137418D01*
X161843099Y-78940366D01*
X160604632Y-82601534D01*
X159185088Y-86046061D01*
X157876782Y-88706358D01*
X157171447Y-89986764D01*
X156589442Y-90946752D01*
X156108543Y-91615950D01*
X155706527Y-92023990D01*
X155361170Y-92200502D01*
X155246660Y-92213074D01*
X154784781Y-92089960D01*
X154543092Y-91906920D01*
X154458675Y-91725180D01*
X154396799Y-91384011D01*
X154355676Y-90841442D01*
X154333521Y-90055504D01*
X154328545Y-88984228D01*
X154338961Y-87585643D01*
X154343319Y-87215502D01*
X154328042Y-83170852D01*
X154185744Y-79171041D01*
X153921861Y-75294811D01*
X153541827Y-71620903D01*
X153051080Y-68228057D01*
X153019954Y-68045164D01*
X152796179Y-66851666D01*
X152583278Y-65989785D01*
X152360918Y-65413317D01*
X152108768Y-65076061D01*
X151806495Y-64931815D01*
X151643553Y-64917552D01*
X151335381Y-65018946D01*
X150781654Y-65298313D01*
X150048922Y-65718424D01*
X149203735Y-66242053D01*
X148763255Y-66528746D01*
X147694806Y-67224411D01*
X146901744Y-67712359D01*
X146353110Y-68008189D01*
X146017944Y-68127504D01*
X145865285Y-68085902D01*
X145847992Y-67997775D01*
X145909946Y-67754305D01*
X146063781Y-67271747D01*
X146220908Y-66813074D01*
X146446886Y-65932737D01*
X146567611Y-64953071D01*
X146577962Y-64004597D01*
X146472820Y-63217837D01*
X146373557Y-62921957D01*
X146034855Y-62466059D01*
X145624761Y-62154829D01*
X144953883Y-61956874D01*
X144054298Y-61893384D01*
X143050420Y-61960886D01*
X142066663Y-62155907D01*
X141720876Y-62263820D01*
X141123290Y-62465766D01*
X140672326Y-62603284D01*
X140493522Y-62642925D01*
X140373439Y-62586555D01*
X140384686Y-62393521D01*
X140545514Y-62027933D01*
X140874174Y-61453901D01*
X141388917Y-60635536D01*
X141955983Y-59767114D01*
X142543762Y-58845904D01*
X143028318Y-58028385D01*
X143375728Y-57375763D01*
X143552073Y-56949246D01*
X143567177Y-56859880D01*
X143500243Y-56521955D01*
X143268146Y-56246439D01*
X142823941Y-56012391D01*
X142120681Y-55798872D01*
X141111421Y-55584941D01*
X140439565Y-55464774D01*
X136809983Y-54933913D01*
X132893545Y-54533417D01*
X128761151Y-54268228D01*
X124483700Y-54143288D01*
X121457316Y-54141741D01*
X119908177Y-54155665D01*
X118697762Y-54153405D01*
X117785790Y-54127450D01*
X117131982Y-54070285D01*
X116696056Y-53974397D01*
X116437730Y-53832274D01*
X116316725Y-53636400D01*
X116292760Y-53379264D01*
X116309459Y-53181538D01*
X116464323Y-52821719D01*
X116866264Y-52401834D01*
X117538115Y-51906366D01*
X118502708Y-51319801D01*
X119782877Y-50626622D01*
X120915684Y-50051381D01*
X124441872Y-48459420D01*
X128174060Y-47077269D01*
X132014208Y-45933941D01*
X135864279Y-45058445D01*
X139626233Y-44479793D01*
X139816049Y-44458536D01*
X141069342Y-44351980D01*
X142435119Y-44288322D01*
X143824187Y-44266926D01*
X145147352Y-44287152D01*
G37*
M02*
