G04 #@! TF.GenerationSoftware,KiCad,Pcbnew,(6.0.10-0)*
G04 #@! TF.CreationDate,2023-09-19T21:04:43+02:00*
G04 #@! TF.ProjectId,SwiftLeeds,53776966-744c-4656-9564-732e6b696361,rev?*
G04 #@! TF.SameCoordinates,Original*
G04 #@! TF.FileFunction,Soldermask,Bot*
G04 #@! TF.FilePolarity,Negative*
%FSLAX46Y46*%
G04 Gerber Fmt 4.6, Leading zero omitted, Abs format (unit mm)*
G04 Created by KiCad (PCBNEW (6.0.10-0)) date 2023-09-19 21:04:43*
%MOMM*%
%LPD*%
G01*
G04 APERTURE LIST*
G04 Aperture macros list*
%AMRoundRect*
0 Rectangle with rounded corners*
0 $1 Rounding radius*
0 $2 $3 $4 $5 $6 $7 $8 $9 X,Y pos of 4 corners*
0 Add a 4 corners polygon primitive as box body*
4,1,4,$2,$3,$4,$5,$6,$7,$8,$9,$2,$3,0*
0 Add four circle primitives for the rounded corners*
1,1,$1+$1,$2,$3*
1,1,$1+$1,$4,$5*
1,1,$1+$1,$6,$7*
1,1,$1+$1,$8,$9*
0 Add four rect primitives between the rounded corners*
20,1,$1+$1,$2,$3,$4,$5,0*
20,1,$1+$1,$4,$5,$6,$7,0*
20,1,$1+$1,$6,$7,$8,$9,0*
20,1,$1+$1,$8,$9,$2,$3,0*%
G04 Aperture macros list end*
%ADD10RoundRect,0.250000X-0.132583X0.503814X-0.503814X0.132583X0.132583X-0.503814X0.503814X-0.132583X0*%
%ADD11RoundRect,0.243750X-0.345367X0.385097X-0.512102X-0.073003X0.345367X-0.385097X0.512102X0.073003X0*%
%ADD12RoundRect,0.243750X-0.028093X-0.516516X0.413732X-0.310490X0.028093X0.516516X-0.413732X0.310490X0*%
%ADD13RoundRect,0.243750X-0.243750X-0.456250X0.243750X-0.456250X0.243750X0.456250X-0.243750X0.456250X0*%
%ADD14R,1.270000X5.080000*%
%ADD15C,17.800000*%
%ADD16RoundRect,0.243750X-0.494975X-0.150260X-0.150260X-0.494975X0.494975X0.150260X0.150260X0.494975X0*%
%ADD17RoundRect,0.243750X-0.456250X0.243750X-0.456250X-0.243750X0.456250X-0.243750X0.456250X0.243750X0*%
G04 APERTURE END LIST*
G36*
X145147352Y-44287152D02*
G01*
X146315418Y-44348365D01*
X147239193Y-44449926D01*
X147574703Y-44514006D01*
X148689807Y-44887781D01*
X149909208Y-45482459D01*
X151096039Y-46226437D01*
X151655048Y-46648671D01*
X152265535Y-47080771D01*
X152781864Y-47249042D01*
X153322993Y-47157095D01*
X154007879Y-46808538D01*
X154146756Y-46724275D01*
X155608151Y-45950874D01*
X157056074Y-45418904D01*
X158449215Y-45126082D01*
X159746265Y-45070125D01*
X160905916Y-45248749D01*
X161886859Y-45659670D01*
X162647783Y-46300604D01*
X163147381Y-47169270D01*
X163166199Y-47222855D01*
X163434176Y-48471426D01*
X163406969Y-49812114D01*
X163078696Y-51278997D01*
X162443474Y-52906155D01*
X162044300Y-53722262D01*
X161677954Y-54464786D01*
X161391078Y-55109440D01*
X161223046Y-55564355D01*
X161195535Y-55702600D01*
X161309791Y-56033879D01*
X161602323Y-56515009D01*
X161839337Y-56829680D01*
X162610179Y-57919093D01*
X163285720Y-59143054D01*
X163798380Y-60365712D01*
X164050210Y-61274068D01*
X164152272Y-62113801D01*
X164203592Y-63246515D01*
X164207240Y-64589924D01*
X164166289Y-66061741D01*
X164083810Y-67579681D01*
X163962874Y-69061460D01*
X163806553Y-70424790D01*
X163677199Y-71267552D01*
X162875588Y-75137418D01*
X161843099Y-78940366D01*
X160604632Y-82601534D01*
X159185088Y-86046061D01*
X157876782Y-88706358D01*
X157171447Y-89986764D01*
X156589442Y-90946752D01*
X156108543Y-91615950D01*
X155706527Y-92023990D01*
X155361170Y-92200502D01*
X155246660Y-92213074D01*
X154784781Y-92089960D01*
X154543092Y-91906920D01*
X154458675Y-91725180D01*
X154396799Y-91384011D01*
X154355676Y-90841442D01*
X154333521Y-90055504D01*
X154328545Y-88984228D01*
X154338961Y-87585643D01*
X154343319Y-87215502D01*
X154328042Y-83170852D01*
X154185744Y-79171041D01*
X153921861Y-75294811D01*
X153541827Y-71620903D01*
X153051080Y-68228057D01*
X153019954Y-68045164D01*
X152796179Y-66851666D01*
X152583278Y-65989785D01*
X152360918Y-65413317D01*
X152108768Y-65076061D01*
X151806495Y-64931815D01*
X151643553Y-64917552D01*
X151335381Y-65018946D01*
X150781654Y-65298313D01*
X150048922Y-65718424D01*
X149203735Y-66242053D01*
X148763255Y-66528746D01*
X147694806Y-67224411D01*
X146901744Y-67712359D01*
X146353110Y-68008189D01*
X146017944Y-68127504D01*
X145865285Y-68085902D01*
X145847992Y-67997775D01*
X145909946Y-67754305D01*
X146063781Y-67271747D01*
X146220908Y-66813074D01*
X146446886Y-65932737D01*
X146567611Y-64953071D01*
X146577962Y-64004597D01*
X146472820Y-63217837D01*
X146373557Y-62921957D01*
X146034855Y-62466059D01*
X145624761Y-62154829D01*
X144953883Y-61956874D01*
X144054298Y-61893384D01*
X143050420Y-61960886D01*
X142066663Y-62155907D01*
X141720876Y-62263820D01*
X141123290Y-62465766D01*
X140672326Y-62603284D01*
X140493522Y-62642925D01*
X140373439Y-62586555D01*
X140384686Y-62393521D01*
X140545514Y-62027933D01*
X140874174Y-61453901D01*
X141388917Y-60635536D01*
X141955983Y-59767114D01*
X142543762Y-58845904D01*
X143028318Y-58028385D01*
X143375728Y-57375763D01*
X143552073Y-56949246D01*
X143567177Y-56859880D01*
X143500243Y-56521955D01*
X143268146Y-56246439D01*
X142823941Y-56012391D01*
X142120681Y-55798872D01*
X141111421Y-55584941D01*
X140439565Y-55464774D01*
X136809983Y-54933913D01*
X132893545Y-54533417D01*
X128761151Y-54268228D01*
X124483700Y-54143288D01*
X121457316Y-54141741D01*
X119908177Y-54155665D01*
X118697762Y-54153405D01*
X117785790Y-54127450D01*
X117131982Y-54070285D01*
X116696056Y-53974397D01*
X116437730Y-53832274D01*
X116316725Y-53636400D01*
X116292760Y-53379264D01*
X116309459Y-53181538D01*
X116464323Y-52821719D01*
X116866264Y-52401834D01*
X117538115Y-51906366D01*
X118502708Y-51319801D01*
X119782877Y-50626622D01*
X120915684Y-50051381D01*
X124441872Y-48459420D01*
X128174060Y-47077269D01*
X132014208Y-45933941D01*
X135864279Y-45058445D01*
X139626233Y-44479793D01*
X139816049Y-44458536D01*
X141069342Y-44351980D01*
X142435119Y-44288322D01*
X143824187Y-44266926D01*
X145147352Y-44287152D01*
G37*
D10*
X138830470Y-69909530D03*
X137540000Y-71200000D03*
X141620470Y-72799530D03*
X140330000Y-74090000D03*
D11*
X161779356Y-84240962D03*
X162420644Y-82479038D03*
D10*
X140280470Y-71439530D03*
X138990000Y-72730000D03*
D12*
X125747785Y-46286883D03*
X124048457Y-47079293D03*
D13*
X142797500Y-42550000D03*
X140922500Y-42550000D03*
D10*
X135630470Y-66929530D03*
X134340000Y-68220000D03*
D14*
X136635000Y-103640000D03*
X158605000Y-103640000D03*
D15*
X147620000Y-103640000D03*
D16*
X164382913Y-45212913D03*
X163057087Y-43887087D03*
D17*
X165970000Y-64317500D03*
X165970000Y-62442500D03*
D10*
X137290470Y-68439530D03*
X136000000Y-69730000D03*
M02*
